<svg width="24" height="24" viewBox="0 0 24 24" fill="none" xmlns="http://www.w3.org/2000/svg">
<g clip-path="url(#clip0_812_1193)">
<path d="M21.5172 13.6552H20.2386C20.5367 13.0062 20.6906 12.3004 20.6897 11.5862H21.5007C21.6176 11.5855 21.7288 11.5359 21.8075 11.4494C21.8861 11.3629 21.9249 11.2475 21.9145 11.131C21.7911 9.45558 20.992 7.90222 19.7007 6.82759V6.82346L20.6483 3.98897C20.7422 3.70809 20.679 3.39846 20.4827 3.17672C20.2864 2.95498 19.9867 2.85482 19.6965 2.91396C19.4063 2.97311 19.1697 3.18257 19.0759 3.46346L18.2566 5.92139C17.4603 5.56345 16.5971 5.37868 15.7241 5.37932L7.55173 2.1807C6.78201 1.88203 5.9099 2.19627 5.50759 2.91725L2.26345 8.75173C2.13603 8.9823 2.06912 9.2414 2.06897 9.50484V10.4483C2.06897 11.036 2.40104 11.5733 2.92674 11.8362C3.45244 12.099 4.08153 12.0423 4.55173 11.6897L5.37931 11.069C5.64769 10.8671 5.97452 10.7581 6.31035 10.7586H9.57104C9.55449 10.8828 9.54207 11.0069 9.5338 11.131C9.52338 11.2475 9.56219 11.3629 9.64082 11.4494C9.71945 11.5359 9.8307 11.5855 9.94759 11.5862H10.7586C10.7577 12.3004 10.9116 13.0062 11.2097 13.6552H6.62069C6.39216 13.6552 6.2069 13.8404 6.2069 14.069V14.4828C6.20826 14.9393 6.57799 15.309 7.03449 15.3104H21.1035C21.5599 15.309 21.9297 14.9393 21.931 14.4828V14.069C21.931 13.8404 21.7458 13.6552 21.5172 13.6552ZM8.63587 4.89104L6.41794 8.87587C6.30888 9.07166 6.06977 9.15374 5.86345 9.06622L4.81242 8.6069C4.69995 8.55728 4.6135 8.4627 4.57416 8.34624C4.53481 8.22978 4.54619 8.10215 4.60552 7.99449L6.80276 4.04691C6.90797 3.85639 7.13798 3.77323 7.34069 3.85242L8.41242 4.27449C8.52904 4.32061 8.62028 4.41453 8.66302 4.53244C8.70575 4.65034 8.69586 4.78091 8.63587 4.89104Z" fill="#3B97D3"/>
<path fill-rule="evenodd" clip-rule="evenodd" d="M20.6896 11.5862C20.6906 12.3004 20.5367 13.0062 20.2386 13.6552H11.2096C10.9116 13.0062 10.7577 12.3004 10.7586 11.5862H10.7793C10.991 11.5852 11.1678 11.4245 11.189 11.2138C11.3903 8.85888 13.3606 7.0499 15.7241 7.0499C18.0876 7.0499 20.0579 8.85888 20.2593 11.2138C20.2805 11.4245 20.4572 11.5852 20.669 11.5862H20.6896Z" fill="#7F8C8D"/>
<path fill-rule="evenodd" clip-rule="evenodd" d="M21.931 14.069V14.4828C21.9297 14.9393 21.56 15.309 21.1035 15.3104H7.0345C6.578 15.309 6.20827 14.9393 6.20691 14.4828V14.069C6.20691 13.8404 6.39217 13.6552 6.6207 13.6552H21.5173C21.7458 13.6552 21.931 13.8404 21.931 14.069Z" fill="#A5A5A4"/>
<path fill-rule="evenodd" clip-rule="evenodd" d="M24 16.1379V21.1035C24.0011 21.2905 23.9367 21.4721 23.8179 21.6166C23.6623 21.8148 23.4244 21.9307 23.1724 21.9311H0.827586C0.371089 21.9297 0.00136337 21.56 0 21.1035V16.1379C0.00136337 15.6815 0.371089 15.3117 0.827586 15.3104H23.1724C23.6289 15.3117 23.9986 15.6815 24 16.1379Z" fill="#CB8252"/>
<path fill-rule="evenodd" clip-rule="evenodd" d="M4.18342 21.9311H3.16963C1.89781 19.9581 1.2278 17.6577 1.24135 15.3104H2.06894C2.04587 17.6869 2.78714 20.0079 4.18342 21.9311Z" fill="#009688"/>
<path fill-rule="evenodd" clip-rule="evenodd" d="M7.48961 21.9311H6.48409C5.20863 19.9598 4.53829 17.6582 4.55582 15.3104H5.37926C5.35605 17.6862 6.09575 20.0069 7.48961 21.9311Z" fill="#009688"/>
<path fill-rule="evenodd" clip-rule="evenodd" d="M10.7958 21.9311H9.78618C8.51166 19.9596 7.84273 17.6579 7.86204 15.3104H8.68963C8.6631 17.6861 9.40154 20.0073 10.7958 21.9311Z" fill="#009688"/>
<path fill-rule="evenodd" clip-rule="evenodd" d="M14.1103 21.9311H13.0965C11.8255 19.958 11.1568 17.6573 11.1724 15.3104H12C11.9781 17.686 12.7177 20.0063 14.1103 21.9311Z" fill="#009688"/>
<path fill-rule="evenodd" clip-rule="evenodd" d="M17.4124 21.9311H16.3986C15.1269 19.9587 14.4608 17.657 14.4827 15.3104H15.3103C15.2771 17.6864 16.0146 20.0093 17.4124 21.9311Z" fill="#009688"/>
<path fill-rule="evenodd" clip-rule="evenodd" d="M20.7351 21.9311H19.7213C18.4495 19.9581 17.7795 17.6577 17.793 15.3104H18.6206C18.5995 17.6866 19.3406 20.007 20.7351 21.9311Z" fill="#009688"/>
<path fill-rule="evenodd" clip-rule="evenodd" d="M23.8179 21.6166C23.6623 21.8148 23.4244 21.9307 23.1724 21.9311H23.0317C21.7581 19.959 21.0879 17.6579 21.1034 15.3104H21.931C21.9141 17.554 22.5715 19.751 23.8179 21.6166Z" fill="#009688"/>
<path d="M15.7241 13.6552C16.8668 13.6552 17.7931 12.7289 17.7931 11.5862C17.7931 10.4435 16.8668 9.51724 15.7241 9.51724C14.5815 9.51724 13.6552 10.4435 13.6552 11.5862C13.6552 12.7289 14.5815 13.6552 15.7241 13.6552Z" fill="#547580"/>
<path fill-rule="evenodd" clip-rule="evenodd" d="M21.9145 11.1311C21.9249 11.2475 21.8861 11.3629 21.8074 11.4494C21.7288 11.5359 21.6176 11.5855 21.5007 11.5862H20.6689C20.4572 11.5852 20.2805 11.4245 20.2593 11.2138C20.0579 8.8589 18.0876 7.04991 15.7241 7.04991C13.3606 7.04991 11.3903 8.8589 11.1889 11.2138C11.1678 11.4245 10.991 11.5852 10.7793 11.5862H9.94756C9.83068 11.5855 9.71942 11.5359 9.64079 11.4494C9.56217 11.3629 9.52335 11.2475 9.53377 11.1311C9.54205 11.0069 9.55446 10.8828 9.57101 10.7586C9.87287 8.519 11.3681 6.62041 13.4747 5.80207C15.5812 4.98372 17.966 5.37497 19.7007 6.82347V6.82761C20.992 7.90223 21.7911 9.45559 21.9145 11.1311Z" fill="#2980BA"/>
<path d="M15.7242 12C15.9527 12 16.1379 11.8147 16.1379 11.5862C16.1379 11.3577 15.9527 11.1724 15.7242 11.1724C15.4956 11.1724 15.3104 11.3577 15.3104 11.5862C15.3104 11.8147 15.4956 12 15.7242 12Z" fill="#35495E"/>
<path fill-rule="evenodd" clip-rule="evenodd" d="M20.6483 3.98898L19.7007 6.82346C19.2632 6.45762 18.7772 6.15406 18.2565 5.92139L19.0758 3.46346C19.1697 3.18258 19.4063 2.97311 19.6965 2.91397C19.9867 2.85482 20.2864 2.95498 20.4827 3.17672C20.679 3.39846 20.7421 3.70809 20.6483 3.98898Z" fill="#285680"/>
<path d="M7.55173 2.1807C6.78201 1.88203 5.9099 2.19627 5.50759 2.91725L2.26345 8.75173C2.13603 8.9823 2.06912 9.2414 2.06897 9.50484V10.4483C2.06897 11.036 2.40104 11.5733 2.92674 11.8362C3.45244 12.099 4.08153 12.0423 4.55173 11.6897L5.37931 11.069C5.64769 10.8671 5.97452 10.7581 6.31035 10.7586H9.57104C9.99131 7.68075 12.6177 5.38464 15.7241 5.37932L7.55173 2.1807ZM8.63587 4.89104L6.41794 8.87587C6.30888 9.07166 6.06977 9.15374 5.86345 9.06622L4.81242 8.6069C4.69995 8.55728 4.6135 8.4627 4.57416 8.34624C4.53481 8.22978 4.54619 8.10215 4.60552 7.99449L6.80276 4.04691C6.90797 3.85639 7.13798 3.77323 7.34069 3.85242L8.41242 4.27449C8.52904 4.32061 8.62028 4.41453 8.66302 4.53244C8.70575 4.65034 8.69586 4.78091 8.63587 4.89104Z" fill="#3B97D3"/>
<path d="M10.3448 5.7931C10.5734 5.7931 10.7586 5.60784 10.7586 5.37931C10.7586 5.15078 10.5734 4.96552 10.3448 4.96552C10.1163 4.96552 9.93103 5.15078 9.93103 5.37931C9.93103 5.60784 10.1163 5.7931 10.3448 5.7931Z" fill="#285680"/>
</g>
<defs>
<clipPath id="clip0_812_1193">
<rect width="24" height="24" fill="white"/>
</clipPath>
</defs>
</svg>
