<svg width="24" height="24" viewBox="0 0 24 24" fill="none" xmlns="http://www.w3.org/2000/svg">
<g clip-path="url(#clip0_812_1171)">
<path d="M14.5531 14.069C14.4187 13.6889 14.4772 13.2673 14.7101 12.9382C14.9429 12.6091 15.321 12.4136 15.7241 12.4138C15.7239 11.9811 15.9491 11.5796 16.3183 11.354C16.6875 11.1285 17.1475 11.1114 17.5324 11.309C17.8584 10.6046 18.6301 10.2214 19.3883 10.3873C20.1466 10.5533 20.6876 11.2238 20.6896 12C20.6888 12.141 20.6708 12.2813 20.6358 12.4179C20.6535 12.4145 20.6716 12.4131 20.6896 12.4138C21.0927 12.4136 21.4708 12.6091 21.7037 12.9382C21.9365 13.2673 21.995 13.6889 21.8606 14.069L18.2069 14.8966L14.5531 14.069Z" fill="#9FC9D3"/>
<path d="M21.1035 22.3448L18.2069 23.1724L15.3103 22.3448L14.069 15.7241L18.2069 14.8965L22.3448 15.7241L21.1035 22.3448Z" fill="#C03A2B"/>
<path d="M23.1724 22.3448H0.827586C0.370523 22.3448 0 22.7153 0 23.1724C0 23.6295 0.370523 24 0.827586 24H23.1724C23.6295 24 24 23.6295 24 23.1724C24 22.7153 23.6295 22.3448 23.1724 22.3448Z" fill="#FF5364"/>
<path d="M11.5862 21.931V22.3448H4.96547C2.90869 22.3448 1.24133 20.6775 1.24133 18.6207C1.24133 16.5639 2.90869 14.8965 4.96547 14.8965C5.27801 14.8971 5.58931 14.936 5.89237 15.0124C5.8934 15.0186 5.89629 15.0244 5.90064 15.029C5.93627 15.0965 5.98236 15.1579 6.0372 15.211L8.37513 17.549C8.43171 17.6092 8.49908 17.6583 8.57375 17.6938C8.65017 17.9968 8.68908 18.3081 8.68961 18.6207C8.68971 18.759 8.68142 18.8972 8.66478 19.0345C8.65275 19.1744 8.62782 19.3129 8.5903 19.4483C8.56435 19.5894 8.52557 19.7279 8.47444 19.8621H9.5172C10.0659 19.8621 10.5922 20.08 10.9802 20.468C11.3682 20.8561 11.5862 21.3823 11.5862 21.931Z" fill="#009688"/>
<path d="M9.54619 17.549C9.39188 17.7046 9.18194 17.7925 8.96274 17.7931C8.82675 17.7936 8.69288 17.7594 8.57377 17.6938C8.4991 17.6583 8.43174 17.6092 8.37515 17.549L6.03722 15.211C5.98239 15.1579 5.9363 15.0965 5.90067 15.029C5.89631 15.0244 5.89343 15.0186 5.89239 15.0124C5.69695 14.6514 5.79673 14.2017 6.12648 13.9572C6.45622 13.7128 6.91555 13.7481 7.20412 14.04L7.7917 14.6276L9.54619 16.3821C9.70113 16.5367 9.78821 16.7466 9.78821 16.9655C9.78821 17.1844 9.70113 17.3943 9.54619 17.549Z" fill="#BDC3C7"/>
<path d="M23.3421 0.240468C23.6652 0.563612 23.6652 1.08753 23.3421 1.41068L8.96168 15.7911L7.79148 14.6208L22.1719 0.240468C22.495 -0.0826754 23.0189 -0.0826753 23.3421 0.240468Z" fill="#F29C1F"/>
<path d="M22.3448 14.069H14.0689C13.6119 14.069 13.2413 14.4395 13.2413 14.8966C13.2413 15.3536 13.6119 15.7241 14.0689 15.7241H22.3448C22.8018 15.7241 23.1724 15.3536 23.1724 14.8966C23.1724 14.4395 22.8018 14.069 22.3448 14.069Z" fill="#E64C3C"/>
<path d="M16.9655 17.7931H16.1379C15.9094 17.7931 15.7241 17.6078 15.7241 17.3793C15.7241 17.1508 15.9094 16.9655 16.1379 16.9655H16.9655C17.194 16.9655 17.3793 17.1508 17.3793 17.3793C17.3793 17.6078 17.194 17.7931 16.9655 17.7931Z" fill="white"/>
<path d="M19.8621 17.7931H18.6207C18.3922 17.7931 18.2069 17.6078 18.2069 17.3793C18.2069 17.1508 18.3922 16.9655 18.6207 16.9655H19.8621C20.0906 16.9655 20.2759 17.1508 20.2759 17.3793C20.2759 17.6078 20.0906 17.7931 19.8621 17.7931Z" fill="white"/>
<path d="M22.7586 10.7586C23.2157 10.7586 23.5862 10.3881 23.5862 9.93104C23.5862 9.47398 23.2157 9.10345 22.7586 9.10345C22.3016 9.10345 21.931 9.47398 21.931 9.93104C21.931 10.3881 22.3016 10.7586 22.7586 10.7586Z" fill="#9FC9D3"/>
<path d="M20.6896 8.27587C21.1467 8.27587 21.5172 7.90535 21.5172 7.44828C21.5172 6.99122 21.1467 6.6207 20.6896 6.6207C20.2326 6.6207 19.8621 6.99122 19.8621 7.44828C19.8621 7.90535 20.2326 8.27587 20.6896 8.27587Z" fill="#9FC9D3"/>
<path d="M4.9656 3.72412C4.85587 3.7241 4.75063 3.68049 4.67305 3.60288L4.05236 2.98219C3.94479 2.8783 3.90165 2.72445 3.93952 2.57978C3.97739 2.4351 4.09037 2.32212 4.23505 2.28425C4.37972 2.24638 4.53357 2.28952 4.63747 2.39709L5.25815 3.01778C5.37646 3.13612 5.41185 3.31407 5.34781 3.46867C5.28378 3.62327 5.13294 3.72409 4.9656 3.72412Z" fill="#955BA5"/>
<path d="M3.10349 1.86208C2.99376 1.86205 2.88853 1.81844 2.81094 1.74083L2.19025 1.12014C2.03344 0.957781 2.03568 0.699696 2.19529 0.540082C2.35491 0.380468 2.61299 0.378225 2.77536 0.535041L3.39605 1.15573C3.51435 1.27407 3.54974 1.45202 3.48571 1.60662C3.42167 1.76122 3.27083 1.86204 3.10349 1.86208Z" fill="#955BA5"/>
<path d="M2.48281 3.72414C2.31547 3.7241 2.16463 3.62328 2.1006 3.46868C2.03657 3.31408 2.07195 3.13613 2.19026 3.01779L2.81095 2.3971C2.97331 2.24029 3.2314 2.24253 3.39101 2.40214C3.55062 2.56176 3.55287 2.81984 3.39605 2.9822L2.77536 3.60289C2.69778 3.6805 2.59254 3.72411 2.48281 3.72414Z" fill="#955BA5"/>
<path d="M4.34487 1.86206C4.17753 1.86203 4.02669 1.76121 3.96266 1.60661C3.89863 1.45201 3.93401 1.27406 4.05232 1.15572L4.67301 0.535028C4.7769 0.42746 4.93075 0.384319 5.07542 0.422188C5.2201 0.460056 5.33308 0.57304 5.37095 0.717714C5.40882 0.862389 5.36568 1.01624 5.25811 1.12013L4.63742 1.74082C4.55984 1.81843 4.45461 1.86204 4.34487 1.86206Z" fill="#955BA5"/>
<path d="M4.40238 9.30703C3.64164 9.65732 3.03176 10.2688 2.68348 11.0305C2.65178 11.1157 2.57043 11.1723 2.47948 11.1723C2.38854 11.1723 2.30719 11.1157 2.27548 11.0305C1.92721 10.2688 1.31733 9.65732 0.556588 9.30703C0.470774 9.27609 0.413574 9.19467 0.413574 9.10345C0.413574 9.01223 0.470774 8.9308 0.556588 8.89986C1.31936 8.55235 1.93022 7.94002 2.2759 7.17641C2.3076 7.09118 2.38896 7.03464 2.4799 7.03464C2.57084 7.03464 2.65219 7.09118 2.6839 7.17641C3.02947 7.93995 3.64018 8.55227 4.40279 8.89986C4.48858 8.93089 4.54569 9.01237 4.5456 9.10359C4.54551 9.19481 4.48823 9.27618 4.40238 9.30703Z" fill="#F3D55B"/>
<path d="M13.4544 4.42386C12.3865 4.91572 11.5303 5.77413 11.0412 6.84331C10.9968 6.96288 10.8828 7.04222 10.7553 7.04222C10.6277 7.04222 10.5137 6.96288 10.4693 6.84331C9.98021 5.77413 9.124 4.91572 8.05608 4.42386C7.93574 4.38024 7.85559 4.26594 7.85559 4.13793C7.85559 4.00993 7.93574 3.89563 8.05608 3.852C9.12661 3.36403 9.98387 2.50442 10.4689 1.43255C10.5133 1.31299 10.6273 1.23364 10.7548 1.23364C10.8824 1.23364 10.9964 1.31299 11.0408 1.43255C11.5259 2.50449 12.3833 3.36411 13.454 3.852C13.5744 3.89554 13.6546 4.00978 13.6547 4.13779C13.6548 4.26579 13.5747 4.38015 13.4544 4.42386Z" fill="#F3D55B"/>
<path d="M8.66487 19.0345C8.65284 19.1744 8.6279 19.3129 8.59038 19.4483C8.56443 19.5894 8.52565 19.728 8.47452 19.8621H7.03452C6.80599 19.8621 6.62073 19.6768 6.62073 19.4483C6.62073 19.2197 6.80599 19.0345 7.03452 19.0345H8.66487Z" fill="#805333"/>
</g>
<defs>
<clipPath id="clip0_812_1171">
<rect width="24" height="24" fill="white"/>
</clipPath>
</defs>
</svg>
