<svg id="lock" xmlns="http://www.w3.org/2000/svg" width="14.75" height="19.667" viewBox="0 0 14.75 19.667">
  <path id="Path_31074" data-name="Path 31074" d="M12.906,204.292H1.844A1.846,1.846,0,0,1,0,202.448v-8.6A1.846,1.846,0,0,1,1.844,192H12.906a1.846,1.846,0,0,1,1.844,1.844v8.6A1.846,1.846,0,0,1,12.906,204.292ZM1.844,193.229a.615.615,0,0,0-.615.615v8.6a.615.615,0,0,0,.615.615H12.906a.615.615,0,0,0,.615-.615v-8.6a.615.615,0,0,0-.615-.615Zm0,0" transform="translate(0 -184.625)" fill="#d42941"/>
  <path id="Path_31075" data-name="Path 31075" d="M73.219,8.6A.615.615,0,0,1,72.6,7.99V4.917a3.687,3.687,0,1,0-7.375,0V7.99A.615.615,0,1,1,64,7.99V4.917a4.917,4.917,0,1,1,9.833,0V7.99A.615.615,0,0,1,73.219,8.6Zm0,0" transform="translate(-61.542)" fill="#d42941"/>
</svg>
