<svg width="24" height="24" viewBox="0 0 24 24" fill="none" xmlns="http://www.w3.org/2000/svg">
<g clip-path="url(#clip0_812_1125)">
<path d="M14.2303 5.91312L10.1959 5.01932C10.2207 4.88691 10.2497 4.75036 10.2786 4.61381L10.7297 2.5945C10.9186 1.73686 11.441 0.98963 12.1815 0.517646C12.9221 0.0456614 13.8201 -0.112291 14.6772 0.0786355L13.6014 4.92829C13.5039 5.37379 13.7852 5.81421 14.2303 5.91312Z" fill="#BDC3C7"/>
<path d="M21.3104 4.20415C21.3106 4.4463 21.2842 4.68775 21.2317 4.92415L20.3338 8.96277C19.8869 10.9862 15.2193 12.9145 13.829 13.4524C12.869 13.8248 8.83037 20.1186 7.26623 22.8331C6.94985 23.3837 6.42206 23.7809 5.80544 23.9325C5.18882 24.0841 4.53701 23.9769 4.0014 23.6359H3.99726C3.46946 23.299 3.09985 22.7635 2.97212 22.1505C2.84438 21.5375 2.96932 20.899 3.31864 20.3793C4.86623 18.0828 8.65243 12.5876 9.15726 11.5697C9.88554 10.1173 9.67864 7.68829 10.1959 5.01932L14.2304 5.91311L14.6317 6.00415L16.6552 6.45105C17.1007 6.54855 17.5411 6.26727 17.64 5.82208L18.7159 0.976562C20.2299 1.31191 21.3083 2.65339 21.3104 4.20415Z" fill="#E64C3C"/>
<path d="M14.6773 7.70899L11.7187 9.59589C11.4961 9.54644 11.3554 9.32623 11.4042 9.10348L11.76 7.48555C11.8106 7.26181 12.0327 7.12118 12.2566 7.17106L14.6773 7.70899Z" fill="#ECF0F1"/>
<path d="M14.9917 8.2014L14.6359 9.81933C14.5853 10.0431 14.3632 10.1837 14.1393 10.1338L11.7186 9.59588L14.6772 7.70898C14.8998 7.75844 15.0405 7.97865 14.9917 8.2014Z" fill="#BDC3C7"/>
<path d="M14.7683 7.30345L12.3476 6.76552C12.1319 6.71772 11.9061 6.75757 11.7199 6.87631C11.5336 6.99505 11.4022 7.18294 11.3545 7.39863L10.9986 9.01242C10.9047 9.45821 11.184 9.89738 11.6276 10.0014L14.0483 10.5393C14.1083 10.5508 14.1693 10.5563 14.2303 10.5559C14.6183 10.5565 14.955 10.2885 15.0414 9.91035L15.3972 8.29242C15.4865 7.84747 15.2091 7.41125 14.7683 7.30345ZM14.2303 9.72828L11.8097 9.19035L12.1655 7.57656L14.5862 8.11449L14.2303 9.72828Z" fill="#C03A2B"/>
</g>
<defs>
<clipPath id="clip0_812_1125">
<rect width="24" height="24" fill="white"/>
</clipPath>
</defs>
</svg>
