<svg width="20" height="20" viewBox="0 0 20 20" fill="none" xmlns="http://www.w3.org/2000/svg">
<g clip-path="url(#clip0_3_1869)">
<path d="M4.44405 10.7804L13.3443 19.6805C13.5501 19.8865 13.8249 20 14.1179 20C14.411 20 14.6857 19.8865 14.8916 19.6805L15.547 19.0252C15.9735 18.5982 15.9735 17.9043 15.547 17.4779L8.07328 10.0041L15.5553 2.52217C15.7612 2.316 15.8748 2.0415 15.8748 1.74867C15.8748 1.4555 15.7612 1.18083 15.5553 0.974667L14.8999 0.3195C14.6939 0.1135 14.4192 -1.27253e-07 14.1262 -1.52867e-07C13.8332 -1.78482e-07 13.5584 0.1135 13.3526 0.3195L4.44405 9.22773C4.23771 9.4344 4.12438 9.71033 4.12503 10.0036C4.12438 10.2981 4.23771 10.5739 4.44405 10.7804Z" fill="#0078BA"/>
</g>
<defs>
<clipPath id="clip0_3_1869">
<rect width="20" height="20" fill="white" transform="translate(20 20) rotate(-180)"/>
</clipPath>
</defs>
</svg>
