<svg width="50" height="50" viewBox="0 0 50 50" fill="none" xmlns="http://www.w3.org/2000/svg">
<path d="M30.5117 28.0508C32.5877 29.262 34.2069 31.1232 35.1191 33.3468C36.0313 35.5705 36.1857 38.0327 35.5584 40.3528C34.931 42.673 33.5569 44.7219 31.6485 46.1829C29.74 47.6438 27.4035 48.4355 25 48.4355C22.5965 48.4355 20.26 47.6438 18.3515 46.1829C16.4431 44.7219 15.069 42.673 14.4416 40.3528C13.8143 38.0327 13.9687 35.5705 14.8809 33.3468C15.7931 31.1232 17.4123 29.262 19.4883 28.0508L19.5227 7.03125C19.5249 5.58006 20.103 4.18908 21.13 3.16374C22.1569 2.13839 23.5488 1.5625 25 1.5625C26.4512 1.5625 27.8431 2.13839 28.87 3.16374C29.897 4.18908 30.4751 5.58006 30.4773 7.03125L30.5117 28.0508Z" fill="#CAD4E6"/>
<path d="M35.8594 38.843C36.1224 36.7184 35.7561 34.5633 34.8059 32.6449C33.8557 30.7265 32.3635 29.1291 30.5141 28.0508L30.4774 7.03124C30.475 5.85301 30.0928 4.70693 29.3876 3.76304C28.6824 2.81915 27.6917 2.12775 26.5625 1.7914C25.4333 2.12775 24.4426 2.81915 23.7374 3.76304C23.0322 4.70693 22.65 5.85301 22.6477 7.03124L22.6133 28.0508C20.6513 29.1942 19.0943 30.9204 18.1584 32.9894C17.2225 35.0584 16.9543 37.3675 17.3911 39.596C17.8279 41.8244 18.9479 43.8615 20.5956 45.4241C22.2433 46.9868 24.3367 47.9974 26.5852 48.3156C28.9529 47.9651 31.141 46.8495 32.8155 45.1392C34.49 43.4288 35.559 41.2176 35.8594 38.843Z" fill="#DFE5F0"/>
<path d="M22.6563 7.11484C22.6454 6.48222 22.8862 5.87117 23.3257 5.416C23.7651 4.96083 24.3674 4.6988 25 4.6875C25.6326 4.6988 26.2349 4.96083 26.6744 5.416C27.1139 5.87117 27.3546 6.48222 27.3438 7.11484L27.3234 30.0391C29.1064 30.5945 30.6314 31.7702 31.6222 33.3532C32.6129 34.9361 33.0039 36.8216 32.7242 38.668C32.4446 40.5144 31.5128 42.1996 30.0976 43.4181C28.6825 44.6367 26.8778 45.308 25.0103 45.3105C23.1428 45.313 21.3363 44.6465 19.9179 43.4317C18.4995 42.217 17.5632 40.5343 17.2786 38.6887C16.994 36.8431 17.3799 34.9565 18.3664 33.3709C19.3529 31.7853 20.8748 30.6055 22.6563 30.0453V7.11484Z" fill="#F44A6E"/>
<path d="M27.3234 30.0391L27.3438 7.11486C27.3455 6.69487 27.2385 6.28159 27.0331 5.91523C26.8278 5.54887 26.5311 5.24191 26.1719 5.02423C25.8127 5.24191 25.516 5.54887 25.3106 5.91523C25.1053 6.28159 24.9983 6.69487 25 7.11486V30.0453C23.3158 30.574 21.8605 31.6578 20.8715 33.1199C19.8824 34.582 19.418 36.3361 19.5539 38.0961C19.6899 39.856 20.4182 41.518 21.6201 42.8108C22.822 44.1037 24.4265 44.9511 26.1719 45.2149C27.919 44.9508 29.5249 44.1019 30.7271 42.8069C31.9293 41.5119 32.6567 39.8474 32.7904 38.0855C32.9241 36.3236 32.4562 34.5684 31.4632 33.1068C30.4702 31.6453 29.0107 30.5638 27.3234 30.0391Z" fill="#FF5773"/>
<path d="M25.7813 42.118C25.7823 41.9326 25.8494 41.7536 25.9703 41.613C26.0912 41.4725 26.2582 41.3795 26.4414 41.3508C27.0254 41.2506 27.5789 41.0189 28.06 40.6732C28.5412 40.3275 28.9374 39.8769 29.2187 39.3555C29.3045 39.1912 29.4459 39.0627 29.6176 38.993C29.7893 38.9233 29.9802 38.9169 30.1562 38.975C30.263 39.0101 30.361 39.0678 30.4435 39.1442C30.5259 39.2206 30.5909 39.314 30.634 39.4178C30.6771 39.5216 30.6973 39.6335 30.6932 39.7459C30.6891 39.8582 30.6607 39.9684 30.6101 40.0688C30.2153 40.8123 29.6541 41.4546 28.9704 41.9457C28.2866 42.4367 27.4987 42.7633 26.668 42.9C26.5568 42.9151 26.4437 42.9062 26.3363 42.8737C26.229 42.8412 26.1298 42.786 26.0457 42.7118C25.9616 42.6376 25.8944 42.5462 25.8488 42.4437C25.8031 42.3412 25.7801 42.2301 25.7813 42.118Z" fill="white"/>
<path d="M22.6563 15.625V7.11484C22.6454 6.48222 22.8862 5.87117 23.3256 5.416C23.7651 4.96083 24.3674 4.6988 25 4.6875C25.6326 4.6988 26.2349 4.96083 26.6744 5.416C27.1139 5.87117 27.3546 6.48222 27.3438 7.11484V15.625H22.6563Z" fill="#97A6BF"/>
<path d="M25 4.6875V15.625H27.3438V7.11484C27.3546 6.48222 27.1139 5.87117 26.6744 5.416C26.2349 4.96083 25.6326 4.6988 25 4.6875Z" fill="#BAC5D9"/>
</svg>
