<svg width="50" height="50" viewBox="0 0 50 50" fill="none" xmlns="http://www.w3.org/2000/svg">
<g clip-path="url(#clip0_3_1507)">
<path d="M20.3125 35.9375C20.3333 34.1297 19.9573 32.3393 19.2111 30.6925C18.4649 29.0457 17.3667 27.5826 15.9937 26.4062C13.8813 24.6446 12.3323 22.3018 11.5387 19.6682C10.7451 17.0345 10.7418 14.2259 11.5293 11.5905C12.3167 8.955 13.8602 6.60855 15.9686 4.84198C18.0769 3.0754 20.6572 1.96637 23.3898 1.65234C24.4599 1.53255 25.5401 1.53255 26.6101 1.65234C29.3427 1.96637 31.9231 3.0754 34.0314 4.84198C36.1397 6.60855 37.6833 8.955 38.4707 11.5905C39.2581 14.2259 39.2549 17.0345 38.4613 19.6682C37.6677 22.3018 36.1187 24.6446 34.0062 26.4062C32.6333 27.5826 31.535 29.0457 30.7888 30.6925C30.0427 32.3393 29.6667 34.1297 29.6875 35.9375" fill="#F9D655"/>
<path d="M35.7234 20.3639C38.7739 17.3133 37.7848 11.3783 33.5141 7.1076C29.2433 2.83688 23.3083 1.84771 20.2578 4.89822C17.2073 7.94873 18.1965 13.8838 22.4672 18.1545C26.7379 22.4252 32.6729 23.4144 35.7234 20.3639Z" fill="#FFE48D"/>
<path d="M33.9219 16.6421C36.0572 14.5068 35.5626 10.5501 32.8172 7.80463C30.0717 5.05917 26.115 4.56458 23.9797 6.69994C21.8443 8.8353 22.3389 12.792 25.0844 15.5374C27.8298 18.2829 31.7865 18.7775 33.9219 16.6421Z" fill="#FFEBB3"/>
<path d="M24.2188 7.8125H25.7812V30.468H24.2188V7.8125Z" fill="#B7B7B7"/>
<path d="M29.6875 35.9375C30.1019 35.9375 30.4993 36.1021 30.7924 36.3952C31.0854 36.6882 31.25 37.0856 31.25 37.5C31.25 37.9144 31.0854 38.3119 30.7924 38.6049C30.4993 38.8979 30.1019 39.0625 29.6875 39.0625C30.1019 39.0625 30.4993 39.2271 30.7924 39.5202C31.0854 39.8132 31.25 40.2106 31.25 40.625C31.25 41.0394 31.0854 41.4369 30.7924 41.7299C30.4993 42.0229 30.1019 42.1875 29.6875 42.1875C30.1019 42.1875 30.4993 42.3521 30.7924 42.6452C31.0854 42.9382 31.25 43.3356 31.25 43.75C31.25 44.1644 31.0854 44.5619 30.7924 44.8549C30.4993 45.1479 30.1019 45.3125 29.6875 45.3125L28.8164 46.4742C28.2755 47.2209 27.5317 47.7968 26.6734 48.1336C25.7213 48.4947 24.6776 48.5368 23.6994 48.2534C22.7213 47.9701 21.8617 47.3767 21.25 46.5625L20.3125 45.3125C19.8981 45.3125 19.5007 45.1479 19.2076 44.8549C18.9146 44.5619 18.75 44.1644 18.75 43.75C18.75 43.3356 18.9146 42.9382 19.2076 42.6452C19.5007 42.3521 19.8981 42.1875 20.3125 42.1875C19.8981 42.1875 19.5007 42.0229 19.2076 41.7299C18.9146 41.4369 18.75 41.0394 18.75 40.625C18.75 40.2106 18.9146 39.8132 19.2076 39.5202C19.5007 39.2271 19.8981 39.0625 20.3125 39.0625C19.8981 39.0625 19.5007 38.8979 19.2076 38.6049C18.9146 38.3119 18.75 37.9144 18.75 37.5C18.75 37.0856 18.9146 36.6882 19.2076 36.3952C19.5007 36.1021 19.8981 35.9375 20.3125 35.9375" fill="#77787C"/>
<path d="M21.875 37.5C21.875 37.9144 22.0396 38.3119 22.3326 38.6049C22.6257 38.8979 23.0231 39.0625 23.4375 39.0625C23.0231 39.0625 22.6257 39.2271 22.3326 39.5202C22.0396 39.8132 21.875 40.2106 21.875 40.625C21.875 41.0394 22.0396 41.4369 22.3326 41.7299C22.6257 42.0229 23.0231 42.1875 23.4375 42.1875C23.0231 42.1875 22.6257 42.3521 22.3326 42.6452C22.0396 42.9382 21.875 43.3356 21.875 43.75C21.875 44.1644 22.0396 44.5619 22.3326 44.8549C22.6257 45.1479 23.0231 45.3125 23.4375 45.3125L24.375 46.5625C24.934 47.3016 25.7 47.858 26.5758 48.161C26.6086 48.15 26.6414 48.1453 26.6734 48.1336C27.5317 47.7968 28.2755 47.2209 28.8164 46.4742L29.6875 45.3125C30.1019 45.3125 30.4993 45.1479 30.7924 44.8549C31.0854 44.5619 31.25 44.1644 31.25 43.75C31.25 43.3356 31.0854 42.9382 30.7924 42.6452C30.4993 42.3521 30.1019 42.1875 29.6875 42.1875C30.1019 42.1875 30.4993 42.0229 30.7924 41.7299C31.0854 41.4369 31.25 41.0394 31.25 40.625C31.25 40.2106 31.0854 39.8132 30.7924 39.5202C30.4993 39.2271 30.1019 39.0625 29.6875 39.0625C30.1019 39.0625 30.4993 38.8979 30.7924 38.6049C31.0854 38.3119 31.25 37.9144 31.25 37.5C31.25 37.0856 31.0854 36.6882 30.7924 36.3952C30.4993 36.1021 30.1019 35.9375 29.6875 35.9375H23.4375C23.0231 35.9375 22.6257 36.1021 22.3326 36.3952C22.0396 36.6882 21.875 37.0856 21.875 37.5Z" fill="#959596"/>
<path d="M21.875 35.9375V32.0313C21.875 31.2025 22.2042 30.4076 22.7903 29.8216C23.3763 29.2355 24.1712 28.9063 25 28.9063C25.8288 28.9063 26.6237 29.2355 27.2097 29.8216C27.7958 30.4076 28.125 31.2025 28.125 32.0313V35.9375" fill="#3B3C3D"/>
<path d="M25.7812 29.0164C25.1117 29.1881 24.5181 29.5773 24.0938 30.1231C23.6696 30.6688 23.4387 31.34 23.4375 32.0313V35.9375H28.125V32.0313C28.1238 31.34 27.8929 30.6688 27.4687 30.1231C27.0444 29.5773 26.4508 29.1881 25.7812 29.0164Z" fill="#5A5B5E"/>
<path d="M21.875 32.8125H28.125V35.9375H21.875V32.8125Z" fill="#A37E23"/>
<path d="M28.8281 25L21.7969 24.2969C21.3904 24.2571 21.0132 24.0675 20.7388 23.765C20.4644 23.4624 20.3124 23.0686 20.3124 22.6602C20.3124 22.2517 20.4644 21.8579 20.7388 21.5554C21.0132 21.2528 21.3904 21.0632 21.7969 21.0234L28.0539 20.3984C28.0754 20.3984 28.0961 20.3899 28.1113 20.3746C28.1266 20.3594 28.1351 20.3387 28.1351 20.3172C28.1351 20.2956 28.1266 20.275 28.1113 20.2597C28.0961 20.2445 28.0754 20.2359 28.0539 20.2359L21.7969 19.6094C21.3904 19.5696 21.0132 19.38 20.7388 19.0775C20.4644 18.7749 20.3124 18.3811 20.3124 17.9727C20.3124 17.5642 20.4644 17.1704 20.7388 16.8679C21.0132 16.5653 21.3904 16.3757 21.7969 16.3359L28.0539 15.7109C28.0754 15.7109 28.0961 15.7024 28.1113 15.6871C28.1266 15.6719 28.1351 15.6512 28.1351 15.6297C28.1351 15.6081 28.1266 15.5875 28.1113 15.5722C28.0961 15.557 28.0754 15.5484 28.0539 15.5484L21.7969 14.9219C21.3904 14.8821 21.0132 14.6925 20.7388 14.39C20.4644 14.0874 20.3124 13.6936 20.3124 13.2852C20.3124 12.8767 20.4644 12.4829 20.7388 12.1804C21.0132 11.8778 21.3904 11.6882 21.7969 11.6484L28.0539 11.0234C28.0642 11.0226 28.0743 11.0196 28.0835 11.0148C28.0927 11.01 28.1009 11.0034 28.1075 10.9954C28.1141 10.9874 28.1191 10.9782 28.1221 10.9682C28.1251 10.9583 28.1261 10.9478 28.125 10.9375C28.1282 10.9147 28.1225 10.8915 28.1092 10.8728C28.0958 10.854 28.0757 10.8411 28.0531 10.8367L22.5594 10.15L22.7531 8.60001L28.2469 9.28672C28.6521 9.33606 29.0248 9.53336 29.2934 9.84074C29.562 10.1481 29.7075 10.5439 29.7021 10.9521C29.6967 11.3602 29.5407 11.752 29.264 12.0521C28.9873 12.3523 28.6095 12.5396 28.2031 12.5781L21.9461 13.2031C21.9245 13.2031 21.9039 13.2117 21.8886 13.2269C21.8734 13.2422 21.8648 13.2628 21.8648 13.2844C21.8648 13.3059 21.8734 13.3266 21.8886 13.3418C21.9039 13.3571 21.9245 13.3656 21.9461 13.3656L28.2031 13.9906C28.6096 14.0304 28.9868 14.22 29.2612 14.5225C29.5355 14.8251 29.6875 15.2189 29.6875 15.6274C29.6875 16.0358 29.5355 16.4296 29.2612 16.7322C28.9868 17.0347 28.6096 17.2243 28.2031 17.2641L21.9461 17.8891C21.9245 17.8891 21.9039 17.8976 21.8886 17.9129C21.8734 17.9281 21.8648 17.9488 21.8648 17.9703C21.8648 17.9919 21.8734 18.0125 21.8886 18.0278C21.9039 18.043 21.9245 18.0516 21.9461 18.0516L28.2031 18.6766C28.6096 18.7163 28.9868 18.9059 29.2612 19.2085C29.5355 19.511 29.6875 19.9048 29.6875 20.3133C29.6875 20.7217 29.5355 21.1155 29.2612 21.4181C28.9868 21.7206 28.6096 21.9102 28.2031 21.95L21.9461 22.575C21.9245 22.575 21.9039 22.5836 21.8886 22.5988C21.8734 22.614 21.8648 22.6347 21.8648 22.6563C21.8648 22.6778 21.8734 22.6985 21.8886 22.7137C21.9039 22.7289 21.9245 22.7375 21.9461 22.7375L28.9812 23.4406L28.8281 25Z" fill="#C15D2B"/>
<path d="M28.0508 20.2344C28.0723 20.2344 28.093 20.2429 28.1082 20.2582C28.1235 20.2734 28.132 20.2941 28.132 20.3156C28.132 20.3372 28.1235 20.3578 28.1082 20.3731C28.093 20.3883 28.0723 20.3969 28.0508 20.3969L25 20.7031V22.2734L28.2031 21.9531C28.6096 21.9134 28.9868 21.7238 29.2612 21.4212C29.5356 21.1187 29.6875 20.7248 29.6875 20.3164C29.6875 19.908 29.5356 19.5141 29.2612 19.2116C28.9868 18.9091 28.6096 18.7195 28.2031 18.6797L25 18.3594V19.9297L28.0508 20.2344Z" fill="#D87F52"/>
<path d="M28.8281 24.9961L28.9844 23.4414L25 23.043V24.6133L28.8281 24.9961Z" fill="#D87F52"/>
<path d="M28.2031 17.2656C28.6096 17.2259 28.9868 17.0363 29.2612 16.7337C29.5356 16.4312 29.6875 16.0373 29.6875 15.6289C29.6875 15.2205 29.5356 14.8266 29.2612 14.5241C28.9868 14.2216 28.6096 14.032 28.2031 13.9922L25 13.6719V15.2422L28.0508 15.5477C28.0723 15.5477 28.093 15.5562 28.1082 15.5715C28.1235 15.5867 28.132 15.6074 28.132 15.6289C28.132 15.6505 28.1235 15.6711 28.1082 15.6864C28.093 15.7016 28.0723 15.7102 28.0508 15.7102L25 16.0156V17.5859L28.2031 17.2656Z" fill="#D87F52"/>
<path d="M28.2031 12.5781C28.606 12.5352 28.9792 12.346 29.252 12.0464C29.5248 11.7468 29.6782 11.3576 29.6832 10.9524C29.6882 10.5472 29.5445 10.1543 29.2792 9.84806C29.0139 9.54179 28.6455 9.34346 28.2437 9.29062L25 8.88046V10.4555L28.0531 10.8367C28.0757 10.8411 28.0958 10.854 28.1092 10.8727C28.1226 10.8915 28.1282 10.9147 28.125 10.9375C28.125 10.9576 28.1173 10.9769 28.1035 10.9914C28.0897 11.0059 28.0708 11.0146 28.0508 11.0156L25 11.3281V12.8984L28.2031 12.5781Z" fill="#D87F52"/>
<path d="M29.6875 39.0625C29.9607 39.0618 30.2288 38.9892 30.4651 38.8521C30.7014 38.7149 30.8974 38.5181 31.0336 38.2813H18.9664C19.1026 38.5181 19.2986 38.7149 19.5349 38.8521C19.7712 38.9892 20.0393 39.0618 20.3125 39.0625C20.0393 39.0633 19.7712 39.1359 19.5349 39.273C19.2986 39.4101 19.1026 39.607 18.9664 39.8438H31.0336C30.8974 39.607 30.7014 39.4101 30.4651 39.273C30.2288 39.1359 29.9607 39.0633 29.6875 39.0625Z" fill="#5A5B5E"/>
<path d="M20.3125 42.1875C20.0393 42.1883 19.7712 42.2609 19.5349 42.398C19.2986 42.5351 19.1026 42.732 18.9664 42.9688H31.0336C30.8974 42.732 30.7014 42.5351 30.4651 42.398C30.2288 42.2609 29.9607 42.1883 29.6875 42.1875C29.9607 42.1868 30.2288 42.1142 30.4651 41.9771C30.7014 41.8399 30.8974 41.6431 31.0336 41.4063H18.9664C19.1026 41.6431 19.2986 41.8399 19.5349 41.9771C19.7712 42.1142 20.0393 42.1868 20.3125 42.1875Z" fill="#5A5B5E"/>
<path d="M20.3125 45.3125L20.8984 46.0938H29.1016L29.6875 45.3125C29.9607 45.3118 30.2288 45.2392 30.4651 45.1021C30.7014 44.9649 30.8974 44.7681 31.0336 44.5313H18.9664C19.1026 44.7681 19.2986 44.9649 19.5349 45.1021C19.7712 45.2392 20.0393 45.3118 20.3125 45.3125Z" fill="#5A5B5E"/>
<path d="M23.4375 32.8125H28.125V35.9375H23.4375V32.8125Z" fill="#BF9A32"/>
</g>
<defs>
<clipPath id="clip0_3_1507">
<rect width="50" height="50" fill="white"/>
</clipPath>
</defs>
</svg>
