<svg width="50" height="50" viewBox="0 0 50 50" fill="none" xmlns="http://www.w3.org/2000/svg">
<path d="M20.3125 6.25V7.74375C20.3132 8.49065 20.1353 9.22689 19.7938 9.89114C19.4523 10.5554 18.957 11.1284 18.3492 11.5625L16.807 12.6563C16.1992 13.0903 15.7039 13.6634 15.3624 14.3276C15.0209 14.9919 14.8431 15.7281 14.8438 16.475V25.9156C14.844 26.6229 15.125 27.3012 15.625 27.8016C16.1252 28.3017 16.4062 28.9801 16.4063 29.6875V31.3844C16.406 32.0917 16.125 32.77 15.625 33.2703C15.1248 33.7705 14.8438 34.4489 14.8438 35.1562V45.3125C14.8438 46.1413 15.173 46.9362 15.759 47.5222C16.3451 48.1083 17.14 48.4375 17.9688 48.4375H32.0313C32.8601 48.4375 33.6549 48.1083 34.241 47.5222C34.827 46.9362 35.1563 46.1413 35.1563 45.3125V35.1562C35.1562 34.4489 34.8752 33.7705 34.375 33.2703C33.875 32.77 33.594 32.0917 33.5938 31.3844V29.6875C33.5938 28.9801 33.8748 28.3017 34.375 27.8016C34.875 27.3012 35.156 26.6229 35.1563 25.9156V16.475C35.1569 15.7281 34.9791 14.9919 34.6376 14.3276C34.2961 13.6634 33.8008 13.0903 33.193 12.6563L31.6508 11.5625C31.043 11.1284 30.5477 10.5554 30.2062 9.89114C29.8647 9.22689 29.6868 8.49065 29.6875 7.74375V6.25" fill="#C0DAFC"/>
<path d="M31.25 30.0782C31.2515 25.9683 30.2225 21.9237 28.2571 18.3142C26.2918 14.7047 23.4529 11.6455 20 9.41647C19.6728 10.2786 19.0986 11.0252 18.3492 11.5626L16.807 12.6563C16.1992 13.0904 15.7039 13.6634 15.3624 14.3277C15.0209 14.9919 14.8431 15.7282 14.8438 16.4751V25.9157C14.844 26.623 15.125 27.3013 15.625 27.8016C16.1252 28.3018 16.4062 28.9802 16.4063 29.6876V31.3844C16.406 32.0918 16.125 32.7701 15.625 33.2704C15.1248 33.7706 14.8438 34.4489 14.8438 35.1563V45.3126C14.8438 46.1414 15.173 46.9362 15.759 47.5223C16.3451 48.1083 17.14 48.4376 17.9688 48.4376H23.0227C25.6131 46.1322 27.6857 43.3041 29.1038 40.1395C30.5219 36.975 31.2534 33.5459 31.25 30.0782Z" fill="#D7EAFF"/>
<path d="M14.8438 16.4062H35.1562V25.7812H14.8438V16.4062Z" fill="#4C6CB5"/>
<path d="M27.1031 16.4062H14.8438V25.7812H30.8688C30.2793 22.4283 28.9968 19.2353 27.1031 16.4062Z" fill="#5E87CA"/>
<path d="M35.1562 35.1563H32.8125C31.7983 35.1563 30.8114 35.4852 30 36.0938L29.375 36.5625C28.5636 37.171 27.5767 37.5 26.5625 37.5C25.5483 37.5 24.5614 37.171 23.75 36.5625L23.125 36.0938C22.3136 35.4852 21.3267 35.1563 20.3125 35.1563H20.0484C19.1989 35.1562 18.3652 35.3871 17.6367 35.8242L14.8438 37.5V45.3125C14.8438 46.1413 15.173 46.9362 15.759 47.5222C16.3451 48.1083 17.1399 48.4375 17.9688 48.4375H32.0312C32.8601 48.4375 33.6549 48.1083 34.241 47.5222C34.827 46.9362 35.1562 46.1413 35.1562 45.3125V35.1563Z" fill="#78A0D4"/>
<path d="M17.1875 16.4062L25 25.7805L32.8125 16.4062" fill="#5E87CA"/>
<path d="M30.4688 1.5625H19.5312C19.0998 1.5625 18.75 1.91228 18.75 2.34375V5.46875C18.75 5.90022 19.0998 6.25 19.5312 6.25H30.4688C30.9002 6.25 31.25 5.90022 31.25 5.46875V2.34375C31.25 1.91228 30.9002 1.5625 30.4688 1.5625Z" fill="#3B5892"/>
<path d="M21.0938 3.125H22.6562V6.25H21.0938V3.125Z" fill="#213D68"/>
<path d="M24.2188 3.125H25.7812V6.25H24.2188V3.125Z" fill="#213D68"/>
<path d="M27.3438 3.125H28.9062V6.25H27.3438V3.125Z" fill="#213D68"/>
<path d="M26.5625 35.1563C26.2535 35.1563 25.9514 35.0646 25.6944 34.8929C25.4375 34.7212 25.2372 34.4772 25.1189 34.1917C25.0007 33.9062 24.9697 33.592 25.03 33.2889C25.0903 32.9858 25.2391 32.7074 25.4576 32.4889C25.6762 32.2704 25.9546 32.1216 26.2577 32.0613C26.5608 32.001 26.8749 32.0319 27.1604 32.1502C27.446 32.2685 27.69 32.4687 27.8617 32.7257C28.0334 32.9826 28.125 33.2847 28.125 33.5938C28.125 34.0082 27.9604 34.4056 27.6674 34.6986C27.3743 34.9916 26.9769 35.1563 26.5625 35.1563Z" fill="#78A0D4"/>
<path d="M21.875 31.25C21.566 31.25 21.2639 31.1584 21.0069 30.9867C20.75 30.815 20.5497 30.571 20.4314 30.2854C20.3132 29.9999 20.2822 29.6858 20.3425 29.3827C20.4028 29.0796 20.5516 28.8012 20.7701 28.5826C20.9887 28.3641 21.2671 28.2153 21.5702 28.155C21.8733 28.0947 22.1874 28.1257 22.473 28.2439C22.7585 28.3622 23.0025 28.5625 23.1742 28.8194C23.3459 29.0764 23.4375 29.3785 23.4375 29.6875C23.4375 30.1019 23.2729 30.4993 22.9799 30.7924C22.6868 31.0854 22.2894 31.25 21.875 31.25Z" fill="#78A0D4"/>
<path d="M30 36.0938L29.375 36.5625C28.5636 37.171 27.5767 37.5 26.5625 37.5C25.5483 37.5 24.5614 37.171 23.75 36.5625L23.125 36.0938C22.3136 35.4852 21.3267 35.1563 20.3125 35.1563H20.0484C19.1989 35.1562 18.3652 35.3871 17.6367 35.8242L14.8438 37.5V45.3125C14.8438 46.1413 15.173 46.9362 15.759 47.5222C16.3451 48.1083 17.1399 48.4375 17.9688 48.4375H23.0227C26.7922 45.0762 29.4354 40.6357 30.593 35.7195C30.3863 35.8293 30.1881 35.9544 30 36.0938Z" fill="#89B5E5"/>
<path d="M25 25.7812L29.3438 20.5695C28.7323 19.113 27.982 17.7188 27.1031 16.4062H17.1875L25 25.7812Z" fill="#78A0D4"/>
</svg>
