<svg width="50" height="50" viewBox="0 0 50 50" fill="none" xmlns="http://www.w3.org/2000/svg">
<path d="M1.5625 30.4688L5.46875 21.0938H44.5312L48.4375 30.4688H1.5625Z" fill="#D5883E"/>
<path d="M1.5625 30.4688H48.4375V42.9688H1.5625V30.4688Z" fill="#F4A93C"/>
<path d="M45.3125 38.2812V30.4688H1.5625V39.8438H43.75C44.1644 39.8438 44.5618 39.6791 44.8549 39.3861C45.1479 39.0931 45.3125 38.6957 45.3125 38.2812Z" fill="#F6B940"/>
<path d="M17.1875 25.7812C17.1874 20.779 15.2003 15.9817 11.6633 12.4445L10.9375 11.7188L11.9695 10.6867C13.3095 9.34677 15.1269 8.59392 17.0219 8.59375C17.7872 8.59365 18.5394 8.79178 19.2054 9.16884C19.8713 9.5459 20.4282 10.089 20.8219 10.7453C21.143 11.2805 21.5973 11.7233 22.1404 12.0308C22.6835 12.3383 23.297 12.5 23.9211 12.5C24.4964 12.4998 25.0633 12.3625 25.5749 12.0993C26.0865 11.8361 26.5279 11.4547 26.8625 10.9867L27.0187 10.7688C27.8443 9.6128 28.9339 8.67062 30.197 8.02056C31.46 7.3705 32.86 7.03133 34.2805 7.03125C34.7199 7.03146 35.1412 7.2061 35.4519 7.51681C35.7626 7.82752 35.9373 8.24887 35.9375 8.68828C35.9376 8.90591 35.8948 9.12142 35.8115 9.3225C35.7283 9.52358 35.6062 9.70628 35.4523 9.86016L34.0789 11.2336C33.925 11.3875 33.803 11.5702 33.7197 11.7713C33.6365 11.9723 33.5937 12.1878 33.5938 12.4055C33.594 12.8449 33.7686 13.2662 34.0793 13.5769C34.39 13.8876 34.8114 14.0623 35.2508 14.0625H36.3C36.6628 14.0625 37.022 14.134 37.3572 14.2728C37.6923 14.4116 37.9969 14.6151 38.2534 14.8716C38.5099 15.1281 38.7134 15.4327 38.8522 15.7678C38.991 16.103 39.0625 16.4622 39.0625 16.825C39.0625 17.1878 38.991 17.547 38.8521 17.8821C38.7132 18.2172 38.5097 18.5217 38.2531 18.7781L35.2508 21.7805C34.7254 22.3059 34.3087 22.9296 34.0244 23.6161C33.74 24.3025 33.5937 25.0382 33.5938 25.7812" fill="#F2F2F2"/>
<path d="M22.6563 25.7813H21.0938C21.0981 22.2784 20.3864 18.8116 19.0024 15.5938L18.8133 15.1516L20.2493 14.5359L20.4383 14.9781C21.9058 18.3905 22.6606 22.0667 22.6563 25.7813Z" fill="#CCCCCC"/>
<path d="M28.9063 25.7813H27.3438C27.3395 22.0667 28.0943 18.3905 29.5618 14.9781L29.7508 14.5359L31.1868 15.1516L30.9977 15.593C29.6138 18.8112 28.9022 22.2782 28.9063 25.7813Z" fill="#CCCCCC"/>
<path d="M24.2188 15.625H25.7812V25.7812H24.2188V15.625Z" fill="#CCCCCC"/>
<path d="M14.8438 33.5938H35.1562V39.8438H14.8438V33.5938Z" fill="#F9D266"/>
<path d="M32.8125 36.7188V33.5938H14.8438V37.5H32.0312C32.2385 37.5 32.4372 37.4177 32.5837 37.2712C32.7302 37.1247 32.8125 36.926 32.8125 36.7188Z" fill="#FCE797"/>
<path d="M14.8438 25H35.9375V26.5625H14.8438V25Z" fill="#C47533"/>
</svg>
