<svg width="50" height="50" viewBox="0 0 50 50" fill="none" xmlns="http://www.w3.org/2000/svg">
<path d="M26.9469 1.67109C23.6872 2.03999 20.6037 3.34366 18.068 5.42499L21.0938 6.24999V13.2812L26.5625 19.5312L17.1875 16.4062L16.4063 11.7187L13.6281 10.8851C12.6809 12.7045 12.0733 14.6814 11.8352 16.7187C11.5156 19.3941 11.8305 22.107 12.7546 24.638C13.6786 27.1689 15.1858 29.4466 17.1539 31.2867C18.6354 32.6612 19.8188 34.3252 20.6309 36.1757C21.443 38.0261 21.8664 40.0237 21.875 42.0445V42.1875H35.9375V42.0476C35.9638 40.0031 36.4059 37.9853 37.2368 36.117C38.0678 34.2488 39.2703 32.5692 40.7711 31.1805C43.3761 28.6944 45.1344 25.4529 45.7979 21.9137C46.4614 18.3744 45.9965 14.7162 44.4689 11.4554C42.9413 8.19453 40.4282 5.49586 37.2842 3.74028C34.1403 1.98471 30.5243 1.26092 26.9469 1.67109Z" fill="#DA8E18"/>
<path d="M36.7188 3.43749C33.706 1.90063 30.307 1.28621 26.9469 1.67109C23.6872 2.03999 20.6037 3.34366 18.068 5.42499L21.0938 6.24999V13.2812L26.5625 19.5312L17.1875 16.4062L16.4063 11.7187L13.6281 10.8851C12.6809 12.7045 12.0733 14.6814 11.8352 16.7187C11.5156 19.3941 11.8305 22.107 12.7546 24.638C13.6786 27.1689 15.1858 29.4466 17.1539 31.2867C17.6536 31.7633 18.1206 32.273 18.5516 32.8125H30.4688C32.1264 32.8125 33.7161 32.154 34.8882 30.9819C36.0603 29.8098 36.7188 28.2201 36.7188 26.5625V3.43749Z" fill="#FFC464"/>
<path d="M23.4375 42.1875V46.0937C23.4375 46.7153 23.6844 47.3115 24.124 47.751C24.5635 48.1905 25.1596 48.4375 25.7812 48.4375H32.0312C32.6529 48.4375 33.249 48.1905 33.6885 47.751C34.1281 47.3115 34.375 46.7153 34.375 46.0937V42.1875H23.4375Z" fill="#88929F"/>
<path d="M23.4375 44.5312H34.375V46.0937H23.4375V44.5312Z" fill="#B8BEC5"/>
<path d="M32.0313 42.1875H30.4688V27.3437H26.5625V42.1875H25V27.3437H23.8281C23.2873 27.3437 22.7587 27.1834 22.309 26.8829C21.8593 26.5824 21.5089 26.1554 21.3019 25.6557C21.0949 25.1561 21.0408 24.6063 21.1463 24.0759C21.2518 23.5455 21.5122 23.0583 21.8946 22.6759C22.277 22.2934 22.7643 22.033 23.2947 21.9275C23.8251 21.822 24.3749 21.8762 24.8745 22.0831C25.3742 22.2901 25.8012 22.6405 26.1017 23.0902C26.4021 23.5399 26.5625 24.0685 26.5625 24.6093V25.7812H30.4688V24.6093C30.4688 24.0685 30.6291 23.5399 30.9296 23.0902C31.23 22.6405 31.6571 22.2901 32.1567 22.0831C32.6564 21.8762 33.2062 21.822 33.7366 21.9275C34.267 22.033 34.7542 22.2934 35.1366 22.6759C35.519 23.0583 35.7795 23.5455 35.885 24.0759C35.9905 24.6063 35.9363 25.1561 35.7294 25.6557C35.5224 26.1554 35.1719 26.5824 34.7223 26.8829C34.2726 27.1834 33.7439 27.3437 33.2031 27.3437H32.0313V42.1875ZM32.0313 25.7812H33.2031C33.4349 25.7812 33.6615 25.7125 33.8542 25.5837C34.0469 25.455 34.1971 25.2719 34.2858 25.0578C34.3745 24.8437 34.3977 24.608 34.3525 24.3807C34.3073 24.1534 34.1957 23.9446 34.0318 23.7807C33.8679 23.6168 33.6591 23.5052 33.4317 23.46C33.2044 23.4148 32.9688 23.438 32.7547 23.5267C32.5405 23.6154 32.3575 23.7656 32.2287 23.9583C32.1 24.151 32.0313 24.3776 32.0313 24.6093V25.7812ZM23.8281 23.4375C23.5173 23.4375 23.2193 23.5609 22.9995 23.7807C22.7797 24.0005 22.6563 24.2985 22.6563 24.6093C22.6563 24.9201 22.7797 25.2182 22.9995 25.438C23.2193 25.6578 23.5173 25.7812 23.8281 25.7812H25V24.6093C25 24.2985 24.8765 24.0005 24.6568 23.7807C24.437 23.5609 24.1389 23.4375 23.8281 23.4375Z" fill="white"/>
<path d="M42.1875 18.75H40.625C40.6215 15.6431 39.3857 12.6644 37.1888 10.4675C34.9918 8.27054 32.0132 7.03477 28.9062 7.03125V5.46875C32.4275 5.47268 35.8033 6.87321 38.2932 9.36308C40.783 11.8529 42.1836 15.2288 42.1875 18.75Z" fill="white"/>
<path d="M11.7188 7.03125L10.1562 3.125L13.2812 1.5625L11.7188 7.03125Z" fill="#DA8E18"/>
<path d="M3.90625 10.9375L7.8125 12.5L9.375 9.375L3.90625 10.9375Z" fill="#DA8E18"/>
<path d="M7.03125 16.4062H8.59375V17.9688H7.03125V16.4062Z" fill="#FFC464"/>
<path d="M15.625 2.34375H17.1875V3.90625H15.625V2.34375Z" fill="#FFC464"/>
<path d="M15.625 7.8125H17.1875V9.375H15.625V7.8125Z" fill="#FFC464"/>
</svg>
