<svg width="50" height="50" viewBox="0 0 50 50" fill="none" xmlns="http://www.w3.org/2000/svg">
<path d="M38.2813 34.0172C39.4515 34.3838 40.6916 34.47 41.9014 34.2689C43.1111 34.0677 44.2566 33.5848 45.2452 32.8591C46.2338 32.1334 47.0379 31.1854 47.5925 30.0916C48.147 28.9978 48.4365 27.7889 48.4375 26.5625C48.4375 22.2477 40.625 5.46875 40.625 5.46875C40.625 5.46875 36.2922 14.7742 34.0805 21.307L37.8945 33.9016L38.2813 34.0172Z" fill="#2B66B9"/>
<path d="M40.625 34.375C42.697 34.375 44.6841 33.5519 46.1493 32.0868C47.6144 30.6216 48.4375 28.6345 48.4375 26.5625C48.4375 22.8289 42.5914 9.77032 41.0156 6.31876C40.8594 6.66797 40.6547 7.11172 40.4187 7.63751C36.6994 16.0282 36.2297 25.5013 39.1008 34.2188C39.6025 34.3209 40.113 34.3733 40.625 34.375Z" fill="#3377CC"/>
<path d="M11.7188 34.0172C10.5485 34.3838 9.30837 34.47 8.09863 34.2689C6.88888 34.0677 5.74342 33.5848 4.75479 32.8591C3.76616 32.1334 2.96209 31.1854 2.40754 30.0916C1.85299 28.9978 1.56352 27.7889 1.5625 26.5625C1.5625 22.2477 9.375 5.46875 9.375 5.46875C9.375 5.46875 13.7078 14.7742 15.9195 21.307L12.1094 33.8953L11.7188 34.0172Z" fill="#2B66B9"/>
<path d="M9.375 34.375C8.34905 34.375 7.33315 34.1729 6.38529 33.7803C5.43743 33.3877 4.57619 32.8122 3.85073 32.0868C2.3856 30.6216 1.5625 28.6345 1.5625 26.5625C1.5625 22.8289 7.4086 9.77032 8.98438 6.31876C9.14063 6.66797 9.34532 7.11172 9.58125 7.63751C13.3006 16.0282 13.7703 25.5013 10.8992 34.2188C10.3975 34.3209 9.88698 34.3733 9.375 34.375Z" fill="#3377CC"/>
<path d="M38.2812 35.1562C38.2812 27.8211 25 1.5625 25 1.5625C25 1.5625 11.7188 27.8211 11.7188 35.1562C11.7188 38.6787 13.118 42.0568 15.6087 44.5475C18.0995 47.0382 21.4776 48.4375 25 48.4375C28.5224 48.4375 31.9005 47.0382 34.3913 44.5475C36.882 42.0568 38.2812 38.6787 38.2812 35.1562Z" fill="#4796EB"/>
<path d="M26.182 3.94531C22.4953 11.5562 14.8437 28.025 14.8437 33.5937C14.8395 35.713 15.3435 37.8024 16.3135 39.6867C17.2834 41.571 18.6911 43.1952 20.4183 44.4232C22.1456 45.6512 24.1422 46.4471 26.2405 46.7441C28.3389 47.0412 30.4779 46.8307 32.4781 46.1305C34.2671 44.9132 35.7311 43.2769 36.7426 41.3641C37.7541 39.4512 38.2823 37.32 38.2813 35.1562C38.2813 29.168 29.4328 10.5742 26.182 3.94531Z" fill="#69B2F4"/>
</svg>
