<svg width="50" height="50" viewBox="0 0 50 50" fill="none" xmlns="http://www.w3.org/2000/svg">
<path d="M38.2812 48.4219C38.4885 48.4219 38.6872 48.3396 38.8337 48.1931C38.9802 48.0466 39.0625 47.8479 39.0625 47.6407V44.5157H37.5V47.6407C37.5 47.8479 37.5823 48.0466 37.7288 48.1931C37.8753 48.3396 38.074 48.4219 38.2812 48.4219Z" fill="#9C9D9E"/>
<path d="M39.6375 43.5633L40.4867 47.8125C40.5282 48.0151 40.6482 48.193 40.8206 48.3072C40.9929 48.4215 41.2036 48.4627 41.4063 48.4219C41.6093 48.3812 41.7878 48.2615 41.9026 48.0893C42.0175 47.917 42.0593 47.7062 42.0188 47.5032L41.1719 43.2563L39.6375 43.5633Z" fill="#9C9D9E"/>
<path d="M41.9398 43.3548L42.8305 47.8079C42.8505 47.9086 42.8901 48.0045 42.9472 48.0899C43.0042 48.1752 43.0775 48.2486 43.1629 48.3056C43.2483 48.3626 43.3441 48.4023 43.4449 48.4222C43.5456 48.4422 43.6493 48.4421 43.75 48.422C43.953 48.3813 44.1315 48.2616 44.2464 48.0893C44.3612 47.9171 44.403 47.7063 44.3625 47.5032L43.4719 43.0501L41.9398 43.3548Z" fill="#9C9D9E"/>
<path d="M44.2836 43.3548L45.1742 47.8079C45.1942 47.9086 45.2339 48.0045 45.2909 48.0899C45.3479 48.1752 45.4213 48.2486 45.5067 48.3056C45.5921 48.3626 45.6879 48.4023 45.7886 48.4222C45.8894 48.4422 45.9931 48.4421 46.0938 48.422C46.2968 48.3813 46.4753 48.2616 46.5901 48.0893C46.705 47.9171 46.7467 47.7063 46.7063 47.5032L45.8156 43.0501L44.2836 43.3548Z" fill="#9C9D9E"/>
<path d="M48.2086 43.293L46.6766 43.6001L47.518 47.8126C47.5594 48.0151 47.6795 48.193 47.8518 48.3073C48.0242 48.4215 48.2348 48.4627 48.4375 48.4219C48.6405 48.3812 48.819 48.2616 48.9339 48.0893C49.0487 47.917 49.0905 47.7062 49.05 47.5032L48.2086 43.293Z" fill="#9C9D9E"/>
<path d="M35.1563 48.4219C35.3594 48.4626 35.5704 48.421 35.7429 48.3061C35.9153 48.1913 36.0351 48.0126 36.0758 47.8094L36.9172 43.6001L35.3852 43.293L34.5438 47.5001C34.5233 47.6008 34.5229 47.7046 34.5426 47.8056C34.5623 47.9065 34.6017 48.0025 34.6586 48.0882C34.7155 48.1738 34.7888 48.2474 34.8742 48.3047C34.9596 48.3619 35.0554 48.4018 35.1563 48.4219Z" fill="#9C9D9E"/>
<path d="M33.0469 43.2563L32.2 47.5C32.1795 47.6008 32.1791 47.7046 32.1988 47.8055C32.2185 47.9065 32.258 48.0025 32.3149 48.0881C32.3718 48.1738 32.445 48.2473 32.5304 48.3046C32.6158 48.3619 32.7117 48.4018 32.8125 48.4219C33.0157 48.4626 33.2267 48.421 33.3991 48.3061C33.5716 48.1912 33.6913 48.0126 33.732 47.8094L34.5813 43.5633L33.0469 43.2563Z" fill="#9C9D9E"/>
<path d="M30.7031 43.2563L29.8563 47.5C29.8358 47.6008 29.8354 47.7046 29.8551 47.8055C29.8748 47.9065 29.9142 48.0025 29.9711 48.0881C30.028 48.1738 30.1013 48.2473 30.1867 48.3046C30.2721 48.3619 30.3679 48.4018 30.4688 48.4219C30.6719 48.4626 30.8829 48.421 31.0554 48.3061C31.2278 48.1912 31.3476 48.0126 31.3883 47.8094L32.2375 43.5633L30.7031 43.2563Z" fill="#9C9D9E"/>
<path d="M28.4031 43.0469L27.5125 47.5001C27.492 47.6008 27.4916 47.7046 27.5113 47.8056C27.531 47.9065 27.5705 48.0025 27.6274 48.0882C27.6843 48.1738 27.7575 48.2474 27.8429 48.3047C27.9283 48.3619 28.0242 48.4018 28.125 48.4219C28.3282 48.4626 28.5392 48.421 28.7116 48.3061C28.8841 48.1913 29.0038 48.0126 29.0445 47.8094L29.9352 43.3563L28.4031 43.0469Z" fill="#9C9D9E"/>
<path d="M28.125 44.5157H8.35469C7.98481 44.5157 7.62692 44.3845 7.34467 44.1455C7.06242 43.9064 6.87413 43.575 6.81328 43.2102L6.50078 41.1438L5.87578 37.0813L3.90625 24.2032H36.7188V44.5157H28.125Z" fill="#E19C01"/>
<path d="M36.7187 44.5157V26.5469H11.6359C11.2598 26.5474 10.8883 26.6291 10.5467 26.7865C10.2051 26.9439 9.90148 27.1732 9.65668 27.4587C9.41188 27.7442 9.23164 28.0792 9.12827 28.4409C9.02491 28.8025 9.00087 29.1822 9.0578 29.5539L10.5633 39.4219L11.1883 43.4844L11.3445 44.5125H36.7187V44.5157Z" fill="#F9C645"/>
<path d="M35.1562 24.5422V31.6774C35.1562 31.7671 35.1206 31.8531 35.0572 31.9166C34.9937 31.98 34.9077 32.0157 34.818 32.0157C34.4933 32.0157 34.1819 32.1446 33.9523 32.3742C33.7227 32.6038 33.5937 32.9152 33.5937 33.2399V37.1461C33.5937 37.2358 33.5581 37.3219 33.4947 37.3853C33.4312 37.4488 33.3452 37.4844 33.2555 37.4844H31.9273C31.7357 37.4845 31.5459 37.5224 31.3689 37.5958C31.1919 37.6692 31.0311 37.7768 30.8956 37.9124C30.7602 38.048 30.6528 38.2089 30.5795 38.386C30.5063 38.5631 30.4686 38.7529 30.4687 38.9446V41.0539C30.4687 41.1437 30.4331 41.2297 30.3697 41.2931C30.3062 41.3566 30.2202 41.3922 30.1305 41.3922H28.0211C27.6343 41.3924 27.2634 41.5462 26.9899 41.8197C26.7164 42.0932 26.5627 42.464 26.5625 42.8508V44.1789C26.5625 44.2687 26.5981 44.3547 26.6616 44.4181C26.725 44.4816 26.8111 44.5172 26.9008 44.5172H36.3804C36.425 44.5172 36.4691 44.5084 36.5103 44.4913C36.5514 44.4742 36.5888 44.4492 36.6202 44.4176C36.6516 44.386 36.6765 44.3485 36.6934 44.3073C36.7103 44.2661 36.7189 44.2219 36.7187 44.1774V24.5422C36.7188 24.4977 36.7102 24.4537 36.6932 24.4125C36.6762 24.3714 36.6513 24.334 36.6199 24.3025C36.5885 24.271 36.5512 24.246 36.5101 24.229C36.469 24.2119 36.4249 24.2032 36.3804 24.2032H35.4945C35.45 24.2032 35.406 24.2119 35.3649 24.229C35.3238 24.246 35.2865 24.271 35.255 24.3025C35.2236 24.334 35.1987 24.3714 35.1818 24.4125C35.1648 24.4537 35.1561 24.4977 35.1562 24.5422Z" fill="#E19C01"/>
<path d="M28.125 41.3907H48.4375V44.5157H28.125V41.3907Z" fill="#8AD9FF"/>
<path d="M32.0312 37.4844H44.5312V41.3907H32.0312V37.4844Z" fill="#E5E5E5"/>
<path d="M14.0625 28.8907C13.4354 28.8909 12.8175 29.0422 12.2612 29.3316C11.7049 29.6211 11.2264 30.0402 10.8663 30.5536C10.5061 31.067 10.2749 31.6596 10.1921 32.2812C10.1093 32.9028 10.1774 33.5353 10.3906 34.125L6.08279 38.4328L6.49764 41.1438L6.70467 42.5L12.7344 36.4711C13.2706 36.6657 13.8429 36.7406 14.4112 36.6903C14.9794 36.6401 15.5297 36.466 16.0235 36.1803C16.5172 35.8946 16.9424 35.5042 17.2691 35.0366C17.5958 34.569 17.8162 34.0355 17.9147 33.4736C18.0131 32.9117 17.9874 32.3351 17.8391 31.7842C17.6909 31.2333 17.4238 30.7216 17.0566 30.2851C16.6895 29.8485 16.2312 29.4976 15.7139 29.2571C15.1966 29.0166 14.6329 28.8923 14.0625 28.893V28.8907Z" fill="#E19C01"/>
<path d="M35.9375 32.0157H40.625V37.4844H35.9375V32.0157Z" fill="#8AD9FF"/>
<path d="M22.6562 20.2969H42.9688C43.1759 20.2969 43.3747 20.3792 43.5212 20.5257C43.6677 20.6722 43.75 20.871 43.75 21.0782V23.4219C43.75 23.6291 43.6677 23.8278 43.5212 23.9743C43.3747 24.1208 43.1759 24.2032 42.9688 24.2032H2.34375C2.13655 24.2032 1.93784 24.1208 1.79132 23.9743C1.64481 23.8278 1.5625 23.6291 1.5625 23.4219V20.2969H22.6562Z" fill="#E5E5E5"/>
<path d="M10.3906 32.5641C10.089 31.7295 10.0809 30.817 10.3676 29.9771C10.6543 29.1372 11.2187 28.4202 11.9677 27.9442C12.7167 27.4682 13.6056 27.2618 14.4877 27.3589C15.3698 27.456 16.1925 27.8509 16.82 28.4784C17.4476 29.1059 17.8425 29.9286 17.9396 30.8107C18.0367 31.6929 17.8302 32.5817 17.3543 33.3308C16.8783 34.0798 16.1612 34.6442 15.3214 34.9309C14.4815 35.2176 13.569 35.2095 12.7344 34.9078L10.3906 32.5641Z" fill="#E5E5E5"/>
<path d="M21.875 17.9532H2.34375C1.91228 17.9532 1.5625 18.3029 1.5625 18.7344V21.0782C1.5625 21.5096 1.91228 21.8594 2.34375 21.8594H21.875C22.3065 21.8594 22.6562 21.5096 22.6562 21.0782V18.7344C22.6562 18.3029 22.3065 17.9532 21.875 17.9532Z" fill="#E19C01"/>
<path d="M15.625 7.01566C14.5894 7.01441 13.5965 6.60247 12.8642 5.87017C12.1319 5.13788 11.72 4.14503 11.7188 3.10941V1.54691H10.1562V3.10941C10.155 4.14503 9.74306 5.13788 9.01077 5.87017C8.27847 6.60247 7.28562 7.01441 6.25 7.01566H4.6875V8.57816H6.25C7.28562 8.5794 8.27847 8.99134 9.01077 9.72364C9.74306 10.4559 10.155 11.4488 10.1562 12.4844V14.0469H11.7188V12.4844C11.72 11.4488 12.1319 10.4559 12.8642 9.72364C13.5965 8.99134 14.5894 8.5794 15.625 8.57816H17.1875V7.01566H15.625ZM10.9375 9.68206C10.4731 8.90868 9.82572 8.2613 9.05234 7.79691C9.8259 7.33273 10.4733 6.68531 10.9375 5.91175C11.4017 6.68531 12.0491 7.33273 12.8227 7.79691C12.0493 8.2613 11.4019 8.90868 10.9375 9.68206Z" fill="#E19C01"/>
<path d="M10.9375 9.68202C11.9786 9.68202 12.8226 8.83801 12.8226 7.79687C12.8226 6.75573 11.9786 5.91171 10.9375 5.91171C9.89635 5.91171 9.05234 6.75573 9.05234 7.79687C9.05234 8.83801 9.89635 9.68202 10.9375 9.68202Z" fill="white"/>
<path d="M11.7188 3.1094V1.54691H10.9375V5.6594C10.9406 5.75866 10.9505 5.85759 10.9672 5.9555C11.4199 6.69374 12.0407 7.31452 12.7789 7.76721C12.8768 7.78421 12.9757 7.79413 13.075 7.7969H17.1875V7.01565H15.625C14.5894 7.01441 13.5965 6.60246 12.8642 5.87017C12.1319 5.13787 11.72 4.14503 11.7188 3.1094Z" fill="#F9C645"/>
<path d="M33.5938 12.4844C32.9721 12.4844 32.376 12.2375 31.9365 11.7979C31.4969 11.3584 31.25 10.7623 31.25 10.1407V9.35941H29.6875V10.1407C29.6875 10.7623 29.4406 11.3584 29.001 11.7979C28.5615 12.2375 27.9654 12.4844 27.3438 12.4844H26.5625V14.0469H27.3438C27.9654 14.0469 28.5615 14.2938 29.001 14.7334C29.4406 15.1729 29.6875 15.7691 29.6875 16.3907V17.1719H31.25V16.3907C31.25 15.7691 31.4969 15.1729 31.9365 14.7334C32.376 14.2938 32.9721 14.0469 33.5938 14.0469H34.375V12.4844H33.5938ZM30.4688 14.0711C30.2407 13.765 29.9694 13.4937 29.6633 13.2657C29.9698 13.0381 30.2412 12.7667 30.4688 12.4602C30.6963 12.7667 30.9677 13.0381 31.2742 13.2657C30.9681 13.4937 30.6968 13.765 30.4688 14.0711Z" fill="#E19C01"/>
<path d="M30.4688 14.0712C30.2408 13.765 29.9694 13.4937 29.6633 13.2657C29.9698 13.0381 30.2412 12.7667 30.4688 12.4602C30.6964 12.7667 30.9677 13.0381 31.2742 13.2657C30.9681 13.4937 30.6968 13.765 30.4688 14.0712Z" fill="white"/>
<path d="M30.5695 12.5782C30.744 12.795 30.9412 12.9925 31.1578 13.1672C31.3054 13.233 31.465 13.267 31.6266 13.2672H34.375V12.486H33.5938C32.9721 12.486 32.376 12.239 31.9365 11.7995C31.4969 11.36 31.25 10.7638 31.25 10.1422V9.36098H30.4688V12.1094C30.4688 12.271 30.5031 12.4308 30.5695 12.5782Z" fill="#F9C645"/>
<path d="M43.75 21.0782C43.75 20.871 43.6677 20.6722 43.5212 20.5257C43.3747 20.3792 43.176 20.2969 42.9688 20.2969H24.2188V20.5008C24.2187 21.0683 24.4442 21.6126 24.8455 22.0139C25.2468 22.4152 25.7911 22.6407 26.3586 22.6407H43.75V21.0782Z" fill="#F2F2F2"/>
<path d="M21.875 17.9532H3.125V18.6157C3.125 19.0616 3.30213 19.4892 3.61743 19.8045C3.93272 20.1198 4.36035 20.2969 4.80625 20.2969H22.6562V18.7344C22.6562 18.5272 22.5739 18.3285 22.4274 18.182C22.2809 18.0355 22.0822 17.9532 21.875 17.9532Z" fill="#F9C645"/>
<path d="M14.0625 27.3282C13.4128 27.3327 12.7746 27.5009 12.207 27.8172C11.8909 28.3846 11.723 29.0225 11.7188 29.6719C11.7188 30.7079 12.1303 31.7015 12.8629 32.434C13.5954 33.1666 14.589 33.5782 15.625 33.5782C16.2747 33.5738 16.9128 33.4059 17.4805 33.0899C17.7967 32.5223 17.9646 31.8841 17.9688 31.2344C17.9688 30.7214 17.8677 30.2135 17.6714 29.7395C17.4751 29.2656 17.1874 28.835 16.8246 28.4723C16.4619 28.1095 16.0313 27.8218 15.5574 27.6255C15.0834 27.4292 14.5755 27.3282 14.0625 27.3282Z" fill="#F2F2F2"/>
<path d="M1.55872 41.3871L13.2756 29.6702L15.6192 32.0138L3.90231 43.7307L1.55872 41.3871Z" fill="#9C9D9E"/>
<path d="M13.2812 29.6719L3.125 39.8282L3.55391 40.2571C3.85439 40.5574 4.26186 40.7262 4.68672 40.7262C5.11158 40.7262 5.51905 40.5574 5.81953 40.2571L14.8438 31.2344L13.2812 29.6719Z" fill="#BDBDBE"/>
<path d="M29.6875 41.6407C29.6875 41.8132 29.7215 41.9841 29.7875 42.1435C29.8536 42.3029 29.9504 42.4478 30.0724 42.5698C30.1944 42.6919 30.3393 42.7886 30.4987 42.8547C30.6581 42.9207 30.829 42.9547 31.0016 42.9547H48.4375V41.3922H29.6875V41.6407Z" fill="#A1E1FF"/>
<path d="M33.5938 38.1703C33.5938 38.61 33.7684 39.0317 34.0793 39.3426C34.3902 39.6535 34.8119 39.8282 35.2516 39.8282H44.5312V37.4844H33.5938V38.1703Z" fill="#F2F2F2"/>
<path d="M37.5 34.2023C37.5 34.6582 37.6811 35.0953 38.0034 35.4177C38.3257 35.74 38.7629 35.9211 39.2188 35.9211H40.625V32.0148H37.5V34.2023Z" fill="#A1E1FF"/>
<path d="M36.7188 1.54691H39.8438V32.0157H36.7188V1.54691Z" fill="#9C9D9E"/>
<path d="M38.2812 28.5852C38.2819 29.0269 38.4393 29.4541 38.7254 29.7906C39.0116 30.1271 39.4079 30.3511 39.8438 30.4227V1.54691H38.2812V28.5852Z" fill="#BDBDBE"/>
<path d="M39.8438 7.7969H36.7188V1.54691H39.8438V7.7969Z" fill="#8AD9FF"/>
<path d="M38.2812 1.54691H39.8438V7.7969H38.2812V1.54691Z" fill="#A1E1FF"/>
</svg>
