<svg width="50" height="50" viewBox="0 0 50 50" fill="none" xmlns="http://www.w3.org/2000/svg">
<path d="M21.0938 3.90625L21.3039 3.84609C24.7925 2.84935 28.403 2.3437 32.0312 2.34375V5.46875C28.403 5.4687 24.7925 5.97435 21.3039 6.97109L21.0938 7.03125" fill="#CDD4E4"/>
<path d="M15.625 9.375H20.3125V12.5H15.625V9.375Z" fill="#BCC5D8"/>
<path d="M27.7055 46.875C27.4313 47.3499 27.0369 47.7443 26.562 48.0186C26.0871 48.2929 25.5484 48.4373 25 48.4375H10.9375C10.1087 48.4375 9.31384 48.1083 8.72779 47.5222C8.14174 46.9362 7.8125 46.1413 7.8125 45.3125V21.875C7.8125 20.8608 8.14146 19.8739 8.75 19.0625L10.1562 17.1875H25.7812L27.1875 19.0625C27.796 19.8739 28.125 20.8608 28.125 21.875V31.2406" fill="#985D2C"/>
<path d="M16.6117 28.9062C17.0661 28.9065 17.5183 28.9696 17.9554 29.0938L18.364 29.2117C21.2844 30.0456 24.3066 30.4687 27.3437 30.4688C27.6046 30.4688 27.864 30.4477 28.125 30.4414V21.875C28.125 20.8608 27.796 19.8739 27.1875 19.0625L25.7812 17.1875H10.7421L10.4687 17.5523C10.2658 17.8228 10.1562 18.1518 10.1562 18.4898V28.9062C10.154 31.3773 10.687 33.8195 11.7187 36.0648V33.7992C11.7204 32.502 12.2364 31.2584 13.1536 30.3412C14.0709 29.4239 15.3145 28.9079 16.6117 28.9062Z" fill="#B56E35"/>
<path d="M14.0625 17.1875V12.5H21.875V17.1875" fill="#CDD4E4"/>
<path d="M14.8438 1.5625H21.0938V9.375H14.8438V1.5625Z" fill="#985D2C"/>
<path d="M7.8125 25H28.125V40.625H7.8125V25Z" fill="#BCC5D8"/>
<path d="M27.3438 46.875C24.234 46.8751 21.1394 47.3084 18.1492 48.1625L17.7414 48.2789C17.374 48.3834 16.9937 48.436 16.6117 48.4352C15.5216 48.4352 14.4762 48.0023 13.7051 47.2317C12.9341 46.4611 12.5006 45.4159 12.5 44.3258V33.7992C12.5 32.7087 12.9332 31.6629 13.7043 30.8918C14.4754 30.1207 15.5212 29.6875 16.6117 29.6875C16.9937 29.6866 17.374 29.7392 17.7414 29.8438L18.1492 29.9602C21.1393 30.815 24.2339 31.2492 27.3438 31.25C30.4535 31.2499 33.5481 30.8166 36.5383 29.9625L36.9461 29.8461C37.3135 29.7416 37.6938 29.689 38.0758 29.6899C39.1659 29.6899 40.2113 30.1227 40.9824 30.8933C41.7534 31.6639 42.1869 32.7091 42.1875 33.7992V44.3258C42.1875 45.4163 41.7543 46.4621 40.9832 47.2332C40.2121 48.0043 39.1663 48.4375 38.0758 48.4375C37.6938 48.4384 37.3135 48.3858 36.9461 48.2812L36.5383 48.1648C33.5482 47.31 30.4536 46.8758 27.3438 46.875Z" fill="#43B6E5"/>
<path d="M38.0758 29.6875C37.6938 29.6866 37.3135 29.7392 36.9461 29.8438L36.5383 29.9602C33.5482 30.815 30.4536 31.2492 27.3438 31.25C24.234 31.2499 21.1394 30.8166 18.1492 29.9625L17.7414 29.8461C17.1393 29.6725 16.5051 29.6406 15.8886 29.7528C15.2721 29.865 14.6899 30.1184 14.1875 30.493C14.1077 30.8077 14.0657 31.1308 14.0625 31.4555V41.982C14.0624 42.6185 14.2101 43.2463 14.4939 43.8159C14.7777 44.3856 15.1899 44.8816 15.698 45.2648C16.2062 45.6481 16.7963 45.9081 17.4221 46.0244C18.0478 46.1407 18.692 46.1102 19.3039 45.9352L19.7117 45.8188C25.7212 44.1021 32.0913 44.1021 38.1008 45.8188L38.5086 45.9352C39.1107 46.1087 39.7449 46.1407 40.3614 46.0285C40.9779 45.9162 41.5601 45.6629 42.0625 45.2883C42.1423 44.9736 42.1843 44.6505 42.1875 44.3258V33.7992C42.1875 32.7087 41.7543 31.6629 40.9832 30.8918C40.2121 30.1207 39.1663 29.6875 38.0758 29.6875Z" fill="#66C3E9"/>
<path d="M17.1875 36.7188V39.0625C17.1875 39.2697 17.2698 39.4684 17.4163 39.6149C17.5628 39.7614 17.7615 39.8438 17.9688 39.8438H19.5312V40.625H17.1875V42.1875H20.3125C20.5197 42.1875 20.7184 42.1052 20.8649 41.9587C21.0114 41.8122 21.0938 41.6135 21.0938 41.4062V39.0625C21.0938 38.8553 21.0114 38.6566 20.8649 38.5101C20.7184 38.3636 20.5197 38.2812 20.3125 38.2812H18.75V37.5H21.0938V35.9375H17.9688C17.7615 35.9375 17.5628 36.0198 17.4163 36.1663C17.2698 36.3128 17.1875 36.5115 17.1875 36.7188Z" fill="#3693CF"/>
<path d="M25.7812 35.9375H22.6562C22.449 35.9375 22.2503 36.0198 22.1038 36.1663C21.9573 36.3128 21.875 36.5115 21.875 36.7188V41.4062C21.875 41.6135 21.9573 41.8122 22.1038 41.9587C22.2503 42.1052 22.449 42.1875 22.6562 42.1875H25.7812C25.9885 42.1875 26.1872 42.1052 26.3337 41.9587C26.4802 41.8122 26.5625 41.6135 26.5625 41.4062V36.7188C26.5625 36.5115 26.4802 36.3128 26.3337 36.1663C26.1872 36.0198 25.9885 35.9375 25.7812 35.9375ZM25 40.625H23.4375V37.5H25V40.625Z" fill="#3693CF"/>
<path d="M31.25 35.9375H28.125C27.9178 35.9375 27.7191 36.0198 27.5726 36.1663C27.4261 36.3128 27.3438 36.5115 27.3438 36.7188V42.1875H28.9062V40.625H30.4688V42.1875H32.0312V36.7188C32.0312 36.5115 31.9489 36.3128 31.8024 36.1663C31.6559 36.0198 31.4572 35.9375 31.25 35.9375ZM28.9062 39.0625V37.5H30.4688V39.0625H28.9062Z" fill="#3693CF"/>
<path d="M36.7188 35.9375H33.5938C33.3865 35.9375 33.1878 36.0198 33.0413 36.1663C32.8948 36.3128 32.8125 36.5115 32.8125 36.7188V42.1875H34.375V39.8438H36.7188C36.926 39.8438 37.1247 39.7614 37.2712 39.6149C37.4177 39.4684 37.5 39.2697 37.5 39.0625V36.7188C37.5 36.5115 37.4177 36.3128 37.2712 36.1663C37.1247 36.0198 36.926 35.9375 36.7188 35.9375ZM35.9375 38.2812H34.375V37.5H35.9375V38.2812Z" fill="#3693CF"/>
<path d="M10.1562 28.9062C10.154 31.3773 10.687 33.8195 11.7187 36.0648V33.7992C11.7188 33.0419 11.8946 32.295 12.2324 31.6171C12.5701 30.9393 13.0605 30.3491 13.665 29.8929C14.2695 29.4367 14.9716 29.1271 15.7161 28.9883C16.4606 28.8495 17.2271 28.8853 17.9554 29.093L18.364 29.2109C21.2843 30.0451 24.3066 30.4684 27.3437 30.4688C27.6046 30.4688 27.864 30.4477 28.125 30.4414V25H10.1562V28.9062Z" fill="#DCE0E8"/>
<path d="M15.625 14.0625H21.875V17.1875H15.625V14.0625Z" fill="#ECF2F7"/>
<path d="M16.4062 6.25C16.4062 6.6644 16.5709 7.06183 16.8639 7.35485C17.1569 7.64788 17.5543 7.8125 17.9688 7.8125H21.0938V1.5625H16.4062V6.25Z" fill="#B56E35"/>
</svg>
