<svg width="30" height="30" viewBox="0 0 30 30" fill="none" xmlns="http://www.w3.org/2000/svg">
<path d="M21.244 6.58618C20.9095 6.66487 20.6515 6.93159 20.5836 7.26833C20.3368 8.49212 19.4262 11.4352 17.8277 12.9128C17.736 11.1065 17.3626 9.39669 16.7124 7.81266C16.0398 6.17397 15.0727 4.66981 13.8378 3.34202C11.6842 1.02634 9.50004 0.0765893 9.47859 0.0676244C9.16594 -0.0626881 8.80605 -0.00163338 8.55375 0.224597C8.3015 0.450828 8.20178 0.801921 8.29734 1.12694C8.31375 1.18237 9.89373 6.7302 6.67969 11.0156C4.56117 13.8403 3.57439 16.2418 3.57422 18.5735C3.57422 24.8741 8.69982 29.9999 15 29.9999C21.3002 29.9999 26.4258 24.8743 26.4258 18.5742C26.4258 12.4833 22.3141 7.12682 22.1391 6.90176C21.9281 6.63059 21.5785 6.50766 21.244 6.58618ZM10.6055 23.8474C10.6055 22.9932 11.0272 22.0158 11.8945 20.8593C12.8996 19.5191 13.1621 18.0327 13.1692 16.8676C14.1295 17.763 15.1955 19.3169 15.1008 21.7628C15.0895 22.0539 15.2232 22.3317 15.4578 22.5045C15.6923 22.6773 15.9972 22.7225 16.272 22.6255C17.3265 22.2527 18.0185 21.267 18.4529 20.3438C18.9223 21.2781 19.3945 22.5425 19.3945 23.8476C19.3945 26.2707 17.4231 28.2421 15 28.2421C12.5769 28.2421 10.6055 26.2706 10.6055 23.8474ZM20.56 26.479C20.9394 25.6807 21.1523 24.7887 21.1523 23.8476C21.1523 20.6531 19.0077 17.859 18.9164 17.7416C18.7056 17.4706 18.3562 17.3479 18.022 17.4262C17.6877 17.5045 17.4295 17.771 17.3611 18.1075C17.3597 18.1141 17.2219 18.7821 16.9057 19.4932C16.8469 19.6256 16.7858 19.7504 16.7231 19.8672C15.9683 15.7802 12.4491 14.2642 12.4083 14.2473C12.0947 14.1166 11.7336 14.1768 11.4813 14.4043C11.229 14.6317 11.1299 14.9827 11.2275 15.308C11.2349 15.3333 11.9482 17.858 10.4882 19.8047C9.38432 21.2766 8.84766 22.5989 8.8476 23.8474C8.8476 24.7886 9.06064 25.6807 9.4401 26.479C6.95713 24.7272 5.33203 21.8367 5.33203 18.5736C5.33215 16.6681 6.23297 14.5409 8.08594 12.0703C9.63838 10.0003 10.459 7.36635 10.459 4.45307C10.459 3.7755 10.415 3.15651 10.3538 2.62301C11.0167 3.09018 11.8158 3.74016 12.6001 4.59253C13.6777 5.76358 14.5201 7.08598 15.1038 8.52305C15.8338 10.32 16.1622 12.3103 16.0798 14.4386C16.0686 14.7297 16.2023 15.0075 16.4368 15.1802C16.6714 15.353 16.9763 15.3984 17.251 15.3012C18.8641 14.7311 20.2095 13.2404 21.2497 10.8708C21.4583 10.3956 21.6325 9.93358 21.7754 9.51399C22.9359 11.4288 24.668 14.9018 24.668 18.5742C24.668 21.8371 23.043 24.7273 20.56 26.479Z" fill="#1E538F"/>
<path d="M25.8398 2.63672C26.3253 2.63672 26.7188 2.24322 26.7188 1.75781C26.7188 1.27241 26.3253 0.878906 25.8398 0.878906C25.3544 0.878906 24.9609 1.27241 24.9609 1.75781C24.9609 2.24322 25.3544 2.63672 25.8398 2.63672Z" fill="#1E538F"/>
<path d="M19.3945 2.63672C19.8799 2.63672 20.2734 2.24322 20.2734 1.75781C20.2734 1.27241 19.8799 0.878906 19.3945 0.878906C18.9091 0.878906 18.5156 1.27241 18.5156 1.75781C18.5156 2.24322 18.9091 2.63672 19.3945 2.63672Z" fill="#1E538F"/>
<path d="M4.16016 6.26953C4.64556 6.26953 5.03906 5.87603 5.03906 5.39062C5.03906 4.90522 4.64556 4.51172 4.16016 4.51172C3.67475 4.51172 3.28125 4.90522 3.28125 5.39062C3.28125 5.87603 3.67475 6.26953 4.16016 6.26953Z" fill="#1E538F"/>
</svg>
