<svg width="50" height="50" viewBox="0 0 50 50" fill="none" xmlns="http://www.w3.org/2000/svg">
<path d="M46.3891 41.391H41.8778C42.4044 41.3895 42.9093 41.1814 43.284 40.8113C43.5597 40.5336 43.7471 40.1806 43.8224 39.7966C43.8977 39.4126 43.8576 39.0149 43.7072 38.6536C43.5568 38.2924 43.3028 37.9838 42.9772 37.7667C42.6516 37.5497 42.2691 37.4339 41.8778 37.434H3.7633C3.23919 37.4356 2.73695 37.6442 2.36595 38.0144C1.99494 38.3846 1.78522 38.8864 1.78244 39.4105C1.78316 39.9356 1.99211 40.439 2.36344 40.8103C2.73478 41.1815 3.2382 41.3904 3.7633 41.391H9.89963C9.41416 41.391 8.94857 41.5838 8.60529 41.9271C8.26201 42.2704 8.06916 42.736 8.06916 43.2215C8.06916 43.7069 8.26201 44.1725 8.60529 44.5158C8.94857 44.8591 9.41416 45.0519 9.89963 45.0519H16.2735C15.902 45.0512 15.5406 45.173 15.2453 45.3983C14.95 45.6237 14.7372 45.9401 14.6398 46.2986C14.5424 46.6571 14.566 47.0377 14.7067 47.3815C14.8474 47.7252 15.0976 48.0131 15.4184 48.2004C15.6758 48.3573 15.9719 48.4394 16.2735 48.4375H36.9348C37.0285 48.4373 37.1219 48.4288 37.2141 48.4121C37.5639 48.3558 37.8868 48.1899 38.1363 47.9383C38.3717 47.7009 38.5316 47.3992 38.5958 47.0711C38.66 46.7431 38.6258 46.4033 38.4973 46.0947C38.3688 45.7861 38.1519 45.5224 37.8739 45.3369C37.5958 45.1513 37.2691 45.0522 36.9348 45.0519H46.3879C46.873 45.05 47.3376 44.8561 47.6802 44.5127C48.0228 44.1693 48.2156 43.7042 48.2164 43.2191C48.2144 42.7348 48.021 42.271 47.6786 41.9286C47.3361 41.5862 46.8722 41.3929 46.3879 41.391H46.3891Z" fill="#30C3EF"/>
<path d="M30.2289 5.71484V8.97461H19.7711V5.71484H14.7524L10.25 39.3031H17.0532L17.77 33.3605H32.2301L32.9469 39.3031H39.75L35.2477 5.71484H30.2289Z" fill="#FFE0A7"/>
<path d="M36.0129 1.5625H13.9871C12.9287 1.5625 12.0707 2.4205 12.0707 3.47891V3.79844C12.0707 4.85684 12.9287 5.71484 13.9871 5.71484H36.0129C37.0713 5.71484 37.9293 4.85684 37.9293 3.79844V3.47891C37.9293 2.4205 37.0713 1.5625 36.0129 1.5625Z" fill="#FDB158"/>
<path d="M29.1442 20.4328L25.6395 14.3624C25.5747 14.2502 25.4815 14.1569 25.3692 14.0921C25.257 14.0273 25.1297 13.9932 25 13.9932C24.8704 13.9932 24.7431 14.0273 24.6308 14.0921C24.5186 14.1569 24.4254 14.2502 24.3606 14.3624L20.8559 20.4328L17.3512 26.5027C17.2864 26.615 17.2523 26.7424 17.2523 26.872C17.2524 27.0016 17.2865 27.129 17.3514 27.2413C17.4162 27.3535 17.5095 27.4468 17.6217 27.5116C17.734 27.5764 17.8614 27.6105 17.991 27.6105H32.009C32.1387 27.6105 32.266 27.5764 32.3783 27.5116C32.4906 27.4468 32.5838 27.3535 32.6487 27.2413C32.7135 27.129 32.7477 27.0016 32.7477 26.872C32.7477 26.7424 32.7136 26.615 32.6489 26.5027L29.1442 20.4328Z" fill="#F4677F"/>
<path d="M36.8922 12.8469L37.15 14.7687C37.162 14.8577 37.1563 14.948 37.1334 15.0348C37.1104 15.1215 37.0706 15.2028 37.0162 15.2741C36.9617 15.3455 36.8938 15.4054 36.8162 15.4504C36.7387 15.4955 36.653 15.5248 36.5641 15.5367C36.5336 15.5409 36.503 15.543 36.4723 15.543C36.3069 15.5426 36.1472 15.4824 36.0228 15.3734C35.8984 15.2643 35.8177 15.1139 35.7957 14.95L35.5379 13.0285C35.5237 12.9385 35.5276 12.8466 35.5494 12.7581C35.5712 12.6696 35.6105 12.5864 35.6649 12.5133C35.7194 12.4403 35.7879 12.3788 35.8664 12.3326C35.945 12.2864 36.0319 12.2564 36.1223 12.2443C36.2126 12.2322 36.3044 12.2382 36.3923 12.2621C36.4803 12.286 36.5625 12.3272 36.6343 12.3834C36.7061 12.4395 36.7659 12.5094 36.8103 12.589C36.8546 12.6686 36.8822 12.7563 36.8922 12.8469ZM26.2313 14.0211L33.2422 26.1613C33.367 26.3775 33.4327 26.6227 33.4327 26.8723C33.4327 27.1219 33.367 27.3672 33.2421 27.5833C33.1173 27.7995 32.9378 27.979 32.7216 28.1037C32.5054 28.2285 32.2602 28.2942 32.0106 28.2941H17.991C17.7414 28.2942 17.4961 28.2285 17.28 28.1036C17.0638 27.9788 16.8842 27.7993 16.7595 27.5831C16.6347 27.3668 16.569 27.1216 16.569 26.872C16.5691 26.6223 16.6349 26.3771 16.7598 26.1609L23.7688 14.0211C23.8935 13.8052 24.0729 13.6259 24.2889 13.5012C24.5049 13.3766 24.7498 13.311 24.9992 13.311C25.2486 13.311 25.4936 13.3766 25.7096 13.5012C25.9256 13.6259 26.1049 13.8052 26.2297 14.0211H26.2313ZM32.0566 26.8453L25.0473 14.7047C25.0425 14.6963 25.0357 14.6894 25.0274 14.6845C25.0191 14.6797 25.0096 14.6771 25 14.6771C24.9904 14.6771 24.9809 14.6797 24.9726 14.6845C24.9643 14.6894 24.9575 14.6963 24.9527 14.7047L17.9438 26.8449C17.9382 26.8529 17.9352 26.8624 17.9352 26.8721C17.9352 26.8818 17.9382 26.8913 17.9438 26.8992C17.9479 26.9081 17.9547 26.9156 17.9633 26.9205C17.9718 26.9255 17.9816 26.9277 17.9914 26.927H32.009C32.0188 26.9277 32.0286 26.9255 32.0371 26.9205C32.0457 26.9156 32.0525 26.9081 32.0566 26.8992C32.0621 26.8913 32.065 26.8819 32.065 26.8723C32.065 26.8626 32.0621 26.8532 32.0566 26.8453ZM24.3164 18.2672V22.5988C24.3164 22.7801 24.3884 22.954 24.5166 23.0822C24.6448 23.2104 24.8187 23.2824 25 23.2824C25.1813 23.2824 25.3552 23.2104 25.4834 23.0822C25.6116 22.954 25.6836 22.7801 25.6836 22.5988V18.2672C25.6836 18.0859 25.6116 17.912 25.4834 17.7838C25.3552 17.6556 25.1813 17.5836 25 17.5836C24.8187 17.5836 24.6448 17.6556 24.5166 17.7838C24.3884 17.912 24.3164 18.0859 24.3164 18.2672ZM25 23.8734C24.9102 23.8734 24.8213 23.891 24.7383 23.9254C24.6554 23.9597 24.58 24.0101 24.5165 24.0735C24.453 24.137 24.4027 24.2124 24.3683 24.2954C24.334 24.3783 24.3164 24.4672 24.3164 24.557V25.1793C24.3164 25.3606 24.3884 25.5345 24.5166 25.6627C24.6448 25.7909 24.8187 25.8629 25 25.8629C25.1813 25.8629 25.3552 25.7909 25.4834 25.6627C25.6116 25.5345 25.6836 25.3606 25.6836 25.1793V24.557C25.6836 24.4672 25.666 24.3783 25.6317 24.2954C25.5973 24.2124 25.547 24.137 25.4835 24.0735C25.42 24.0101 25.3446 23.9597 25.2617 23.9254C25.1787 23.891 25.0898 23.8734 25 23.8734ZM1.88633 37.5297C2.13182 37.2821 2.42389 37.0857 2.74571 36.9516C3.06752 36.8175 3.4127 36.7484 3.76133 36.7484H9.90313L13.9727 6.39687C13.2859 6.39214 12.6287 6.11624 12.1444 5.62927C11.6601 5.1423 11.3877 4.4837 11.3867 3.79688V3.48047C11.3874 2.79071 11.6618 2.12942 12.1495 1.64169C12.6372 1.15395 13.2985 0.87963 13.9883 0.878906H18.6875C18.8688 0.878906 19.0427 0.950928 19.1709 1.07913C19.2991 1.20732 19.3711 1.3812 19.3711 1.5625C19.3711 1.7438 19.2991 1.91768 19.1709 2.04587C19.0427 2.17407 18.8688 2.24609 18.6875 2.24609H13.9883C13.661 2.2464 13.3472 2.37655 13.1158 2.60798C12.8844 2.8394 12.7542 3.15319 12.7539 3.48047V3.79688C12.7542 4.12416 12.8844 4.43794 13.1158 4.66937C13.3472 4.90079 13.661 5.03094 13.9883 5.03125H36.0117C36.339 5.03094 36.6528 4.90079 36.8842 4.66937C37.1156 4.43794 37.2458 4.12416 37.2461 3.79688V3.48047C37.2458 3.15319 37.1156 2.8394 36.8842 2.60798C36.6528 2.37655 36.339 2.2464 36.0117 2.24609H22.25C22.0687 2.24609 21.8948 2.17407 21.7666 2.04587C21.6384 1.91768 21.5664 1.7438 21.5664 1.5625C21.5664 1.3812 21.6384 1.20732 21.7666 1.07913C21.8948 0.950928 22.0687 0.878906 22.25 0.878906H36.0117C36.7015 0.87963 37.3628 1.15395 37.8505 1.64169C38.3382 2.12942 38.6126 2.79071 38.6133 3.48047V3.79688C38.6125 4.48376 38.3403 5.14251 37.856 5.62964C37.3717 6.11677 36.7146 6.39281 36.0277 6.39766L36.4184 9.31523C36.4304 9.40416 36.4247 9.49458 36.4017 9.58132C36.3788 9.66806 36.339 9.74943 36.2845 9.82078C36.2301 9.89213 36.1622 9.95206 36.0846 9.99716C36.0071 10.0423 35.9214 10.0716 35.8324 10.0836C35.802 10.0878 35.7713 10.0899 35.7406 10.0898C35.5753 10.0896 35.4156 10.0294 35.2912 9.92049C35.1668 9.81153 35.0861 9.66117 35.0641 9.49727L34.6484 6.39844H30.9141V8.97266C30.9141 9.15396 30.842 9.32783 30.7138 9.45603C30.5856 9.58423 30.4118 9.65625 30.2305 9.65625H19.7695C19.5882 9.65625 19.4144 9.58423 19.2862 9.45603C19.158 9.32783 19.0859 9.15396 19.0859 8.97266V6.39844H15.3516L11.0313 38.6211H16.4484L16.6004 37.3586C16.6019 37.3355 16.6047 37.3126 16.6086 37.2898L17.091 33.2777C17.111 33.1118 17.191 32.9589 17.3161 32.848C17.4411 32.7371 17.6024 32.6758 17.7695 32.6758H19.3008C19.4821 32.6758 19.656 32.7478 19.7842 32.876C19.9124 33.0042 19.9844 33.1781 19.9844 33.3594C19.9844 33.5407 19.9124 33.7145 19.7842 33.8427C19.656 33.9709 19.4821 34.043 19.3008 34.043H18.3758L18.0504 36.7504H31.9496L31.6242 34.043H22.8633C22.682 34.043 22.5081 33.9709 22.3799 33.8427C22.2517 33.7145 22.1797 33.5407 22.1797 33.3594C22.1797 33.1781 22.2517 33.0042 22.3799 32.876C22.5081 32.7478 22.682 32.6758 22.8633 32.6758H32.2305C32.3976 32.6758 32.5589 32.7371 32.6839 32.848C32.809 32.9589 32.889 33.1118 32.909 33.2777L33.3914 37.2898C33.3953 37.3126 33.3981 37.3355 33.3996 37.3586L33.5516 38.6211H38.9688L36.268 18.4816C36.2537 18.3916 36.2577 18.2997 36.2795 18.2112C36.3013 18.1228 36.3406 18.0395 36.395 17.9665C36.4495 17.8934 36.518 17.832 36.5965 17.7857C36.675 17.7395 36.762 17.7095 36.8523 17.6974C36.9427 17.6853 37.0345 17.6913 37.1224 17.7152C37.2103 17.7391 37.2926 17.7804 37.3644 17.8365C37.4362 17.8926 37.496 17.9626 37.5403 18.0422C37.5847 18.1218 37.6127 18.2094 37.6227 18.3L40.0969 36.75H41.8789C42.3427 36.75 42.7986 36.8711 43.2012 37.1013C43.6039 37.3315 43.9395 37.6629 44.1748 38.0626C44.4101 38.4624 44.5369 38.9166 44.5428 39.3804C44.5487 39.8442 44.4333 40.3015 44.2082 40.707H46.3906C47.0557 40.7104 47.6926 40.9761 48.1629 41.4464C48.6332 41.9167 48.899 42.5536 48.9023 43.2187C48.902 43.8852 48.6374 44.5243 48.1666 44.9958C47.6957 45.4674 47.057 45.733 46.3906 45.7344H39.0859C39.2933 46.1752 39.36 46.6693 39.277 47.1493C39.194 47.6294 38.9653 48.0723 38.6219 48.418C38.2701 48.7749 37.8128 49.009 37.3176 49.0855C37.1909 49.1108 37.062 49.1227 36.9328 49.1211H35.8391C35.6578 49.1211 35.4839 49.0491 35.3557 48.9209C35.2275 48.7927 35.1555 48.6188 35.1555 48.4375C35.1555 48.2562 35.2275 48.0823 35.3557 47.9541C35.4839 47.8259 35.6578 47.7539 35.8391 47.7539H36.9328C36.9795 47.7545 37.0261 47.7503 37.0719 47.7414C37.2914 47.7105 37.4951 47.6097 37.6527 47.4539C37.7926 47.3121 37.8874 47.132 37.9252 46.9365C37.963 46.7409 37.9421 46.5385 37.8651 46.3548C37.7881 46.1711 37.6586 46.0142 37.4927 45.904C37.3268 45.7937 37.132 45.735 36.9328 45.7352C36.7515 45.7352 36.5776 45.6631 36.4494 45.5349C36.3212 45.4067 36.2492 45.2329 36.2492 45.0516C36.2492 44.8703 36.3212 44.6964 36.4494 44.5682C36.5776 44.44 36.7515 44.368 36.9328 44.368H46.3898C46.6938 44.3671 46.985 44.2458 47.1996 44.0304C47.4142 43.8151 47.5346 43.5235 47.5344 43.2195C47.5351 43.0697 47.5057 42.9214 47.4477 42.7832C47.3898 42.6451 47.3046 42.5201 47.1973 42.4156C47.092 42.3081 46.9665 42.2226 46.8278 42.1641C46.6892 42.1056 46.5403 42.0753 46.3898 42.075H41.8789C41.6976 42.075 41.5237 42.003 41.3955 41.8748C41.2673 41.7466 41.1953 41.5727 41.1953 41.3914C41.1953 41.2101 41.2673 41.0362 41.3955 40.908C41.5237 40.7798 41.6976 40.7078 41.8789 40.7078C42.2254 40.7065 42.5574 40.5688 42.8031 40.3246C42.9824 40.1424 43.1039 39.9113 43.1523 39.6603C43.2007 39.4093 43.1738 39.1496 43.0751 38.9138C42.9763 38.6781 42.8101 38.4767 42.5973 38.3351C42.3845 38.1935 42.1345 38.118 41.8789 38.118H40.2805L40.4273 39.2148C40.4403 39.3114 40.4324 39.4096 40.4043 39.5028C40.3761 39.5961 40.3284 39.6823 40.2643 39.7556C40.2001 39.8289 40.1211 39.8877 40.0324 39.9279C39.9437 39.9682 39.8474 39.989 39.75 39.9891H32.9453C32.7782 39.9891 32.6168 39.9279 32.4918 39.8169C32.3667 39.706 32.2867 39.5531 32.2668 39.3871L32.1141 38.1184H17.8859L17.7332 39.3871C17.7133 39.5531 17.6333 39.706 17.5083 39.8169C17.3832 39.9279 17.2218 39.9891 17.0547 39.9891H10.25C10.1526 39.989 10.0563 39.9682 9.96763 39.9279C9.87893 39.8877 9.79987 39.8289 9.73573 39.7556C9.67159 39.6823 9.62386 39.5961 9.59574 39.5028C9.56762 39.4096 9.55975 39.3114 9.57266 39.2148L9.71953 38.118H3.76172C3.41954 38.1215 3.09232 38.2587 2.84998 38.5004C2.60764 38.742 2.46942 39.0688 2.46485 39.4109C2.46516 39.7548 2.60189 40.0845 2.84504 40.3276C3.08818 40.5708 3.41786 40.7075 3.76172 40.7078H9.89844C10.0797 40.7078 10.2536 40.7798 10.3818 40.908C10.51 41.0362 10.582 41.2101 10.582 41.3914C10.582 41.5727 10.51 41.7466 10.3818 41.8748C10.2536 42.003 10.0797 42.075 9.89844 42.075C9.67188 42.0756 9.45058 42.1433 9.2624 42.2694C9.07423 42.3956 8.92761 42.5747 8.84102 42.784C8.75443 42.9934 8.73174 43.2237 8.77581 43.4459C8.81988 43.6681 8.92874 43.8723 9.08868 44.0328C9.30461 44.2458 9.59516 44.366 9.89844 44.368H16.2734C16.4547 44.368 16.6286 44.44 16.7568 44.5682C16.885 44.6964 16.957 44.8703 16.957 45.0516C16.957 45.2329 16.885 45.4067 16.7568 45.5349C16.6286 45.6631 16.4547 45.7352 16.2734 45.7352C16.1408 45.7354 16.0096 45.7618 15.8872 45.8128C15.7648 45.8638 15.6536 45.9383 15.56 46.0323C15.4664 46.1262 15.3923 46.2377 15.3417 46.3603C15.2912 46.4829 15.2654 46.6143 15.2656 46.7469C15.2649 46.9207 15.3101 47.0917 15.3965 47.2426C15.4829 47.3934 15.6075 47.5189 15.7578 47.6063C15.9121 47.7036 16.091 47.755 16.2734 47.7543H26.7734C26.9547 47.7543 27.1286 47.8263 27.2568 47.9545C27.385 48.0827 27.457 48.2566 27.457 48.4379C27.457 48.6192 27.385 48.7931 27.2568 48.9213C27.1286 49.0495 26.9547 49.1215 26.7734 49.1215H16.2734C15.8444 49.1232 15.4234 49.0051 15.0578 48.7805C14.7037 48.5723 14.4102 48.275 14.2068 47.9181C14.0034 47.5612 13.8971 47.1573 13.8984 46.7465C13.8978 46.3969 13.9742 46.0515 14.1223 45.7348H9.89844C9.46805 45.7343 9.04499 45.6234 8.66975 45.4126C8.2945 45.2018 7.97964 44.8983 7.75531 44.531C7.53097 44.1637 7.40467 43.7449 7.38848 43.3148C7.3723 42.8848 7.46679 42.4577 7.66289 42.0746H3.76172C3.05542 42.0738 2.37829 41.7928 1.87886 41.2934C1.37943 40.794 1.09849 40.1168 1.09766 39.4105C1.09709 39.0603 1.16657 38.7135 1.30201 38.3905C1.43745 38.0674 1.63612 37.7748 1.88633 37.5297ZM29.5469 6.39844H20.4531V8.28906H29.5469V6.39844ZM32.2773 47.7539H30.3359C30.1546 47.7539 29.9808 47.8259 29.8526 47.9541C29.7244 48.0823 29.6523 48.2562 29.6523 48.4375C29.6523 48.6188 29.7244 48.7927 29.8526 48.9209C29.9808 49.0491 30.1546 49.1211 30.3359 49.1211H32.2773C32.4586 49.1211 32.6325 49.0491 32.7607 48.9209C32.8889 48.7927 32.9609 48.6188 32.9609 48.4375C32.9609 48.2562 32.8889 48.0823 32.7607 47.9541C32.6325 47.8259 32.4586 47.7539 32.2773 47.7539Z" fill="#222222"/>
</svg>
