<svg width="50" height="50" viewBox="0 0 50 50" fill="none" xmlns="http://www.w3.org/2000/svg">
<g clip-path="url(#clip0_2184_2002)">
<path d="M24.9999 10.4546C28.2354 10.4546 30.9788 12.5997 31.884 15.5421L35.695 13.0721C33.6678 9.23322 29.6346 6.61053 24.9999 6.61053C20.3652 6.61053 16.332 9.23322 14.3048 13.0721L18.1159 15.5421C19.0211 12.5997 21.7645 10.4546 24.9999 10.4546Z" fill="white"/>
<path d="M11.8391 11.4739C14.3966 6.83286 19.3368 3.68124 25 3.68124C30.6632 3.68124 35.6034 6.83295 38.1608 11.474L41.7808 9.12776C38.2105 3.63808 32.0225 0 25 0C17.9774 0 11.7894 3.63798 8.21909 9.12776L11.8391 11.4739Z" fill="white"/>
<path d="M13.3846 34.09C13.3846 33.3723 12.7061 32.7659 11.9028 32.7659H10.5161V35.4139H11.9028C12.706 35.414 13.3846 34.8076 13.3846 34.09Z" fill="white"/>
<path d="M40.2502 36.6716C40.2502 35.7554 40.043 32.7659 37.3773 32.7659H36.6306V40.565C36.9166 40.5618 37.2015 40.5581 37.4409 40.554C38.8392 40.5295 40.2502 39.3196 40.2502 36.6716Z" fill="white"/>
<path d="M43.6498 19.3726H31.9927C31.2205 22.5169 28.379 24.8568 25 24.8568C21.621 24.8568 18.7796 22.5168 18.0074 19.3726H6.35021C2.84492 19.3726 0.00341797 22.2142 0.00341797 25.7194V43.6532C0.00341797 47.1584 2.84492 50 6.35021 50H43.6498C47.155 50 49.9966 47.1584 49.9966 43.6532V25.7195C49.9966 22.2142 47.155 19.3726 43.6498 19.3726ZM16.4366 43.5092H13.3595L11.6976 38.3433H10.516V43.5092H7.58676V29.8366H11.9028C14.3351 29.8366 16.3139 31.7446 16.3139 34.0899C16.3139 35.4956 15.6027 36.7435 14.5094 37.5184L16.4366 43.5092ZM33.7013 43.5153V29.8366H37.3773C40.8477 29.8366 43.1794 32.5834 43.1794 36.6716C43.1794 40.5607 40.7875 43.4252 37.4919 43.4827C36.626 43.4979 33.7013 43.5153 33.7013 43.5153ZM28.2409 29.8366H31.1702V43.5066H28.2409V29.8366ZM25.809 29.8366V32.7659H21.9334V35.0864H24.469V38.0157H21.9334V43.5066H19.0041V29.8366H25.809Z" fill="white"/>
<path d="M24.9999 13.3839C22.6445 13.3839 20.7281 15.3003 20.7281 17.6558C20.7281 20.0113 22.6445 21.9277 24.9999 21.9277C27.3554 21.9277 29.2718 20.0113 29.2718 17.6558C29.2718 15.3003 27.3554 13.3839 24.9999 13.3839Z" fill="white"/>
</g>
<defs>
<clipPath id="clip0_2184_2002">
<rect width="50" height="50" fill="white"/>
</clipPath>
</defs>
</svg>
