<svg width="30" height="30" viewBox="0 0 30 30" fill="none" xmlns="http://www.w3.org/2000/svg">
<path d="M7.55335 29.8955C7.94153 30.1038 8.42282 29.9921 8.68034 29.6369L22.7428 10.2424C22.9367 9.97502 22.9643 9.62141 22.8141 9.32709C22.664 9.03284 22.3616 8.84756 22.0313 8.84756H18.3048L22.7862 1.32884C22.9481 1.05726 22.9516 0.719646 22.7954 0.444725C22.6393 0.169804 22.3474 0 22.0313 0H11.4844C11.0808 0 10.7291 0.274921 10.6316 0.66656L7.11595 14.7876C7.05061 15.0501 7.10979 15.3281 7.27632 15.5412C7.4429 15.7543 7.69831 15.8788 7.96878 15.8788H11.9758L7.14548 28.8135C6.99161 29.2254 7.16587 29.6876 7.55335 29.8955ZM14.0656 15.3074C14.1664 15.0376 14.1285 14.7355 13.9643 14.4988C13.8001 14.2622 13.5303 14.121 13.2423 14.121H9.09336L12.1713 1.75781H20.4843L16.0029 9.27653C15.841 9.54811 15.8375 9.88572 15.9937 10.1606C16.1499 10.4356 16.4417 10.6054 16.7579 10.6054H20.3085L11.0564 23.3655L14.0656 15.3074Z" fill="#1E538F"/>
</svg>
