<svg width="50" height="50" viewBox="0 0 50 50" fill="none" xmlns="http://www.w3.org/2000/svg">
<g clip-path="url(#clip0_2181_1638)">
<path d="M30.7739 49.2676H0.732422V0.732425H30.7739V49.2676Z" fill="#55C8FF"/>
<path d="M24.3164 49.2676H6.54297V17.1896H24.3164V49.2676Z" fill="#F2F2F2"/>
<path d="M19.0991 30.0038H11.7603V22.665H19.0991V30.0038Z" fill="#D5F4F7"/>
<path d="M30.0103 0.732425H49.2676V49.2676H30.0103V0.732425Z" fill="#F2F2F2"/>
<path d="M46.3379 49.2676H49.2676V0.732425H46.3379V49.2676Z" fill="#E6E6E6"/>
<path d="M49.2676 17.1896H30.0103V0.732446H49.2676V17.1896Z" fill="#B9B8B4"/>
<path d="M46.3379 17.1896H49.2676V0.732446H46.3379V17.1896Z" fill="#AFAEAC"/>
<path d="M33.6201 35.5273H38.5742V28.2877H33.6201V35.5273Z" fill="#ACE7EB"/>
<path d="M45.6996 28.2878H37.78V35.5275H45.6996V28.2878Z" fill="#55C8FF"/>
<mask id="mask0_2181_1638" style="mask-type:luminance" maskUnits="userSpaceOnUse" x="0" y="0" width="50" height="50">
<path d="M0 2.98023e-06H50V50H0V2.98023e-06Z" fill="white"/>
</mask>
<g mask="url(#mask0_2181_1638)">
<path fill-rule="evenodd" clip-rule="evenodd" d="M0.000183105 49.2676C0.000183105 49.6721 0.328099 50 0.732605 50H41.8049C42.2094 50 42.5373 49.6721 42.5373 49.2676C42.5373 48.8631 42.2094 48.5352 41.8049 48.5352H1.46503V8.94375C1.46503 8.53925 1.13711 8.21133 0.732605 8.21133C0.328099 8.21133 0.000183105 8.53925 0.000183105 8.94375V49.2676Z" fill="#060606"/>
<path fill-rule="evenodd" clip-rule="evenodd" d="M45.0843 49.2677C45.0843 49.6722 45.4122 50.0001 45.8167 50.0001H49.2676C49.6721 50.0001 50 49.6722 50 49.2677V0.732547C50 0.328043 49.6721 0.000125051 49.2676 0.000125051H0.732422C0.327916 0.000125051 0 0.328043 0 0.732547V5.31799C0 5.7225 0.327916 6.05042 0.732422 6.05042C1.13693 6.05042 1.46484 5.7225 1.46484 5.31799V1.46497H48.5352V48.5353H45.8167C45.4122 48.5353 45.0843 48.8632 45.0843 49.2677Z" fill="#060606"/>
<path fill-rule="evenodd" clip-rule="evenodd" d="M5.81055 49.2676C5.81055 49.6721 6.13846 50 6.54297 50H24.3164C24.7209 50 25.0488 49.6721 25.0488 49.2676V17.1896C25.0488 16.785 24.7209 16.4571 24.3164 16.4571H6.54297C6.13846 16.4571 5.81055 16.785 5.81055 17.1896V49.2676ZM7.27539 48.5352V17.922H23.584V48.5352H7.27539Z" fill="#060606"/>
</g>
<path fill-rule="evenodd" clip-rule="evenodd" d="M11.0278 30.0038C11.0278 30.4083 11.3557 30.7362 11.7603 30.7362H19.0991C19.5036 30.7362 19.8315 30.4083 19.8315 30.0038V22.665C19.8315 22.2605 19.5036 21.9326 19.0991 21.9326H11.7603C11.3557 21.9326 11.0278 22.2605 11.0278 22.665V30.0038ZM12.4927 29.2714V23.3974H18.3667V29.2714H12.4927Z" fill="#060606"/>
<path fill-rule="evenodd" clip-rule="evenodd" d="M8.9162 38.5482C8.9162 38.9527 9.24412 39.2806 9.64862 39.2806H21.2107C21.6152 39.2806 21.9432 38.9527 21.9432 38.5482V35.5273C21.9432 35.1228 21.6152 34.7949 21.2107 34.7949C20.8062 34.7949 20.4783 35.1228 20.4783 35.5273V37.8158H10.381V35.5273C10.381 35.1228 10.0531 34.7949 9.64862 34.7949C9.24412 34.7949 8.9162 35.1228 8.9162 35.5273V38.5482Z" fill="#060606"/>
<path fill-rule="evenodd" clip-rule="evenodd" d="M11.2423 28.3831C11.5283 28.6692 11.9921 28.6692 12.2781 28.3831L17.4784 23.1829C17.7644 22.8969 17.7644 22.4332 17.4784 22.1471C17.1924 21.8611 16.7287 21.8611 16.4426 22.1471L11.2423 27.3473C10.9563 27.6334 10.9563 28.0971 11.2423 28.3831Z" fill="#060606"/>
<path fill-rule="evenodd" clip-rule="evenodd" d="M15.3187 28.236C15.6047 28.5221 16.0685 28.5221 16.3545 28.236L19.5343 25.0563C19.8203 24.7702 19.8203 24.3065 19.5343 24.0205C19.2483 23.7344 18.7845 23.7344 18.4985 24.0205L15.3187 27.2002C15.0327 27.4863 15.0327 27.95 15.3187 28.236Z" fill="#060606"/>
<path fill-rule="evenodd" clip-rule="evenodd" d="M15.4709 13.2012C15.8754 13.2012 16.2033 12.8733 16.2033 12.4688V5.74043C16.2033 5.33592 15.8754 5.00801 15.4709 5.00801C15.0664 5.00801 14.7385 5.33592 14.7385 5.74043V12.4688C14.7385 12.8733 15.0664 13.2012 15.4709 13.2012Z" fill="#060606"/>
<path fill-rule="evenodd" clip-rule="evenodd" d="M18.9104 11.2153C19.1127 10.865 18.9927 10.4171 18.6423 10.2148L12.8155 6.85067C12.4652 6.64841 12.0172 6.76844 11.815 7.11875C11.6127 7.46906 11.7328 7.917 12.0831 8.11926L17.9099 11.4834C18.2602 11.6857 18.7082 11.5656 18.9104 11.2153Z" fill="#060606"/>
<path fill-rule="evenodd" clip-rule="evenodd" d="M11.815 11.3403C12.0172 11.6906 12.4652 11.8107 12.8155 11.6084L18.6423 8.24426C18.9927 8.042 19.1127 7.59406 18.9104 7.24375C18.7082 6.89344 18.2602 6.77341 17.9099 6.97567L12.0831 10.3398C11.7328 10.5421 11.6127 10.99 11.815 11.3403Z" fill="#060606"/>
<path fill-rule="evenodd" clip-rule="evenodd" d="M14.9915 6.44894C15.2667 6.68728 15.6752 6.68727 15.9504 6.4489L16.617 5.87159L17.2837 5.29425C17.5895 5.02945 17.6227 4.5669 17.3579 4.26111C17.0931 3.95532 16.6305 3.9221 16.3248 4.1869L15.4709 4.92636L14.617 4.1869C14.3112 3.9221 13.8487 3.95532 13.5839 4.26111C13.319 4.5669 13.3523 5.02945 13.6581 5.29425L14.9915 6.44894Z" fill="#060606"/>
<path fill-rule="evenodd" clip-rule="evenodd" d="M17.358 14.1029C17.6227 13.7971 17.5895 13.3346 17.2837 13.0698L15.9504 11.9152C15.6751 11.6768 15.2666 11.6768 14.9914 11.9152L13.658 13.0699C13.3523 13.3347 13.3191 13.7973 13.5839 14.103C13.8487 14.4088 14.3113 14.442 14.6171 14.1772L15.4708 13.4377L16.3248 14.1772C16.6306 14.442 17.0932 14.4088 17.358 14.1029Z" fill="#060606"/>
<path fill-rule="evenodd" clip-rule="evenodd" d="M10.2246 8.37944C10.357 8.76166 10.7742 8.96417 11.1564 8.83176L12.823 8.25442C13.167 8.13525 13.3713 7.78149 13.3025 7.42399L12.9692 5.69188C12.8927 5.29466 12.5087 5.03464 12.1115 5.1111C11.7143 5.18756 11.4543 5.57155 11.5307 5.96876L11.7442 7.07789L11.5102 7.15895L10.6769 7.44762C10.2947 7.58003 10.0922 7.99722 10.2246 8.37944Z" fill="#060606"/>
<path fill-rule="evenodd" clip-rule="evenodd" d="M18.7479 13.3004C19.1451 13.2239 19.4051 12.8399 19.3286 12.4427L19.1152 11.3336L19.3492 11.2525L20.1825 10.9639C20.5647 10.8315 20.7672 10.4143 20.6348 10.032C20.5024 9.64982 20.0852 9.44731 19.703 9.57972L18.0364 10.1571C17.6924 10.2762 17.4881 10.63 17.5569 10.9875L17.8902 12.7196C17.9667 13.1168 18.3506 13.3768 18.7479 13.3004Z" fill="#060606"/>
<path fill-rule="evenodd" clip-rule="evenodd" d="M12.1115 13.348C12.5087 13.4244 12.8927 13.1644 12.9691 12.7672L13.3024 11.0351C13.3712 10.6776 13.167 10.3238 12.823 10.2047L11.9897 9.916L11.1564 9.62732C10.7741 9.49492 10.3569 9.69743 10.2245 10.0796C10.0921 10.4619 10.2946 10.8791 10.6769 11.0115L11.7442 11.3812L11.5307 12.4903C11.4542 12.8875 11.7143 13.2715 12.1115 13.348Z" fill="#060606"/>
<path fill-rule="evenodd" clip-rule="evenodd" d="M20.6348 8.42705C20.7672 8.04483 20.5647 7.62764 20.1825 7.49523L19.1152 7.1255L19.3287 6.01637C19.4051 5.61915 19.1451 5.23517 18.7479 5.15871C18.3507 5.08225 17.9667 5.34227 17.8902 5.73948L17.5569 7.47159C17.4881 7.8291 17.6924 8.18286 18.0364 8.30203L19.703 8.87937C20.0852 9.01178 20.5024 8.80927 20.6348 8.42705Z" fill="#060606"/>
<path fill-rule="evenodd" clip-rule="evenodd" d="M33.0285 4.64282C33.0285 5.04733 33.3564 5.37524 33.7609 5.37524H45.5588C45.9633 5.37524 46.2912 5.04733 46.2912 4.64282C46.2912 4.23832 45.9633 3.9104 45.5588 3.9104H33.7609C33.3564 3.9104 33.0285 4.23832 33.0285 4.64282Z" fill="#060606"/>
<path fill-rule="evenodd" clip-rule="evenodd" d="M33.0285 7.51233C33.0285 7.91683 33.3564 8.24475 33.7609 8.24475H45.5588C45.9633 8.24475 46.2912 7.91683 46.2912 7.51233C46.2912 7.10782 45.9633 6.77991 45.5588 6.77991H33.7609C33.3564 6.77991 33.0285 7.10782 33.0285 7.51233Z" fill="#060606"/>
<path fill-rule="evenodd" clip-rule="evenodd" d="M33.0285 10.3817C33.0285 10.7862 33.3564 11.1141 33.7609 11.1141H45.5588C45.9633 11.1141 46.2912 10.7862 46.2912 10.3817C46.2912 9.97721 45.9633 9.64929 45.5588 9.64929H33.7609C33.3564 9.64929 33.0285 9.97721 33.0285 10.3817Z" fill="#060606"/>
<path fill-rule="evenodd" clip-rule="evenodd" d="M33.0285 13.2511C33.0285 13.6556 33.3564 13.9835 33.7609 13.9835H45.5588C45.9633 13.9835 46.2912 13.6556 46.2912 13.2511C46.2912 12.8466 45.9633 12.5187 45.5588 12.5187H33.7609C33.3564 12.5187 33.0285 12.8466 33.0285 13.2511Z" fill="#060606"/>
<path fill-rule="evenodd" clip-rule="evenodd" d="M37.78 36.2598C38.1845 36.2598 38.5124 35.9318 38.5124 35.5273V28.483C38.5124 28.0785 38.1845 27.7506 37.78 27.7506C37.3755 27.7506 37.0476 28.0785 37.0476 28.483V35.5273C37.0476 35.9318 37.3755 36.2598 37.78 36.2598Z" fill="#060606"/>
<path fill-rule="evenodd" clip-rule="evenodd" d="M32.8877 35.5273C32.8877 35.9318 33.2156 36.2598 33.6201 36.2598H45.6996C46.1041 36.2598 46.432 35.9318 46.432 35.5273V28.2877C46.432 27.8832 46.1041 27.5553 45.6996 27.5553H33.6201C33.2156 27.5553 32.8877 27.8832 32.8877 28.2877V35.5273ZM34.3525 34.7949V29.0201H44.9672V34.7949H34.3525Z" fill="#060606"/>
<mask id="mask1_2181_1638" style="mask-type:luminance" maskUnits="userSpaceOnUse" x="0" y="0" width="50" height="50">
<path d="M0 2.98023e-06H50V50H0V2.98023e-06Z" fill="white"/>
</mask>
<g mask="url(#mask1_2181_1638)">
<path d="M40.5632 31.4078C41.5057 31.4078 41.5072 29.943 40.5632 29.943C39.6206 29.943 39.6191 31.4078 40.5632 31.4078Z" fill="#060606"/>
<path d="M43.3464 31.4078C44.2889 31.4078 44.2904 29.943 43.3464 29.943C42.4038 29.943 42.4023 31.4078 43.3464 31.4078Z" fill="#060606"/>
<path d="M40.5632 33.8721C41.5057 33.8721 41.5072 32.4072 40.5632 32.4072C39.6206 32.4072 39.6191 33.8721 40.5632 33.8721Z" fill="#060606"/>
<path d="M43.3464 33.8721C44.2889 33.8721 44.2904 32.4072 43.3464 32.4072C42.4038 32.4072 42.4023 33.8721 43.3464 33.8721Z" fill="#060606"/>
<path fill-rule="evenodd" clip-rule="evenodd" d="M30.0103 50C30.4148 50 30.7427 49.6721 30.7427 49.2676V0.732425C30.7427 0.327921 30.4148 2.98023e-06 30.0103 2.98023e-06C29.6058 2.98023e-06 29.2779 0.327921 29.2779 0.732425V49.2676C29.2779 49.6721 29.6058 50 30.0103 50Z" fill="#060606"/>
<path fill-rule="evenodd" clip-rule="evenodd" d="M29.2779 17.1895C29.2779 17.594 29.6058 17.9219 30.0103 17.9219H49.2675C49.672 17.9219 50 17.594 50 17.1895C50 16.7849 49.672 16.457 49.2675 16.457H30.0103C29.6058 16.457 29.2779 16.7849 29.2779 17.1895Z" fill="#060606"/>
</g>
</g>
<defs>
<clipPath id="clip0_2181_1638">
<rect width="50" height="50" fill="white"/>
</clipPath>
</defs>
</svg>
