<svg width="50" height="50" viewBox="0 0 50 50" fill="none" xmlns="http://www.w3.org/2000/svg">
<path d="M0.78125 14.8438H7.41406C5.67969 17.8281 4.6875 21.2969 4.6875 25C4.6875 28.7031 5.67969 32.1719 7.41406 35.1562H0.78125V14.8438Z" fill="#31A8DD"/>
<path d="M16.0156 29.6875C17.0943 29.6875 17.9688 28.8131 17.9688 27.7344C17.9688 26.6557 17.0943 25.7812 16.0156 25.7812C14.9369 25.7812 14.0625 26.6557 14.0625 27.7344C14.0625 28.8131 14.9369 29.6875 16.0156 29.6875Z" fill="#59C9EF"/>
<path d="M28.6016 30.7891C29.0547 31.4141 29.2969 32.1484 29.2969 32.9062C29.2969 35.0078 27.2734 36.7188 25 36.7188C23.8594 36.7188 22.7891 36.2891 22 35.6016C21.2109 34.9062 20.7031 33.9531 20.7031 32.9062C20.7031 32.1484 20.9453 31.4141 21.3984 30.7891L25 25.7812L28.6016 30.7891Z" fill="#59C9EF"/>
<path d="M33.9844 29.6875C35.0631 29.6875 35.9375 28.8131 35.9375 27.7344C35.9375 26.6557 35.0631 25.7812 33.9844 25.7812C32.9057 25.7812 32.0312 26.6557 32.0312 27.7344C32.0312 28.8131 32.9057 29.6875 33.9844 29.6875Z" fill="#31A8DD"/>
<path d="M49.2188 14.8438V35.1562H42.5859C44.3203 32.1719 45.3125 28.7031 45.3125 25C45.3125 21.2969 44.3203 17.8281 42.5859 14.8438H49.2188Z" fill="#31A8DD"/>
<path d="M42.5859 35.1562C39.0859 41.2266 32.5156 45.3125 25 45.3125C17.4844 45.3125 10.9141 41.2266 7.41406 35.1562C5.67969 32.1719 4.6875 28.7031 4.6875 25C4.6875 21.2969 5.67969 17.8281 7.41406 14.8438C10.9141 8.77344 17.4844 4.6875 25 4.6875C32.5156 4.6875 39.0859 8.77344 42.5859 14.8438C44.3203 17.8281 45.3125 21.2969 45.3125 25C45.3125 28.7031 44.3203 32.1719 42.5859 35.1562ZM41.4062 25C41.4062 15.9375 34.0625 8.59375 25 8.59375C15.9375 8.59375 8.59375 15.9375 8.59375 25C8.59375 34.0625 15.9375 41.4062 25 41.4062C34.0625 41.4062 41.4062 34.0625 41.4062 25Z" fill="#59C9EF"/>
<path d="M25 8.59375C34.0625 8.59375 41.4062 15.9375 41.4062 25C41.4062 34.0625 34.0625 41.4062 25 41.4062C15.9375 41.4062 8.59375 34.0625 8.59375 25C8.59375 15.9375 15.9375 8.59375 25 8.59375ZM35.9375 21.875V17.1875H14.0625V21.875H35.9375ZM35.9375 27.7344C35.9375 26.6563 35.0625 25.7812 33.9844 25.7812C32.9063 25.7812 32.0312 26.6563 32.0312 27.7344C32.0312 28.8125 32.9063 29.6875 33.9844 29.6875C35.0625 29.6875 35.9375 28.8125 35.9375 27.7344ZM29.2969 32.9062C29.2969 32.1484 29.0547 31.4141 28.6016 30.7891L25 25.7812L21.3984 30.7891C20.9453 31.4141 20.7031 32.1484 20.7031 32.9062C20.7031 33.9531 21.2109 34.9062 22 35.6016C22.7891 36.2891 23.8594 36.7188 25 36.7188C27.2734 36.7188 29.2969 35.0078 29.2969 32.9062ZM17.9688 27.7344C17.9688 26.6563 17.0937 25.7812 16.0156 25.7812C14.9375 25.7812 14.0625 26.6563 14.0625 27.7344C14.0625 28.8125 14.9375 29.6875 16.0156 29.6875C17.0937 29.6875 17.9688 28.8125 17.9688 27.7344Z" fill="#97E3F7"/>
<path d="M30.4688 17.1875H35.9375V21.875H30.4688V17.1875Z" fill="#31A8DD"/>
<path d="M25 17.1875H30.4688V21.875H25V17.1875Z" fill="#59C9EF"/>
<path d="M19.5312 17.1875H25V21.875H19.5312V17.1875Z" fill="#31A8DD"/>
<path d="M14.0625 17.1875H19.5312V21.875H14.0625V17.1875Z" fill="#59C9EF"/>
<path d="M25 7.8125C15.5227 7.8125 7.8125 15.5227 7.8125 25C7.8125 34.4773 15.5227 42.1875 25 42.1875C27.8578 42.1875 30.6883 41.4719 33.1852 40.118C33.5648 39.9125 33.7055 39.4383 33.4992 39.0594C33.293 38.6805 32.8187 38.5398 32.4406 38.7453C30.1719 39.9758 27.5992 40.6258 25.0008 40.6258C16.3852 40.6258 9.37578 33.6164 9.37578 25.0008C9.37578 16.3852 16.3844 9.375 25 9.375C33.6156 9.375 40.625 16.3844 40.625 25C40.625 29.4398 38.7266 33.6852 35.4164 36.6477C35.0945 36.9352 35.068 37.4297 35.3555 37.7508C35.6438 38.0711 36.1367 38.0992 36.4586 37.8117C40.0992 34.5523 42.1875 29.8836 42.1875 25C42.1875 15.5227 34.4773 7.8125 25 7.8125Z" fill="#222222"/>
<path d="M49.2188 14.0625H43.0187C39.2148 7.78984 32.3586 3.90625 25 3.90625C17.6414 3.90625 10.782 7.79141 6.97969 14.0625H0.78125C0.349219 14.0625 0 14.4125 0 14.8438V35.1562C0 35.5883 0.35 35.9375 0.78125 35.9375H6.98047C10.7844 42.2102 17.6406 46.0938 25 46.0938C32.3594 46.0938 39.2172 42.2094 43.0195 35.9375H49.2188C49.65 35.9375 50 35.5883 50 35.1562V14.8438C50 14.4117 49.65 14.0625 49.2188 14.0625ZM1.5625 15.625H6.10781C4.66484 18.5219 3.90625 21.7352 3.90625 25C3.90625 28.2648 4.66562 31.4797 6.10781 34.375H1.5625V15.625ZM25 44.5312C18.0437 44.5312 11.5641 40.7898 8.08984 34.7633C6.375 31.8133 5.46875 28.4367 5.46875 25C5.46875 21.5633 6.375 18.1867 8.09062 15.2344C11.5641 9.21016 18.043 5.46875 25 5.46875C31.957 5.46875 38.4359 9.21016 41.9094 15.2344V15.2367C43.625 18.1867 44.5312 21.5633 44.5312 25C44.5312 28.4367 43.625 31.8133 41.9094 34.7656C38.4359 40.7898 31.957 44.5312 25 44.5312ZM48.4375 34.375H43.8922C45.3352 31.4781 46.0938 28.2648 46.0938 25C46.0938 21.7352 45.3352 18.5211 43.8922 15.625H48.4375V34.375Z" fill="#222222"/>
<path d="M35.9375 22.6562C36.3687 22.6562 36.7188 22.307 36.7188 21.875V17.1875C36.7188 16.7555 36.3687 16.4062 35.9375 16.4062H14.0625C13.6313 16.4062 13.2812 16.7555 13.2812 17.1875V21.875C13.2812 22.307 13.6313 22.6562 14.0625 22.6562H35.9375ZM25.7812 17.9688H29.6875V21.0938H25.7812V17.9688ZM24.2188 21.0938H20.3125V17.9688H24.2188V21.0938ZM35.1562 21.0938H31.25V17.9688H35.1562V21.0938ZM14.8438 17.9688H18.75V21.0938H14.8438V17.9688Z" fill="#222222"/>
<path d="M24.3656 25.325L20.7664 30.3305C20.2141 31.0922 19.9219 31.9821 19.9219 32.9063C19.9219 34.1344 20.4766 35.3 21.4867 36.1907C22.4555 37.0352 23.7031 37.5 25 37.5C27.7523 37.5 30.0781 35.3969 30.0781 32.9063C30.0781 31.9821 29.7859 31.0922 29.2359 30.3329L25.6344 25.325C25.3406 24.918 24.6594 24.918 24.3656 25.325ZM28.5156 32.9063C28.5156 34.5204 26.8727 35.9375 25 35.9375C24.0938 35.9375 23.1875 35.6 22.5164 35.0157C21.8508 34.429 21.4844 33.6797 21.4844 32.9063C21.4844 32.3141 21.6734 31.7407 22.0328 31.2454L25 27.1196L27.9687 31.2477C28.3266 31.7407 28.5156 32.3141 28.5156 32.9063Z" fill="#222222"/>
<path d="M33.9844 30.4688C35.4922 30.4688 36.7188 29.2422 36.7188 27.7344C36.7188 26.2266 35.4922 25 33.9844 25C32.4766 25 31.25 26.2266 31.25 27.7344C31.25 29.2422 32.4766 30.4688 33.9844 30.4688ZM33.9844 26.5625C34.6305 26.5625 35.1562 27.0883 35.1562 27.7344C35.1562 28.3805 34.6305 28.9062 33.9844 28.9062C33.3383 28.9062 32.8125 28.3805 32.8125 27.7344C32.8125 27.0883 33.3383 26.5625 33.9844 26.5625Z" fill="#222222"/>
<path d="M13.2812 27.7344C13.2812 29.2422 14.5078 30.4688 16.0156 30.4688C17.5234 30.4688 18.75 29.2422 18.75 27.7344C18.75 26.2266 17.5234 25 16.0156 25C14.5078 25 13.2812 26.2266 13.2812 27.7344ZM17.1875 27.7344C17.1875 28.3805 16.6617 28.9062 16.0156 28.9062C15.3695 28.9062 14.8438 28.3805 14.8438 27.7344C14.8438 27.0883 15.3695 26.5625 16.0156 26.5625C16.6617 26.5625 17.1875 27.0883 17.1875 27.7344Z" fill="#222222"/>
<path d="M27.3438 14.0625C27.775 14.0625 28.125 13.7133 28.125 13.2812C28.125 12.8492 27.775 12.5 27.3438 12.5H22.6562C22.225 12.5 21.875 12.8492 21.875 13.2812C21.875 13.7133 22.225 14.0625 22.6562 14.0625H27.3438Z" fill="#222222"/>
<path d="M25 34.375C25.6472 34.375 26.1719 33.8503 26.1719 33.2031C26.1719 32.5559 25.6472 32.0312 25 32.0312C24.3528 32.0312 23.8281 32.5559 23.8281 33.2031C23.8281 33.8503 24.3528 34.375 25 34.375Z" fill="#222222"/>
</svg>
