<svg width="30" height="30" viewBox="0 0 30 30" fill="none" xmlns="http://www.w3.org/2000/svg">
<path d="M22.0312 28.125C20.2219 28.125 18.75 26.6531 18.75 24.8437V12.5315C17.0016 11.4169 15.9375 9.49966 15.9375 7.4006C15.9375 5.10372 17.2106 3.02622 19.26 1.97716C19.5516 1.82904 19.8984 1.84122 20.1769 2.01185C20.4553 2.18341 20.625 2.48529 20.625 2.81247V6.86529L22.0312 7.42779L23.4375 6.86529V2.81247C23.4375 2.48529 23.6072 2.18341 23.8856 2.01185C24.1641 1.84122 24.5109 1.82904 24.8025 1.97716C26.8519 3.02716 28.125 5.10372 28.125 7.40154C28.125 9.49966 27.0609 11.4169 25.3125 12.5325V24.8437C25.3125 26.6531 23.8406 28.125 22.0312 28.125ZM18.75 4.74935C18.1528 5.48529 17.8125 6.41341 17.8125 7.4006C17.8125 8.98873 18.6947 10.4278 20.115 11.1553C20.4281 11.3156 20.625 11.6381 20.625 11.9897V24.8437C20.625 25.619 21.2559 26.25 22.0312 26.25C22.8066 26.25 23.4375 25.619 23.4375 24.8437V11.9897C23.4375 11.6381 23.6344 11.3156 23.9475 11.1553C25.3678 10.4278 26.25 8.98966 26.25 7.40154C26.25 6.41435 25.9097 5.48622 25.3125 4.75029V7.49998C25.3125 7.88341 25.0791 8.22748 24.7238 8.37091L22.38 9.30841C22.1559 9.39841 21.9075 9.39841 21.6834 9.30841L19.3397 8.37091C18.9834 8.22748 18.75 7.88341 18.75 7.49998V4.74935Z" fill="#1E538F"/>
<path d="M16.0069 28.125H13.9941C13.02 28.125 12.1988 27.3647 12.1247 26.3944L12.0066 24.8616C11.3634 24.6666 10.7409 24.4078 10.1456 24.0891L8.9775 25.0894C8.23781 25.7241 7.12031 25.68 6.43219 24.9928L5.00719 23.5669C4.31906 22.8787 4.27594 21.7603 4.90969 21.0206L5.91 19.8534C5.59125 19.2581 5.3325 18.6356 5.1375 17.9925L3.60563 17.8753C2.63531 17.8022 1.875 16.9809 1.875 16.0069V13.9931C1.875 13.0191 2.63531 12.1978 3.60656 12.1237L5.13844 12.0066C5.33344 11.3625 5.59219 10.74 5.91094 10.1456L4.90969 8.97656C4.27594 8.23781 4.31906 7.12031 5.00813 6.43031L6.43125 5.00625C7.12031 4.31719 8.23875 4.275 8.9775 4.90875L10.1456 5.90906C10.7409 5.59031 11.3634 5.33156 12.0066 5.13656L12.1247 3.60375C12.1988 2.63531 13.02 1.875 13.9931 1.875H15C15.5175 1.875 15.9375 2.29406 15.9375 2.8125C15.9375 3.33094 15.5175 3.75 15 3.75H13.9931L13.8244 5.94469C13.7925 6.35344 13.4991 6.69375 13.1006 6.78562C12.1941 6.99469 11.3316 7.35188 10.5375 7.84969C10.1916 8.06813 9.7425 8.03531 9.43031 7.76625L7.75688 6.33281L6.33375 7.75781L7.76719 9.43031C8.03438 9.74156 8.06719 10.1906 7.84969 10.5375C7.35281 11.3325 6.99469 12.195 6.78563 13.1006C6.69375 13.5 6.3525 13.7934 5.94375 13.8244L3.75 13.9931V16.0069L5.94375 16.1756C6.3525 16.2066 6.69375 16.5009 6.78563 16.8994C6.99469 17.8059 7.35188 18.6684 7.84969 19.4625C8.06719 19.8094 8.03344 20.2584 7.76719 20.5697L6.33375 22.2422L7.75781 23.6672L9.43031 22.2337C9.7425 21.9656 10.1916 21.9328 10.5375 22.1503C11.3325 22.6472 12.195 23.0053 13.1006 23.2144C13.5 23.3072 13.7934 23.6475 13.8244 24.0553L13.9931 26.25H16.0059C16.0453 25.7344 16.4944 25.3491 17.0128 25.3875C17.5294 25.4269 17.9156 25.8778 17.8753 26.3944C17.8013 27.3647 16.98 28.125 16.0069 28.125Z" fill="#1E538F"/>
<path d="M8.4375 15C8.4375 11.7806 10.7381 9.05906 13.9078 8.52844C14.4169 8.4375 14.9025 8.78719 14.9869 9.29812C15.0722 9.80906 14.7281 10.2919 14.2172 10.3772C11.955 10.7569 10.3125 12.7012 10.3125 15C10.3125 18.2372 13.5281 20.4947 16.5628 19.4212C17.0484 19.2478 17.5866 19.5028 17.76 19.9912C17.9325 20.4797 17.6775 21.015 17.1891 21.1875C12.9206 22.6978 8.4375 19.515 8.4375 15Z" fill="#1E538F"/>
</svg>
