<svg width="50" height="50" viewBox="0 0 50 50" fill="none" xmlns="http://www.w3.org/2000/svg">
<g clip-path="url(#clip0_4638_6)">
<path d="M16.2109 0H7.42188C6.61221 0 5.95703 0.655176 5.95703 1.46484C5.95703 2.27451 6.61221 2.92969 7.42188 2.92969H16.2109C17.0206 2.92969 17.6758 2.27451 17.6758 1.46484C17.6758 0.655176 17.0206 0 16.2109 0Z" fill="#2196F3"/>
<path d="M0 7.32422C0 8.13389 0.655176 8.78906 1.46484 8.78906H10.3516C11.1612 8.78906 11.8164 8.13389 11.8164 7.32422C11.8164 6.51455 11.1612 5.85938 10.3516 5.85938H1.46484C0.655176 5.85938 0 6.51455 0 7.32422Z" fill="#2196F3"/>
<path d="M48.5352 2.92969H47.0703V1.46484C47.0703 0.655176 46.4151 0 45.6055 0C44.7958 0 44.1406 0.655176 44.1406 1.46484V2.92969H42.6758C41.8661 2.92969 41.2109 3.58486 41.2109 4.39453C41.2109 5.2042 41.8661 5.85938 42.6758 5.85938H44.1406V7.32422C44.1406 8.13389 44.7958 8.78906 45.6055 8.78906C46.4151 8.78906 47.0703 8.13389 47.0703 7.32422V5.85938H48.5352C49.3448 5.85938 50 5.2042 50 4.39453C50 3.58486 49.3448 2.92969 48.5352 2.92969Z" fill="#2196F3"/>
<path d="M38.1836 47.0703H39.6484C40.4581 47.0703 41.1133 46.4151 41.1133 45.6055C41.1133 44.7958 40.4581 44.1406 39.6484 44.1406H38.1836V42.6758C38.1836 41.8661 37.5284 41.2109 36.7188 41.2109C35.9091 41.2109 35.2539 41.8661 35.2539 42.6758V44.1406H33.7891C32.9794 44.1406 32.3242 44.7958 32.3242 45.6055C32.3242 46.4151 32.9794 47.0703 33.7891 47.0703H35.2539V48.5352C35.2539 49.3448 35.9091 50 36.7188 50C37.5284 50 38.1836 49.3448 38.1836 48.5352V47.0703Z" fill="#2196F3"/>
<path d="M39.9385 30.6904C40.7964 29.7349 40.7964 28.3435 39.9385 27.4854C39.0804 26.6274 37.689 26.6274 36.8311 27.4854L31.1341 33.1823C30.562 33.7544 29.6346 33.7544 29.0625 33.1823C28.4904 32.6103 28.4904 31.6826 29.0625 31.1105L36.8311 23.3422C37.689 22.4841 37.689 21.0927 36.8311 20.2348C35.973 19.3767 34.5815 19.3767 33.7236 20.2348L25.9551 28.0033C25.383 28.5752 24.4556 28.5752 23.8835 28.0033C23.3114 27.4312 23.3114 26.5036 23.8835 25.9315L33.7236 16.0915C34.5815 15.2336 34.5815 13.8422 33.7236 12.9843C32.8655 12.1262 31.4741 12.1262 30.6162 12.9843L20.7761 22.8242C20.204 23.3963 19.2766 23.3963 18.7045 22.8242C18.1324 22.2521 18.1324 21.3247 18.7045 20.7526L26.4731 12.9843C27.331 12.1262 27.331 10.7348 26.4731 9.87686C25.6149 9.01875 24.2235 9.01875 23.3656 9.87686L8.59971 24.6303L8.06778 15.5062C8.0293 14.782 7.72588 14.1002 7.21309 13.5874C6.0712 12.4453 4.21192 12.4453 3.06993 13.5874C2.52364 14.1337 2.23321 14.8446 2.21309 15.5871C0.894929 32.2365 -2.89843 38.6933 4.10557 45.6973C9.82618 51.4179 19.1011 51.4179 24.8217 45.7949L39.9385 30.6904Z" fill="#2196F3"/>
<path d="M46.9545 32.0493C50.9624 28.0414 50.9635 21.5543 46.9545 17.4505L34.5248 5.02084C30.6538 1.24467 23.8961 1.24467 20.0251 5.1185L15.7832 9.35883C14.1424 11.0003 13.4771 13.2318 13.723 15.377L21.2936 7.80532C22.262 6.83686 23.5495 6.30327 24.9185 6.30327C26.2889 6.30327 27.5764 6.83686 28.5448 7.80532C29.1585 8.41899 29.5977 9.16 29.8366 9.96967C30.5505 9.60493 31.3458 9.41176 32.1698 9.41176C33.5389 9.41176 34.8249 9.94389 35.7933 10.911C36.7632 11.8809 37.2968 13.1683 37.2968 14.5373C37.2968 15.3627 37.1036 16.1582 36.7374 16.8719C37.5485 17.1108 38.2896 17.5499 38.9032 18.1651C40.5125 19.773 40.8259 22.1949 39.8431 24.1217C40.6527 24.3606 41.3952 24.7984 42.0089 25.4121C44.0102 27.412 44.0102 30.6664 42.0104 32.6648L36.3568 38.3183C38.6029 38.6824 40.9853 38.0186 42.7142 36.2897L46.9545 32.0493Z" fill="#2196F3"/>
</g>
<defs>
<clipPath id="clip0_4638_6">
<rect width="50" height="50" fill="white"/>
</clipPath>
</defs>
</svg>
