<svg width="20" height="20" viewBox="0 0 20 20" fill="none" xmlns="http://www.w3.org/2000/svg">
<path d="M15.9429 3.1427H17.1153V4.31515H15.9429V3.1427Z" fill="#0084FE"/>
<path d="M18.2881 3.1427H19.4605V4.31515H18.2881V3.1427Z" fill="#0084FE"/>
<path d="M14.0112 2.48669L14.8402 1.65777L15.6691 2.48669L14.8402 3.31562L14.0112 2.48669Z" fill="#0084FE"/>
<path d="M15.6689 0.828857L16.4979 -6.50485e-05L17.3268 0.828857L16.4979 1.65778L15.6689 0.828857Z" fill="#0084FE"/>
<path d="M14.0107 4.97351L14.8397 4.14459L15.6686 4.97351L14.8397 5.80243L14.0107 4.97351Z" fill="#0084FE"/>
<path d="M15.6685 6.63123L16.4974 5.8023L17.3263 6.63123L16.4974 7.46015L15.6685 6.63123Z" fill="#0084FE"/>
<path d="M5.13123 1.93298C3.96968 1.93298 2.95188 2.71051 2.64641 3.83122L2.3125 5.05643V5.52482H4.13582V6.95443H7.16863V5.52482H9.48016V1.93298H5.13123Z" fill="#8E8BFF"/>
<path d="M10.6523 1.93298H12.5935V5.52482H10.6523V1.93298Z" fill="#0084FE"/>
<path d="M9.47998 7.57571L11.2162 9.31196L12.0452 8.48292L10.6524 7.09008V5.5249H9.47998V7.57571Z" fill="#0084FE"/>
<path d="M7.16846 8.96369V8.12683H4.13564V8.96369C4.13564 9.96226 3.59506 10.8826 2.72288 11.3689L1 12.3295V19.9999H10.3041V12.3295L8.58122 11.3689C7.70903 10.8826 7.16846 9.96226 7.16846 8.96369V8.96369ZM8.3871 18.0829H2.917V13.37H8.3871V18.0829Z" fill="#0084FE"/>
<path d="M4.08984 14.5425H7.21505V16.9106H4.08984V14.5425Z" fill="#0084FE"/>
</svg>
