<svg width="20" height="20" viewBox="0 0 20 20" fill="none" xmlns="http://www.w3.org/2000/svg">
<path d="M19.414 0H0.585937C0.262343 0 0 0.262343 0 0.585937V8.7448C0 9.06839 0.262343 9.33073 0.585937 9.33073H2.31012V6.86199C2.31012 5.89273 3.09867 5.10417 4.06793 5.10417H15.9321C16.9014 5.10417 17.6899 5.89273 17.6899 6.86199V9.33073H19.414C19.7376 9.33073 20 9.06839 20 8.7448V0.585937C20 0.262343 19.7376 0 19.414 0V0Z" fill="#C09600"/>
<path d="M14.6488 19.0923L9.88583 14.3289C9.49951 13.9424 9.31673 13.4098 9.38439 12.8676C9.45189 12.3262 9.75915 11.8558 10.2274 11.5768C10.864 11.1975 11.5939 10.997 12.338 10.997C13.4403 10.997 14.4766 11.4262 15.2559 12.2056C15.3432 12.2928 15.8945 12.8441 16.5172 13.4669L16.5179 6.86194C16.5179 6.53834 16.2556 6.276 15.932 6.276H4.06787C3.74428 6.276 3.48193 6.53834 3.48193 6.86194V17.4078C3.48193 17.5703 3.54646 17.7261 3.66135 17.841L5.64869 19.8283C5.87752 20.0572 6.24849 20.0572 6.47732 19.8283L8.03146 18.2742L9.5856 19.8283C9.81443 20.0572 10.1854 20.0572 10.4142 19.8283L11.9684 18.2742L13.5225 19.8283C13.7513 20.0572 14.1223 20.0572 14.3511 19.8283L14.6528 19.5267C14.6504 19.4894 14.6488 19.4519 14.6488 19.414V19.0923H14.6488Z" fill="#61BB37"/>
<path d="M17.6901 10.5027L17.6894 14.2078C17.6894 14.5577 17.4787 14.8731 17.1555 15.0071C16.832 15.141 16.46 15.0669 16.2127 14.8195C15.4058 14.0126 14.5392 13.146 14.4276 13.0344C13.4513 12.0581 11.9617 11.9078 10.8275 12.5836C10.5001 12.7787 10.4454 13.2309 10.7148 13.5004L15.821 18.6071V19.4141C15.821 19.7377 16.0833 20.0001 16.4069 20.0001H19.4143C19.5356 20.0001 19.6484 19.9632 19.7419 19.9C19.7886 19.8684 19.8306 19.8302 19.8664 19.7868C19.9022 19.7434 19.9319 19.6947 19.9541 19.6422C19.9838 19.5721 20.0002 19.495 20.0002 19.4141V12.8132C20.0002 11.5383 18.9663 10.5027 17.6901 10.5027Z" fill="#F1C27D"/>
</svg>
