<svg width="20" height="20" viewBox="0 0 20 20" fill="none" xmlns="http://www.w3.org/2000/svg">
<path d="M19.4138 13.8153C18.2249 13.8153 17.1082 13.3566 16.2693 12.5236C15.4307 11.6911 14.969 10.5822 14.969 9.40137C14.969 9.07773 14.7065 8.81543 14.383 8.81543C14.0594 8.81543 13.7971 9.07773 13.7971 9.40137C13.7971 10.5822 13.3352 11.6911 12.4966 12.5236C11.6577 13.3566 10.541 13.8153 9.35205 13.8153C9.02841 13.8153 8.76611 14.0776 8.76611 14.4012C8.76611 14.7249 9.02841 14.9872 9.35205 14.9872C11.8029 14.9872 13.7971 16.9731 13.7971 19.414C13.7971 19.7377 14.0594 20 14.383 20C14.7065 20 14.969 19.7377 14.969 19.414C14.969 16.9731 16.963 14.9872 19.4138 14.9872C19.7375 14.9872 19.9998 14.7249 19.9998 14.4012C19.9998 14.0776 19.7375 13.8153 19.4138 13.8153Z" fill="#5DAE41"/>
<path d="M8.01697 9.23389C6.29135 9.23389 4.88739 7.8403 4.88739 6.1272C4.88739 5.80371 4.62509 5.54126 4.30145 5.54126C3.97781 5.54126 3.71552 5.80371 3.71552 6.1272C3.71552 7.8403 2.31155 9.23389 0.585938 9.23389C0.262299 9.23389 0 9.49634 0 9.81982C0 10.1435 0.262299 10.4058 0.585938 10.4058C2.31155 10.4058 3.71552 11.8038 3.71552 13.5221C3.71552 13.8456 3.97781 14.108 4.30145 14.108C4.62509 14.108 4.88739 13.8456 4.88739 13.5221C4.88739 11.8038 6.29135 10.4058 8.01697 10.4058C8.34061 10.4058 8.60291 10.1435 8.60291 9.81982C8.60291 9.49634 8.34061 9.23389 8.01697 9.23389Z" fill="#5DAE41"/>
<path d="M8.97021 4.04907C10.2393 4.04907 11.2719 5.0737 11.2719 6.33301C11.2719 6.65649 11.5341 6.91895 11.8578 6.91895C12.1814 6.91895 12.4437 6.65649 12.4437 6.33301C12.4437 5.06958 13.4763 4.04175 14.7454 4.04175C15.069 4.04175 15.3313 3.7793 15.3313 3.45581C15.3313 3.13217 15.069 2.86987 14.7454 2.86987C13.4763 2.86987 12.4437 1.84525 12.4437 0.585938C12.4437 0.262299 12.1814 0 11.8578 0C11.5341 0 11.2719 0.262299 11.2719 0.585938C11.2719 1.84937 10.2393 2.8772 8.97021 2.8772C8.64658 2.8772 8.38428 3.1395 8.38428 3.46313C8.38428 3.78677 8.64658 4.04907 8.97021 4.04907Z" fill="#5DAE41"/>
</svg>
