<svg width="20" height="20" viewBox="0 0 20 20" fill="none" xmlns="http://www.w3.org/2000/svg">
<g clip-path="url(#clip0_4126_34)">
<path d="M12.8658 10.8038L10.5774 11.1852C10.1945 11.2491 9.80603 11.2491 9.42304 11.1852L7.13473 10.8038C5.76985 10.5763 4.52832 11.6298 4.52832 13.0118C4.52832 14.3931 5.76896 15.4472 7.13473 15.2197C9.64136 14.8019 9.62049 14.7904 10.0002 14.7904C10.3862 14.7904 10.3785 14.8052 12.8658 15.2197C14.2282 15.447 15.4721 14.3961 15.4721 13.0118C15.4721 11.6305 14.2315 10.5763 12.8658 10.8038Z" fill="#FAB607"/>
<path d="M16.8187 6.26721H3.18134C1.42715 6.26721 0 7.69436 0 9.44855V16.5747C0 18.3289 1.42715 19.7561 3.18134 19.7561H16.8187C18.5729 19.7561 20 18.3289 20 16.5747V9.44855C20 7.69436 18.5729 6.26721 16.8187 6.26721ZM12.6563 16.4748L10.368 16.0934C10.1238 16.0527 9.87618 16.0527 9.63203 16.0934L7.34367 16.4748C6.32369 16.6449 5.28615 16.359 4.49709 15.6905C2.8439 14.2901 2.84013 11.7364 4.49709 10.3327C5.28615 9.66429 6.32373 9.37839 7.34367 9.54844L9.63198 9.92982C9.87618 9.9705 10.1237 9.9705 10.368 9.92982L12.6563 9.54844C14.7937 9.19243 16.7444 10.8401 16.7444 13.0116C16.7444 15.187 14.7898 16.8305 12.6563 16.4748Z" fill="#FC1885"/>
<path d="M2.03606 5.1644C3.13536 5.1644 4.02969 4.27006 4.02969 3.17076C4.02969 2.07146 3.13536 1.17712 2.03606 1.17712C0.935949 1.17712 0 2.0662 0 3.17076C0 4.27528 0.935907 5.1644 2.03606 5.1644Z" fill="#FAB607"/>
<path d="M10.8589 4.66596C12.1453 4.66596 13.1918 3.61939 13.1918 2.33298C13.1918 1.04657 12.1453 0 10.8589 0C9.57245 0 8.52588 1.04657 8.52588 2.33298C8.52588 3.61939 9.57245 4.66596 10.8589 4.66596Z" fill="#FAB607"/>
<path d="M6.50237 4.31308C6.57317 4.65412 6.8958 4.87918 7.25062 4.81276C7.59709 4.74052 7.81576 4.41416 7.7503 4.06451C7.67204 3.68924 7.29915 3.47346 6.9414 3.5801C6.60095 3.69106 6.44498 4.00822 6.50237 4.31308V4.31308Z" fill="#FC1885"/>
<path d="M4.80558 1.25903C4.87701 1.60329 5.20218 1.82454 5.55383 1.75871C5.89966 1.6866 6.11909 1.36075 6.05351 1.01046C5.97389 0.628741 5.59306 0.420003 5.24503 0.526048C4.91688 0.63065 4.74628 0.943991 4.80558 1.25903V1.25903Z" fill="#FC1885"/>
</g>
<defs>
<clipPath id="clip0_4126_34">
<rect width="20" height="20" fill="white"/>
</clipPath>
</defs>
</svg>
