<svg width="30" height="30" viewBox="0 0 30 30" fill="none" xmlns="http://www.w3.org/2000/svg">
<g clip-path="url(#clip0_1799_151)">
<path d="M14.5764 0.0968994L1.14264 6.58217C0.97418 6.6635 0.867188 6.83401 0.867188 7.02104V22.9789C0.867188 23.166 0.974238 23.3365 1.14264 23.4178L14.5764 29.9031C14.8441 30.0323 15.1562 30.0323 15.4239 29.9031L28.8576 23.4178C29.0261 23.3365 29.133 23.166 29.133 22.9789V7.02104C29.133 6.83401 29.026 6.6635 28.8576 6.58217L15.4239 0.0968994C15.1562 -0.0322998 14.8441 -0.0322998 14.5764 0.0968994Z" fill="#FFE17D"/>
<path d="M0.948223 6.75427C0.897012 6.83226 0.867188 6.92408 0.867188 7.02105V22.9789C0.867188 23.166 0.974238 23.3365 1.14264 23.4178L14.5764 29.903C14.7102 29.9677 14.8552 29.9999 15.0001 29.9999V13.538L0.948223 6.75427Z" fill="#FFC350"/>
<path d="M29.0519 6.75427C29.1031 6.83226 29.1329 6.92408 29.1329 7.02105V22.9789C29.1329 23.166 29.0259 23.3365 28.8575 23.4178L15.4237 29.903C15.2899 29.9677 15.145 30 15 30V13.538L29.0519 6.75427Z" fill="#FFD164"/>
<path d="M4.88715 22.1283C4.81626 22.1283 4.74389 22.1126 4.67586 22.0798L2.60182 21.0785C2.35913 20.9614 2.25776 20.6702 2.37483 20.4279C2.49143 20.1857 2.78364 20.0848 3.0254 20.2009L5.09944 21.2023C5.34213 21.3194 5.4435 21.6106 5.32643 21.8529C5.2427 22.027 5.0685 22.1283 4.88715 22.1283Z" fill="#FFE17D"/>
<path d="M6.79612 20.8857C6.72522 20.8857 6.65285 20.87 6.58483 20.8372L2.60467 18.9159C2.36244 18.7989 2.26061 18.5076 2.37768 18.2654C2.49428 18.0236 2.78696 17.9223 3.02825 18.0384L7.00834 19.9597C7.25057 20.0767 7.35241 20.368 7.23534 20.6102C7.15166 20.7843 6.97746 20.8857 6.79612 20.8857Z" fill="#FFF6D8"/>
<path d="M24.2899 9.04532L10.1886 2.23303L6.47144 4.03479L20.6044 10.8576L24.2899 9.04532Z" fill="#FF8087"/>
<path d="M20.6045 10.8576V16.1432C20.6045 16.3228 20.7923 16.4407 20.9541 16.3626L24.0146 14.8852C24.183 14.8038 24.29 14.6333 24.29 14.4463V9.04535L20.6045 10.8576Z" fill="#E6646E"/>
</g>
<defs>
<clipPath id="clip0_1799_151">
<rect width="30" height="30" fill="white"/>
</clipPath>
</defs>
</svg>
