<svg width="30" height="30" viewBox="0 0 30 30" fill="none" xmlns="http://www.w3.org/2000/svg">
<g clip-path="url(#clip0_4184_3013)">
<path d="M27.6064 27.1807H2.39353C2.16836 27.1807 1.98578 26.9981 1.98578 26.7729V15.4927C1.98578 15.2675 2.1683 15.085 2.39353 15.085H27.6064C27.8315 15.085 28.0141 15.2675 28.0141 15.4927V26.7729C28.0141 26.9981 27.8315 27.1807 27.6064 27.1807Z" fill="#45BAAC"/>
<g opacity="0.4">
<path d="M18.1939 15.085H5.19199V27.1804H18.1939V15.085Z" fill="#1B9FFF"/>
</g>
<path d="M17.1862 27.1836H6.24648V8.02138C6.24648 7.66438 6.53592 7.375 6.89286 7.375H16.54C16.8969 7.375 17.1863 7.66438 17.1863 8.02138L17.1862 27.1836Z" fill="#A15282"/>
<path d="M17.1862 27.1836H6.24648V8.02138C6.24648 7.66438 6.53592 7.375 6.89286 7.375H16.54C16.8969 7.375 17.1863 7.66438 17.1863 8.02138L17.1862 27.1836Z" fill="#1E538F"/>
<path d="M1.98579 25.3767L0.601518 25.8966C0.523 25.9261 0.43927 25.8681 0.43927 25.7842V16.4815C0.43927 16.3997 0.519309 16.3419 0.597004 16.3674L1.98585 16.8261L1.98579 25.3767Z" fill="#8791AA"/>
<path d="M1.05849 25.7286L1.99553 25.3767V16.8261L1.05849 16.5166V25.7286Z" fill="#5A71AB"/>
<path d="M28.0141 16.8889L29.3984 16.3691C29.4769 16.3396 29.5607 16.3977 29.5607 16.4815V25.7842C29.5607 25.866 29.4806 25.9238 29.403 25.8982L28.0141 25.4395V16.8889Z" fill="#8791AA"/>
<path d="M28.7023 16.6309L28.0141 16.8893V25.4398L28.7023 25.6671V16.6309Z" fill="#5A71AB"/>
<path d="M17.1862 8.96964L18.5705 8.68446C18.649 8.66826 18.7327 8.70006 18.7327 8.74608V13.8496C18.7327 13.8944 18.6527 13.9262 18.575 13.9121L17.1862 13.6604L17.1862 8.96964Z" fill="#8791AA"/>
<path d="M18.0452 8.79248L17.1862 8.96948V13.6602L18.0452 13.8159V8.79248Z" fill="#5A71AB"/>
<path d="M27.2431 27.1831H2.64551V28.781H27.2431V27.1831Z" fill="#1B9FFF"/>
<path d="M15.8684 1.40929C15.8684 1.30406 15.7831 1.21875 15.6779 1.21875H13.3041C11.3203 1.21875 9.71208 2.82697 9.71208 4.81077V7.37504H13.3041V4.98356C13.3041 4.88812 13.3814 4.81077 13.4769 4.81077H15.6779C15.7831 4.81077 15.8684 4.72546 15.8684 4.62023V1.40929Z" fill="#8791AA"/>
<path d="M14.6908 1.21875H13.8122V4.81054H14.6908V1.21875Z" fill="#5A71AB"/>
<path d="M11.5178 23.2177C12.1323 23.2177 12.6305 22.7195 12.6305 22.1049C12.6305 21.4904 12.1323 20.9922 11.5178 20.9922C10.9032 20.9922 10.405 21.4904 10.405 22.1049C10.405 22.7195 10.9032 23.2177 11.5178 23.2177Z" fill="#FFD764"/>
<path d="M26.1421 17.2398C26.3847 17.2398 26.5814 17.0431 26.5814 16.8006C26.5814 16.558 26.3847 16.3613 26.1421 16.3613C25.8995 16.3613 25.7029 16.558 25.7029 16.8006C25.7029 17.0431 25.8995 17.2398 26.1421 17.2398Z" fill="white"/>
<path d="M24.5414 17.2398C24.7839 17.2398 24.9806 17.0431 24.9806 16.8006C24.9806 16.558 24.7839 16.3613 24.5414 16.3613C24.2988 16.3613 24.1021 16.558 24.1021 16.8006C24.1021 17.0431 24.2988 17.2398 24.5414 17.2398Z" fill="white"/>
<path d="M22.8626 17.2398C23.1052 17.2398 23.3018 17.0431 23.3018 16.8006C23.3018 16.558 23.1052 16.3613 22.8626 16.3613C22.6201 16.3613 22.4234 16.558 22.4234 16.8006C22.4234 17.0431 22.6201 17.2398 22.8626 17.2398Z" fill="white"/>
<path d="M3.67685 17.2398C3.91942 17.2398 4.11607 17.0431 4.11607 16.8006C4.11607 16.558 3.91942 16.3613 3.67685 16.3613C3.43428 16.3613 3.23763 16.558 3.23763 16.8006C3.23763 17.0431 3.43428 17.2398 3.67685 17.2398Z" fill="white"/>
<path d="M28.4534 26.7728V26.0471L29.2651 26.3152C29.3222 26.334 29.3813 26.3433 29.4402 26.3433C29.5565 26.3433 29.6719 26.3071 29.7683 26.2374C29.9134 26.1326 30 25.9631 30 25.7841V16.4814C30 16.298 29.91 16.1261 29.7592 16.0217C29.6084 15.9173 29.416 15.8934 29.2441 15.9578L28.4534 16.2547V15.4926C28.4534 15.0257 28.0735 14.6457 27.6065 14.6457H22.6002C22.3576 14.6457 22.161 14.8423 22.161 15.0849C22.161 15.3275 22.3576 15.5241 22.6002 15.5241H27.5749V16.8888V20.6934H17.6255V15.5241H20.7224C20.965 15.5241 21.1617 15.3275 21.1617 15.0849C21.1617 14.8424 20.965 14.6457 20.7224 14.6457H17.6255V14.186L18.4968 14.3438C18.5356 14.3509 18.5747 14.3543 18.6134 14.3543C18.7553 14.3543 18.8923 14.3079 18.9949 14.2223C19.1074 14.1282 19.1721 13.9922 19.1721 13.8491V8.74557C19.1721 8.60013 19.1057 8.46261 18.9901 8.36841C18.8555 8.25873 18.6655 8.21589 18.482 8.25375L17.6255 8.43015V8.02113C17.6255 7.42251 17.1385 6.93555 16.54 6.93555H13.7434V5.24982H15.6779C16.0252 5.24982 16.3077 4.96734 16.3077 4.62005V1.40906C16.3077 1.06178 16.0252 0.779297 15.6779 0.779297H13.3042C13.0616 0.779297 12.865 0.975941 12.865 1.21851C12.865 1.46109 13.0616 1.65773 13.3042 1.65773H13.8125V4.37126H13.477C13.1395 4.37126 12.865 4.64583 12.865 4.98327V6.93555H10.1513V4.8106C10.1513 3.64793 10.7881 2.58316 11.8131 2.03186C12.0268 1.91695 12.1068 1.65059 11.9919 1.43695C11.877 1.22332 11.6106 1.14334 11.397 1.25819C10.0868 1.96289 9.27288 3.32408 9.27288 4.8106V6.93567H6.8928C6.29418 6.93567 5.80721 7.42263 5.80721 8.02125V14.6458H2.39355C1.92656 14.6458 1.54658 15.0258 1.54658 15.4928V16.2186L0.73482 15.9505C0.564901 15.8943 0.376816 15.9234 0.231738 16.0283C0.0866016 16.133 0 16.3024 0 16.4814V25.7841C0 25.9675 0.09 26.1394 0.240761 26.2439C0.335624 26.3096 0.447011 26.3433 0.559335 26.3433C0.625548 26.3433 0.692106 26.3316 0.755856 26.3078L1.54652 26.0108V26.7728C1.54652 27.1754 1.829 27.5126 2.20594 27.5982V28.3421H0.449003C0.206425 28.3421 0.00978516 28.5387 0.00978516 28.7813C0.00978516 29.0238 0.206425 29.2205 0.449003 29.2205H2.64521H27.2428H29.5607C29.8033 29.2205 29.9999 29.0238 29.9999 28.7813C29.9999 28.5387 29.8033 28.3421 29.5607 28.3421H27.682V27.616C28.1137 27.5776 28.4534 27.2144 28.4534 26.7728ZM14.6909 1.65779H15.4292V4.37132H14.6909V1.65779ZM29.1214 16.9422V25.3426L28.4534 25.1219V17.1932L29.1214 16.9422ZM27.5749 21.572V25.4395V26.7414H17.6255V21.5721L27.5749 21.572ZM18.2935 9.18951V13.4143L17.6254 13.2933V9.32715L18.2935 9.18951ZM6.68568 8.02125C6.68568 7.90701 6.77862 7.81419 6.8928 7.81419H9.71208H13.3041H16.5399C16.6541 7.81419 16.747 7.90707 16.747 8.02125V8.96919V13.6601V16.6273H9.71214C9.46956 16.6273 9.27294 16.8239 9.27294 17.0665C9.27294 17.3091 9.46956 17.5058 9.71214 17.5058H16.747V26.7413H6.68568V17.5058H7.68186C7.92444 17.5058 8.12106 17.3091 8.12106 17.0666C8.12106 16.824 7.92444 16.6274 7.68186 16.6274H6.68568C6.68568 16.6273 6.68568 8.02125 6.68568 8.02125ZM2.42501 15.5242H5.80721V20.6935H2.42501V16.8261V15.5242ZM0.878496 25.3233V16.923L1.54658 17.1437V25.0725L0.878496 25.3233ZM3.08443 28.342V27.6198H3.23759C3.48017 27.6198 3.67681 27.4232 3.67681 27.1806C3.67681 26.938 3.48017 26.7414 3.23759 26.7414H2.42501V25.3767V21.572H5.80721V26.7413H5.19227C4.9497 26.7413 4.75306 26.9379 4.75306 27.1805C4.75306 27.4231 4.9497 27.6198 5.19227 27.6198H6.19728C6.21342 27.6216 6.2298 27.6227 6.24642 27.6227H17.1862C17.2028 27.6227 17.2192 27.6216 17.2354 27.6198H26.8035V28.3419L3.08443 28.342Z" fill="white"/>
<path d="M12.4842 9.73783H15.5094C15.752 9.73783 15.9486 9.54121 15.9486 9.29863C15.9486 9.05605 15.752 8.85938 15.5094 8.85938H12.4842C12.2416 8.85938 12.045 9.05605 12.045 9.29863C12.045 9.54121 12.2416 9.73783 12.4842 9.73783Z" fill="white"/>
<path d="M11.5179 23.6567C12.3736 23.6567 13.0699 22.9604 13.0699 22.1047C13.0699 21.2489 12.3736 20.5527 11.5179 20.5527C10.6621 20.5527 9.96594 21.2489 9.96594 22.1047C9.96594 22.9604 10.6621 23.6567 11.5179 23.6567ZM11.5179 21.4312C11.8892 21.4312 12.1913 21.7334 12.1913 22.1048C12.1913 22.4761 11.8892 22.7782 11.5179 22.7782C11.1465 22.7782 10.8443 22.476 10.8443 22.1048C10.8444 21.7333 11.1465 21.4312 11.5179 21.4312Z" fill="white"/>
</g>
<defs>
<clipPath id="clip0_4184_3013">
<rect width="30" height="30" fill="white"/>
</clipPath>
</defs>
</svg>
