<svg width="50" height="50" viewBox="0 0 50 50" fill="none" xmlns="http://www.w3.org/2000/svg">
<g clip-path="url(#clip0_5286_19)">
<path d="M19.1592 17.7082C21.6582 18.4287 23.2002 22.3427 23.5828 23.7879C23.9763 25.2379 26.0231 25.24 26.4172 23.7879C26.795 22.3427 28.3261 18.4333 30.8408 17.7082C37.153 15.8459 37.61 6.84126 31.5814 4.28403C29.1822 -1.41157 20.8158 -1.40864 18.4186 4.28403C12.3886 6.84419 12.8476 15.8446 19.1592 17.7082ZM19.9709 6.83774C20.4548 6.69819 20.8332 6.31978 20.9727 5.83579C22.174 1.97026 27.8278 1.9728 29.0274 5.83579C29.167 6.31978 29.5453 6.69819 30.0293 6.83774C33.8954 8.04009 33.8929 13.6923 30.0293 14.8931C28.0431 15.4658 26.3514 17.0294 25.0001 19.5416C23.6487 17.0295 21.957 15.4659 19.9709 14.8931C16.1047 13.6907 16.1072 8.03853 19.9709 6.83774Z" fill="#1E538F"/>
<path d="M48.5352 23.5216H42.2591C41.4501 23.5216 40.7942 24.1774 40.7942 24.9864V25.0906H29.707C29.3185 25.0906 28.9459 25.245 28.6713 25.5197L25 29.1908L21.3287 25.5196C21.0541 25.2449 20.6814 25.0905 20.293 25.0905H9.20576V24.9863C9.20576 24.1773 8.5499 23.5215 7.74092 23.5215H1.46484C0.655859 23.5215 0 24.1773 0 24.9863V48.5215C0 49.3305 0.655859 49.9863 1.46484 49.9863H7.74092C8.5499 49.9863 9.20576 49.3305 9.20576 48.5215V48.4173H40.7943V48.5215C40.7943 49.3305 41.4502 49.9863 42.2592 49.9863H48.5352C49.3441 49.9863 50 49.3305 50 48.5215V24.9863C50 24.1774 49.3441 23.5216 48.5352 23.5216ZM6.27607 47.0567H2.92969V26.4513H6.27607V47.0567ZM40.7942 45.4877H9.20576V28.0203H19.6862L22.9284 31.2624L20.8262 33.3646C20.254 33.9368 20.2546 34.8647 20.8262 35.4363L22.9284 37.5386L20.8262 39.6407C20.2541 40.2128 20.2541 41.1402 20.8262 41.7123C21.3981 42.2844 22.3257 42.2843 22.8978 41.7123L25 39.6101L27.1023 41.7123C27.6745 42.2845 28.6021 42.2842 29.1739 41.7123C29.746 41.1402 29.746 40.2128 29.1739 39.6407L23.9337 34.4005L30.3139 28.0203H40.7943V45.4877H40.7942ZM47.0703 47.0567H43.7239V26.4513H47.0703V47.0567Z" fill="#1E538F"/>
</g>
<defs>
<clipPath id="clip0_5286_19">
<rect width="50" height="50" fill="white"/>
</clipPath>
</defs>
</svg>
