<svg width="50" height="50" viewBox="0 0 50 50" fill="none" xmlns="http://www.w3.org/2000/svg">
<path d="M39.0625 0H10.9375C8.35234 0 6.25 2.10234 6.25 4.6875V45.3125C6.25 47.8977 8.35234 50 10.9375 50H39.0625C41.6477 50 43.75 47.8977 43.75 45.3125V4.6875C43.75 2.10234 41.6477 0 39.0625 0ZM10.9375 3.125H39.0625C39.9242 3.125 40.625 3.82578 40.625 4.6875V15.625H9.375V4.6875C9.375 3.82578 10.0758 3.125 10.9375 3.125ZM39.0625 46.875H10.9375C10.0758 46.875 9.375 46.1742 9.375 45.3125V18.75H40.625V45.3125C40.625 46.1742 39.9242 46.875 39.0625 46.875Z" fill="#1E538F"/>
<path d="M27.9914 32.0312H29.6875C30.55 32.0312 31.25 31.3312 31.25 30.4688C31.25 29.6063 30.55 28.9062 29.6875 28.9062H28.9062V28.125C28.9062 27.2625 28.2062 26.5625 27.3438 26.5625C26.4813 26.5625 25.7812 27.2625 25.7812 28.125V29.8219L25 30.6031L24.2188 29.8219V28.125C24.2188 27.2625 23.5187 26.5625 22.6562 26.5625C21.7938 26.5625 21.0938 27.2625 21.0938 28.125V28.9062H20.3125C19.45 28.9062 18.75 29.6063 18.75 30.4688C18.75 31.3312 19.45 32.0312 20.3125 32.0312H22.0094L22.7906 32.8125L22.0094 33.5938H20.3125C19.45 33.5938 18.75 34.2938 18.75 35.1562C18.75 36.0187 19.45 36.7188 20.3125 36.7188H21.0938V37.5C21.0938 38.3625 21.7938 39.0625 22.6562 39.0625C23.5187 39.0625 24.2188 38.3625 24.2188 37.5V35.8031L25 35.0219L25.7812 35.8031V37.5C25.7812 38.3625 26.4813 39.0625 27.3438 39.0625C28.2062 39.0625 28.9062 38.3625 28.9062 37.5V36.7188H29.6875C30.55 36.7188 31.25 36.0187 31.25 35.1562C31.25 34.2938 30.55 33.5938 29.6875 33.5938H27.9906L27.2094 32.8125L27.9914 32.0312Z" fill="#1E538F"/>
<path d="M12.5 12.5C13.3625 12.5 14.0625 11.8 14.0625 10.9375V7.8125C14.0625 6.95 13.3625 6.25 12.5 6.25C11.6375 6.25 10.9375 6.95 10.9375 7.8125V10.9375C10.9375 11.8 11.6375 12.5 12.5 12.5Z" fill="#1E538F"/>
<path d="M15.625 25C15.625 24.1375 14.925 23.4375 14.0625 23.4375H12.5C11.6375 23.4375 10.9375 24.1375 10.9375 25V40.625C10.9375 41.4875 11.6375 42.1875 12.5 42.1875H14.0625C14.925 42.1875 15.625 41.4875 15.625 40.625C15.625 39.7625 14.925 39.0625 14.0625 39.0625V26.5625C14.925 26.5625 15.625 25.8625 15.625 25Z" fill="#1E538F"/>
</svg>
