<svg width="50" height="50" viewBox="0 0 50 50" fill="none" xmlns="http://www.w3.org/2000/svg">
<g clip-path="url(#clip0_4638_15)">
<path d="M26.1334 19.875V22.3888C26.1334 23.1873 26.2928 23.8571 26.6076 24.379C27.0417 25.0992 27.7543 25.5119 28.5633 25.5119C29.356 25.5119 30.1438 25.1259 30.9044 24.3652L39.2075 16.0622C41.0305 14.2391 41.0305 11.2728 39.2075 9.44977L30.9044 1.1467C30.1438 0.385666 29.356 0 28.5633 0C27.3537 0 26.1334 0.965881 26.1334 3.12309V5.40619C14.3452 6.10237 4.58645 15.1489 3.1361 26.9932C3.05485 27.6546 3.43098 28.2879 4.05087 28.5332C4.22634 28.6026 4.40907 28.6362 4.5895 28.6362C5.0465 28.6362 5.48977 28.4222 5.77206 28.0365C9.66229 22.7211 15.9085 19.5477 22.4804 19.5477C23.6981 19.5477 24.9226 19.6575 26.1334 19.875Z" fill="#9C27B0"/>
<path d="M45.9232 21.4668C45.3034 21.2212 44.5961 21.4256 44.2021 21.9639C40.3122 27.2789 34.066 30.4523 27.4941 30.4523C26.2764 30.4523 25.0519 30.3425 23.8411 30.125V27.6112C23.8411 25.4539 22.6204 24.4881 21.4111 24.4881C20.6184 24.4881 19.8307 24.8741 19.0697 25.6351L10.7666 33.9378C8.94394 35.7609 8.94394 38.7272 10.767 40.5506L19.0697 48.8533C19.8307 49.6143 20.6184 50 21.4111 50C22.6204 50 23.8411 49.0341 23.8411 46.8769V44.5938C35.6297 43.8976 45.388 34.8511 46.8384 23.0072C46.9196 22.3453 46.5435 21.7121 45.9232 21.4668Z" fill="#9C27B0"/>
</g>
<defs>
<clipPath id="clip0_4638_15">
<rect width="50" height="50" fill="white"/>
</clipPath>
</defs>
</svg>
