<svg width="30" height="30" viewBox="0 0 30 30" fill="none" xmlns="http://www.w3.org/2000/svg">
<g clip-path="url(#clip0_3496_791)">
<path d="M25.3125 0.9375V3.75H24.375H16.875H6.5625H1.875H0.9375V0.9375H25.3125Z" fill="#FF826E"/>
<path d="M1.875 3.75H6.5625V12.6562V15V21.0938V26.7516V27.8906V29.0625H1.875V3.75Z" fill="#CCD1D9"/>
<path d="M24.375 3.75V7.5H23.4375C22.9219 7.5 22.5 7.92188 22.5 8.4375V14.0625H15.4688C16.7625 14.0625 17.8125 13.0125 17.8125 11.7188C17.8125 10.9547 17.4422 10.2703 16.875 9.84375V3.75H24.375Z" fill="#CCD1D9"/>
<path d="M24.375 29.0625H16.6406C17.2875 29.0625 17.8125 28.5375 17.8125 27.8906V21.0938V16.875C17.8125 16.3594 18.2344 15.9375 18.75 15.9375H22.5V16.2516V19.6875C22.5 20.2031 22.9219 20.625 23.4375 20.625H24.375V29.0625Z" fill="#CCD1D9"/>
<path d="M28.125 7.5H24.375H23.4375C22.9219 7.5 22.5 7.92188 22.5 8.4375V19.6875C22.5 20.2031 22.9219 20.625 23.4375 20.625H24.375H28.125C28.6406 20.625 29.0625 20.2031 29.0625 19.6875V8.4375C29.0625 7.92188 28.6406 7.5 28.125 7.5Z" fill="#969FAA"/>
<path d="M6.5625 3.75H16.875V29.0625H6.5625V3.75Z" fill="#E6E9ED"/>
<path d="M8.90625 21.0938V27.8906C8.90625 28.2141 8.775 28.5094 8.56406 28.7203C8.35313 28.9313 8.05781 29.0625 7.73438 29.0625C7.0875 29.0625 6.5625 28.5375 6.5625 27.8906V26.7516V21.0938H8.90625Z" fill="#CF9E76"/>
<path d="M11.25 21.0938V27.8906C11.25 28.2141 11.1188 28.5094 10.9078 28.7203C10.6969 28.9313 10.4016 29.0625 10.0781 29.0625C9.43125 29.0625 8.90625 28.5375 8.90625 27.8906V21.0938H10.7812H11.25Z" fill="#CF9E76"/>
<path d="M11.25 20.625V21.0938H10.7812H8.90625H6.5625V15H8.90625H10.3125C10.8141 15 11.2875 15.1313 11.6953 15.3609C11.4094 15.7969 11.25 16.3172 11.25 16.875V19.6875V20.625Z" fill="#B4DD7F"/>
<path d="M17.8125 21.0938V27.8906C17.8125 28.5375 17.2875 29.0625 16.6406 29.0625C16.3172 29.0625 16.0219 28.9313 15.8109 28.7203C15.6 28.5094 15.4688 28.2141 15.4688 27.8906V21.0938H17.8125Z" fill="#CF9E76"/>
<path d="M15.4688 21.0938V27.8906C15.4688 28.5375 14.9438 29.0625 14.2969 29.0625C13.9734 29.0625 13.6781 28.9313 13.4672 28.7203C13.2562 28.5094 13.125 28.2141 13.125 27.8906V22.0312V21.0938H15.4688Z" fill="#CF9E76"/>
<path d="M13.125 21.0938V22.0312H12.6562C11.8781 22.0312 11.25 21.4031 11.25 20.625V19.6875V16.875C11.25 16.3172 11.4094 15.7969 11.6953 15.3609C12.1922 14.5828 13.0688 14.0625 14.0625 14.0625H15.4688H22.5H24.375C24.8906 14.0625 25.3125 14.4844 25.3125 15C25.3125 15.2625 25.2094 15.4969 25.0359 15.6656C24.8672 15.8344 24.6328 15.9375 24.375 15.9375H22.5H18.75C18.2344 15.9375 17.8125 16.3594 17.8125 16.875V21.0938H15.4688H13.125Z" fill="#FCD770"/>
<path d="M8.90625 15C10.2007 15 11.25 13.9507 11.25 12.6562C11.25 11.3618 10.2007 10.3125 8.90625 10.3125C7.61183 10.3125 6.5625 11.3618 6.5625 12.6562C6.5625 13.9507 7.61183 15 8.90625 15Z" fill="#F0D0B4"/>
<path d="M16.875 9.84375C17.4422 10.2703 17.8125 10.9547 17.8125 11.7188C17.8125 13.0125 16.7625 14.0625 15.4688 14.0625C14.175 14.0625 13.125 13.0125 13.125 11.7188C13.125 10.425 14.175 9.375 15.4688 9.375C15.9984 9.375 16.4859 9.54844 16.875 9.84375Z" fill="#F0D0B4"/>
<path d="M25.7812 9.84375L27.1875 12.1875H24.375L25.7812 9.84375Z" fill="#FF826E"/>
<path d="M27.1875 15.9375L25.7812 18.2812L24.375 15.9375H27.1875Z" fill="#FF826E"/>
<path d="M28.125 7.03125H24.8438V4.21875H25.7812V0.46875H0.46875V4.21875H1.40625V29.5312H7.72969C7.73109 29.5312 7.7325 29.5317 7.73438 29.5317C7.73625 29.5317 7.73719 29.5312 7.73906 29.5312H10.0739C10.0753 29.5312 10.0767 29.5317 10.0786 29.5317C10.0805 29.5317 10.0809 29.5312 10.0828 29.5312H14.2927C14.2941 29.5312 14.2955 29.5317 14.2973 29.5317C14.2992 29.5317 14.2997 29.5312 14.3016 29.5312H16.6364C16.6378 29.5312 16.6392 29.5317 16.6411 29.5317C16.643 29.5317 16.6434 29.5312 16.6453 29.5312H24.8438V21.0938H28.125C28.9003 21.0938 29.5312 20.4628 29.5312 19.6875V8.4375C29.5312 7.66219 28.9003 7.03125 28.125 7.03125ZM23.9062 7.03125H23.4375C22.6622 7.03125 22.0312 7.66219 22.0312 8.4375V13.5942H17.5589C18.0066 13.0959 18.2812 12.4397 18.2812 11.7188C18.2812 10.8886 17.9175 10.1438 17.3438 9.62813V4.21875H23.9062V7.03125ZM26.3597 16.4062L25.7812 17.3705L25.2028 16.4062H26.3597ZM24.3773 15.4688H23.5472L23.5477 15.4692H18.75C17.9747 15.4692 17.3438 16.1002 17.3438 16.8755V20.625H13.5938V16.8755H12.6562V21.563C12.1392 21.563 11.7188 21.1425 11.7188 20.6255V19.688V16.8755C11.7188 15.5831 12.7702 14.5317 14.0625 14.5317H24.375C24.6333 14.5317 24.8438 14.7417 24.8438 15.0005C24.8438 15.2583 24.6347 15.4673 24.3773 15.4688ZM16.6359 28.5938C16.2506 28.5914 15.9375 28.2773 15.9375 27.8911V21.5625H17.3438V27.8911C17.3438 28.2773 17.0306 28.5914 16.6453 28.5938H16.6359ZM14.2922 28.5938C13.9069 28.5914 13.5938 28.2773 13.5938 27.8911V21.5625H15V27.8911C15 28.2773 14.6869 28.5914 14.3016 28.5938H14.2922ZM10.0734 28.5938C9.68812 28.5914 9.375 28.2773 9.375 27.8911V21.5625H10.7812V27.8911C10.7812 28.2773 10.4681 28.5914 10.0828 28.5938H10.0734ZM7.72969 28.5938C7.34437 28.5914 7.03125 28.2773 7.03125 27.8911V26.7492V21.5625H8.4375V27.8911C8.4375 28.2773 8.12438 28.5914 7.73906 28.5938H7.72969ZM16.4062 4.21875V9.07031C16.1123 8.96625 15.7978 8.90625 15.4688 8.90625C13.9177 8.90625 12.6562 10.1677 12.6562 11.7188C12.6562 12.4697 12.9539 13.1512 13.4348 13.6561C12.6825 13.8023 12.0211 14.2064 11.5472 14.7727C11.3503 14.693 11.1445 14.6391 10.9359 14.5983C11.4197 14.093 11.7188 13.4095 11.7188 12.6562C11.7188 11.1052 10.4573 9.84375 8.90625 9.84375C8.18531 9.84375 7.52953 10.1184 7.03125 10.5656V4.21875H16.4062ZM17.3438 11.7188C17.3438 12.7528 16.5028 13.5938 15.4688 13.5938C14.4347 13.5938 13.5938 12.7528 13.5938 11.7188C13.5938 10.6847 14.4347 9.84375 15.4688 9.84375C16.5028 9.84375 17.3438 10.6847 17.3438 11.7188ZM10.7812 20.625H7.03125V15.4688H8.90625L10.3125 15.4692C10.5623 15.4692 10.8084 15.5137 11.0437 15.5906C10.875 15.9858 10.7812 16.4198 10.7812 16.8755V19.688V20.625ZM7.03125 12.6562C7.03125 11.6222 7.87219 10.7812 8.90625 10.7812C9.94031 10.7812 10.7812 11.6222 10.7812 12.6562C10.7812 13.6903 9.94031 14.5312 8.90625 14.5312C7.87219 14.5312 7.03125 13.6903 7.03125 12.6562ZM11.7188 27.8911V22.2398C11.9958 22.4011 12.3131 22.5005 12.6562 22.5005V27.8911C12.6562 28.1433 12.7181 28.38 12.8208 28.5938H11.5547C11.6569 28.38 11.7188 28.1433 11.7188 27.8911ZM1.40625 1.40625H24.8438V3.28125H1.40625V1.40625ZM2.34375 4.21875H6.09375V26.7492V27.8911V28.5938H2.34375V4.21875ZM23.9062 28.5938H18.1167C18.2194 28.38 18.2812 28.1433 18.2812 27.8911V16.8755C18.2812 16.6167 18.4917 16.4067 18.75 16.4067H22.0312V19.6875C22.0312 20.4628 22.6622 21.0938 23.4375 21.0938H23.9062V28.5938ZM28.5938 19.6875C28.5938 19.9463 28.3833 20.1562 28.125 20.1562H23.4375C23.1792 20.1562 22.9688 19.9463 22.9688 19.6875V16.4067H24.1102L25.7812 19.192L28.0153 15.4688H25.695C25.7475 15.3216 25.7812 15.1655 25.7812 15.0005C25.7812 14.2252 25.1503 13.5942 24.375 13.5942H22.9688V8.4375C22.9688 8.17875 23.1792 7.96875 23.4375 7.96875H28.125C28.3833 7.96875 28.5938 8.17875 28.5938 8.4375V19.6875Z" fill="black"/>
<path d="M23.5472 12.6561H28.0154L25.7813 8.93286L23.5472 12.6561ZM25.2029 11.7186L25.7813 10.7544L26.3597 11.7186H25.2029Z" fill="black"/>
<path d="M3.28125 5.15625H4.21875V6.09375H3.28125V5.15625Z" fill="black"/>
<path d="M3.28125 7.03125H4.21875V7.96875H3.28125V7.03125Z" fill="black"/>
<path d="M3.28125 8.90625H4.21875V9.84375H3.28125V8.90625Z" fill="black"/>
<path d="M22.0312 5.15625H22.9688V6.09375H22.0312V5.15625Z" fill="black"/>
<path d="M20.1562 5.15625H21.0938V6.09375H20.1562V5.15625Z" fill="black"/>
<path d="M18.2812 5.15625H19.2188V6.09375H18.2812V5.15625Z" fill="black"/>
<path d="M22.0312 26.7188H22.9688V27.6562H22.0312V26.7188Z" fill="black"/>
<path d="M22.0312 22.0312H22.9688V25.7812H22.0312V22.0312Z" fill="black"/>
</g>
<defs>
<clipPath id="clip0_3496_791">
<rect width="30" height="30" fill="white"/>
</clipPath>
</defs>
</svg>
