<svg width="30" height="30" viewBox="0 0 30 30" fill="none" xmlns="http://www.w3.org/2000/svg">
<path d="M18.4615 8.12503H12.511C8.71402 8.12503 5.63599 11.2031 5.63599 15C5.63599 15.7539 5.75731 16.4793 5.98149 17.158C6.19685 17.81 6.10325 18.5509 5.61774 19.0364L5.51114 19.143C4.81164 19.8425 3.6381 19.7218 3.26122 18.8071C2.7777 17.6336 2.51099 16.348 2.51099 15C2.51099 9.47718 6.98814 5.00003 12.511 5.00003H18.4615L17.3724 3.91088C16.7621 3.30069 16.7621 2.31137 17.3724 1.70118C17.9825 1.09098 18.9719 1.09098 19.582 1.70118L23.3386 5.45768C23.6316 5.7507 23.7962 6.14813 23.7962 6.56253C23.7962 6.97693 23.6316 7.37437 23.3385 7.66739L19.582 11.4239C18.9719 12.0341 17.9825 12.0341 17.3724 11.4239C16.7621 10.8137 16.7621 9.82436 17.3724 9.21418L18.4615 8.12503Z" fill="#1E538F"/>
<path d="M12.6497 26.0889L11.5608 25H17.5111C23.0339 25 27.5111 20.5229 27.5111 15C27.5111 13.652 27.2443 12.3664 26.7608 11.1929C26.3839 10.2782 25.2104 10.1576 24.5109 10.8571L24.4043 10.9637C23.9188 11.4492 23.8252 12.1901 24.0406 12.842C24.2647 13.5208 24.3861 14.2463 24.3861 15C24.3861 18.797 21.3081 21.875 17.5111 21.875H11.5603L12.6497 20.7857C13.2599 20.1754 13.2599 19.1862 12.6497 18.5759C12.0395 17.9658 11.0502 17.9658 10.44 18.5759L6.68347 22.3324C6.39044 22.6254 6.22582 23.0229 6.22583 23.4373C6.22582 23.8517 6.39044 24.2492 6.68347 24.5422L10.44 28.2987C11.0502 28.9088 12.0395 28.9088 12.6497 28.2987C13.2599 27.6884 13.2599 26.6992 12.6497 26.0889Z" fill="#1E538F"/>
</svg>
