<svg width="50" height="50" viewBox="0 0 50 50" fill="none" xmlns="http://www.w3.org/2000/svg">
<path d="M45.1969 47.2045V22.8863C45.1969 21.9318 44.4166 21.1515 43.4621 21.1515H36.6439C35.6287 21.1515 34.8106 22.0303 34.9166 23.0682C35.0075 23.9697 35.8333 24.6212 36.7424 24.6212H41.0378C41.803 24.6212 41.7348 25.2424 41.7348 26.0076V47.2121L45.1969 47.2045Z" fill="#00A5E0"/>
<path d="M41.7272 47.7273C41.5909 47.7273 41.4545 47.6742 41.356 47.5758C41.2575 47.4773 41.2045 47.3485 41.2045 47.2045V25.8182C41.2045 25.5833 41.2121 25.2348 41.159 25.1439C41.159 25.1515 41.1212 25.1364 41.0302 25.1364H36.7348C35.5378 25.1364 34.5075 24.25 34.3939 23.1136C34.3333 22.4773 34.5378 21.8409 34.9621 21.3712C35.3863 20.9015 35.9999 20.6288 36.6363 20.6288H43.4545C44.6969 20.6288 45.7121 21.6439 45.7121 22.8864V47.2121C45.7121 47.5 45.4772 47.7348 45.1893 47.7348L41.7272 47.7273ZM36.6363 21.6667C36.2954 21.6667 35.9621 21.8106 35.7348 22.0682C35.4999 22.3258 35.3939 22.6591 35.4242 23.0076C35.4848 23.6136 36.0605 24.0909 36.7348 24.0909H41.0302C41.3939 24.0909 41.6893 24.197 41.8939 24.4091C42.2499 24.7727 42.2499 25.2803 42.2424 25.8182V26V46.6818H44.6742V22.8864C44.6742 22.2197 44.1287 21.6742 43.4621 21.6742H36.6363V21.6667Z" fill="#222222"/>
<path d="M34.4999 47.2045H7.49232C6.3105 47.2045 5.35596 46.25 5.35596 45.0681V14.2878H36.6363V45.0681C36.6363 46.25 35.6817 47.2045 34.4999 47.2045Z" fill="#00A5E0"/>
<path d="M34.4999 47.7273H7.49234C6.03022 47.7273 4.83325 46.5379 4.83325 45.0682V14.2879C4.83325 14 5.0681 13.7651 5.35598 13.7651H36.6363C36.9242 13.7651 37.159 14 37.159 14.2879V45.0682C37.159 46.5303 35.9696 47.7273 34.4999 47.7273ZM5.87871 14.803V45.0682C5.87871 45.9621 6.60598 46.6818 7.49234 46.6818H34.4999C35.3939 46.6818 36.1136 45.9545 36.1136 45.0682V14.803H5.87871Z" fill="#222222"/>
<path d="M4.71208 14.2879H37.2878C38.3484 14.2879 39.2045 13.4318 39.2045 12.3712C39.2045 11.3106 38.3484 10.4545 37.2878 10.4545H4.71208C3.65147 10.4545 2.79541 11.3106 2.79541 12.3712C2.79541 13.4242 3.65147 14.2879 4.71208 14.2879Z" fill="#DBEAF2"/>
<path d="M37.2803 14.803H4.70452C3.36361 14.803 2.27271 13.7121 2.27271 12.3712C2.27271 11.0303 3.36361 9.93939 4.7121 9.93939H37.2879C38.6288 9.93939 39.7197 11.0303 39.7197 12.3712C39.7197 13.7121 38.6288 14.803 37.2803 14.803ZM4.7121 10.9773C3.93937 10.9773 3.31816 11.6061 3.31816 12.3712C3.31816 13.1364 3.94695 13.7651 4.7121 13.7651H37.2879C38.0606 13.7651 38.6818 13.1364 38.6818 12.3712C38.6818 11.6061 38.053 10.9773 37.2879 10.9773H4.7121Z" fill="#222222"/>
<path d="M6.6969 10.4545H35.303V8.55301C35.303 7.28786 34.2802 6.26514 33.0151 6.26514H8.98478C7.71963 6.26514 6.6969 7.28786 6.6969 8.55301V10.4545Z" fill="#FFA431"/>
<path d="M35.2954 10.9773H6.69692C6.40904 10.9773 6.17419 10.7424 6.17419 10.4546V9.03789C6.17419 7.2197 7.65147 5.74243 9.46965 5.74243H32.5227C34.3409 5.74243 35.8181 7.2197 35.8181 9.03789V10.4546C35.8181 10.7424 35.5833 10.9773 35.2954 10.9773ZM7.21207 9.93183H34.7727V9.03789C34.7727 7.79546 33.7575 6.78031 32.5151 6.78031H9.46965C8.22722 6.78031 7.21207 7.79546 7.21207 9.03789V9.93183Z" fill="#222222"/>
<path d="M25.9924 6.26511H16V3.49996C16 3.11359 16.3182 2.79541 16.7045 2.79541H25.2879C25.6742 2.79541 25.9924 3.11359 25.9924 3.49996V6.26511Z" fill="white"/>
<path d="M25.9924 6.78028H16C15.7121 6.78028 15.4773 6.54543 15.4773 6.25755V4.1818C15.4773 3.12877 16.3334 2.27271 17.3864 2.27271H24.6061C25.6591 2.27271 26.5152 3.12877 26.5152 4.1818V6.26513C26.5152 6.55301 26.2803 6.78028 25.9924 6.78028ZM16.5227 5.7424H25.4773V4.1818C25.4773 3.70452 25.0909 3.31058 24.6061 3.31058H17.3864C16.9091 3.31058 16.5152 3.69695 16.5152 4.1818V5.7424H16.5227Z" fill="#222222"/>
<path d="M21 39.4848C25.8283 39.4848 29.7424 35.5707 29.7424 30.7424C29.7424 25.9141 25.8283 21.9999 21 21.9999C16.1717 21.9999 12.2576 25.9141 12.2576 30.7424C12.2576 35.5707 16.1717 39.4848 21 39.4848Z" fill="white"/>
<path d="M21 40.0075C15.894 40.0075 11.7349 35.8484 11.7349 30.7424C11.7349 25.6363 15.894 21.4772 21 21.4772C26.1061 21.4772 30.2652 25.6363 30.2652 30.7424C30.2652 35.8484 26.1061 40.0075 21 40.0075ZM21 22.5227C16.4621 22.5227 12.7803 26.2121 12.7803 30.75C12.7803 35.2878 16.4697 38.9697 21 38.9697C25.5303 38.9697 29.2197 35.2803 29.2197 30.75C29.2197 26.2197 25.5303 22.5227 21 22.5227Z" fill="#222222"/>
<path d="M24.25 32.3485C24.25 34.1439 22.7955 35.5985 21 35.5985C19.2045 35.5985 17.75 34.1439 17.75 32.3485C17.75 30.553 21 25.8864 21 25.8864C21 25.8864 24.25 30.553 24.25 32.3485Z" fill="#00A5E0"/>
<path d="M21 36.1212C18.9167 36.1212 17.2273 34.4318 17.2273 32.3485C17.2273 30.447 20.2273 26.0758 20.5758 25.5909C20.7727 25.3106 21.2349 25.3106 21.4318 25.5909C21.7728 26.0833 24.7803 30.447 24.7803 32.3485C24.7652 34.4318 23.0758 36.1212 21 36.1212ZM21 26.8182C19.9697 28.3788 18.2728 31.197 18.2728 32.3485C18.2728 33.8561 19.5 35.0833 21 35.0833C22.5 35.0833 23.7273 33.8561 23.7273 32.3485C23.7273 31.197 22.0227 28.3788 21 26.8182Z" fill="#222222"/>
<path d="M47.2045 47.7273H2.79543C2.50755 47.7273 2.27271 47.4924 2.27271 47.2046C2.27271 46.9167 2.50755 46.6818 2.79543 46.6818H47.2045C47.4924 46.6818 47.7273 46.9167 47.7273 47.2046C47.7273 47.4924 47.4924 47.7273 47.2045 47.7273Z" fill="#222222"/>
<path d="M8.68931 19.9621H5.35598C5.0681 19.9621 4.83325 19.7272 4.83325 19.4394C4.83325 19.1515 5.0681 18.9166 5.35598 18.9166H8.69689C8.98477 18.9166 9.21962 19.1515 9.21962 19.4394C9.21962 19.7272 8.97719 19.9621 8.68931 19.9621Z" fill="#222222"/>
<path d="M7.30295 25.6136H5.35598C5.0681 25.6136 4.83325 25.3787 4.83325 25.0908C4.83325 24.803 5.0681 24.5681 5.35598 24.5681H7.30295C7.59083 24.5681 7.82568 24.803 7.82568 25.0908C7.82568 25.3787 7.59083 25.6136 7.30295 25.6136Z" fill="#222222"/>
<path d="M8.68931 31.2651H5.35598C5.0681 31.2651 4.83325 31.0303 4.83325 30.7424C4.83325 30.4545 5.0681 30.2197 5.35598 30.2197H8.69689C8.98477 30.2197 9.21962 30.4545 9.21962 30.7424C9.21962 31.0303 8.97719 31.2651 8.68931 31.2651Z" fill="#222222"/>
<path d="M7.99992 36.9166H5.35598C5.0681 36.9166 4.83325 36.6818 4.83325 36.3939C4.83325 36.106 5.0681 35.8712 5.35598 35.8712H7.99992C8.2878 35.8712 8.52265 36.106 8.52265 36.3939C8.52265 36.6818 8.2878 36.9166 7.99992 36.9166Z" fill="#222222"/>
<path d="M8.68931 42.5682H5.35598C5.0681 42.5682 4.83325 42.3333 4.83325 42.0454C4.83325 41.7576 5.0681 41.5227 5.35598 41.5227H8.69689C8.98477 41.5227 9.21962 41.7576 9.21962 42.0454C9.21204 42.3333 8.97719 42.5682 8.68931 42.5682Z" fill="#222222"/>
<path d="M36.5758 19.9621H33.2349C32.947 19.9621 32.7122 19.7272 32.7122 19.4394C32.7122 19.1515 32.947 18.9166 33.2349 18.9166H36.5758C36.8637 18.9166 37.0985 19.1515 37.0985 19.4394C37.0985 19.7272 36.8561 19.9621 36.5758 19.9621Z" fill="#222222"/>
<path d="M36.5758 25.6136H34.6212C34.3334 25.6136 34.0985 25.3787 34.0985 25.0908C34.0985 24.803 34.3334 24.5681 34.6212 24.5681H36.5682C36.8561 24.5681 37.0909 24.803 37.0909 25.0908C37.0909 25.3787 36.8561 25.6136 36.5758 25.6136Z" fill="#222222"/>
<path d="M36.5758 31.2651H33.2349C32.947 31.2651 32.7122 31.0303 32.7122 30.7424C32.7122 30.4545 32.947 30.2197 33.2349 30.2197H36.5758C36.8637 30.2197 37.0985 30.4545 37.0985 30.7424C37.0985 31.0303 36.8561 31.2651 36.5758 31.2651Z" fill="#222222"/>
<path d="M36.5758 36.9166H33.9319C33.644 36.9166 33.4092 36.6818 33.4092 36.3939C33.4092 36.106 33.644 35.8712 33.9319 35.8712H36.5758C36.8637 35.8712 37.0986 36.106 37.0986 36.3939C37.091 36.6818 36.8561 36.9166 36.5758 36.9166Z" fill="#222222"/>
<path d="M36.5758 42.5682H33.2349C32.947 42.5682 32.7122 42.3333 32.7122 42.0454C32.7122 41.7576 32.947 41.5227 33.2349 41.5227H36.5758C36.8637 41.5227 37.0985 41.7576 37.0985 42.0454C37.0909 42.3333 36.8561 42.5682 36.5758 42.5682Z" fill="#222222"/>
</svg>
