<svg width="30" height="30" viewBox="0 0 30 30" fill="none" xmlns="http://www.w3.org/2000/svg">
<path d="M27.6175 2.63965H2.38257C2.33757 2.63965 2.30112 2.67609 2.30112 2.72109V27.956C2.30112 28.001 2.33757 28.0374 2.38257 28.0374H27.6175C27.6625 28.0374 27.6989 28.001 27.6989 27.956V2.72109C27.6989 2.67609 27.6625 2.63965 27.6175 2.63965Z" fill="#1382E8"/>
<path d="M13.9966 14.4165H4.22637C4.18137 14.4165 4.14492 14.3801 4.14492 14.3351V4.56484C4.14492 4.51984 4.18137 4.4834 4.22637 4.4834H13.9966C14.0416 4.4834 14.0781 4.51984 14.0781 4.56484V14.3351C14.0781 14.3801 14.0416 14.4165 13.9966 14.4165Z" fill="#1382E8"/>
<path d="M13.9966 26.1939H4.22637C4.18137 26.1939 4.14492 26.1574 4.14492 26.1124V16.3422C4.14492 16.2972 4.18137 16.2607 4.22637 16.2607H13.9966C14.0416 16.2607 14.0781 16.2972 14.0781 16.3422V26.1124C14.0781 26.1574 14.0416 26.1939 13.9966 26.1939Z" fill="#61AAB7"/>
<path d="M25.7737 14.4165H16.0034C15.9584 14.4165 15.922 14.3801 15.922 14.3351V4.56484C15.922 4.51984 15.9584 4.4834 16.0034 4.4834H25.7737C25.8187 4.4834 25.8551 4.51984 25.8551 4.56484V14.3351C25.8551 14.3801 25.8187 14.4165 25.7737 14.4165Z" fill="#1382E8"/>
<path d="M25.7737 4.4834H25.3552V14.4165H25.7737C25.8187 14.4165 25.8551 14.3801 25.8551 14.3351V4.56484C25.8551 4.51984 25.8187 4.4834 25.7737 4.4834Z" fill="#544F57"/>
<path d="M25.7737 26.1939H16.0034C15.9584 26.1939 15.922 26.1574 15.922 26.1124V16.3422C15.922 16.2972 15.9584 16.2607 16.0034 16.2607H25.7737C25.8187 16.2607 25.8551 16.2972 25.8551 16.3422V26.1124C25.8551 26.1574 25.8187 26.1939 25.7737 26.1939Z" fill="#55B8FF"/>
<path d="M26.973 29.5606H3.02704C2.97067 29.5606 2.92496 29.5149 2.92496 29.4585V28.0376H27.0751V29.4585C27.0751 29.5149 27.0294 29.5606 26.973 29.5606Z" fill="#1CCC2E"/>
<path d="M6.0756 0.439453H12.1474V2.63977H6.0756V0.439453Z" fill="#AFAAB4"/>
<path d="M6.0756 2.63977H4.56393V0.439453H6.0756V2.63977Z" fill="#1382E8"/>
<path d="M9.86736 2.63977H8.35572V0.439453H9.86736V2.63977Z" fill="#1382E8"/>
<path d="M13.6591 2.63977H12.1474V0.439453H13.6591V2.63977Z" fill="#1382E8"/>
<path d="M17.8526 0.439453H23.9245V2.63977H17.8526V0.439453Z" fill="#AFAAB4"/>
<path d="M17.8526 2.63977H16.3409V0.439453H17.8526V2.63977Z" fill="#1382E8"/>
<path d="M21.6444 2.63977H20.1327V0.439453H21.6444V2.63977Z" fill="#1382E8"/>
<path d="M25.4362 2.63977H23.9245V0.439453H25.4362V2.63977Z" fill="#1382E8"/>
<path d="M4.22639 14.8561H13.9967C14.2838 14.8561 14.5175 14.6224 14.5175 14.3351V4.5649C14.5175 4.27768 14.2839 4.04395 13.9967 4.04395H4.22639C3.93916 4.04395 3.70543 4.27762 3.70543 4.5649V14.3351C3.70543 14.6224 3.93916 14.8561 4.22639 14.8561ZM9.66534 8.89614V10.0039H8.55762V8.89614H9.66534ZM8.55762 8.01726V6.90954H9.66534V8.01726H8.55762ZM11.652 10.0039H10.5443V8.89614H11.652V10.0039ZM12.5309 8.89614H13.6386V10.0039H12.5309V8.89614ZM9.66534 10.8828V11.9905H8.55762V10.8828H9.66534ZM7.67874 10.0039H6.57102V8.89614H7.67874V10.0039ZM5.69211 10.0039H4.58433V8.89614H5.69205L5.69211 10.0039ZM5.69211 10.8828V11.9905H4.58433V10.8828H5.69211ZM6.57102 10.8828H7.67874V11.9905H6.57102V10.8828ZM7.67874 12.8695V13.9772H6.57102V12.8695H7.67874ZM8.55762 12.8695H9.66534V13.9772H8.55762V12.8695ZM10.5443 12.8695H11.652V13.9772H10.5443V12.8695ZM10.5443 11.9905V10.8829H11.652V11.9905H10.5443ZM12.5309 10.8828H13.6386V11.9905H12.5309V10.8828ZM13.6387 8.01726H12.5309V6.90954H13.6386L13.6387 8.01726ZM11.652 8.01726H10.5443V6.90954H11.652V8.01726ZM10.5443 6.0306V4.92291H11.652V6.0306H10.5443ZM9.66534 6.0306H8.55762V4.92291H9.66534V6.0306ZM7.67874 6.0306H6.57102V4.92291H7.67874V6.0306ZM7.67874 6.90954V8.01726H6.57102V6.90954H7.67874ZM5.69211 8.01726H4.58433V6.90954H5.69205L5.69211 8.01726ZM4.58433 12.8695H5.69205V13.9772H4.58433V12.8695ZM12.5309 13.9772V12.8695H13.6386V13.9772H12.5309ZM13.6387 6.0306H12.5309V4.92291H13.6386L13.6387 6.0306ZM5.69211 4.92291V6.0306H4.58433V4.92291H5.69211Z" fill="white"/>
<path d="M3.70543 26.112C3.70543 26.3992 3.9391 26.6329 4.22639 26.6329H13.9967C14.2838 26.6329 14.5175 26.3993 14.5175 26.112V16.3418C14.5175 16.0546 14.2839 15.8208 13.9967 15.8208H4.22639C3.93916 15.8208 3.70543 16.0545 3.70543 16.3418V26.112ZM4.58433 16.6998H13.6386V25.754H4.58433V16.6998Z" fill="white"/>
<path d="M8.14254 17.6221H5.94598C5.70323 17.6221 5.50653 17.8188 5.50653 18.0615C5.50653 18.3043 5.70323 18.501 5.94598 18.501H8.14254C8.3853 18.501 8.58198 18.3043 8.58198 18.0615C8.58198 17.8188 8.38524 17.6221 8.14254 17.6221Z" fill="white"/>
<path d="M8.14254 19.7324H5.94598C5.70323 19.7324 5.50653 19.9291 5.50653 20.1719C5.50653 20.4146 5.70323 20.6113 5.94598 20.6113H8.14254C8.3853 20.6113 8.58198 20.4146 8.58198 20.1719C8.58198 19.9291 8.38524 19.7324 8.14254 19.7324Z" fill="white"/>
<path d="M8.14254 21.8428H5.94598C5.70323 21.8428 5.50653 22.0395 5.50653 22.2822C5.50653 22.525 5.70323 22.7217 5.94598 22.7217H8.14254C8.3853 22.7217 8.58198 22.525 8.58198 22.2822C8.58198 22.0395 8.38524 21.8428 8.14254 21.8428Z" fill="white"/>
<path d="M8.14254 23.9531H5.94598C5.70323 23.9531 5.50653 24.1499 5.50653 24.3926C5.50653 24.6353 5.70323 24.8321 5.94598 24.8321H8.14254C8.3853 24.8321 8.58198 24.6353 8.58198 24.3926C8.58198 24.1499 8.38524 23.9531 8.14254 23.9531Z" fill="white"/>
<path d="M12.277 17.6221H10.0805C9.83772 17.6221 9.64104 17.8188 9.64104 18.0615C9.64104 18.3043 9.83772 18.501 10.0805 18.501H12.277C12.5198 18.501 12.7165 18.3043 12.7165 18.0615C12.7165 17.8188 12.5198 17.6221 12.277 17.6221Z" fill="white"/>
<path d="M12.277 19.7324H10.0805C9.83772 19.7324 9.64104 19.9291 9.64104 20.1719C9.64104 20.4146 9.83772 20.6113 10.0805 20.6113H12.277C12.5198 20.6113 12.7165 20.4146 12.7165 20.1719C12.7165 19.9291 12.5198 19.7324 12.277 19.7324Z" fill="white"/>
<path d="M12.277 21.8428H10.0805C9.83772 21.8428 9.64104 22.0395 9.64104 22.2822C9.64104 22.525 9.83772 22.7217 10.0805 22.7217H12.277C12.5198 22.7217 12.7165 22.525 12.7165 22.2822C12.7165 22.0395 12.5198 21.8428 12.277 21.8428Z" fill="white"/>
<path d="M12.277 23.9531H10.0805C9.83772 23.9531 9.64104 24.1499 9.64104 24.3926C9.64104 24.6353 9.83772 24.8321 10.0805 24.8321H12.277C12.5198 24.8321 12.7165 24.6353 12.7165 24.3926C12.7165 24.1499 12.5198 23.9531 12.277 23.9531Z" fill="white"/>
<path d="M16.0034 14.8561H25.7737C26.0608 14.8561 26.2946 14.6224 26.2946 14.3351V4.5649C26.2946 4.27768 26.0609 4.04395 25.7737 4.04395H16.0034C15.7162 4.04395 15.4825 4.27762 15.4825 4.5649V14.3351C15.4825 14.6224 15.7162 14.8561 16.0034 14.8561ZM21.4423 8.89614V10.0039H20.3347V8.89614H21.4423ZM20.3347 8.01726V6.90954H21.4423V8.01726H20.3347ZM23.429 10.0039H22.3213V8.89614H23.429V10.0039ZM24.3079 8.89614H25.4156V10.0039H24.3079V8.89614ZM21.4423 10.8828V11.9905H20.3347V10.8828H21.4423ZM19.4557 10.0039H18.348V8.89614H19.4557V10.0039ZM17.4691 10.0039H16.3615V8.89614H17.4691V10.0039ZM17.4691 10.8828V11.9905H16.3615V10.8828H17.4691ZM18.348 10.8828H19.4557V11.9905H18.348V10.8828ZM19.4557 12.8695V13.9772H18.348V12.8695H19.4557ZM20.3347 12.8695H21.4423V13.9772H20.3347V12.8695ZM22.3213 12.8695H23.429V13.9772H22.3213V12.8695ZM22.3213 11.9905V10.8829H23.429V11.9905H22.3213ZM24.3079 10.8828H25.4156V11.9905H24.3079V10.8828ZM25.4156 8.01726H24.3079V6.90954H25.4156V8.01726ZM23.429 8.01726H22.3213V6.90954H23.429V8.01726ZM22.3213 6.0306V4.92291H23.429V6.0306H22.3213ZM21.4423 6.0306H20.3347V4.92291H21.4423V6.0306ZM19.4557 6.0306H18.348V4.92291H19.4557V6.0306ZM19.4557 6.90954V8.01726H18.348V6.90954H19.4557ZM17.4691 8.01726H16.3615V6.90954H17.4691V8.01726ZM16.3614 12.8695H17.4691V13.9772H16.3614V12.8695ZM24.3079 13.9772V12.8695H25.4156V13.9772H24.3079ZM25.4156 6.0306H24.3079V4.92291H25.4156V6.0306ZM17.4691 4.92291V6.0306H16.3615V4.92291H17.4691Z" fill="white"/>
<path d="M2.30105 7.77612C2.05829 7.77612 1.8616 7.9728 1.8616 8.21556V27.9562C1.8616 28.2433 2.09527 28.477 2.38255 28.477H2.4855V29.4585C2.4855 29.7571 2.72843 30 3.02702 30H26.973C27.2716 30 27.5145 29.7571 27.5145 29.4585V28.477H27.6175C27.9047 28.477 28.1384 28.2434 28.1384 27.9562V2.72121C28.1384 2.43398 27.9047 2.20025 27.6175 2.20025H25.8755V0.878436C26.1093 0.868302 26.2957 0.675702 26.2957 0.439453C26.2957 0.196699 26.099 0 25.8562 0H15.9208C15.6781 0 15.4814 0.196699 15.4814 0.439453C15.4814 0.675702 15.6677 0.868362 15.9015 0.878436V2.20025H14.0986V0.878436C14.3323 0.868302 14.5187 0.675702 14.5187 0.439453C14.5187 0.196699 14.3219 0 14.0792 0H4.14382C3.90107 0 3.70437 0.196699 3.70437 0.439453C3.70437 0.675702 3.89075 0.868362 4.12449 0.878436V2.20025H2.38255C2.09533 2.20025 1.8616 2.43392 1.8616 2.72121V6.16476C1.8616 6.40752 2.05829 6.6042 2.30105 6.6042C2.5438 6.6042 2.7405 6.40752 2.7405 6.16476V3.07922H27.2594V27.5981H7.07538C6.83262 27.5981 6.63594 27.7948 6.63594 28.0376C6.63594 28.2803 6.83262 28.477 7.07538 28.477H26.6356V29.1211H3.36441V28.477H5.0246C5.26736 28.477 5.46406 28.2803 5.46406 28.0376C5.46406 27.7948 5.26736 27.5981 5.0246 27.5981H2.7405V8.21556C2.7405 7.9728 2.5438 7.77612 2.30105 7.77612ZM23.485 2.20031H22.0838V0.878904H23.485V2.20031ZM11.708 2.20031H10.3068V0.878904H11.708V2.20031ZM5.00339 0.878904H5.63615V2.20031H5.00339V0.878904ZM6.51498 0.878904H7.91622V2.20031H6.51498V0.878904ZM8.79516 2.20031V0.878904H9.42792V2.20031H8.79516ZM12.5869 2.20031V0.878904H13.2196V2.20031H12.5869ZM16.7804 0.878904H17.4131V2.20031H16.7804V0.878904ZM18.292 0.878904H19.6933V2.20031H18.292V0.878904ZM20.5721 2.20031V0.878904H21.2049V2.20031H20.5721ZM24.364 2.20031V0.878904H24.9967V2.20031H24.364Z" fill="white"/>
<path d="M15.4825 26.112C15.4825 26.3992 15.7162 26.6329 16.0034 26.6329H25.7737C26.0608 26.6329 26.2946 26.3993 26.2946 26.112V22.4606C26.2946 22.2178 26.0978 22.0211 25.8551 22.0211C25.6123 22.0211 25.4156 22.2178 25.4156 22.4606V25.754H16.3614V16.6998H25.4156V20.4098C25.4156 20.6525 25.6123 20.8493 25.8551 20.8493C26.0978 20.8493 26.2946 20.6525 26.2946 20.4098V16.3418C26.2946 16.0546 26.0609 15.8208 25.7737 15.8208H16.0034C15.7162 15.8208 15.4825 16.0545 15.4825 16.3418V26.112Z" fill="white"/>
<path d="M22.9269 20.5575L23.9598 20.8343C24.1937 20.8972 24.4351 20.7583 24.498 20.5235C24.5608 20.2891 24.4217 20.0482 24.1873 19.9853L23.403 19.7752L23.6131 18.9908C23.6759 18.7564 23.5369 18.5154 23.3024 18.4526C23.0678 18.3896 22.8271 18.5289 22.7642 18.7633L22.4875 19.7962L21.328 20.4656V19.1269L22.0841 18.3707C22.2557 18.1991 22.2557 17.9209 22.0841 17.7493C21.9125 17.5777 21.6343 17.5777 21.4627 17.7493L20.8885 18.3234L20.3144 17.7493C20.1427 17.5777 19.8646 17.5777 19.6929 17.7493C19.5213 17.9209 19.5213 18.1991 19.6929 18.3707L20.4491 19.1269V20.4656L19.2896 19.7962L19.0129 18.7633C18.9501 18.5289 18.7091 18.3896 18.4747 18.4526C18.2402 18.5154 18.1011 18.7564 18.1639 18.9908L18.374 19.7751L17.5898 19.9853C17.3553 20.048 17.2162 20.2891 17.279 20.5235C17.342 20.7584 17.5835 20.897 17.8173 20.8342L18.8502 20.5575L20.0096 21.2269L18.8502 21.8963L17.8173 21.6196C17.5827 21.5566 17.3419 21.6959 17.279 21.9304C17.2162 22.1648 17.3553 22.4057 17.5898 22.4686L18.374 22.6787L18.1639 23.463C18.1011 23.6975 18.2402 23.9384 18.4747 24.0013C18.7086 24.0641 18.95 23.9253 19.0129 23.6905L19.2896 22.6576L20.4491 21.9881V23.327L19.6929 24.0831C19.5213 24.2548 19.5213 24.533 19.6929 24.7046C19.8646 24.8762 20.1428 24.8762 20.3144 24.7046L20.8885 24.1304L21.4627 24.7046C21.6344 24.8762 21.9125 24.8762 22.0841 24.7046C22.2557 24.5329 22.2557 24.2548 22.0841 24.0831L21.328 23.327V21.9881L22.4875 22.6576L22.7642 23.6905C22.8271 23.9255 23.0687 24.0641 23.3024 24.0013C23.5369 23.9385 23.6759 23.6975 23.6131 23.463L23.403 22.6787L24.1873 22.4686C24.4217 22.4058 24.5608 22.1648 24.498 21.9304C24.4352 21.6959 24.1942 21.5566 23.9598 21.6196L22.9269 21.8963L21.7675 21.2269L22.9269 20.5575Z" fill="white"/>
</svg>
