<svg width="50" height="50" viewBox="0 0 50 50" fill="none" xmlns="http://www.w3.org/2000/svg">
<g clip-path="url(#clip0_4638_19)">
<path d="M48.7247 19.5597L45.0793 18.8307C44.6782 17.5013 44.1467 16.2177 43.4919 14.997L45.5537 11.9043C45.9411 11.3232 45.8646 10.5496 45.3707 10.056L39.8465 4.53164C39.3527 4.03789 38.5791 3.96133 37.9981 4.34854L34.9053 6.41035C33.6847 5.75566 32.4011 5.22422 31.0716 4.82305L30.3426 1.17754C30.2058 0.492871 29.6045 0 28.9062 0H21.0938C20.3955 0 19.7942 0.492871 19.6573 1.17754L18.9283 4.82305C17.5988 5.22422 16.3152 5.75576 15.0946 6.41035L12.0018 4.34854C11.4209 3.96133 10.6472 4.03789 10.1534 4.53164L4.6292 10.056C4.13535 10.5497 4.05879 11.3233 4.44619 11.9043L6.50801 14.997C5.85322 16.2177 5.32178 17.5013 4.92061 18.8307L1.2752 19.5597C0.590527 19.6966 0.0976562 20.2979 0.0976562 20.9961V28.8086C0.0976562 29.5068 0.590527 30.1081 1.27529 30.2449L4.9207 30.974C5.32178 32.3033 5.85332 33.5869 6.50811 34.8076L4.44629 37.9004C4.05889 38.4813 4.13555 39.255 4.6293 39.7487L10.1535 45.2729C10.6474 45.7668 11.4209 45.8434 12.0019 45.4561L15.0313 43.4365V34.2407C12.7372 31.7988 11.3281 28.5181 11.3281 24.9023C11.3281 17.3516 17.4492 11.2305 25 11.2305C32.5508 11.2305 38.6719 17.3516 38.6719 24.9023C38.6719 28.5181 37.2628 31.7988 34.9687 34.2407V43.4365L37.9981 45.4561C38.246 45.6213 38.5289 45.7021 38.8102 45.7021C39.1882 45.7021 39.5634 45.5562 39.8464 45.273L45.3706 39.7488C45.8644 39.2551 45.941 38.4814 45.5536 37.9005L43.4918 34.8077C44.1466 33.587 44.678 32.3034 45.0792 30.9741L48.7246 30.245C49.4095 30.1081 49.9023 29.5068 49.9023 28.8086V20.9961C49.9023 20.2979 49.4095 19.6966 48.7247 19.5597Z" fill="#FF5722"/>
<path d="M29.6405 16.8761C28.9033 16.4491 27.968 16.9022 27.8462 17.7453L26.9531 23.9258H23.0469L22.1539 17.7453C22.032 16.9022 21.0968 16.4491 20.3596 16.8761C17.4993 18.5328 15.7227 21.6084 15.7227 24.9024C15.7227 28.4719 17.7217 31.6651 20.9396 33.2357L21.0938 33.311V48.5352C21.0938 49.3442 21.7496 50 22.5586 50H27.4414C28.2504 50 28.9062 49.3442 28.9062 48.5352V33.311L29.0605 33.2357C32.2783 31.6651 34.2773 28.4719 34.2773 24.9024C34.2773 21.6084 32.5007 18.5328 29.6405 16.8761Z" fill="#FF5722"/>
</g>
<defs>
<clipPath id="clip0_4638_19">
<rect width="50" height="50" fill="white"/>
</clipPath>
</defs>
</svg>
