<svg width="50" height="50" viewBox="0 0 50 50" fill="none" xmlns="http://www.w3.org/2000/svg">
<path fill-rule="evenodd" clip-rule="evenodd" d="M7.77385 41.9777V42.7553C7.77385 43.6127 8.47011 44.3097 9.32832 44.3097C10.1865 44.3097 10.8828 43.6127 10.8828 42.7553V41.9777H35.7589V42.7553C35.7589 43.6127 36.4552 44.3097 37.3134 44.3097C38.1716 44.3097 38.8679 43.6127 38.8679 42.7553V41.9777H40.397C41.641 41.9777 42.8335 41.4836 43.7134 40.6038C44.5932 39.7247 45.0873 38.5314 45.0873 37.2881V36.7194L47.3373 35.5948C47.8634 35.3314 48.1962 34.7926 48.1962 34.2038V24.8754C48.1962 24.5687 48.1059 24.2687 47.935 24.0135L45.0873 19.7411V12.3926C45.0873 11.168 44.6007 9.99258 43.7343 9.12691C42.8679 8.26049 41.6932 7.77393 40.4679 7.77393H6.24474C5.00071 7.77393 3.80817 8.26796 2.92832 9.14706C2.04847 10.0269 1.55444 11.2202 1.55444 12.4635V37.2874C1.55444 38.5314 2.04847 39.7247 2.92832 40.6038C3.80817 41.4836 5.00071 41.9777 6.24474 41.9777H7.77385ZM38.8679 24.8747V38.868H40.397C40.8164 38.868 41.2186 38.7015 41.5149 38.4053C41.8112 38.109 41.9776 37.7068 41.9776 37.2881L41.9783 35.7978C41.9634 35.2142 42.2806 34.6463 42.8373 34.368L45.0873 33.2433V25.3463L43.0664 22.3157L38.8679 24.8747ZM41.9776 19.3381V12.3926C41.9776 11.9926 41.8186 11.6083 41.5358 11.3254C41.2522 11.0418 40.8686 10.8829 40.4679 10.8829H6.24474C5.82534 10.8829 5.42385 11.0493 5.12683 11.3463C4.83056 11.6426 4.66414 12.0448 4.66414 12.4635V37.2874C4.66414 37.7068 4.83056 38.109 5.12683 38.4053C5.42385 38.7015 5.82534 38.868 6.24474 38.868H35.7589V24.0008C35.7589 23.459 36.041 22.956 36.5044 22.6732L41.9776 19.3381ZM18.6567 12.4381C11.7918 12.4381 6.21862 18.0112 6.21862 24.8754C6.21862 31.7403 11.7918 37.3135 18.6567 37.3135C25.5216 37.3135 31.0947 31.7403 31.0947 24.8754C31.0947 18.0112 25.5216 12.4381 18.6567 12.4381ZM19.6485 34.1515V28.5754L22.4365 33.4053C21.5686 33.7911 20.6313 34.0478 19.6485 34.1515ZM14.8768 33.4053L17.6649 28.5754V34.1515C16.6821 34.0478 15.7447 33.7911 14.8768 33.4053ZM24.1522 32.412L21.3656 27.5844L26.1925 30.3717C25.6224 31.1523 24.9335 31.8411 24.1522 32.412ZM11.1209 30.3717L15.9477 27.5844L13.1612 32.412C12.3806 31.8411 11.691 31.1523 11.1209 30.3717ZM27.1865 28.6553L22.3567 25.8672H27.9328C27.8291 26.85 27.5716 27.7874 27.1865 28.6553ZM9.38056 25.8672H14.9567L10.1268 28.6553C9.74176 27.7874 9.48429 26.85 9.38056 25.8672ZM18.6567 23.1463C19.6112 23.1463 20.3858 23.9209 20.3858 24.8754C20.3858 25.8299 19.6112 26.6053 18.6567 26.6053C17.7022 26.6053 16.9276 25.8299 16.9276 24.8754C16.9276 23.9209 17.7022 23.1463 18.6567 23.1463ZM10.1268 21.0963L14.9567 23.8844H9.38056C9.48429 22.9015 9.74176 21.9635 10.1268 21.0963ZM22.3567 23.8844L27.1865 21.0963C27.5716 21.9635 27.8291 22.9015 27.9328 23.8844H22.3567ZM13.1612 17.3396L15.9477 22.1672L11.1209 19.3799C11.691 18.5993 12.3798 17.9105 13.1612 17.3396ZM21.3656 22.1672L24.1522 17.3396C24.9328 17.9097 25.6224 18.5993 26.1925 19.3799L21.3656 22.1672ZM17.6649 15.5993V21.1754L14.8768 16.3463C15.7447 15.9605 16.6821 15.7038 17.6649 15.5993ZM19.6485 21.1754V15.5993C20.6313 15.7038 21.5686 15.9605 22.4365 16.3463L19.6485 21.1754ZM37.3134 13.215H31.0947C30.2365 13.215 29.5395 13.912 29.5395 14.7702C29.5395 15.6277 30.2365 16.3247 31.0947 16.3247H37.3134C38.1716 16.3247 38.8679 15.6277 38.8679 14.7702C38.8679 13.912 38.1716 13.215 37.3134 13.215Z" fill="#1E538F"/>
</svg>
