<svg width="30" height="30" viewBox="0 0 30 30" fill="none" xmlns="http://www.w3.org/2000/svg">
<g clip-path="url(#clip0_2244_318)">
<path d="M23.75 15.0002C23.75 17.7002 22.525 20.2002 20.4125 21.8752C19.55 22.5502 18.9875 23.4377 18.8125 24.3877C18.7875 24.3752 18.775 24.3752 18.75 24.3752H11.25C11.225 24.3752 11.1875 24.3752 11.1625 24.3877C10.9875 23.4002 10.475 22.5377 9.73752 21.9877C7.01252 19.9252 5.73752 16.5502 6.43752 13.1502C7.12502 9.83774 9.81252 7.13774 13.125 6.45024C15.7625 5.88774 18.4625 6.53774 20.5125 8.20024C22.575 9.87524 23.75 12.3502 23.75 15.0002Z" fill="#FFC107"/>
<path d="M18.8125 24.3875C18.775 24.6 18.75 24.8125 18.75 25.0375V27.8125C18.75 29.0125 17.7625 30 16.5625 30H13.4375C12.3875 30 11.25 29.2 11.25 27.45V25.2375C11.25 24.95 11.225 24.6625 11.1625 24.3875C11.1875 24.375 11.225 24.375 11.25 24.375H18.75C18.775 24.375 18.7875 24.375 18.8125 24.3875Z" fill="#607D8B"/>
<path d="M17.8125 26.25H12.1875C11.67 26.25 11.25 25.83 11.25 25.3125C11.25 24.795 11.67 24.375 12.1875 24.375H17.8125C18.33 24.375 18.75 24.795 18.75 25.3125C18.75 25.83 18.33 26.25 17.8125 26.25Z" fill="black"/>
<path d="M15 4.32125C14.4825 4.32125 14.0625 3.90125 14.0625 3.38375V0.9375C14.0625 0.42 14.4825 0 15 0C15.5175 0 15.9375 0.42 15.9375 0.9375V3.38375C15.9375 3.90125 15.5175 4.32125 15 4.32125Z" fill="black"/>
<path d="M23.2138 7.72361C22.9738 7.72361 22.7338 7.63236 22.5513 7.44861C22.185 7.08236 22.185 6.48861 22.5513 6.12236L24.2813 4.39236C24.6475 4.02611 25.2413 4.02611 25.6075 4.39236C25.9738 4.75861 25.9738 5.35236 25.6075 5.71861L23.8775 7.44861C23.6938 7.63111 23.4538 7.72361 23.2138 7.72361Z" fill="black"/>
<path d="M29.0625 15.9375H26.6162C26.0987 15.9375 25.6787 15.5175 25.6787 15C25.6787 14.4825 26.0987 14.0625 26.6162 14.0625H29.0625C29.58 14.0625 30 14.4825 30 15C30 15.5175 29.58 15.9375 29.0625 15.9375Z" fill="black"/>
<path d="M24.9438 25.8813C24.7038 25.8813 24.4638 25.7901 24.2813 25.6063L22.5513 23.8763C22.185 23.5101 22.185 22.9163 22.5513 22.5501C22.9175 22.1838 23.5113 22.1838 23.8775 22.5501L25.6075 24.2801C25.9738 24.6463 25.9738 25.2401 25.6075 25.6063C25.4238 25.7901 25.1838 25.8813 24.9438 25.8813Z" fill="black"/>
<path d="M5.05621 25.8813C4.81621 25.8813 4.57621 25.7901 4.39371 25.6063C4.02746 25.2401 4.02746 24.6463 4.39371 24.2801L6.12371 22.5501C6.48996 22.1838 7.08371 22.1838 7.44996 22.5501C7.81621 22.9163 7.81621 23.5101 7.44996 23.8763L5.71996 25.6063C5.53621 25.7901 5.29621 25.8813 5.05621 25.8813Z" fill="black"/>
<path d="M3.38375 15.9375H0.9375C0.42 15.9375 0 15.5175 0 15C0 14.4825 0.42 14.0625 0.9375 14.0625H3.38375C3.90125 14.0625 4.32125 14.4825 4.32125 15C4.32125 15.5175 3.90125 15.9375 3.38375 15.9375Z" fill="black"/>
<path d="M6.78621 7.72361C6.54621 7.72361 6.30621 7.63236 6.12371 7.44861L4.39371 5.71861C4.02746 5.35236 4.02746 4.75861 4.39371 4.39236C4.75996 4.02611 5.35371 4.02611 5.71996 4.39236L7.44996 6.12236C7.81621 6.48861 7.81621 7.08236 7.44996 7.44861C7.26496 7.63111 7.02621 7.72361 6.78621 7.72361Z" fill="black"/>
<path d="M19.6875 15.625C19.17 15.625 18.75 15.205 18.75 14.6875C18.75 12.7913 17.2088 11.25 15.3125 11.25C14.795 11.25 14.375 10.83 14.375 10.3125C14.375 9.795 14.795 9.375 15.3125 9.375C18.2413 9.375 20.625 11.7588 20.625 14.6875C20.625 15.205 20.205 15.625 19.6875 15.625Z" fill="black"/>
<path d="M16.5624 29.9998H13.4374C12.3837 29.9998 11.2499 29.1998 11.2499 27.4448V25.2398C11.2499 23.9135 10.6849 22.696 9.73869 21.9835C7.00744 19.9273 5.74369 16.5448 6.43994 13.156C7.12119 9.83603 9.80744 7.13978 13.1237 6.44603C15.7612 5.89103 18.4587 6.53353 20.5162 8.20603C22.5712 9.87603 23.7499 12.3523 23.7499 14.9998C23.7499 17.6973 22.5312 20.201 20.4062 21.8723C19.3537 22.6998 18.7499 23.8523 18.7499 25.0335V27.8123C18.7499 29.0185 17.7687 29.9998 16.5624 29.9998ZM14.9824 8.12728C14.4924 8.12728 13.9987 8.17853 13.5049 8.28103C10.9099 8.82353 8.80869 10.9335 8.27494 13.5323C7.72619 16.2035 8.71869 18.8685 10.8649 20.4848C12.2787 21.5498 13.1237 23.3273 13.1237 25.2398V27.4448C13.1237 27.5585 13.1387 28.1248 13.4362 28.1248H16.5612C16.7337 28.1248 16.8737 27.9848 16.8737 27.8123V25.0335C16.8737 23.2723 17.7387 21.5835 19.2462 20.3973C20.9174 19.0848 21.8749 17.1173 21.8749 14.9998C21.8749 12.9198 20.9474 10.9735 19.3324 9.66103C18.0974 8.65853 16.5662 8.12728 14.9824 8.12728Z" fill="black"/>
</g>
<defs>
<clipPath id="clip0_2244_318">
<rect width="30" height="30" fill="white"/>
</clipPath>
</defs>
</svg>
