<svg width="50" height="50" viewBox="0 0 50 50" fill="none" xmlns="http://www.w3.org/2000/svg">
<path d="M3.90625 11.7188H46.0938C46.5082 11.7188 46.9056 11.8834 47.1986 12.1764C47.4916 12.4694 47.6562 12.8668 47.6562 13.2812V39.8438H2.34375V13.2812C2.34375 12.8668 2.50837 12.4694 2.8014 12.1764C3.09442 11.8834 3.49185 11.7187 3.90625 11.7188Z" fill="#99FFE5"/>
<path d="M2.34375 39.8438H47.6562V44.5312H2.34375V39.8438Z" fill="#69ACDE"/>
<path d="M6.25 44.5312H14.0625V47.6562H6.25V44.5312Z" fill="#BFE0FF"/>
<path d="M35.9375 44.5312H43.75V47.6562H35.9375V44.5312Z" fill="#BFE0FF"/>
<path d="M9.375 14.8438H21.875V39.8438H9.375V14.8438Z" fill="#AAFFE3"/>
<path d="M12.5 17.9688H18.75V24.2188H12.5V17.9688Z" fill="#F4F4E6"/>
<path d="M21.875 14.8438H26.5625V39.8438H21.875V14.8438Z" fill="#388E75"/>
<path d="M26.5625 14.8438H42.1875V39.8438H26.5625V14.8438Z" fill="#AAFFE3"/>
<path d="M6.25 17.1875H9.375V20.3125H6.25V17.1875Z" fill="#388E75"/>
<path d="M6.25 32.8125H9.375V35.9375H6.25V32.8125Z" fill="#388E75"/>
<path d="M33.5938 17.9688H37.5L35.1562 21.875H39.0625L33.5938 28.9062V25H29.6875L33.5938 17.9688Z" fill="#FCF05A"/>
<path d="M11.7188 26.5625H19.5312V28.125H11.7188V26.5625Z" fill="#FCF05A"/>
<path d="M11.7188 29.6875H14.8438V31.25H11.7188V29.6875Z" fill="#FCF05A"/>
<path d="M16.4062 29.6875H19.5312V31.25H16.4062V29.6875Z" fill="#FCF05A"/>
<path d="M27.3438 5.46875H41.4062V8.59375H27.3438V5.46875Z" fill="#BFE0FF"/>
<path d="M28.9062 8.59375H32.0312V11.7188H28.9062V8.59375Z" fill="#69ACDE"/>
<path d="M36.7188 8.59375H39.8438V11.7188H36.7188V8.59375Z" fill="#69ACDE"/>
<path d="M46.0938 10.9375H40.625V9.375H41.4062C41.6135 9.375 41.8122 9.29269 41.9587 9.14618C42.1052 8.99966 42.1875 8.80095 42.1875 8.59375V7.8125H42.9688C43.5904 7.8125 44.1865 7.56557 44.626 7.12603C45.0656 6.68649 45.3125 6.09035 45.3125 5.46875V1.5625H43.75V5.46875C43.75 5.67595 43.6677 5.87466 43.5212 6.02118C43.3747 6.16769 43.176 6.25 42.9688 6.25H42.1875V5.46875C42.1875 5.26155 42.1052 5.06284 41.9587 4.91632C41.8122 4.76981 41.6135 4.6875 41.4062 4.6875H27.3438C27.1365 4.6875 26.9378 4.76981 26.7913 4.91632C26.6448 5.06284 26.5625 5.26155 26.5625 5.46875V8.59375C26.5625 8.80095 26.6448 8.99966 26.7913 9.14618C26.9378 9.29269 27.1365 9.375 27.3438 9.375H28.125V10.9375H3.90625C3.28465 10.9375 2.68851 11.1844 2.24897 11.624C1.80943 12.0635 1.5625 12.6596 1.5625 13.2812V44.5312C1.5625 44.7385 1.64481 44.9372 1.79132 45.0837C1.93784 45.2302 2.13655 45.3125 2.34375 45.3125H5.46875V47.6562C5.46875 47.8635 5.55106 48.0622 5.69757 48.2087C5.84409 48.3552 6.0428 48.4375 6.25 48.4375H14.0625C14.2697 48.4375 14.4684 48.3552 14.6149 48.2087C14.7614 48.0622 14.8438 47.8635 14.8438 47.6562V45.3125H35.1562V47.6562C35.1562 47.8635 35.2386 48.0622 35.3851 48.2087C35.5316 48.3552 35.7303 48.4375 35.9375 48.4375H43.75C43.9572 48.4375 44.1559 48.3552 44.3024 48.2087C44.4489 48.0622 44.5312 47.8635 44.5312 47.6562V45.3125H47.6562C47.8635 45.3125 48.0622 45.2302 48.2087 45.0837C48.3552 44.9372 48.4375 44.7385 48.4375 44.5312V13.2812C48.4375 12.6596 48.1906 12.0635 47.751 11.624C47.3115 11.1844 46.7154 10.9375 46.0938 10.9375ZM28.125 6.25H40.625V7.8125H28.125V6.25ZM39.0625 9.375V10.9375H37.5V9.375H39.0625ZM35.9375 9.375V10.9375H32.8125V9.375H35.9375ZM31.25 9.375V10.9375H29.6875V9.375H31.25ZM13.2812 46.875H7.03125V45.3125H13.2812V46.875ZM42.9688 46.875H36.7188V45.3125H42.9688V46.875ZM46.875 43.75H3.125V40.625H46.875V43.75ZM8.59375 35.1562H7.03125V33.5938H8.59375V35.1562ZM8.59375 19.5312H7.03125V17.9688H8.59375V19.5312ZM10.1562 39.0625V15.625H21.0938V39.0625H10.1562ZM22.6562 39.0625V15.625H25.7812V39.0625H22.6562ZM27.3438 39.0625V15.625H41.4062V39.0625H27.3438ZM46.875 39.0625H42.9688V14.8438C42.9688 14.6365 42.8864 14.4378 42.7399 14.2913C42.5934 14.1448 42.3947 14.0625 42.1875 14.0625H9.375C9.1678 14.0625 8.96909 14.1448 8.82257 14.2913C8.67606 14.4378 8.59375 14.6365 8.59375 14.8438V16.4062H6.25C6.0428 16.4062 5.84409 16.4886 5.69757 16.6351C5.55106 16.7816 5.46875 16.9803 5.46875 17.1875V20.3125C5.46875 20.5197 5.55106 20.7184 5.69757 20.8649C5.84409 21.0114 6.0428 21.0938 6.25 21.0938H8.59375V32.0312H6.25C6.0428 32.0312 5.84409 32.1136 5.69757 32.2601C5.55106 32.4066 5.46875 32.6053 5.46875 32.8125V35.9375C5.46875 36.1447 5.55106 36.3434 5.69757 36.4899C5.84409 36.6364 6.0428 36.7188 6.25 36.7188H8.59375V39.0625H3.125V13.2812C3.125 13.074 3.20731 12.8753 3.35382 12.7288C3.50034 12.5823 3.69905 12.5 3.90625 12.5H46.0938C46.301 12.5 46.4997 12.5823 46.6462 12.7288C46.7927 12.8753 46.875 13.074 46.875 13.2812V39.0625Z" fill="#222222"/>
<path d="M18.75 17.1875H12.5C12.2928 17.1875 12.0941 17.2698 11.9476 17.4163C11.8011 17.5628 11.7188 17.7615 11.7188 17.9688V24.2188C11.7188 24.426 11.8011 24.6247 11.9476 24.7712C12.0941 24.9177 12.2928 25 12.5 25H18.75C18.9572 25 19.1559 24.9177 19.3024 24.7712C19.4489 24.6247 19.5312 24.426 19.5312 24.2188V17.9688C19.5312 17.7615 19.4489 17.5628 19.3024 17.4163C19.1559 17.2698 18.9572 17.1875 18.75 17.1875ZM17.9688 23.4375H13.2812V18.75H17.9688V23.4375Z" fill="#222222"/>
<path d="M34.2102 29.3859L39.6789 22.3547C39.7687 22.2393 39.8243 22.101 39.8394 21.9555C39.8545 21.81 39.8284 21.6633 39.7642 21.5319C39.6999 21.4005 39.6001 21.2898 39.4761 21.2123C39.3521 21.1349 39.2088 21.0938 39.0625 21.0938H36.5368L38.1696 18.3711C38.2408 18.2526 38.2793 18.1173 38.2811 17.979C38.2829 17.8407 38.248 17.7044 38.1799 17.5841C38.1118 17.4637 38.013 17.3636 37.8935 17.2939C37.7741 17.2243 37.6383 17.1875 37.5 17.1875H33.5938C33.4545 17.1875 33.3178 17.2247 33.1977 17.2953C33.0777 17.3659 32.9787 17.4673 32.911 17.5891L29.0047 24.6203C28.9386 24.7392 28.9047 24.8734 28.9063 25.0094C28.908 25.1455 28.9451 25.2788 29.0141 25.3961C29.0831 25.5134 29.1815 25.6106 29.2996 25.6782C29.4177 25.7457 29.5515 25.7813 29.6875 25.7812H32.8125V28.9062C32.8125 29.0691 32.8635 29.2279 32.9581 29.3604C33.0528 29.4929 33.1866 29.5925 33.3407 29.6453C33.4222 29.6731 33.5077 29.6873 33.5938 29.6875C33.7127 29.6875 33.83 29.6603 33.9369 29.608C34.0437 29.5558 34.1372 29.4798 34.2102 29.3859ZM31.0157 24.2188L34.0547 18.75H36.1203L34.4875 21.4727C34.4164 21.5911 34.3779 21.7264 34.376 21.8646C34.3742 22.0028 34.409 22.139 34.477 22.2593C34.545 22.3797 34.6437 22.4798 34.763 22.5495C34.8824 22.6193 35.0181 22.6561 35.1563 22.6562H37.4649L34.375 26.6289V25C34.375 24.7928 34.2927 24.5941 34.1462 24.4476C33.9997 24.3011 33.801 24.2188 33.5938 24.2188H31.0157Z" fill="#222222"/>
<path d="M11.7188 26.5625H19.5312V28.125H11.7188V26.5625Z" fill="#222222"/>
<path d="M11.7188 29.6875H14.8438V31.25H11.7188V29.6875Z" fill="#222222"/>
<path d="M16.4062 29.6875H19.5312V31.25H16.4062V29.6875Z" fill="#222222"/>
<path d="M38.2812 35.9375H36.7188V37.5H39.0625C39.2697 37.5 39.4684 37.4177 39.6149 37.2712C39.7614 37.1247 39.8438 36.926 39.8438 36.7188V32.0312H38.2812V35.9375Z" fill="#222222"/>
<path d="M33.5938 35.9375H35.1562V37.5H33.5938V35.9375Z" fill="#222222"/>
<path d="M30.4688 35.9375H32.0312V37.5H30.4688V35.9375Z" fill="#222222"/>
</svg>
