<svg width="50" height="50" viewBox="0 0 50 50" fill="none" xmlns="http://www.w3.org/2000/svg">
<path d="M35.1562 7.03125H41.4062V14.8438H35.1562V7.03125Z" fill="#E6CDEC"/>
<path d="M36.7188 7.03125H41.4062V14.8438H36.7188V7.03125Z" fill="#E6CDEC"/>
<path d="M41.4062 47.6562H46.0938V42.9688H39.8438L41.4062 47.6562Z" fill="#E6CDEC"/>
<path d="M8.59375 47.6562H3.90625V42.9688H10.1562L8.59375 47.6562Z" fill="#E6CDEC"/>
<path d="M46.0938 14.8438H3.90625C2.61183 14.8438 1.5625 15.8931 1.5625 17.1875V40.625C1.5625 41.9194 2.61183 42.9688 3.90625 42.9688H46.0938C47.3882 42.9688 48.4375 41.9194 48.4375 40.625V17.1875C48.4375 15.8931 47.3882 14.8438 46.0938 14.8438Z" fill="#E7D8E9"/>
<path d="M6.25 17.1875H46.875C47.2894 17.1875 47.6868 17.3521 47.9799 17.6451C48.2729 17.9382 48.4375 18.3356 48.4375 18.75V40.625C48.4375 41.2466 48.1906 41.8427 47.751 42.2823C47.3115 42.7218 46.7154 42.9688 46.0938 42.9688H6.25C5.6284 42.9688 5.03226 42.7218 4.59272 42.2823C4.15318 41.8427 3.90625 41.2466 3.90625 40.625V19.5312C3.90625 18.9096 4.15318 18.3135 4.59272 17.874C5.03226 17.4344 5.6284 17.1875 6.25 17.1875Z" fill="#E6CDEC"/>
<path d="M7.03125 18.75H24.2188V39.0625H7.03125V18.75Z" fill="#FF5564"/>
<path d="M28.125 18.75H44.5312V23.4375H28.125V18.75Z" fill="#A0CFFC"/>
<path d="M30.4688 20.3125H44.5312V23.4375H30.4688V20.3125Z" fill="#B0DBFF"/>
<path d="M41.4062 2.34375H35.1562C34.2933 2.34375 33.5938 3.04331 33.5938 3.90625V5.46875C33.5938 6.33169 34.2933 7.03125 35.1562 7.03125H41.4062C42.2692 7.03125 42.9688 6.33169 42.9688 5.46875V3.90625C42.9688 3.04331 42.2692 2.34375 41.4062 2.34375Z" fill="#FF8C96"/>
<path d="M42.9688 5.46875V3.90625H37.5C37.0856 3.90625 36.6882 4.07087 36.3951 4.3639C36.1021 4.65692 35.9375 5.05435 35.9375 5.46875V7.03125H41.4062C41.8207 7.03125 42.2181 6.86663 42.5111 6.5736C42.8041 6.28058 42.9688 5.88315 42.9688 5.46875Z" fill="#FF5564"/>
<path d="M5.46875 22.6562H8.59375V25.7812H5.46875V22.6562Z" fill="#F1FBFF"/>
<path d="M5.46875 32.0312H8.59375V35.1562H5.46875V32.0312Z" fill="#F1FBFF"/>
<path d="M16.9086 26.9531L18.3594 21.875H14.0625L11.7188 30.0781H15.625L14.8438 35.9375L21.0938 26.9531H16.9086Z" fill="#FDDA5F"/>
<path d="M31.25 28.125L30.4688 27.4539C29.7323 27.644 29.0905 28.0962 28.6636 28.7257C28.2367 29.3553 28.0541 30.1188 28.1499 30.8734C28.2458 31.6279 28.6135 32.3216 29.1842 32.8244C29.7549 33.3272 30.4894 33.6046 31.25 33.6046C32.0106 33.6046 32.7451 33.3272 33.3158 32.8244C33.8865 32.3216 34.2543 31.6279 34.3501 30.8734C34.4459 30.1188 34.2633 29.3553 33.8364 28.7257C33.4095 28.0962 32.7677 27.644 32.0313 27.4539L31.25 28.125Z" fill="#FDDA5F"/>
<path d="M44.421 29.6875C44.2309 28.9511 43.7787 28.3092 43.1492 27.8824C42.5196 27.4555 41.756 27.2728 41.0015 27.3687C40.247 27.4645 39.5533 27.8322 39.0505 28.403C38.5477 28.9737 38.2703 29.7082 38.2703 30.4688C38.2703 31.2294 38.5477 31.9639 39.0505 32.5346C39.5533 33.1053 40.247 33.473 41.0015 33.5689C41.756 33.6647 42.5196 33.4821 43.1492 33.0552C43.7787 32.6283 44.2309 31.9865 44.421 31.25L43.7499 30.4688L44.421 29.6875Z" fill="#AAF464"/>
<path d="M11.7188 30.8594H14.7321L14.0688 35.8344C14.0461 36.008 14.0823 36.1842 14.1718 36.3348C14.2612 36.4853 14.3987 36.6015 14.562 36.6645C14.7254 36.7276 14.9052 36.734 15.0726 36.6826C15.24 36.6312 15.3853 36.5251 15.4852 36.3813L21.7352 27.3969C21.816 27.2797 21.8633 27.1427 21.872 27.0006C21.8806 26.8586 21.8503 26.7168 21.7843 26.5907C21.7183 26.4646 21.6191 26.359 21.4974 26.2852C21.3757 26.2113 21.2361 26.1722 21.0938 26.1719H17.9446L19.111 22.0898C19.1442 21.9735 19.15 21.8511 19.1279 21.7321C19.1058 21.6132 19.0563 21.501 18.9835 21.4045C18.9106 21.3079 18.8163 21.2295 18.708 21.1756C18.5997 21.1217 18.4804 21.0937 18.3594 21.0938H14.0625C13.8928 21.0938 13.7278 21.1491 13.5924 21.2513C13.4569 21.3535 13.3584 21.497 13.3117 21.6602L10.968 29.8633C10.9347 29.9795 10.9289 30.1019 10.951 30.2208C10.9731 30.3397 11.0225 30.4518 11.0952 30.5484C11.168 30.6449 11.2622 30.7233 11.3704 30.7772C11.4786 30.8312 11.5979 30.8593 11.7188 30.8594ZM14.6516 22.6563H17.3235L16.1571 26.7383C16.1238 26.8545 16.118 26.9769 16.1401 27.0958C16.1621 27.2147 16.2115 27.3268 16.2843 27.4234C16.3571 27.5199 16.4513 27.5983 16.5595 27.6522C16.6677 27.7062 16.7869 27.7343 16.9078 27.7344H19.5985L16.0446 32.8438L16.4 30.1812C16.4147 30.0709 16.4057 29.9586 16.3734 29.852C16.3412 29.7454 16.2866 29.647 16.2132 29.5632C16.1398 29.4795 16.0493 29.4124 15.9479 29.3665C15.8465 29.3205 15.7364 29.2968 15.625 29.2969H12.7547L14.6516 22.6563Z" fill="#222222"/>
<path d="M40.625 36.7188C40.4178 36.7188 40.2191 36.8011 40.0726 36.9476C39.9261 37.0941 39.8438 37.2928 39.8438 37.5V39.0625C39.8438 39.2697 39.9261 39.4684 40.0726 39.6149C40.2191 39.7614 40.4178 39.8438 40.625 39.8438C40.8322 39.8438 41.0309 39.7614 41.1774 39.6149C41.3239 39.4684 41.4062 39.2697 41.4062 39.0625V37.5C41.4062 37.2928 41.3239 37.0941 41.1774 36.9476C41.0309 36.8011 40.8322 36.7188 40.625 36.7188Z" fill="#222222"/>
<path d="M36.7188 36.7188C36.5115 36.7188 36.3128 36.8011 36.1663 36.9476C36.0198 37.0941 35.9375 37.2928 35.9375 37.5V39.0625C35.9375 39.2697 36.0198 39.4684 36.1663 39.6149C36.3128 39.7614 36.5115 39.8438 36.7188 39.8438C36.926 39.8438 37.1247 39.7614 37.2712 39.6149C37.4177 39.4684 37.5 39.2697 37.5 39.0625V37.5C37.5 37.2928 37.4177 37.0941 37.2712 36.9476C37.1247 36.8011 36.926 36.7188 36.7188 36.7188Z" fill="#222222"/>
<path d="M44.5312 36.7188C44.324 36.7188 44.1253 36.8011 43.9788 36.9476C43.8323 37.0941 43.75 37.2928 43.75 37.5V39.0625C43.75 39.2697 43.8323 39.4684 43.9788 39.6149C44.1253 39.7614 44.324 39.8438 44.5312 39.8438C44.7385 39.8438 44.9372 39.7614 45.0837 39.6149C45.2302 39.4684 45.3125 39.2697 45.3125 39.0625V37.5C45.3125 37.2928 45.2302 37.0941 45.0837 36.9476C44.9372 36.8011 44.7385 36.7188 44.5312 36.7188Z" fill="#222222"/>
<path d="M46.0938 14.0625H42.1875V7.66875C42.6429 7.50775 43.0374 7.20998 43.3171 6.81617C43.5968 6.42237 43.748 5.95177 43.75 5.46875V3.90625C43.75 3.28465 43.5031 2.68851 43.0635 2.24897C42.624 1.80943 42.0279 1.5625 41.4062 1.5625H35.1562C34.5346 1.5625 33.9385 1.80943 33.499 2.24897C33.0594 2.68851 32.8125 3.28465 32.8125 3.90625V5.46875C32.8145 5.95177 32.9657 6.42237 33.2454 6.81617C33.5251 7.20998 33.9196 7.50775 34.375 7.66875V14.0625H3.90625C3.07745 14.0625 2.28259 14.3917 1.69654 14.9778C1.11049 15.5638 0.78125 16.3587 0.78125 17.1875V40.625C0.783839 41.3158 1.01525 41.9863 1.4393 42.5316C1.86335 43.0769 2.45614 43.4664 3.125 43.6391V47.6562C3.125 47.8635 3.20731 48.0622 3.35382 48.2087C3.50034 48.3552 3.69905 48.4375 3.90625 48.4375H8.59375C8.75765 48.4374 8.91736 48.3857 9.05028 48.2898C9.18319 48.1939 9.28258 48.0586 9.33437 47.9031L10.7188 43.75H39.2812L40.6656 47.9031C40.7174 48.0586 40.8168 48.1939 40.9497 48.2898C41.0826 48.3857 41.2423 48.4374 41.4062 48.4375H46.0938C46.301 48.4375 46.4997 48.3552 46.6462 48.2087C46.7927 48.0622 46.875 47.8635 46.875 47.6562V43.6391C47.5439 43.4664 48.1367 43.0769 48.5607 42.5316C48.9848 41.9863 49.2162 41.3158 49.2188 40.625V17.1875C49.2188 16.3587 48.8895 15.5638 48.3035 14.9778C47.7174 14.3917 46.9226 14.0625 46.0938 14.0625ZM34.375 3.90625C34.375 3.69905 34.4573 3.50034 34.6038 3.35382C34.7503 3.20731 34.949 3.125 35.1562 3.125H41.4062C41.6135 3.125 41.8122 3.20731 41.9587 3.35382C42.1052 3.50034 42.1875 3.69905 42.1875 3.90625V5.46875C42.1875 5.67595 42.1052 5.87466 41.9587 6.02118C41.8122 6.16769 41.6135 6.25 41.4062 6.25H35.1562C34.949 6.25 34.7503 6.16769 34.6038 6.02118C34.4573 5.87466 34.375 5.67595 34.375 5.46875V3.90625ZM40.625 7.8125V14.0625H35.9375V7.8125H40.625ZM8.03047 46.875H4.6875V43.75H9.07266L8.03047 46.875ZM45.3125 46.875H41.9695L40.9273 43.75H45.3125V46.875ZM47.6562 40.625C47.6562 41.0394 47.4916 41.4368 47.1986 41.7299C46.9056 42.0229 46.5082 42.1875 46.0938 42.1875H3.90625C3.49185 42.1875 3.09442 42.0229 2.8014 41.7299C2.50837 41.4368 2.34375 41.0394 2.34375 40.625V17.1875C2.34375 16.7731 2.50837 16.3757 2.8014 16.0826C3.09442 15.7896 3.49185 15.625 3.90625 15.625H46.0938C46.5082 15.625 46.9056 15.7896 47.1986 16.0826C47.4916 16.3757 47.6562 16.7731 47.6562 17.1875V40.625Z" fill="#222222"/>
<path d="M44.5312 17.9688H28.125C27.9178 17.9688 27.7191 18.0511 27.5726 18.1976C27.4261 18.3441 27.3438 18.5428 27.3438 18.75V23.4375C27.3438 23.6447 27.4261 23.8434 27.5726 23.9899C27.7191 24.1364 27.9178 24.2188 28.125 24.2188H44.5312C44.7385 24.2188 44.9372 24.1364 45.0837 23.9899C45.2302 23.8434 45.3125 23.6447 45.3125 23.4375V18.75C45.3125 18.5428 45.2302 18.3441 45.0837 18.1976C44.9372 18.0511 44.7385 17.9688 44.5312 17.9688ZM43.75 22.6562H28.9062V19.5312H43.75V22.6562Z" fill="#222222"/>
<path d="M24.2188 17.9688H7.03125C6.82405 17.9688 6.62534 18.0511 6.47882 18.1976C6.33231 18.3441 6.25 18.5428 6.25 18.75V21.875H5.46875C5.26155 21.875 5.06284 21.9573 4.91632 22.1038C4.76981 22.2503 4.6875 22.449 4.6875 22.6562V25.7812C4.6875 25.9885 4.76981 26.1872 4.91632 26.3337C5.06284 26.4802 5.26155 26.5625 5.46875 26.5625H6.25V31.25H5.46875C5.26155 31.25 5.06284 31.3323 4.91632 31.4788C4.76981 31.6253 4.6875 31.824 4.6875 32.0312V35.1562C4.6875 35.3635 4.76981 35.5622 4.91632 35.7087C5.06284 35.8552 5.26155 35.9375 5.46875 35.9375H6.25V39.0625C6.25 39.2697 6.33231 39.4684 6.47882 39.6149C6.62534 39.7614 6.82405 39.8438 7.03125 39.8438H24.2188C24.426 39.8438 24.6247 39.7614 24.7712 39.6149C24.9177 39.4684 25 39.2697 25 39.0625V18.75C25 18.5428 24.9177 18.3441 24.7712 18.1976C24.6247 18.0511 24.426 17.9688 24.2188 17.9688ZM6.25 23.4375H7.8125V25H6.25V23.4375ZM6.25 34.375V32.8125H7.8125V34.375H6.25ZM23.4375 38.2812H7.8125V35.9375H8.59375C8.80095 35.9375 8.99966 35.8552 9.14618 35.7087C9.29269 35.5622 9.375 35.3635 9.375 35.1562V32.0312C9.375 31.824 9.29269 31.6253 9.14618 31.4788C8.99966 31.3323 8.80095 31.25 8.59375 31.25H7.8125V26.5625H8.59375C8.80095 26.5625 8.99966 26.4802 9.14618 26.3337C9.29269 26.1872 9.375 25.9885 9.375 25.7812V22.6562C9.375 22.449 9.29269 22.2503 9.14618 22.1038C8.99966 21.9573 8.80095 21.875 8.59375 21.875H7.8125V19.5312H23.4375V38.2812Z" fill="#222222"/>
<path d="M31.25 26.5625C30.4774 26.5625 29.7222 26.7916 29.0798 27.2208C28.4374 27.65 27.9368 28.2601 27.6411 28.9739C27.3454 29.6877 27.2681 30.4731 27.4188 31.2308C27.5695 31.9886 27.9416 32.6846 28.4879 33.2309C29.0342 33.7772 29.7302 34.1492 30.4879 34.2999C31.2457 34.4507 32.0311 34.3733 32.7449 34.0777C33.4586 33.782 34.0687 33.2813 34.4979 32.6389C34.9272 31.9966 35.1563 31.2413 35.1563 30.4688C35.155 29.4331 34.7431 28.4403 34.0108 27.708C33.2785 26.9757 32.2856 26.5637 31.25 26.5625ZM31.25 32.8125C30.6978 32.8135 30.163 32.6191 29.7404 32.2637C29.3178 31.9082 29.0347 31.4147 28.9411 30.8705C28.8475 30.3262 28.9496 29.7665 29.2292 29.2903C29.5088 28.8141 29.9479 28.4522 30.4688 28.2687V29.6875C30.4688 29.8947 30.5511 30.0934 30.6976 30.2399C30.8441 30.3864 31.0428 30.4688 31.25 30.4688C31.4572 30.4688 31.6559 30.3864 31.8024 30.2399C31.9489 30.0934 32.0313 29.8947 32.0313 29.6875V28.2687C32.5521 28.4522 32.9912 28.8141 33.2708 29.2903C33.5504 29.7665 33.6525 30.3262 33.5589 30.8705C33.4653 31.4147 33.1822 31.9082 32.7596 32.2637C32.337 32.6191 31.8022 32.8135 31.25 32.8125Z" fill="#222222"/>
<path d="M41.4063 26.5625C40.6337 26.5625 39.8784 26.7916 39.2361 27.2208C38.5937 27.65 38.093 28.2601 37.7973 28.9739C37.5017 29.6877 37.4243 30.4731 37.5751 31.2308C37.7258 31.9886 38.0978 32.6846 38.6441 33.2309C39.1904 33.7772 39.8864 34.1492 40.6442 34.2999C41.4019 34.4507 42.1873 34.3733 42.9011 34.0777C43.6149 33.782 44.225 33.2813 44.6542 32.6389C45.0834 31.9966 45.3125 31.2413 45.3125 30.4688C45.3113 29.4331 44.8993 28.4403 44.167 27.708C43.4347 26.9757 42.4419 26.5637 41.4063 26.5625ZM42.1875 31.25H43.6063C43.422 31.7713 43.0593 32.2106 42.5824 32.4903C42.1056 32.7701 41.5451 32.8722 41.0002 32.7787C40.4553 32.6853 39.961 32.4021 39.6046 31.9794C39.2482 31.5567 39.0528 31.0216 39.0528 30.4688C39.0528 29.9159 39.2482 29.3808 39.6046 28.9581C39.961 28.5354 40.4553 28.2522 41.0002 28.1588C41.5451 28.0653 42.1056 28.1674 42.5824 28.4472C43.0593 28.7269 43.422 29.1662 43.6063 29.6875H42.1875C41.9803 29.6875 41.7816 29.7698 41.6351 29.9163C41.4886 30.0628 41.4063 30.2615 41.4063 30.4688C41.4063 30.676 41.4886 30.8747 41.6351 31.0212C41.7816 31.1677 41.9803 31.25 42.1875 31.25Z" fill="#222222"/>
</svg>
