<svg width="30" height="30" viewBox="0 0 30 30" fill="none" xmlns="http://www.w3.org/2000/svg">
<g clip-path="url(#clip0_4184_2617)">
<mask id="mask0_4184_2617" style="mask-type:luminance" maskUnits="userSpaceOnUse" x="0" y="0" width="30" height="30">
<path d="M30 0H0V30H30V0Z" fill="white"/>
</mask>
<g mask="url(#mask0_4184_2617)">
<path d="M29.5019 3.1793V23.7445C29.5019 25.2252 28.3013 26.4258 26.8207 26.4258H25.5469H4.45313H3.1793C1.69863 26.4258 0.498047 25.2252 0.498047 23.7445V3.1793C0.498047 1.69863 1.69863 0.498047 3.1793 0.498047H26.8207C28.3013 0.498047 29.5019 1.69863 29.5019 3.1793Z" fill="#009688"/>
<path d="M15 24.4483C21.0676 24.4483 25.9863 19.5295 25.9863 13.4619C25.9863 7.39434 21.0676 2.47559 15 2.47559C8.93244 2.47559 4.01367 7.39434 4.01367 13.4619C4.01367 19.5295 8.93244 24.4483 15 24.4483Z" fill="#DADAEB"/>
<path d="M26.8652 4.01367C27.3506 4.01367 27.7441 3.62017 27.7441 3.13476C27.7441 2.64936 27.3506 2.25586 26.8652 2.25586C26.3798 2.25586 25.9863 2.64936 25.9863 3.13476C25.9863 3.62017 26.3798 4.01367 26.8652 4.01367Z" fill="#FED92C"/>
<path d="M26.8652 24.668C27.3506 24.668 27.7441 24.2744 27.7441 23.789C27.7441 23.3036 27.3506 22.9102 26.8652 22.9102C26.3798 22.9102 25.9863 23.3036 25.9863 23.789C25.9863 24.2744 26.3798 24.668 26.8652 24.668Z" fill="#FED92C"/>
<path d="M25.5469 26.4258V28.4619C25.5469 29.0361 25.0811 29.5019 24.5068 29.5019H5.49316C4.91894 29.5019 4.45312 29.0361 4.45312 28.4619V26.4258H25.5469Z" fill="#009688"/>
<path d="M23.9877 13.3188C23.9883 13.3663 23.9888 13.4138 23.9888 13.4618C23.9888 16.7313 22.234 19.5989 19.6172 21.1716L19.5715 20.1667C19.4637 17.7527 18.2344 15.5595 16.3031 14.2007C16.4273 13.9827 16.4983 13.7307 16.4983 13.4618C16.4983 13.1847 16.4233 12.9257 16.292 12.7031C18.4342 11.7093 20.9473 11.7421 23.0924 12.8554L23.9854 13.3188H23.9877Z" fill="#B9B9C8"/>
<path d="M23.9877 13.3188H23.9854L23.0924 12.8554C20.9473 11.7421 18.4342 11.7093 16.292 12.703C16.0318 12.2607 15.5502 11.9636 15 11.9636C14.9959 11.9636 14.9924 11.9636 14.9883 11.9636C15.1992 9.61046 16.4842 7.45124 18.5209 6.1505L19.3687 5.6085L19.3693 5.60791C22.084 7.1243 23.9356 10.0071 23.9877 13.3188Z" fill="#1E538F"/>
<path d="M19.5715 20.1667L19.6172 21.1715C18.2672 21.9836 16.6869 22.4507 15 22.4507C13.415 22.4507 11.925 22.0387 10.6307 21.3157L10.6313 21.3151L11.4791 20.7731C13.5158 19.4723 14.8008 17.3132 15.0117 14.96C15.5654 14.956 16.0477 14.6512 16.3031 14.2007C18.2344 15.5594 19.4637 17.7526 19.5715 20.1667Z" fill="#1E538F"/>
<path d="M19.3693 5.6081L19.3688 5.60869L18.5209 6.1507C16.4842 7.45144 15.1992 9.61066 14.9883 11.9638C14.4346 11.9679 13.9523 12.2726 13.6969 12.7232C11.7656 11.3643 10.5363 9.17122 10.4285 6.75712L10.3828 5.75224C11.7328 4.94014 13.3131 4.47314 15 4.47314C16.585 4.47314 18.075 4.88506 19.3693 5.6081Z" fill="#B9B9C8"/>
<path d="M16.292 12.7031C16.4233 12.9257 16.4983 13.1847 16.4983 13.4618C16.4983 13.7308 16.4273 13.9827 16.3031 14.2007C16.0477 14.6513 15.5654 14.956 15.0117 14.9601C15.0076 14.9601 15.0041 14.9601 15 14.9601C14.4498 14.9601 13.9682 14.663 13.708 14.2206C13.5767 13.998 13.5017 13.739 13.5017 13.4618C13.5017 13.1929 13.5727 12.941 13.6969 12.723C13.9523 12.2724 14.4346 11.9677 14.9883 11.9636H15C15.5502 11.9636 16.0318 12.2607 16.292 12.7031Z" fill="#FED92C"/>
<path d="M15 14.9603H15.0117C14.8008 17.3134 13.5158 19.4726 11.4791 20.7734L10.6313 21.3153L10.6307 21.3159C7.91604 19.7995 6.06444 16.9167 6.0123 13.605H6.01464L6.90762 14.0685C9.05274 15.1817 11.5658 15.2145 13.708 14.2208C13.9682 14.6632 14.4498 14.9603 15 14.9603Z" fill="#B9B9C8"/>
<path d="M13.6969 12.7231C13.5727 12.9411 13.5017 13.193 13.5017 13.462C13.5017 13.7391 13.5767 13.9981 13.708 14.2208C11.5658 15.2145 9.05274 15.1817 6.90762 14.0684L6.01464 13.6049H6.0123C6.0117 13.5575 6.01116 13.51 6.01116 13.462C6.01116 10.1924 7.76604 7.32485 10.3828 5.7522L10.4285 6.75707C10.5363 9.17117 11.7656 11.3643 13.6969 12.7231Z" fill="#1E538F"/>
<path d="M3.57422 4.01367C4.05962 4.01367 4.45313 3.62017 4.45313 3.13476C4.45313 2.64936 4.05962 2.25586 3.57422 2.25586C3.08881 2.25586 2.69531 2.64936 2.69531 3.13476C2.69531 3.62017 3.08881 4.01367 3.57422 4.01367Z" fill="#FED92C"/>
<path d="M3.57422 24.668C4.05962 24.668 4.45313 24.2744 4.45313 23.789C4.45313 23.3036 4.05962 22.9102 3.57422 22.9102C3.08881 22.9102 2.69531 23.3036 2.69531 23.789C2.69531 24.2744 3.08881 24.668 3.57422 24.668Z" fill="#FED92C"/>
<path d="M15 24.8877C8.69982 24.8877 3.57422 19.7621 3.57422 13.4619C3.57422 7.16172 8.69982 2.03613 15 2.03613C21.3002 2.03613 26.4258 7.16172 26.4258 13.4619C26.4258 19.7621 21.3002 24.8877 15 24.8877ZM15 2.91504C9.18444 2.91504 4.45313 7.64634 4.45313 13.4619C4.45313 19.2775 9.18444 24.0088 15 24.0088C20.8156 24.0088 25.5469 19.2775 25.5469 13.4619C25.5469 7.64634 20.8156 2.91504 15 2.91504Z" fill="white"/>
<path d="M29.5019 9.67698C29.7446 9.67698 29.9414 9.48024 29.9414 9.23754C29.9414 8.99484 29.7446 8.7981 29.5019 8.7981C29.2592 8.7981 29.0625 8.99484 29.0625 9.23754C29.0625 9.48024 29.2592 9.67698 29.5019 9.67698Z" fill="white"/>
<path d="M11.0639 26.8653C11.3066 26.8653 11.5033 26.6685 11.5033 26.4258C11.5033 26.1831 11.3066 25.9863 11.0639 25.9863C10.8212 25.9863 10.6244 26.1831 10.6244 26.4258C10.6244 26.6685 10.8212 26.8653 11.0639 26.8653Z" fill="white"/>
<path d="M15 22.8902C9.80124 22.8902 5.57175 18.6607 5.57175 13.4619C5.57175 8.26322 9.80124 4.03369 15 4.03369C20.1988 4.03369 24.4283 8.26322 24.4283 13.4619C24.4283 18.6607 20.1988 22.8902 15 22.8902ZM15 4.9126C10.2859 4.9126 6.45066 8.74778 6.45066 13.4619C6.45066 18.1761 10.2859 22.0113 15 22.0113C19.7142 22.0113 23.5493 18.1761 23.5493 13.4619C23.5493 8.74778 19.7142 4.9126 15 4.9126Z" fill="white"/>
<path d="M14.9488 12.4013C14.707 12.3797 14.5287 12.1661 14.5504 11.9244C14.7757 9.41225 16.1561 7.13939 18.2844 5.7799L19.1318 5.23802C19.3363 5.10719 19.6081 5.16701 19.7388 5.3715C19.8695 5.57594 19.8098 5.8477 19.6053 5.97842L18.7577 6.52043C16.8711 7.72559 15.6256 9.77507 15.4258 12.0029C15.404 12.245 15.19 12.4231 14.9488 12.4013Z" fill="white"/>
<path d="M13.4441 13.0822C11.3928 11.6396 10.1013 9.28236 9.98934 6.77652L9.9441 5.7719C9.93312 5.52944 10.1209 5.32401 10.3633 5.31312C10.6066 5.30327 10.8112 5.48983 10.822 5.73229L10.8673 6.73698C10.9672 8.973 12.1195 11.0762 13.9497 12.3632C14.1482 12.5029 14.196 12.7769 14.0564 12.9755C13.9171 13.1738 13.6431 13.2221 13.4441 13.0822Z" fill="white"/>
<path d="M10.3001 15.374C7.84836 15.3254 6.3297 14.2113 5.81203 13.9951C5.59658 13.8833 5.51268 13.618 5.62442 13.4026C5.73621 13.1871 6.0015 13.1033 6.2169 13.215L7.10982 13.6784C9.09642 14.7094 11.4941 14.763 13.5233 13.8222C13.7436 13.7201 14.0048 13.8159 14.1068 14.036C14.209 14.2562 14.1133 14.5175 13.8931 14.6195C12.7477 15.1506 11.4988 15.3986 10.3001 15.374Z" fill="white"/>
<path d="M10.2612 21.5523C10.1305 21.3479 10.1902 21.0761 10.3947 20.9454L11.2423 20.4034C13.1289 19.1982 14.3744 17.1488 14.5742 14.921C14.5959 14.6792 14.81 14.5011 15.0512 14.5225C15.293 14.5442 15.4713 14.7577 15.4496 14.9994C15.3396 16.2264 14.9443 17.433 14.3063 18.4887C13.0387 20.5862 11.3189 21.342 10.8681 21.6858C10.7948 21.7327 10.3928 21.7581 10.2612 21.5523Z" fill="white"/>
<path d="M19.178 21.1914L19.1327 20.1866C19.0328 17.9507 17.8805 15.8474 16.0503 14.5604C15.8518 14.4208 15.804 14.1467 15.9436 13.9482C16.0832 13.7497 16.3573 13.7018 16.5559 13.8416C18.6073 15.2842 19.8988 17.6414 20.0107 20.1473L20.056 21.1519C20.0669 21.3943 19.8792 21.5998 19.6368 21.6107C19.3886 21.6211 19.1887 21.4291 19.178 21.1914Z" fill="white"/>
<path d="M23.783 13.7089L22.8901 13.2455C20.9034 12.2144 18.5057 12.1608 16.4766 13.1017C16.2563 13.2038 15.9951 13.108 15.8931 12.8879C15.7909 12.6677 15.8867 12.4065 16.1068 12.3044C18.3996 11.2414 21.0581 11.3046 23.2949 12.4654L24.1879 12.9288C24.4033 13.0406 24.4873 13.3059 24.3755 13.5213C24.264 13.7362 23.9992 13.8209 23.783 13.7089Z" fill="white"/>
<path d="M15 15.3996C13.9316 15.3996 13.0624 14.5304 13.0624 13.462C13.0624 12.3936 13.9316 11.5244 15 11.5244C16.0684 11.5244 16.9376 12.3936 16.9376 13.462C16.9376 14.5304 16.0684 15.3996 15 15.3996ZM15 12.4034C14.4162 12.4034 13.9413 12.8783 13.9413 13.462C13.9413 14.0458 14.4162 14.5207 15 14.5207C15.5837 14.5207 16.0586 14.0458 16.0586 13.462C16.0586 12.8783 15.5837 12.4034 15 12.4034Z" fill="white"/>
<path d="M3.57422 4.45313C2.8473 4.45313 2.25586 3.86168 2.25586 3.13477C2.25586 2.40786 2.8473 1.81641 3.57422 1.81641C4.30113 1.81641 4.89258 2.40786 4.89258 3.13477C4.89258 3.86168 4.30113 4.45313 3.57422 4.45313ZM3.57422 2.69532C3.33187 2.69532 3.13476 2.89242 3.13476 3.13477C3.13476 3.37711 3.33187 3.57422 3.57422 3.57422C3.81656 3.57422 4.01367 3.37711 4.01367 3.13477C4.01367 2.89242 3.81656 2.69532 3.57422 2.69532Z" fill="white"/>
<path d="M26.8652 4.45313C26.1383 4.45313 25.5469 3.86168 25.5469 3.13477C25.5469 2.40786 26.1383 1.81641 26.8652 1.81641C27.5921 1.81641 28.1836 2.40786 28.1836 3.13477C28.1836 3.86168 27.5921 4.45313 26.8652 4.45313ZM26.8652 2.69532C26.6229 2.69532 26.4258 2.89242 26.4258 3.13477C26.4258 3.37711 26.6229 3.57422 26.8652 3.57422C27.1076 3.57422 27.3047 3.37711 27.3047 3.13477C27.3047 2.89242 27.1076 2.69532 26.8652 2.69532Z" fill="white"/>
<path d="M3.57422 25.1074C2.8473 25.1074 2.25586 24.516 2.25586 23.789C2.25586 23.0621 2.8473 22.4707 3.57422 22.4707C4.30113 22.4707 4.89258 23.0621 4.89258 23.789C4.89258 24.516 4.30113 25.1074 3.57422 25.1074ZM3.57422 23.3496C3.33187 23.3496 3.13476 23.5467 3.13476 23.789C3.13476 24.0314 3.33187 24.2285 3.57422 24.2285C3.81656 24.2285 4.01367 24.0314 4.01367 23.789C4.01367 23.5467 3.81656 23.3496 3.57422 23.3496Z" fill="white"/>
<path d="M26.8652 25.1074C26.1383 25.1074 25.5469 24.516 25.5469 23.789C25.5469 23.0621 26.1383 22.4707 26.8652 22.4707C27.5921 22.4707 28.1836 23.0621 28.1836 23.789C28.1836 24.516 27.5921 25.1074 26.8652 25.1074ZM26.8652 23.3496C26.6229 23.3496 26.4258 23.5467 26.4258 23.789C26.4258 24.0314 26.6229 24.2285 26.8652 24.2285C27.1076 24.2285 27.3047 24.0314 27.3047 23.789C27.3047 23.5467 27.1076 23.3496 26.8652 23.3496Z" fill="white"/>
<path d="M26.8207 26.8652H12.8215C12.5788 26.8652 12.382 26.6685 12.382 26.4258C12.382 26.183 12.5788 25.9863 12.8215 25.9863H26.8207C28.0568 25.9863 29.0625 24.9807 29.0625 23.7445V10.9951C29.0625 10.7523 29.2592 10.5557 29.5019 10.5557C29.7447 10.5557 29.9414 10.7523 29.9414 10.9951V23.7445C29.9414 25.4652 28.5414 26.8652 26.8207 26.8652Z" fill="white"/>
<path d="M9.30588 26.8652H3.1793C1.45858 26.8652 0.0585938 25.4653 0.0585938 23.7445V3.1793C0.0585938 1.45858 1.45858 0.0585938 3.1793 0.0585938H26.8207C28.5414 0.0585938 29.9414 1.45858 29.9414 3.1793V7.47954C29.9414 7.7223 29.7447 7.91898 29.5019 7.91898C29.2592 7.91898 29.0625 7.7223 29.0625 7.47954V3.1793C29.0625 1.94314 28.0568 0.9375 26.8207 0.9375H3.1793C1.94314 0.9375 0.9375 1.94314 0.9375 3.1793V23.7445C0.9375 24.9807 1.94314 25.9863 3.1793 25.9863H9.30588C9.54864 25.9863 9.74532 26.183 9.74532 26.4258C9.74532 26.6686 9.54864 26.8652 9.30588 26.8652Z" fill="white"/>
<path d="M24.5068 29.9414H5.49316C4.67737 29.9414 4.01367 29.2777 4.01367 28.4619V26.4258C4.01367 26.1831 4.21038 25.9863 4.45313 25.9863H9.30588C9.54864 25.9863 9.74532 26.1831 9.74532 26.4258C9.74532 26.6686 9.54864 26.8653 9.30588 26.8653H4.89258V28.4619C4.89258 28.7931 5.16199 29.0625 5.49316 29.0625H24.5068C24.838 29.0625 25.1074 28.7931 25.1074 28.4619V26.8653H12.8215C12.5788 26.8653 12.382 26.6686 12.382 26.4258C12.382 26.1831 12.5788 25.9863 12.8215 25.9863H25.5469C25.7896 25.9863 25.9863 26.1831 25.9863 26.4258V28.4619C25.9863 29.2777 25.3226 29.9414 24.5068 29.9414Z" fill="white"/>
</g>
</g>
<defs>
<clipPath id="clip0_4184_2617">
<rect width="30" height="30" fill="white"/>
</clipPath>
</defs>
</svg>
