<svg width="20" height="20" viewBox="0 0 20 20" fill="none" xmlns="http://www.w3.org/2000/svg">
<g clip-path="url(#clip0_4036_973)">
<path d="M15.1493 0L20 20H15.8119L15.2259 17.6172H4.75059L4.16465 20H0L4.85129 0H15.1493ZM12.9297 2.38281H7.07031V3.55469H12.9297V2.38281ZM4.62473 14.4111C4.94285 14.9513 5.50703 15.2734 6.13305 15.2734H13.867C14.4929 15.2734 15.0571 14.9513 15.3753 14.4111C15.6963 13.8675 15.7054 13.2118 15.3993 12.6579L11.5318 5.69586C11.217 5.13281 10.6448 4.79691 10.0005 4.79691H9.99996C9.35566 4.79691 8.78344 5.13223 8.46875 5.69414L4.60121 12.6567C4.29453 13.2118 4.30371 13.8675 4.62473 14.4111Z" fill="#FFD600"/>
<path d="M10.0006 5.96887C10.103 5.96887 10.3582 5.99805 10.5081 6.26641L14.3745 13.2255C14.5227 13.4945 14.418 13.7279 14.3665 13.8155C14.3156 13.9013 14.1651 14.1016 13.867 14.1016H6.13305C5.83493 14.1016 5.68446 13.9013 5.63352 13.8155C5.58204 13.728 5.47731 13.4945 5.6261 13.2244L9.49247 6.26469C9.6418 5.99805 9.89759 5.96887 10.0006 5.96887ZM9.41407 12.9297H10.5859V11.7579H9.41407V12.9297ZM9.41407 10.586H10.5859V8.24223H9.41407V10.586Z" fill="#8B7500"/>
</g>
<defs>
<clipPath id="clip0_4036_973">
<rect width="20" height="20" fill="white" transform="matrix(-1 0 0 1 20 0)"/>
</clipPath>
</defs>
</svg>
