<svg width="20" height="20" viewBox="0 0 20 20" fill="none" xmlns="http://www.w3.org/2000/svg">
<g clip-path="url(#clip0_4126_19)">
<path d="M16.6484 7.61719H2.58594C2.26234 7.61719 2 7.35484 2 7.03125V5.85938C2 5.53578 2.26234 5.27344 2.58594 5.27344H16.6484C16.972 5.27344 17.2344 5.53578 17.2344 5.85938V7.03125C17.2344 7.35484 16.972 7.61719 16.6484 7.61719Z" fill="#A53309"/>
<path d="M3.28516 8.78906L4.34637 19.472C4.37617 19.7717 4.62828 20 4.92945 20H14.3045C14.6056 20 14.8577 19.7717 14.8875 19.472L15.9487 8.78906H3.28516ZM8.47519 15.8594H6.57231C6.12277 15.8594 5.8391 15.3715 6.06488 14.9805L7.01633 13.3325C7.17812 13.0523 7.53648 12.9562 7.81672 13.118C8.09699 13.2798 8.19301 13.6382 8.03117 13.9184L7.58723 14.6875H8.47519C8.79879 14.6875 9.06113 14.9498 9.06113 15.2734C9.06113 15.597 8.79883 15.8594 8.47519 15.8594ZM10.061 11.9409L9.61695 11.1719L9.17293 11.9409C9.01105 12.2212 8.65273 12.3172 8.37254 12.1554C8.09227 11.9936 7.99625 11.6352 8.15809 11.355L9.10953 9.70703C9.21422 9.52574 9.40762 9.41406 9.61695 9.41406C9.82629 9.41406 10.0197 9.52574 10.1244 9.70703L11.0758 11.355C11.2377 11.6352 11.1416 11.9936 10.8614 12.1554C10.7691 12.2087 10.6684 12.234 10.5689 12.234C10.3665 12.234 10.1695 12.1289 10.061 11.9409V11.9409ZM12.6616 15.8594H10.7587C10.4351 15.8594 10.1727 15.597 10.1727 15.2734C10.1727 14.9498 10.4351 14.6875 10.7587 14.6875H11.6466L11.2027 13.9185C11.0408 13.6382 11.1368 13.2799 11.4171 13.1181C11.6973 12.9563 12.0557 13.0523 12.2175 13.3325L13.1689 14.9805C13.3938 15.3698 13.113 15.8594 12.6616 15.8594V15.8594Z" fill="#FD7441"/>
<path d="M6.68744 4.10156V2.92953C6.68744 2.60594 6.94978 2.34359 7.27338 2.34359H11.9609C12.2845 2.34359 12.5468 2.60594 12.5468 2.92953V4.10156H15.7875L14.8731 0.443828C14.8079 0.183008 14.5735 0 14.3046 0H4.92963C4.66076 0 4.42639 0.183008 4.36119 0.443828L3.44678 4.10156H6.68744Z" fill="#FD7441"/>
</g>
<defs>
<clipPath id="clip0_4126_19">
<rect width="20" height="20" fill="white"/>
</clipPath>
</defs>
</svg>
