<svg width="20" height="20" viewBox="0 0 20 20" fill="none" xmlns="http://www.w3.org/2000/svg">
<g clip-path="url(#clip0_4036_967)">
<path d="M19 8.3332C19 4.29326 17.6859 -5.74431e-08 15.2501 -1.63915e-07C12.8568 -2.68529e-07 11.5318 4.2216 11.5001 8.19987L11.5001 8.3332C11.5001 12.3731 12.8143 16.6664 15.2501 16.6664C17.6859 16.6664 19 12.3731 19 8.3332ZM13.5834 8.3332C13.5834 6.41073 14.0201 4.1666 15.2501 4.1666C16.48 4.1666 16.9167 6.41073 16.9167 8.3332C16.9167 10.2557 16.48 12.4998 15.2501 12.4998C14.0201 12.4998 13.5834 10.2557 13.5834 8.3332Z" fill="#A7A7A7"/>
<path d="M5.16371 19.858L6.29203 18.933L7.42035 19.858C7.65034 20.0472 7.98117 20.0472 8.212 19.8589L9.34865 18.9322L10.4786 19.858C10.6661 20.0114 10.9245 20.043 11.142 19.9397C11.3611 19.8364 11.5003 19.6164 11.5003 19.3747L11.5003 13.8514C10.9378 12.2248 10.667 10.2482 10.667 8.3332L10.667 8.19987C10.6928 4.95659 11.5044 1.53581 13.1978 0L5.04205 -3.56497e-07C2.78542 -4.55138e-07 1.08378 3.67161 1.08378 8.54153L1.08378 19.3747C1.08378 19.6164 1.22295 19.8364 1.44128 19.9397C1.6596 20.043 1.91793 20.0114 2.1046 19.858L3.23458 18.9322L4.37123 19.8589C4.60289 20.0472 4.93372 20.0472 5.16371 19.858V19.858Z" fill="#49BEFF"/>
<path d="M12.3333 16.6665L13.1841 16.6665C12.8658 16.3782 12.5891 16.0065 12.3333 15.599L12.3333 16.6665Z" fill="#49BEFF"/>
</g>
<defs>
<clipPath id="clip0_4036_967">
<rect width="20" height="20" fill="white"/>
</clipPath>
</defs>
</svg>
