<svg width="20" height="20" viewBox="0 0 20 20" fill="none" xmlns="http://www.w3.org/2000/svg">
<g clip-path="url(#clip0_4036_982)">
<path d="M18.0762 8.22189C17.9207 8.1572 17.7409 8.19298 17.6221 8.31224L15.0497 10.8838C14.8747 11.0592 14.6533 11.1772 14.4116 11.2256L12.3283 11.6423C11.9133 11.7261 11.4934 11.5943 11.1996 11.3009C10.9034 11.0043 10.7756 10.5819 10.8578 10.1718L11.2253 8.33337H4.58332C4.35301 8.33337 4.16664 8.147 4.16664 7.91669C4.16664 7.68638 4.35301 7.50001 4.58332 7.50001H11.5779C11.5924 7.48396 11.6008 7.46376 11.6162 7.44833L13.2314 5.83333H4.58332C4.35301 5.83333 4.16664 5.64696 4.16664 5.41665C4.16664 5.18634 4.35301 4.99997 4.58332 4.99997H13.75C13.8387 4.99997 13.9164 5.0338 13.9839 5.08099L16.6878 2.37747C16.9157 2.14919 17.1916 1.96974 17.5081 1.8436C17.6522 1.78622 17.7523 1.65317 17.7677 1.49896C17.784 1.34435 17.7124 1.19419 17.583 1.10872C17.3088 0.928447 16.9922 0.833252 16.6667 0.833252H1.66668C0.747891 0.833369 0 1.58087 0 2.50005V18.7501C0 18.9185 0.101719 19.0707 0.257148 19.135C0.308438 19.1565 0.36293 19.1667 0.416641 19.1667C0.524883 19.1667 0.631484 19.1244 0.71125 19.0447L4.75586 15.0001H16.6667C17.5855 15.0001 18.3334 14.2526 18.3334 13.3334V8.60681C18.3333 8.43837 18.2316 8.28618 18.0762 8.22189ZM9.58332 10.8334H4.58332C4.35301 10.8334 4.16664 10.647 4.16664 10.4167C4.16664 10.1864 4.35301 10 4.58332 10H9.58332C9.81363 10 10 10.1864 10 10.4167C10 10.647 9.81363 10.8334 9.58332 10.8334Z" fill="#4FB9DB"/>
<path d="M18.4049 2.5C17.9842 2.5 17.5732 2.67051 17.277 2.96711L12.2054 8.03793C12.1468 8.09613 12.1077 8.17016 12.0914 8.25074L11.6747 10.3349C11.6471 10.4716 11.6902 10.6128 11.7887 10.7113C11.8676 10.7902 11.9742 10.8333 12.0833 10.8333C12.1102 10.8333 12.1378 10.8305 12.1646 10.8252L14.2472 10.4085C14.3286 10.3922 14.4026 10.3528 14.4604 10.2946L19.5328 5.22297C19.5328 5.22297 19.5328 5.22297 19.5328 5.22258C19.8299 4.92555 19.9999 4.51457 19.9999 4.09504C20 3.21535 19.2847 2.5 18.4049 2.5ZM17.7441 5.83328L16.6665 4.75566L17.2556 4.16648L18.3333 5.24418L17.7441 5.83328Z" fill="#A53309"/>
</g>
<defs>
<clipPath id="clip0_4036_982">
<rect width="20" height="20" fill="white"/>
</clipPath>
</defs>
</svg>
