<svg width="21" height="20" viewBox="0 0 21 20" fill="none" xmlns="http://www.w3.org/2000/svg">
<path d="M4.76949 10.3582L6.8473 11.925L6.0582 14.4483C5.93068 14.8396 5.92906 15.263 6.05359 15.6554C6.17813 16.0478 6.42214 16.3881 6.74925 16.6256C7.07075 16.8707 7.46037 17.002 7.86003 17C8.25969 16.9979 8.64802 16.8626 8.96713 16.6141L10.9988 15.0702L13.0311 16.6123C13.352 16.8561 13.7396 16.9884 14.1379 16.9904C14.5363 16.9924 14.9251 16.864 15.2483 16.6235C15.5715 16.383 15.8125 16.0429 15.9367 15.652C16.0609 15.2612 16.0619 14.8397 15.9395 14.4483L15.1504 11.925L17.2282 10.3582C17.5487 10.1162 17.7869 9.77588 17.9089 9.38576C18.0309 8.99564 18.0303 8.57569 17.9074 8.18591C17.7844 7.79613 17.5452 7.45645 17.2241 7.21538C16.903 6.97431 16.5163 6.8442 16.1192 6.84361H13.5669L12.7924 4.35111C12.6706 3.95877 12.4313 3.61651 12.1089 3.37368C11.7866 3.13085 11.3979 3 10.9988 3C10.5998 3 10.2111 3.13085 9.88874 3.37368C9.56639 3.61651 9.32706 3.95877 9.20526 4.35111L8.43075 6.84361H5.88077C5.48373 6.8442 5.09703 6.97431 4.7759 7.21538C4.45477 7.45645 4.21563 7.79613 4.09264 8.18591C3.96965 8.57569 3.96911 8.99564 4.09109 9.38576C4.21306 9.77588 4.45132 10.1162 4.77183 10.3582H4.76949Z" fill="#6A1B9A"/>
</svg>
