<svg width="30" height="30" viewBox="0 0 30 30" fill="none" xmlns="http://www.w3.org/2000/svg">
<g clip-path="url(#clip0_1799_277)">
<path d="M28.1297 13.1298C28.1297 5.84671 22.1998 -0.0514005 14.9048 0.000337803C7.67619 0.0515487 1.80867 6.01616 1.8706 13.2447C1.92158 19.195 5.93103 24.2002 11.3938 25.7573C11.888 25.8981 12.3103 26.221 12.5669 26.6661L14.2342 29.5576C14.5743 30.1475 15.4256 30.1475 15.7657 29.5576L17.433 26.666C17.6895 26.2211 18.1115 25.8982 18.6054 25.7574C24.1036 24.1906 28.1297 19.1307 28.1297 13.1298V13.1298Z" fill="#5490F9"/>
<path d="M14.9047 0.000337045C14.4654 0.00344251 14.0312 0.0288136 13.6029 0.0745753C20.197 0.772544 25.335 6.35067 25.335 13.1298C25.335 19.1308 21.3088 24.1906 15.8106 25.7574C15.3168 25.8982 14.8948 26.2211 14.6382 26.666L13.6025 28.4623L14.2341 29.5576C14.5743 30.1475 15.4256 30.1475 15.7656 29.5576L17.4329 26.666C17.6895 26.2211 18.1114 25.8982 18.6053 25.7574C24.1035 24.1906 28.1297 19.1308 28.1297 13.1298C28.1297 5.8467 22.1998 -0.0513426 14.9047 0.000337045V0.000337045Z" fill="#4A81F6"/>
<path d="M15.2594 15.145H14.7405C14.0665 15.145 13.5096 14.6187 13.4718 13.9457L13.1034 7.40044C13.0421 6.31113 13.9089 5.39413 15 5.39413C16.091 5.39413 16.9578 6.31113 16.8965 7.40044L16.5281 13.9457C16.4903 14.6187 15.9335 15.145 15.2594 15.145Z" fill="#F1F1F4"/>
<path d="M14.9999 5.39413C14.8248 5.39413 14.6557 5.41798 14.4951 5.4621C15.3355 5.69302 15.9384 6.48585 15.8869 7.40038L15.5185 13.9456C15.4854 14.5349 15.0543 15.0117 14.4951 15.1212C14.5746 15.1368 14.6566 15.145 14.7404 15.145H15.2594C15.9334 15.145 16.4902 14.6186 16.5281 13.9456L16.8965 7.40038C16.9578 6.31113 16.091 5.39413 14.9999 5.39413Z" fill="#E2DFE2"/>
<path d="M15.4116 19.7685H14.5882C14.0537 19.7685 13.6204 19.3352 13.6204 18.8007V18.1375C13.6204 17.603 14.0537 17.1697 14.5882 17.1697H15.4116C15.9461 17.1697 16.3794 17.603 16.3794 18.1375V18.8007C16.3794 19.3352 15.9461 19.7685 15.4116 19.7685Z" fill="#F1F1F4"/>
<path d="M15.4116 17.1697H14.5882C14.5568 17.1697 14.5258 17.1715 14.4951 17.1744C14.9859 17.2213 15.3698 17.6344 15.3698 18.1375V18.8007C15.3698 19.3038 14.9859 19.7169 14.4951 19.7638C14.5258 19.7667 14.5568 19.7685 14.5882 19.7685H15.4116C15.9461 19.7685 16.3794 19.3352 16.3794 18.8007V18.1374C16.3794 17.603 15.9461 17.1697 15.4116 17.1697V17.1697Z" fill="#E2DFE2"/>
</g>
<defs>
<clipPath id="clip0_1799_277">
<rect width="30" height="30" fill="white"/>
</clipPath>
</defs>
</svg>
