<svg width="18" height="18" viewBox="0 0 18 18" fill="none" xmlns="http://www.w3.org/2000/svg">
<g clip-path="url(#clip0)">
<path d="M11.1177 0.31012V3.17646H13.984L11.1177 0.31012Z" fill="white"/>
<path d="M9.52944 10.0588C9.52944 7.43158 11.6669 5.29413 14.2941 5.29413V4.2353H10.0589V0H2.11768V15.8824H14.2941V14.8236C11.6669 14.8236 9.52944 12.6861 9.52944 10.0588ZM4.23532 3.17648H8.47062V4.2353H4.23532V3.17648ZM8.47062 12.7059H4.23532V11.6471H8.47062V12.7059ZM8.47062 10.5883H4.23532V9.52943H8.47062V10.5883ZM8.47062 8.4706H4.23532V7.41178H8.47062V8.4706ZM9.00003 6.35295H4.23532V5.29413H9.00003V6.35295Z" fill="white"/>
<path d="M14.2943 6.35297C12.2508 6.35297 10.5884 8.01539 10.5884 10.0588C10.5884 12.1023 12.2508 13.7647 14.2943 13.7647C16.3377 13.7647 18.0001 12.1023 18.0001 10.0588C18.0001 8.01543 16.3377 6.35297 14.2943 6.35297ZM13.9199 11.7113L12.4868 10.2781L13.2354 9.52944L13.9199 10.2139L15.6632 8.47061L16.4119 9.21931L13.9199 11.7113Z" fill="white"/>
<path d="M1.05882 1.05884H0V18H13.2353V16.9412H1.05882V1.05884Z" fill="white"/>
</g>
<defs>
<clipPath id="clip0">
<rect width="18" height="18" fill="white"/>
</clipPath>
</defs>
</svg>
