<svg width="18" height="18" viewBox="0 0 18 18" fill="none" xmlns="http://www.w3.org/2000/svg">
<g clip-path="url(#clip0)">
<path d="M15.8264 4.41057L13.5892 2.17334L9.42334 6.3741L11.661 8.6116L15.8264 4.41057Z" fill="#0078BB"/>
<path d="M7.41899 9.92516C7.23785 10.3601 7.67456 10.7962 8.10921 10.6146L10.7873 9.22918L8.80314 7.24506L7.41899 9.92516Z" fill="#0078BB"/>
<path d="M17.8454 2.39159C18.0514 2.18559 18.0514 1.85175 17.8454 1.64575L16.354 0.154495C16.148 -0.0514984 15.8141 -0.0514984 15.6081 0.154495L14.335 1.42767L16.5721 3.6649L17.8454 2.39159Z" fill="#0078BB"/>
<path d="M1.58203 14.8008H2.10938V17.4726C2.10938 17.6858 2.23764 17.8784 2.43485 17.9597C2.62917 18.0409 2.85727 17.9976 3.00957 17.8455L6.05429 14.8008H12.1992C13.0715 14.8008 13.7813 14.091 13.7813 13.2187V7.9828L12.1178 9.64626C11.9726 9.79156 11.8032 9.90581 11.6131 9.9856L8.59378 11.5512C8.31926 11.6697 8.11327 11.7114 7.90315 11.7114C7.74619 11.7114 7.59485 11.6812 7.44859 11.6367H3.69141C3.39986 11.6367 3.16406 11.4008 3.16406 11.1094C3.16406 10.8178 3.39986 10.582 3.69141 10.582H6.36177C6.25768 10.2368 6.30231 9.86283 6.44582 9.51964L8.07317 6.35916C8.11945 6.24229 8.23384 6.07228 8.37859 5.92767L10.0524 4.25391H1.58203C0.709717 4.25391 0 4.96362 0 5.83593V13.2187C0 14.091 0.709717 14.8008 1.58203 14.8008V14.8008Z" fill="#1F97DD"/>
</g>
<defs>
<clipPath id="clip0">
<rect width="18" height="18" fill="white"/>
</clipPath>
</defs>
</svg>
