<svg width="24" height="24" viewBox="0 0 24 24" fill="none" xmlns="http://www.w3.org/2000/svg">
<g clip-path="url(#clip0)">
<path d="M20.4375 9.14062H3.5625C3.17419 9.14062 2.85938 8.82581 2.85938 8.4375V7.03125C2.85938 6.64294 3.17419 6.32812 3.5625 6.32812H20.4375C20.8258 6.32812 21.1406 6.64294 21.1406 7.03125V8.4375C21.1406 8.82581 20.8258 9.14062 20.4375 9.14062Z" fill="#A53309"/>
<path d="M4.40186 10.5469L5.67531 23.3664C5.71107 23.726 6.01361 24 6.37501 24H17.625C17.9864 24 18.2889 23.726 18.3247 23.3664L19.5982 10.5469H4.40186ZM10.6299 19.0312H8.34643C7.807 19.0312 7.46659 18.4458 7.73753 17.9766L8.87926 15.999C9.07342 15.6627 9.50345 15.5475 9.83973 15.7417C10.1761 15.9358 10.2913 16.3658 10.0971 16.7021L9.56434 17.625H10.6299C11.0182 17.625 11.333 17.9398 11.333 18.3281C11.333 18.7164 11.0183 19.0312 10.6299 19.0312ZM12.5328 14.3291L12 13.4062L11.4672 14.3291C11.2729 14.6654 10.8429 14.7806 10.5067 14.5865C10.1704 14.3923 10.0552 13.9623 10.2494 13.626L11.3911 11.6484C11.5167 11.4309 11.7488 11.2969 12 11.2969C12.2512 11.2969 12.4833 11.4309 12.6089 11.6484L13.7507 13.626C13.9449 13.9623 13.8296 14.3923 13.4933 14.5865C13.3826 14.6504 13.2617 14.6808 13.1424 14.6808C12.8994 14.6808 12.6631 14.5547 12.5328 14.3291ZM15.6535 19.0312H13.3701C12.9818 19.0312 12.6669 18.7164 12.6669 18.3281C12.6669 17.9398 12.9818 17.625 13.3701 17.625H14.4356L13.9029 16.7022C13.7087 16.3658 13.8239 15.9359 14.1602 15.7417C14.4964 15.5475 14.9265 15.6627 15.1207 15.999L16.2624 17.9766C16.5323 18.4438 16.1953 19.0312 15.6535 19.0312Z" fill="#FD7441"/>
<path d="M8.48438 4.92188V3.51544C8.48438 3.12713 8.79919 2.81231 9.1875 2.81231H14.8125C15.2008 2.81231 15.5156 3.12713 15.5156 3.51544V4.92188H19.4044L18.3071 0.532594C18.2289 0.219609 17.9476 0 17.625 0H6.375C6.05236 0 5.77111 0.219609 5.69288 0.532594L4.59558 4.92188H8.48438Z" fill="#FD7441"/>
</g>
<defs>
<clipPath id="clip0">
<rect width="24" height="24" fill="white"/>
</clipPath>
</defs>
</svg>
