<svg width="18" height="18" viewBox="0 0 18 18" fill="none" xmlns="http://www.w3.org/2000/svg">
<g clip-path="url(#clip0)">
<path d="M11.6985 8.15626L6.48215 8.15626C6.00878 8.15626 5.625 8.53404 5.625 9.00001C5.625 9.46599 6.00878 9.84377 6.48215 9.84377L11.6985 9.84377L10.5903 10.9346C10.2555 11.2641 10.2555 11.7984 10.5903 12.1279C10.9249 12.4574 11.4676 12.4574 11.8025 12.1279L14.3737 9.59677C14.3936 9.57725 14.4124 9.55683 14.4302 9.53546C14.4345 9.53023 14.4383 9.5246 14.4425 9.51926C14.4556 9.50289 14.4684 9.48647 14.4802 9.46914C14.4836 9.46408 14.4864 9.45873 14.4898 9.45361C14.5016 9.4355 14.5131 9.41722 14.5235 9.39815C14.5255 9.39438 14.5272 9.39039 14.5292 9.38662C14.54 9.36598 14.5504 9.34505 14.5595 9.32345C14.5606 9.32081 14.5614 9.318 14.5625 9.3153C14.5718 9.29257 14.5804 9.26956 14.5877 9.24588C14.5887 9.2429 14.5892 9.23981 14.5901 9.23677C14.597 9.21354 14.6033 9.19008 14.6082 9.16606C14.6096 9.15892 14.6103 9.15155 14.6116 9.14435C14.6151 9.12444 14.6187 9.10453 14.6207 9.08422C14.6236 9.05638 14.625 9.02825 14.625 9.00001C14.625 8.97178 14.6236 8.94365 14.6207 8.91575C14.6187 8.89516 14.615 8.87508 14.6115 8.855C14.6103 8.84803 14.6096 8.84088 14.6082 8.83396C14.6033 8.80972 14.597 8.78604 14.59 8.76258C14.5892 8.75983 14.5887 8.7569 14.5878 8.75414C14.5804 8.73035 14.5718 8.70712 14.5624 8.68417C14.5613 8.68169 14.5606 8.67905 14.5595 8.67657C14.5504 8.65481 14.5399 8.63377 14.529 8.61301C14.5271 8.60936 14.5255 8.60553 14.5236 8.60187C14.5131 8.58269 14.5015 8.56424 14.4895 8.54596C14.4863 8.54101 14.4836 8.53578 14.4803 8.53094C14.4684 8.51356 14.4555 8.49702 14.4424 8.4806C14.4383 8.47531 14.4345 8.46974 14.4303 8.46457C14.4124 8.44325 14.3936 8.42277 14.3738 8.40326L11.8025 5.87216C11.6351 5.70735 11.4158 5.625 11.1964 5.625C10.977 5.625 10.7576 5.70735 10.5903 5.87216C10.2556 6.20168 10.2556 6.73589 10.5903 7.0654L11.6985 8.15626Z" fill="#1F97DD"/>
<path d="M9.67777 18C12.7194 18 15.5494 16.5101 17.248 14.0147C17.5912 13.5105 17.4554 12.8268 16.9447 12.4879C16.4339 12.149 15.7416 12.283 15.3982 12.7874C14.1144 14.6735 11.976 15.7996 9.67777 15.7996C5.88051 15.7995 2.79115 12.7493 2.79115 9C2.79115 5.25069 5.88051 2.20047 9.67776 2.20047C11.9692 2.20047 14.1042 3.32146 15.3889 5.19905C15.7335 5.70259 16.426 5.83491 16.9361 5.49479C17.446 5.1546 17.5802 4.4707 17.2356 3.96723C15.5359 1.48304 12.7105 -1.4941e-06 9.67776 -1.22897e-06C4.65163 -7.89573e-07 0.562501 4.03735 0.562501 9C0.562502 13.9626 4.65163 18 9.67777 18Z" fill="#0078BA"/>
</g>
<defs>
<clipPath id="clip0">
<rect width="18" height="18" fill="white" transform="translate(18 18) rotate(180)"/>
</clipPath>
</defs>
</svg>
