<svg width="18" height="18" viewBox="0 0 18 18" fill="none" xmlns="http://www.w3.org/2000/svg">
<path d="M12.8672 15.7148H12.2277C11.7295 15.7148 11.32 15.326 11.2873 14.8359H6.71273C6.68004 15.326 6.27047 15.7148 5.7723 15.7148H5.13281C4.84172 15.7148 4.60547 15.9511 4.60547 16.2422V17.4727C4.60547 17.7637 4.84172 18 5.13281 18H12.8672C13.1583 18 13.3945 17.7637 13.3945 17.4727V16.2422C13.3945 15.9511 13.1583 15.7148 12.8672 15.7148Z" fill="#666666"/>
<path d="M0 13.2539C0 13.5451 0.236109 13.7812 0.527344 13.7812H17.4727C17.7639 13.7812 18 13.5451 18 13.2539V10.2305H0V13.2539Z" fill="#666666"/>
<path d="M4.23633 2.9707C3.93585 2.9707 3.69141 3.21514 3.69141 3.51562V4.06055H4.78125V3.51562C4.78125 3.21514 4.53681 2.9707 4.23633 2.9707Z" fill="#E0694E"/>
<path d="M8.47266 0H0.527344C0.236109 0 0 0.236109 0 0.527344V9.17578H8.47266V0ZM5.83594 6.73242C5.83594 7.02366 5.59983 7.25977 5.30859 7.25977C5.01736 7.25977 4.78125 7.02366 4.78125 6.73242V5.11523H3.69141V6.73242C3.69141 7.02366 3.4553 7.25977 3.16406 7.25977C2.87283 7.25977 2.63672 7.02366 2.63672 6.73242V3.51562C2.63672 2.63359 3.35429 1.91602 4.23633 1.91602C5.11836 1.91602 5.83594 2.63359 5.83594 3.51562V6.73242Z" fill="#E0694E"/>
<path d="M17.4727 0H9.52734V9.17578H18V0.527344C18 0.236109 17.7639 0 17.4727 0ZM13.7812 7.25977H12.6914C12.4002 7.25977 12.1641 7.02366 12.1641 6.73242V2.44336C12.1641 2.15212 12.4002 1.91602 12.6914 1.91602H13.7812C15.2073 1.91602 15.8414 3.63888 14.9595 4.62305C15.8637 5.63214 15.1533 7.25977 13.7812 7.25977Z" fill="#0078BB"/>
<path d="M13.7812 2.9707H13.2188V4.0957H13.7812C14.072 4.0957 14.3086 3.85914 14.3086 3.56836V3.49805C14.3086 3.20727 14.072 2.9707 13.7812 2.9707Z" fill="#0078BB"/>
<path d="M13.7812 5.15039H13.2188V6.20508H13.7812C14.072 6.20508 14.3086 5.96851 14.3086 5.67773C14.3086 5.38696 14.072 5.15039 13.7812 5.15039Z" fill="#0078BB"/>
</svg>
