<svg width="18" height="18" viewBox="0 0 18 18" fill="none" xmlns="http://www.w3.org/2000/svg">
<g clip-path="url(#clip0)">
<path d="M14.9769 0.197601H10.4536C10.2753 0.197601 10.1305 0.34267 10.1305 0.520694V1.81307H9.48433C9.12796 1.81307 8.83815 2.10288 8.83815 2.45925C8.83815 2.81562 9.12796 3.10544 9.48433 3.10544H10.1305V4.7209H11.4229C11.4229 4.00816 12.0025 3.42853 12.7153 3.42853C13.428 3.42853 14.0076 4.00816 14.0076 4.7209H14.9769C15.1553 4.7209 15.3 4.57583 15.3 4.39781V0.520694C15.3 0.34267 15.1553 0.197601 14.9769 0.197601Z" fill="#777777"/>
<path d="M8.12736 18C8.90731 18 9.55996 17.444 9.71019 16.7076H6.54453C6.69477 17.444 7.34742 18 8.12736 18Z" fill="#777777"/>
<path d="M5.54263 5.0763C6.25537 5.0763 6.835 5.65593 6.835 6.36867H8.12737V5.39939C7.41463 5.39939 6.835 4.81977 6.835 4.10702C6.835 3.39428 7.41463 2.81465 8.12737 2.81465V1.19919H7.90734C4.96526 1.19919 2.54626 3.48152 2.32785 6.36867H4.25026C4.25026 5.65593 4.82988 5.0763 5.54263 5.0763Z" fill="#777777"/>
<path d="M5.86572 13.4767H8.12737V10.892C7.41462 10.892 6.835 10.3123 6.835 9.59959C6.835 8.88684 7.41462 8.30721 8.12737 8.30721V7.01484H6.18881V6.36866C6.18881 6.01229 5.899 5.72247 5.54262 5.72247C5.18625 5.72247 4.89644 6.01229 4.89644 6.36866V7.01484H2.31622C2.37793 8.61674 3.11684 10.1049 4.36398 11.1256L5.86572 12.3543V13.4767Z" fill="#777777"/>
<path d="M12.0045 6.36866C12.0045 6.01229 11.7146 5.72247 11.3583 5.72247C11.0019 5.72247 10.7121 6.01229 10.7121 6.36866V7.01484H8.77352V8.9534H8.12734C7.77097 8.9534 7.48115 9.24321 7.48115 9.59959C7.48115 9.95596 7.77097 10.2458 8.12734 10.2458H8.77352V13.4767H10.389V12.3543L11.8907 11.1256C13.1379 10.1049 13.8765 8.61674 13.9385 7.01484H12.0045V6.36866Z" fill="#777777"/>
<path d="M10.0659 15.4153H6.1888C6.01046 15.4153 5.86571 15.5604 5.86571 15.7384C5.86571 15.9164 6.01046 16.0615 6.1888 16.0615H10.0659C10.2443 16.0615 10.389 15.9164 10.389 15.7384C10.389 15.5604 10.2443 15.4153 10.0659 15.4153Z" fill="#777777"/>
<path d="M10.7121 14.1229H5.5426C5.36426 14.1229 5.21951 14.268 5.21951 14.446C5.21951 14.624 5.36426 14.7691 5.5426 14.7691H6.18879H10.0659H10.7121C10.8904 14.7691 11.0352 14.624 11.0352 14.446C11.0352 14.268 10.8904 14.1229 10.7121 14.1229Z" fill="#777777"/>
</g>
<defs>
<clipPath id="clip0">
<rect width="18" height="18" fill="white"/>
</clipPath>
</defs>
</svg>
