<svg width="18" height="18" viewBox="0 0 18 18" fill="none" xmlns="http://www.w3.org/2000/svg">
<g clip-path="url(#clip0)">
<path d="M14.9769 0.19751H10.4536C10.2753 0.19751 10.1305 0.342578 10.1305 0.520603V1.81297H9.48432C9.12795 1.81297 8.83813 2.10279 8.83813 2.45916C8.83813 2.81553 9.12795 3.10534 9.48432 3.10534H10.1305V4.72081H11.4229C11.4229 4.00807 12.0025 3.42844 12.7152 3.42844C13.428 3.42844 14.0076 4.00807 14.0076 4.72081H14.9769C15.1552 4.72081 15.3 4.57574 15.3 4.39772V0.520603C15.3 0.342578 15.1552 0.19751 14.9769 0.19751Z" fill="#367FA8"/>
<path d="M8.12736 17.9999C8.9073 17.9999 9.55995 17.4438 9.71019 16.7075H6.54453C6.69476 17.4438 7.34741 17.9999 8.12736 17.9999Z" fill="#367FA8"/>
<path d="M5.54262 5.07633C6.25537 5.07633 6.83499 5.65596 6.83499 6.3687H8.12737V5.39942C7.41462 5.39942 6.83499 4.8198 6.83499 4.10705C6.83499 3.39431 7.41462 2.81468 8.12737 2.81468V1.19922H7.90734C4.96526 1.19922 2.54626 3.48155 2.32785 6.3687H4.25025C4.25025 5.65596 4.82988 5.07633 5.54262 5.07633Z" fill="#367FA8"/>
<path d="M5.86572 13.4766H8.12737V10.8919C7.41463 10.8919 6.835 10.3123 6.835 9.59952C6.835 8.88678 7.41463 8.30715 8.12737 8.30715V7.01478H6.18881V6.3686C6.18881 6.01223 5.899 5.72241 5.54263 5.72241C5.18626 5.72241 4.89644 6.01223 4.89644 6.3686V7.01478H2.31622C2.37793 8.61668 3.11685 10.1048 4.36399 11.1255L5.86572 12.3542V13.4766Z" fill="#367FA8"/>
<path d="M12.0045 6.3686C12.0045 6.01223 11.7147 5.72241 11.3583 5.72241C11.0019 5.72241 10.7121 6.01223 10.7121 6.3686V7.01478H8.77354V8.95334H8.12736C7.77098 8.95334 7.48117 9.24315 7.48117 9.59952C7.48117 9.9559 7.77098 10.2457 8.12736 10.2457H8.77354V13.4766H10.389V12.3542L11.8907 11.1255C13.1379 10.1048 13.8765 8.61668 13.9385 7.01478H12.0045V6.3686Z" fill="#367FA8"/>
<path d="M10.0659 15.4153H6.18882C6.01047 15.4153 5.86572 15.5604 5.86572 15.7384C5.86572 15.9164 6.01047 16.0615 6.18882 16.0615H10.0659C10.2443 16.0615 10.389 15.9164 10.389 15.7384C10.389 15.5604 10.2443 15.4153 10.0659 15.4153Z" fill="#367FA8"/>
<path d="M10.7121 14.1228H5.54261C5.36426 14.1228 5.21951 14.2679 5.21951 14.4459C5.21951 14.6239 5.36426 14.769 5.54261 14.769H6.18879H10.0659H10.7121C10.8904 14.769 11.0352 14.6239 11.0352 14.4459C11.0352 14.2679 10.8904 14.1228 10.7121 14.1228Z" fill="#367FA8"/>
</g>
<defs>
<clipPath id="clip0">
<rect width="18" height="18" fill="white"/>
</clipPath>
</defs>
</svg>
