<svg width="14" height="14" viewBox="0 0 14 14" fill="none" xmlns="http://www.w3.org/2000/svg">
<g clip-path="url(#clip0)">
<path d="M13.9925 0.508138C13.986 0.457865 13.9749 0.409444 13.9566 0.364014C13.956 0.362874 13.956 0.361308 13.9557 0.359884C13.9557 0.359599 13.9554 0.359314 13.9551 0.359029C13.9349 0.311178 13.9073 0.267741 13.8761 0.227437C13.8684 0.217895 13.8609 0.208496 13.8527 0.199524C13.8194 0.161926 13.7832 0.127177 13.7412 0.0988363C13.7401 0.0979818 13.7387 0.097697 13.7375 0.0968424C13.6969 0.0700684 13.6521 0.0498454 13.6051 0.0338949C13.5934 0.0297648 13.582 0.0262044 13.57 0.0230713C13.5208 0.00968425 13.4701 0 13.4167 0H9.33333C9.01133 0 8.75 0.261332 8.75 0.583333C8.75 0.905334 9.01133 1.16667 9.33333 1.16667H12.0082L8.52655 4.64829C7.59814 3.90574 6.45512 3.5 5.25 3.5C2.35527 3.5 0 5.85527 0 8.75C0 11.6447 2.35527 14 5.25 14C8.14473 14 10.5 11.6447 10.5 8.75C10.5 7.54545 10.0945 6.40271 9.35142 5.47345L12.8333 1.99154V4.66667C12.8333 4.98867 13.0947 5.25 13.4167 5.25C13.7387 5.25 14 4.98867 14 4.66667V0.583333C14 0.571086 13.9972 0.559408 13.9964 0.547445C13.9956 0.534058 13.9942 0.52124 13.9925 0.508138ZM5.25 12.8333C2.99827 12.8333 1.16667 11.0017 1.16667 8.75C1.16667 6.49827 2.99827 4.66667 5.25 4.66667C6.34019 4.66667 7.36658 5.09106 8.13833 5.86011C8.90894 6.63342 9.33333 7.65981 9.33333 8.75C9.33333 11.0017 7.50173 12.8333 5.25 12.8333Z" fill="#0089E7"/>
</g>
<defs>
<clipPath id="clip0">
<rect width="14" height="14" fill="white"/>
</clipPath>
</defs>
</svg>
