<svg width="20" height="20" viewBox="0 0 20 20" fill="none" xmlns="http://www.w3.org/2000/svg">
<path d="M17.175 18.8238L9.30875 14.6588C9.10375 14.55 8.85375 14.565 8.66 14.6963L2.645 18.8613C2.42 19.0175 2.3225 19.3013 2.405 19.5625C2.485 19.8213 2.7275 20 3 20H16.8813C17.1675 20 17.4188 19.805 17.4875 19.525C17.5575 19.2463 17.4275 18.9575 17.175 18.8238Z" fill="white"/>
<path d="M19.8073 17.6363L17.9573 9.30749C17.9123 9.10374 17.7686 8.93749 17.5748 8.86124C17.3798 8.78499 17.1611 8.81124 16.9911 8.92874L10.9748 13.0937C10.7948 13.2187 10.6935 13.4275 10.7073 13.6437C10.7198 13.8625 10.846 14.0575 11.0385 14.1587L18.9036 18.3238C18.9961 18.3725 19.0961 18.3975 19.1961 18.3975C19.3298 18.3975 19.4636 18.355 19.5748 18.2688C19.7686 18.1213 19.8598 17.875 19.8073 17.6363Z" fill="white"/>
<path d="M15.4542 7.93875C15.3717 7.6775 15.1305 7.5 14.8567 7.5H9.15171C8.11421 9.37875 6.57921 11.175 5.94796 11.8775C5.59296 12.2725 5.08421 12.5 4.55296 12.5C4.02171 12.5 3.51296 12.2725 3.15796 11.8775C2.91421 11.6062 2.53671 11.1725 2.10421 10.635L0.591711 17.4425C0.536711 17.6937 0.640461 17.9525 0.852961 18.0962C0.957961 18.1675 1.08046 18.2025 1.20171 18.2025C1.32671 18.2025 1.45046 18.1662 1.55796 18.0912L15.2117 8.6375C15.438 8.48375 15.5342 8.2 15.4542 7.93875Z" fill="white"/>
<path d="M4.55371 0C2.14121 0 0.178711 1.9625 0.178711 4.375C0.178711 6.62 3.68871 10.5962 4.08871 11.0425C4.20746 11.1737 4.37621 11.25 4.55371 11.25C4.73121 11.25 4.89996 11.1737 5.01871 11.0425C5.41871 10.5962 8.92871 6.62 8.92871 4.375C8.92871 1.9625 6.96621 0 4.55371 0ZM4.55371 6.25C3.51871 6.25 2.67871 5.41 2.67871 4.375C2.67871 3.34 3.51871 2.5 4.55371 2.5C5.58871 2.5 6.42871 3.34 6.42871 4.375C6.42871 5.41 5.58871 6.25 4.55371 6.25Z" fill="white"/>
</svg>
