<svg width="24" height="24" viewBox="0 0 24 24" fill="none" xmlns="http://www.w3.org/2000/svg">
<path d="M12 24C18.6274 24 24 18.6274 24 12C24 5.37258 18.6274 0 12 0C5.37258 0 0 5.37258 0 12C0 18.6274 5.37258 24 12 24Z" fill="#777777"/>
<path d="M12 21.4957C17.2443 21.4957 21.4956 17.2443 21.4956 12C21.4956 6.75571 17.2443 2.50436 12 2.50436C6.75565 2.50436 2.5043 6.75571 2.5043 12C2.5043 17.2443 6.75565 21.4957 12 21.4957Z" fill="white"/>
<path d="M13.0853 12.6261C13.0031 12.7686 12.8936 12.8935 12.7631 12.9937C12.6326 13.0939 12.4837 13.1674 12.3248 13.2101C12.1659 13.2527 12.0001 13.2636 11.837 13.2422C11.6739 13.2208 11.5165 13.1674 11.374 13.0852C11.2315 13.003 11.1066 12.8935 11.0064 12.763C10.9062 12.6325 10.8327 12.4836 10.79 12.3246C10.7474 12.1657 10.7365 12 10.7579 11.8369C10.7793 11.6737 10.8327 11.5164 10.9149 11.3739C11.2605 10.7749 14.307 8.00305 14.307 8.00305C14.307 8.00305 13.4305 12.0271 13.0853 12.6261Z" fill="#444444"/>
<path d="M12.0001 4.48697C11.8064 4.48686 11.6206 4.40987 11.4837 4.27291C11.3467 4.13595 11.2697 3.95022 11.2696 3.75653V2.50436C11.2696 2.31064 11.3466 2.12485 11.4836 1.98787C11.6205 1.85088 11.8063 1.77393 12.0001 1.77393C12.1938 1.77393 12.3796 1.85088 12.5166 1.98787C12.6535 2.12485 12.7305 2.31064 12.7305 2.50436V3.75653C12.7304 3.95022 12.6534 4.13595 12.5164 4.27291C12.3795 4.40987 12.1937 4.48686 12.0001 4.48697Z" fill="#777777"/>
<path d="M7.87889 5.59307C7.75057 5.59318 7.62448 5.55948 7.51333 5.49536C7.40217 5.43125 7.30987 5.33898 7.24571 5.22785L6.61963 4.14263C6.52276 3.97481 6.49654 3.77539 6.54671 3.58823C6.59688 3.40107 6.71935 3.24151 6.88717 3.14465C7.05499 3.04779 7.25441 3.02156 7.44157 3.07173C7.62873 3.12191 7.78829 3.24438 7.88515 3.4122L8.51123 4.49742C8.57533 4.60844 8.60908 4.73438 8.60909 4.86258C8.6091 4.99078 8.57537 5.11672 8.51129 5.22775C8.44721 5.33879 8.35503 5.431 8.24402 5.49513C8.13302 5.55925 8.00709 5.59303 7.87889 5.59307Z" fill="#777777"/>
<path d="M4.86257 8.60873C4.73449 8.60885 4.60865 8.57516 4.49777 8.51106L3.41256 7.88497C3.32946 7.83701 3.25663 7.77315 3.19821 7.69704C3.1398 7.62093 3.09694 7.53406 3.0721 7.44139C3.04725 7.34872 3.04091 7.25206 3.05342 7.15694C3.06593 7.06181 3.09705 6.97008 3.14501 6.88699C3.19297 6.80389 3.25683 6.73106 3.33294 6.67264C3.40905 6.61422 3.49592 6.57137 3.58859 6.54653C3.68126 6.52168 3.77792 6.51533 3.87304 6.52784C3.96817 6.54036 4.0599 6.57148 4.14299 6.61944L5.2282 7.24553C5.36758 7.3259 5.47652 7.45004 5.53811 7.59868C5.5997 7.74731 5.61049 7.91212 5.56881 8.06752C5.52713 8.22292 5.43531 8.36021 5.30761 8.45807C5.1799 8.55593 5.02346 8.6089 4.86257 8.60873Z" fill="#777777"/>
<path d="M3.75653 12.7305H2.50436C2.31064 12.7305 2.12485 12.6535 1.98786 12.5165C1.85088 12.3795 1.77393 12.1938 1.77393 12C1.77393 11.8063 1.85088 11.6205 1.98786 11.4835C2.12485 11.3465 2.31064 11.2696 2.50436 11.2696H3.75653C3.95026 11.2696 4.13605 11.3465 4.27303 11.4835C4.41001 11.6205 4.48697 11.8063 4.48697 12C4.48697 12.1938 4.41001 12.3795 4.27303 12.5165C4.13605 12.6535 3.95026 12.7305 3.75653 12.7305Z" fill="#777777"/>
<path d="M3.77748 17.4783C3.61659 17.4785 3.46015 17.4255 3.33244 17.3276C3.20473 17.2298 3.11291 17.0925 3.07123 16.9371C3.02955 16.7817 3.04034 16.6169 3.10193 16.4682C3.16353 16.3196 3.27247 16.1955 3.41184 16.1151L4.49706 15.489C4.66489 15.3921 4.86431 15.3659 5.05147 15.4161C5.23863 15.4663 5.39819 15.5887 5.49505 15.7566C5.59191 15.9244 5.61814 16.1238 5.56797 16.311C5.51779 16.4981 5.39532 16.6577 5.2275 16.7545L4.14228 17.3806C4.03138 17.4447 3.90555 17.4784 3.77748 17.4783Z" fill="#777777"/>
<path d="M16.1213 5.59307C15.9931 5.59303 15.8672 5.55925 15.7562 5.49513C15.6452 5.431 15.553 5.33879 15.4889 5.22775C15.4248 5.11672 15.3911 4.99078 15.3911 4.86258C15.3911 4.73438 15.4249 4.60844 15.489 4.49742L16.1151 3.4122C16.2119 3.24438 16.3715 3.12191 16.5586 3.07173C16.7458 3.02156 16.9452 3.04779 17.113 3.14465C17.2809 3.24151 17.4033 3.40107 17.4535 3.58823C17.5037 3.77539 17.4774 3.97481 17.3806 4.14263L16.7545 5.22785C16.6903 5.33898 16.598 5.43125 16.4869 5.49536C16.3757 5.55948 16.2496 5.59318 16.1213 5.59307Z" fill="#777777"/>
<path d="M19.1396 8.60873C18.9787 8.60889 18.8222 8.55593 18.6945 8.45807C18.5668 8.36021 18.475 8.22292 18.4333 8.06752C18.3916 7.91212 18.4024 7.74731 18.464 7.59868C18.5256 7.45004 18.6346 7.3259 18.7739 7.24553L19.8591 6.61944C20.027 6.52258 20.2264 6.49635 20.4135 6.54653C20.6007 6.5967 20.7603 6.71917 20.8571 6.88699C20.954 7.05481 20.9802 7.25423 20.93 7.44139C20.8799 7.62855 20.7574 7.78811 20.5896 7.88497L19.5044 8.51106C19.3935 8.57516 19.2676 8.60885 19.1396 8.60873Z" fill="#777777"/>
<path d="M21.4958 12.7305H20.2436C20.0499 12.7305 19.8641 12.6535 19.7271 12.5165C19.5901 12.3795 19.5132 12.1938 19.5132 12C19.5132 11.8063 19.5901 11.6205 19.7271 11.4835C19.8641 11.3465 20.0499 11.2696 20.2436 11.2696H21.4958C21.6895 11.2696 21.8753 11.3465 22.0123 11.4835C22.1493 11.6205 22.2262 11.8063 22.2262 12C22.2262 12.1938 22.1493 12.3795 22.0123 12.5165C21.8753 12.6535 21.6895 12.7305 21.4958 12.7305Z" fill="#777777"/>
<path d="M20.2229 17.4783C20.0948 17.4784 19.969 17.4447 19.8581 17.3806L18.7729 16.7545C18.6898 16.7066 18.617 16.6427 18.5586 16.5666C18.5001 16.4905 18.4573 16.4036 18.4325 16.311C18.4076 16.2183 18.4013 16.1216 18.4138 16.0265C18.4263 15.9314 18.4574 15.8397 18.5054 15.7566C18.5533 15.6735 18.6172 15.6006 18.6933 15.5422C18.7694 15.4838 18.8563 15.4409 18.9489 15.4161C19.0416 15.3912 19.1383 15.3849 19.2334 15.3974C19.3285 15.4099 19.4202 15.441 19.5033 15.489L20.5886 16.1151C20.7279 16.1955 20.8369 16.3196 20.8985 16.4682C20.96 16.6169 20.9708 16.7817 20.9292 16.9371C20.8875 17.0925 20.7957 17.2298 20.668 17.3276C20.5403 17.4255 20.3838 17.4785 20.2229 17.4783Z" fill="#777777"/>
<path d="M14.5045 17.6619H9.49575C9.30203 17.6619 9.11624 17.585 8.97926 17.448C8.84228 17.311 8.76532 17.1252 8.76532 16.9315C8.76532 16.7378 8.84228 16.552 8.97926 16.415C9.11624 16.278 9.30203 16.201 9.49575 16.201H14.5045C14.6982 16.201 14.884 16.278 15.0209 16.415C15.1579 16.552 15.2349 16.7378 15.2349 16.9315C15.2349 17.1252 15.1579 17.311 15.0209 17.448C14.884 17.585 14.6982 17.6619 14.5045 17.6619Z" fill="#444444"/>
</svg>
