<svg width="30" height="30" viewBox="0 0 30 30" fill="none" xmlns="http://www.w3.org/2000/svg">
<g clip-path="url(#clip0)">
<path d="M18 26H28V28H18V26Z" fill="#BBBBBB"/>
<path d="M27 28L26.5 30H19V28H27Z" fill="#444444"/>
<path d="M12.5411 6.84213H16.8832C17.7033 6.84213 18.4898 7.16791 19.0696 7.74779C19.6495 8.32767 19.9753 9.11416 19.9753 9.93424V30H9.44897V9.93424C9.44897 9.11416 9.77475 8.32767 10.3546 7.74779C10.9345 7.16791 11.721 6.84213 12.5411 6.84213Z" fill="#0084FE"/>
<path d="M12.6068 4.73686H16.8173V6.84213H12.6068V4.73686Z" fill="#BBBBBB"/>
<path d="M13.1332 0H16.2911V4.73684H13.1332V0Z" fill="#444444"/>
<path d="M11.1595 0H13.1332V1.57895H10.5016V0.657895C10.5016 0.48341 10.5709 0.316072 10.6943 0.192693C10.8177 0.0693137 10.985 0 11.1595 0Z" fill="#444444"/>
<path d="M19.9753 21H25.7648C26.4628 21 27.1321 21.2773 27.6256 21.7708C28.1191 22.2643 28.3964 22.9336 28.3964 23.6316C28.3964 24.3295 28.1191 24.9989 27.6256 25.4924C27.1321 25.9859 26.4628 26.2632 25.7648 26.2632H19.9753V21Z" fill="#FC1885"/>
<path d="M23.9678 23.6317H22.0805C21.9409 23.6317 21.8071 23.5763 21.7084 23.4775C21.6096 23.3788 21.5542 23.245 21.5542 23.1054C21.5542 22.9658 21.6096 22.8319 21.7084 22.7332C21.8071 22.6345 21.9409 22.5791 22.0805 22.5791H23.9678C24.1347 22.5795 24.3001 22.5469 24.4543 22.483C24.6085 22.4191 24.7485 22.3252 24.8662 22.2069C24.9649 22.1082 25.0988 22.0527 25.2384 22.0527C25.378 22.0527 25.5119 22.1082 25.6106 22.2069C25.7093 22.3056 25.7647 22.4395 25.7647 22.5791C25.7647 22.7187 25.7093 22.8525 25.6106 22.9512C25.3953 23.1676 25.1393 23.3392 24.8574 23.456C24.5754 23.5728 24.273 23.6325 23.9678 23.6317Z" fill="#FAB607"/>
<path d="M23.6595 18.421C24.5315 18.421 25.2385 17.7141 25.2385 16.842C25.2385 15.97 24.5315 15.2631 23.6595 15.2631C22.7875 15.2631 22.0806 15.97 22.0806 16.842C22.0806 17.7141 22.7875 18.421 23.6595 18.421Z" fill="#49BEFF"/>
<path d="M28.9227 14.7368C29.5041 14.7368 29.9754 14.2655 29.9754 13.6841C29.9754 13.1028 29.5041 12.6315 28.9227 12.6315C28.3414 12.6315 27.8701 13.1028 27.8701 13.6841C27.8701 14.2655 28.3414 14.7368 28.9227 14.7368Z" fill="#49BEFF"/>
<path d="M23.6595 11.0526C24.5315 11.0526 25.2385 10.3457 25.2385 9.47366C25.2385 8.60163 24.5315 7.89471 23.6595 7.89471C22.7875 7.89471 22.0806 8.60163 22.0806 9.47366C22.0806 10.3457 22.7875 11.0526 23.6595 11.0526Z" fill="#49BEFF"/>
<path d="M24.1857 9.47364C24.4764 9.47364 24.7121 9.238 24.7121 8.94732C24.7121 8.65664 24.4764 8.42101 24.1857 8.42101C23.8951 8.42101 23.6594 8.65664 23.6594 8.94732C23.6594 9.238 23.8951 9.47364 24.1857 9.47364Z" fill="#E0F8F9"/>
<path d="M24.1857 16.8421C24.4764 16.8421 24.7121 16.6064 24.7121 16.3157C24.7121 16.0251 24.4764 15.7894 24.1857 15.7894C23.8951 15.7894 23.6594 16.0251 23.6594 16.3157C23.6594 16.6064 23.8951 16.8421 24.1857 16.8421Z" fill="#E0F8F9"/>
<path d="M29.2948 13.9022C29.5003 13.9022 29.6669 13.7356 29.6669 13.53C29.6669 13.3245 29.5003 13.1579 29.2948 13.1579C29.0892 13.1579 28.9226 13.3245 28.9226 13.53C28.9226 13.7356 29.0892 13.9022 29.2948 13.9022Z" fill="#E0F8F9"/>
<path d="M7.5 15.7895C7.18593 15.7895 6.88472 15.6647 6.66264 15.4426C6.44055 15.2205 6.31579 14.9193 6.31579 14.6053V13.6842H3.15789V14.6053C3.15789 14.9193 3.03313 15.2205 2.81105 15.4426C2.58896 15.6647 2.28776 15.7895 1.97368 15.7895C1.45023 15.7895 0.948216 15.9974 0.578079 16.3675C0.207941 16.7377 0 17.2397 0 17.7632V28.0263C0 28.5498 0.207941 29.0518 0.578079 29.4219C0.948216 29.7921 1.45023 30 1.97368 30H7.5C8.02345 30 8.52547 29.7921 8.89561 29.4219C9.26574 29.0518 9.47368 28.5498 9.47368 28.0263V17.7632C9.47368 17.2397 9.26574 16.7377 8.89561 16.3675C8.52547 15.9974 8.02345 15.7895 7.5 15.7895Z" fill="#FD9226"/>
<path d="M2.63159 11.579H6.84212V13.6842H2.63159V11.579Z" fill="#444444"/>
<path d="M13.1332 3.68416H16.2911V4.73679H13.1332V3.68416Z" fill="#444444"/>
</g>
<defs>
<clipPath id="clip0">
<rect width="30" height="30" fill="white"/>
</clipPath>
</defs>
</svg>
