<svg width="24" height="24" viewBox="0 0 24 24" fill="none" xmlns="http://www.w3.org/2000/svg">
<g clip-path="url(#clip0)">
<path d="M2.40002 24.0857H18.234L18.2572 22.8094L2.42318 22.8L2.40002 24.0857Z" fill="white"/>
<path d="M12.6524 1.2H15.4236H15.6L15.1382 0H12.6524H5.49335L4.80005 1.2H5.26238H12.6524Z" fill="white"/>
<path d="M14.4 20.4H6V22.8H13.3614H14.4V20.4Z" fill="white"/>
<path d="M6 1.20001V3.60001H12.3H14.4V1.20001H12.3H6Z" fill="white"/>
<path d="M24 10.8H20.4V13.2H24V10.8Z" fill="white"/>
<path d="M19.0979 4.79999V17.4C19.0979 17.7314 18.9036 18 18.6639 18C18.4241 18 18.2298 17.7314 18.2298 17.4V4.79999H5.2085C2.33194 4.79999 0 8.02356 0 12C0 15.9764 2.33194 19.2 5.2085 19.2H19.0979C19.817 19.2 20.4 18.3941 20.4 17.4V6.60002C20.4 5.60586 19.817 4.79999 19.0979 4.79999ZM3.28008 15.9918H3.27966C3.43845 16.1388 3.50905 16.412 3.4535 16.6648C3.39796 16.9175 3.22938 17.0903 3.0383 17.0904C2.95247 17.0906 2.86858 17.0553 2.79742 16.989C1.59197 15.8757 0.868194 14.004 0.868194 12C0.868194 9.99599 1.59197 8.12423 2.79742 7.01096C2.92626 6.88726 3.09337 6.86928 3.23451 6.96391C3.37565 7.05854 3.46884 7.25115 3.47828 7.46759C3.48773 7.68402 3.41196 7.89067 3.28008 8.00814C2.31537 8.89867 1.73606 10.3964 1.73606 11.9999C1.73606 13.6036 2.31533 15.1013 3.28008 15.9918ZM15.6256 17.4H4.77445C4.53476 17.4 4.3404 17.1314 4.3404 16.8C4.3404 16.4687 4.53471 16.2 4.77445 16.2H15.6255C15.8652 16.2 16.0596 16.4686 16.0596 16.8C16.0596 17.1314 15.8652 17.4 15.6256 17.4ZM15.6256 14.4H4.77445C4.53476 14.4 4.3404 14.1314 4.3404 13.8C4.3404 13.4687 4.53471 13.2 4.77445 13.2H15.6255C15.8652 13.2 16.0596 13.4686 16.0596 13.8C16.0596 14.1314 15.8652 14.4 15.6256 14.4ZM15.6256 10.8H4.77445C4.53476 10.8 4.3404 10.5314 4.3404 10.2C4.3404 9.86861 4.53471 9.60001 4.77445 9.60001H15.6255C15.8652 9.60001 16.0596 9.86861 16.0596 10.2C16.0596 10.5314 15.8652 10.8 15.6256 10.8ZM15.6256 7.79998H4.77445C4.53476 7.79998 4.3404 7.53137 4.3404 7.19997C4.3404 6.86856 4.53471 6.59995 4.77445 6.59995H15.6255C15.8652 6.59995 16.0596 6.86856 16.0596 7.19997C16.0596 7.53137 15.8652 7.79998 15.6256 7.79998Z" fill="white"/>
</g>
<defs>
<clipPath id="clip0">
<rect width="24" height="24" fill="white"/>
</clipPath>
</defs>
</svg>
