<svg width="18" height="18" viewBox="0 0 18 18" fill="none" xmlns="http://www.w3.org/2000/svg">
<g clip-path="url(#clip0)">
<path d="M15.8806 12.4724C15.6315 12.1348 15.3602 11.8192 15.0693 11.5265C16.8311 5.32058 15.542 0.144253 9.21546 0.000255286C6.29238 -0.0264962 4.73459 2.05431 4.44384 3.84563C4.78317 4.0825 4.73073 4.07226 5.28362 4.39352C5.32476 6.34599 4.94559 7.9401 6.58148 9.37656C2.78995 10.4371 0.259189 14.0869 0.481315 18H17.5243C17.6055 16.017 17.0758 14.0691 15.8806 12.4724ZM9.21542 1.0633C14.6048 1.1826 15.5284 5.43162 14.1796 10.7495C13.365 10.1317 12.4276 9.66878 11.4259 9.37713C12.2204 8.69431 12.7244 7.68265 12.7244 6.55536V4.99634C9.40123 5.14536 6.83822 4.09394 5.66062 3.3809C5.93154 2.65914 6.80346 1.0633 9.21542 1.0633ZM10.5173 10.3112L9.00283 12.396L7.48834 10.3112H10.5173ZM6.34659 6.55533V4.92239C7.55527 5.45108 9.38592 6.02809 11.6615 6.05807V6.55536C11.6615 8.02067 10.4693 9.2128 9.00403 9.2128C7.53872 9.2128 6.34659 8.02064 6.34659 6.55533ZM1.5631 16.937C1.73268 14.1187 3.69742 11.5089 6.36098 10.5678L7.87331 12.6497H6.38082V15.8386H11.6248V12.6497H10.1323L11.6447 10.5678C14.3082 11.5088 16.273 14.1187 16.4425 16.937H1.5631Z" fill="#EC13BC"/>
</g>
<defs>
<clipPath id="clip0">
<rect width="18" height="18" fill="white"/>
</clipPath>
</defs>
</svg>
