<svg width="24" height="24" viewBox="0 0 24 24" fill="none" xmlns="http://www.w3.org/2000/svg">
<path d="M23.2969 0H0.703124C0.314812 0 0 0.314812 0 0.703124V10.4938C0 10.8821 0.314812 11.1969 0.703124 11.1969H2.77214V8.23438C2.77214 7.07127 3.7184 6.12501 4.88151 6.12501H19.1185C20.2816 6.12501 21.2279 7.07127 21.2279 8.23438V11.1969H23.2969C23.6852 11.1969 24 10.8821 24 10.4938V0.703124C24 0.314812 23.6852 0 23.2969 0V0Z" fill="#C09600"/>
<path d="M17.5787 22.9108L11.8631 17.1947C11.3996 16.731 11.1802 16.0918 11.2614 15.4411C11.3424 14.7915 11.7111 14.227 12.273 13.8922C13.037 13.437 13.9128 13.1964 14.8058 13.1964C16.1285 13.1964 17.372 13.7115 18.3073 14.6468C18.412 14.7515 19.0735 15.413 19.8208 16.1603L19.8217 8.23438C19.8217 7.84607 19.5069 7.53126 19.1185 7.53126H4.88159C4.49328 7.53126 4.17847 7.84607 4.17847 8.23438V20.8894C4.17847 21.0844 4.2559 21.2714 4.39376 21.4092L6.77857 23.7941C7.05317 24.0686 7.49834 24.0686 7.77293 23.7941L9.6379 21.9291L11.5029 23.7941C11.7775 24.0686 12.2226 24.0686 12.4972 23.7941L14.3622 21.9291L16.2272 23.7941C16.5018 24.0686 16.9469 24.0686 17.2215 23.7941L17.5835 23.4321C17.5806 23.3873 17.5787 23.3423 17.5787 23.2969V22.9108H17.5787Z" fill="#61BB37"/>
<path d="M21.2279 12.6031L21.2271 17.0493C21.2271 17.4692 20.9742 17.8477 20.5864 18.0084C20.1982 18.1691 19.7518 18.0802 19.4551 17.7833C18.4868 16.8151 17.4468 15.7751 17.3129 15.6412C16.1414 14.4696 14.3539 14.2893 12.9928 15.1003C12.6 15.3343 12.5342 15.877 12.8576 16.2004L18.985 22.3284V23.2969C18.985 23.6852 19.2998 24 19.6881 24H23.2969C23.4426 24 23.5778 23.9557 23.6901 23.8799C23.7462 23.842 23.7965 23.7962 23.8395 23.7441C23.8825 23.692 23.9181 23.6336 23.9448 23.5705C23.9804 23.4864 24 23.3939 24 23.2969V15.3757C24 13.8458 22.7594 12.6031 21.2279 12.6031Z" fill="#F1C27D"/>
</svg>
