<svg width="40" height="40" viewBox="0 0 40 40" fill="none" xmlns="http://www.w3.org/2000/svg">
<path fill-rule="evenodd" clip-rule="evenodd" d="M28.75 27.5V33.2322L34.4822 27.5H28.75ZM26.25 26.25C26.25 25.5596 26.8096 25 27.5 25H37.5C38.0056 25 38.4614 25.3045 38.6549 25.7716C38.8484 26.2387 38.7414 26.7764 38.3839 27.1339L28.3839 37.1339C28.0264 37.4914 27.4887 37.5984 27.0216 37.4049C26.5545 37.2114 26.25 36.7556 26.25 36.25V26.25Z" fill="#0078BA"/>
<path d="M23.75 6.25V8.75H33.75V6.25H23.75Z" fill="#0078BA"/>
<path d="M13.75 12.5V10H33.75V12.5H13.75Z" fill="#0078BA"/>
<path d="M13.75 13.75V16.25H33.75V13.75H13.75Z" fill="#0078BA"/>
<path d="M11.25 25.625C11.25 24.9346 10.6903 24.375 10 24.375C9.30965 24.375 8.75 24.9346 8.75 25.625V30C8.75 30.3315 8.8817 30.6495 9.11611 30.8839L11.6161 33.3839C12.1043 33.872 12.8957 33.872 13.3839 33.3839C13.872 32.8957 13.872 32.1042 13.3839 31.6161L11.25 29.4822V25.625Z" fill="#0078BA"/>
<path fill-rule="evenodd" clip-rule="evenodd" d="M8.75 3.75C8.75 1.67894 10.4289 0 12.5 0H35C37.0711 0 38.75 1.67894 38.75 3.75V26.25C38.75 26.5815 38.6182 26.8995 38.3839 27.1339L28.3839 37.1339C28.1495 37.3682 27.8315 37.5 27.5 37.5H16.6145C14.8518 39.0559 12.5361 40 10 40C4.47715 40 0 35.5229 0 30C0 24.9005 3.81711 20.6925 8.75 20.0774V3.75ZM26.9823 35H18.6621C19.513 33.5291 20 31.8214 20 30C20 24.9005 16.1829 20.6925 11.25 20.0774V3.75C11.25 3.05965 11.8096 2.5 12.5 2.5H35C35.6904 2.5 36.25 3.05964 36.25 3.75V25.7323L26.9823 35ZM10 22.5C5.85786 22.5 2.5 25.8579 2.5 30C2.5 34.1421 5.85786 37.5 10 37.5C14.1421 37.5 17.5 34.1421 17.5 30C17.5 25.8579 14.1421 22.5 10 22.5Z" fill="#0078BA"/>
</svg>
