<svg width="24" height="24" viewBox="0 0 24 24" fill="none" xmlns="http://www.w3.org/2000/svg">
<path d="M10.7478 11.0348H13.2522V20.3078H10.7478V11.0348Z" fill="#777777"/>
<path d="M9.80872 10.7478H14.1913V13.2522H9.80872V10.7478Z" fill="#777777"/>
<path d="M12 12C15.3137 12 18 9.31371 18 6C18 2.68629 15.3137 0 12 0C8.68629 0 6 2.68629 6 6C6 9.31371 8.68629 12 12 12Z" fill="#777777"/>
<path d="M12 10.7478C14.6222 10.7478 16.7478 8.62216 16.7478 6.00001C16.7478 3.37786 14.6222 1.25218 12 1.25218C9.37787 1.25218 7.2522 3.37786 7.2522 6.00001C7.2522 8.62216 9.37787 10.7478 12 10.7478Z" fill="white"/>
<path d="M12.5426 6.31305C12.5015 6.38431 12.4468 6.44677 12.3815 6.49687C12.3163 6.54697 12.2418 6.58373 12.1623 6.60505C12.0829 6.62636 12 6.63182 11.9184 6.62111C11.8369 6.6104 11.7582 6.58373 11.687 6.54262C11.6157 6.50151 11.5532 6.44677 11.5031 6.38152C11.453 6.31627 11.4163 6.24179 11.395 6.16234C11.3736 6.08288 11.3682 6.00001 11.3789 5.91844C11.3896 5.83688 11.4163 5.75822 11.4574 5.68697C11.6302 5.38749 13.1534 4.00154 13.1534 4.00154C13.1534 4.00154 12.7152 6.01357 12.5426 6.31305Z" fill="#777777"/>
<path d="M12.0001 2.24348C11.9032 2.24343 11.8104 2.20493 11.7419 2.13645C11.6734 2.06797 11.6349 1.97511 11.6349 1.87827V1.25218C11.6349 1.15532 11.6733 1.06242 11.7418 0.993933C11.8103 0.925441 11.9032 0.886963 12.0001 0.886963C12.0969 0.886963 12.1898 0.925441 12.2583 0.993933C12.3268 1.06242 12.3653 1.15532 12.3653 1.25218V1.87827C12.3652 1.97511 12.3267 2.06797 12.2583 2.13645C12.1898 2.20493 12.0969 2.24343 12.0001 2.24348Z" fill="#777777"/>
<path d="M9.93938 2.79654C9.87522 2.79659 9.81218 2.77974 9.7566 2.74768C9.70103 2.71562 9.65487 2.66949 9.62279 2.61393L9.30975 2.07132C9.26132 1.98741 9.24821 1.88769 9.27329 1.79412C9.29838 1.70054 9.35962 1.62076 9.44353 1.57233C9.52743 1.52389 9.62715 1.51078 9.72073 1.53587C9.8143 1.56095 9.89408 1.62219 9.94251 1.7061L10.2556 2.24871C10.2876 2.30422 10.3045 2.36719 10.3045 2.43129C10.3045 2.49539 10.2876 2.55836 10.2556 2.61388C10.2235 2.66939 10.1775 2.7155 10.122 2.74756C10.0664 2.77963 10.0035 2.79652 9.93938 2.79654Z" fill="#777777"/>
<path d="M8.43135 4.30436C8.36731 4.30443 8.30439 4.28758 8.24895 4.25553L7.70634 3.94249C7.66479 3.91851 7.62838 3.88658 7.59917 3.84852C7.56996 3.81047 7.54853 3.76703 7.53611 3.7207C7.52369 3.67436 7.52051 3.62603 7.52677 3.57847C7.53303 3.53091 7.54859 3.48504 7.57257 3.44349C7.59655 3.40195 7.62848 3.36553 7.66653 3.33632C7.70459 3.30711 7.74802 3.28568 7.79436 3.27326C7.84069 3.26084 7.88902 3.25767 7.93658 3.26392C7.98414 3.27018 8.03001 3.28574 8.07156 3.30972L8.61416 3.62276C8.68385 3.66295 8.73832 3.72502 8.76911 3.79934C8.79991 3.87366 8.80531 3.95606 8.78447 4.03376C8.76363 4.11146 8.71772 4.1801 8.65386 4.22904C8.59001 4.27797 8.51179 4.30445 8.43135 4.30436Z" fill="#777777"/>
<path d="M7.87836 6.36523H7.25227C7.15541 6.36523 7.06252 6.32675 6.99402 6.25826C6.92553 6.18977 6.88705 6.09688 6.88705 6.00001C6.88705 5.90315 6.92553 5.81026 6.99402 5.74177C7.06252 5.67327 7.15541 5.6348 7.25227 5.6348H7.87836C7.97522 5.6348 8.06812 5.67327 8.13661 5.74177C8.2051 5.81026 8.24358 5.90315 8.24358 6.00001C8.24358 6.09688 8.2051 6.18977 8.13661 6.25826C8.06812 6.32675 7.97522 6.36523 7.87836 6.36523Z" fill="#777777"/>
<path d="M7.88873 8.73915C7.80828 8.73923 7.73006 8.71275 7.6662 8.66382C7.60235 8.61489 7.55644 8.54624 7.5356 8.46854C7.51476 8.39085 7.52016 8.30844 7.55095 8.23412C7.58175 8.1598 7.63622 8.09773 7.70591 8.05755L8.24852 7.74451C8.33243 7.69607 8.43214 7.68296 8.52572 7.70805C8.6193 7.73313 8.69908 7.79437 8.74751 7.87828C8.79594 7.96219 8.80906 8.0619 8.78397 8.15548C8.75888 8.24906 8.69765 8.32884 8.61374 8.37727L8.07113 8.69031C8.01568 8.72234 7.95276 8.73919 7.88873 8.73915Z" fill="#777777"/>
<path d="M14.0608 2.79654C13.9967 2.79652 13.9337 2.77963 13.8782 2.74756C13.8227 2.7155 13.7766 2.66939 13.7446 2.61388C13.7125 2.55836 13.6956 2.49539 13.6956 2.43129C13.6957 2.36719 13.7125 2.30422 13.7446 2.24871L14.0576 1.7061C14.1061 1.62219 14.1858 1.56095 14.2794 1.53587C14.373 1.51078 14.4727 1.52389 14.5566 1.57233C14.6405 1.62076 14.7018 1.70054 14.7268 1.79412C14.7519 1.88769 14.7388 1.98741 14.6904 2.07132L14.3773 2.61393C14.3453 2.66949 14.2991 2.71562 14.2435 2.74768C14.188 2.77974 14.1249 2.79659 14.0608 2.79654Z" fill="#777777"/>
<path d="M15.5698 4.30436C15.4894 4.30445 15.4111 4.27797 15.3473 4.22903C15.2834 4.1801 15.2375 4.11146 15.2167 4.03376C15.1959 3.95606 15.2012 3.87366 15.232 3.79934C15.2628 3.72502 15.3173 3.66295 15.387 3.62276L15.9296 3.30972C16.0135 3.26129 16.1132 3.24818 16.2068 3.27326C16.3004 3.29835 16.3802 3.35959 16.4286 3.4435C16.477 3.5274 16.4901 3.62712 16.465 3.7207C16.44 3.81427 16.3787 3.89406 16.2948 3.94249L15.7522 4.25553C15.6968 4.28758 15.6339 4.30443 15.5698 4.30436Z" fill="#777777"/>
<path d="M16.7479 6.36523H16.1218C16.0249 6.36523 15.9321 6.32675 15.8636 6.25826C15.7951 6.18977 15.7566 6.09688 15.7566 6.00001C15.7566 5.90315 15.7951 5.81026 15.8636 5.74177C15.9321 5.67327 16.0249 5.6348 16.1218 5.6348H16.7479C16.8448 5.6348 16.9377 5.67327 17.0061 5.74177C17.0746 5.81026 17.1131 5.90315 17.1131 6.00001C17.1131 6.09688 17.0746 6.18977 17.0061 6.25826C16.9377 6.32675 16.8448 6.36523 16.7479 6.36523Z" fill="#777777"/>
<path d="M16.1115 8.73915C16.0474 8.73919 15.9845 8.72235 15.9291 8.69031L15.3865 8.37727C15.3449 8.35329 15.3085 8.32136 15.2793 8.28331C15.2501 8.24525 15.2286 8.20182 15.2162 8.15548C15.2038 8.10914 15.2006 8.06082 15.2069 8.01325C15.2131 7.96569 15.2287 7.91983 15.2527 7.87828C15.2767 7.83673 15.3086 7.80031 15.3466 7.7711C15.3847 7.7419 15.4281 7.72047 15.4745 7.70805C15.5208 7.69562 15.5691 7.69245 15.6167 7.69871C15.6643 7.70496 15.7101 7.72052 15.7517 7.7445L16.2943 8.05755C16.364 8.09774 16.4184 8.15981 16.4492 8.23412C16.48 8.30844 16.4854 8.39085 16.4646 8.46855C16.4437 8.54624 16.3978 8.61489 16.334 8.66382C16.2701 8.71275 16.1919 8.73923 16.1115 8.73915Z" fill="#777777"/>
<path d="M13.2522 8.83096H10.7478C10.651 8.83096 10.5581 8.79248 10.4896 8.72399C10.4211 8.6555 10.3826 8.5626 10.3826 8.46574C10.3826 8.36888 10.4211 8.27599 10.4896 8.2075C10.5581 8.139 10.651 8.10052 10.7478 8.10052H13.2522C13.349 8.10052 13.4419 8.139 13.5104 8.2075C13.5789 8.27599 13.6174 8.36888 13.6174 8.46574C13.6174 8.5626 13.5789 8.6555 13.5104 8.72399C13.4419 8.79248 13.349 8.83096 13.2522 8.83096Z" fill="#777777"/>
<path d="M0 17.7391H24V22.7478H0V17.7391Z" fill="#444444"/>
<path d="M24 23.687H22.7478V16.8H24V23.687Z" fill="#777777"/>
<path d="M0 16.8H1.25217V23.687H0V16.8Z" fill="#777777"/>
<path d="M14.9016 16.487H9.09824C8.40669 16.487 7.84607 17.0476 7.84607 17.7391V22.7478C7.84607 23.4394 8.40669 24 9.09824 24H14.9016C15.5932 24 16.1538 23.4394 16.1538 22.7478V17.7391C16.1538 17.0476 15.5932 16.487 14.9016 16.487Z" fill="#777777"/>
<path d="M14.9009 22.2432C14.804 22.2432 14.7111 22.2047 14.6426 22.1362C14.5741 22.0677 14.5356 21.9749 14.5356 21.878V20.5215C14.5356 20.4246 14.5741 20.3317 14.6426 20.2632C14.7111 20.1947 14.804 20.1562 14.9009 20.1562C14.9977 20.1562 15.0906 20.1947 15.1591 20.2632C15.2276 20.3317 15.2661 20.4246 15.2661 20.5215V21.878C15.266 21.9748 15.2275 22.0677 15.159 22.1362C15.0906 22.2047 14.9977 22.2432 14.9009 22.2432Z" fill="#777777"/>
</svg>
