<svg width="18" height="18" viewBox="0 0 18 18" fill="none" xmlns="http://www.w3.org/2000/svg">
<g clip-path="url(#clip0)">
<path d="M9.75433 0.620235C9.26109 -0.221189 8.73882 -0.192174 8.24558 0.620235C5.98244 3.98593 2.55872 9.03447 2.55872 11.5587C2.55872 13.3286 3.28408 14.9534 4.44466 16.114C5.60525 17.2746 7.23006 18 8.99995 18C10.7698 18 12.3947 17.2746 13.5552 16.114C14.7158 14.9534 15.4412 13.3286 15.4412 11.5587C15.4412 9.00545 12.0175 3.98593 9.75433 0.620235ZM13.6423 14.4312C13.1781 15.1856 12.5107 15.8529 11.6983 16.3171C11.3211 16.5202 10.8569 16.4042 10.6538 16.027C10.4217 15.6208 10.5667 15.1565 10.9439 14.9534C11.5242 14.6343 11.9885 14.1701 12.3366 13.6188C12.6848 13.0675 12.8879 12.4292 12.9169 11.7618C12.9459 11.3266 13.2941 11.0075 13.7293 11.0365C14.1646 11.0655 14.4837 11.4137 14.4547 11.8489C14.3967 12.7773 14.1065 13.6478 13.6423 14.4312Z" fill="#367FA8"/>
</g>
<defs>
<clipPath id="clip0">
<rect width="18" height="18" fill="white"/>
</clipPath>
</defs>
</svg>
