<svg width="20" height="20" viewBox="0 0 20 20" fill="none" xmlns="http://www.w3.org/2000/svg">
<path d="M18.2422 3.51562H15.8984V1.75781C15.8984 0.788555 15.1099 0 14.1406 0H5.85938C4.89012 0 4.10156 0.788555 4.10156 1.75781V3.51562H1.75781C0.788555 3.51562 0 4.30418 0 5.27344V19.4141C0 19.7377 0.262344 20 0.585938 20C0.909531 20 1.17188 19.7377 1.17188 19.4141V16.2221L4.33238 18.6302C4.43727 18.7101 4.56238 18.75 4.6875 18.75C4.81262 18.75 4.93773 18.7101 5.04262 18.6302L8.20312 16.2221V19.4141C8.20312 19.7377 8.46547 20 8.78906 20C9.11266 20 9.375 19.7377 9.375 19.4141V5.27344C9.375 4.30418 8.58645 3.51562 7.61719 3.51562H5.27344V1.75781C5.27344 1.43473 5.53629 1.17188 5.85938 1.17188H14.1406C14.4637 1.17188 14.7266 1.43473 14.7266 1.75781V3.51562H12.3828C11.4136 3.51562 10.625 4.30418 10.625 5.27344V19.4141C10.625 19.7377 10.8873 20 11.2109 20C11.5345 20 11.7969 19.7377 11.7969 19.4141V16.2221L14.9574 18.6302C15.0623 18.7101 15.1874 18.75 15.3125 18.75C15.4376 18.75 15.5627 18.7101 15.6676 18.6302L18.8281 16.2221V19.4141C18.8281 19.7377 19.0905 20 19.4141 20C19.7377 20 20 19.7377 20 19.4141V5.27344C20 4.30418 19.2114 3.51562 18.2422 3.51562ZM8.20312 14.4531H1.17188V7.03125H8.20312V14.4531ZM4.6875 17.4275L2.3218 15.625H7.05324L4.6875 17.4275ZM8.20312 5.27344V5.85938H1.17188V5.27344C1.17188 4.95035 1.43473 4.6875 1.75781 4.6875H7.61719C7.94027 4.6875 8.20312 4.95035 8.20312 5.27344ZM11.7969 7.03125H18.8281V14.4531H11.7969V7.03125ZM11.7969 5.27344C11.7969 4.95035 12.0597 4.6875 12.3828 4.6875H18.2422C18.5653 4.6875 18.8281 4.95035 18.8281 5.27344V5.85938H11.7969V5.27344ZM15.3125 17.4275L12.9468 15.625H17.6782L15.3125 17.4275Z" fill="#777777"/>
<path d="M16.4844 8.20312H14.1406C13.817 8.20312 13.5547 8.46547 13.5547 8.78906C13.5547 9.11266 13.817 9.375 14.1406 9.375H16.4844C16.808 9.375 17.0703 9.11266 17.0703 8.78906C17.0703 8.46547 16.808 8.20312 16.4844 8.20312Z" fill="#777777"/>
<path d="M3.51562 9.375H5.85938C6.18297 9.375 6.44531 9.11266 6.44531 8.78906C6.44531 8.46547 6.18297 8.20312 5.85938 8.20312H3.51562C3.19203 8.20312 2.92969 8.46547 2.92969 8.78906C2.92969 9.11266 3.19203 9.375 3.51562 9.375Z" fill="#777777"/>
</svg>
