<svg width="40" height="40" viewBox="0 0 40 40" fill="none" xmlns="http://www.w3.org/2000/svg">
<g clip-path="url(#clip0_1594_1285)">
<path d="M36.6047 0H3.39535C2.55814 0 2 0.571429 2 1.42857V38.5714C2 39.4286 2.55814 40 3.39535 40H36.6047C37.4419 40 38 39.4286 38 38.5714V1.42857C38 0.571429 37.3023 0 36.6047 0ZM35.2093 37.1429H4.7907V2.85714H35.2093V37.1429Z" fill="#0078BA"/>
<path d="M21.3953 11.4884H31.1628C32 11.4884 32.5581 10.9302 32.5581 10.093C32.5581 9.25583 32 8.69769 31.1628 8.69769H21.3953C20.5581 8.69769 20 9.25583 20 10.093C20 10.9302 20.5581 11.4884 21.3953 11.4884Z" fill="#0078BA"/>
<path d="M21.3953 21.3954H31.1628C32 21.3954 32.5581 20.8372 32.5581 20C32.5581 19.1628 32 18.6047 31.1628 18.6047H21.3953C20.5581 18.6047 20 19.1628 20 20C20 20.8372 20.5581 21.3954 21.3953 21.3954Z" fill="#0078BA"/>
<path d="M21.3953 31.3023H31.1628C32 31.3023 32.5581 30.7442 32.5581 29.9069C32.5581 29.0697 32 28.5116 31.1628 28.5116H21.3953C20.5581 28.5116 20 29.0697 20 29.9069C20 30.7442 20.5581 31.3023 21.3953 31.3023Z" fill="#0078BA"/>
<path d="M10.5116 33.5349C10.7907 33.814 11.0697 33.9535 11.4884 33.9535C12.0465 33.9535 12.186 33.814 12.4651 33.5349L18.0465 27.9535C18.6046 27.3954 18.6046 26.5582 18.0465 26C17.4884 25.4419 16.6511 25.4419 16.093 26L11.6279 30.6047L9.81393 28.5117C9.2558 27.9535 8.41859 27.814 7.86045 28.3721C7.30231 28.9303 7.16277 29.7675 7.72091 30.3256L10.5116 33.5349Z" fill="#0078BA"/>
<path d="M10.5116 23.6279C10.7907 23.907 11.0697 24.0465 11.4884 24.0465C12.0465 24.0465 12.186 23.907 12.4651 23.6279L18.0465 18.0465C18.6046 17.4884 18.6046 16.6512 18.0465 16.093C17.4884 15.5349 16.6511 15.5349 16.093 16.093L11.6279 20.6977L9.81393 18.6047C9.2558 18.0465 8.41859 17.907 7.86045 18.4651C7.30231 19.0233 7.16277 19.8605 7.72091 20.4186L10.5116 23.6279Z" fill="#0078BA"/>
<path d="M10.5116 13.8605C10.7907 14.1395 11.0697 14.2791 11.4884 14.2791C12.0465 14.2791 12.186 14.1395 12.4651 13.8605L18.0465 8.27908C18.6046 7.72094 18.6046 6.88373 18.0465 6.32559C17.4884 5.76745 16.6511 5.76745 16.093 6.32559L11.6279 10.9302L9.81393 8.83722C9.2558 8.27908 8.41859 8.13954 7.86045 8.69768C7.30231 9.25582 7.16277 10.093 7.72091 10.6512L10.5116 13.8605Z" fill="#0078BA"/>
</g>
<defs>
<clipPath id="clip0_1594_1285">
<rect width="40" height="40" fill="white"/>
</clipPath>
</defs>
</svg>
