<svg width="14" height="14" viewBox="0 0 14 14" fill="none" xmlns="http://www.w3.org/2000/svg">
<g clip-path="url(#clip0)">
<path d="M13.8768 11.6503L7.73456 1.4639C7.57933 1.20646 7.30061 1.04904 6.99997 1.04904C6.69932 1.04904 6.42061 1.20643 6.26538 1.4639L0.12321 11.6503C-0.0365326 11.9152 -0.0412631 12.2456 0.110877 12.515C0.263018 12.7844 0.548405 12.951 0.857772 12.951H13.1422C13.4516 12.951 13.7369 12.7844 13.8891 12.515C14.0412 12.2456 14.0365 11.9152 13.8768 11.6503ZM7.00456 4.57262C7.35732 4.57262 7.65581 4.77162 7.65581 5.12436C7.65581 6.20069 7.52918 7.74742 7.52918 8.82375C7.52918 9.10416 7.22164 9.22171 7.00456 9.22171C6.71516 9.22171 6.47092 9.10413 6.47092 8.82375C6.47092 7.74742 6.34432 6.20069 6.34432 5.12436C6.34432 4.77162 6.63373 4.57262 7.00456 4.57262ZM7.01361 11.2388C6.61565 11.2388 6.31714 10.9132 6.31714 10.5423C6.31714 10.1624 6.61562 9.84589 7.01361 9.84589C7.38445 9.84589 7.70103 10.1624 7.70103 10.5423C7.70103 10.9132 7.38445 11.2388 7.01361 11.2388Z" fill="#ED7302"/>
</g>
<defs>
<clipPath id="clip0">
<rect width="14" height="14" fill="white"/>
</clipPath>
</defs>
</svg>
