<svg width="40" height="40" viewBox="0 0 40 40" fill="none" xmlns="http://www.w3.org/2000/svg">
<path fill-rule="evenodd" clip-rule="evenodd" d="M20 0C8.96201 0 0 8.96201 0 20C0 31.038 8.96201 40 20 40C31.038 40 40 31.038 40 20C40 8.96201 31.038 0 20 0ZM20 3C28.83 3 37 11.17 37 20C37 28.83 28.83 37 20 37C11.168 37 3 28.83 3 20C3 11.17 11.168 3 20 3ZM16.464 22.828L26.364 12.928C27.144 12.148 28.412 12.148 29.192 12.928C29.972 13.71 29.972 14.976 29.192 15.758L17.878 27.072C17.098 27.852 15.83 27.852 15.05 27.072L10.808 22.828C10.026 22.048 10.026 20.78 10.808 20C11.588 19.22 12.854 19.22 13.636 20L16.464 22.828Z" fill="#0078BA"/>
</svg>
