<svg width="30" height="30" viewBox="0 0 30 30" fill="none" xmlns="http://www.w3.org/2000/svg">
<path d="M26.4844 8.90625V23.8477C26.4844 25.3066 25.3067 26.4844 23.8477 26.4844H2.63672C1.17768 26.4844 0 25.3066 0 23.8477V8.90625L1.75781 7.03125H24.7266L26.4844 8.90625Z" fill="#E6E8FF"/>
<path d="M26.4844 8.90625V23.8477C26.4844 25.3066 25.3067 26.4844 23.8477 26.4844H13.2422V7.03125H24.7266L26.4844 8.90625Z" fill="#E5E8FF"/>
<path d="M26.4844 4.39453V8.90625H0V4.39453C0 2.93549 1.17768 1.75781 2.63672 1.75781H23.8477C25.3067 1.75781 26.4844 2.93549 26.4844 4.39453Z" fill="#F40F78"/>
<path d="M26.4844 4.39453V8.90625H13.2422V1.75781H23.8477C25.3067 1.75781 26.4844 2.93549 26.4844 4.39453Z" fill="#F40F78"/>
<path d="M4.39453 5.27344C3.90873 5.27344 3.51562 4.88033 3.51562 4.39453V0.878906C3.51562 0.393105 3.90873 0 4.39453 0C4.88033 0 5.27344 0.393105 5.27344 0.878906V4.39453C5.27344 4.88033 4.88033 5.27344 4.39453 5.27344Z" fill="#57555C"/>
<path d="M9.66797 5.27344C9.18217 5.27344 8.78906 4.88033 8.78906 4.39453V0.878906C8.78906 0.393105 9.18217 0 9.66797 0C10.1538 0 10.5469 0.393105 10.5469 0.878906V4.39453C10.5469 4.88033 10.1538 5.27344 9.66797 5.27344Z" fill="#57555C"/>
<path d="M16.8164 5.27344C16.3306 5.27344 15.9375 4.88033 15.9375 4.39453V0.878906C15.9375 0.393105 16.3306 0 16.8164 0C17.3022 0 17.6953 0.393105 17.6953 0.878906V4.39453C17.6953 4.88033 17.3022 5.27344 16.8164 5.27344Z" fill="#57555C"/>
<path d="M22.0898 5.27344C21.604 5.27344 21.2109 4.88033 21.2109 4.39453V0.878906C21.2109 0.393105 21.604 0 22.0898 0C22.5756 0 22.9688 0.393105 22.9688 0.878906V4.39453C22.9688 4.88033 22.5756 5.27344 22.0898 5.27344Z" fill="#57555C"/>
<path d="M6.15234 12.4219H4.39453C3.90873 12.4219 3.51562 12.0288 3.51562 11.543C3.51562 11.0572 3.90873 10.6641 4.39453 10.6641H6.15234C6.63814 10.6641 7.03125 11.0572 7.03125 11.543C7.03125 12.0288 6.63814 12.4219 6.15234 12.4219Z" fill="#57555C"/>
<path d="M11.4844 12.4219H9.66797C9.18217 12.4219 8.78906 12.0288 8.78906 11.543C8.78906 11.0572 9.18217 10.6641 9.66797 10.6641H11.4844C11.9702 10.6641 12.3633 11.0572 12.3633 11.543C12.3633 12.0288 11.9702 12.4219 11.4844 12.4219Z" fill="#57555C"/>
<path d="M16.8164 12.4219H15C14.5142 12.4219 14.1211 12.0288 14.1211 11.543C14.1211 11.0572 14.5142 10.6641 15 10.6641H16.8164C17.3022 10.6641 17.6953 11.0572 17.6953 11.543C17.6953 12.0288 17.3022 12.4219 16.8164 12.4219Z" fill="#57555C"/>
<path d="M22.0898 12.4219H20.332C19.8462 12.4219 19.4531 12.0288 19.4531 11.543C19.4531 11.0572 19.8462 10.6641 20.332 10.6641H22.0898C22.5756 10.6641 22.9688 11.0572 22.9688 11.543C22.9688 12.0288 22.5756 12.4219 22.0898 12.4219Z" fill="#57555C"/>
<path d="M6.15234 15.9375H4.39453C3.90873 15.9375 3.51562 15.5444 3.51562 15.0586C3.51562 14.5728 3.90873 14.1797 4.39453 14.1797H6.15234C6.63814 14.1797 7.03125 14.5728 7.03125 15.0586C7.03125 15.5444 6.63814 15.9375 6.15234 15.9375Z" fill="#57555C"/>
<path d="M11.4844 15.9375H9.66797C9.18217 15.9375 8.78906 15.5444 8.78906 15.0586C8.78906 14.5728 9.18217 14.1797 9.66797 14.1797H11.4844C11.9702 14.1797 12.3633 14.5728 12.3633 15.0586C12.3633 15.5444 11.9702 15.9375 11.4844 15.9375Z" fill="#57555C"/>
<path d="M16.8164 15.9375H15C14.5142 15.9375 14.1211 15.5444 14.1211 15.0586C14.1211 14.5728 14.5142 14.1797 15 14.1797H16.8164C17.3022 14.1797 17.6953 14.5728 17.6953 15.0586C17.6953 15.5444 17.3022 15.9375 16.8164 15.9375Z" fill="#57555C"/>
<path d="M22.0898 15.9375H20.332C19.8462 15.9375 19.4531 15.5444 19.4531 15.0586C19.4531 14.5728 19.8462 14.1797 20.332 14.1797H22.0898C22.5756 14.1797 22.9688 14.5728 22.9688 15.0586C22.9688 15.5444 22.5756 15.9375 22.0898 15.9375Z" fill="#57555C"/>
<path d="M6.15234 19.4531H4.39453C3.90873 19.4531 3.51562 19.06 3.51562 18.5742C3.51562 18.0884 3.90873 17.6953 4.39453 17.6953H6.15234C6.63814 17.6953 7.03125 18.0884 7.03125 18.5742C7.03125 19.06 6.63814 19.4531 6.15234 19.4531Z" fill="#57555C"/>
<path d="M11.4844 19.4531H9.66797C9.18217 19.4531 8.78906 19.06 8.78906 18.5742C8.78906 18.0884 9.18217 17.6953 9.66797 17.6953H11.4844C11.9702 17.6953 12.3633 18.0884 12.3633 18.5742C12.3633 19.06 11.9702 19.4531 11.4844 19.4531Z" fill="#57555C"/>
<path d="M16.8164 19.4531H15C14.5142 19.4531 14.1211 19.06 14.1211 18.5742C14.1211 18.0884 14.5142 17.6953 15 17.6953H16.8164C17.3022 17.6953 17.6953 18.0884 17.6953 18.5742C17.6953 19.06 17.3022 19.4531 16.8164 19.4531Z" fill="#57555C"/>
<path d="M6.15234 22.9688H4.39453C3.90873 22.9688 3.51562 22.5756 3.51562 22.0898C3.51562 21.604 3.90873 21.2109 4.39453 21.2109H6.15234C6.63814 21.2109 7.03125 21.604 7.03125 22.0898C7.03125 22.5756 6.63814 22.9688 6.15234 22.9688Z" fill="#57555C"/>
<path d="M11.4844 22.9688H9.66797C9.18217 22.9688 8.78906 22.5756 8.78906 22.0898C8.78906 21.604 9.18217 21.2109 9.66797 21.2109H11.4844C11.9702 21.2109 12.3633 21.604 12.3633 22.0898C12.3633 22.5756 11.9702 22.9688 11.4844 22.9688Z" fill="#57555C"/>
<path d="M16.8164 22.9688H15C14.5142 22.9688 14.1211 22.5756 14.1211 22.0898C14.1211 21.604 14.5142 21.2109 15 21.2109H16.8164C17.3022 21.2109 17.6953 21.604 17.6953 22.0898C17.6953 22.5756 17.3022 22.9688 16.8164 22.9688Z" fill="#57555C"/>
<path d="M23.8477 17.6953C20.4551 17.6953 17.6953 20.4551 17.6953 23.8477C17.6953 27.2402 20.4551 30 23.8477 30C27.2402 30 30 27.2402 30 23.8477C30 20.4551 27.2402 17.6953 23.8477 17.6953Z" fill="#FE9923"/>
<path d="M30 23.8477C30 27.2402 27.2402 30 23.8477 30V17.6953C27.2402 17.6953 30 20.4551 30 23.8477Z" fill="#FE9923"/>
<path d="M26.4844 23.8477C26.4844 24.3398 26.0977 24.7266 25.6055 24.7266H23.8477C23.3554 24.7266 22.9688 24.3398 22.9688 23.8477V20.332C22.9688 19.8398 23.3554 19.4531 23.8477 19.4531C24.3399 19.4531 24.7266 19.8398 24.7266 20.332V22.9688H25.6055C26.0977 22.9688 26.4844 23.3554 26.4844 23.8477Z" fill="#57555C"/>
<path d="M26.4844 23.8477C26.4844 24.3398 26.0977 24.7266 25.6055 24.7266H23.8477V19.4531C24.3399 19.4531 24.7266 19.8398 24.7266 20.332V22.9688H25.6055C26.0977 22.9688 26.4844 23.3554 26.4844 23.8477Z" fill="#57555C"/>
</svg>
