<svg width="24" height="24" viewBox="0 0 24 24" fill="none" xmlns="http://www.w3.org/2000/svg">
<path fill-rule="evenodd" clip-rule="evenodd" d="M24 12C24 18.6274 18.6274 24 12 24C5.37258 24 0 18.6274 0 12C0 5.37258 5.37258 0 12 0C18.6274 0 24 5.37258 24 12ZM21.4956 12C21.4956 17.2443 17.2442 21.4957 11.9999 21.4957C6.75562 21.4957 2.50427 17.2443 2.50427 12C2.50427 6.75571 6.75562 2.50436 11.9999 2.50436C17.2442 2.50436 21.4956 6.75571 21.4956 12Z" fill="white"/>
<path d="M13.0854 12.6261C13.0032 12.7686 12.8937 12.8935 12.7632 12.9937C12.6327 13.0939 12.4837 13.1674 12.3248 13.2101C12.1659 13.2527 12.0002 13.2636 11.837 13.2422C11.6739 13.2208 11.5166 13.1674 11.3741 13.0852C11.2316 13.003 11.1067 12.8935 11.0065 12.763C10.9063 12.6325 10.8327 12.4836 10.7901 12.3246C10.7475 12.1657 10.7366 12 10.758 11.8369C10.7794 11.6737 10.8327 11.5164 10.915 11.3739C11.2606 10.7749 14.3071 8.00305 14.3071 8.00305C14.3071 8.00305 13.4306 12.0271 13.0854 12.6261Z" fill="white"/>
<path d="M12.0001 4.48697C11.8064 4.48686 11.6207 4.40987 11.4837 4.27291C11.3468 4.13595 11.2698 3.95022 11.2697 3.75653V2.50436C11.2697 2.31064 11.3466 2.12485 11.4836 1.98787C11.6206 1.85088 11.8064 1.77393 12.0001 1.77393C12.1938 1.77393 12.3796 1.85088 12.5166 1.98787C12.6536 2.12485 12.7305 2.31064 12.7305 2.50436V3.75653C12.7304 3.95022 12.6534 4.13595 12.5165 4.27291C12.3795 4.40987 12.1938 4.48686 12.0001 4.48697Z" fill="white"/>
<path d="M7.87883 5.59307C7.75051 5.59318 7.62442 5.55948 7.51327 5.49536C7.40211 5.43125 7.30981 5.33898 7.24565 5.22785L6.61956 4.14263C6.5227 3.97481 6.49647 3.77539 6.54665 3.58823C6.59682 3.40107 6.71929 3.24151 6.88711 3.14465C7.05493 3.04779 7.25435 3.02156 7.44151 3.07173C7.62867 3.12191 7.78823 3.24438 7.88509 3.4122L8.51117 4.49742C8.57527 4.60844 8.60902 4.73438 8.60903 4.86258C8.60904 4.99078 8.57531 5.11672 8.51123 5.22775C8.44715 5.33879 8.35497 5.431 8.24396 5.49513C8.13295 5.55925 8.00703 5.59303 7.87883 5.59307Z" fill="white"/>
<path d="M4.86251 8.60873C4.73443 8.60885 4.60859 8.57516 4.49771 8.51106L3.4125 7.88497C3.3294 7.83701 3.25657 7.77315 3.19815 7.69704C3.13974 7.62093 3.09688 7.53406 3.07204 7.44139C3.04719 7.34872 3.04085 7.25206 3.05336 7.15694C3.06587 7.06181 3.09699 6.97008 3.14495 6.88699C3.19291 6.80389 3.25677 6.73106 3.33288 6.67264C3.40899 6.61422 3.49586 6.57137 3.58853 6.54653C3.6812 6.52168 3.77786 6.51533 3.87298 6.52784C3.96811 6.54036 4.05983 6.57148 4.14293 6.61944L5.22814 7.24553C5.36752 7.3259 5.47646 7.45004 5.53805 7.59868C5.59964 7.74731 5.61043 7.91212 5.56875 8.06752C5.52707 8.22292 5.43525 8.36021 5.30755 8.45807C5.17984 8.55593 5.0234 8.6089 4.86251 8.60873Z" fill="white"/>
<path d="M3.75653 12.7305H2.50436C2.31064 12.7305 2.12485 12.6535 1.98786 12.5165C1.85088 12.3795 1.77393 12.1938 1.77393 12C1.77393 11.8063 1.85088 11.6205 1.98786 11.4835C2.12485 11.3465 2.31064 11.2696 2.50436 11.2696H3.75653C3.95026 11.2696 4.13605 11.3465 4.27303 11.4835C4.41001 11.6205 4.48697 11.8063 4.48697 12C4.48697 12.1938 4.41001 12.3795 4.27303 12.5165C4.13605 12.6535 3.95026 12.7305 3.75653 12.7305Z" fill="white"/>
<path d="M3.77745 17.4783C3.61656 17.4785 3.46012 17.4255 3.33241 17.3276C3.2047 17.2298 3.11288 17.0925 3.0712 16.9371C3.02952 16.7817 3.04031 16.6169 3.1019 16.4682C3.16349 16.3196 3.27244 16.1955 3.41181 16.1151L4.49703 15.489C4.66485 15.3921 4.86428 15.3659 5.05144 15.4161C5.2386 15.4663 5.39816 15.5887 5.49502 15.7566C5.59188 15.9244 5.61811 16.1238 5.56794 16.311C5.51776 16.4981 5.39529 16.6577 5.22747 16.7545L4.14225 17.3806C4.03135 17.4447 3.90552 17.4784 3.77745 17.4783Z" fill="white"/>
<path d="M16.1213 5.59307C15.9931 5.59303 15.8672 5.55925 15.7562 5.49513C15.6452 5.431 15.553 5.33879 15.4889 5.22775C15.4248 5.11672 15.3911 4.99078 15.3911 4.86258C15.3911 4.73438 15.4249 4.60844 15.489 4.49742L16.1151 3.4122C16.2119 3.24438 16.3715 3.12191 16.5586 3.07173C16.7458 3.02156 16.9452 3.04779 17.113 3.14465C17.2809 3.24151 17.4033 3.40107 17.4535 3.58823C17.5037 3.77539 17.4774 3.97481 17.3806 4.14263L16.7545 5.22785C16.6903 5.33898 16.598 5.43125 16.4869 5.49536C16.3757 5.55948 16.2496 5.59318 16.1213 5.59307Z" fill="white"/>
<path d="M19.1396 8.60873C18.9787 8.60889 18.8223 8.55593 18.6946 8.45807C18.5669 8.36021 18.4751 8.22292 18.4334 8.06752C18.3917 7.91212 18.4025 7.74731 18.4641 7.59868C18.5257 7.45004 18.6346 7.3259 18.774 7.24553L19.8592 6.61944C20.027 6.52258 20.2264 6.49635 20.4136 6.54653C20.6008 6.5967 20.7603 6.71917 20.8572 6.88699C20.954 7.05481 20.9803 7.25423 20.9301 7.44139C20.8799 7.62855 20.7575 7.78811 20.5896 7.88497L19.5044 8.51106C19.3935 8.57516 19.2677 8.60885 19.1396 8.60873Z" fill="white"/>
<path d="M21.4958 12.7305H20.2436C20.0499 12.7305 19.8641 12.6535 19.7271 12.5165C19.5901 12.3795 19.5132 12.1938 19.5132 12C19.5132 11.8063 19.5901 11.6205 19.7271 11.4835C19.8641 11.3465 20.0499 11.2696 20.2436 11.2696H21.4958C21.6895 11.2696 21.8753 11.3465 22.0123 11.4835C22.1493 11.6205 22.2262 11.8063 22.2262 12C22.2262 12.1938 22.1493 12.3795 22.0123 12.5165C21.8753 12.6535 21.6895 12.7305 21.4958 12.7305Z" fill="white"/>
<path d="M20.2229 17.4783C20.0948 17.4784 19.969 17.4447 19.8581 17.3806L18.7729 16.7545C18.6898 16.7066 18.6169 16.6427 18.5585 16.5666C18.5001 16.4905 18.4572 16.4036 18.4324 16.311C18.4075 16.2183 18.4012 16.1216 18.4137 16.0265C18.4262 15.9314 18.4573 15.8397 18.5053 15.7566C18.5533 15.6735 18.6171 15.6006 18.6932 15.5422C18.7693 15.4838 18.8562 15.4409 18.9489 15.4161C19.0416 15.3912 19.1382 15.3849 19.2333 15.3974C19.3285 15.4099 19.4202 15.441 19.5033 15.489L20.5885 16.1151C20.7279 16.1955 20.8368 16.3196 20.8984 16.4682C20.96 16.6169 20.9708 16.7817 20.9291 16.9371C20.8874 17.0925 20.7956 17.2298 20.6679 17.3276C20.5402 17.4255 20.3837 17.4785 20.2229 17.4783Z" fill="white"/>
<path d="M14.5045 17.6619H9.49582C9.30209 17.6619 9.1163 17.585 8.97932 17.448C8.84234 17.311 8.76538 17.1252 8.76538 16.9315C8.76538 16.7378 8.84234 16.552 8.97932 16.415C9.1163 16.278 9.30209 16.201 9.49582 16.201H14.5045C14.6982 16.201 14.884 16.278 15.021 16.415C15.158 16.552 15.2349 16.7378 15.2349 16.9315C15.2349 17.1252 15.158 17.311 15.021 17.448C14.884 17.585 14.6982 17.6619 14.5045 17.6619Z" fill="white"/>
</svg>
