<svg width="30" height="30" viewBox="0 0 30 30" fill="none" xmlns="http://www.w3.org/2000/svg">
<path d="M27.1143 12.3328C26.8811 12.2357 26.6114 12.2894 26.4331 12.4683L22.5745 16.3257C22.312 16.5888 21.98 16.7657 21.6175 16.8384L18.4925 17.4634C17.8699 17.5891 17.24 17.3914 16.7994 16.9513C16.355 16.5063 16.1634 15.8728 16.2867 15.2576L16.8379 12.5H6.87498C6.52951 12.5 6.24996 12.2204 6.24996 11.875C6.24996 11.5295 6.52951 11.2499 6.87498 11.2499H17.3668C17.3886 11.2259 17.4012 11.1956 17.4243 11.1724L19.8471 8.74992H6.87498C6.52951 8.74992 6.24996 8.47037 6.24996 8.1249C6.24996 7.77943 6.52951 7.49988 6.87498 7.49988H20.625C20.7581 7.49988 20.8746 7.55062 20.9759 7.62141L25.0317 3.56613C25.3735 3.22371 25.7873 2.95453 26.2622 2.76533C26.4783 2.67926 26.6284 2.47969 26.6516 2.24836C26.676 2.01644 26.5686 1.79121 26.3745 1.663C25.9631 1.39259 25.4883 1.2498 25 1.2498H2.50002C1.12184 1.24998 0 2.37123 0 3.75V28.125C0 28.3777 0.152578 28.6059 0.385723 28.7024C0.462656 28.7347 0.544395 28.75 0.624961 28.75C0.787324 28.75 0.947227 28.6866 1.06688 28.5669L7.13379 22.5H25C26.3782 22.5 27.5 21.3788 27.5 20V12.9101C27.5 12.6575 27.3474 12.4292 27.1143 12.3328ZM14.375 16.25H6.87498C6.52951 16.25 6.24996 15.9704 6.24996 15.625C6.24996 15.2795 6.52951 14.9999 6.87498 14.9999H14.375C14.7205 14.9999 15 15.2795 15 15.625C15 15.9705 14.7205 16.25 14.375 16.25Z" fill="#4FB9DB"/>
<path d="M27.6075 3.75C26.9763 3.75 26.3599 4.00576 25.9156 4.45066L18.3081 12.0569C18.2202 12.1442 18.1616 12.2552 18.1372 12.3761L17.5122 15.5023C17.4707 15.7074 17.5354 15.9192 17.6831 16.0669C17.8015 16.1853 17.9614 16.25 18.125 16.25C18.1653 16.25 18.2068 16.2457 18.247 16.2378L21.3708 15.6128C21.4929 15.5883 21.604 15.5292 21.6907 15.4419L29.2993 7.83445C29.2993 7.83445 29.2993 7.83445 29.2993 7.83387C29.7448 7.38832 30 6.77186 30 6.14256C30 4.82303 28.927 3.75 27.6075 3.75ZM26.6162 8.74992L24.9997 7.1335L25.8835 6.24973L27.5001 7.86627L26.6162 8.74992Z" fill="#A53309"/>
</svg>
