<svg width="18" height="18" viewBox="0 0 18 18" fill="none" xmlns="http://www.w3.org/2000/svg">
<g clip-path="url(#clip0)">
<path d="M15.5833 3H2.41667C2.18654 3 2 2.83211 2 2.625V1.65C2 0.738713 2.82079 0 3.83333 0H14.1667C15.1792 0 16 0.738713 16 1.65V2.625C16 2.83211 15.8135 3 15.5833 3Z" fill="#0078BA"/>
<path d="M16.1016 4H1.89844C0.851625 4 0 4.98205 0 6.18919V13.8108C0 15.0179 0.851625 16 1.89844 16H3.09375V12C3.09375 10.3905 3.60426 9.96284 5 9.96284H13C14.3957 9.96284 14.9062 10.3905 14.9062 12V16H16.1016C17.1484 16 18 15.0179 18 13.8108V6.18919C18 4.98205 17.1484 4 16.1016 4ZM3 8C2.534 8 2 7.53736 2 7C2 6.46264 2.534 6 3 6C3.466 6 4 6.46264 4 7C4 7.53736 3.466 8 3 8Z" fill="#1F97DD"/>
<path d="M13 11L4.84375 11C4.37775 11 4 11.3778 4 11.8438V16.0312V17.1562C4 17.6222 4.37775 18 4.84375 18H13C13.466 18 13.8438 17.6222 13.8438 17.1562V16.0312V11.8438C13.8438 11.3778 13.466 11 13 11Z" fill="#0078BA"/>
</g>
<defs>
<clipPath id="clip0">
<rect width="18" height="18" fill="white"/>
</clipPath>
</defs>
</svg>
