<svg width="18" height="18" viewBox="0 0 18 18" fill="none" xmlns="http://www.w3.org/2000/svg">
<path d="M9.0002 8.06995L8.27148 9.52735H9.72892L9.0002 8.06995Z" fill="#A7AB99"/>
<path d="M7.94531 10.582V13.6187C8.28573 13.6965 8.63634 13.7461 9 13.7461C9.36366 13.7461 9.71427 13.6965 10.0547 13.6187V10.582H7.94531Z" fill="#A7AB99"/>
<path d="M9 4.25391C6.38286 4.25391 4.25391 6.38286 4.25391 9C4.25391 10.8559 5.33468 12.4494 6.89062 13.2292V10.0547C6.89062 10.0491 6.89358 10.0445 6.89379 10.0389C6.89463 10.0077 6.92954 9.86147 6.94199 9.8345C6.94438 9.82941 6.94371 9.82389 6.94624 9.81879L8.52827 6.65473C8.7075 6.29733 9.2925 6.29733 9.47173 6.65473L11.0538 9.81879C11.0652 9.84199 11.1053 10.0041 11.1062 10.0389C11.1064 10.0444 11.1094 10.049 11.1094 10.0547V13.2292C12.6653 12.4494 13.7461 10.8558 13.7461 8.99996C13.7461 6.38286 11.6171 4.25391 9 4.25391Z" fill="#A7AB99"/>
<path d="M17.7085 7.47359L16.6357 6.955C16.4575 6.28914 16.1923 5.65003 15.8446 5.04904L16.2123 3.94646C16.2752 3.75694 16.2257 3.54786 16.0846 3.40675L14.5932 1.91535C14.4521 1.77374 14.2425 1.7248 14.0535 1.78762L12.9509 2.15532C12.3499 1.8077 11.7109 1.54248 11.045 1.36431L10.5264 0.29148C10.4368 0.112781 10.2545 0 10.0547 0H7.94531C7.74548 0 7.5632 0.112781 7.47359 0.29148L6.955 1.36434C6.28914 1.54252 5.65003 1.80773 5.04904 2.15536L3.94646 1.78766C3.75694 1.72484 3.54786 1.77374 3.40675 1.91538L1.91535 3.40675C1.77423 3.54786 1.7248 3.75694 1.78762 3.94646L2.15532 5.04904C1.8077 5.65003 1.54248 6.2891 1.36431 6.955L0.29148 7.47359C0.112781 7.5632 0 7.74548 0 7.94531V10.0547C0 10.2545 0.112781 10.4368 0.29148 10.5264L1.36434 11.045C1.54252 11.7109 1.80773 12.35 2.15536 12.951L1.78766 14.0535C1.72484 14.2431 1.77427 14.4521 1.91538 14.5933L3.40678 16.0847C3.5479 16.2252 3.75697 16.2752 3.9465 16.2124L5.04907 15.8447C5.65007 16.1923 6.28914 16.4575 6.95503 16.6357L7.47362 17.7086C7.5632 17.8872 7.74548 18 7.94531 18H10.0547C10.2545 18 10.4368 17.8872 10.5264 17.7085L11.045 16.6357C11.7109 16.4575 12.35 16.1923 12.951 15.8446L14.0535 16.2123C14.2425 16.2752 14.4521 16.2252 14.5933 16.0846L16.0847 14.5932C16.2258 14.4521 16.2752 14.243 16.2124 14.0535L15.8447 12.9509C16.1923 12.3499 16.4575 11.7109 16.6357 11.045L17.7086 10.5264C17.8872 10.4368 18 10.2545 18 10.0547V7.94531C18 7.74548 17.8872 7.5632 17.7085 7.47359ZM9 14.8008C5.80145 14.8008 3.19922 12.1986 3.19922 9C3.19922 5.80145 5.80145 3.19922 9 3.19922C12.1986 3.19922 14.8008 5.80145 14.8008 9C14.8008 12.1986 12.1986 14.8008 9 14.8008Z" fill="#7A6E49"/>
</svg>
