<svg width="20" height="20" viewBox="0 0 20 20" fill="none" xmlns="http://www.w3.org/2000/svg">
<path d="M17.0312 0H2.96874C1.89179 0 1.01562 0.876168 1.01562 1.95312V16.7968C1.01562 17.2661 1.29297 17.6715 1.69222 17.8585V19.2117C1.69222 19.6423 2.04261 19.9928 2.47328 19.993L17.4216 20H17.422C17.6302 20 17.8262 19.9186 17.9739 19.7709C18.1217 19.623 18.2031 19.427 18.2031 19.2188V17.9015C18.6577 17.7402 18.9843 17.3061 18.9843 16.7968V1.95312C18.9843 0.876168 18.1082 0 17.0312 0ZM18.1359 1.56249H6.87111C7.04287 1.33554 7.16619 1.07003 7.22556 0.781247H17.0312C17.5404 0.781247 17.9746 1.10785 18.1359 1.56249ZM2.96874 0.781247H6.41666C6.25373 1.23695 5.81545 1.56249 5.31264 1.56249H1.86406C2.02531 1.10785 2.45949 0.781247 2.96874 0.781247ZM2.47347 19.2117V17.9687H3.30702V18.1996C3.30702 18.4153 3.4819 18.5902 3.69765 18.5902C3.91339 18.5902 4.08827 18.4153 4.08827 18.1996V17.9687H4.86952V18.1996C4.86952 18.4153 5.0444 18.5902 5.26014 18.5902C5.47588 18.5902 5.65076 18.4153 5.65076 18.1996V17.9687H6.43201V18.1996C6.43201 18.4153 6.60689 18.5902 6.82263 18.5902C7.03837 18.5902 7.21326 18.4153 7.21326 18.1996V17.9687H7.9945V18.1996C7.9945 18.4153 8.16939 18.5902 8.38513 18.5902C8.60087 18.5902 8.77575 18.4153 8.77575 18.1996V17.9687H9.557V18.1996C9.557 18.4153 9.73188 18.5902 9.94762 18.5902C10.1633 18.5902 10.3382 18.4153 10.3382 18.1996V17.9687H11.1195V18.1996C11.1195 18.4153 11.2944 18.5902 11.5101 18.5902C11.7258 18.5902 11.9007 18.4153 11.9007 18.1996V17.9687H12.682V18.1996C12.682 18.4153 12.8569 18.5902 13.0726 18.5902C13.2883 18.5902 13.4632 18.4153 13.4632 18.1996V17.9687H14.2445V18.1996C14.2445 18.4153 14.4194 18.5902 14.6351 18.5902C14.8508 18.5902 15.0257 18.4153 15.0257 18.1996V17.9687H15.807V18.1996C15.807 18.4153 15.9819 18.5902 16.1976 18.5902C16.4133 18.5902 16.5882 18.4153 16.5882 18.1996V17.9687H17.4219L17.422 19.2188L2.47347 19.2117ZM17.8124 17.1874H2.1875C1.97211 17.1874 1.79687 17.0122 1.79687 16.7968V16.4061H3.50249C3.71823 16.4061 3.89311 16.2312 3.89311 16.0155C3.89311 15.7997 3.71823 15.6249 3.50249 15.6249H1.79687V2.34374H18.2031V16.7968C18.2031 17.0122 18.0278 17.1874 17.8124 17.1874Z" fill="#777777"/>
<path d="M13.5628 8.93699C13.4103 8.78445 13.163 8.78445 13.0104 8.93699L12.5724 9.37499H10.9429L11.7241 8.59374H12.3436C12.5593 8.59374 12.7342 8.41886 12.7342 8.20312C12.7342 7.98738 12.5593 7.8125 12.3436 7.8125H11.9529V7.42187C11.9529 7.20613 11.778 7.03125 11.5623 7.03125C11.3466 7.03125 11.1717 7.20613 11.1717 7.42187V8.04128L10.3904 8.82253V7.19301L10.8285 6.755C10.981 6.60246 10.981 6.35512 10.8285 6.20254C10.6759 6.05 10.4286 6.05 10.276 6.20254L9.99978 6.47875L9.72357 6.20254C9.57103 6.05 9.32368 6.05 9.1711 6.20254C9.01853 6.35508 9.01857 6.60242 9.1711 6.755L9.60911 7.19301V8.82249L8.82786 8.04125V7.42187C8.82786 7.20613 8.65298 7.03125 8.43724 7.03125C8.22149 7.03125 8.04661 7.20613 8.04661 7.42187V7.8125H7.65598C7.44024 7.8125 7.26536 7.98738 7.26536 8.20312C7.26536 8.41886 7.44024 8.59374 7.65598 8.59374H8.2754L9.05665 9.37499H7.42716L6.98915 8.93699C6.83661 8.78445 6.58926 8.78445 6.43668 8.93699C6.28411 9.08953 6.28415 9.33687 6.43668 9.48945L6.7129 9.76566L6.43668 10.0419C6.28415 10.1944 6.28415 10.4417 6.43668 10.5943C6.51297 10.6706 6.61294 10.7087 6.7129 10.7087C6.81286 10.7087 6.91286 10.6706 6.98911 10.5943L7.42719 10.1562H9.05673L8.27548 10.9375H7.65602C7.44028 10.9375 7.2654 11.1124 7.2654 11.3281C7.2654 11.5439 7.44028 11.7187 7.65602 11.7187H8.04665V12.1094C8.04665 12.3251 8.22153 12.5 8.43728 12.5C8.65302 12.5 8.8279 12.3251 8.8279 12.1094V11.49L9.60915 10.7087V12.3382L9.17114 12.7763C9.0186 12.9288 9.0186 13.1762 9.17114 13.3287C9.32368 13.4812 9.57103 13.4812 9.72357 13.3287L9.99978 13.0525L10.276 13.3287C10.3523 13.405 10.4522 13.4432 10.5522 13.4431C10.6522 13.4431 10.7521 13.4049 10.8284 13.3287C10.981 13.1762 10.981 12.9288 10.8284 12.7763L10.3904 12.3383V10.7087L11.1717 11.49V12.1094C11.1717 12.3251 11.3466 12.5 11.5623 12.5C11.778 12.5 11.9529 12.3251 11.9529 12.1094V11.7187H12.3435C12.5592 11.7187 12.7342 11.5439 12.7342 11.3281C12.7342 11.1124 12.5592 10.9375 12.3435 10.9375H11.7241L10.9428 10.1562H12.5724L13.0104 10.5942C13.0867 10.6705 13.1867 10.7087 13.2866 10.7087C13.3866 10.7087 13.4865 10.6705 13.5628 10.5942C13.7154 10.4417 13.7154 10.1944 13.5628 10.0418L13.2866 9.76562L13.5628 9.48941C13.7154 9.33687 13.7154 9.08953 13.5628 8.93699Z" fill="#777777"/>
<path d="M5.25976 15.6248C5.04402 15.6248 4.86914 15.7997 4.86914 16.0154C4.86914 16.2312 5.04402 16.4061 5.25976 16.4061H5.26004C5.47578 16.4061 5.65054 16.2312 5.65054 16.0154C5.65054 15.7997 5.4755 15.6248 5.25976 15.6248Z" fill="#777777"/>
</svg>
