<svg width="40" height="40" viewBox="0 0 40 40" fill="none" xmlns="http://www.w3.org/2000/svg">
<g clip-path="url(#clip0_1594_1298)">
<path d="M13.312 8.10059L10.625 10.7876L7.93795 8.10059L6.28076 9.75785L8.96772 12.4449L6.28076 15.1318L7.93795 16.7891L10.625 14.1021L13.312 16.7891L14.9692 15.1318L12.2822 12.4449L14.9692 9.75785L13.312 8.10059Z" fill="#0078BA"/>
<path d="M36.4844 13.273H30.5469V3.41364C30.5469 1.47512 28.9698 -0.10199 27.0312 -0.10199H3.51562C1.57711 -0.10199 0 1.47512 0 3.41364V21.4761C0 23.4147 1.57711 24.9918 3.51562 24.9918H7.79586L14.1406 31.3365V24.9918H16.4844V30.1636C16.4844 32.1022 18.0615 33.6793 20 33.6793H28.2031V40.1021L34.552 33.6793H36.4844C38.4229 33.6793 40 32.1022 40 30.1636V16.7886C40 14.8501 38.4229 13.273 36.4844 13.273ZM11.7969 22.648V25.6782L8.76664 22.648H3.51562C2.86945 22.648 2.34375 22.1223 2.34375 21.4761V3.41364C2.34375 2.76746 2.86945 2.24176 3.51562 2.24176H27.0312C27.6774 2.24176 28.2031 2.76746 28.2031 3.41364V21.4761C28.2031 22.1223 27.6774 22.648 27.0312 22.648H11.7969ZM37.6562 30.1636C37.6562 30.8098 37.1305 31.3355 36.4844 31.3355H33.573L30.5469 34.3971V31.3355H20C19.3538 31.3355 18.8281 30.8098 18.8281 30.1636V24.9918H27.0312C28.9698 24.9918 30.5469 23.4147 30.5469 21.4761V15.6168H36.4844C37.1305 15.6168 37.6562 16.1425 37.6562 16.7886V30.1636Z" fill="#0078BA"/>
<path d="M18.8281 6.58551H25.8594V8.92926H18.8281V6.58551Z" fill="#0078BA"/>
<path d="M18.8281 11.273H25.8594V13.6168H18.8281V11.273Z" fill="#0078BA"/>
<path d="M18.8281 15.9605H25.8594V18.3043H18.8281V15.9605Z" fill="#0078BA"/>
</g>
<defs>
<clipPath id="clip0_1594_1298">
<rect width="40" height="40" fill="white"/>
</clipPath>
</defs>
</svg>
