<svg width="18" height="18" viewBox="0 0 18 18" fill="none" xmlns="http://www.w3.org/2000/svg">
<g clip-path="url(#clip0)">
<path d="M0.838556 9.87041H14.4271C16.3972 9.87041 17.9999 8.3537 17.9999 6.48947C17.9999 4.62797 16.4018 3.113 14.4357 3.10858C14.242 3.10582 12.9843 3.12229 12.0451 3.98879C11.416 4.56929 11.097 5.36694 11.097 6.35947C11.097 6.79773 11.4724 7.153 11.9356 7.153C12.3987 7.153 12.7741 6.7977 12.7741 6.35947C12.7741 5.81588 12.92 5.40311 13.2078 5.13273C13.6562 4.71126 14.3539 4.69609 14.4097 4.69556C14.4175 4.69579 14.4165 4.69567 14.4271 4.69567C15.4723 4.69567 16.3228 5.50038 16.3228 6.48947C16.3228 7.47862 15.4724 8.28332 14.4271 8.28332H0.838556C0.375423 8.28332 0 8.63862 0 9.07685C0 9.51512 0.375423 9.87041 0.838556 9.87041Z" fill="#367FA8"/>
<path d="M0.838556 6.76199H7.31555C9.28554 6.76199 10.8883 5.24528 10.8883 3.38105C10.8883 1.51943 9.29026 0.00440202 7.32403 0.000166724C7.12804 -0.00242151 5.87235 0.0141079 4.93347 0.880373C4.30433 1.46093 3.98532 2.25858 3.98532 3.25111C3.98532 3.68937 4.36071 4.0447 4.82387 4.0447C5.28704 4.0447 5.66237 3.6894 5.66237 3.25111C5.66237 2.70752 5.80836 2.29475 6.0961 2.02437C6.5445 1.60296 7.24214 1.58767 7.29811 1.58714C7.30595 1.58737 7.30489 1.58725 7.31552 1.58725C8.36073 1.58725 9.21116 2.39196 9.21116 3.38105C9.21116 4.3702 8.36079 5.1749 7.31552 5.1749H0.838556C0.375423 5.1749 0 5.5302 0 5.96849C0 6.40678 0.375423 6.76199 0.838556 6.76199Z" fill="#367FA8"/>
<path d="M14.4271 11.238H0.838557C0.375424 11.238 0 11.5933 0 12.0316C0 12.4698 0.375393 12.8251 0.838557 12.8251H14.4271C15.4724 12.8251 16.3228 13.6298 16.3228 14.6189C16.3228 15.608 15.4725 16.4128 14.4271 16.4128C14.4166 16.4128 14.4176 16.4126 14.4097 16.4129C14.3539 16.4123 13.6562 16.3971 13.2078 15.9757C12.9201 15.7053 12.7741 15.2925 12.7741 14.7489C12.7741 14.3106 12.3987 13.9553 11.9356 13.9553C11.4725 13.9553 11.0971 14.3106 11.0971 14.7489C11.0971 15.7415 11.416 16.5391 12.0452 17.1196C12.9465 17.9513 14.1403 18.0001 14.4071 18C14.4184 18 14.4279 18 14.4357 17.9998C16.4019 17.9954 17.9999 16.4805 17.9999 14.619C17.9999 12.7547 16.3972 11.238 14.4271 11.238Z" fill="#367FA8"/>
</g>
<defs>
<clipPath id="clip0">
<rect width="18" height="18" fill="white"/>
</clipPath>
</defs>
</svg>
