<svg width="20" height="20" viewBox="0 0 20 20" fill="none" xmlns="http://www.w3.org/2000/svg">
<g clip-path="url(#clip0)">
<path d="M19.6363 9.28091H14.4358C14.2689 9.28091 14.1244 9.16603 14.0857 9.00365C13.7209 7.47439 12.5121 6.26939 10.9807 5.90998C10.8177 5.8717 10.7021 5.72701 10.7021 5.55959V0.361008C10.7021 0.14632 10.8887 -0.0197729 11.1021 0.00280515C13.3737 0.243547 15.4787 1.24437 17.117 2.88225C18.7507 4.51635 19.7508 6.61529 19.9945 8.88041C20.0174 9.09408 19.8512 9.28091 19.6363 9.28091Z" fill="#0078BA"/>
<path d="M19.9982 11.0314C19.7979 12.9504 19.0551 14.751 17.8445 16.2521C17.7096 16.4193 17.46 16.434 17.308 16.282L14.3965 13.3705L13.6304 12.6044C13.5119 12.4858 13.4918 12.3018 13.5799 12.1591C13.8144 11.7794 13.9897 11.3595 14.0929 10.9122C14.1307 10.7484 14.2756 10.6319 14.4438 10.6319H19.64C19.8545 10.6318 20.0205 10.8181 19.9982 11.0314Z" fill="#0078BA"/>
<path d="M16.3543 17.239C16.506 17.3907 16.4917 17.6398 16.325 17.7749C14.5469 19.2156 12.3473 19.9992 10.0267 19.9992C7.34883 19.9992 4.83083 18.9559 2.93685 17.0624C1.05357 15.1792 0.0118156 12.6789 9.6881e-05 10.0179C-0.0116609 7.34565 1.04724 4.77186 2.93689 2.88226C4.57493 1.24421 6.68016 0.243395 8.95207 0.00280914C9.16524 -0.0197299 9.35125 0.146793 9.35125 0.361129V5.55963C9.35125 5.72737 9.2352 5.8719 9.07188 5.91026C7.22954 6.34307 5.8538 7.99979 5.8538 9.97259C5.8538 12.2731 7.72567 14.1454 10.0266 14.1454C10.8357 14.1454 11.5914 13.9138 12.2316 13.5137C12.3744 13.4245 12.5594 13.4442 12.6784 13.5633L16.3543 17.239Z" fill="#1F97DD"/>
</g>
<defs>
<clipPath id="clip0">
<rect width="20" height="20" fill="white"/>
</clipPath>
</defs>
</svg>
