<svg width="24" height="24" viewBox="0 0 24 24" fill="none" xmlns="http://www.w3.org/2000/svg">
<g clip-path="url(#clip0)">
<path d="M8.68164 21.8349C9.24502 23.1086 10.52 24 12 24C13.4799 24 14.7548 23.1086 15.3183 21.8349H8.68164Z" fill="#777777"/>
<path d="M11.9989 2.29297C12.9755 2.29297 13.9133 2.46528 14.7835 2.78076V2.67357C14.7835 1.19935 13.5841 0 12.11 0H11.8884C10.4142 0 9.21484 1.19935 9.21484 2.67357V2.7794C10.0846 2.46486 11.022 2.29297 11.9989 2.29297V2.29297Z" fill="#777777"/>
<path d="M20.7872 20.4264H3.21114C2.87862 20.4264 2.57404 20.2021 2.50488 19.8768C2.43642 19.5548 2.5832 19.2369 2.88097 19.0994C2.95163 19.0535 3.48351 18.6816 4.016 17.5564C4.99397 15.49 5.19924 12.5792 5.19924 10.5012C5.19924 6.7518 8.2496 3.70154 11.9989 3.70154C15.7394 3.70154 18.7841 6.73711 18.7986 10.4742C18.7989 10.4832 18.7991 10.4922 18.7991 10.5012C18.7991 12.5792 19.0044 15.49 19.9823 17.5564C20.5148 18.6816 21.0467 19.0536 21.1174 19.0994C21.4151 19.2369 21.562 19.5547 21.4935 19.8768C21.4243 20.2021 21.1198 20.4264 20.7872 20.4264ZM21.1253 19.1043H21.1257H21.1253Z" fill="#777777"/>
</g>
<defs>
<clipPath id="clip0">
<rect width="24" height="24" fill="white"/>
</clipPath>
</defs>
</svg>
