<svg width="18" height="18" viewBox="0 0 18 18" fill="none" xmlns="http://www.w3.org/2000/svg">
<g clip-path="url(#clip0)">
<path d="M14.9769 0.197632H10.4536C10.2753 0.197632 10.1305 0.3427 10.1305 0.520725V1.8131H9.48433C9.12796 1.8131 8.83815 2.10291 8.83815 2.45928C8.83815 2.81565 9.12796 3.10547 9.48433 3.10547H10.1305V4.72093H11.4229C11.4229 4.00819 12.0025 3.42856 12.7153 3.42856C13.428 3.42856 14.0076 4.00819 14.0076 4.72093H14.9769C15.1553 4.72093 15.3 4.57586 15.3 4.39784V0.520725C15.3 0.3427 15.1553 0.197632 14.9769 0.197632Z" fill="white"/>
<path d="M8.12736 18C8.90731 18 9.55996 17.444 9.71019 16.7076H6.54453C6.69477 17.444 7.34742 18 8.12736 18Z" fill="white"/>
<path d="M5.54263 5.07633C6.25537 5.07633 6.835 5.65596 6.835 6.3687H8.12737V5.39942C7.41463 5.39942 6.835 4.8198 6.835 4.10705C6.835 3.39431 7.41463 2.81468 8.12737 2.81468V1.19922H7.90734C4.96526 1.19922 2.54626 3.48155 2.32785 6.3687H4.25026C4.25026 5.65596 4.82988 5.07633 5.54263 5.07633Z" fill="white"/>
<path d="M5.86572 13.4768H8.12737V10.892C7.41462 10.892 6.835 10.3124 6.835 9.59965C6.835 8.8869 7.41462 8.30728 8.12737 8.30728V7.0149H6.18881V6.36872C6.18881 6.01235 5.899 5.72253 5.54262 5.72253C5.18625 5.72253 4.89644 6.01235 4.89644 6.36872V7.0149H2.31622C2.37793 8.6168 3.11684 10.105 4.36398 11.1256L5.86572 12.3543V13.4768Z" fill="white"/>
<path d="M12.0045 6.36872C12.0045 6.01235 11.7146 5.72253 11.3583 5.72253C11.0019 5.72253 10.7121 6.01235 10.7121 6.36872V7.0149H8.77352V8.95346H8.12734C7.77097 8.95346 7.48115 9.24328 7.48115 9.59965C7.48115 9.95602 7.77097 10.2458 8.12734 10.2458H8.77352V13.4768H10.389V12.3543L11.8907 11.1256C13.1379 10.105 13.8765 8.6168 13.9385 7.0149H12.0045V6.36872Z" fill="white"/>
<path d="M10.0659 15.4153H6.1888C6.01046 15.4153 5.86571 15.5604 5.86571 15.7384C5.86571 15.9164 6.01046 16.0615 6.1888 16.0615H10.0659C10.2443 16.0615 10.389 15.9164 10.389 15.7384C10.389 15.5604 10.2443 15.4153 10.0659 15.4153Z" fill="white"/>
<path d="M10.7121 14.1229H5.5426C5.36426 14.1229 5.21951 14.268 5.21951 14.446C5.21951 14.624 5.36426 14.7691 5.5426 14.7691H6.18879H10.0659H10.7121C10.8904 14.7691 11.0352 14.624 11.0352 14.446C11.0352 14.268 10.8904 14.1229 10.7121 14.1229Z" fill="white"/>
</g>
<defs>
<clipPath id="clip0">
<rect width="18" height="18" fill="white"/>
</clipPath>
</defs>
</svg>
