<svg width="20" height="20" viewBox="0 0 20 20" fill="none" xmlns="http://www.w3.org/2000/svg">
<path d="M19.4141 7.10938H17.6172V6.52344C17.6172 6.19984 17.3548 5.9375 17.0312 5.9375H15.2734V4.76562H15.8594C16.183 4.76562 16.4453 4.50328 16.4453 4.17969C16.4453 3.85609 16.183 3.59375 15.8594 3.59375H15.2734V2.42188H15.8594C16.183 2.42188 16.4453 2.15953 16.4453 1.83594C16.4453 1.51234 16.183 1.25 15.8594 1.25H15.2734V0.585938C15.2734 0.262344 15.0111 0 14.6875 0C14.3639 0 14.1016 0.262344 14.1016 0.585938V1.25H13.5156C13.192 1.25 12.9297 1.51234 12.9297 1.83594C12.9297 2.15953 13.192 2.42188 13.5156 2.42188H14.1016V3.59375H13.5156C13.192 3.59375 12.9297 3.85609 12.9297 4.17969C12.9297 4.50328 13.192 4.76562 13.5156 4.76562H14.1016V5.9375H10.5859V4.76562H11.1719C11.4955 4.76562 11.7578 4.50328 11.7578 4.17969C11.7578 3.85609 11.4955 3.59375 11.1719 3.59375H10.5859V2.42188H11.1719C11.4955 2.42188 11.7578 2.15953 11.7578 1.83594C11.7578 1.51234 11.4955 1.25 11.1719 1.25H10.5859V0.585938C10.5859 0.262344 10.3236 0 10 0C9.67641 0 9.41406 0.262344 9.41406 0.585938V1.25H8.82812C8.50453 1.25 8.24219 1.51234 8.24219 1.83594C8.24219 2.15953 8.50453 2.42188 8.82812 2.42188H9.41406V3.59375H8.82812C8.50453 3.59375 8.24219 3.85609 8.24219 4.17969C8.24219 4.50328 8.50453 4.76562 8.82812 4.76562H9.41406V5.9375H5.89844V4.76562H6.48438C6.80797 4.76562 7.07031 4.50328 7.07031 4.17969C7.07031 3.85609 6.80797 3.59375 6.48438 3.59375H5.89844V2.42188H6.48438C6.80797 2.42188 7.07031 2.15953 7.07031 1.83594C7.07031 1.51234 6.80797 1.25 6.48438 1.25H5.89844V0.585938C5.89844 0.262344 5.63609 0 5.3125 0C4.98891 0 4.72656 0.262344 4.72656 0.585938V1.25H4.14062C3.81703 1.25 3.55469 1.51234 3.55469 1.83594C3.55469 2.15953 3.81703 2.42188 4.14062 2.42188H4.72656V3.59375H4.14062C3.81703 3.59375 3.55469 3.85609 3.55469 4.17969C3.55469 4.50328 3.81703 4.76562 4.14062 4.76562H4.72656V5.9375H2.96875C2.64516 5.9375 2.38281 6.19984 2.38281 6.52344V7.10938H0.585938C0.262344 7.10938 0 7.37172 0 7.69531V17.0703C0 17.3939 0.262344 17.6562 0.585938 17.6562H2.38281V18.2422C2.38281 18.5658 2.64516 18.8281 2.96875 18.8281H4.72656V19.4141C4.72656 19.7377 4.98891 20 5.3125 20C5.63609 20 5.89844 19.7377 5.89844 19.4141V18.8281H14.1016V19.4141C14.1016 19.7377 14.3639 20 14.6875 20C15.0111 20 15.2734 19.7377 15.2734 19.4141V18.8281H17.0312C17.3548 18.8281 17.6172 18.5658 17.6172 18.2422V17.6562H19.4141C19.7377 17.6562 20 17.3939 20 17.0703V7.69531C20 7.37172 19.7377 7.10938 19.4141 7.10938ZM12.9297 15.3125V9.45312H14.1016V15.3125H12.9297ZM10.5859 15.3125V9.45312H11.7578V15.3125H10.5859ZM8.24219 15.3125V9.45312H9.41406V15.3125H8.24219ZM5.89844 15.3125V9.45312H7.07031V15.3125H5.89844ZM3.55469 15.3125V9.45312H4.72656V15.3125H3.55469ZM15.2734 9.45312H16.4453V15.3125H15.2734V9.45312ZM3.55469 7.10938H16.4453V8.28125H3.55469V7.10938ZM1.17188 16.4844V8.28125H2.38281V16.4844H1.17188ZM16.4453 17.6562H3.55469V16.4844H16.4453V17.6562ZM18.8281 16.4844H17.6172V8.28125H18.8281V16.4844Z" fill="#777777"/>
</svg>
