<svg width="18" height="18" viewBox="0 0 18 18" fill="none" xmlns="http://www.w3.org/2000/svg">
<path d="M16.0767 12.3146C14.9373 10.7664 13.3403 9.6646 11.4948 9.13083C12.3119 8.42851 12.8304 7.38791 12.8304 6.22847V5.53391C14.6393 3.922 13.8613 0.769375 10.8938 0.982757C8.95719 -1.4092 5.07596 1.1316 3.44879 2.61853L5.17702 5.4713V6.22843C5.17702 7.38758 5.69519 8.42793 6.51195 9.13025C2.61217 10.2211 0.00912322 13.9751 0.237557 18H17.7673C17.8508 15.9603 17.306 13.9568 16.0767 12.3146ZM10.5602 10.0915L9.00245 12.2359L7.44471 10.0915H10.5602ZM9.04116 1.1113C9.7176 1.20817 10.0384 1.59648 10.3854 2.17329L10.7486 2.09982C10.753 2.09898 11.1949 2.01585 11.6602 2.11931C12.2 2.23933 12.5283 2.55497 12.6641 3.08422C12.8349 3.75031 12.4954 4.28864 12.2211 4.59557L10.6935 3.36703L5.97534 4.67892L4.86965 2.85378C5.821 2.12012 7.70324 0.923462 9.04116 1.1113ZM6.27036 6.22843V5.73166L10.4457 4.57075L11.737 5.60935V6.22847C11.5868 9.85495 6.41974 9.85316 6.27036 6.22843ZM1.35024 16.9067C1.52467 14.0078 3.54551 11.3234 6.28515 10.3555L7.84067 12.4969H6.30556V15.7769H11.6993V12.4969H10.1642L11.7198 10.3555C14.4594 11.3234 16.4803 14.0079 16.6547 16.9067H1.35024Z" fill="#0089E7"/>
</svg>
