<svg width="20" height="20" viewBox="0 0 20 20" fill="none" xmlns="http://www.w3.org/2000/svg">
<g clip-path="url(#clip0)">
<path d="M17.0833 20H7.08333C5.935 20 5 19.0659 5 17.9167V5.41668C5 4.26751 5.935 3.33334 7.08333 3.33334H17.0833C18.2317 3.33334 19.1667 4.26751 19.1667 5.41668V17.9167C19.1667 19.0659 18.2317 20 17.0833 20ZM7.08333 4.16668C6.39417 4.16668 5.83333 4.72751 5.83333 5.41668V17.9167C5.83333 18.6059 6.39417 19.1667 7.08333 19.1667H17.0833C17.7725 19.1667 18.3333 18.6059 18.3333 17.9167V5.41668C18.3333 4.72751 17.7725 4.16668 17.0833 4.16668H7.08333Z" fill="#0078BA"/>
<path d="M3.7487 17.5H2.91536C1.76703 17.5 0.832031 16.5658 0.832031 15.4167V2.08333C0.832031 0.934166 1.76703 0 2.91536 0H12.9154C14.0637 0 14.9987 0.934166 14.9987 2.08333C14.9987 2.31333 14.812 2.5 14.582 2.5C14.352 2.5 14.1654 2.31333 14.1654 2.08333C14.1654 1.39417 13.6045 0.833333 12.9154 0.833333H2.91536C2.2262 0.833333 1.66536 1.39417 1.66536 2.08333V15.4167C1.66536 16.1058 2.2262 16.6667 2.91536 16.6667H3.7487C3.9787 16.6667 4.16536 16.8533 4.16536 17.0833C4.16536 17.3133 3.9787 17.5 3.7487 17.5Z" fill="#0078BA"/>
<path d="M15.4154 14.1667H8.7487C8.5187 14.1667 8.33203 13.98 8.33203 13.75C8.33203 13.52 8.5187 13.3333 8.7487 13.3333H15.4154C15.6454 13.3333 15.832 13.52 15.832 13.75C15.832 13.98 15.6454 14.1667 15.4154 14.1667Z" fill="#0078BA"/>
<path d="M15.4154 17.5H8.7487C8.5187 17.5 8.33203 17.3133 8.33203 17.0833C8.33203 16.8533 8.5187 16.6667 8.7487 16.6667H15.4154C15.6454 16.6667 15.832 16.8533 15.832 17.0833C15.832 17.3133 15.6454 17.5 15.4154 17.5Z" fill="#0078BA"/>
<path d="M15.4154 10.8333H8.7487C8.5187 10.8333 8.33203 10.6467 8.33203 10.4167C8.33203 10.1867 8.5187 10 8.7487 10H15.4154C15.6454 10 15.832 10.1867 15.832 10.4167C15.832 10.6467 15.6454 10.8333 15.4154 10.8333Z" fill="#0078BA"/>
<path d="M15.4154 7.5H8.7487C8.5187 7.5 8.33203 7.31333 8.33203 7.08333C8.33203 6.85332 8.5187 6.66666 8.7487 6.66666H15.4154C15.6454 6.66666 15.832 6.85332 15.832 7.08333C15.832 7.31333 15.6454 7.5 15.4154 7.5Z" fill="#0078BA"/>
</g>
<defs>
<clipPath id="clip0">
<rect width="20" height="20" fill="white"/>
</clipPath>
</defs>
</svg>
