<svg width="20" height="20" viewBox="0 0 20 20" fill="none" xmlns="http://www.w3.org/2000/svg">
<path d="M16.4741 11.8688L12.9297 10.7782V9.31262C13.6542 8.57254 14.1016 7.56027 14.1016 6.44527V3.90371C14.3708 3.49859 14.8828 2.47922 14.8828 0.585938C14.8828 0.262344 14.6205 0 14.2969 0H8.24219C6.96816 0 5.92828 1.02191 5.89906 2.28906C5.89867 2.29812 5.89844 2.30727 5.89844 2.31645V6.44531C5.89844 7.56031 6.34582 8.57258 7.07031 9.31266V10.7782L3.5259 11.8688C2.66586 12.1334 1.99219 13.0455 1.99219 13.9453V19.4141C1.99219 19.7377 2.25453 20 2.57812 20H17.4219C17.7455 20 18.0078 19.7377 18.0078 19.4141V13.9453C18.0078 13.0455 17.3341 12.1334 16.4741 11.8688ZM13.8694 12.2934L14.0121 13.9112H12.9695C12.7642 13.9112 12.574 14.0186 12.4679 14.1943L10.5859 17.3104V14.5312L12.5653 11.8922L13.8694 12.2934ZM8.24219 10.1506C8.77523 10.4045 9.37125 10.5469 10 10.5469C10.6288 10.5469 11.2247 10.4045 11.7578 10.1506V11.0156L10 13.3594L8.24219 11.0156V10.1506ZM10 9.375C8.38457 9.375 7.07031 8.06074 7.07031 6.44531V4.29688H12.9297V6.44531C12.9297 8.06074 11.6154 9.375 10 9.375ZM8.24219 1.17188H13.6911C13.6179 2.21684 13.3598 2.83551 13.2017 3.125H7.07031V2.34375C7.07031 1.69758 7.59602 1.17188 8.24219 1.17188ZM7.43473 11.8922L9.41406 14.5312V17.3104L7.53211 14.1942C7.42602 14.0186 7.23578 13.9112 7.03055 13.9112H5.98789L6.13063 12.2934L7.43473 11.8922ZM3.16406 13.9453C3.16406 13.5585 3.50078 13.1026 3.87051 12.9889L4.92133 12.6655L4.76426 14.4457C4.74984 14.6094 4.8048 14.7717 4.91582 14.8929C5.0268 15.0141 5.18359 15.0831 5.34797 15.0831H6.69992L8.96164 18.8281H3.16406V13.9453ZM16.8359 18.8281H11.0384L11.7461 17.6562H13.9187C14.2423 17.6562 14.5046 17.3939 14.5046 17.0703C14.5046 16.7467 14.2423 16.4844 13.9187 16.4844H12.4538L13.3 15.0831H14.652C14.8163 15.0831 14.9732 15.0141 15.0841 14.8929C15.1952 14.7716 15.2501 14.6094 15.2357 14.4457L15.0786 12.6655L16.1295 12.9888C16.4992 13.1026 16.8359 13.5585 16.8359 13.9453V18.8281Z" fill="#777777"/>
</svg>
