<svg width="20" height="20" viewBox="0 0 20 20" fill="none" xmlns="http://www.w3.org/2000/svg">
<path d="M15.4667 5.46977C12.9688 5.46977 10.9365 7.50199 10.9365 10C10.9365 12.2995 12.6586 14.2041 14.8808 14.4924V15.1778C14.8808 17.1906 13.2432 18.8281 11.2304 18.8281C9.21766 18.8281 7.58012 17.1906 7.58012 15.1778V9.87672H7.73891C8.70816 9.87672 9.49672 9.08816 9.49672 8.11891V1.75781C9.49672 0.788555 8.70816 0 7.73891 0H1.75977C0.790508 0 0.00195312 0.788555 0.00195312 1.75781V8.11891C0.00195312 9.08816 0.790508 9.87672 1.75977 9.87672H1.94043V11.6016H1.93555C1.61195 11.6016 1.34961 11.8639 1.34961 12.1875C1.34961 12.5111 1.61195 12.7734 1.93555 12.7734H1.94043V14.1091C0.857305 14.373 0.0507031 15.3509 0.0507031 16.5141V17.5243C0.0507031 18.8894 1.16129 20 2.52637 20C3.89145 20 5.00203 18.8894 5.00203 17.5243V16.5141C5.00203 15.3509 4.19539 14.373 3.1123 14.1091V12.7734H3.11719C3.44078 12.7734 3.70312 12.5111 3.70312 12.1875C3.70312 11.8639 3.44078 11.6016 3.11719 11.6016H3.1123V9.87672H6.4082V15.1778C6.4082 17.8368 8.57145 20 11.2304 20C13.8894 20 16.0526 17.8368 16.0526 15.1778V14.4924C18.2748 14.2041 19.997 12.2995 19.997 10C19.997 7.50203 17.9647 5.46977 15.4667 5.46977V5.46977ZM3.8302 16.5141V17.5243C3.8302 18.2432 3.24531 18.8281 2.52641 18.8281C1.8075 18.8281 1.22262 18.2432 1.22262 17.5243V16.5141C1.22262 15.7952 1.8075 15.2103 2.52641 15.2103C3.24531 15.2103 3.8302 15.7952 3.8302 16.5141ZM1.75977 8.70484C1.43668 8.70484 1.17383 8.44199 1.17383 8.11891V1.75781C1.17383 1.43473 1.43668 1.17188 1.75977 1.17188H7.73887C8.06195 1.17188 8.3248 1.43473 8.3248 1.75781V8.11891C8.3248 8.44199 8.06195 8.70484 7.73887 8.70484H1.75977ZM15.4667 13.3584C13.6149 13.3584 12.1084 11.8518 12.1084 10C12.1084 8.1482 13.6149 6.64164 15.4667 6.64164C17.3186 6.64164 18.8251 8.1482 18.8251 10C18.8251 11.8518 17.3185 13.3584 15.4667 13.3584Z" fill="#777777"/>
<path d="M15.4668 7.89551C15.1432 7.89551 14.8809 8.15785 14.8809 8.48145V10C14.8809 10.3236 15.1432 10.5859 15.4668 10.5859C15.7904 10.5859 16.0527 10.3236 16.0527 10V8.48145C16.0527 8.15785 15.7904 7.89551 15.4668 7.89551Z" fill="#777777"/>
<path d="M6.34925 3.492C6.07738 3.12532 5.50812 3.19754 5.33601 3.61977C5.17421 4.0166 4.97308 4.50864 4.78093 4.97707C4.62629 4.30492 4.45425 3.54071 4.31523 2.9134C4.25582 2.64516 4.01793 2.45422 3.74316 2.45422H2.88379C2.56019 2.45422 2.29785 2.71657 2.29785 3.04016C2.29785 3.36375 2.56019 3.6261 2.88379 3.6261H3.27344C3.41113 4.24176 3.85527 6.22176 4.01961 6.82449C4.07269 7.0193 4.1616 7.34535 4.53574 7.41308C4.76656 7.45496 5.00355 7.35402 5.13289 7.15508C5.16593 7.10429 5.19738 7.05578 6.02769 5.02586L6.14374 5.18238C6.33644 5.44234 6.70347 5.49684 6.96339 5.3041C7.22335 5.11137 7.27784 4.74442 7.08511 4.48446L6.34925 3.492Z" fill="#777777"/>
</svg>
