<svg width="27" height="30" viewBox="0 0 27 30" fill="none" xmlns="http://www.w3.org/2000/svg">
<path d="M27 12.4998C27 6.4399 25.0288 -8.61647e-08 21.3751 -2.45873e-07C17.7851 -4.02794e-07 15.7977 6.3324 15.7502 12.2998L15.7502 12.4998C15.7502 18.5597 17.7214 24.9996 21.3751 24.9996C25.0288 24.9996 27 18.5597 27 12.4998ZM18.8751 12.4998C18.8751 9.6161 19.5301 6.2499 21.3751 6.2499C23.2201 6.2499 23.875 9.6161 23.875 12.4998C23.875 15.3835 23.2201 18.7497 21.3751 18.7497C19.5301 18.7497 18.8751 15.3835 18.8751 12.4998Z" fill="#A7A7A7"/>
<path d="M6.24484 29.787L7.93731 28.3996L9.62979 29.787C9.97478 30.0708 10.471 30.0708 10.8173 29.7883L12.5222 28.3983L14.2172 29.787C14.4985 30.017 14.886 30.0645 15.2122 29.9095C15.5409 29.7545 15.7497 29.4245 15.7497 29.062L15.7497 20.7772C14.906 18.3372 14.4997 15.3723 14.4997 12.4998L14.4997 12.2998C14.5385 7.43488 15.7559 2.30371 18.2959 0L6.06234 -5.34746e-07C2.6774 -6.82706e-07 0.124939 5.50741 0.124938 12.8123L0.124938 29.062C0.124938 29.4245 0.333686 29.7545 0.661179 29.9095C0.988675 30.0645 1.37617 30.017 1.65616 29.787L3.35113 28.3983L5.05611 29.7883C5.4036 30.0708 5.89984 30.0708 6.24484 29.787Z" fill="#49BEFF"/>
<path d="M16.9996 24.9995L18.2759 24.9995C17.7984 24.567 17.3834 24.0096 16.9996 23.3983L16.9996 24.9995Z" fill="#49BEFF"/>
</svg>
