<svg width="30" height="30" viewBox="0 0 30 30" fill="none" xmlns="http://www.w3.org/2000/svg">
<path d="M21.9828 13.7519V8.79311H15.7759V13.7519C12.7077 14.6667 10.6043 17.4879 10.6035 20.6897V27.931C10.6035 29.0737 11.5298 30 12.6725 30H25.0863C26.2289 30 27.1552 29.0737 27.1552 27.931V20.6897C27.1545 17.4879 25.0511 14.6667 21.9828 13.7519Z" fill="#B3E4E8"/>
<path d="M10.6035 20.1724H27.1552V27.931C27.1552 29.0737 26.2289 30 25.0863 30H12.6725C11.5298 30 10.6035 29.0737 10.6035 27.931V20.1724Z" fill="#6FBBC6"/>
<path d="M17.8447 10.3448H19.9137V26.3793H17.8447V10.3448Z" fill="#69B0BB"/>
<path d="M17.8447 20.1724H19.9137V26.3793H17.8447V20.1724Z" fill="#3B869E"/>
<path d="M4.91357 1.55173H5.94806V2.58621H4.91357V1.55173Z" fill="#6CBAE5"/>
<path d="M2.84473 0H3.87921V1.03448H2.84473V0Z" fill="#6CBAE5"/>
<path d="M2.84473 3.10345H3.87921V4.13794H2.84473V3.10345Z" fill="#6CBAE5"/>
<path d="M7.5 1.03448H10.0862V3.10345H7.5V1.03448Z" fill="#69B0BB"/>
<path d="M15.7759 8.27586H21.9828V10.8621H15.7759V8.27586Z" fill="#EAEAE8"/>
<path d="M11.1206 3.6207V7.24139L9.56885 10.3448H11.6378L13.1895 7.24139V3.6207H11.1206Z" fill="#69B0BB"/>
<path d="M21.9829 8.79311H15.776L15.2588 4.13794V3.6207H23.0174V4.13794L21.9829 8.79311Z" fill="#CDCDCD"/>
<path d="M9.56885 0H23.0171C24.1598 0 25.0861 0.926315 25.0861 2.06897C25.0861 3.21162 24.1598 4.13793 23.0171 4.13793H9.56885V0Z" fill="#EAEAE8"/>
<path d="M11.1206 4.13792H13.1896V5.68965H11.1206V4.13792Z" fill="#3B869E"/>
<path d="M22.6724 5.68965L23.0174 4.13792H15.2588L15.431 5.68965H22.6724Z" fill="#B9B9B9"/>
</svg>
