<svg width="30" height="30" viewBox="0 0 30 30" fill="none" xmlns="http://www.w3.org/2000/svg">
<g clip-path="url(#clip0)">
<path d="M25.5469 11.4258H4.45312C3.96773 11.4258 3.57422 11.0323 3.57422 10.5469V8.78906C3.57422 8.30367 3.96773 7.91016 4.45312 7.91016H25.5469C26.0323 7.91016 26.4258 8.30367 26.4258 8.78906V10.5469C26.4258 11.0323 26.0323 11.4258 25.5469 11.4258Z" fill="#A53309"/>
<path d="M5.50195 13.1836L7.09377 29.208C7.13848 29.6575 7.51664 30 7.9684 30H22.0309C22.4827 30 22.8608 29.6575 22.9055 29.208L24.4973 13.1836H5.50195ZM13.287 23.7891H10.4327C9.75838 23.7891 9.33287 23.0572 9.67154 22.4707L11.0987 19.9988C11.3414 19.5784 11.8789 19.4343 12.2993 19.6771C12.7197 19.9198 12.8637 20.4573 12.621 20.8777L11.9551 22.0312H13.287C13.7724 22.0312 14.1659 22.4248 14.1659 22.9102C14.1659 23.3955 13.7725 23.7891 13.287 23.7891ZM15.6657 17.9114L14.9996 16.7578L14.3336 17.9114C14.0908 18.3318 13.5533 18.4758 13.133 18.2331C12.7126 17.9904 12.5686 17.4529 12.8113 17.0325L14.2385 14.5605C14.3955 14.2886 14.6856 14.1211 14.9996 14.1211C15.3137 14.1211 15.6038 14.2886 15.7608 14.5605L17.1879 17.0325C17.4307 17.4529 17.2867 17.9904 16.8663 18.2331C16.7279 18.313 16.5768 18.351 16.4276 18.351C16.1239 18.351 15.8285 18.1934 15.6657 17.9114ZM19.5666 23.7891H16.7122C16.2268 23.7891 15.8333 23.3955 15.8333 22.9102C15.8333 22.4248 16.2268 22.0312 16.7122 22.0312H18.0442L17.3782 20.8777C17.1354 20.4573 17.2795 19.9198 17.6999 19.6771C18.1201 19.4344 18.6578 19.5784 18.9005 19.9988L20.3276 22.4708C20.665 23.0548 20.2437 23.7891 19.5666 23.7891Z" fill="#FD7441"/>
<path d="M10.6056 6.15234V4.3943C10.6056 3.90891 10.9991 3.51539 11.4845 3.51539H18.5158C19.0012 3.51539 19.3947 3.90891 19.3947 4.3943V6.15234H24.2557L22.8841 0.665742C22.7863 0.274512 22.4347 0 22.0314 0H7.96891C7.56561 0 7.21404 0.274512 7.11625 0.665742L5.74463 6.15234H10.6056Z" fill="#FD7441"/>
</g>
<defs>
<clipPath id="clip0">
<rect width="30" height="30" fill="white"/>
</clipPath>
</defs>
</svg>
