<svg width="20" height="20" viewBox="0 0 20 20" fill="none" xmlns="http://www.w3.org/2000/svg">
<path d="M18.3509 11.1023L18.4355 10.0877C18.4491 9.92445 18.3938 9.76293 18.2828 9.64234C18.1718 9.52172 18.0154 9.45312 17.8516 9.45312H10.0391C9.87523 9.45312 9.71883 9.52172 9.60789 9.6423C9.49691 9.76289 9.44152 9.92441 9.45516 10.0877L9.53973 11.1023C8.5891 11.3727 7.89062 12.2481 7.89062 13.2843C7.89062 14.8819 8.75215 16.2819 10.0349 17.0447L10.1767 18.7464C10.2353 19.4493 10.8338 20 11.5391 20H16.3514C17.0568 20 17.6553 19.4493 17.7139 18.7464L17.8557 17.0447C19.1385 16.2818 20 14.8819 20 13.2843C20 12.2481 19.3015 11.3727 18.3509 11.1023V11.1023ZM9.0625 13.2843C9.0625 12.8669 9.29695 12.5033 9.64102 12.318L9.90133 15.4416C9.38066 14.8722 9.0625 14.1148 9.0625 13.2843V13.2843ZM16.5461 18.649C16.5377 18.7495 16.4522 18.8281 16.3515 18.8281H11.5391C11.4384 18.8281 11.3529 18.7495 11.3445 18.6491L11.252 17.5381C11.5765 17.6152 11.9148 17.6562 12.2626 17.6562H15.628C15.9758 17.6562 16.3141 17.6152 16.6387 17.5381L16.5461 18.649ZM16.7432 16.2836C16.3957 16.4132 16.0201 16.4844 15.628 16.4844H12.2626C11.8705 16.4844 11.4948 16.4132 11.1474 16.2836L10.6759 10.625H17.2148L16.7432 16.2836ZM17.9893 15.4416L18.2496 12.318C18.5937 12.5032 18.8282 12.8668 18.8282 13.2843C18.8281 14.1148 18.51 14.8723 17.9893 15.4416Z" fill="#777777"/>
<path d="M7.42187 15.8984V14.7266C7.42187 13.8916 6.83648 13.1912 6.05468 13.013V12.3828C6.05468 11.6189 5.5648 10.9677 4.88281 10.7258V0.585938C4.88281 0.262344 4.62046 0 4.29687 0C3.97328 0 3.71093 0.262344 3.71093 0.585938V10.7258C3.02894 10.9677 2.53906 11.6189 2.53906 12.3828V13.013C1.75726 13.1912 1.17187 13.8916 1.17187 14.7266V15.8984C1.17187 17.032 0.797301 18.1557 0.117184 19.0625C-0.0159805 19.24 -0.0373867 19.4776 0.0618711 19.6761C0.16109 19.8746 0.36398 20 0.585934 20H8.00781C8.22976 20 8.43265 19.8746 8.53187 19.6761C8.63113 19.4776 8.60972 19.24 8.47656 19.0625C7.79644 18.1557 7.42187 17.032 7.42187 15.8984ZM3.71093 12.3828C3.71093 12.0597 3.97379 11.7969 4.29687 11.7969C4.61996 11.7969 4.88281 12.0597 4.88281 12.3828V12.9688H3.71093V12.3828ZM3.89754 18.8281L4.23609 17.6189C4.32336 17.3073 4.14144 16.9839 3.82984 16.8967C3.5182 16.8095 3.19488 16.9914 3.10761 17.303L2.68058 18.8281H1.63796C2.09738 17.9246 2.34375 16.9148 2.34375 15.8984V14.7266C2.34375 14.4035 2.6066 14.1406 2.92968 14.1406H5.66406C5.98714 14.1406 6.25 14.4035 6.25 14.7266V15.8984C6.25 16.9148 6.49636 17.9246 6.95578 18.8281H3.89754Z" fill="#777777"/>
<path d="M11.7969 6.52344C11.7969 7.70809 12.7607 8.67188 13.9453 8.67188C14.4525 8.67188 14.9296 8.49613 15.3102 8.17832C15.4979 8.24629 15.6959 8.28125 15.8984 8.28125C16.8677 8.28125 17.6562 7.4927 17.6562 6.52344C17.6562 5.55418 16.8677 4.76562 15.8984 4.76562C15.6959 4.76562 15.4979 4.80063 15.3102 4.86855C14.9296 4.5507 14.4525 4.375 13.9453 4.375C12.7607 4.375 11.7969 5.33879 11.7969 6.52344ZM13.9453 5.54688C14.2521 5.54688 14.5361 5.69137 14.7243 5.94328C14.8178 6.06836 14.9573 6.15094 15.1119 6.17277C15.2667 6.19473 15.4235 6.15379 15.5478 6.05941C15.6211 6.00383 15.7414 5.93754 15.8984 5.93754C16.2215 5.93754 16.4844 6.20039 16.4844 6.52348C16.4844 6.84656 16.2215 7.10941 15.8984 7.10941C15.7414 7.10941 15.6211 7.04312 15.5478 6.98754C15.4234 6.8932 15.2667 6.85238 15.1119 6.87418C14.9573 6.89598 14.8178 6.97859 14.7243 7.10367C14.5361 7.35551 14.2521 7.5 13.9453 7.5C13.4068 7.5 12.9688 7.06191 12.9688 6.52344C12.9688 5.98496 13.4068 5.54688 13.9453 5.54688Z" fill="#777777"/>
<path d="M11.6016 3.51562C12.5708 3.51562 13.3594 2.72707 13.3594 1.75781C13.3594 0.788555 12.5708 0 11.6016 0C10.6323 0 9.84375 0.788555 9.84375 1.75781C9.84375 2.72707 10.6323 3.51562 11.6016 3.51562ZM11.6016 1.17188C11.9246 1.17188 12.1875 1.43473 12.1875 1.75781C12.1875 2.0809 11.9246 2.34375 11.6016 2.34375C11.2785 2.34375 11.0156 2.0809 11.0156 1.75781C11.0156 1.43473 11.2785 1.17188 11.6016 1.17188Z" fill="#777777"/>
</svg>
