<svg width="20" height="20" viewBox="0 0 20 20" fill="none" xmlns="http://www.w3.org/2000/svg">
<g clip-path="url(#clip0)">
<path d="M19.1298 10.8696H18.4777V3.26086C18.4777 2.9007 18.1857 2.60867 17.8255 2.60867H15.8689V0.652187C15.8689 0.292031 15.577 0 15.2168 0H4.78199C4.42184 0 4.1298 0.291992 4.1298 0.652187V2.60871H2.17332C1.81316 2.60871 1.52113 2.9007 1.52113 3.2609V10.8696H0.868984C0.508828 10.8696 0.216797 11.1616 0.216797 11.5218C0.216797 11.882 0.508789 12.174 0.868984 12.174H1.52117C1.52117 12.941 1.52117 18.5746 1.52117 19.3479C1.52117 19.708 1.81316 20.0001 2.17336 20.0001C2.45875 20.0001 17.5098 20.0001 17.8255 20.0001C18.1857 20.0001 18.4777 19.7081 18.4777 19.3479C18.4777 18.5813 18.4777 12.9404 18.4777 12.174H19.1299C19.4901 12.174 19.7821 11.882 19.7821 11.5218C19.7821 11.1616 19.49 10.8696 19.1298 10.8696ZM5.43418 1.30434H14.5646V2.60867H5.43418V1.30434ZM13.2603 6.95652H14.5646V10.8696H13.2603V6.95652ZM8.04289 5.65219V3.91305H11.9559V5.65219H8.04289ZM11.9559 6.95652V10.8696H10.6516V6.95652H11.9559ZM9.34723 6.95652V10.8696H8.04289V6.95652H9.34723ZM2.82551 3.91305C3.24102 3.91305 6.33563 3.91305 6.73855 3.91305V5.65219H2.82551V3.91305ZM6.73855 6.95652V10.8696H5.43418V6.95652H6.73855ZM2.82551 6.95652H4.12984V10.8696H2.82551V6.95652ZM2.82551 14.7826H4.12984V16.087H2.82551V14.7826ZM9.34723 18.6957H8.04289V17.3913H9.34723V18.6957ZM8.15508 16.087C8.4243 15.3279 9.14922 14.7826 9.99941 14.7826C10.8496 14.7826 11.5745 15.3279 11.8437 16.087H8.15508ZM11.9559 18.6957H10.6516V17.3913H11.9559V18.6957ZM17.1733 16.087H15.869V14.7826H17.1733V16.087ZM17.1733 13.4782H15.2168C14.8566 13.4782 14.5646 13.7702 14.5646 14.1304V16.7391C14.5646 17.0993 14.8566 17.3913 15.2168 17.3913H17.1733V18.6957H13.2603V16.7391C13.2603 14.9411 11.7975 13.4783 9.99941 13.4783C8.20137 13.4783 6.73855 14.9411 6.73855 16.7391V18.6957H2.82551V17.3913H4.78203C5.14219 17.3913 5.43422 17.0993 5.43422 16.7391V14.1304C5.43422 13.7703 5.14223 13.4782 4.78203 13.4782H2.82551V12.1739H17.1733V13.4782ZM17.1733 10.8696H15.869V6.95652H17.1733V10.8696ZM17.1733 5.65219H13.2603V3.91305C13.6758 3.91305 16.7704 3.91305 17.1733 3.91305V5.65219V5.65219Z" fill="#777777"/>
</g>
<defs>
<clipPath id="clip0">
<rect width="20" height="20" fill="white"/>
</clipPath>
</defs>
</svg>
