<svg width="20" height="20" viewBox="0 0 20 20" fill="none" xmlns="http://www.w3.org/2000/svg">
<g clip-path="url(#clip0_732_95)">
<path d="M18.0325 2.64214L10.2063 0.0334277C10.0722 -0.0111426 9.92782 -0.0111426 9.79364 0.0334277L1.96755 2.64214C1.70134 2.73089 1.52173 2.98011 1.52173 3.26081V8.48972C1.52169 15.9737 8.18325 20 10 20C11.3035 20 18.4783 16.4569 18.4783 8.48968V3.26077C18.4783 2.98011 18.2987 2.73085 18.0325 2.64214ZM15.8696 8.49112C15.8696 14.1578 10.9644 17.2019 9.99997 17.203V2.75624C10.1946 2.75663 15.2386 4.4587 15.4233 4.52007C15.6895 4.60858 15.8695 4.85804 15.8695 5.1389L15.8696 8.49112Z" fill="#1E538F"/>
</g>
<defs>
<clipPath id="clip0_732_95">
<rect width="20" height="20" fill="white"/>
</clipPath>
</defs>
</svg>
