<svg width="20" height="20" viewBox="0 0 20 20" fill="none" xmlns="http://www.w3.org/2000/svg">
<g clip-path="url(#clip0_732_100)">
<path d="M12.7906 17.4186C11.3647 17.4186 9.9709 16.9958 8.78533 16.2036C7.59977 15.4115 6.67573 14.2855 6.13008 12.9682C5.58442 11.6509 5.44165 10.2013 5.71983 8.80284C5.998 7.40437 6.68462 6.1198 7.69286 5.11156C8.7011 4.10332 9.98567 3.4167 11.3841 3.13853C12.7826 2.86036 14.2322 3.00312 15.5495 3.54878C16.8668 4.09443 17.9928 5.01847 18.7849 6.20403C19.5771 7.3896 19.9999 8.78344 19.9999 10.2093C19.9974 12.1206 19.2371 13.9529 17.8856 15.3043C16.5342 16.6558 14.7019 17.4161 12.7906 17.4186ZM12.7906 4.39535C11.6407 4.39535 10.5166 4.73633 9.56055 5.37518C8.60445 6.01403 7.85926 6.92204 7.41921 7.9844C6.97917 9.04676 6.86403 10.2158 7.08836 11.3436C7.3127 12.4713 7.86642 13.5073 8.67952 14.3204C9.49261 15.1335 10.5286 15.6872 11.6564 15.9115C12.7842 16.1359 13.9531 16.0207 15.0155 15.5807C16.0779 15.1407 16.9859 14.3955 17.6247 13.4394C18.2636 12.4833 18.6046 11.3592 18.6046 10.2093C18.6046 8.66735 17.992 7.18855 16.9017 6.09822C15.8114 5.00789 14.3326 4.39535 12.7906 4.39535Z" fill="#1E538F"/>
<path d="M14.6512 12.7675C14.5595 12.7679 14.4687 12.75 14.384 12.7149C14.2993 12.6797 14.2225 12.628 14.1581 12.5628L12.2977 10.7023C12.1668 10.5716 12.0932 10.3943 12.093 10.2093V6.48838C12.093 6.30335 12.1665 6.12589 12.2974 5.99505C12.4282 5.86422 12.6057 5.79071 12.7907 5.79071C12.9757 5.79071 13.1532 5.86422 13.284 5.99505C13.4149 6.12589 13.4884 6.30335 13.4884 6.48838V9.92094L15.1442 11.5768C15.2748 11.7076 15.3482 11.8849 15.3482 12.0698C15.3482 12.2547 15.2748 12.432 15.1442 12.5628C15.0798 12.628 15.003 12.6797 14.9183 12.7149C14.8337 12.75 14.7428 12.7679 14.6512 12.7675Z" fill="#1E538F"/>
<path d="M6.27914 5.32559H3.48845C3.30341 5.32559 3.12595 5.25208 2.99512 5.12124C2.86428 4.9904 2.79077 4.81295 2.79077 4.62791C2.79077 4.44288 2.86428 4.26542 2.99512 4.13458C3.12595 4.00374 3.30341 3.93024 3.48845 3.93024H6.27914C6.46418 3.93024 6.64163 4.00374 6.77247 4.13458C6.90331 4.26542 6.97682 4.44288 6.97682 4.62791C6.97682 4.81295 6.90331 4.9904 6.77247 5.12124C6.64163 5.25208 6.46418 5.32559 6.27914 5.32559Z" fill="#1E538F"/>
<path d="M4.41855 8.1163H1.62785C1.44282 8.1163 1.26536 8.04279 1.13452 7.91195C1.00368 7.78111 0.930176 7.60366 0.930176 7.41862C0.930176 7.23359 1.00368 7.05613 1.13452 6.92529C1.26536 6.79445 1.44282 6.72095 1.62785 6.72095H4.41855C4.60358 6.72095 4.78104 6.79445 4.91188 6.92529C5.04272 7.05613 5.11622 7.23359 5.11622 7.41862C5.11622 7.60366 5.04272 7.78111 4.91188 7.91195C4.78104 8.04279 4.60358 8.1163 4.41855 8.1163Z" fill="#1E538F"/>
<path d="M4.41855 13.6977H1.62785C1.44282 13.6977 1.26536 13.6242 1.13452 13.4933C1.00368 13.3625 0.930176 13.185 0.930176 13C0.930176 12.815 1.00368 12.6375 1.13452 12.5067C1.26536 12.3758 1.44282 12.3023 1.62785 12.3023H4.41855C4.60358 12.3023 4.78104 12.3758 4.91188 12.5067C5.04272 12.6375 5.11622 12.815 5.11622 13C5.11622 13.185 5.04272 13.3625 4.91188 13.4933C4.78104 13.6242 4.60358 13.6977 4.41855 13.6977Z" fill="#1E538F"/>
<path d="M4.4186 10.907H0.697675C0.51264 10.907 0.335184 10.8335 0.204344 10.7026C0.0735048 10.5718 0 10.3943 0 10.2093C0 10.0243 0.0735048 9.84681 0.204344 9.71597C0.335184 9.58513 0.51264 9.51163 0.697675 9.51163H4.4186C4.60364 9.51163 4.7811 9.58513 4.91194 9.71597C5.04277 9.84681 5.11628 10.0243 5.11628 10.2093C5.11628 10.3943 5.04277 10.5718 4.91194 10.7026C4.7811 10.8335 4.60364 10.907 4.4186 10.907Z" fill="#1E538F"/>
<path d="M6.27914 16.4884H3.48845C3.30341 16.4884 3.12595 16.4149 2.99512 16.2841C2.86428 16.1532 2.79077 15.9758 2.79077 15.7907C2.79077 15.6057 2.86428 15.4282 2.99512 15.2974C3.12595 15.1666 3.30341 15.093 3.48845 15.093H6.27914C6.46418 15.093 6.64163 15.1666 6.77247 15.2974C6.90331 15.4282 6.97682 15.6057 6.97682 15.7907C6.97682 15.9758 6.90331 16.1532 6.77247 16.2841C6.64163 16.4149 6.46418 16.4884 6.27914 16.4884Z" fill="#1E538F"/>
</g>
<defs>
<clipPath id="clip0_732_100">
<rect width="20" height="20" fill="white"/>
</clipPath>
</defs>
</svg>
