<svg width="30" height="30" viewBox="0 0 30 30" fill="none" xmlns="http://www.w3.org/2000/svg">
<g clip-path="url(#clip0_985_904)">
<rect x="0.75" y="0.75" width="28.5" height="28.5" rx="9.25" fill="white" stroke="#1E538F" stroke-width="1.5"/>
<g clip-path="url(#clip1_985_904)">
<path d="M12.7597 19.2015C12.6931 19.1368 12.5996 19.1074 12.5082 19.1224C12.4165 19.1374 12.3374 19.1949 12.2949 19.2775C12.1487 19.5614 11.9631 19.8224 11.7446 20.0531C11.7664 19.8864 11.7774 19.7188 11.7774 19.5507C11.7774 19.2282 11.7342 18.8963 11.6489 18.5641C11.3684 17.4731 10.6331 16.5504 9.63142 16.0327C9.54421 15.9876 9.44031 15.9892 9.35451 16.0369C9.26871 16.0846 9.21251 16.1721 9.20482 16.27C9.12673 17.2615 8.61603 18.1635 7.80289 18.7454C7.79212 18.7531 7.78144 18.761 7.77076 18.7688C7.74863 18.785 7.72777 18.8003 7.70828 18.8131C7.70523 18.8152 7.7022 18.8172 7.69923 18.8194C7.18783 19.1855 6.76585 19.6736 6.47888 20.231C6.18728 20.798 6.03943 21.4064 6.03943 22.0393C6.03943 22.3617 6.08265 22.6936 6.16791 23.0259C6.61781 24.777 8.19367 26 10.0001 26C12.1839 26 13.9606 24.2232 13.9606 22.0393C13.9606 20.9624 13.5341 19.9545 12.7597 19.2015Z" fill="#1E538F"/>
</g>
<g clip-path="url(#clip2_985_904)">
<path d="M20.1621 5.07773C20.1067 5.00877 20.0135 4.98231 19.9306 5.0121C19.8644 5.03544 19.8154 5.09023 19.7983 5.15606C19.7552 5.23773 19.5431 5.52648 19.319 5.83169C18.2852 7.23939 16.3608 9.85981 16.3608 11.3604C16.3608 13.3673 17.9933 15 19.9998 15C22.0067 15 23.6392 13.3673 23.6392 11.3604C23.6392 9.4146 20.3042 5.25377 20.1621 5.07773Z" fill="#1E538F"/>
</g>
<path d="M12.5987 5.1485C12.5466 5.05664 12.4493 5 12.3438 5H8.82814C8.69367 5 8.57666 5.09156 8.54404 5.22201L7.37216 9.92904C7.35013 10.0166 7.36988 10.1093 7.42539 10.1802C7.48089 10.2515 7.56615 10.2929 7.65627 10.2929H8.99123L7.38191 14.604C7.33041 14.7413 7.38849 14.8956 7.51752 14.9651C7.64712 15.0345 7.80748 14.9974 7.89316 14.8792L12.5807 8.41439C12.6456 8.32541 12.6548 8.20754 12.605 8.10912C12.5549 8.011 12.4539 7.9492 12.3438 7.9492H11.1035L12.595 5.44373C12.6493 5.35305 12.6508 5.24033 12.5987 5.1485Z" fill="#1E538F"/>
</g>
<defs>
<clipPath id="clip0_985_904">
<rect width="30" height="30" fill="white"/>
</clipPath>
<clipPath id="clip1_985_904">
<rect width="10" height="10" fill="white" transform="translate(5 16)"/>
</clipPath>
<clipPath id="clip2_985_904">
<rect width="10" height="10" fill="white" transform="translate(15 5)"/>
</clipPath>
</defs>
</svg>
