<svg width="50" height="50" viewBox="0 0 50 50" fill="none" xmlns="http://www.w3.org/2000/svg">
<path d="M35.9375 1.56253C32.9305 1.56192 30.024 2.64532 27.751 4.61406C25.4781 6.5828 23.991 9.30494 23.5625 12.2813C23.531 12.504 23.548 12.731 23.6122 12.9466C23.6765 13.1622 23.7866 13.3614 23.935 13.5305C24.0833 13.6996 24.2665 13.8347 24.4719 13.9265C24.6772 14.0184 24.9 14.0648 25.125 14.0625C25.5018 14.0668 25.8675 13.9347 26.1546 13.6907C26.4417 13.4466 26.631 13.107 26.6875 12.7344C27.0273 10.2646 28.3343 8.0309 30.321 6.52475C32.3078 5.0186 34.8114 4.36335 37.2813 4.70316C39.7511 5.04297 41.9848 6.35 43.4909 8.33671C44.9971 10.3234 45.6523 12.8271 45.3125 15.2969C44.9569 17.5995 43.7769 19.6945 41.9919 21.1921C40.207 22.6896 37.9388 23.4876 35.6094 23.4375H4.6875C4.2731 23.4375 3.87567 23.6022 3.58265 23.8952C3.28962 24.1882 3.125 24.5856 3.125 25C3.125 25.4144 3.28962 25.8119 3.58265 26.1049C3.87567 26.3979 4.2731 26.5625 4.6875 26.5625H35.5C38.7279 26.6148 41.8561 25.4437 44.256 23.2843C46.656 21.125 48.1498 18.1374 48.4375 14.9219C48.5555 13.2096 48.3196 11.4912 47.7445 9.87406C47.1693 8.25687 46.2673 6.77545 45.0946 5.52212C43.9219 4.26879 42.5036 3.2704 40.9282 2.58917C39.3528 1.90795 37.6539 1.55847 35.9375 1.56253Z" fill="#1E538F"/>
<path d="M29.3594 29.6875H4.6875C4.2731 29.6875 3.87567 29.8521 3.58265 30.1451C3.28962 30.4382 3.125 30.8356 3.125 31.25C3.125 31.6644 3.28962 32.0618 3.58265 32.3549C3.87567 32.6479 4.2731 32.8125 4.6875 32.8125H29.3594C30.3053 32.812 31.2391 33.0263 32.0902 33.4391C32.9413 33.852 33.6876 34.4526 34.2729 35.1958C34.8581 35.9391 35.267 36.8054 35.4687 37.7296C35.6705 38.6538 35.6598 39.6118 35.4375 40.5313C35.1039 41.9081 34.3123 43.1308 33.1927 43.9988C32.0731 44.8668 30.6917 45.3287 29.2752 45.3087C27.8586 45.2887 26.4908 44.7881 25.3961 43.8888C24.3014 42.9896 23.5447 41.7451 23.25 40.3594C23.1868 39.9925 22.9946 39.6603 22.7081 39.4225C22.4217 39.1848 22.0597 39.0571 21.6875 39.0625C21.461 39.0599 21.2367 39.1066 21.03 39.1994C20.8234 39.2921 20.6394 39.4287 20.4907 39.5996C20.3421 39.7705 20.2324 39.9717 20.1693 40.1893C20.1061 40.4068 20.091 40.6354 20.125 40.8594C20.4654 42.6023 21.2938 44.2127 22.5138 45.5031C23.7339 46.7936 25.2953 47.7109 27.0164 48.1485C28.7376 48.586 30.5476 48.5257 32.2357 47.9745C33.9239 47.4234 35.4208 46.4041 36.5522 45.0353C37.6836 43.6665 38.403 42.0045 38.6266 40.2428C38.8502 38.481 38.5688 36.692 37.8152 35.084C37.0615 33.476 35.8667 32.1151 34.3697 31.1597C32.8728 30.2043 31.1352 29.6938 29.3594 29.6875Z" fill="#1E538F"/>
<path d="M13.4219 16.9532H4.8125C4.3981 16.9532 4.00067 17.1178 3.70765 17.4108C3.41462 17.7038 3.25 18.1013 3.25 18.5157C3.25 18.9301 3.41462 19.3275 3.70765 19.6205C4.00067 19.9135 4.3981 20.0782 4.8125 20.0782H13.3438C15.1301 20.1076 16.8644 19.4763 18.2139 18.3056C19.5634 17.1348 20.4332 15.507 20.6563 13.7344C20.828 11.9947 20.3455 10.2533 19.3028 8.85005C18.2602 7.4468 16.7321 6.48229 15.0168 6.1447C13.3015 5.8071 11.5219 6.12062 10.0253 7.02409C8.52862 7.92757 7.42221 9.3562 6.92187 11.0313C6.8492 11.2703 6.83489 11.5232 6.88012 11.7689C6.92536 12.0145 7.02884 12.2458 7.18188 12.4432C7.33492 12.6406 7.53305 12.7984 7.75968 12.9035C7.98631 13.0085 8.23482 13.0577 8.48437 13.0469C8.8413 13.0573 9.19103 12.9451 9.47532 12.7291C9.75962 12.513 9.96133 12.2061 10.0469 11.8594C10.3402 10.9411 10.9627 10.1636 11.7947 9.67666C12.6267 9.18967 13.6093 9.02753 14.5537 9.22144C15.498 9.41535 16.3373 9.9516 16.91 10.727C17.4828 11.5025 17.7486 12.4623 17.6563 13.4219C17.5205 14.4337 17.0102 15.3577 16.2262 16.0115C15.4422 16.6653 14.4416 17.0013 13.4219 16.9532Z" fill="#1E538F"/>
</svg>
