<svg width="50" height="50" viewBox="0 0 50 50" fill="none" xmlns="http://www.w3.org/2000/svg">
<path d="M38.4381 1.56329H11.5612C9.78442 1.56329 8.34399 3.00372 8.34399 4.78048V31.2889C8.34399 33.0656 9.78442 34.5061 11.5612 34.5061H38.4381C40.2149 34.5061 41.6553 33.0656 41.6553 31.2889V4.78048C41.6555 3.00372 40.2151 1.56329 38.4381 1.56329Z" fill="#72C1E8"/>
<path d="M38.4383 32.6506H13.975C13.7053 32.6506 13.4867 32.432 13.4867 32.1623C13.4867 31.8926 13.7053 31.674 13.975 31.674H38.4381C38.6504 31.674 38.8233 31.5012 38.8233 31.2889V4.78046C38.8233 4.51073 39.0418 4.29218 39.3115 4.29218C39.5813 4.29218 39.7998 4.51073 39.7998 4.78046V31.2889C39.8 32.0396 39.1891 32.6506 38.4383 32.6506ZM12.0219 32.6506H11.5612C11.2914 32.6506 11.0729 32.432 11.0729 32.1623C11.0729 31.8926 11.2914 31.674 11.5612 31.674H12.0219C12.2916 31.674 12.5102 31.8926 12.5102 32.1623C12.5102 32.432 12.2916 32.6506 12.0219 32.6506Z" fill="#C5E5FF"/>
<path d="M12.3043 34.506V46.4851C12.3043 47.5639 13.1787 48.4383 14.2574 48.4383H35.7418C36.8205 48.4383 37.6949 47.5639 37.6949 46.4851V34.506H12.3043Z" fill="#72C1E8"/>
<path d="M35.3513 46.5828H17.2523C16.9826 46.5828 16.764 46.3642 16.764 46.0945C16.764 45.8248 16.9826 45.6062 17.2523 45.6062H34.863V36.8498C34.863 36.5801 35.0816 36.3615 35.3513 36.3615C35.621 36.3615 35.8396 36.5801 35.8396 36.8498V46.0945C35.8396 46.3642 35.6208 46.5828 35.3513 46.5828ZM15.2992 46.5828H14.6482C14.3785 46.5828 14.1599 46.3642 14.1599 46.0945C14.1599 45.8248 14.3785 45.6062 14.6482 45.6062H15.2992C15.5689 45.6062 15.7875 45.8248 15.7875 46.0945C15.7875 46.3642 15.5689 46.5828 15.2992 46.5828Z" fill="#C5E5FF"/>
<path d="M21.484 39.7543H26.0059V43.1898H21.484V39.7543Z" fill="white"/>
<path d="M27.5049 38.7428H27.0164C26.4584 38.7428 26.0059 39.1951 26.0059 39.7533V43.191C26.0059 43.749 26.4582 44.2016 27.0164 44.2016H27.5049C28.0629 44.2016 28.5154 43.7492 28.5154 43.191V39.7533C28.5152 39.1953 28.0629 38.7428 27.5049 38.7428Z" fill="#FC5D3D"/>
<path d="M34.9498 6.0459H15.0494C14.5742 6.0459 14.1892 6.43105 14.1892 6.90605V18.5727C14.1892 19.0479 14.5744 19.4328 15.0494 19.4328H34.9498C35.4249 19.4328 35.8099 19.0477 35.8099 18.5727V6.90605C35.8101 6.43105 35.4249 6.0459 34.9498 6.0459Z" fill="#F0C020"/>
<path d="M33.6617 17.7729H19.3144C19.0447 17.7729 18.8261 17.5543 18.8261 17.2846C18.8261 17.0148 19.0447 16.7963 19.3144 16.7963H33.1734V8.19434C33.1734 7.92461 33.3919 7.70605 33.6617 7.70605C33.9314 7.70605 34.15 7.92461 34.15 8.19434V17.2846C34.15 17.5543 33.9314 17.7729 33.6617 17.7729ZM17.3613 17.7729H16.3376C16.0679 17.7729 15.8494 17.5543 15.8494 17.2846C15.8494 17.0148 16.0679 16.7963 16.3376 16.7963H17.3613C17.631 16.7963 17.8496 17.0148 17.8496 17.2846C17.8496 17.5543 17.631 17.7729 17.3613 17.7729Z" fill="#F9E5AF"/>
<path d="M32.5872 29.9753C33.2452 29.8198 33.6525 29.1603 33.497 28.5023C33.3414 27.8444 32.682 27.4371 32.024 27.5926C31.366 27.7481 30.9587 28.4076 31.1143 29.0656C31.2698 29.7235 31.9293 30.1308 32.5872 29.9753Z" fill="#13BF6D"/>
<path d="M33.1661 24.8567C33.6442 24.3786 33.6442 23.6035 33.1661 23.1254C32.688 22.6473 31.9128 22.6473 31.4348 23.1254C30.9567 23.6035 30.9567 24.3786 31.4348 24.8567C31.9128 25.3348 32.688 25.3348 33.1661 24.8567Z" fill="#FC5D3D"/>
<path d="M14.613 41.472C14.613 42.4951 15.4455 43.3275 16.4685 43.3275C17.4916 43.3275 18.324 42.4951 18.324 41.472C18.324 40.449 17.4916 39.6166 16.4685 39.6166C15.4455 39.6166 14.613 40.449 14.613 41.472ZM17.3474 41.472C17.3474 41.9566 16.9531 42.351 16.4685 42.351C15.9839 42.351 15.5896 41.9566 15.5896 41.472C15.5896 40.9875 15.9839 40.5931 16.4685 40.5931C16.9531 40.5931 17.3474 40.9875 17.3474 41.472Z" fill="#222222"/>
<path d="M33.5632 42.4162V40.4957C33.5632 40.226 33.3447 40.0074 33.075 40.0074C32.8052 40.0074 32.5867 40.226 32.5867 40.4957V42.4162C32.5867 42.686 32.8052 42.9045 33.075 42.9045C33.3447 42.9045 33.5632 42.686 33.5632 42.4162Z" fill="#222222"/>
<path d="M8.34473 10.4453C8.6144 10.4453 8.83301 10.2267 8.83301 9.95703C8.83301 9.68736 8.6144 9.46875 8.34473 9.46875C8.07506 9.46875 7.85645 9.68736 7.85645 9.95703C7.85645 10.2267 8.07506 10.4453 8.34473 10.4453Z" fill="#222222"/>
<path d="M11.5615 34.9941H11.8154V46.4844C11.8154 47.832 12.9111 48.9258 14.2568 48.9258H30.46C30.7275 48.9258 30.9482 48.707 30.9482 48.4375C30.9482 48.1699 30.7275 47.9512 30.46 47.9512L14.2568 47.9492C13.4521 47.9492 12.7939 47.291 12.792 46.4844V34.9941H37.2061V46.4844C37.2061 47.291 36.5478 47.9492 35.7412 47.9492H34.3662C34.0967 47.9492 33.8779 48.168 33.8779 48.4375C33.8779 48.707 34.0967 48.9258 34.3662 48.9258H34.3682H35.7412C37.0869 48.9258 38.1826 47.832 38.1826 46.4844V34.9941H38.4385C40.4814 34.9941 42.1435 33.332 42.1435 31.2891V4.78125C42.1435 2.73828 40.4814 1.07617 38.4385 1.07422H11.5615C9.51855 1.07617 7.85645 2.73828 7.85645 4.78125V8.00391C7.85645 8.27344 8.0752 8.49219 8.34473 8.49219C8.61426 8.49219 8.83301 8.27344 8.83301 8.00391V4.78125C8.83496 3.2793 10.0596 2.05469 11.5615 2.05078H38.4385C39.9404 2.05469 41.165 3.2793 41.167 4.78125V31.2891C41.165 32.791 39.9404 34.0156 38.4385 34.0176H11.5615C10.0596 34.0156 8.83496 32.791 8.83301 31.2891V11.9102C8.83301 11.6406 8.6123 11.4219 8.34473 11.4219C8.0752 11.4219 7.85645 11.6406 7.85645 11.9102V31.2891C7.85645 33.332 9.51855 34.9941 11.5615 34.9941Z" fill="#222222"/>
<path d="M24.2392 15.9379C24.4638 16.0883 24.7671 16.0272 24.9166 15.8035L26.7843 13.0109C27.0011 12.6867 26.7677 12.2512 26.3785 12.2512H24.5351L25.8947 10.2186C26.0447 9.99434 25.9843 9.69102 25.7603 9.54122C25.5359 9.39122 25.233 9.45157 25.083 9.67559L23.2152 12.468C22.9984 12.7924 23.2318 13.2277 23.6211 13.2277H25.4644L24.1048 15.2606C23.9548 15.4846 24.015 15.7879 24.2392 15.9379Z" fill="#222222"/>
<path d="M18.0056 22.3763H16.4685C16.1988 22.3763 15.9802 22.5949 15.9802 22.8646C15.9802 23.1344 16.1988 23.3529 16.4685 23.3529H18.0056C18.2753 23.3529 18.4939 23.1344 18.4939 22.8646C18.4939 22.5949 18.2753 22.3763 18.0056 22.3763Z" fill="#222222"/>
<path d="M18.0056 25.9064H16.4685C16.1988 25.9064 15.9802 26.125 15.9802 26.3947C15.9802 26.6644 16.1988 26.883 16.4685 26.883H18.0056C18.2753 26.883 18.4939 26.6644 18.4939 26.3947C18.4939 26.125 18.2753 25.9064 18.0056 25.9064Z" fill="#222222"/>
<path d="M18.0056 29.4363H16.4685C16.1988 29.4363 15.9802 29.6549 15.9802 29.9246C15.9802 30.1943 16.1988 30.4129 16.4685 30.4129H18.0056C18.2753 30.4129 18.4939 30.1943 18.4939 29.9246C18.4939 29.6549 18.2753 29.4363 18.0056 29.4363Z" fill="#222222"/>
<path d="M22.6527 22.3763H21.1156C20.8459 22.3763 20.6273 22.5949 20.6273 22.8646C20.6273 23.1344 20.8459 23.3529 21.1156 23.3529H22.6527C22.9224 23.3529 23.141 23.1344 23.141 22.8646C23.141 22.5949 22.9224 22.3763 22.6527 22.3763Z" fill="#222222"/>
<path d="M22.6527 25.9064H21.1156C20.8459 25.9064 20.6273 26.125 20.6273 26.3947C20.6273 26.6644 20.8459 26.883 21.1156 26.883H22.6527C22.9224 26.883 23.141 26.6644 23.141 26.3947C23.141 26.125 22.9224 25.9064 22.6527 25.9064Z" fill="#222222"/>
<path d="M22.6527 29.4363H21.1156C20.8459 29.4363 20.6273 29.6549 20.6273 29.9246C20.6273 30.1943 20.8459 30.4129 21.1156 30.4129H22.6527C22.9224 30.4129 23.141 30.1943 23.141 29.9246C23.141 29.6549 22.9224 29.4363 22.6527 29.4363Z" fill="#222222"/>
<path d="M27.2998 22.3763H25.7627C25.493 22.3763 25.2744 22.5949 25.2744 22.8646C25.2744 23.1344 25.493 23.3529 25.7627 23.3529H27.2998C27.5695 23.3529 27.7881 23.1344 27.7881 22.8646C27.7881 22.5949 27.5695 22.3763 27.2998 22.3763Z" fill="#222222"/>
<path d="M27.2998 25.9064H25.7627C25.493 25.9064 25.2744 26.125 25.2744 26.3947C25.2744 26.6644 25.493 26.883 25.7627 26.883H27.2998C27.5695 26.883 27.7881 26.6644 27.7881 26.3947C27.7881 26.125 27.5695 25.9064 27.2998 25.9064Z" fill="#222222"/>
<path d="M27.2998 29.4363H25.7627C25.493 29.4363 25.2744 29.6549 25.2744 29.9246C25.2744 30.1943 25.493 30.4129 25.7627 30.4129H27.2998C27.5695 30.4129 27.7881 30.1943 27.7881 29.9246C27.7881 29.6549 27.5695 29.4363 27.2998 29.4363Z" fill="#222222"/>
<path d="M35.8096 14.0371C36.0792 14.0371 36.2979 13.8185 36.2979 13.5488C36.2979 13.2792 36.0792 13.0605 35.8096 13.0605C35.5399 13.0605 35.3213 13.2792 35.3213 13.5488C35.3213 13.8185 35.5399 14.0371 35.8096 14.0371Z" fill="#222222"/>
<path d="M36.2979 6.90625C36.2979 6.16211 35.6924 5.55859 34.9502 5.55664H15.0498C14.3057 5.55859 13.7021 6.16211 13.7002 6.90625V18.5723C13.7021 19.3164 14.3057 19.9199 15.0498 19.9219H34.9502C35.6924 19.9199 36.2979 19.3164 36.2979 18.5723V15.502C36.2979 15.2324 36.0791 15.0137 35.8096 15.0137C35.54 15.0137 35.3213 15.2324 35.3213 15.502V18.5723C35.3213 18.7773 35.1553 18.9453 34.9502 18.9453H15.0498C14.8447 18.9453 14.6787 18.7773 14.6768 18.5723V6.90625C14.6787 6.70117 14.8447 6.53516 15.0498 6.5332H34.9502C35.1553 6.53516 35.3213 6.70117 35.3213 6.90625V11.5957C35.3213 11.8652 35.54 12.084 35.8096 12.084C36.0791 12.084 36.2979 11.8652 36.2979 11.5957V6.90625Z" fill="#222222"/>
<path d="M32.4131 48.9258C32.6828 48.9258 32.9014 48.7072 32.9014 48.4375C32.9014 48.1678 32.6828 47.9492 32.4131 47.9492C32.1434 47.9492 31.9248 48.1678 31.9248 48.4375C31.9248 48.7072 32.1434 48.9258 32.4131 48.9258Z" fill="#222222"/>
<path d="M27.0164 38.2545C26.3608 38.2545 25.8035 38.6783 25.6006 39.266H21.484C21.2143 39.266 20.9957 39.4846 20.9957 39.7543V43.1901C20.9957 43.4598 21.2143 43.6783 21.484 43.6783H25.6006C25.8035 44.266 26.3608 44.6899 27.0164 44.6899H27.5047C28.3311 44.6899 29.0035 44.0176 29.0035 43.191V39.7533C29.0035 38.927 28.3313 38.2545 27.5047 38.2545H27.0164ZM21.9725 40.2426H25.5178V42.7018H21.9725V40.2426ZM28.0272 39.7533V43.191C28.0272 43.4789 27.7928 43.7133 27.5049 43.7133H27.0166C26.7287 43.7133 26.4944 43.4789 26.4944 43.191V43.1901V39.7543V39.7533C26.4944 39.4655 26.7287 39.2311 27.0166 39.2311H27.5049C27.7928 39.2311 28.0272 39.4655 28.0272 39.7533Z" fill="#222222"/>
<path d="M32.3065 22.2775C31.3622 22.2775 30.594 23.0459 30.594 23.9902C30.594 24.9346 31.3622 25.7029 32.3065 25.7029C33.2508 25.7029 34.0192 24.9346 34.0192 23.9902C34.0192 23.0459 33.2508 22.2775 32.3065 22.2775ZM32.3065 24.7262C31.9006 24.7262 31.5706 24.3961 31.5706 23.99C31.5706 23.584 31.9006 23.2539 32.3065 23.2539C32.7124 23.2539 33.0426 23.584 33.0426 23.99C33.0426 24.3961 32.7124 24.7262 32.3065 24.7262Z" fill="#222222"/>
<path d="M32.3065 27.0865C31.3622 27.0865 30.594 27.8549 30.594 28.7992C30.594 29.7436 31.3622 30.5119 32.3065 30.5119C33.2508 30.5119 34.0192 29.7436 34.0192 28.7992C34.0192 27.8549 33.2508 27.0865 32.3065 27.0865ZM32.3065 29.5352C31.9006 29.5352 31.5706 29.2051 31.5706 28.799C31.5706 28.393 31.9006 28.0629 32.3065 28.0629C32.7124 28.0629 33.0426 28.393 33.0426 28.799C33.0426 29.2051 32.7124 29.5352 32.3065 29.5352Z" fill="#222222"/>
</svg>
