<svg width="50" height="50" viewBox="0 0 50 50" fill="none" xmlns="http://www.w3.org/2000/svg">
<path fill-rule="evenodd" clip-rule="evenodd" d="M13.5162 1.5625H36.4838C39.3152 1.5625 41.6317 3.879 41.6317 6.71035V47.4848C41.6317 48.0095 41.2036 48.4375 40.6789 48.4375H9.32102C8.79631 48.4375 8.36829 48.0095 8.36829 47.4848V6.71035C8.36829 3.879 10.6849 1.5625 13.5162 1.5625Z" fill="#A2DDFF"/>
<path fill-rule="evenodd" clip-rule="evenodd" d="M16.1099 42.2205C17.0607 42.2205 17.8362 41.445 17.8362 40.4943C17.8362 39.5436 17.0607 38.7681 16.1099 38.7681C15.1592 38.7681 14.3837 39.5436 14.3837 40.4943C14.3837 41.4451 15.1592 42.2205 16.1099 42.2205Z" fill="#EB745E"/>
<path fill-rule="evenodd" clip-rule="evenodd" d="M25.0001 42.2205C25.9509 42.2205 26.7263 41.445 26.7263 40.4943C26.7263 39.5436 25.9509 38.7681 25.0001 38.7681C24.0493 38.7681 23.2738 39.5436 23.2738 40.4943C23.2738 41.4451 24.0493 42.2205 25.0001 42.2205Z" fill="#FFD54F"/>
<path fill-rule="evenodd" clip-rule="evenodd" d="M33.8901 42.2205C34.8409 42.2205 35.6164 41.445 35.6164 40.4943C35.6164 39.5436 34.8409 38.7681 33.8901 38.7681C32.9393 38.7681 32.1638 39.5436 32.1638 40.4943C32.1638 41.4451 32.9393 42.2205 33.8901 42.2205Z" fill="#99FF94"/>
<path fill-rule="evenodd" clip-rule="evenodd" d="M14.0326 1.5625V21.9412C14.0326 27.9732 18.9679 32.9086 25 32.9086C31.032 32.9086 35.9674 27.9732 35.9674 21.9412V1.5625H14.0326Z" fill="#99FF94"/>
<path fill-rule="evenodd" clip-rule="evenodd" d="M20.1898 8.00566C20.1898 7.62793 20.4958 7.32236 20.8731 7.32236H29.1271C29.5052 7.32236 29.8109 7.62793 29.8109 8.00566C29.8109 8.3834 29.5053 8.68945 29.1271 8.68945H20.8731C20.4957 8.68945 20.1898 8.3834 20.1898 8.00566ZM33.8908 41.5371C33.3156 41.5371 32.8478 41.0693 32.8478 40.4939C32.8478 39.9191 33.3156 39.4513 33.8908 39.4513C34.4648 39.4513 34.9325 39.919 34.9325 40.4939C34.9326 41.0693 34.4648 41.5371 33.8908 41.5371ZM33.8908 38.0838C32.5614 38.0838 31.4807 39.165 31.4807 40.4939C31.4807 41.8233 32.5614 42.9042 33.8908 42.9042C35.2189 42.9042 36.2996 41.8233 36.2996 40.4939C36.2997 39.165 35.2189 38.0838 33.8908 38.0838ZM25 41.5371C24.4251 41.5371 23.9573 41.0693 23.9573 40.4939C23.9573 39.9191 24.4251 39.4513 25 39.4513C25.5748 39.4513 26.0427 39.919 26.0427 40.4939C26.0427 41.0693 25.5749 41.5371 25 41.5371ZM25 38.0838C23.671 38.0838 22.5903 39.165 22.5903 40.4939C22.5903 41.8233 23.671 42.9042 25 42.9042C26.3289 42.9042 27.4098 41.8233 27.4098 40.4939C27.4098 39.165 26.3289 38.0838 25 38.0838ZM16.1101 41.5371C15.5348 41.5371 15.0674 41.0693 15.0674 40.4939C15.0674 39.9191 15.5348 39.4513 16.1101 39.4513C16.6849 39.4513 17.1528 39.919 17.1528 40.4939C17.1528 41.0693 16.685 41.5371 16.1101 41.5371ZM16.1101 38.0838C14.7811 38.0838 13.7003 39.165 13.7003 40.4939C13.7003 41.8233 14.7811 42.9042 16.1101 42.9042C17.4386 42.9042 18.5198 41.8233 18.5198 40.4939C18.5198 39.165 17.4386 38.0838 16.1101 38.0838ZM24.3167 17.2655V20.4505C24.3167 20.8277 24.6228 21.1338 25 21.1338C25.3778 21.1338 25.6838 20.8277 25.6838 20.4505V17.2655C27.8578 17.5959 29.5295 19.4781 29.5295 21.7431C29.5295 24.2405 27.4975 26.2726 25 26.2726C22.5025 26.2726 20.4704 24.2405 20.4704 21.7431C20.4705 19.4781 22.1422 17.5959 24.3167 17.2655ZM25 27.6397C28.2516 27.6397 30.8966 24.9947 30.8966 21.7432C30.8966 18.7231 28.6142 16.2275 25.6838 15.8875V14.6118C25.6838 14.2341 25.3778 13.9285 25 13.9285C24.6228 13.9285 24.3167 14.2341 24.3167 14.6118V15.8875C21.3864 16.2275 19.1034 18.7232 19.1034 21.7432C19.1034 24.9947 21.7489 27.6397 25 27.6397ZM40.9483 47.754V6.71025C40.9483 4.30469 39.0353 2.33877 36.6517 2.2501V21.9411C36.6517 28.3657 31.425 33.5919 25 33.5919C18.5759 33.5919 13.3488 28.3657 13.3488 21.9411V2.2501C10.9648 2.33887 9.05178 4.30469 9.05178 6.71025V47.754H40.9483ZM14.7163 2.246V21.9411C14.7163 27.6116 19.3295 32.2248 25 32.2248C30.671 32.2248 35.2841 27.6116 35.2841 21.9411V2.246H14.7163ZM36.4835 0.878906H13.5165C10.3008 0.878906 7.68469 3.49502 7.68469 6.71025V48.4377C7.68469 48.8154 7.99075 49.121 8.36848 49.121H41.632C42.0088 49.121 42.3153 48.8154 42.3153 48.4377V6.71025C42.3154 3.49502 39.6992 0.878906 36.4835 0.878906Z" fill="#222222"/>
</svg>
