<svg width="50" height="50" viewBox="0 0 50 50" fill="none" xmlns="http://www.w3.org/2000/svg">
<g clip-path="url(#clip0_5286_23)">
<path d="M26.7396 26.7797H25.7796L26.566 25.4574C26.98 24.7613 26.7514 23.8615 26.0551 23.4475C25.3591 23.0335 24.4591 23.2622 24.0452 23.9583L21.9408 27.4967C21.6713 27.9499 21.6658 28.5129 21.9265 28.9712C22.1873 29.4297 22.6739 29.7127 23.2013 29.7127H24.1352L23.2761 31.1293C22.8561 31.8217 23.077 32.7237 23.7695 33.1436C24.0072 33.2878 24.2694 33.3564 24.5285 33.3564C25.0242 33.3564 25.508 33.1051 25.7838 32.6502L27.9936 29.0066C28.2682 28.5538 28.2773 27.9881 28.0174 27.5267C27.7576 27.0652 27.2691 26.7797 26.7396 26.7797Z" fill="#1E538F"/>
<path d="M13.0104 14.6197H36.9303C37.7401 14.6197 38.3967 13.9631 38.3967 13.1532V7.3024C38.3967 6.49252 37.7401 5.83594 36.9303 5.83594H13.0104C12.2005 5.83594 11.5439 6.49252 11.5439 7.3024V13.1532C11.5439 13.9631 12.2005 14.6197 13.0104 14.6197ZM23.5038 11.6867H20.5709V8.76886H23.5038V11.6867ZM26.4367 8.76886H29.3697V11.6867H26.4367V8.76886ZM35.4637 11.6867H32.3026V8.76886H35.4637V11.6867ZM14.4769 8.76886H17.6381V11.6867H14.4769V8.76886Z" fill="#1E538F"/>
<path d="M38.1401 18.6923C37.9193 17.5528 36.4803 17.1173 35.6647 17.9424C34.8849 18.71 35.2255 20.0728 36.2757 20.3817C37.3206 20.7105 38.3633 19.7637 38.1401 18.6923Z" fill="#1E538F"/>
<path d="M32.2742 18.6924C32.0535 17.5524 30.6135 17.1175 29.7988 17.9425C29.0192 18.7099 29.3597 20.0743 30.4108 20.3817C31.4543 20.7111 32.4983 19.7624 32.2742 18.6924Z" fill="#1E538F"/>
<path d="M23.5674 19.405C23.8777 20.4563 25.2384 20.7956 26.0076 20.016C26.9723 19.0421 26.1913 17.3898 24.8256 17.5202C23.9287 17.5898 23.2869 18.5494 23.5674 19.405Z" fill="#1E538F"/>
<path d="M20.5425 18.6923C20.3215 17.5524 18.8823 17.1175 18.0671 17.9425C17.2877 18.7101 17.6278 20.0729 18.6781 20.3817C19.7219 20.7109 20.7668 19.763 20.5425 18.6923Z" fill="#1E538F"/>
<path d="M14.6766 18.6924C14.4868 17.6809 13.2729 17.1785 12.4241 17.7597C11.4005 18.4405 11.6345 20.0284 12.8132 20.3817C13.8563 20.7112 14.9011 19.7622 14.6766 18.6924Z" fill="#1E538F"/>
<path d="M45.5896 14.5798H44.2502V1.46646C44.2502 0.656584 43.5936 0 42.7838 0H7.15684C6.34697 0 5.69038 0.656584 5.69038 1.46646V14.5798H4.41046C1.97965 14.5798 0.0020752 16.5574 0.0020752 18.9881C0.0020752 21.4188 1.97965 23.3965 4.41046 23.3965H5.69038V37.6801C5.69038 38.4899 6.34697 39.1465 7.15684 39.1465H8.82275V48.5336C8.82275 49.3435 9.47933 50.0001 10.2892 50.0001H39.6515C40.4614 50.0001 41.118 49.3435 41.118 48.5336V39.1465H42.7838C43.5936 39.1465 44.2502 38.4899 44.2502 37.6801V23.3964H45.5896C48.0203 23.3964 49.998 21.4188 49.998 18.988C49.998 16.5573 48.0203 14.5798 45.5896 14.5798ZM4.41046 20.4635C3.59686 20.4635 2.935 19.8016 2.935 18.988C2.935 18.1744 3.59686 17.5126 4.41046 17.5126H5.69038V20.4635H4.41046ZM38.1849 47.0671H11.7556V39.1464H14.705V42.7157C14.705 43.5256 15.3616 44.1822 16.1715 44.1822C16.9814 44.1822 17.6379 43.5256 17.6379 42.7157V39.1464H20.5709V42.7157C20.5709 43.5256 21.2274 44.1822 22.0373 44.1822C22.8472 44.1822 23.5038 43.5256 23.5038 42.7157V39.1464H26.4367V42.7157C26.4367 43.5256 27.0933 44.1822 27.9032 44.1822C28.7131 44.1822 29.3696 43.5256 29.3696 42.7157V39.1464H32.3026V42.7157C32.3026 43.5256 32.9591 44.1822 33.769 44.1822C34.5789 44.1822 35.2355 43.5256 35.2355 42.7157V39.1464H38.1849V47.0671ZM41.3172 36.2135H8.62331V2.93292H41.3173V36.2135H41.3172ZM45.5896 20.4635H44.2502V17.5126H45.5896C46.4031 17.5126 47.065 18.1744 47.065 18.988C47.065 19.8016 46.4031 20.4635 45.5896 20.4635Z" fill="#1E538F"/>
</g>
<defs>
<clipPath id="clip0_5286_23">
<rect width="50" height="50" fill="white"/>
</clipPath>
</defs>
</svg>
