<svg width="30" height="30" viewBox="0 0 30 30" fill="none" xmlns="http://www.w3.org/2000/svg">
<path d="M17.7711 3.30751C17.0783 2.28871 16.467 1.35142 15.8965 0.495627C15.815 0.373372 15.6927 0.251116 15.5705 0.169612C15.0814 -0.156403 14.4294 0.00660474 14.1034 0.495627C13.5736 1.35142 12.9624 2.24796 12.2288 3.30751C9.00942 8.03472 4.2007 15.1663 4.2007 19.2415C4.2007 22.2164 5.42325 24.906 7.37934 26.8621C9.33543 28.7774 12.0251 30 14.9999 30C17.9748 30 20.6645 28.7774 22.6205 26.8213C24.5766 24.8652 25.7992 22.1756 25.7992 19.2007C25.7992 15.1255 20.9905 8.03472 17.7711 3.30751ZM21.1535 25.3543C19.5642 26.9436 17.4043 27.8809 14.9999 27.8809C12.5956 27.8809 10.4357 26.9028 8.84641 25.3543C7.25709 23.7649 6.3198 21.6051 6.3198 19.2007C6.3198 15.7776 10.9248 8.97202 13.9811 4.44856C14.3479 3.91878 14.6739 3.38901 14.9999 2.94074C15.326 3.38901 15.652 3.91878 16.0187 4.44856C19.0751 9.01277 23.6801 15.7776 23.6801 19.2007C23.6801 21.6051 22.702 23.7649 21.1535 25.3543Z" fill="#1E538F"/>
<path d="M21.3165 18.4672C20.746 18.4264 20.2569 18.8747 20.2162 19.4452C20.1754 20.3418 19.8902 21.1975 19.4419 21.9311C18.9936 22.6646 18.3416 23.3166 17.5673 23.7242C17.0783 24.0094 16.8745 24.6615 17.1598 25.1505C17.4858 25.721 18.1378 25.884 18.6269 25.5988C19.7272 24.9875 20.6237 24.0909 21.235 23.0721C21.887 22.0533 22.2538 20.8308 22.2945 19.5675C22.3353 18.9969 21.887 18.5079 21.3165 18.4672Z" fill="#1E538F"/>
</svg>
