<svg width="50" height="50" viewBox="0 0 50 50" fill="none" xmlns="http://www.w3.org/2000/svg">
<path d="M36.4434 43.4863V47.7539C36.4434 48.4521 35.8721 49.0234 35.1738 49.0234H14.8262C14.1279 49.0234 13.5566 48.4521 13.5566 47.7539V43.4863H36.4434Z" fill="#FFD9BF"/>
<path opacity="0.19" d="M13.5566 43.4863H36.4434V46.7725H13.5566V43.4863Z" fill="#222222"/>
<path d="M33.2705 8.92412V2.83203C33.2705 1.81152 32.4355 0.976562 31.415 0.976562H18.585C17.5645 0.976562 16.7295 1.81152 16.7295 2.83203V8.92412C12.3858 9.95 9.12793 13.8712 9.12793 18.5166V39.6807C9.12793 42.3115 11.2803 44.4629 13.9102 44.4629H36.0898C38.7197 44.4629 40.8721 42.3115 40.8721 39.6807V18.5166C40.8721 13.8711 37.6142 9.95 33.2705 8.92412Z" fill="#FFD9BF"/>
<path d="M29.5518 5.33105V7.7832C29.5518 8.21289 29.2002 8.56445 28.7705 8.56445H21.2295C20.7998 8.56445 20.4482 8.21289 20.4482 7.7832V5.33105C20.4482 4.90137 20.7998 4.5498 21.2295 4.5498H28.7705C29.2002 4.5498 29.5518 4.90137 29.5518 5.33105Z" fill="#FFF4E9"/>
<path d="M40.8721 18.5166V39.3535H9.12793V18.5166C9.12793 17.3662 9.32715 16.2607 9.69434 15.2324H40.3057C40.6729 16.2607 40.8721 17.3662 40.8721 18.5166Z" fill="#FFF4E9"/>
<path d="M32.2657 31.4824C30.6953 35.8135 26.5537 36.3496 26.5537 36.3496C21.9151 37.3242 19.3262 34.46 19.3262 34.46C14.9483 29.4912 19.461 23.2461 19.461 23.2461C19.5088 25.5801 21.0586 26.7725 21.0586 26.7725C21.6446 24.9434 22.9502 23.0537 22.9502 23.0537C24.4414 20.5752 24.0088 17.9404 24.0088 17.9404C27.6543 21.4775 27.7627 25.8457 27.7627 25.8457C30.1807 24.5459 29.3965 21.9541 29.3965 21.9541C33.9981 26.8809 32.2657 31.4824 32.2657 31.4824Z" fill="#FF7D43"/>
<path d="M27.3584 36.1592C26.8691 36.3086 26.5537 36.3496 26.5537 36.3496C25.2851 36.6162 24.1699 36.5957 23.2197 36.4248C19.1465 31.752 24.3603 26.5781 24.3603 26.5781C24.3603 26.5781 24.0889 29.7236 25.708 30.0537C25.708 30.0537 26.6641 29.7988 27.0644 28.5234C27.0644 28.5234 30.5264 32.875 27.3584 36.1592Z" fill="#FFB89B"/>
<path opacity="0.19" d="M16.7295 6.41602H33.2705V9.80273H16.7295V6.41602Z" fill="#222222"/>
<path opacity="0.35" d="M33.2656 2.70215C28.9609 2.68945 19.8867 2.66113 19.4346 2.79297C18.6924 3.00781 18.5371 3.78613 18.5371 3.78613L18.5322 9.80273H16.7295V2.83203C16.7295 1.81152 17.5645 0.976562 18.585 0.976562H31.415C32.3916 0.976562 33.1982 1.74121 33.2656 2.70215Z" fill="white"/>
<path opacity="0.19" d="M40.8721 18.5166V39.6807C40.8721 42.3115 38.7197 44.4629 36.0898 44.4629H35.6338C36.5508 43.3633 37.4297 41.7188 37.6104 39.3701L37.6299 17.5781C37.6299 17.5781 37.0742 11.7793 30.7998 8.92383H33.2705C37.6143 9.9502 40.8721 13.8711 40.8721 18.5166Z" fill="#222222"/>
<path opacity="0.35" d="M12.3525 18.75L12.4023 37.6553C12.1123 40.3418 13.5352 42.9326 14.6074 44.4629H13.9102C11.2803 44.4629 9.12793 42.3115 9.12793 39.6807V18.5166C9.12793 13.8711 12.3857 9.9502 16.7295 8.92383H18.0586C12.6006 12.5684 12.3525 18.75 12.3525 18.75Z" fill="white"/>
<path opacity="0.19" d="M32.2656 31.4824C30.6953 35.8135 26.5537 36.3496 26.5537 36.3496C21.915 37.3242 19.3262 34.46 19.3262 34.46C19.1279 34.2344 18.9473 34.0059 18.7852 33.7764C32.4102 36.9756 31.0996 26.1416 30.5508 23.3564C33.6826 27.7197 32.2656 31.4824 32.2656 31.4824Z" fill="#222222"/>
<path d="M37.4202 47.7539V45.2829C39.9558 44.6806 41.8483 42.3984 41.8483 39.6811V18.5161C41.8483 13.6686 38.6469 9.55469 34.2475 8.17754V2.83252C34.2475 1.2709 32.9771 0.000488281 31.4155 0.000488281H18.5846C17.023 0.000488281 15.7526 1.2709 15.7526 2.83252V8.17754C11.3531 9.55479 8.15173 13.6686 8.15173 18.5161V39.6811C8.15173 42.3984 10.0441 44.6806 12.5799 45.2828V47.7539C12.58 48.9924 13.5876 50 14.826 50H35.174C37.4544 49.8535 37.4202 47.7539 37.4202 47.7539ZM17.7057 2.83252C17.7057 2.34795 18.1001 1.95361 18.5846 1.95361H31.4154C31.9 1.95361 32.2943 2.34795 32.2943 2.83252V7.76133C31.8756 7.71191 31.4498 7.68574 31.0179 7.68574H30.5282V4.64707C30.5282 4.05478 30.0463 3.57285 29.454 3.57285H20.5461C19.9538 3.57285 19.4719 4.05478 19.4719 4.64707V7.68574H18.9821C18.5503 7.68574 18.1245 7.71191 17.7057 7.76133V2.83252ZM28.575 7.68574H21.4249V5.52598H28.575V7.68574ZM18.9821 9.63887H31.0178C34.3698 9.63887 37.2934 11.5064 38.8038 14.2556H18.0637C17.5244 14.2556 17.0872 14.6928 17.0872 15.2321C17.0872 15.7715 17.5244 16.2087 18.0637 16.2087H39.5903C39.7886 16.9448 39.8951 17.7183 39.8951 18.5162V38.3767H10.1049V18.5161C10.1049 17.7182 10.2113 16.9447 10.4096 16.2086H14.011C14.5504 16.2086 14.9876 15.7714 14.9876 15.232C14.9876 14.6927 14.5504 14.2555 14.011 14.2555H11.1962C12.7065 11.5064 15.6302 9.63887 18.9821 9.63887ZM35.1741 48.0469H14.826C14.6673 48.0469 14.5331 47.9127 14.5331 47.7539L14.533 45.4397H28.7299C29.2692 45.4397 29.7064 45.0025 29.7064 44.4632C29.7064 43.9238 29.2692 43.4866 28.7299 43.4866H13.9103C12.0332 43.4866 10.4702 42.12 10.1613 40.3298H39.8386C39.5298 42.1201 37.9668 43.4866 36.0897 43.4866H32.7825C32.2431 43.4866 31.8059 43.9238 31.8059 44.4632C31.8059 45.0025 32.2431 45.4397 32.7825 45.4397H35.467V47.754C35.4671 47.7539 35.4667 48.0194 35.1741 48.0469ZM26.723 37.3118C27.2352 37.2345 31.4996 36.4555 33.1825 31.819C33.2946 31.5152 35.0191 26.543 30.1097 21.2871C29.7998 20.9553 29.301 20.8773 28.9075 21.1038C28.514 21.3305 28.3276 21.7946 28.4593 22.2292C28.4924 22.3455 28.6657 23.0264 28.4149 23.7384C27.9863 22.0063 26.9924 19.4747 24.6887 17.2396C24.3862 16.9461 23.9297 16.8796 23.5562 17.075C23.1828 17.2702 22.9766 17.683 23.045 18.0988C23.0487 18.1216 23.4024 20.3875 22.1272 22.5267C22.0053 22.7057 21.374 23.6503 20.8016 24.828C20.6058 24.4055 20.4501 23.8705 20.4368 23.2264C20.4281 22.8066 20.1521 22.4395 19.7513 22.3144C19.3506 22.1893 18.9147 22.3343 18.6688 22.6747C18.6184 22.7444 17.428 24.409 16.8079 26.739C15.96 29.9245 16.5773 32.8177 18.5928 35.1059C18.5929 35.1058 21.5124 38.4177 26.723 37.3118ZM24.2018 35.5602C23.1387 34.4585 22.6132 33.2647 22.6424 32.0097C22.6685 30.89 23.119 29.8554 23.6207 29.0431C23.8924 29.9468 24.4382 30.7919 25.5135 31.0108C25.6613 31.041 25.814 31.0363 25.9598 30.9976C26.0507 30.9733 26.5714 30.818 27.0907 30.32C27.4519 31.0051 27.7891 31.9235 27.7043 32.87C27.6177 33.8338 27.1167 34.6713 26.1753 35.429C25.141 35.6405 24.2018 35.5602 24.2018 35.5602ZM29.5037 33.8859C29.9058 32.6318 29.5035 31.1985 29.5035 31.1985C28.9939 29.2428 27.7963 27.8769 27.7963 27.8769C27.5629 27.6129 27.2054 27.495 26.861 27.5686C26.5165 27.6419 26.2383 27.8952 26.1328 28.2313C26.0187 28.595 25.8463 28.8157 25.6998 28.9463C25.4104 28.5576 25.2631 27.5129 25.3336 26.6622C25.3681 26.2623 25.1546 25.882 24.7951 25.7034C24.4355 25.5249 24.0035 25.5845 23.7057 25.8536C23.5862 25.9617 20.7778 28.5388 20.6902 31.9494C20.6657 32.9061 20.8552 33.8251 21.2526 34.7007C18.7989 33.3415 18.4896 30.5829 18.4896 30.5829C18.0828 28.4508 19.1517 25.8943 19.1517 25.8943C19.7075 26.9538 20.415 27.5098 20.463 27.5467C20.715 27.7405 21.0456 27.7996 21.3493 27.7048C21.6528 27.6101 21.8913 27.3734 21.9884 27.0705C22.5217 25.4061 23.7413 23.6267 23.7533 23.6093C23.7649 23.5925 23.776 23.5753 23.7865 23.5578C24.4124 22.5182 24.7376 21.4579 24.8988 20.5343C26.6798 23.2245 26.7854 25.8402 26.7864 25.87C26.7948 26.2092 26.9787 26.5197 27.2719 26.6901C27.5653 26.8606 27.9261 26.8665 28.2249 26.7061C29.2683 26.1453 29.8687 25.367 30.1878 24.5673C32.2959 27.9584 31.4845 30.74 31.3638 31.1037C31.3637 31.1035 30.7521 32.8597 29.5037 33.8859Z" fill="black"/>
</svg>
