<svg width="50" height="50" viewBox="0 0 50 50" fill="none" xmlns="http://www.w3.org/2000/svg">
<g clip-path="url(#clip0_2179_1206)">
<path d="M25 1.12988L1.03711 16.6787V21.7234L25 6.17461L48.9627 21.7234V16.6787L25 1.12988Z" fill="#FF5F5F"/>
<path d="M3.9668 14.7789V19.8239L1.03711 21.7242V16.6793L3.9668 14.7789Z" fill="#FF5F5F"/>
<path d="M48.9629 16.6793V21.7242L46.0332 19.8239V14.7789L48.9629 16.6793Z" fill="#FF5F5F"/>
<path d="M48.9629 27.3805V48.8701H1.03711V27.3805C7.02148 27.3805 7.0332 30.5055 13.0176 30.5055C19.0078 30.5055 19.0078 27.3805 25 27.3805C30.9922 27.3805 30.9902 30.5055 36.9805 30.5055C42.99 30.5055 42.9688 27.3805 48.9629 27.3805Z" fill="#5FCDFF"/>
<path d="M3.9668 27.6969V48.8702H1.03711V27.3805C2.02271 27.3706 3.00605 27.4768 3.9668 27.6969Z" fill="#73D7F9"/>
<path d="M48.9629 27.3804V48.8701H46.0332V27.6968C46.9935 27.4738 47.9772 27.3676 48.9629 27.3804Z" fill="#30B6FF"/>
<path d="M48.9629 26.5992C42.7445 26.5992 42.7234 29.7242 36.9805 29.7242C34.0799 29.7242 32.7131 28.9578 31.2102 28.1767V14.3042C31.2102 13.6625 30.9552 13.047 30.5014 12.5932C30.0476 12.1395 29.4322 11.8845 28.7904 11.8845C28.1487 11.8845 27.5332 12.1395 27.0794 12.5932C26.6256 13.047 26.3707 13.6625 26.3707 14.3042V15.5966C26.3707 15.8038 26.453 16.0025 26.5995 16.1491C26.746 16.2956 26.9448 16.3779 27.152 16.3779C27.3592 16.3779 27.5579 16.2956 27.7044 16.1491C27.8509 16.0025 27.9332 15.8038 27.9332 15.5966V14.3042C27.9332 14.0769 28.0235 13.8589 28.1843 13.6981C28.345 13.5373 28.5631 13.447 28.7904 13.447C29.0178 13.447 29.2358 13.5373 29.3966 13.6981C29.5573 13.8589 29.6477 14.0769 29.6477 14.3042V18.3064H23.6291V14.3042C23.6291 13.6625 23.3742 13.047 22.9204 12.5932C22.4666 12.1395 21.8511 11.8845 21.2094 11.8845C20.5676 11.8845 19.9522 12.1395 19.4984 12.5932C19.0446 13.047 18.7896 13.6625 18.7896 14.3042V15.5966C18.7896 15.8038 18.872 16.0025 19.0185 16.1491C19.165 16.2956 19.3637 16.3779 19.5709 16.3779C19.7781 16.3779 19.9768 16.2956 20.1233 16.1491C20.2698 16.0025 20.3521 15.8038 20.3521 15.5966V14.3042C20.3521 14.0769 20.4425 13.8589 20.6032 13.6981C20.764 13.5373 20.982 13.447 21.2094 13.447C21.4367 13.447 21.6548 13.5373 21.8155 13.6981C21.9763 13.8589 22.0666 14.0769 22.0666 14.3042V26.8945C20.6455 27.2103 19.6344 27.7359 18.6463 28.2513C17.1934 29.0091 15.8209 29.725 13.0176 29.725C7.28633 29.725 7.2584 26.6 1.03711 26.6C0.829909 26.6 0.631195 26.6823 0.484682 26.8288C0.338169 26.9753 0.255859 27.174 0.255859 27.3812V48.8701C0.255859 49.0773 0.338169 49.276 0.484682 49.4225C0.631195 49.569 0.829909 49.6513 1.03711 49.6513H48.9629C49.1701 49.6513 49.3688 49.569 49.5153 49.4225C49.6618 49.276 49.7441 49.0773 49.7441 48.8701V27.3804C49.7441 27.1732 49.6618 26.9745 49.5153 26.828C49.3688 26.6815 49.1701 26.5992 48.9629 26.5992ZM1.81836 35.3667C6.77227 35.6281 7.08867 38.4699 13.0182 38.4699C19.2426 38.4699 19.2656 35.3449 24.9992 35.3449C30.7328 35.3449 30.7541 38.4699 36.9811 38.4699C42.8957 38.4699 43.2432 35.6273 48.1816 35.3667V39.898C42.6889 40.1558 42.4764 43.0035 36.9811 43.0035C31.2486 43.0035 31.223 39.8785 24.9992 39.8785C21.8123 39.8785 20.2035 40.7183 18.6473 41.5294C17.1943 42.2875 15.8219 43.0035 13.0182 43.0035C7.52305 43.0035 7.31035 40.1562 1.81836 39.898V35.3667ZM29.6484 19.8689V22.5605H23.6291V19.8689H29.6484ZM23.6291 24.123H29.6484V27.4326C27.7629 26.6613 25.6756 26.4792 23.6299 26.6587L23.6291 24.123ZM13.0176 31.2867C19.248 31.2867 19.2604 28.1617 25 28.1617C30.7316 28.1617 30.7572 31.2867 36.9805 31.2867C42.9318 31.2867 43.2328 28.4414 48.1816 28.1812V33.8019C42.6889 34.0597 42.4764 36.9074 36.9811 36.9074C31.2486 36.9074 31.223 33.7824 24.9992 33.7824C18.7797 33.7824 18.7492 36.9074 13.0182 36.9074C7.52305 36.9074 7.31035 34.0601 1.81836 33.8019V28.1816C6.74902 28.441 7.10156 31.2867 13.0176 31.2867ZM1.81836 48.0888V41.4625C6.77227 41.7238 7.08867 44.5656 13.0182 44.5656C19.2426 44.5656 19.2656 41.4406 24.9992 41.4406C30.7328 41.4406 30.7541 44.5656 36.9811 44.5656C40.1678 44.5656 41.777 43.7257 43.333 42.9146C44.6438 42.231 45.8916 41.5832 48.1816 41.4625V48.0888H1.81836Z" fill="#222222"/>
<path d="M1.4625 22.3787L25 7.10604L48.5373 22.3795C48.6552 22.456 48.7916 22.4993 48.9321 22.5048C49.0726 22.5104 49.212 22.4778 49.3355 22.4107C49.4591 22.3436 49.5622 22.2445 49.6341 22.1236C49.706 22.0028 49.7439 21.8648 49.7439 21.7242V16.6797C49.744 16.5494 49.7114 16.4212 49.6493 16.3067C49.5871 16.1923 49.4973 16.0951 49.3881 16.0242L25.4252 0.474596C25.2986 0.392463 25.1509 0.348755 25 0.348755C24.8491 0.348755 24.7014 0.392463 24.5748 0.474596L0.611915 16.0232C0.502481 16.0942 0.412567 16.1915 0.350373 16.3062C0.288179 16.4208 0.255687 16.5492 0.25586 16.6797V21.7244C0.256037 21.8649 0.294107 22.0028 0.36606 22.1235C0.438012 22.2442 0.541183 22.3432 0.664705 22.4102C0.788227 22.4772 0.927527 22.5096 1.06793 22.5041C1.20833 22.4985 1.34464 22.4552 1.4625 22.3787ZM1.81836 17.1029L25 2.06131L48.1814 17.1029V20.2849L25.4252 5.51932C25.2986 5.43719 25.1509 5.39348 25 5.39348C24.8491 5.39348 24.7014 5.43719 24.5748 5.51932L1.81836 20.2849V17.1029Z" fill="#222222"/>
<path d="M34.4767 34.615H35.393C35.6002 34.615 35.7989 34.5327 35.9454 34.3862C36.0919 34.2397 36.1742 34.0409 36.1742 33.8337C36.1742 33.6265 36.0919 33.4278 35.9454 33.2813C35.7989 33.1348 35.6002 33.0525 35.393 33.0525H34.4767C34.2695 33.0525 34.0708 33.1348 33.9243 33.2813C33.7778 33.4278 33.6955 33.6265 33.6955 33.8337C33.6955 34.0409 33.7778 34.2397 33.9243 34.3862C34.0708 34.5327 34.2695 34.615 34.4767 34.615Z" fill="#222222"/>
<path d="M38.3226 34.615H40.2758C40.483 34.615 40.6817 34.5327 40.8282 34.3862C40.9747 34.2397 41.057 34.0409 41.057 33.8337C41.057 33.6265 40.9747 33.4278 40.8282 33.2813C40.6817 33.1348 40.483 33.0525 40.2758 33.0525H38.3226C38.1154 33.0525 37.9167 33.1348 37.7702 33.2813C37.6237 33.4278 37.5414 33.6265 37.5414 33.8337C37.5414 34.0409 37.6237 34.2397 37.7702 34.3862C37.9167 34.5327 38.1154 34.615 38.3226 34.615Z" fill="#222222"/>
</g>
<defs>
<clipPath id="clip0_2179_1206">
<rect width="50" height="50" fill="white"/>
</clipPath>
</defs>
</svg>
