<svg width="50" height="50" viewBox="0 0 50 50" fill="none" xmlns="http://www.w3.org/2000/svg">
<g clip-path="url(#clip0_5286_63)">
<path d="M45.6055 0H4.39453C1.97144 0 0 1.97144 0 4.39453V45.6055C0 48.0286 1.97144 50 4.39453 50H45.6055C48.0286 50 50 48.0286 50 45.6055V4.39453C50 1.97144 48.0286 0 45.6055 0ZM47.0703 4.39453V11.7188H26.4648V2.92969H45.6055C46.413 2.92969 47.0703 3.58696 47.0703 4.39453ZM4.39453 2.92969H23.5352V11.7188H2.92969V4.39453C2.92969 3.58696 3.58696 2.92969 4.39453 2.92969ZM45.6055 47.0703H4.39453C3.58696 47.0703 2.92969 46.413 2.92969 45.6055V14.6484H47.0703V45.6055C47.0703 46.413 46.413 47.0703 45.6055 47.0703Z" fill="#1E538F"/>
<path d="M42.6758 17.6758H7.32422C6.51512 17.6758 5.85938 18.3315 5.85938 19.1406V42.6758C5.85938 43.4849 6.51512 44.1406 7.32422 44.1406H42.6758C43.4849 44.1406 44.1406 43.4849 44.1406 42.6758V19.1406C44.1406 18.3315 43.4849 17.6758 42.6758 17.6758ZM20.6059 30.9608C20.6078 31.768 21.2627 32.4219 22.0703 32.4219C22.8794 32.4219 23.5352 31.7661 23.5352 30.957V29.6394C24.0086 29.5429 24.4984 29.4922 25 29.4922C25.5016 29.4922 25.9914 29.5429 26.4648 29.6394V30.957C26.4648 31.7661 27.1206 32.4219 27.9297 32.4219C28.7373 32.4219 29.3922 31.768 29.3941 30.9608C30.7995 32.0179 31.8134 33.5678 32.177 35.3516H17.823C18.1866 33.5678 19.2005 32.0179 20.6059 30.9608ZM31.419 38.2812L29.9541 41.2109H20.0459L18.581 38.2812H31.419ZM41.2109 41.2109H33.2294L34.6943 38.2812H36.7188C37.5278 38.2812 38.1836 37.6255 38.1836 36.8164C38.1836 36.0073 37.5278 35.3516 36.7188 35.3516H35.149C34.4276 30.3318 30.1041 26.5625 25 26.5625C19.9036 26.5625 15.5731 30.3261 14.851 35.3516H13.2812C12.4722 35.3516 11.8164 36.0073 11.8164 36.8164C11.8164 37.6255 12.4722 38.2812 13.2812 38.2812H15.3057L16.7706 41.2109H8.78906V20.6055H41.2109V41.2109Z" fill="#1E538F"/>
<path d="M8.78638 7.32422C8.78638 8.13332 8.13025 8.78906 7.32153 8.78906C6.51244 8.78906 5.85669 8.13332 5.85669 7.32422C5.85669 6.51512 6.51244 5.85938 7.32153 5.85938C8.13025 5.85938 8.78638 6.51512 8.78638 7.32422Z" fill="#1E538F"/>
<path d="M14.7434 7.32422C14.7434 8.13332 14.0873 8.78906 13.2786 8.78906C12.4695 8.78906 11.8137 8.13332 11.8137 7.32422C11.8137 6.51512 12.4695 5.85938 13.2786 5.85938C14.0873 5.85938 14.7434 6.51512 14.7434 7.32422Z" fill="#1E538F"/>
<path d="M20.6028 7.32422C20.6028 8.13332 19.9467 8.78906 19.1379 8.78906C18.3288 8.78906 17.6731 8.13332 17.6731 7.32422C17.6731 6.51512 18.3288 5.85938 19.1379 5.85938C19.9467 5.85938 20.6028 6.51512 20.6028 7.32422Z" fill="#1E538F"/>
<path d="M30.8594 8.78906H33.7891C34.5982 8.78906 35.2539 8.13332 35.2539 7.32422C35.2539 6.51512 34.5982 5.85938 33.7891 5.85938H30.8594C30.0503 5.85938 29.3945 6.51512 29.3945 7.32422C29.3945 8.13332 30.0503 8.78906 30.8594 8.78906Z" fill="#1E538F"/>
<path d="M39.7461 8.78906H42.6758C43.4849 8.78906 44.1406 8.13332 44.1406 7.32422C44.1406 6.51512 43.4849 5.85938 42.6758 5.85938H39.7461C38.937 5.85938 38.2812 6.51512 38.2812 7.32422C38.2812 8.13332 38.937 8.78906 39.7461 8.78906Z" fill="#1E538F"/>
</g>
<defs>
<clipPath id="clip0_5286_63">
<rect width="50" height="50" fill="white"/>
</clipPath>
</defs>
</svg>
