<svg width="50" height="50" viewBox="0 0 50 50" fill="none" xmlns="http://www.w3.org/2000/svg">
<g clip-path="url(#clip0_5286_33)">
<path d="M25 34.7656C21.7691 34.7656 19.1406 32.1371 19.1406 28.9062C19.1406 28.1019 19.3704 26.6362 21.3574 23.2109C22.361 21.4808 23.3513 20.044 23.393 19.9837C23.7576 19.4558 24.3584 19.1406 25 19.1406C25.6416 19.1406 26.2424 19.4558 26.607 19.9837C26.6486 20.044 27.6389 21.4808 28.6426 23.2109C30.6296 26.6362 30.8594 28.1019 30.8594 28.9062C30.8594 32.1371 28.2309 34.7656 25 34.7656ZM25 24.7229C24.9156 24.8644 24.8306 25.0087 24.7457 25.155C23.0892 28.0076 23.0479 28.873 23.0469 28.9086C23.0469 29.9832 23.923 30.8595 25 30.8595C26.0764 30.8595 26.9522 29.9842 26.9531 28.9079C26.9517 28.863 26.9011 27.9869 25.2424 25.1345C25.1614 24.9951 25.0804 24.8576 25 24.7229Z" fill="#1E538F"/>
<path d="M15.2344 21.0938C15.2344 15.709 19.6152 11.3281 25 11.3281C26.9876 11.3281 28.838 11.9255 30.3822 12.9494L27.9714 15.3604C27.2086 16.1231 27.2086 17.3598 27.9714 18.1225C28.7342 18.8853 29.9708 18.8853 30.7335 18.1225L33.1443 15.7115C34.1683 17.2558 34.7656 19.1062 34.7656 21.0938C34.7656 22.1725 35.64 23.0469 36.7188 23.0469C37.7975 23.0469 38.6719 22.1725 38.6719 21.0938C38.6719 13.5567 32.537 7.42188 25 7.42188C17.4613 7.42188 11.3281 13.5551 11.3281 21.0938C11.3281 22.1725 12.2025 23.0469 13.2812 23.0469C14.36 23.0469 15.2344 22.1725 15.2344 21.0938Z" fill="#1E538F"/>
<path d="M47.6448 35.9286C46.7807 35.2832 45.5567 35.4604 44.9112 36.3246C44.2657 37.1888 44.443 38.4127 45.3072 39.0582C45.807 39.4316 46.0938 40.0026 46.0938 40.625V44.1406C46.0938 45.2176 45.2176 46.0938 44.1406 46.0938H5.85938C4.78242 46.0938 3.90625 45.2176 3.90625 44.1406V40.625C3.90625 39.548 4.78242 38.6719 5.85938 38.6719H13.1548C16.5896 40.9585 20.6775 42.1875 25 42.1875C36.8678 42.1875 46.0938 32.9615 46.0938 21.0938C46.0938 9.22598 36.8678 0 25 0C13.1322 0 3.90625 9.22598 3.90625 21.0938C3.90625 26.2117 5.62988 31.0003 8.7915 34.7656H5.85938C2.62852 34.7656 0 37.3941 0 40.625V44.1406C0 47.3715 2.62852 50 5.85938 50H44.1406C47.3715 50 50 47.3715 50 44.1406V40.625C50 38.7858 49.1195 37.0302 47.6448 35.9286ZM25 3.90625C34.6378 3.90625 42.1875 11.456 42.1875 21.0938C42.1875 30.7315 34.6378 38.2812 25 38.2812C15.3622 38.2812 7.8125 30.7315 7.8125 21.0938C7.8125 11.456 15.3622 3.90625 25 3.90625Z" fill="#1E538F"/>
</g>
<defs>
<clipPath id="clip0_5286_33">
<rect width="50" height="50" fill="white"/>
</clipPath>
</defs>
</svg>
