<svg width="80" height="80" viewBox="0 0 80 80" fill="none" xmlns="http://www.w3.org/2000/svg">
<g clip-path="url(#clip0_3540_522)">
<path fill-rule="evenodd" clip-rule="evenodd" d="M79.0627 79.7657H64.6749C64.1593 79.7657 63.7376 79.3439 63.7376 78.8284V20.8553C63.7376 19.6837 62.8002 18.7464 61.6755 18.7464H18.3245C17.1529 18.7464 16.2624 19.6837 16.2624 20.8553V78.8284C16.2624 79.3439 15.8407 79.7657 15.3251 79.7657H0.937317C0.421793 79.7657 0 79.3439 0 78.8284V1.17169C0 0.656168 0.421793 0.234375 0.937317 0.234375H79.0627C79.5782 0.234375 80 0.656168 80 1.17169V78.8284C80 79.3439 79.5782 79.7657 79.0627 79.7657Z" fill="#B0BEC5"/>
<path fill-rule="evenodd" clip-rule="evenodd" d="M54.6456 13.0755H25.3544C24.1359 13.0755 23.1986 12.1382 23.1986 10.9197V7.02985C23.1986 5.85821 24.1828 4.87402 25.3544 4.87402H54.6456C55.8172 4.87402 56.8014 5.85821 56.8014 7.02985V10.9197C56.8014 12.1382 55.8172 13.0755 54.6456 13.0755Z" fill="#384951"/>
<path fill-rule="evenodd" clip-rule="evenodd" d="M80 54.0363H63.7375V25.9167H80V54.0363Z" fill="#384951"/>
<path fill-rule="evenodd" clip-rule="evenodd" d="M16.2625 76.4382H63.7376V20.8553C63.7376 19.6837 62.8002 18.7463 61.6755 18.7463H18.3245C17.1529 18.7463 16.2625 19.6837 16.2625 20.8553V76.4382Z" fill="#455A64"/>
<path fill-rule="evenodd" clip-rule="evenodd" d="M18.6057 74.0949H61.3942V21.0896H18.6057V74.0949Z" fill="#66C3E9"/>
<path fill-rule="evenodd" clip-rule="evenodd" d="M39.0393 76.4382V18.7463H40.9139V76.4382H39.0393Z" fill="#455A64"/>
<path fill-rule="evenodd" clip-rule="evenodd" d="M75.2665 37.9144H68.4709C67.768 37.9144 67.2993 37.1646 67.6274 36.5553L71.0486 30.2284C71.3766 29.5723 72.3139 29.5723 72.6889 30.2284L76.0632 36.5553C76.4381 37.2114 75.9226 37.9144 75.2665 37.9144Z" fill="#62D8B6"/>
<path fill-rule="evenodd" clip-rule="evenodd" d="M71.8453 50.2403C71.5172 50.2403 71.1892 50.0529 71.0486 49.7717L67.6274 43.4448C67.2993 42.7887 67.768 42.0388 68.4709 42.0388H75.2665C75.9695 42.0388 76.3913 42.7887 76.0632 43.4448L72.6889 49.7717C72.5014 50.0529 72.2202 50.2403 71.8453 50.2403Z" fill="#FCD01A"/>
<path fill-rule="evenodd" clip-rule="evenodd" d="M39.0392 21.0896H18.6057V74.0949H19.8242V22.1675H39.0392V21.0896Z" fill="#4FACDE"/>
<path fill-rule="evenodd" clip-rule="evenodd" d="M61.3942 21.0896H40.9138V22.1675H61.3942V21.0896Z" fill="#4FACDE"/>
</g>
<defs>
<clipPath id="clip0_3540_522">
<rect width="80" height="80" fill="white"/>
</clipPath>
</defs>
</svg>
