<svg width="50" height="50" viewBox="0 0 50 50" fill="none" xmlns="http://www.w3.org/2000/svg">
<g clip-path="url(#clip0_2182_1800)">
<path d="M27.4211 30.88V6.10352C27.4211 3.13711 25.0164 0.732422 22.05 0.732422C19.0836 0.732422 16.6789 3.13711 16.6789 6.10352V30.88C13.8668 32.6797 12.017 35.8512 12.0737 39.4507C12.1581 44.8172 16.5405 49.1916 21.9072 49.2666C27.4832 49.3446 32.0278 44.848 32.0278 39.2899C32.0278 35.7569 30.1914 32.6528 27.4211 30.88Z" fill="#DCF1FF"/>
<path d="M32.0277 39.2899C32.0277 44.8476 27.4838 49.3446 21.9076 49.2665C21.5853 49.2616 21.267 49.2421 20.9525 49.2069C25.9457 48.661 29.8304 44.4286 29.8304 39.2899L27.4164 37.5116C26.0385 36.496 25.224 34.8856 25.224 33.1728V6.10352C25.224 3.5127 23.391 1.35156 20.9515 0.844727C21.306 0.771484 21.6742 0.732422 22.0502 0.732422C25.017 0.732422 27.4213 3.13672 27.4213 6.10352V30.8798C30.1918 32.6532 32.0277 35.7567 32.0277 39.2899Z" fill="#B6E5FF"/>
<path d="M25.8418 33.3476C25 32.8085 24.4912 31.8788 24.4912 30.8798V27.0995H19.6084V30.8798C19.6084 31.8788 19.0996 32.8085 18.2578 33.3476C16.1807 34.6767 14.9639 36.9413 15.0029 39.4042C15.0625 43.1747 18.1777 46.2841 21.9482 46.3369C22.1982 46.3398 22.4463 46.331 22.6914 46.3085C24.3154 46.163 25.8223 45.4687 26.998 44.3085C28.3525 42.9736 29.0977 41.1913 29.0977 39.29C29.0977 36.874 27.8809 34.6523 25.8418 33.3476Z" fill="#FF485E"/>
<path d="M25.8418 33.3476C25 32.8085 24.4912 31.8788 24.4912 30.8798V27.0995H22.2451V31.4658C22.2451 32.4648 22.7539 33.3945 23.5957 33.9335C25.6348 35.2382 26.8516 37.4599 26.8516 39.8759C26.8516 41.7773 26.1064 43.5595 24.752 44.8945C24.1436 45.4941 23.4473 45.9697 22.6914 46.3085C24.3154 46.163 25.8223 45.4687 26.998 44.3085C28.3525 42.9736 29.0977 41.1913 29.0977 39.29C29.0977 36.874 27.8809 34.6523 25.8418 33.3476Z" fill="#D82356"/>
<path d="M28.1535 30.4879V13.0195C28.1535 12.6149 27.8255 12.2871 27.421 12.2871C27.0166 12.2871 26.6886 12.6149 26.6886 13.0195V30.8799C26.6886 31.1297 26.8159 31.3621 27.0262 31.4968C29.6993 33.2076 31.2952 36.1208 31.2952 39.2899C31.2952 41.7837 30.3171 44.1218 28.5412 45.873C26.7972 47.5927 24.4968 48.5352 22.0507 48.5352C22.0063 48.5352 21.9619 48.5348 21.9174 48.5342C19.5133 48.5005 17.2439 47.5382 15.527 45.8244C13.8101 44.1107 12.8438 41.8429 12.806 39.439C12.7552 36.2086 14.3506 33.2396 17.0738 31.4968C17.2842 31.3621 17.4114 31.1296 17.4114 30.8799V6.1035C17.4114 3.54579 19.4924 1.46484 22.0501 1.46484C24.6078 1.46484 26.6887 3.54579 26.6887 6.1035V9.56424C26.6887 9.96883 27.0167 10.2967 27.4211 10.2967C27.8256 10.2967 28.1536 9.96883 28.1536 9.56424V6.1035C28.1536 2.73798 25.4155 0 22.0501 0C18.6846 0 15.9466 2.73798 15.9466 6.1035V30.4879C12.999 32.531 11.2847 35.856 11.3414 39.4621C11.3852 42.249 12.5042 44.8768 14.4923 46.8612C16.4802 48.8455 19.1099 49.9599 21.897 49.9989C21.9486 49.9997 22.0001 50.0001 22.0514 50.0001C24.8849 50.0001 27.5496 48.9083 29.5699 46.9161C31.6272 44.8874 32.7602 42.179 32.7602 39.29C32.76 35.7544 31.0455 32.4938 28.1535 30.4879Z" fill="black"/>
<path d="M21.9583 45.6048C21.4009 45.597 20.8472 45.5139 20.3124 45.3579C19.9241 45.2444 19.5174 45.4674 19.4041 45.8557C19.2908 46.244 19.5136 46.6506 19.9019 46.764C20.5634 46.9572 21.2485 47.0599 21.9384 47.0696C21.9745 47.0701 22.0101 47.0704 22.0461 47.0704C24.1075 47.0703 26.0453 46.2772 27.5127 44.8302C29.0074 43.3564 29.8304 41.3889 29.8304 39.2901C29.8304 36.623 28.487 34.1709 26.2368 32.7308C25.6026 32.3249 25.2239 31.633 25.2239 30.8801V27.0995C25.2239 26.695 24.8959 26.3671 24.4914 26.3671H19.6086C19.2041 26.3671 18.8762 26.695 18.8762 27.0995V30.8799C18.8762 31.6328 18.4976 32.3247 17.8633 32.7306C15.5709 34.1977 14.2279 36.6969 14.2706 39.4161C14.3029 41.4629 15.14 43.3905 16.628 44.8437C16.9172 45.1263 17.3809 45.121 17.6637 44.8315C17.9463 44.5421 17.9409 44.0784 17.6515 43.7958C16.4419 42.6144 15.7615 41.0509 15.7353 39.393C15.7006 37.1853 16.7913 35.1559 18.653 33.9645C19.71 33.2879 20.3411 32.1349 20.3411 30.8799V27.832H23.759V30.8799C23.759 32.1349 24.3901 33.2879 25.4471 33.9645C27.2746 35.134 28.3656 37.1247 28.3656 39.2899C28.3656 40.9935 27.6974 42.5907 26.4841 43.7871C25.2722 44.9821 23.6671 45.6245 21.9583 45.6048Z" fill="black"/>
<path d="M24.4913 6.1579H20.1074C19.7029 6.1579 19.3749 6.48573 19.3749 6.89032C19.3749 7.29491 19.7029 7.62274 20.1074 7.62274H24.4914C24.8959 7.62274 25.2239 7.29491 25.2239 6.89032C25.2239 6.48573 24.8958 6.1579 24.4913 6.1579Z" fill="black"/>
<path d="M24.4913 9.02716H22.5488C22.1443 9.02716 21.8163 9.35499 21.8163 9.75958C21.8163 10.1642 22.1443 10.492 22.5488 10.492H24.4914C24.8959 10.492 25.2239 10.1642 25.2239 9.75958C25.2239 9.35499 24.8958 9.02716 24.4913 9.02716Z" fill="black"/>
<path d="M20.1074 13.3613H24.4914C24.8959 13.3613 25.2239 13.0335 25.2239 12.6289C25.2239 12.2243 24.8959 11.8965 24.4914 11.8965H20.1074C19.7029 11.8965 19.3749 12.2243 19.3749 12.6289C19.3749 13.0335 19.7028 13.3613 20.1074 13.3613Z" fill="black"/>
<path d="M24.4913 14.7658H22.5488C22.1443 14.7658 21.8163 15.0936 21.8163 15.4982C21.8163 15.9028 22.1443 16.2307 22.5488 16.2307H24.4914C24.8959 16.2307 25.2239 15.9028 25.2239 15.4982C25.2239 15.0936 24.8958 14.7658 24.4913 14.7658Z" fill="black"/>
<path d="M20.1074 19.1H24.4914C24.8959 19.1 25.2239 18.7721 25.2239 18.3676C25.2239 17.963 24.8959 17.6351 24.4914 17.6351H20.1074C19.7029 17.6351 19.3749 17.963 19.3749 18.3676C19.3749 18.7721 19.7028 19.1 20.1074 19.1Z" fill="black"/>
<path d="M24.4913 20.5045H22.5488C22.1443 20.5045 21.8163 20.8323 21.8163 21.2369C21.8163 21.6415 22.1443 21.9693 22.5488 21.9693H24.4914C24.8959 21.9693 25.2239 21.6415 25.2239 21.2369C25.2239 20.8323 24.8958 20.5045 24.4913 20.5045Z" fill="black"/>
<path d="M20.1074 24.8386H24.4914C24.8959 24.8386 25.2239 24.5108 25.2239 24.1062C25.2239 23.7016 24.8959 23.3738 24.4914 23.3738H20.1074C19.7029 23.3738 19.3749 23.7016 19.3749 24.1062C19.3749 24.5108 19.7028 24.8386 20.1074 24.8386Z" fill="black"/>
<path d="M37.9277 16.6241C38.3323 16.6241 38.6601 16.2963 38.6601 15.8917V14.5749C38.6601 13.552 37.8279 12.7197 36.8049 12.7197H33.3435C32.3204 12.7197 31.4882 13.552 31.4882 14.5749V27.2464C31.4882 28.2693 32.3204 29.1016 33.3435 29.1016H36.8049C37.8279 29.1016 38.6601 28.2693 38.6601 27.2464V25.9296C38.6601 25.525 38.3323 25.1972 37.9277 25.1972C37.5231 25.1972 37.1953 25.525 37.1953 25.9296V27.2464C37.1953 27.4616 37.0202 27.6367 36.8049 27.6367H33.3435C33.1283 27.6367 32.9531 27.4616 32.9531 27.2464V14.5749C32.9531 14.3597 33.1283 14.1846 33.3435 14.1846H36.8049C37.0202 14.1846 37.1953 14.3597 37.1953 14.5749V15.8917C37.1953 16.2963 37.5231 16.6241 37.9277 16.6241Z" fill="black"/>
<path d="M32.2198 11.549C32.6166 11.549 32.9383 11.227 32.9383 10.8299C32.9383 10.4327 32.6167 10.1107 32.2198 10.1107C31.8229 10.1107 31.5012 10.4327 31.5012 10.8299C31.5012 11.227 31.8229 11.549 32.2198 11.549Z" fill="black"/>
</g>
<defs>
<clipPath id="clip0_2182_1800">
<rect width="50" height="50" fill="white"/>
</clipPath>
</defs>
</svg>
