<svg width="30" height="30" viewBox="0 0 30 30" fill="none" xmlns="http://www.w3.org/2000/svg">
<path d="M13.402 28.0612C13.3754 28.0612 13.3489 28.0597 13.3224 28.0566L0.623443 26.6082C0.43243 26.5864 0.258693 26.4873 0.142647 26.3341C0.026602 26.1808 -0.021712 25.9868 0.00907034 25.797L2.40153 11.0446C2.46371 10.6613 2.82484 10.401 3.20814 10.4631C3.59144 10.5253 3.85182 10.8864 3.78964 11.2697L1.51516 25.2945L13.3372 26.643L23.9955 23.4103C24.14 23.3664 24.2946 23.3703 24.4368 23.4212L28.412 24.8456L25.9372 9.58549C25.8751 9.20218 26.1354 8.84105 26.5188 8.77888C26.902 8.71695 27.2632 8.97708 27.3254 9.36038L29.9909 25.797C30.0307 26.0427 29.9378 26.2911 29.7464 26.4502C29.5551 26.6092 29.2938 26.6554 29.0597 26.5715L24.1813 24.8234L13.6061 28.0309C13.5398 28.051 13.471 28.0612 13.402 28.0612ZM12.2459 7.58453C11.953 7.58453 11.6796 7.40009 11.5802 7.10735C11.4553 6.73965 11.6521 6.34034 12.0198 6.21548L19.3123 3.73852C19.4461 3.69301 19.5906 3.68904 19.7268 3.7269L22.0417 4.37094C22.4158 4.475 22.6347 4.86269 22.5306 5.23677C22.4266 5.61089 22.0387 5.82973 21.6648 5.72572L19.5591 5.13988L12.4721 7.54702C12.3971 7.57245 12.3208 7.58453 12.2459 7.58453Z" fill="#1E538F"/>
<path d="M21.4093 11.9541C21.3327 11.9541 21.2548 11.9415 21.1783 11.9149L16.8024 10.3929C16.6142 10.3274 16.4626 10.1851 16.3853 10.0014C16.308 9.81768 16.3124 9.6098 16.3972 9.42949L18.9023 4.1049C19.0677 3.75346 19.4865 3.6027 19.8378 3.76798C20.1892 3.93331 20.34 4.35218 20.1747 4.70353L18.0022 9.32129L21.6403 10.5867C22.0071 10.7142 22.201 11.115 22.0734 11.4818C21.9724 11.7721 21.7003 11.9541 21.4093 11.9541Z" fill="#1E538F"/>
<path d="M9.82434 27.6529C9.60127 27.6529 9.38192 27.5471 9.24544 27.3498L1.72048 16.47C1.4996 16.1506 1.57941 15.7127 1.8988 15.4918C2.21815 15.2708 2.65618 15.3507 2.87706 15.6701L10.402 26.5498C10.6228 26.8692 10.543 27.3072 10.2237 27.528C10.1016 27.6124 9.96225 27.6529 9.82434 27.6529Z" fill="#1E538F"/>
<path d="M14.8414 27.6244C14.4702 27.6244 14.1598 27.3337 14.1399 26.9587L13.7932 20.441C13.7726 20.0532 14.0702 19.7222 14.458 19.7015C14.8461 19.6805 15.1769 19.9786 15.1975 20.3663L15.5442 26.884C15.5648 27.2717 15.2672 27.6028 14.8793 27.6234C14.8667 27.6241 14.854 27.6244 14.8414 27.6244ZM28.5989 22.3076C28.5382 22.3076 28.4764 22.2996 28.4149 22.283L21.5484 20.4244C21.1736 20.323 20.9519 19.9369 21.0534 19.5621C21.1549 19.1873 21.5407 18.9655 21.9158 19.0671L28.7822 20.9256C29.1571 21.027 29.3787 21.4132 29.2772 21.7879C29.1924 22.1013 28.9088 22.3076 28.5989 22.3076Z" fill="#1E538F"/>
<path d="M7.12553 11.1517C5.30672 11.1517 3.82703 9.67203 3.82703 7.85322C3.82703 6.03441 5.30672 4.55472 7.12553 4.55472C8.94434 4.55472 10.424 6.03441 10.424 7.85322C10.424 9.67203 8.94429 11.1517 7.12553 11.1517ZM7.12553 5.96097C6.08214 5.96097 5.23328 6.80983 5.23328 7.85322C5.23328 8.89661 6.08214 9.74547 7.12553 9.74547C8.16892 9.74547 9.01778 8.89661 9.01778 7.85322C9.01778 6.80983 8.16892 5.96097 7.12553 5.96097Z" fill="#1E538F"/>
<path d="M7.15447 17.8066C6.9132 17.8066 6.68871 17.6829 6.55987 17.4788L3.36559 12.4186C1.99476 11.2896 1.21118 9.63273 1.21118 7.85317C1.21118 4.59197 3.86438 1.93883 7.12557 1.93883C10.3868 1.93883 13.0399 4.59197 13.0399 7.85317C13.0399 9.62198 12.2639 11.2724 10.9063 12.4011L7.75156 17.4747C7.6237 17.6804 7.39899 17.8058 7.15686 17.8066C7.15605 17.8066 7.15523 17.8066 7.15447 17.8066ZM7.12557 3.34508C4.63974 3.34508 2.61738 5.36739 2.61738 7.85317C2.61738 9.24112 3.24297 10.5313 4.3337 11.3929C4.39624 11.4423 4.4499 11.5019 4.49246 11.5693L7.14993 15.7791L9.77408 11.5588C9.81643 11.4907 9.87014 11.4303 9.93288 11.3803C11.0137 10.5187 11.6336 9.23312 11.6336 7.85312C11.6337 5.36744 9.61135 3.34508 7.12557 3.34508Z" fill="#1E538F"/>
<path d="M24.8787 10.664C22.6231 10.664 20.7881 8.82902 20.7881 6.57345C20.7881 4.31788 22.6231 2.48286 24.8787 2.48286C27.1343 2.48286 28.9693 4.31788 28.9693 6.57345C28.9693 8.82902 27.1343 10.664 24.8787 10.664ZM24.8787 3.88912C23.3986 3.88912 22.1944 5.0933 22.1944 6.57345C22.1944 8.0536 23.3985 9.25778 24.8787 9.25778C26.3588 9.25778 27.5631 8.0536 27.5631 6.57345C27.5631 5.0933 26.3588 3.88912 24.8787 3.88912Z" fill="#1E538F"/>
<path d="M24.8787 15.2876C24.4904 15.2876 24.1756 14.9728 24.1756 14.5845V9.96088C24.1756 9.57254 24.4904 9.25778 24.8787 9.25778C25.267 9.25778 25.5818 9.57259 25.5818 9.96088V14.5845C25.5819 14.9728 25.267 15.2876 24.8787 15.2876Z" fill="#1E538F"/>
<path d="M25.5998 15.2875H24.1579C23.7695 15.2875 23.4548 14.9727 23.4548 14.5844C23.4548 14.196 23.7695 13.8813 24.1579 13.8813H25.5998C25.9881 13.8813 26.3029 14.1961 26.3029 14.5844C26.3029 14.9727 25.9881 15.2875 25.5998 15.2875Z" fill="#1E538F"/>
<path d="M17.6702 19.6855C15.4147 19.6855 13.5797 17.8506 13.5797 15.595C13.5797 13.3394 15.4147 11.5044 17.6702 11.5044C19.9258 11.5044 21.7608 13.3394 21.7608 15.595C21.7608 17.8506 19.9258 19.6855 17.6702 19.6855ZM17.6702 12.9106C16.1901 12.9106 14.9859 14.1148 14.9859 15.5949C14.9859 17.075 16.1901 18.2793 17.6702 18.2793C19.1504 18.2793 20.3546 17.0751 20.3546 15.5949C20.3546 14.1148 19.1504 12.9106 17.6702 12.9106Z" fill="#1E538F"/>
<path d="M17.6703 24.3092C17.282 24.3092 16.9672 23.9944 16.9672 23.6061V18.9825C16.9672 18.5942 17.282 18.2794 17.6703 18.2794C18.0586 18.2794 18.3734 18.5942 18.3734 18.9825V23.6061C18.3734 23.9944 18.0586 24.3092 17.6703 24.3092Z" fill="#1E538F"/>
<path d="M18.3914 24.309H16.9494C16.5611 24.309 16.2463 23.9942 16.2463 23.6059C16.2463 23.2176 16.5611 22.9028 16.9494 22.9028H18.3914C18.7797 22.9028 19.0945 23.2176 19.0945 23.6059C19.0945 23.9942 18.7797 24.309 18.3914 24.309Z" fill="#1E538F"/>
</svg>
