<svg width="50" height="50" viewBox="0 0 50 50" fill="none" xmlns="http://www.w3.org/2000/svg">
<g clip-path="url(#clip0_5286_51)">
<path d="M45.3823 40.7942C43.1655 40.7096 43.1663 37.5319 45.3823 37.4479C47.9203 37.4479 49.9852 35.383 49.9852 32.845C49.9852 30.307 47.9203 28.2422 45.3823 28.2422H37.4332V1.46484C37.4332 0.655859 36.7773 0 35.9683 0H14.0021C13.1931 0 12.5373 0.655859 12.5373 1.46484V28.2422H4.58806C-1.51223 28.4756 -1.50656 37.2174 4.58816 37.448C5.51072 37.448 6.26121 38.1985 6.26121 39.1211C6.26121 40.0437 5.51062 40.7942 4.58806 40.7942C-1.53166 41.0361 -1.48762 49.7827 4.58806 50H45.3822C51.4846 49.7758 51.4762 41.0228 45.3823 40.7942ZM15.467 2.92969H34.5035V40.7942H31.1571V35.983C31.1571 35.174 30.5013 34.5182 29.6923 34.5182H20.2782C19.4692 34.5182 18.8134 35.174 18.8134 35.983V40.7942H15.467V2.92969ZM45.3823 47.0703H4.58806C3.67996 47.0703 2.91482 46.3351 2.91482 45.3972C2.91482 44.4746 3.66551 43.724 4.58806 43.724C7.12605 43.724 9.1909 41.6592 9.1909 39.1212C9.1909 36.5832 7.12605 34.5184 4.58806 34.5184C3.66551 34.5184 2.91482 33.7678 2.91482 32.8452C2.91482 31.9227 3.66551 31.1719 4.58806 31.1719H12.5372V42.2591C12.5372 43.0681 13.193 43.7239 14.002 43.7239H20.2781C21.0871 43.7239 21.7429 43.0681 21.7429 42.2591V37.4479H28.2273V42.2591C28.2273 43.0681 28.8832 43.7239 29.6922 43.7239H35.9682C36.7772 43.7239 37.4331 43.0681 37.4331 42.2591V31.1719H45.3822C46.3048 31.1719 47.0554 31.9225 47.0554 32.845C47.0554 33.7676 46.3048 34.5182 45.3822 34.5182C42.8442 34.5182 40.7794 36.583 40.7794 39.121C40.7794 41.659 42.8442 43.7238 45.3822 43.7238C46.3048 43.7238 47.0554 44.4744 47.0554 45.397C47.0554 46.3199 46.3098 47.0703 45.3823 47.0703Z" fill="#1E538F"/>
<path d="M20.2781 9.20581H29.6922C31.6337 9.13374 31.6322 6.34751 29.6922 6.27612H20.2781C18.3366 6.3481 18.338 9.13442 20.2781 9.20581Z" fill="#1E538F"/>
<path d="M24.9852 14.1211C24.4892 14.1211 24.0268 14.3722 23.7567 14.7882C23.0622 15.8576 19.5978 21.3385 19.5978 24.2155C19.5978 27.1861 22.0146 29.6029 24.9852 29.6029C27.9558 29.6029 30.3726 27.1861 30.3726 24.2155C30.3726 21.3385 26.9081 15.8577 26.2137 14.7882C25.9437 14.3722 25.4812 14.1211 24.9852 14.1211ZM24.9852 26.6731C23.63 26.6731 22.5275 25.5706 22.5275 24.2154C22.5275 23.1048 23.7356 20.5897 24.9852 18.4059C26.2348 20.5897 27.4429 23.1049 27.4429 24.2154C27.4429 25.5707 26.3404 26.6731 24.9852 26.6731Z" fill="#1E538F"/>
</g>
<defs>
<clipPath id="clip0_5286_51">
<rect width="50" height="50" fill="white"/>
</clipPath>
</defs>
</svg>
