<svg width="50" height="50" viewBox="0 0 50 50" fill="none" xmlns="http://www.w3.org/2000/svg">
<g clip-path="url(#clip0_5286_43)">
<path d="M25 22.5872C26.5427 22.5872 27.9901 21.9895 29.0755 20.9041C31.2187 18.7608 31.2545 15.2951 29.1585 12.8428L26.1878 9.3666C25.8909 9.01914 25.4569 8.81924 25 8.81924C24.543 8.81924 24.1091 9.01924 23.8122 9.3666L20.8415 12.8428C18.7456 15.2952 18.7812 18.7609 20.9244 20.9041C22.0097 21.9895 23.4571 22.5872 25 22.5872ZM23.2171 14.8729L25 12.7868L26.7829 14.873C27.6769 15.9191 27.9926 17.5677 26.8659 18.6944C26.3708 19.1896 25.7082 19.4622 25.0001 19.4622C24.292 19.4622 23.6294 19.1896 23.1343 18.6944C22.0074 17.5678 22.323 15.9191 23.2171 14.8729ZM37.507 0H12.4929C10.142 0 8.22937 1.9127 8.22937 4.26357V42.0788C8.22937 44.4297 10.142 46.3423 12.4929 46.3423H12.7798V48.4375C12.7798 49.3005 13.4793 50 14.3423 50C15.2052 50 15.9048 49.3005 15.9048 48.4375V46.3423H34.0953V48.4375C34.0953 49.3005 34.7948 50 35.6578 50C36.5208 50 37.2203 49.3005 37.2203 48.4375V46.3423H37.5071C39.8581 46.3423 41.7707 44.4297 41.7707 42.0788V4.26357C41.7706 1.9127 39.858 0 37.507 0ZM38.6456 42.0788C38.6456 42.7066 38.1348 43.2173 37.507 43.2173H12.4929C11.8651 43.2173 11.3544 42.7066 11.3544 42.0788V4.26357C11.3544 3.63574 11.8651 3.125 12.4929 3.125H37.5071C38.1349 3.125 38.6457 3.63574 38.6457 4.26357V42.0788H38.6456ZM31.7586 31.6942H18.2414C17.3784 31.6942 16.6789 32.3938 16.6789 33.2567V38.976C16.6789 39.839 17.3784 40.5385 18.2414 40.5385H31.7586C32.6216 40.5385 33.3211 39.839 33.3211 38.976V33.2567C33.3211 32.3938 32.6216 31.6942 31.7586 31.6942ZM30.1961 37.4135H19.8039V34.8192H30.1961V37.4135ZM19.2004 27.3821C19.2004 26.5191 19.8991 25.8196 20.7621 25.8196H20.7636C21.6265 25.8196 22.3261 26.5191 22.3261 27.3821C22.3261 28.2451 21.6265 28.9446 20.7636 28.9446C19.9006 28.9446 19.2004 28.245 19.2004 27.3821ZM30.8004 27.3821C30.8004 28.2451 30.1009 28.9446 29.2379 28.9446C28.3749 28.9446 27.6747 28.2451 27.6747 27.3821C27.6747 26.5191 28.3734 25.8196 29.2364 25.8196H29.2379C30.1008 25.8196 30.8004 26.5191 30.8004 27.3821Z" fill="#1E538F"/>
</g>
<defs>
<clipPath id="clip0_5286_43">
<rect width="50" height="50" fill="white"/>
</clipPath>
</defs>
</svg>
