<svg width="50" height="50" viewBox="0 0 50 50" fill="none" xmlns="http://www.w3.org/2000/svg">
<path d="M46.7132 8.59375H3.28679C2.93879 8.59375 2.7645 8.17299 3.01058 7.92691L7.90727 3.03022C8.34681 2.59068 8.94295 2.34375 9.56455 2.34375H40.4354C41.057 2.34375 41.6532 2.59068 42.0927 3.03022L46.9894 7.92691C47.2355 8.17299 47.0612 8.59375 46.7132 8.59375Z" fill="#FF5F5F"/>
<path d="M46.7133 9.37501H3.28678C2.81146 9.37501 2.38651 9.09119 2.20417 8.65174C2.02221 8.21305 2.12177 7.7118 2.45785 7.37458L7.35477 2.47803C7.94567 1.88752 8.73035 1.5625 9.56462 1.5625H40.4354C41.2697 1.5625 42.0544 1.88752 42.6453 2.47803L47.5418 7.37458C48.2772 8.06689 47.7299 9.40998 46.7133 9.37501ZM4.22978 7.81251H45.7703L41.5406 3.58277C41.2449 3.28751 40.8524 3.125 40.4354 3.125H9.56462C9.14768 3.125 8.75514 3.28751 8.4595 3.58277L4.22978 7.81251Z" fill="#222222"/>
<path d="M4.6875 8.59375H45.3125V31.25C45.3125 32.5436 44.2623 33.5938 42.9688 33.5938H7.03125C5.73769 33.5938 4.6875 32.5436 4.6875 31.25V8.59375Z" fill="white"/>
<path d="M42.9688 34.375H7.03125C5.30815 34.375 3.90625 32.9735 3.90625 31.25V8.59375C3.90625 8.16193 4.25605 7.8125 4.6875 7.8125H45.3125C45.7439 7.8125 46.0938 8.16193 46.0938 8.59375V31.25C46.0938 32.9735 44.6919 34.375 42.9688 34.375ZM5.46875 9.375V31.25C5.46875 32.1114 6.16951 32.8125 7.03125 32.8125H42.9688C43.8305 32.8125 44.5312 32.1114 44.5312 31.25V9.375H5.46875Z" fill="#222222"/>
<path d="M20.3125 16.4062C20.5276 10.1995 29.4745 10.2041 29.6875 16.4062H20.3125Z" fill="#4AA5FF"/>
<path d="M29.6875 17.1875H20.3125C19.8811 17.1875 19.5312 16.8381 19.5312 16.4062C19.5312 13.3911 21.9845 10.9375 25 10.9375C28.0155 10.9375 30.4688 13.3911 30.4688 16.4062C30.4688 16.8381 30.1189 17.1875 29.6875 17.1875ZM21.1723 15.625H28.8277C27.9432 11.4905 22.0553 11.4932 21.1723 15.625Z" fill="#222222"/>
<path d="M25 12.5C24.5686 12.5 24.2188 12.1506 24.2188 11.7188V8.59375C24.2188 8.16193 24.5686 7.8125 25 7.8125C25.4314 7.8125 25.7813 8.16193 25.7813 8.59375V11.7188C25.7813 12.1506 25.4314 12.5 25 12.5Z" fill="#222222"/>
<path d="M28.125 16.4062C27.997 20.538 22.0016 20.535 21.875 16.4062H28.125Z" fill="#E6F3FF"/>
<path d="M25 20.3125C22.8462 20.3125 21.0938 18.56 21.0938 16.4062C21.0938 15.9744 21.4436 15.625 21.875 15.625H28.125C28.5564 15.625 28.9063 15.9744 28.9063 16.4062C28.9063 18.56 27.1538 20.3125 25 20.3125ZM22.7901 17.1875C23.4786 19.2443 26.522 19.2433 27.2099 17.1875H22.7901Z" fill="#222222"/>
<path d="M25 23.4375C24.5686 23.4375 24.2188 23.0881 24.2188 22.6562V21.875C24.2188 21.4432 24.5686 21.0938 25 21.0938C25.4314 21.0938 25.7813 21.4432 25.7813 21.875V22.6562C25.7813 23.0881 25.4314 23.4375 25 23.4375Z" fill="#222222"/>
<path d="M27.7344 21.1422L28.125 21.8188Z" fill="#4AA5FF"/>
<path d="M28.1258 22.5998C27.5652 22.6474 27.2959 21.9205 27.058 21.5332C26.5591 20.636 27.8825 19.8701 28.4107 20.752L28.8013 21.428C29.1098 21.9282 28.7078 22.6152 28.1258 22.5998Z" fill="#222222"/>
<path d="M22.2656 21.1422L21.875 21.8188Z" fill="#4AA5FF"/>
<path d="M21.8743 22.5997C21.2923 22.6148 20.8901 21.9283 21.1987 21.4278L21.5893 20.7519C22.117 19.87 23.4412 20.6358 22.942 21.5332C22.7032 21.9212 22.4358 22.6468 21.8743 22.5997Z" fill="#222222"/>
<path d="M32.8125 16.4062C33.0276 10.1995 41.9745 10.2041 42.1875 16.4062H32.8125Z" fill="#4AA5FF"/>
<path d="M42.1875 17.1875H32.8125C32.3811 17.1875 32.0312 16.8381 32.0312 16.4062C32.0312 13.3911 34.4845 10.9375 37.5 10.9375C40.5155 10.9375 42.9688 13.3911 42.9688 16.4062C42.9688 16.8381 42.6189 17.1875 42.1875 17.1875ZM33.6723 15.625H41.3277C40.4432 11.4905 34.5553 11.4932 33.6723 15.625Z" fill="#222222"/>
<path d="M37.5 12.5C37.0686 12.5 36.7188 12.1506 36.7188 11.7188V8.59375C36.7188 8.16193 37.0686 7.8125 37.5 7.8125C37.9314 7.8125 38.2812 8.16193 38.2812 8.59375V11.7188C38.2812 12.1506 37.9314 12.5 37.5 12.5Z" fill="#222222"/>
<path d="M40.625 16.4062C40.497 20.538 34.5016 20.535 34.375 16.4062H40.625Z" fill="#E6F3FF"/>
<path d="M37.5 20.3125C35.3462 20.3125 33.5938 18.56 33.5938 16.4062C33.5938 15.9744 33.9436 15.625 34.375 15.625H40.625C41.0564 15.625 41.4062 15.9744 41.4062 16.4062C41.4062 18.56 39.6538 20.3125 37.5 20.3125ZM35.2901 17.1875C35.9786 19.2443 39.022 19.2433 39.7099 17.1875H35.2901Z" fill="#222222"/>
<path d="M37.5 23.4375C37.0686 23.4375 36.7188 23.0881 36.7188 22.6562V21.875C36.7188 21.4432 37.0686 21.0938 37.5 21.0938C37.9314 21.0938 38.2812 21.4432 38.2812 21.875V22.6562C38.2812 23.0881 37.9314 23.4375 37.5 23.4375Z" fill="#222222"/>
<path d="M40.2344 21.1422L40.625 21.8188Z" fill="#4AA5FF"/>
<path d="M40.6258 22.5998C40.0652 22.6474 39.7959 21.9205 39.5581 21.5332C39.0594 20.6361 40.3819 19.8701 40.9108 20.752L41.3014 21.4279C41.6098 21.9282 41.2078 22.6152 40.6258 22.5998Z" fill="#222222"/>
<path d="M34.7656 21.1422L34.375 21.8188Z" fill="#4AA5FF"/>
<path d="M34.3743 22.5998C33.7923 22.6149 33.3901 21.9284 33.6987 21.4279L34.0893 20.752C34.6172 19.8702 35.9411 20.6359 35.442 21.5333C35.2032 21.9213 34.9358 22.6469 34.3743 22.5998Z" fill="#222222"/>
<path d="M17.1875 16.4062C16.9724 10.1995 8.02545 10.2041 7.8125 16.4062H17.1875Z" fill="#4AA5FF"/>
<path d="M17.1875 17.1875H7.8125C7.38105 17.1875 7.03125 16.8381 7.03125 16.4062C7.03125 13.3911 9.48448 10.9375 12.5 10.9375C15.5155 10.9375 17.9688 13.3911 17.9688 16.4062C17.9688 16.8381 17.6189 17.1875 17.1875 17.1875ZM8.67234 15.625H16.3277C15.4432 11.4905 9.55534 11.4932 8.67234 15.625Z" fill="#222222"/>
<path d="M12.5 12.5C12.0686 12.5 11.7188 12.1506 11.7188 11.7188V8.59375C11.7188 8.16193 12.0686 7.8125 12.5 7.8125C12.9314 7.8125 13.2812 8.16193 13.2812 8.59375V11.7188C13.2812 12.1506 12.9314 12.5 12.5 12.5Z" fill="#222222"/>
<path d="M9.375 16.4062C9.50298 20.538 15.4984 20.535 15.625 16.4062H9.375Z" fill="#E6F3FF"/>
<path d="M12.5 20.3125C10.3462 20.3125 8.59375 18.56 8.59375 16.4062C8.59375 15.9744 8.94355 15.625 9.375 15.625H15.625C16.0564 15.625 16.4062 15.9744 16.4062 16.4062C16.4062 18.56 14.6538 20.3125 12.5 20.3125ZM10.2901 17.1875C10.9786 19.2443 14.022 19.2433 14.7099 17.1875H10.2901Z" fill="#222222"/>
<path d="M12.5 23.4375C12.0686 23.4375 11.7188 23.0881 11.7188 22.6562V21.875C11.7188 21.4432 12.0686 21.0938 12.5 21.0938C12.9314 21.0938 13.2812 21.4432 13.2812 21.875V22.6562C13.2812 23.0881 12.9314 23.4375 12.5 23.4375Z" fill="#222222"/>
<path d="M9.76562 21.1422L9.375 21.8188Z" fill="#4AA5FF"/>
<path d="M9.37426 22.5998C8.79235 22.6149 8.39007 21.9283 8.6987 21.4279L9.0893 20.7519C9.61635 19.87 10.9414 20.6358 10.442 21.5332C10.2032 21.9212 9.93577 22.6469 9.37426 22.5998Z" fill="#222222"/>
<path d="M15.2344 21.1422L15.625 21.8188Z" fill="#4AA5FF"/>
<path d="M15.6258 22.5997C15.0652 22.6473 14.7959 21.9204 14.558 21.5331C14.0591 20.6359 15.3826 19.8699 15.9107 20.7519L16.3014 21.4279C16.6098 21.9281 16.2078 22.6151 15.6258 22.5997Z" fill="#222222"/>
<path d="M31.25 25.7812H18.75C17.8871 25.7812 17.1875 26.4808 17.1875 27.3438V46.0938C17.1875 46.9567 17.8871 47.6562 18.75 47.6562H31.25C32.1129 47.6562 32.8125 46.9567 32.8125 46.0938V27.3438C32.8125 26.4808 32.1129 25.7812 31.25 25.7812Z" fill="#4AA5FF"/>
<path d="M31.25 48.4375H18.75C17.4576 48.4375 16.4062 47.3862 16.4062 46.0938V27.3438C16.4062 26.0513 17.4576 25 18.75 25H31.25C32.5424 25 33.5938 26.0513 33.5938 27.3438V46.0938C33.5938 47.3862 32.5424 48.4375 31.25 48.4375ZM18.75 26.5625C18.3193 26.5625 17.9688 26.9127 17.9688 27.3438V46.0938C17.9688 46.5248 18.3193 46.875 18.75 46.875H31.25C31.6807 46.875 32.0313 46.5248 32.0313 46.0938V27.3438C32.0313 26.9127 31.6807 26.5625 31.25 26.5625H18.75Z" fill="#222222"/>
<path d="M21.875 25.7812H28.125V26.5625C28.125 27.4249 27.4249 28.125 26.5625 28.125H23.4375C22.5751 28.125 21.875 27.4249 21.875 26.5625V25.7812Z" fill="#E6F3FF"/>
<path d="M26.5625 28.9062H23.4375C22.1451 28.9062 21.0938 27.8549 21.0938 26.5625V25.7812C21.0938 25.3494 21.4436 25 21.875 25H28.125C28.5564 25 28.9063 25.3494 28.9063 25.7812V26.5625C28.9063 27.8549 27.8549 28.9062 26.5625 28.9062ZM22.6562 26.5625C22.6562 26.9936 23.0068 27.3438 23.4375 27.3438H26.5625C26.9932 27.3438 27.3438 26.9936 27.3438 26.5625H22.6562Z" fill="#222222"/>
<path d="M26.5626 46.0938H23.4376C22.4116 46.0769 22.41 44.5484 23.4376 44.5312H26.5626C27.5886 44.5481 27.5901 46.0766 26.5626 46.0938Z" fill="#E6F3FF"/>
<path d="M25 41.4062C20.5328 41.4158 18.6147 35.6402 22.1868 32.9696C23.0085 32.3606 23.9388 33.5995 23.1258 34.2178C22.3427 34.8075 21.875 35.7422 21.875 36.7187C22.0059 40.8481 27.9945 40.8481 28.125 36.7186C28.125 35.7422 27.6573 34.8075 26.8742 34.2178C26.5293 33.9584 26.4599 33.4686 26.7193 33.1237C26.9791 32.7797 27.4685 32.7095 27.8134 32.9696C28.9868 33.8523 29.6875 35.2539 29.6875 36.7187C29.6875 39.3036 27.5849 41.4062 25 41.4062Z" fill="#E6F3FF"/>
<path d="M25 38.2812C24.5686 38.2812 24.2188 37.9318 24.2188 37.5V32.8125C24.2188 32.3807 24.5686 32.0312 25 32.0312C25.4314 32.0312 25.7813 32.3807 25.7813 32.8125V37.5C25.7813 37.9318 25.4314 38.2812 25 38.2812Z" fill="#E6F3FF"/>
</svg>
