<svg width="30" height="30" viewBox="0 0 30 30" fill="none" xmlns="http://www.w3.org/2000/svg">
<g clip-path="url(#clip0_902_6)">
<path d="M11.475 23.2262C10.9904 23.2262 10.5961 22.8319 10.5961 22.3473C10.5961 21.8619 10.2026 21.4684 9.71718 21.4684C9.23172 21.4684 8.83827 21.8619 8.83827 22.3473C8.83827 23.4966 9.57756 24.4757 10.6055 24.836V25.6055C10.6055 26.0909 10.9989 26.4844 11.4844 26.4844C11.9698 26.4844 12.3633 26.0909 12.3633 25.6055V24.8296C13.3813 24.4643 14.1117 23.4897 14.1117 22.3473C14.1117 20.8935 12.9288 19.7106 11.475 19.7106C10.9904 19.7106 10.5961 19.3163 10.5961 18.8317C10.5961 18.3469 10.9904 17.9528 11.475 17.9528C11.9595 17.9528 12.3539 18.3469 12.3539 18.8317C12.3539 19.3172 12.7473 19.7106 13.2328 19.7106C13.7183 19.7106 14.1117 19.3172 14.1117 18.8317C14.1117 17.6894 13.3813 16.7148 12.3633 16.3493V15.0586C12.3633 14.5731 11.9698 14.1797 11.4844 14.1797C10.9989 14.1797 10.6055 14.5731 10.6055 15.0586V16.3428C9.57756 16.7031 8.83827 17.6823 8.83827 18.8317C8.83827 20.2856 10.0211 21.4684 11.475 21.4684C11.9595 21.4684 12.3539 21.8626 12.3539 22.3473C12.3539 22.8319 11.9595 23.2262 11.475 23.2262Z" fill="#1E538F"/>
<path d="M3.58246 28.5647C5.41145 29.5438 7.92252 30 11.4844 30C14.3825 30 16.5637 29.6997 18.2584 29.0611C18.7424 29.6347 19.4659 30 20.2734 30H27.3633C28.8171 30 30 28.8171 30 27.3633C30 26.6885 29.7448 26.0724 29.3264 25.6055C29.745 25.1385 30 24.5224 30 23.8477C30 23.1729 29.7448 22.5568 29.3264 22.0898C29.745 21.6229 30 21.0068 30 20.332C30 19.6573 29.7448 19.0411 29.3264 18.5742C29.745 18.1073 30 17.4911 30 16.8164C30 15.3625 28.8171 14.1797 27.3633 14.1797H20.2734C20.1878 14.1797 20.1031 14.184 20.0196 14.1923C19.1375 13.1239 18.1039 12.228 16.965 11.5409C17.3822 11.0744 17.6367 10.459 17.6367 9.78516C17.6367 8.73482 17.0192 7.82616 16.1282 7.4025L17.5935 2.90932C17.6807 2.64153 17.6344 2.34833 17.4692 2.12059C17.3037 1.89262 17.0393 1.75781 16.7578 1.75781H13.97C13.607 0.734711 12.6302 0 11.4844 0C10.3384 0 9.36104 0.734711 8.99826 1.75781H6.21094C5.92941 1.75781 5.66505 1.89262 5.49957 2.12059C5.33432 2.34833 5.28809 2.64153 5.37529 2.90932L6.84059 7.4025C5.94955 7.82616 5.33203 8.73482 5.33203 9.78516C5.33203 10.4594 5.58678 11.0754 6.00471 11.5421C2.47833 13.6704 0 17.7127 0 22.0898C0 25.1136 1.20529 27.2919 3.58246 28.5647ZM28.2422 20.332C28.2422 20.8166 27.8478 21.2109 27.3633 21.2109H20.2734C19.7889 21.2109 19.3945 20.8166 19.3945 20.332C19.3945 19.8475 19.7889 19.4531 20.2734 19.4531H27.3633C27.8478 19.4531 28.2422 19.8475 28.2422 20.332ZM28.2422 23.8477C28.2422 24.3322 27.8478 24.7266 27.3633 24.7266H20.2734C19.7889 24.7266 19.3945 24.3322 19.3945 23.8477C19.3945 23.3631 19.7889 22.9688 20.2734 22.9688H27.3633C27.8478 22.9688 28.2422 23.3631 28.2422 23.8477ZM27.3633 28.2422H20.2734C19.7889 28.2422 19.3945 27.8478 19.3945 27.3633C19.3945 26.8787 19.7889 26.4844 20.2734 26.4844H27.3633C27.8478 26.4844 28.2422 26.8787 28.2422 27.3633C28.2422 27.8478 27.8478 28.2422 27.3633 28.2422ZM28.2422 16.8164C28.2422 17.3009 27.8478 17.6953 27.3633 17.6953H20.2734C19.7889 17.6953 19.3945 17.3009 19.3945 16.8164C19.3945 16.3319 19.7889 15.9375 20.2734 15.9375H27.3633C27.8478 15.9375 28.2422 16.3319 28.2422 16.8164ZM14.9748 10.6641H7.99416C7.98637 10.6638 7.97859 10.6641 7.97081 10.6641H7.96875C7.48421 10.6641 7.08984 10.2697 7.08984 9.78516C7.08984 9.30153 7.4826 8.90785 7.966 8.90648H7.96852C7.97058 8.90648 7.97264 8.90625 7.9747 8.90625H14.9938C14.9959 8.90625 14.9982 8.90648 15.0002 8.90648H15.0027C15.4861 8.90785 15.8789 9.30153 15.8789 9.78516C15.8789 10.2697 15.4845 10.6641 15 10.6641H14.9973C14.9899 10.6641 14.9824 10.6638 14.9748 10.6641ZM9.72656 3.51562C10.212 3.51562 10.6055 3.12218 10.6055 2.63672C10.6055 2.15218 10.9998 1.75781 11.4844 1.75781C11.9689 1.75781 12.3633 2.15218 12.3633 2.63672V4.39453C12.3633 4.87999 12.7567 5.27344 13.2422 5.27344C13.7276 5.27344 14.1211 4.87999 14.1211 4.39453V3.51562H15.5468L14.3621 7.14844H8.60664L7.42195 3.51562H9.72656ZM8.14018 12.4219H14.8251C16.1561 12.9778 17.3692 13.8533 18.3808 14.9833C17.9208 15.4582 17.6367 16.1046 17.6367 16.8164C17.6367 17.4911 17.8919 18.1073 18.3103 18.5742C17.8919 19.0411 17.6367 19.6573 17.6367 20.332C17.6367 21.0068 17.8919 21.6229 18.3103 22.0898C17.8919 22.5568 17.6367 23.1729 17.6367 23.8477C17.6367 24.5224 17.8919 25.1385 18.3103 25.6055C17.8919 26.0724 17.6367 26.6885 17.6367 27.3633C17.6367 27.3814 17.6376 27.3992 17.6381 27.4171C16.1513 27.9785 14.171 28.2422 11.4844 28.2422C8.22327 28.2422 5.97588 27.8522 4.41216 27.0149C2.60124 26.0454 1.75781 24.4805 1.75781 22.0898C1.75781 17.9443 4.37439 13.9938 8.14018 12.4219Z" fill="#1E538F"/>
</g>
<defs>
<clipPath id="clip0_902_6">
<rect width="30" height="30" fill="white"/>
</clipPath>
</defs>
</svg>
