<svg width="50" height="50" viewBox="0 0 50 50" fill="none" xmlns="http://www.w3.org/2000/svg">
<g clip-path="url(#clip0_2179_1218)">
<path d="M29.7894 4.1377H32.7052V14.0034H29.7894V4.1377Z" fill="#545454"/>
<path d="M23.5421 4.1377H26.4579V14.0034H23.5421V4.1377Z" fill="#545454"/>
<path d="M17.2948 4.1377H20.2106V14.0034H17.2948V4.1377Z" fill="#545454"/>
<path d="M29.7894 12.2457H32.7052V14.0035H29.7894V12.2457Z" fill="#494949"/>
<path d="M23.5421 12.2457H26.4579V14.0035H23.5421V12.2457Z" fill="#494949"/>
<path d="M17.2948 12.2457H20.2106V14.0035H17.2948V12.2457Z" fill="#494949"/>
<path d="M0.78125 43.9092V15.9567C0.78125 14.878 1.65566 14.0035 2.73438 14.0035H47.2656C48.3443 14.0035 49.2188 14.878 49.2188 15.9567V43.9092C49.2188 44.9879 48.3443 45.8623 47.2656 45.8623H2.73438C1.65566 45.8623 0.78125 44.9879 0.78125 43.9092Z" fill="#97E3F7"/>
<path d="M47.2656 44.1045H2.73438C1.65566 44.1045 0.78125 43.2301 0.78125 42.1514V43.9092C0.78125 44.9879 1.65566 45.8623 2.73438 45.8623H47.2656C48.3443 45.8623 49.2188 44.9879 49.2188 43.9092V42.1514C49.2188 43.2301 48.3443 44.1045 47.2656 44.1045Z" fill="#D8D1D7"/>
<path d="M4.25909 20.6117H45.7409V39.2541H4.25909V20.6117Z" fill="#FCFCFC"/>
<path d="M4.25909 37.4963H45.7409V39.2542H4.25909V37.4963Z" fill="#FFDEDE"/>
<path d="M6.9801 24.783H12.1994V27.3695H6.9801V24.783Z" fill="#A8A7A8"/>
<path d="M14.6852 24.783H19.9045V27.3695H14.6852V24.783Z" fill="#A8A7A8"/>
<path d="M22.3904 24.783H27.6097V27.3695H22.3904V24.783Z" fill="#A8A7A8"/>
<path d="M30.0955 24.783H35.3148V27.3695H30.0955V24.783Z" fill="#A8A7A8"/>
<path d="M43.02 32.3953H37.8006V29.8087H43.02V32.3953Z" fill="#A8A7A8"/>
<path d="M39.2029 29.8087H41.6175V25.9902C41.6175 25.3234 41.0769 24.7828 40.4101 24.7828C39.7433 24.7828 39.2028 25.3234 39.2028 25.9902L39.2029 29.8087Z" fill="#DD636E"/>
<path d="M39.2029 28.0509H41.6175V29.8087H39.2029V28.0509Z" fill="#C63D4F"/>
<path d="M10.7971 27.3694H8.38245V31.1879C8.38245 31.8547 8.92297 32.3953 9.58977 32.3953C10.2566 32.3953 10.7971 31.8547 10.7971 31.1879V27.3694Z" fill="#545454"/>
<path d="M8.38245 27.3694H10.797V29.1272H8.38245V27.3694Z" fill="#494949"/>
<path d="M18.5021 27.3694H16.0876V31.1879C16.0876 31.8547 16.6281 32.3953 17.2949 32.3953C17.9617 32.3953 18.5022 31.8547 18.5022 31.1879L18.5021 27.3694Z" fill="#545454"/>
<path d="M16.0876 27.3694H18.5021V29.1272H16.0876V27.3694Z" fill="#494949"/>
<path d="M26.2073 27.3694H23.7928V31.1879C23.7928 31.8547 24.3333 32.3953 25.0001 32.3953C25.6669 32.3953 26.2074 31.8547 26.2074 31.1879V27.3694H26.2073Z" fill="#545454"/>
<path d="M23.7927 27.3694H26.2072V29.1272H23.7927V27.3694Z" fill="#494949"/>
<path d="M33.9124 27.3694H31.4979V31.1879C31.4979 31.8547 32.0384 32.3953 32.7052 32.3953C33.372 32.3953 33.9125 31.8547 33.9125 31.1879V27.3694H33.9124Z" fill="#545454"/>
<path d="M31.4979 27.3694H33.9124V29.1272H31.4979V27.3694Z" fill="#494949"/>
<path d="M47.3092 13.2482H33.454V4.09692C33.454 3.69155 33.1254 3.36304 32.7201 3.36304H29.7986C29.3933 3.36304 29.0647 3.69155 29.0647 4.09692V13.2481H27.1945V4.09692C27.1945 3.69155 26.8659 3.36304 26.4606 3.36304H23.5391C23.1339 3.36304 22.8052 3.69155 22.8052 4.09692V13.2481H20.935V4.09692C20.935 3.69155 20.6064 3.36304 20.2011 3.36304H17.2797C16.8744 3.36304 16.5458 3.69155 16.5458 4.09692V13.2481H10.4906C10.0853 13.2481 9.75671 13.5766 9.75671 13.982C9.75671 14.3874 10.0853 14.7159 10.4906 14.7159H47.3091C47.9835 14.7159 48.5321 15.2645 48.5321 15.9389V43.9461C48.5321 44.6206 47.9835 45.1693 47.3091 45.1693H18.7475C18.3423 45.1693 18.0136 45.4978 18.0136 45.9032C18.0136 46.3085 18.3423 46.6371 18.7475 46.6371H47.3093C48.7929 46.6371 50.0001 45.4299 50.0001 43.9462V15.9389C50 14.4552 48.7928 13.2482 47.3092 13.2482ZM30.5325 4.83081H31.9863V13.2482H30.5325V4.83081ZM24.2731 4.83081H25.7268V13.2482H24.2731V4.83081ZM18.0136 4.83081H19.4675V13.2482H18.0136V4.83081Z" fill="#222222"/>
<path d="M15.8121 45.1692H2.69082C2.01641 45.1692 1.46777 44.6206 1.46777 43.9461V15.9389C1.46777 15.2645 2.01641 14.7158 2.69082 14.7158H7.55537C7.96064 14.7158 8.28926 14.3873 8.28926 13.9819C8.28926 13.5766 7.96064 13.248 7.55537 13.248H2.69082C1.20713 13.2481 0 14.4551 0 15.9389V43.9461C0 45.4299 1.20713 46.6369 2.69082 46.6369H15.8121C16.2174 46.6369 16.546 46.3084 16.546 45.903C16.5459 45.4978 16.2174 45.1692 15.8121 45.1692Z" fill="#222222"/>
<path d="M36.9685 19.8692H4.21857C3.81329 19.8692 3.48468 20.1978 3.48468 20.6031V39.282C3.48468 39.6874 3.8132 40.0159 4.21857 40.0159H45.7816C46.1868 40.0159 46.5154 39.6874 46.5154 39.282V20.603C46.5154 20.1977 46.1868 19.8691 45.7816 19.8691H39.9039C39.4986 19.8691 39.17 20.1977 39.17 20.603C39.17 21.0084 39.4985 21.3369 39.9039 21.3369H45.0477V38.5481H4.95236V21.3369H36.9684C37.3736 21.3369 37.7023 21.0084 37.7023 20.603C37.7023 20.1978 37.3737 19.8692 36.9685 19.8692Z" fill="#222222"/>
<path d="M12.9082 27.3741V24.7826C12.9082 24.3772 12.5796 24.0487 12.1743 24.0487H6.94482C6.53955 24.0487 6.21094 24.3772 6.21094 24.7826V27.3741C6.21094 27.7795 6.53945 28.108 6.94482 28.108H7.61611V31.2001C7.61611 32.2718 8.48799 33.1436 9.55967 33.1436C10.6313 33.1436 11.5031 32.2718 11.5031 31.2001V28.108H12.1744C12.5797 28.108 12.9082 27.7795 12.9082 27.3741ZM7.67871 25.5165H11.4406V26.6403H7.67871V25.5165ZM10.0354 31.2001C10.0354 31.4625 9.82197 31.676 9.55957 31.676C9.29717 31.676 9.08379 31.4625 9.08379 31.2001V28.108H10.0354V31.2001Z" fill="#222222"/>
<path d="M11.5639 34.3688H7.5553C7.15002 34.3688 6.82141 34.6973 6.82141 35.1027C6.82141 35.508 7.14993 35.8365 7.5553 35.8365H11.5639C11.9692 35.8365 12.2978 35.508 12.2978 35.1027C12.2978 34.6973 11.9692 34.3688 11.5639 34.3688Z" fill="#222222"/>
<path d="M20.6284 27.3741V24.7826C20.6284 24.3772 20.2998 24.0487 19.8945 24.0487H14.665C14.2598 24.0487 13.9312 24.3772 13.9312 24.7826V27.3741C13.9312 27.7795 14.2598 28.108 14.665 28.108H15.3363V31.2001C15.3363 32.2718 16.2082 33.1436 17.2799 33.1436C18.3516 33.1436 19.2233 32.2718 19.2233 31.2001V28.108H19.8946C20.2999 28.108 20.6284 27.7795 20.6284 27.3741ZM15.3988 25.5165H19.1607V26.6403H15.3988V25.5165ZM17.7556 31.2001C17.7556 31.4625 17.5422 31.676 17.2798 31.676C17.0174 31.676 16.804 31.4625 16.804 31.2001V28.108H17.7556V31.2001Z" fill="#222222"/>
<path d="M19.2841 34.3688H15.2756C14.8703 34.3688 14.5417 34.6973 14.5417 35.1027C14.5417 35.508 14.8702 35.8365 15.2756 35.8365H19.2841C19.6893 35.8365 20.018 35.508 20.018 35.1027C20.018 34.6973 19.6893 34.3688 19.2841 34.3688Z" fill="#222222"/>
<path d="M28.3486 27.3741V24.7826C28.3486 24.3772 28.02 24.0487 27.6147 24.0487H22.3851C21.9799 24.0487 21.6512 24.3772 21.6512 24.7826V27.3741C21.6512 27.7795 21.9799 28.108 22.3851 28.108H23.0564V31.2001C23.0564 32.2718 23.9283 33.1436 25 33.1436C26.0717 33.1436 26.9435 32.2718 26.9435 31.2001V28.108H27.6148C28.0201 28.108 28.3486 27.7795 28.3486 27.3741ZM23.119 25.5165H26.8809V26.6403H23.119V25.5165ZM25.4758 31.2001C25.4758 31.4625 25.2623 31.676 25 31.676C24.7377 31.676 24.5242 31.4625 24.5242 31.2001V28.108H25.4759L25.4758 31.2001Z" fill="#222222"/>
<path d="M27.0042 34.3688H22.9957C22.5905 34.3688 22.2618 34.6973 22.2618 35.1027C22.2618 35.508 22.5905 35.8365 22.9957 35.8365H27.0042C27.4095 35.8365 27.7381 35.508 27.7381 35.1027C27.7381 34.6973 27.4096 34.3688 27.0042 34.3688Z" fill="#222222"/>
<path d="M36.0688 27.3741V24.7826C36.0688 24.3772 35.7402 24.0487 35.3349 24.0487H30.1053C29.7001 24.0487 29.3715 24.3772 29.3715 24.7826V27.3741C29.3715 27.7795 29.7001 28.108 30.1053 28.108H30.7766V31.2001C30.7766 32.2718 31.6485 33.1436 32.7201 33.1436C33.7917 33.1436 34.6636 32.2718 34.6636 31.2001V28.108H35.3349C35.7402 28.108 36.0688 27.7795 36.0688 27.3741ZM30.8392 25.5165H34.6011V26.6403H30.8392V25.5165ZM33.196 31.2001C33.196 31.4625 32.9825 31.676 32.7202 31.676C32.4579 31.676 32.2444 31.4625 32.2444 31.2001V28.108H33.196V31.2001Z" fill="#222222"/>
<path d="M34.7244 34.3688H30.7159C30.3107 34.3688 29.9821 34.6973 29.9821 35.1027C29.9821 35.508 30.3106 35.8365 30.7159 35.8365H34.7244C35.1297 35.8365 35.4583 35.508 35.4583 35.1027C35.4583 34.6973 35.1297 34.3688 34.7244 34.3688Z" fill="#222222"/>
<path d="M40.4404 24.0487C39.3687 24.0487 38.497 24.9206 38.497 25.9922V29.0843H37.8257C37.4204 29.0843 37.0918 29.4128 37.0918 29.8181V32.4097C37.0918 32.8151 37.4204 33.1436 37.8257 33.1436H43.0553C43.4605 33.1436 43.7892 32.8151 43.7892 32.4097V29.8181C43.7892 29.4128 43.4605 29.0843 43.0553 29.0843H42.384V25.9922C42.3839 24.9206 41.512 24.0487 40.4404 24.0487ZM39.9646 25.9922C39.9646 25.7299 40.178 25.5164 40.4404 25.5164C40.7028 25.5164 40.9162 25.7299 40.9162 25.9922V29.0843H39.9646V25.9922ZM42.3213 31.676H38.5594V30.552H42.3213V31.676Z" fill="#222222"/>
<path d="M42.4447 34.3688H38.4362C38.0309 34.3688 37.7023 34.6973 37.7023 35.1027C37.7023 35.508 38.0309 35.8365 38.4362 35.8365H42.4447C42.85 35.8365 43.1786 35.508 43.1786 35.1027C43.1786 34.6973 42.85 34.3688 42.4447 34.3688Z" fill="#222222"/>
</g>
<defs>
<clipPath id="clip0_2179_1218">
<rect width="50" height="50" fill="white"/>
</clipPath>
</defs>
</svg>
