<svg width="30" height="30" viewBox="0 0 30 30" fill="none" xmlns="http://www.w3.org/2000/svg">
<g clip-path="url(#clip0_1799_174)">
<path d="M21.7742 13.3064V13.6459C21.7742 14.062 21.8413 14.4753 21.9728 14.87L22.7419 17.1773H24.1935V11.8547H23.2258C22.4241 11.8548 21.7742 12.5047 21.7742 13.3064Z" fill="#5A4146"/>
<path d="M28.3995 14.3116L27.5807 17.1774L23.7097 13.7903C23.1752 13.7903 22.7419 13.357 22.7419 12.8226C22.7419 12.0209 23.3919 11.371 24.1935 11.371H27.5806C28.1151 11.371 28.5484 11.8043 28.5484 12.3387V13.2482C28.5484 13.6078 28.4983 13.9657 28.3995 14.3116Z" fill="#694B4B"/>
<path d="M26.6127 18.6293H23.7095V20.7708H26.6127V18.6293Z" fill="#E6AF78"/>
<path d="M23.7097 19.5178C24.1585 19.7002 24.6479 19.8028 25.1613 19.8028C25.6748 19.8028 26.1642 19.7002 26.6129 19.5178V18.629H23.7097V19.5178Z" fill="#D29B6E"/>
<path d="M28.947 20.4698L26.6127 19.8029L25.1612 20.7661L23.7096 19.8028L21.3753 20.4698C20.7521 20.6479 20.3225 21.2175 20.3225 21.8656V25.4032C20.3225 25.6705 20.5391 25.8871 20.8064 25.8871H29.516C29.7833 25.8871 29.9999 25.6705 29.9999 25.4032V21.8656C29.9999 21.2174 29.5702 20.6479 28.947 20.4698Z" fill="#D5DCED"/>
<path d="M25.6452 25.887H24.6775L24.9194 20.7705H25.4033L25.6452 25.887Z" fill="#AFB9D2"/>
<path d="M25.1613 19.1129C23.5578 19.1129 22.2581 17.813 22.2581 16.2097V15.6428C22.2581 15.3861 22.36 15.14 22.5415 14.9584L23.4189 14.081C23.6047 13.8952 23.8588 13.7884 24.1214 13.7967C25.6682 13.8455 27.0373 14.1768 27.7857 14.9078C27.9689 15.0867 28.0645 15.337 28.0645 15.5931V16.2097C28.0645 17.8131 26.7647 19.1129 25.1613 19.1129Z" fill="#F0C087"/>
<path d="M23.7097 15.7628C23.7097 15.2046 24.1784 14.7609 24.7355 14.7964C25.7123 14.8588 27.1618 15.022 28.051 15.4498C28.022 15.2456 27.9343 15.0529 27.7857 14.9077C27.0373 14.1767 25.6682 13.8454 24.1214 13.7966L24.1213 13.7966V13.7966C23.8588 13.7883 23.6047 13.8952 23.4189 14.0809L22.5415 14.9583C22.36 15.1398 22.2581 15.3859 22.2581 15.6426V16.2095C22.2581 17.5335 23.1452 18.6483 24.3569 18.9974C23.9536 18.4998 23.7097 17.8682 23.7097 17.1773L23.7097 15.7628Z" fill="#E6AF78"/>
<path d="M28.0645 23.3074C28.0645 22.9224 28.2174 22.5532 28.4896 22.2809L29.7351 21.0354C29.9016 21.2733 29.9999 21.5598 29.9999 21.8656V25.4033C29.9999 25.6705 29.7833 25.8871 29.5161 25.8871H28.0645V23.3074Z" fill="#C7CFE2"/>
<path d="M25.4033 21.7383H24.9194C24.7858 21.7383 24.6775 21.6299 24.6775 21.4963V20.7705H25.6452V21.4963C25.6452 21.6299 25.5369 21.7383 25.4033 21.7383Z" fill="#959CB5"/>
<path d="M25.1613 20.7661L24.3412 21.3926C24.1999 21.5005 23.9956 21.4573 23.9103 21.3013L23.1746 19.9577L23.4707 19.506C23.5364 19.4058 23.6764 19.3888 23.7642 19.4702L25.1613 20.7661Z" fill="#C7CFE2"/>
<path d="M25.1614 20.7662L25.9815 21.3926C26.1228 21.5006 26.327 21.4573 26.4124 21.3013L27.1481 19.9578L26.852 19.5061C26.7863 19.4059 26.6463 19.3888 26.5585 19.4703L25.1614 20.7662Z" fill="#C7CFE2"/>
<path d="M8.66145 18.9108C8.24795 17.8153 7.92 15.9319 7.84916 14.9513C7.7144 13.0853 6.30821 11.5642 4.40731 11.5642C2.50641 11.5642 1.10022 13.0854 0.965454 14.9513C0.894614 15.9318 0.566665 17.8153 0.153169 18.9108C0.062056 19.1524 0.167232 19.4187 0.405064 19.5265C0.84815 19.7273 1.79286 20.1207 2.93221 20.2739H5.88235C7.01637 20.1203 7.9677 19.7267 8.4095 19.5265C8.64739 19.4187 8.75256 19.1524 8.66145 18.9108Z" fill="#5A4146"/>
<path d="M8.4096 19.5265C8.64737 19.4187 8.75261 19.1524 8.66143 18.9109C8.248 17.8153 7.91999 15.9319 7.84921 14.9514C7.7145 13.0854 6.30825 11.5643 4.40741 11.5643C4.40261 11.5643 4.39786 11.5643 4.39306 11.5644C2.93448 11.5703 2.41903 13.5595 3.67464 14.3017C3.75005 14.3463 3.79839 14.3677 3.79839 14.3677L4.89813 20.274H5.88245C7.01647 20.1203 7.9678 19.7267 8.4096 19.5265Z" fill="#694B4B"/>
<path d="M7.90723 21.2454L6.34137 20.4625C6.01348 20.2986 5.80635 19.9634 5.80641 19.5969L5.80652 18.1452H2.9032V19.5969C2.9032 19.9635 2.69613 20.2985 2.36824 20.4625L0.802383 21.2454C0.310606 21.4913 0 21.9939 0 22.5437V25.4032C0 25.6703 0.216621 25.887 0.483867 25.887H8.2258C8.49305 25.887 8.70967 25.6703 8.70967 25.4032V22.5437C8.70967 21.9939 8.399 21.4913 7.90723 21.2454Z" fill="#E6AF78"/>
<path d="M4.35475 20.0806C4.87576 20.0806 5.3748 19.9732 5.8323 19.782C5.82029 19.721 5.80629 19.6604 5.80629 19.5968L5.80641 18.1451H2.90309V19.5969C2.90309 19.6608 2.88908 19.7217 2.87695 19.783C3.33475 19.9731 3.83355 20.0806 4.35475 20.0806Z" fill="#D29B6E"/>
<path d="M7.90723 21.2454L6.79172 20.6877C6.27445 21.4864 5.37732 22.0161 4.35486 22.0161C3.3324 22.0161 2.43521 21.4864 1.91795 20.6876L0.802441 21.2454C0.310664 21.4913 0 21.9939 0 22.5437V25.4032C0 25.6704 0.216621 25.887 0.483867 25.887H8.2258C8.49305 25.887 8.70967 25.6704 8.70967 25.4032V22.5437C8.70967 21.9939 8.399 21.4913 7.90723 21.2454Z" fill="#D5DCED"/>
<path d="M4.35485 19.1129C2.87876 19.1129 1.66001 18.0113 1.47573 16.5854C1.44901 16.3788 1.54833 16.1763 1.73431 16.0825C1.95708 15.9701 2.28081 15.7806 2.59077 15.504C2.93595 15.1961 3.13845 14.8713 3.25282 14.6329C3.35132 14.4275 3.57772 14.3114 3.79839 14.3677C5.50206 14.8023 6.66192 15.6886 7.08274 16.0505C7.19571 16.1476 7.26081 16.2909 7.24921 16.4395C7.13196 17.9354 5.88093 19.1129 4.35485 19.1129Z" fill="#F0C087"/>
<path d="M7.08267 16.0504C6.66191 15.6885 5.50199 14.8022 3.79831 14.3677C3.57765 14.3114 3.35124 14.4275 3.25275 14.6328C3.16615 14.8134 3.023 15.0434 2.8106 15.2783C2.81054 15.2789 2.81037 15.2793 2.81031 15.2799C2.74439 15.3546 2.67419 15.4295 2.59076 15.504C2.28079 15.7806 1.95706 15.9701 1.73429 16.0825C1.54831 16.1763 1.44906 16.3789 1.47572 16.5855C1.64124 17.8661 2.64331 18.8854 3.91468 19.0798C3.33537 18.6857 2.90324 18.1437 2.90324 17.1775V16.4875C3.01316 16.4063 3.12384 16.3254 3.23505 16.2261C3.504 15.9861 3.73878 15.7086 3.92705 15.4098C5.23035 15.8165 6.11394 16.4939 6.44892 16.7819C6.54062 16.8623 6.7682 17.0721 7.03445 17.3218C7.149 17.0462 7.22476 16.7504 7.24908 16.4395C7.26074 16.2909 7.19564 16.1476 7.08267 16.0504Z" fill="#E6AF78"/>
<path d="M0.294961 21.6714C0.108574 21.9188 0 22.2223 0 22.5436V25.4031C0 25.6704 0.216621 25.887 0.483867 25.887H1.93547V23.4489C1.93547 23.155 1.80182 22.8769 1.57225 22.6932L0.294961 21.6714Z" fill="#C7CFE2"/>
<path d="M21.9517 20.5851L17.9032 19.1128L15 20.0806L12.0968 19.1129L8.04823 20.5851C7.28335 20.8633 6.77417 21.5902 6.77417 22.404V25.4032C6.77417 25.6704 6.99079 25.8871 7.25804 25.8871H22.7419C23.0091 25.8871 23.2258 25.6704 23.2258 25.4032V22.404C23.2258 21.5901 22.7167 20.8632 21.9517 20.5851Z" fill="#FF507D"/>
<path d="M14.4931 21.0484L14.0322 25.887H15.9677L15.5069 21.0484H14.4931Z" fill="#707487"/>
<path d="M15.5081 21.7131H14.4921C14.305 21.7131 14.1533 21.5615 14.1533 21.3744V20.0806H15.8467V21.3744C15.8468 21.5614 15.6952 21.7131 15.5081 21.7131Z" fill="#5B5D6E"/>
<path d="M22.7049 21.0853C23.0316 21.4359 23.2257 21.903 23.2257 22.404V25.4032C23.2257 25.6704 23.0091 25.887 22.7418 25.887H20.3225V24.2694C20.3225 23.756 20.5264 23.2637 20.8894 22.9008L22.7049 21.0853Z" fill="#D23C69"/>
<path d="M20.3227 9.13413V5.08062C20.3227 4.54613 19.8894 4.11288 19.355 4.11288H13.5485C11.4106 4.11288 9.67749 5.84597 9.67749 7.98388V9.13413C9.67749 9.65421 9.76134 10.1709 9.92581 10.6643L10.0869 11.1475C10.1362 11.2955 10.1614 11.4505 10.1614 11.6065V11.8548H19.8388V11.6065C19.8388 11.4505 19.8639 11.2955 19.9132 11.1475L20.0743 10.6643C20.2388 10.1708 20.3227 9.65415 20.3227 9.13413Z" fill="#5A4146"/>
<path d="M12.0967 6.07859C12.0967 7.16421 12.9768 8.04429 14.0624 8.04429H14.3346L14.4659 11.8548H19.8386V11.6064C19.8386 11.4504 19.8637 11.2954 19.913 11.1474L20.0741 10.6642C20.2386 10.1708 20.3224 9.65415 20.3224 9.13408V5.08062C20.3224 4.54613 19.8891 4.11288 19.3547 4.11288H14.0624C12.9768 4.11288 12.0967 4.99296 12.0967 6.07859Z" fill="#694B4B"/>
<path d="M17.9033 15.726H12.0967V20.0807H17.9033V15.726Z" fill="#E6AF78"/>
<path d="M12.0967 17.3619C12.9515 17.8571 13.9411 18.1451 14.9999 18.1451C16.0588 18.1451 17.0484 17.8571 17.9031 17.3619V15.7257H12.0967L12.0967 17.3619Z" fill="#D29B6E"/>
<path d="M15.0001 20.0806L13.4568 21.6239C13.2494 21.8313 12.9066 21.8079 12.7293 21.5742L11.1292 19.4658L11.5477 18.5838C11.6712 18.3235 11.9933 18.2281 12.2386 18.3793L15.0001 20.0806Z" fill="#D23C69"/>
<path d="M15 20.0806L16.5432 21.6239C16.7507 21.8313 17.0935 21.8079 17.2708 21.5742L18.8709 19.4658L18.4524 18.5838C18.3289 18.3235 18.0067 18.2281 17.7615 18.3793L15 20.0806Z" fill="#D23C69"/>
<path d="M15.0001 17.1774C12.3278 17.1774 10.1614 15.011 10.1614 12.3387V11.7718C10.1614 11.5151 10.2633 11.269 10.4448 11.0875L10.8456 10.6866C11.0271 10.5052 11.1291 10.259 11.1291 10.0023V8.84239C11.1291 8.61833 11.2795 8.42368 11.4975 8.37217C12.6419 8.10188 16.2031 7.46163 18.6266 9.24405C18.784 9.35977 18.871 9.54991 18.871 9.74526V10.0023C18.871 10.259 18.9729 10.5051 19.1544 10.6866L19.5552 11.0875C19.7367 11.2689 19.8387 11.5151 19.8387 11.7718V12.3387C19.8388 15.011 17.6725 17.1774 15.0001 17.1774Z" fill="#F0C087"/>
<path d="M18.6267 9.24409C16.9222 7.99048 14.658 7.93622 13.0646 8.10784C12.3925 8.18021 11.8372 8.29206 11.4977 8.37222C11.2796 8.42372 11.1292 8.61837 11.1292 8.84243V10.0023C11.1292 10.259 11.0272 10.5051 10.8457 10.6867L10.4449 11.0875C10.2633 11.269 10.1614 11.5152 10.1614 11.7719V12.3387C10.1614 14.8128 12.0194 16.8496 14.4154 17.1387C13.5805 16.2692 13.0646 15.091 13.0646 13.7903V10.2535C13.0646 9.76317 13.4292 9.35337 13.9157 9.29237C15.0769 9.14677 17.2038 9.05923 18.871 10.0024V9.7453C18.8711 9.54995 18.7839 9.35976 18.6267 9.24409Z" fill="#E6AF78"/>
<path d="M7.29501 21.0853C6.96829 21.4359 6.77417 21.903 6.77417 22.404V25.4032C6.77417 25.6704 6.99079 25.887 7.25804 25.887H9.67737V24.2694C9.67737 23.756 9.47347 23.2637 9.11048 22.9008L7.29501 21.0853Z" fill="#D23C69"/>
</g>
<defs>
<clipPath id="clip0_1799_174">
<rect width="30" height="30" fill="white"/>
</clipPath>
</defs>
</svg>
