<svg width="30" height="30" viewBox="0 0 30 30" fill="none" xmlns="http://www.w3.org/2000/svg">
<path d="M14.9999 0C8.6167 0 3.42358 5.19312 3.42358 11.5763C3.42358 13.7805 4.02423 16.1206 5.20876 18.5315C6.14802 20.4433 7.45537 22.4052 9.09453 24.3629C11.8772 27.6864 14.6157 29.8188 14.7309 29.9081C14.8101 29.9693 14.9051 29.9999 14.9999 29.9999C15.0948 29.9999 15.1898 29.9693 15.2689 29.9081C15.3842 29.8189 18.1226 27.6864 20.9053 24.3629C22.5444 22.4052 23.8518 20.4432 24.7911 18.5315C25.9756 16.1206 26.5762 13.7805 26.5762 11.5763C26.5762 5.19312 21.3831 0 14.9999 0ZM14.9999 7.57402C17.2067 7.57402 19.0022 9.36939 19.0022 11.5763C19.0022 13.7831 17.2068 15.5785 14.9999 15.5785C12.793 15.5785 10.9977 13.7832 10.9977 11.5763C10.9977 9.36939 12.793 7.57402 14.9999 7.57402Z" fill="#FF4A4A"/>
<path d="M15 0C14.5656 0 14.137 0.0248438 13.7148 0.0717189C19.4954 0.713146 24.006 5.62747 24.006 11.5763C24.006 13.7805 23.4054 16.1206 22.2209 18.5316C21.2816 20.4433 19.9743 22.4053 18.3351 24.3629C16.5497 26.4953 14.7827 28.1372 13.7148 29.064C14.3113 29.5816 14.6897 29.8761 14.731 29.9081C14.8101 29.9693 14.9051 29.9999 15 29.9999C15.0948 29.9999 15.1898 29.9693 15.269 29.9081C15.3842 29.8189 18.1227 27.6864 20.9054 24.3629C22.5445 22.4052 23.8519 20.4432 24.7911 18.5315C25.9757 16.1206 26.5763 13.7805 26.5763 11.5763C26.5763 5.19312 21.3832 0 15 0Z" fill="#E7343F"/>
</svg>
