<svg width="30" height="30" viewBox="0 0 30 30" fill="none" xmlns="http://www.w3.org/2000/svg">
<g clip-path="url(#clip0_1799_230)">
<path d="M29.6348 25.2901H6.04096L3.16951 5.12666C3.13811 4.90693 3.30832 4.71017 3.53045 4.71017H26.4628C26.6421 4.71017 26.7947 4.84055 26.8231 5.01744L27.2221 7.51582L29.9952 24.8676C30.0308 25.0891 29.8594 25.2901 29.6348 25.2901Z" fill="#4C60E1"/>
<path d="M27.2221 7.51582L24.7206 25.0789C24.7104 25.1519 24.6929 25.2226 24.6681 25.2902H6.04096L3.16951 5.12666C3.13811 4.90693 3.30832 4.71017 3.53045 4.71017H26.4628C26.6421 4.71017 26.7947 4.84055 26.8231 5.01744L27.2221 7.51582Z" fill="#364EC6"/>
<path d="M26.8309 5.1265L24.004 24.9768C23.9784 25.1567 23.8242 25.2904 23.6424 25.2904H0.365244C0.140596 25.2904 -0.030791 25.0895 0.00465825 24.8676L3.17675 5.0174C3.20505 4.84021 3.35792 4.70984 3.53733 4.70984H26.4694C26.6917 4.70984 26.8623 4.9066 26.8309 5.1265Z" fill="#43A3F9"/>
<path d="M26.831 5.1265L24.004 24.9768C23.9784 25.1567 23.8243 25.2904 23.6425 25.2904H9.98999C10.2864 25.12 10.6169 24.9417 10.9832 24.7542C21.2438 19.5087 23.1176 8.07974 23.4506 4.70984H26.4696C26.6917 4.70984 26.8624 4.9066 26.831 5.1265Z" fill="#1685FB"/>
<path d="M26.8335 5.1007C26.8323 5.10914 26.8317 5.11758 26.8305 5.12666L26.3451 8.53775H2.61426L3.17682 5.01744C3.20518 4.84055 3.35793 4.71017 3.53717 4.71017H26.4695C26.5841 4.71017 26.685 4.76267 26.752 4.84359C26.7525 4.84359 26.752 4.84418 26.752 4.84418C26.8087 4.91355 26.8401 5.00414 26.8335 5.1007Z" fill="#E3F4FF"/>
<path d="M26.8336 5.10071C26.8336 5.10915 26.8324 5.11758 26.8312 5.12667L26.3453 8.53776H22.802C23.1871 6.90557 23.3676 5.55463 23.4509 4.71018V4.70959H26.4696C26.5849 4.70959 26.6857 4.76209 26.7521 4.8436C26.7527 4.8436 26.7521 4.84418 26.7521 4.84418C26.8095 4.91356 26.8408 5.00415 26.8336 5.10071Z" fill="#BDDFF4"/>
<path d="M7.72451 12.3757H4.98309C4.76055 12.3757 4.59063 12.1768 4.62537 11.957L4.73225 11.2802C4.76002 11.1042 4.91178 10.9745 5.08996 10.9745H7.82969C8.05188 10.9745 8.22168 11.1728 8.18758 11.3923L8.0824 12.0691C8.05504 12.2456 7.90311 12.3757 7.72451 12.3757Z" fill="#BDDFF4"/>
<path d="M10.6055 15.1453H10.0137C9.76365 15.1453 9.56104 14.9426 9.56104 14.6926C9.56104 14.4425 9.76371 14.2399 10.0137 14.2399H10.6055C10.8556 14.2399 11.0582 14.4425 11.0582 14.6926C11.0582 14.9426 10.8555 15.1453 10.6055 15.1453Z" fill="#FC3E81"/>
<path d="M13.5486 15.1453H12.9568C12.7068 15.1453 12.5042 14.9426 12.5042 14.6926C12.5042 14.4425 12.7068 14.2399 12.9568 14.2399H13.5486C13.7987 14.2399 14.0013 14.4425 14.0013 14.6926C14.0013 14.9426 13.7988 15.1453 13.5486 15.1453Z" fill="#E3F4FF"/>
<path d="M16.4918 15.1453H15.9C15.6499 15.1453 15.4473 14.9426 15.4473 14.6926C15.4473 14.4425 15.6499 14.2399 15.9 14.2399H16.4918C16.7418 14.2399 16.9445 14.4425 16.9445 14.6926C16.9445 14.9426 16.7418 15.1453 16.4918 15.1453Z" fill="#E3F4FF"/>
<path d="M19.4351 15.1453H18.8433C18.5932 15.1453 18.3906 14.9426 18.3906 14.6926C18.3906 14.4425 18.5933 14.2399 18.8433 14.2399H19.4351C19.6852 14.2399 19.8878 14.4425 19.8878 14.6926C19.8878 14.9426 19.6851 15.1453 19.4351 15.1453Z" fill="#E3F4FF"/>
<path d="M22.3782 15.1453H21.7864C21.5364 15.1453 21.3337 14.9426 21.3337 14.6926C21.3337 14.4425 21.5364 14.2399 21.7864 14.2399H22.3782C22.6283 14.2399 22.8309 14.4425 22.8309 14.6926C22.8309 14.9426 22.6283 15.1453 22.3782 15.1453Z" fill="#BDDFF4"/>
<path d="M10.2408 17.5254H9.64801C9.39793 17.5254 9.19531 17.3227 9.19531 17.0727C9.19531 16.8226 9.39799 16.62 9.64801 16.62H10.2409C10.4909 16.62 10.6936 16.8227 10.6936 17.0727C10.6936 17.3228 10.4909 17.5254 10.2408 17.5254Z" fill="#FC3E81"/>
<path d="M13.189 17.5254H12.5962C12.3462 17.5254 12.1436 17.3227 12.1436 17.0727C12.1436 16.8226 12.3462 16.62 12.5962 16.62H13.189C13.4391 16.62 13.6417 16.8227 13.6417 17.0727C13.6417 17.3228 13.4391 17.5254 13.189 17.5254Z" fill="#E3F4FF"/>
<path d="M16.1373 17.5254H15.5445C15.2944 17.5254 15.0918 17.3227 15.0918 17.0727C15.0918 16.8226 15.2945 16.62 15.5445 16.62H16.1373C16.3874 16.62 16.59 16.8227 16.59 17.0727C16.59 17.3228 16.3873 17.5254 16.1373 17.5254Z" fill="#E3F4FF"/>
<path d="M19.5379 17.0724C19.5379 17.3229 19.3357 17.5251 19.0852 17.5251H18.4925C18.2426 17.5251 18.0398 17.3229 18.0398 17.0724C18.0398 16.8225 18.2426 16.6197 18.4925 16.6197H19.0852C19.241 16.6197 19.378 16.6982 19.4595 16.8177C19.509 16.8901 19.5379 16.9776 19.5379 17.0724Z" fill="#E3F4FF"/>
<path d="M22.0338 17.5254H21.441C21.1909 17.5254 20.9883 17.3228 20.9883 17.0728C20.9883 16.8227 21.191 16.6201 21.441 16.6201H22.0338C22.2838 16.6201 22.4865 16.8227 22.4865 17.0728C22.4865 17.3228 22.2838 17.5254 22.0338 17.5254Z" fill="#BDDFF4"/>
<path d="M9.87491 19.9138H9.28106C9.03099 19.9138 8.82837 19.7112 8.82837 19.4611C8.82837 19.2111 9.03104 19.0085 9.28106 19.0085H9.87491C10.125 19.0085 10.3276 19.2111 10.3276 19.4611C10.3276 19.7112 10.1249 19.9138 9.87491 19.9138Z" fill="#FC3E81"/>
<path d="M12.8283 19.9138H12.2344C11.9844 19.9138 11.7817 19.7112 11.7817 19.4611C11.7817 19.2111 11.9844 19.0085 12.2344 19.0085H12.8283C13.0784 19.0085 13.281 19.2111 13.281 19.4611C13.281 19.7112 13.0782 19.9138 12.8283 19.9138Z" fill="#E3F4FF"/>
<path d="M15.7816 19.9139H15.1878C14.9377 19.9139 14.7351 19.7112 14.7351 19.4612C14.7351 19.2111 14.9378 19.0085 15.1878 19.0085H15.7816C16.0317 19.0085 16.2343 19.2112 16.2343 19.4612C16.2344 19.7112 16.0317 19.9139 15.7816 19.9139Z" fill="#E3F4FF"/>
<path d="M18.735 19.9139H18.1412C17.8911 19.9139 17.6885 19.7112 17.6885 19.4612C17.6885 19.2111 17.8912 19.0085 18.1412 19.0085H18.735C18.9851 19.0085 19.1877 19.2112 19.1877 19.4612C19.1877 19.7112 18.9852 19.9139 18.735 19.9139Z" fill="#BDDFF4"/>
<path d="M21.6884 19.9139H21.0945C20.8445 19.9139 20.6418 19.7112 20.6418 19.4612C20.6418 19.2111 20.8445 19.0085 21.0945 19.0085H21.6884C21.9385 19.0085 22.1411 19.2112 22.1411 19.4612C22.1411 19.7112 21.9384 19.9139 21.6884 19.9139Z" fill="#BDDFF4"/>
<path d="M9.50756 22.3107H8.91266C8.66258 22.3107 8.45996 22.108 8.45996 21.858C8.45996 21.6079 8.66264 21.4053 8.91266 21.4053H9.50756C9.75764 21.4053 9.96025 21.608 9.96025 21.858C9.96031 22.108 9.75764 22.3107 9.50756 22.3107Z" fill="#FC3E81"/>
<path d="M12.4661 22.3107H11.8712C11.6211 22.3107 11.4185 22.108 11.4185 21.858C11.4185 21.6079 11.6211 21.4053 11.8712 21.4053H12.4661C12.7161 21.4053 12.9188 21.608 12.9188 21.858C12.9188 22.108 12.7161 22.3107 12.4661 22.3107Z" fill="#E3F4FF"/>
<path d="M15.8772 21.8579C15.8772 22.1078 15.6743 22.3106 15.4245 22.3106H14.83C14.7956 22.3106 14.7623 22.307 14.7303 22.2991C14.5281 22.2539 14.3772 22.0734 14.3772 21.8579C14.3772 21.608 14.58 21.4052 14.8299 21.4052H15.4244C15.515 21.4052 15.5989 21.4317 15.6695 21.4776C15.7945 21.5579 15.8772 21.6986 15.8772 21.8579Z" fill="#E3F4FF"/>
<path d="M18.383 22.3107H17.7881C17.5381 22.3107 17.3354 22.108 17.3354 21.858C17.3354 21.6079 17.5381 21.4053 17.7881 21.4053H18.383C18.6331 21.4053 18.8357 21.608 18.8357 21.858C18.8357 22.108 18.633 22.3107 18.383 22.3107Z" fill="#BDDFF4"/>
<path d="M21.3415 22.3107H20.7466C20.4966 22.3107 20.2939 22.108 20.2939 21.858C20.2939 21.6079 20.4966 21.4053 20.7466 21.4053H21.3415C21.5916 21.4053 21.7942 21.608 21.7942 21.858C21.7942 22.108 21.5915 22.3107 21.3415 22.3107Z" fill="#BDDFF4"/>
<path d="M4.61178 17.23C4.5884 17.23 4.56467 17.2282 4.54089 17.2244C4.29391 17.1855 4.12516 16.9538 4.16401 16.7068L4.39188 15.259C4.43079 15.012 4.66276 14.8438 4.9095 14.8821C5.15647 14.921 5.32522 15.1527 5.28637 15.3997L5.0585 16.8476C5.02335 17.0707 4.83075 17.23 4.61178 17.23Z" fill="#E3F4FF"/>
<path d="M5.79073 17.23C5.76753 17.23 5.74391 17.2282 5.72024 17.2245C5.47321 17.1858 5.30429 16.9542 5.3429 16.7072L5.56948 15.2594C5.60815 15.0124 5.83954 14.8435 6.08675 14.882C6.33378 14.9207 6.5027 15.1523 6.46409 15.3993L6.23751 16.8472C6.20259 17.0706 6.00993 17.23 5.79073 17.23Z" fill="#E3F4FF"/>
<path d="M3.84909 22.0757C3.82571 22.0757 3.80204 22.0739 3.77819 22.0701C3.53122 22.0312 3.36247 21.7995 3.40132 21.5525L3.63083 20.0945C3.66967 19.8475 3.90112 19.6794 4.14844 19.7176C4.39542 19.7565 4.56417 19.9882 4.52532 20.2352L4.29581 21.6933C4.26071 21.9164 4.06811 22.0757 3.84909 22.0757Z" fill="#E3F4FF"/>
<path d="M5.03243 22.0757C5.00923 22.0757 4.98561 22.074 4.96194 22.0702C4.71491 22.0315 4.54599 21.7999 4.5846 21.5529L4.81276 20.0949C4.85143 19.8479 5.083 19.6791 5.33003 19.7176C5.57706 19.7562 5.74598 19.9878 5.70737 20.2348L5.47921 21.6929C5.44423 21.9162 5.25157 22.0757 5.03243 22.0757Z" fill="#E3F4FF"/>
<path d="M6.23516 18.7938H3.74176C3.49168 18.7938 3.28906 18.5911 3.28906 18.3411C3.28906 18.091 3.49174 17.8884 3.74176 17.8884H6.23516C6.48523 17.8884 6.68785 18.091 6.68785 18.3411C6.68785 18.5911 6.48523 18.7938 6.23516 18.7938Z" fill="#E3F4FF"/>
<path d="M15.8513 21.6568C15.8513 21.8994 15.6544 22.0963 15.4119 22.0963H14.8347C14.8013 22.0963 14.7691 22.0928 14.738 22.0852C15.0533 21.8256 15.3574 21.5596 15.6498 21.2877C15.771 21.3656 15.8513 21.5021 15.8513 21.6568Z" fill="#BDDFF4"/>
<path d="M19.4049 17.0115C19.4049 17.2547 19.2086 17.451 18.9655 17.451H18.8899C19.0417 17.223 19.1875 16.9939 19.3288 16.7643C19.3768 16.8346 19.4049 16.9195 19.4049 17.0115Z" fill="#BDDFF4"/>
</g>
<defs>
<clipPath id="clip0_1799_230">
<rect width="30" height="30" fill="white"/>
</clipPath>
</defs>
</svg>
