<svg width="50" height="50" viewBox="0 0 50 50" fill="none" xmlns="http://www.w3.org/2000/svg">
<g clip-path="url(#clip0_2176_707)">
<path d="M15.6218 45.8333H12.2885V29.1666L15.6218 30.8333V45.8333Z" fill="#5A6470"/>
<path d="M8.95508 45.8334H18.9551V49.1667H8.95508V45.8334Z" fill="#7D8D9C"/>
<path d="M33.9551 45.8333H37.2884V29.1666L33.9551 30.8333V45.8333Z" fill="#5A6470"/>
<path d="M40.6217 49.1667H30.6217V45.8334H40.6217V49.1667Z" fill="#7D8D9C"/>
<path d="M28.1217 4.16671H21.4551L22.2884 0.833374H27.2884L28.1217 4.16671Z" fill="#DD3E46"/>
<path d="M15.6218 4.16663H33.9551C35.7959 4.16663 37.2885 5.65914 37.2885 7.49996V32.5C37.2885 37.1024 33.5576 40.8333 28.9551 40.8333H20.6218C16.0193 40.8333 12.2885 37.1024 12.2885 32.5V7.49996C12.2885 5.65914 13.7806 4.16663 15.6218 4.16663Z" fill="#E1462B"/>
<path d="M15.6218 4.16663H33.9551C35.7959 4.16663 37.2885 5.65914 37.2885 7.49996V14.1666H12.2885V7.49996C12.2885 5.65914 13.7806 4.16663 15.6218 4.16663Z" fill="#FFD782"/>
<path d="M26.455 9.16667C26.455 10.0871 25.7088 10.8333 24.7884 10.8333C23.868 10.8333 23.1217 10.0871 23.1217 9.16667C23.1217 8.24626 23.868 7.5 24.7884 7.5C25.7088 7.5 26.455 8.24626 26.455 9.16667Z" fill="#E1462B"/>
<path d="M8.95508 14.1666H12.2884V20.8333H8.95508V14.1666Z" fill="#5A6470"/>
<path d="M37.2885 10H40.6218V15H37.2885V10Z" fill="#5A6470"/>
<path d="M17.2885 17.5H32.2885V24.1667H17.2885V17.5Z" fill="#FFF69A"/>
<path d="M19.7885 20H21.4551V21.6667H19.7885V20Z" fill="#E97424"/>
<path d="M23.1218 20H26.4552V21.6667H23.1218V20Z" fill="#E97424"/>
<path d="M28.1218 20H29.7885V21.6667H28.1218V20Z" fill="#E97424"/>
<path d="M16.4551 10.8333H14.7885V7.49996C14.7885 7.03975 15.1616 6.66663 15.6218 6.66663H18.1218V8.33329H16.4551V10.8333Z" fill="#E97424"/>
<path d="M22.2885 40.8334H27.2885V44.1667H22.2885V40.8334Z" fill="#FFD782"/>
<path d="M17.2885 1.66663H18.9551V4.16663H17.2885V1.66663Z" fill="#195C85"/>
<path d="M30.6217 1.66663H32.2884V4.16663H30.6217V1.66663Z" fill="#195C85"/>
<path d="M45.6218 0.833374V20.8334C45.6218 21.7538 44.8755 22.5 43.9551 22.5H37.2885V25.8334H43.9551C46.7164 25.8334 48.9551 23.5946 48.9551 20.8334V0.833374H45.6218Z" fill="#E97424"/>
<path d="M9.19918 6.42249L7.28837 4.51168L6.2109 5.58915C5.9106 5.88944 5.4325 5.9163 5.10087 5.65059L0.934204 2.31726L1.97587 1.01599L5.55904 3.88342L6.69836 2.7441C7.02389 2.41899 7.55123 2.41899 7.87675 2.7441L10.3768 5.2441L9.19918 6.42249Z" fill="#E1462B"/>
<path d="M4.78841 10.8334C4.68262 10.8334 4.57764 10.8134 4.47917 10.7744L0.3125 9.10769L0.93099 7.55903L4.5874 9.02184L5.86589 7.74417C6.11939 7.49067 6.50675 7.42719 6.82739 7.58751L10.1607 9.25418L9.41569 10.7459L6.6215 9.34736L5.38005 10.5892C5.22298 10.7463 5.01017 10.8342 4.78841 10.8334Z" fill="#E1462B"/>
<path d="M24.7885 6.66663C23.4078 6.66663 22.2885 7.78601 22.2885 9.16663C22.2885 10.5472 23.4078 11.6666 24.7885 11.6666C26.1691 11.6666 27.2885 10.5472 27.2885 9.16663C27.2885 7.78601 26.1691 6.66663 24.7885 6.66663ZM24.7885 9.99996C24.3282 9.99996 23.9551 9.62683 23.9551 9.16663C23.9551 8.70642 24.3282 8.33329 24.7885 8.33329C25.2487 8.33329 25.6218 8.70642 25.6218 9.16663C25.6218 9.62683 25.2487 9.99996 24.7885 9.99996Z" fill="#222222"/>
<path d="M32.2884 16.6666H17.2884C16.8282 16.6666 16.4551 17.0398 16.4551 17.5V24.1666C16.4551 24.6268 16.8282 25 17.2884 25H32.2884C32.7486 25 33.1217 24.6268 33.1217 24.1666V17.5C33.1217 17.0398 32.7486 16.6666 32.2884 16.6666ZM31.4551 23.3333H18.1217V18.3333H31.4551V23.3333Z" fill="#222222"/>
<path d="M19.7885 20H21.4551V21.6667H19.7885V20Z" fill="#222222"/>
<path d="M23.1217 20H26.455V21.6667H23.1217V20Z" fill="#222222"/>
<path d="M28.1217 20H29.7884V21.6667H28.1217V20Z" fill="#222222"/>
<path d="M14.7885 7.49996V10.8333H16.4551V8.33329H18.1218V6.66663H15.6218C15.1616 6.66663 14.7885 7.03975 14.7885 7.49996Z" fill="#222222"/>
<path d="M48.955 0H45.6217C45.1615 0 44.7884 0.373128 44.7884 0.833333V20.8333C44.7884 21.2935 44.4152 21.6667 43.955 21.6667H38.1217V15.8333H40.6217C41.0819 15.8333 41.455 15.4602 41.455 15V10C41.455 9.53979 41.0819 9.16667 40.6217 9.16667H38.1217V7.5C38.1189 5.19979 36.2548 3.33618 33.955 3.33333H32.2884V1.66667H30.6217V3.33333H28.7715L28.0965 0.63151C28.0041 0.260417 27.6709 0 27.2884 0H22.2884C21.9059 0 21.5726 0.260417 21.4799 0.63151L20.8048 3.33333H18.955V1.66667H17.2884V3.33333H15.6217C13.3215 3.33618 11.4579 5.19979 11.455 7.5V13.3333H8.95504C8.49483 13.3333 8.1217 13.7065 8.1217 14.1667V20.8333C8.1217 21.2935 8.49483 21.6667 8.95504 21.6667H11.455V45H8.95504C8.49483 45 8.1217 45.3731 8.1217 45.8333V49.1667C8.1217 49.6269 8.49483 50 8.95504 50H18.955C19.4152 50 19.7884 49.6269 19.7884 49.1667V45.8333C19.7884 45.3731 19.4152 45 18.955 45H16.455V40.6551C17.7437 41.3192 19.1719 41.6659 20.6217 41.6667H21.455V44.1667C21.455 44.6269 21.8282 45 22.2884 45H27.2884C27.7486 45 28.1217 44.6269 28.1217 44.1667V41.6667H28.955C30.4044 41.6659 31.8331 41.3192 33.1217 40.6551V45H30.6217C30.1615 45 29.7884 45.3731 29.7884 45.8333V49.1667C29.7884 49.6269 30.1615 50 30.6217 50H40.6217C41.0819 50 41.455 49.6269 41.455 49.1667V45.8333C41.455 45.3731 41.0819 45 40.6217 45H38.1217V26.6667H43.955C47.1749 26.6626 49.7843 24.0531 49.7884 20.8333V0.833333C49.7884 0.373128 49.4152 0 48.955 0ZM39.7884 10.8333V14.1667H38.1217V10.8333H39.7884ZM22.939 1.66667H26.6373L27.054 3.33333H22.5223L22.939 1.66667ZM13.1217 7.5C13.1217 6.11938 14.2411 5 15.6217 5H33.955C35.3357 5 36.455 6.11938 36.455 7.5V13.3333H13.1217V7.5ZM9.78837 20V15H11.455V20H9.78837ZM18.1217 48.3333H9.78837V46.6667H18.1217V48.3333ZM14.7884 45H13.1217V37.7543C13.5941 38.4298 14.1544 39.0389 14.7884 39.5658V45ZM26.455 43.3333H23.1217V41.6667H26.455V43.3333ZM39.7884 48.3333H31.455V46.6667H39.7884V48.3333ZM36.455 45H34.7884V39.5658C35.4219 39.0389 35.9826 38.4298 36.455 37.7543V45ZM36.455 32.5C36.4506 36.6402 33.0953 39.9955 28.955 40H20.6217C16.4815 39.9955 13.1262 36.6402 13.1217 32.5V15H36.455V32.5ZM48.1217 20.8333C48.1189 23.1335 46.2548 24.9972 43.955 25H38.1217V23.3333H43.955C45.3357 23.3333 46.455 22.2139 46.455 20.8333V1.66667H48.1217V20.8333Z" fill="#222222"/>
<path d="M6.2109 5.58915L7.28837 4.51168L9.19918 6.42249L10.3776 5.2441L7.87756 2.7441C7.55204 2.41899 7.0247 2.41899 6.69918 2.7441L5.55986 3.88342L1.97668 1.01599L0.934204 2.31726L5.10087 5.65059C5.4325 5.9163 5.9106 5.88944 6.2109 5.58915Z" fill="#222222"/>
<path d="M0.3125 9.10772L4.47917 10.7744C4.78882 10.8977 5.14201 10.8248 5.3776 10.5892L6.61906 9.34738L9.41569 10.75L10.1607 9.25827L6.82739 7.5916C6.50675 7.43169 6.11939 7.49476 5.86589 7.74826L4.5874 9.02186L0.93099 7.55905L0.3125 9.10772Z" fill="#222222"/>
</g>
<defs>
<clipPath id="clip0_2176_707">
<rect width="50" height="50" fill="white"/>
</clipPath>
</defs>
</svg>
