<svg width="50" height="50" viewBox="0 0 50 50" fill="none" xmlns="http://www.w3.org/2000/svg">
<g clip-path="url(#clip0_5286_45)">
<path d="M45.6055 0H4.39453C1.97139 0 0 1.97139 0 4.39453V45.6055C0 48.0286 1.97139 50 4.39453 50H45.6055C48.0286 50 50 48.0286 50 45.6055V4.39453C50 1.97139 48.0286 0 45.6055 0ZM2.92969 4.39453C2.92969 3.58682 3.58682 2.92969 4.39453 2.92969H45.6055C46.4132 2.92969 47.0703 3.58682 47.0703 4.39453V11.9141H2.92969V4.39453ZM47.0703 45.6055C47.0703 46.4132 46.4132 47.0703 45.6055 47.0703H4.39453C3.58682 47.0703 2.92969 46.4132 2.92969 45.6055V14.8438H47.0703V45.6055Z" fill="#1E538F"/>
<path d="M7.32422 44.1406H42.6758C43.4848 44.1406 44.1406 43.4848 44.1406 42.6758V19.2383C44.1406 18.4293 43.4848 17.7734 42.6758 17.7734H7.32422C6.51523 17.7734 5.85938 18.4293 5.85938 19.2383V42.6758C5.85938 43.4848 6.51523 44.1406 7.32422 44.1406ZM8.78906 36.3281H12.0217C12.3142 38.0382 12.9133 39.616 13.7786 40.9141C13.8462 41.0155 13.9154 41.114 13.9854 41.2109H8.78906V36.3281ZM30.8594 41.2109C28.9881 41.2109 27.3454 39.1405 26.7268 36.3281H34.9919C34.3733 39.1405 32.7307 41.2109 30.8594 41.2109ZM20.8674 36.3281H23.7403C24.0328 38.0382 24.6319 39.616 25.4973 40.9141C25.5451 40.9858 25.5937 41.0562 25.6428 41.1258C25.4303 41.1822 25.2158 41.2109 25 41.2109C23.1287 41.2109 21.486 39.1405 20.8674 36.3281ZM26.4763 33.3984C26.633 29.6456 28.5757 26.5625 30.8594 26.5625C33.1431 26.5625 35.0857 29.6456 35.2425 33.3984H26.4763ZM25.4974 26.8594C24.3104 28.6396 23.6238 30.9458 23.5433 33.3984H20.6169C20.7736 29.6456 22.7163 26.5625 25 26.5625C25.2158 26.5625 25.4303 26.5912 25.6429 26.6477C25.5938 26.7172 25.5452 26.7876 25.4974 26.8594ZM19.638 26.8594C18.4511 28.6396 17.7645 30.9458 17.6839 33.3984H14.7575C14.9143 29.6456 16.8569 26.5625 19.1406 26.5625C19.3564 26.5625 19.5709 26.5912 19.7835 26.6477C19.7344 26.7172 19.6858 26.7876 19.638 26.8594ZM17.8811 36.3281C18.1735 38.0382 18.7727 39.616 19.638 40.9141C19.6858 40.9858 19.7344 41.0562 19.7835 41.1258C19.5709 41.1822 19.3564 41.2109 19.1406 41.2109C17.2693 41.2109 15.6267 39.1405 15.008 36.3281H17.8811ZM36.0146 41.2109C36.0846 41.114 36.1538 41.0154 36.2214 40.9141C37.0867 39.616 37.6858 38.0382 37.9783 36.3281H41.2109V41.2109H36.0146ZM41.2109 20.7031V33.3984H38.1755C38.0949 30.9458 37.4082 28.6396 36.2214 26.8594C34.8343 24.7787 32.93 23.6328 30.8594 23.6328C29.8222 23.6328 28.8268 23.9204 27.9171 24.4689C27.0024 23.9198 26.0113 23.6328 25 23.6328C23.9628 23.6328 22.9674 23.9204 22.0577 24.4689C21.1431 23.9198 20.152 23.6328 19.1406 23.6328C17.0699 23.6328 15.1657 24.7787 13.7786 26.8594C12.5917 28.6396 11.9051 30.9458 11.8245 33.3984H8.78906V20.7031H41.2109Z" fill="#1E538F"/>
<path d="M10.2539 5.95703H7.32422C6.51523 5.95703 5.85938 6.61289 5.85938 7.42188C5.85938 8.23086 6.51523 8.88672 7.32422 8.88672H10.2539C11.0629 8.88672 11.7188 8.23086 11.7188 7.42188C11.7188 6.61289 11.0629 5.95703 10.2539 5.95703Z" fill="#1E538F"/>
<path d="M19.043 5.95703H16.1133C15.3043 5.95703 14.6484 6.61289 14.6484 7.42188C14.6484 8.23086 15.3043 8.88672 16.1133 8.88672H19.043C19.852 8.88672 20.5078 8.23086 20.5078 7.42188C20.5078 6.61289 19.852 5.95703 19.043 5.95703Z" fill="#1E538F"/>
</g>
<defs>
<clipPath id="clip0_5286_45">
<rect width="50" height="50" fill="white"/>
</clipPath>
</defs>
</svg>
