<svg width="30" height="30" viewBox="0 0 30 30" fill="none" xmlns="http://www.w3.org/2000/svg">
<path d="M15 29.7059C14.8984 29.7035 14.7983 29.6805 14.7059 29.6382L1.68235 23.6147C1.55412 23.5555 1.44585 23.4603 1.37066 23.3408C1.29548 23.2212 1.25663 23.0824 1.25882 22.9412V18.6118C1.25826 18.488 1.28894 18.3662 1.34801 18.2574C1.40709 18.1487 1.49264 18.0566 1.59675 17.9898C1.70086 17.9229 1.82016 17.8834 1.94361 17.8749C2.06705 17.8664 2.19064 17.8892 2.30293 17.9412L15.3088 23.9647C15.436 24.024 15.5437 24.1182 15.6192 24.2365C15.6947 24.3547 15.735 24.492 15.7353 24.6323V28.9706C15.735 29.0943 15.7036 29.216 15.644 29.3245C15.5844 29.4329 15.4984 29.5246 15.3941 29.5912C15.2766 29.6666 15.1397 29.7065 15 29.7059ZM2.7294 22.4794L14.2647 27.8206V25.1029L2.7294 19.7618V22.4794Z" fill="#01579B"/>
<path d="M15 29.7059C14.9033 29.7063 14.8076 29.6875 14.7182 29.6507C14.6288 29.6139 14.5476 29.5597 14.4792 29.4914C14.4109 29.423 14.3567 29.3418 14.3199 29.2524C14.2831 29.163 14.2643 29.0672 14.2647 28.9706V24.6323C14.2659 24.4903 14.3082 24.3517 14.3865 24.2332C14.4648 24.1148 14.5757 24.0215 14.7059 23.9647L27.6971 17.9412C27.8091 17.8893 27.9325 17.8665 28.0557 17.8749C28.1789 17.8832 28.298 17.9225 28.402 17.989C28.506 18.0555 28.5916 18.1472 28.6509 18.2555C28.7102 18.3638 28.7412 18.4853 28.7412 18.6088V22.9412C28.7418 23.0813 28.7018 23.2186 28.6262 23.3365C28.5505 23.4545 28.4423 23.548 28.3147 23.6059L15.3088 29.6382C15.2118 29.6822 15.1066 29.7053 15 29.7059ZM15.7353 25.1029V27.8206L27.2706 22.4794V19.7618L15.7353 25.1029Z" fill="#01579B"/>
<path d="M15 25.3676C14.898 25.3634 14.7979 25.3384 14.7059 25.2941L1.68528 19.2794C1.55774 19.2205 1.44972 19.1264 1.37401 19.0081C1.29829 18.8898 1.25806 18.7522 1.25806 18.6118C1.25806 18.4713 1.29829 18.3338 1.37401 18.2154C1.44972 18.0971 1.55774 18.003 1.68528 17.9441L9.54705 14.3059C9.70605 14.2315 9.88645 14.2168 10.0554 14.2643C10.2244 14.3118 10.3707 14.4184 10.4676 14.5647C11.1578 15.5956 11.9174 16.5782 12.7412 17.5059C13.5618 18.4412 14.2823 19.1676 14.7441 19.6088L14.8294 19.6912L15 19.8559C15.4412 19.4412 16.3 18.6 17.2647 17.5029C18.0854 16.5728 18.8449 15.5903 19.5382 14.5618C19.6352 14.4155 19.7815 14.3088 19.9504 14.2613C20.1194 14.2138 20.2998 14.2286 20.4588 14.3029L28.3176 17.9412C28.4442 18.0009 28.5512 18.0954 28.6261 18.2136C28.7011 18.3318 28.7409 18.4689 28.7409 18.6088C28.7409 18.7488 28.7011 18.8858 28.6261 19.0041C28.5512 19.1223 28.4442 19.2167 28.3176 19.2765L15.3088 25.2941C15.2123 25.3404 15.107 25.3654 15 25.3676ZM3.74411 18.6029L15 23.8235L26.2559 18.6118L20.4029 15.9C19.7713 16.792 19.0919 17.6491 18.3676 18.4676C17.3412 19.6441 16.4265 20.5265 15.9765 20.95L15.5882 21.3059L15.5294 21.3588L15.4647 21.4147C15.333 21.5232 15.1677 21.5826 14.9971 21.5826C14.8264 21.5826 14.6611 21.5232 14.5294 21.4147L14.4794 21.3706V21.3559C14.4 21.2882 14.1853 21.0853 13.8382 20.7676L13.7471 20.6823C13.2588 20.2088 12.5059 19.4559 11.65 18.4823C10.9255 17.6619 10.2461 16.8028 9.6147 15.9088L3.74411 18.6029Z" fill="#01579B"/>
<path d="M15 21.5824C14.8216 21.5817 14.6494 21.517 14.5147 21.4C13.4972 20.4779 12.5357 19.4957 11.6353 18.4588C9.39118 15.9029 6.71765 12.1147 6.71765 8.56177C6.71765 7.47412 6.93188 6.39711 7.34811 5.39225C7.76434 4.38739 8.37441 3.47435 9.1435 2.70526C9.91258 1.93618 10.8256 1.3261 11.8305 0.909876C12.8353 0.493648 13.9124 0.279419 15 0.279419C16.0877 0.279419 17.1647 0.493648 18.1695 0.909876C19.1744 1.3261 20.0874 1.93618 20.8565 2.70526C21.6256 3.47435 22.2357 4.38739 22.6519 5.39225C23.0681 6.39711 23.2824 7.47412 23.2824 8.56177C23.2824 12.1088 20.6088 15.9147 18.3677 18.4529C17.4661 19.4906 16.5025 20.4728 15.4824 21.3941C15.3499 21.5135 15.1783 21.5804 15 21.5824ZM15 1.76471C13.1941 1.76705 11.4629 2.48546 10.1859 3.76241C8.90899 5.03936 8.19057 6.7706 8.18824 8.57648C8.18824 11.6706 10.6647 15.1382 12.7412 17.5029C13.6588 18.55 14.5059 19.3735 15 19.8559C15.5029 19.3824 16.3441 18.5529 17.2647 17.5029C19.3235 15.15 21.8118 11.6677 21.8118 8.57942C21.8102 6.77303 21.0921 5.04104 19.8151 3.76345C18.5381 2.48587 16.8064 1.76705 15 1.76471Z" fill="#01579B"/>
<path d="M16.287 4.66434C16.1721 4.61435 16.0552 4.57462 15.9375 4.54001V3H14.1875V4.54578C13.3542 4.79764 12.6321 5.3992 12.2604 6.25903C11.9353 7.0097 11.9227 7.84219 12.2237 8.60269C12.5247 9.3634 13.1038 9.96112 13.8739 10.2939L15.5756 10.9831C15.8973 11.1217 16.1458 11.3781 16.2748 11.7041C16.4038 12.0301 16.3983 12.387 16.259 12.7085C16.1199 13.03 15.8636 13.2787 15.5376 13.4077C15.2112 13.5367 14.8551 13.5314 14.5336 13.3919C14.0585 13.1864 13.7509 12.7134 13.7504 12.1871L13.75 11.3121L12 11.3138L12.0004 12.1888C12.0013 13.4124 12.7227 14.5149 13.8384 14.9984C13.9529 15.0479 14.0698 15.0881 14.1879 15.1231V17H15.9379V15.118C16.0197 15.093 16.1016 15.0659 16.1821 15.0338C16.9424 14.7328 17.5401 14.1533 17.865 13.4024C18.1902 12.6517 18.203 11.8196 17.902 11.0591C17.6008 10.2989 17.0216 9.70114 16.2515 9.36789L14.5498 8.67917C14.2281 8.5401 13.9796 8.28375 13.8506 7.95776C13.7216 7.63177 13.7274 7.27481 13.8664 6.95331C14.0055 6.63159 14.2618 6.38315 14.5878 6.25412C14.9134 6.12552 15.2704 6.13065 15.5923 6.26993C16.0603 6.47287 16.375 6.91699 16.375 7.375V8.25H18.125V7.375C18.125 6.21118 17.4036 5.14734 16.287 4.66434Z" fill="#01579B"/>
</svg>
