<svg width="50" height="50" viewBox="0 0 50 50" fill="none" xmlns="http://www.w3.org/2000/svg">
<path d="M7.50001 28.7499H0.833313V38.7499H7.50001V28.7499Z" fill="#78B9EB"/>
<path d="M27.5 14.5831H22.5V17.9164H27.5V14.5831Z" fill="#78B9EB"/>
<path d="M30 14.5831V11.2498H20V14.5831H22.5H27.5H30Z" fill="#0A87EB"/>
<path d="M37.5 11.2498V9.58308C37.5 8.66228 36.7542 7.91638 35.8333 7.91638H14.1667C13.2459 7.91638 12.5 8.66218 12.5 9.58308V11.2498H37.5Z" fill="#ED1C24"/>
<path d="M18.3417 38.7498C21.0942 42.4273 26.3058 43.1773 29.9834 40.4248C30.6183 39.9489 31.1825 39.3847 31.6584 38.7498H35.8334V28.7498H31.6584C31.1917 28.1165 30.6334 27.5581 30.0001 27.0915C29.7343 26.8906 29.4559 26.7073 29.1668 26.5415V21.2498H20.8335V26.5415C20.5443 26.7073 20.266 26.8906 20.0002 27.0915C19.3669 27.5582 18.8085 28.1165 18.3419 28.7498H14.1669V38.7498H18.3417Z" fill="#78B9EB"/>
<path d="M31.6667 21.2498V17.9164H27.5H22.5H18.3333V21.2498H20.8333H29.1667H31.6667Z" fill="#0A87EB"/>
<path d="M10.8333 42.0831H14.1667V38.7498V28.7498V24.5831H10.8333V27.0831V40.4164V42.0831Z" fill="#0A87EB"/>
<path d="M7.5 40.4164H10.8333V27.0831H7.5V28.7498V38.7498V40.4164Z" fill="#0A87EB"/>
<path d="M49.1667 28.7498H42.5V38.7498H49.1667V28.7498Z" fill="#78B9EB"/>
<path d="M35.8333 42.0831H39.1667V40.4164V27.0831V24.5831H35.8333V28.7498V38.7498V42.0831Z" fill="#0A87EB"/>
<path d="M42.5 40.4164V38.7498V28.7498V27.0831H39.1667V40.4164H42.5Z" fill="#0A87EB"/>
<path d="M50 27.9164H43.3333V26.2497H40V23.7497H35V27.9164H32.0658C31.6083 27.3556 31.0825 26.8539 30.5 26.4239C30.3333 26.2989 30.1667 26.1823 30 26.0748V22.0831H32.5V17.0831H28.3333V15.4164H30.8333V12.0831H37.5C37.96 12.0831 38.3333 11.7098 38.3333 11.2498V9.58313C38.3333 8.20227 37.2142 7.08313 35.8333 7.08313H14.1667C12.7858 7.08313 11.6667 8.20227 11.6667 9.58313V11.2498C11.6667 11.7098 12.04 12.0831 12.5 12.0831H19.1667V15.4164H21.6667V17.0831H17.5V22.0831H20V26.0748C19.8333 26.1823 19.6667 26.2973 19.5059 26.4206C18.9209 26.8515 18.3934 27.3539 17.9342 27.9164H15V23.7497H10V26.2497H6.6667V27.9164H0V39.5831H6.6667V41.2498H10V42.9165H15V39.5832H17.9358C21.1492 43.4849 26.9167 44.0424 30.8184 40.829C31.2726 40.4549 31.69 40.0373 32.0642 39.5832H35V42.9165H40V41.2498H43.3333V39.5831H50V27.9164ZM13.3333 10.4164V9.58313C13.3333 9.12317 13.7066 8.74983 14.1666 8.74983H35.8333C36.2933 8.74983 36.6666 9.12317 36.6666 9.58313V10.4164H13.3333ZM20.8333 12.0831H29.1666V13.7498H20.8333V12.0831ZM23.3333 15.4164H26.6666V17.0831H23.3333V15.4164ZM19.1667 18.7498H30.8334V20.4165H19.1667V18.7498ZM1.6667 37.9164V29.5831H6.6667V37.9164H1.6667ZM8.3333 39.5831V27.9164H10V39.5831H8.3333ZM13.3333 41.2498H11.6666V25.4164H13.3333V41.2498ZM31.6583 37.9164C31.3958 37.9164 31.1491 38.0398 30.9916 38.2497C28.5157 41.5589 23.8258 42.2339 20.5166 39.758C19.9441 39.3297 19.4366 38.8222 19.0083 38.2497C18.8508 38.0398 18.6041 37.9164 18.3416 37.9164H15V29.5831H18.3417C18.6051 29.5815 18.8525 29.4556 19.0084 29.244C19.6143 28.4398 20.3768 27.7664 21.2501 27.2657C21.5084 27.1165 21.6676 26.8398 21.6668 26.5415V22.0832H28.3335V26.5415C28.3326 26.8399 28.4918 27.1165 28.7502 27.2657C29.0102 27.4165 29.261 27.5831 29.5002 27.7656C30.066 28.1823 30.5652 28.6815 30.9818 29.2473C31.1377 29.4589 31.3852 29.5848 31.6485 29.5864H35V37.9164H31.6583ZM36.6667 41.2498V25.4164H38.3334V41.2497H36.6667V41.2498ZM40 39.5831V27.9164H41.6667V39.5831H40ZM48.3333 37.9164H43.3333V29.5831H48.3333V37.9164Z" fill="#231F20"/>
</svg>
