<svg width="50" height="50" viewBox="0 0 50 50" fill="none" xmlns="http://www.w3.org/2000/svg">
<rect width="50" height="50" rx="25" fill="#D91B1B"/>
<path d="M28.3 25.0006L34.4873 18.8134C35.1709 18.1297 35.1709 17.0214 34.4873 16.3388L33.6624 15.514C32.9786 14.8302 31.8703 14.8302 31.1877 15.514L25.0006 21.7011L18.8134 15.5127C18.1297 14.8291 17.0214 14.8291 16.3388 15.5127L15.5127 16.3376C14.8291 17.0214 14.8291 18.1297 15.5127 18.8123L21.7011 25.0006L15.514 31.1877C14.8302 31.8715 14.8302 32.9799 15.514 33.6624L16.3388 34.4873C17.0225 35.1709 18.1308 35.1709 18.8134 34.4873L25.0006 28.3L31.1877 34.4873C31.8715 35.1709 32.9799 35.1709 33.6624 34.4873L34.4873 33.6624C35.1709 32.9786 35.1709 31.8703 34.4873 31.1877L28.3 25.0006Z" fill="white"/>
</svg>
