<svg width="30" height="30" viewBox="0 0 30 30" fill="none" xmlns="http://www.w3.org/2000/svg">
<g clip-path="url(#clip0_901_581)">
<path d="M15 0C6.72882 0 0 6.72882 0 15C0 23.2706 6.72882 30 15 30C23.2712 30 30 23.2706 30 15C30 6.72882 23.2712 0 15 0ZM15 27.5C8.1076 27.5 2.5 21.8924 2.5 15C2.5 8.1076 8.1076 2.5 15 2.5C21.8924 2.5 27.5 8.1076 27.5 15C27.5 21.8924 21.8924 27.5 15 27.5Z" fill="#01579B"/>
<path d="M16.7493 7.37762C16.5851 7.30621 16.4182 7.24945 16.25 7.20001V5H13.75V7.20825C12.5595 7.56805 11.528 8.42743 10.997 9.65576C10.5325 10.7281 10.5145 11.9174 10.9445 13.0038C11.3745 14.0906 12.2018 14.9445 13.302 15.4199L15.733 16.4044C16.1926 16.6025 16.5475 16.9687 16.7319 17.4344C16.9162 17.9001 16.9083 18.41 16.7093 18.8693C16.5106 19.3286 16.1444 19.6838 15.6787 19.8682C15.2124 20.0525 14.7037 20.0449 14.2444 19.8456C13.5657 19.552 13.1262 18.8763 13.1256 18.1244L13.125 16.8744L10.625 16.8768L10.6256 18.1268C10.6268 19.8749 11.6574 21.4499 13.2513 22.1405C13.4149 22.2113 13.5818 22.2687 13.7506 22.3187V25H16.2506V22.3114C16.3675 22.2757 16.4844 22.2369 16.5994 22.1912C17.6855 21.7612 18.5394 20.9332 19.0036 19.8605C19.4681 18.7881 19.4864 17.5995 19.0564 16.5131C18.6261 15.4269 17.7988 14.5731 16.6986 14.097L14.2676 13.1131C13.808 12.9144 13.4531 12.5482 13.2687 12.0825C13.0844 11.6168 13.0927 11.1069 13.2913 10.6476C13.49 10.188 13.8562 9.83307 14.3219 9.64874C14.787 9.46503 15.2969 9.47235 15.7568 9.67133C16.4255 9.96124 16.875 10.5957 16.875 11.25V12.5H19.375V11.25C19.375 9.5874 18.3444 8.06763 16.7493 7.37762Z" fill="#01579B"/>
</g>
<defs>
<clipPath id="clip0_901_581">
<rect width="30" height="30" fill="white"/>
</clipPath>
</defs>
</svg>
