<svg width="50" height="50" viewBox="0 0 50 50" fill="none" xmlns="http://www.w3.org/2000/svg">
<path d="M46.0106 45.3012H3.98922C3.61393 45.3012 3.30963 44.997 3.30963 44.6216V25.8213C3.30963 25.446 3.61383 25.1417 3.98922 25.1417H46.0106C46.3859 25.1417 46.6902 25.446 46.6902 25.8213V44.6216C46.6902 44.997 46.3859 45.3012 46.0106 45.3012Z" fill="#A9DAFF"/>
<g opacity="0.4">
<path d="M30.3232 25.1416H8.65332V45.3007H30.3232V25.1416Z" fill="#1B98FF"/>
</g>
<path d="M28.6437 45.3059H10.4108V13.3689C10.4108 12.7739 10.8932 12.2916 11.4881 12.2916H27.5666C28.1615 12.2916 28.6438 12.7739 28.6438 13.3689L28.6437 45.3059Z" fill="#3AB1FF"/>
<path d="M28.6437 45.3059H10.4108V13.3689C10.4108 12.7739 10.8932 12.2916 11.4881 12.2916H27.5666C28.1615 12.2916 28.6438 12.7739 28.6438 13.3689L28.6437 45.3059Z" fill="#45D2FF"/>
<path d="M3.30965 42.2946L1.00253 43.161C0.871667 43.2102 0.732117 43.1135 0.732117 42.9737V27.4692C0.732117 27.3328 0.865515 27.2365 0.995007 27.2791L3.30975 28.0436L3.30965 42.2946Z" fill="#C7CFE2"/>
<path d="M1.76416 42.8811L3.32588 42.2946V28.0437L1.76416 27.5278V42.8811Z" fill="#AFB9D2"/>
<path d="M46.6902 28.1484L48.9974 27.282C49.1282 27.2329 49.2678 27.3296 49.2678 27.4693V42.9738C49.2678 43.1101 49.1344 43.2065 49.005 43.1638L46.6902 42.3993V28.1484Z" fill="#C7CFE2"/>
<path d="M47.8371 27.7177L46.6902 28.1484V42.3993L47.8371 42.7781V27.7177Z" fill="#AFB9D2"/>
<path d="M28.6437 14.949L30.9508 14.4737C31.0817 14.4467 31.2212 14.4997 31.2212 14.5764V23.0822C31.2212 23.157 31.0878 23.21 30.9584 23.1864L28.6436 22.767L28.6437 14.949Z" fill="#C7CFE2"/>
<path d="M30.0753 14.6539L28.6437 14.9489V22.7668L30.0753 23.0263V14.6539Z" fill="#AFB9D2"/>
<path d="M45.4052 45.3055H4.40918V47.9686H45.4052V45.3055Z" fill="#1B98FF"/>
<path d="M26.4474 2.34858C26.4474 2.17319 26.3052 2.03101 26.1298 2.03101H22.1735C18.8671 2.03101 16.1868 4.71137 16.1868 8.01771V12.2915H22.1735V8.3057C22.1735 8.14662 22.3024 8.01771 22.4615 8.01771H26.1298C26.3052 8.01771 26.4474 7.87553 26.4474 7.70014V2.34858Z" fill="#C7CFE2"/>
<path d="M24.4846 2.03101H23.0204V8.01732H24.4846V2.03101Z" fill="#AFB9D2"/>
<path d="M19.1963 38.6964C20.2205 38.6964 21.0508 37.866 21.0508 36.8418C21.0508 35.8175 20.2205 34.9872 19.1963 34.9872C18.172 34.9872 17.3417 35.8175 17.3417 36.8418C17.3417 37.866 18.172 38.6964 19.1963 38.6964Z" fill="#FFD764"/>
<path d="M43.5702 28.733C43.9745 28.733 44.3023 28.4052 44.3023 28.001C44.3023 27.5967 43.9745 27.2689 43.5702 27.2689C43.1659 27.2689 42.8382 27.5967 42.8382 28.001C42.8382 28.4052 43.1659 28.733 43.5702 28.733Z" fill="#222222"/>
<path d="M40.9023 28.733C41.3065 28.733 41.6343 28.4052 41.6343 28.001C41.6343 27.5967 41.3065 27.2689 40.9023 27.2689C40.498 27.2689 40.1702 27.5967 40.1702 28.001C40.1702 28.4052 40.498 28.733 40.9023 28.733Z" fill="#222222"/>
<path d="M38.1044 28.733C38.5087 28.733 38.8364 28.4052 38.8364 28.001C38.8364 27.5967 38.5087 27.2689 38.1044 27.2689C37.7001 27.2689 37.3724 27.5967 37.3724 28.001C37.3724 28.4052 37.7001 28.733 38.1044 28.733Z" fill="#222222"/>
<path d="M6.12809 28.733C6.53238 28.733 6.86012 28.4052 6.86012 28.001C6.86012 27.5967 6.53238 27.2689 6.12809 27.2689C5.7238 27.2689 5.39606 27.5967 5.39606 28.001C5.39606 28.4052 5.7238 28.733 6.12809 28.733Z" fill="#222222"/>
<path d="M47.4223 44.6216V43.4121L48.7752 43.8589C48.8703 43.8903 48.9689 43.9057 49.067 43.9057C49.2609 43.9057 49.4531 43.8454 49.6138 43.7293C49.8556 43.5546 50 43.2721 50 42.9737V27.4692C50 27.1636 49.85 26.8771 49.5987 26.703C49.3474 26.5291 49.0266 26.4893 48.7401 26.5966L47.4224 27.0914V25.8213C47.4224 25.043 46.7891 24.4097 46.0108 24.4097H37.667C37.2627 24.4097 36.935 24.7374 36.935 25.1417C36.935 25.5461 37.2627 25.8737 37.667 25.8737H45.9582V28.1482V34.4893H29.3758V25.8738H34.5374C34.9417 25.8738 35.2695 25.5461 35.2695 25.1418C35.2695 24.7375 34.9417 24.4098 34.5374 24.4098H29.3758V23.6436L30.828 23.9066C30.8927 23.9184 30.9578 23.9241 31.0223 23.9241C31.2589 23.9241 31.4871 23.8468 31.6581 23.704C31.8457 23.5473 31.9535 23.3206 31.9535 23.082V14.5762C31.9535 14.3338 31.8429 14.1046 31.6501 13.9476C31.4258 13.7648 31.1092 13.6934 30.8033 13.7565L29.3758 14.0505V13.3688C29.3758 12.3711 28.5642 11.5595 27.5666 11.5595H22.9057V8.74994H26.1299C26.7086 8.74994 27.1795 8.27914 27.1795 7.70033V2.34868C27.1795 1.76987 26.7087 1.29907 26.1299 1.29907H22.1736C21.7693 1.29907 21.4416 1.62681 21.4416 2.0311C21.4416 2.4354 21.7693 2.76313 22.1736 2.76313H23.0208V7.28568H22.4616C21.8992 7.28568 21.4416 7.7433 21.4416 8.3057V11.5595H16.9189V8.01791C16.9189 6.08012 17.9801 4.30551 19.6885 3.38667C20.0446 3.19516 20.178 2.75122 19.9865 2.39516C19.795 2.03911 19.351 1.90581 18.995 2.09722C16.8113 3.27172 15.4548 5.54037 15.4548 8.01791V11.5597H11.488C10.4903 11.5597 9.67869 12.3713 9.67869 13.369V24.4099H3.98925C3.21093 24.4099 2.57763 25.0432 2.57763 25.8215V27.0312L1.2247 26.5844C0.941502 26.4907 0.628026 26.5392 0.38623 26.714C0.144336 26.8886 0 27.1709 0 27.4692V42.9737C0 43.2794 0.15 43.5659 0.401269 43.74C0.559374 43.8496 0.745018 43.9058 0.932225 43.9058C1.04258 43.9058 1.15351 43.8863 1.25976 43.8465L2.57753 43.3516V44.6216C2.57753 45.2925 3.04833 45.8545 3.67656 45.9972V47.237H0.748338C0.344042 47.237 0.0163086 47.5647 0.0163086 47.969C0.0163086 48.3733 0.344042 48.701 0.748338 48.701H4.40868H45.4046H49.2679C49.6722 48.701 49.9999 48.3733 49.9999 47.969C49.9999 47.5647 49.6722 47.237 49.2679 47.237H46.1366V46.0269C46.8561 45.9629 47.4223 45.3575 47.4223 44.6216ZM24.4848 2.76323H25.7153V7.28578H24.4848V2.76323ZM48.5357 28.2373V42.2379L47.4223 41.8701V28.6555L48.5357 28.2373ZM45.9581 35.9536V42.3994V44.5692H29.3758V35.9537L45.9581 35.9536ZM30.4892 15.3161V22.3574L29.3757 22.1557V15.5455L30.4892 15.3161ZM11.1428 13.369C11.1428 13.1786 11.2977 13.0239 11.488 13.0239H16.1868H22.1735H27.5665C27.7568 13.0239 27.9116 13.1787 27.9116 13.369V14.9489V22.767V27.7124H16.1869C15.7826 27.7124 15.4549 28.0401 15.4549 28.4444C15.4549 28.8487 15.7826 29.1765 16.1869 29.1765H27.9117V44.5691H11.1428V29.1766H12.8031C13.2074 29.1766 13.5351 28.8488 13.5351 28.4445C13.5351 28.0402 13.2074 27.7125 12.8031 27.7125H11.1428C11.1428 27.7124 11.1428 13.369 11.1428 13.369ZM4.04169 25.8739H9.67869V34.4894H4.04169V28.0437V25.8739ZM1.46416 42.2058V28.2053L2.57763 28.573V41.7877L1.46416 42.2058ZM5.14071 47.2369V46.0333H5.39599C5.80028 46.0333 6.12802 45.7055 6.12802 45.3012C6.12802 44.8969 5.80028 44.5692 5.39599 44.5692H4.04169V42.2948V35.9536H9.67869V44.5691H8.65379C8.2495 44.5691 7.92176 44.8968 7.92176 45.3011C7.92176 45.7054 8.2495 46.0332 8.65379 46.0332H10.3288C10.3557 46.0362 10.383 46.038 10.4107 46.038H28.6437C28.6714 46.038 28.6987 46.0362 28.7256 46.0332H44.6725V47.2368H5.14071V47.2369Z" fill="#222222"/>
<path d="M20.807 16.2298H25.849C26.2533 16.2298 26.581 15.9021 26.581 15.4978C26.581 15.0935 26.2533 14.7657 25.849 14.7657H20.807C20.4027 14.7657 20.075 15.0935 20.075 15.4978C20.075 15.9021 20.4027 16.2298 20.807 16.2298Z" fill="#222222"/>
<path d="M19.1965 39.428C20.6227 39.428 21.7831 38.2676 21.7831 36.8414C21.7831 35.4151 20.6227 34.2548 19.1965 34.2548C17.7702 34.2548 16.6099 35.4151 16.6099 36.8414C16.6099 38.2676 17.7702 39.428 19.1965 39.428ZM19.1965 35.7189C19.8154 35.7189 20.3189 36.2225 20.3189 36.8415C20.3189 37.4604 19.8154 37.9639 19.1965 37.9639C18.5775 37.9639 18.0739 37.4603 18.0739 36.8415C18.074 36.2224 18.5775 35.7189 19.1965 35.7189Z" fill="#222222"/>
</svg>
