<svg width="30" height="30" viewBox="0 0 30 30" fill="none" xmlns="http://www.w3.org/2000/svg">
<g clip-path="url(#clip0_901_584)">
<path d="M14.9475 30.01L14.0762 29.2631C12.8749 28.2573 2.38623 19.1989 2.38623 12.5729C2.38623 5.63548 8.01012 0.0115967 14.9475 0.0115967C21.8849 0.0115967 27.5088 5.63548 27.5088 12.5729C27.5088 19.1989 17.0201 28.2574 15.8238 29.2681L14.9475 30.01ZM14.9475 2.72771C9.51275 2.73386 5.10855 7.13806 5.1024 12.5728C5.1024 16.7354 11.5554 23.3851 14.9475 26.4286C18.3396 23.3839 24.7926 16.7304 24.7926 12.5728C24.7864 7.13806 20.3823 2.73392 14.9475 2.72771Z" fill="#01579B"/>
<path d="M16.287 8.66434C16.1721 8.61435 16.0552 8.57462 15.9375 8.54001V7H14.1875V8.54578C13.3542 8.79764 12.6321 9.3992 12.2604 10.259C11.9353 11.0097 11.9227 11.8422 12.2237 12.6027C12.5247 13.3634 13.1038 13.9611 13.8739 14.2939L15.5756 14.9831C15.8973 15.1217 16.1458 15.3781 16.2748 15.7041C16.4038 16.0301 16.3983 16.387 16.259 16.7085C16.1199 17.03 15.8636 17.2787 15.5376 17.4077C15.2112 17.5367 14.8551 17.5314 14.5336 17.3919C14.0585 17.1864 13.7509 16.7134 13.7504 16.1871L13.75 15.3121L12 15.3138L12.0004 16.1888C12.0013 17.4124 12.7227 18.5149 13.8384 18.9984C13.9529 19.0479 14.0698 19.0881 14.1879 19.1231V21H15.9379V19.118C16.0197 19.093 16.1016 19.0659 16.1821 19.0338C16.9424 18.7328 17.5401 18.1533 17.865 17.4024C18.1902 16.6517 18.203 15.8196 17.902 15.0591C17.6008 14.2989 17.0216 13.7011 16.2515 13.3679L14.5498 12.6792C14.2281 12.5401 13.9796 12.2838 13.8506 11.9578C13.7216 11.6318 13.7274 11.2748 13.8664 10.9533C14.0055 10.6316 14.2618 10.3831 14.5878 10.2541C14.9134 10.1255 15.2704 10.1306 15.5923 10.2699C16.0603 10.4729 16.375 10.917 16.375 11.375V12.25H18.125V11.375C18.125 10.2112 17.4036 9.14734 16.287 8.66434Z" fill="#01579B"/>
</g>
<defs>
<clipPath id="clip0_901_584">
<rect width="30" height="30" fill="white"/>
</clipPath>
</defs>
</svg>
