<svg width="50" height="50" viewBox="0 0 50 50" fill="none" xmlns="http://www.w3.org/2000/svg">
<path d="M39.5023 6.37842H50V3.44873H36.5727V9.70283H5.09873V21.4216H0V43.9372H5.77207V46.5512H8.70176V43.9372H35.8993V46.5512H38.829V43.9372H44.601V21.4216H39.5022V6.37842H39.5023ZM36.5727 15.5622H30.0467V12.6325H36.5727V15.5622ZM27.117 21.4216H17.4843V18.4919H27.117V21.4216ZM27.117 12.6326V15.5623H17.4843V12.6326H27.117ZM8.02842 12.6325H14.5546V15.5622H8.02842V12.6325ZM14.5546 18.4919V21.4216H8.02842V18.4919H14.5546ZM41.6714 41.0076H2.92969V24.3514H41.6714V41.0076ZM36.5727 21.4216H30.0467V18.4919H36.5727V21.4216Z" fill="#1E538F"/>
<path d="M15.4163 27.2549C12.4251 27.2549 9.99158 29.6884 9.99158 32.6796C9.99158 35.6708 12.4251 38.1043 15.4163 38.1043C18.4075 38.1043 20.841 35.6708 20.841 32.6796C20.841 29.6884 18.4075 27.2549 15.4163 27.2549ZM15.4163 35.1746C14.0405 35.1746 12.9213 34.0554 12.9213 32.6796C12.9213 31.3038 14.0405 30.1846 15.4163 30.1846C16.7921 30.1846 17.9113 31.3038 17.9113 32.6796C17.9113 34.0554 16.7921 35.1746 15.4163 35.1746Z" fill="#1E538F"/>
<path d="M23.76 32.6796C23.76 35.6708 26.1935 38.1043 29.1847 38.1043C32.1759 38.1043 34.6095 35.6708 34.6095 32.6796C34.6095 29.6884 32.1759 27.2549 29.1847 27.2549C26.1935 27.2549 23.76 29.6884 23.76 32.6796ZM31.6797 32.6796C31.6797 34.0554 30.5604 35.1746 29.1846 35.1746C27.8088 35.1746 26.6896 34.0554 26.6896 32.6796C26.6896 31.3038 27.8088 30.1846 29.1846 30.1846C30.5604 30.1846 31.6797 31.3038 31.6797 32.6796Z" fill="#1E538F"/>
</svg>
