<svg width="50" height="50" viewBox="0 0 50 50" fill="none" xmlns="http://www.w3.org/2000/svg">
<path d="M21.4863 30.3133V6.20527C21.4863 3.625 19.3945 1.5332 16.8145 1.5332C14.2344 1.5332 12.1426 3.625 12.1426 6.20527V30.3133C9.1584 31.9617 7.13672 35.1387 7.13672 38.7891C7.13672 44.134 11.4695 48.4668 16.8145 48.4668C22.1594 48.4668 26.4922 44.134 26.4922 38.7891C26.492 35.1387 24.4703 31.9617 21.4863 30.3133Z" fill="#FFE2E2"/>
<path d="M26.492 38.7893C26.492 44.1331 22.16 48.467 16.8143 48.467C16.3162 48.467 15.826 48.4299 15.3494 48.3577C19.9998 47.6506 23.5623 43.635 23.5623 38.7893C23.5623 35.1389 21.5408 31.9612 18.5565 30.3127V6.20532C18.5565 4.13696 17.2127 2.38306 15.3494 1.76978C15.8104 1.61548 16.3026 1.53345 16.8143 1.53345C19.3943 1.53345 21.4861 3.62524 21.4861 6.20532V30.3127C24.4705 31.961 26.492 35.1387 26.492 38.7893Z" fill="#FFCFCF"/>
<path d="M18.2791 48.3577C17.8026 48.4299 17.3123 48.467 16.8143 48.467C11.4686 48.467 7.13654 44.1331 7.13654 38.7893C7.13654 35.1389 9.15802 31.9612 12.1424 30.3127V6.20532C12.1424 3.62524 14.2342 1.53345 16.8143 1.53345C17.326 1.53345 17.8182 1.61548 18.2791 1.76978C16.4158 2.38306 15.0721 4.13696 15.0721 6.20532V30.3127C12.0877 31.9612 10.0662 35.1389 10.0662 38.7893C10.0662 43.6348 13.6287 47.6506 18.2791 48.3577Z" fill="#FFEEED"/>
<path d="M23.367 38.7893C23.367 42.4026 20.4276 45.342 16.8143 45.342C13.201 45.342 10.2615 42.4026 10.2615 38.7893C10.2615 36.4045 11.5604 34.2053 13.6541 33.0491C14.6483 32.4983 15.2674 31.4514 15.2674 30.3127V14.9104H18.3611V30.3127C18.3611 31.4514 18.9803 32.4983 19.9744 33.0491C22.0682 34.2051 23.367 36.4043 23.367 38.7893Z" fill="#00C7B6"/>
<path d="M23.367 38.7893C23.367 42.4026 20.4276 45.342 16.8143 45.342C16.3104 45.342 15.8201 45.2854 15.3494 45.178C18.2596 44.51 20.4373 41.8987 20.4373 38.7893C20.4373 36.4045 19.1385 34.2053 17.0447 33.0491C16.0506 32.4983 15.4315 31.4514 15.4315 30.3127V14.9104H18.3611V30.3127C18.3611 31.4514 18.9803 32.4983 19.9744 33.0491C22.0682 34.2051 23.367 36.4043 23.367 38.7893Z" fill="#00B2A0"/>
<path d="M18.4744 45.1289C17.9432 45.2676 17.3865 45.3418 16.8143 45.3418C13.201 45.3418 10.2615 42.4023 10.2615 38.7891C10.2615 36.4043 11.5604 34.2051 13.6541 33.0488C14.6483 32.498 15.2674 31.4512 15.2674 30.3125V14.9102H18.3611V30.3125C18.3611 30.5996 18.4002 30.8809 18.4744 31.1484C18.2518 31.9473 17.7186 32.6367 16.9744 33.0488C14.8807 34.2051 13.5818 36.4043 13.5818 38.7891C13.5818 41.8301 15.6619 44.3926 18.4744 45.1289Z" fill="#00DBC2"/>
<path d="M35.6777 16.2482C39.6463 16.2482 42.8635 13.031 42.8635 9.06245C42.8635 5.09388 39.6463 1.87671 35.6777 1.87671C31.7092 1.87671 28.492 5.09388 28.492 9.06245C28.492 13.031 31.7092 16.2482 35.6777 16.2482Z" fill="#FF4975"/>
<path d="M42.8627 9.0625C42.8627 13.0313 39.6459 16.248 35.6772 16.248C35.1752 16.248 34.685 16.1973 34.2123 16.0977C37.478 15.4219 39.933 12.5293 39.933 9.0625C39.933 5.5957 37.478 2.70313 34.2123 2.02734C34.685 1.92773 35.1752 1.87695 35.6772 1.87695C39.6459 1.87695 42.8627 5.09395 42.8627 9.0625Z" fill="#FF256C"/>
<path d="M37.142 16.0977C36.6694 16.1973 36.1791 16.248 35.6772 16.248C31.7084 16.248 28.4916 13.0313 28.4916 9.0625C28.4916 5.09375 31.7084 1.87695 35.6772 1.87695C36.1791 1.87695 36.6694 1.92773 37.142 2.02734C33.8764 2.70313 31.4213 5.5957 31.4213 9.0625C31.4213 12.5293 33.8764 15.4221 37.142 16.0977Z" fill="#FF74A5"/>
<path d="M35.6778 10.4556C36.4472 10.4556 37.0709 9.8319 37.0709 9.06248C37.0709 8.29305 36.4472 7.66931 35.6778 7.66931C34.9083 7.66931 34.2846 8.29305 34.2846 9.06248C34.2846 9.8319 34.9083 10.4556 35.6778 10.4556Z" fill="#FFD30F"/>
<path d="M35.6777 35.4074C39.6463 35.4074 42.8635 32.1902 42.8635 28.2216C42.8635 24.2531 39.6463 21.0359 35.6777 21.0359C31.7092 21.0359 28.492 24.2531 28.492 28.2216C28.492 32.1902 31.7092 35.4074 35.6777 35.4074Z" fill="#5FCDFF"/>
<path d="M42.8641 28.2218C42.8641 32.1906 39.6453 35.4073 35.6785 35.4073C35.1766 35.4073 34.6863 35.3566 34.2137 35.257C37.4793 34.5812 39.9344 31.6886 39.9344 28.2218C39.9344 24.755 37.4793 21.8624 34.2137 21.1866C34.6863 21.087 35.1766 21.0363 35.6785 21.0363C39.6453 21.0363 42.8641 24.2531 42.8641 28.2218Z" fill="#30B6FF"/>
<path d="M37.1434 35.257C36.6707 35.3566 36.1805 35.4073 35.6785 35.4073C31.7098 35.4073 28.491 32.1906 28.491 28.2218C28.491 24.2531 31.7098 21.0363 35.6785 21.0363C36.1805 21.0363 36.6707 21.087 37.1434 21.1866C33.8777 21.8624 31.4207 24.755 31.4207 28.2218C31.4207 31.6886 33.8777 34.5812 37.1434 35.257Z" fill="#73D7F9"/>
<path d="M22.2676 29.8643V6.20532C22.2676 3.19829 19.8213 0.752197 16.8145 0.752197C13.8076 0.752197 11.3613 3.19849 11.3613 6.20532V29.8643C8.26173 31.7606 6.35529 35.1383 6.35529 38.7891C6.35529 44.5561 11.0471 49.2481 16.8143 49.2481C22.5815 49.2481 27.2731 44.5563 27.2731 38.7891C27.2731 35.1383 25.3668 31.7606 22.2676 29.8643ZM16.8143 47.6854C11.9088 47.6854 7.91779 43.6944 7.91779 38.7889C7.91779 35.5508 9.68126 32.5653 12.5199 30.9971C12.7688 30.8596 12.9234 30.5977 12.9234 30.3133V6.20532C12.9234 4.06001 14.6688 2.3147 16.8141 2.3147C18.9594 2.3147 20.7047 4.06001 20.7047 6.20532V30.3133C20.7047 30.5977 20.8594 30.8596 21.1082 30.9971C23.9469 32.5653 25.7104 35.5508 25.7104 38.7889C25.7106 43.6946 21.7197 47.6854 16.8143 47.6854Z" fill="#5F266D"/>
<path d="M16.8143 5.4397C17.2365 5.4397 17.5801 5.78325 17.5801 6.20532V8.07173C17.5801 8.50317 17.9299 8.85298 18.3613 8.85298C18.7928 8.85298 19.1426 8.50317 19.1426 8.07173V6.20532C19.1426 4.92153 18.0981 3.8772 16.8143 3.8772C16.3828 3.8772 16.033 4.227 16.033 4.65845C16.033 5.08989 16.3828 5.4397 16.8143 5.4397Z" fill="#5F266D"/>
<path d="M18.3613 10.2202C17.9299 10.2202 17.5801 10.57 17.5801 11.0015V11.1565C17.5801 11.588 17.9299 11.9378 18.3613 11.9378C18.7928 11.9378 19.1426 11.588 19.1426 11.1565V11.0015C19.1426 10.57 18.7928 10.2202 18.3613 10.2202Z" fill="#5F266D"/>
<path d="M20.3531 32.3654C19.6063 31.9518 19.1424 31.165 19.1424 30.3125V14.9102C19.1424 14.4787 18.7926 14.1289 18.3611 14.1289H15.2674C14.8359 14.1289 14.4861 14.4787 14.4861 14.9102V30.3125C14.4861 31.165 14.0223 31.9518 13.2766 32.3648C10.935 33.658 9.48029 36.1195 9.48029 38.7891C9.48029 42.833 12.7703 46.123 16.8143 46.123C20.8582 46.123 24.1483 42.833 24.1483 38.7891C24.1483 36.1197 22.6938 33.6582 20.3531 32.3654ZM16.8143 44.5605C13.6318 44.5605 11.0428 41.9715 11.0428 38.7891C11.0428 36.6883 12.1881 34.7508 14.0328 33.7322C15.2762 33.0434 16.0486 31.733 16.0486 30.3125V15.6914H17.5799V30.3125C17.5799 31.7328 18.3524 33.0432 19.5969 33.7326C21.4404 34.7508 22.5859 36.6883 22.5859 38.7891C22.5858 41.9717 19.9967 44.5605 16.8143 44.5605Z" fill="#5F266D"/>
<path d="M35.6777 17.0298C40.0707 17.0298 43.6447 13.4557 43.6447 9.06257C43.6447 4.6696 40.0707 1.09558 35.6777 1.09558C31.2848 1.09558 27.7108 4.6696 27.7108 9.06257C27.7108 13.4557 31.2846 17.0298 35.6777 17.0298ZM35.6777 2.65808C39.2092 2.65808 42.0822 5.53113 42.0822 9.06257C42.0822 12.594 39.2092 15.4673 35.6777 15.4673C32.1463 15.4673 29.2733 12.5942 29.2733 9.06257C29.2733 5.53093 32.1463 2.65808 35.6777 2.65808Z" fill="#5F266D"/>
<path d="M35.6778 11.2371C36.8768 11.2371 37.8522 10.2617 37.8522 9.06272C37.8522 7.8637 36.8768 6.88831 35.6778 6.88831C34.4787 6.88831 33.5034 7.8637 33.5034 9.06272C33.5034 10.2617 34.4787 11.2371 35.6778 11.2371ZM35.6778 8.45081C36.0153 8.45081 36.2897 8.72522 36.2897 9.06272C36.2897 9.40022 36.0153 9.67463 35.6778 9.67463C35.3403 9.67463 35.0659 9.40002 35.0659 9.06272C35.0659 8.72541 35.3403 8.45081 35.6778 8.45081Z" fill="#5F266D"/>
<path d="M35.6777 6.17175C36.1092 6.17175 36.459 5.82195 36.459 5.3905V4.81531C36.459 4.38386 36.1092 4.03406 35.6777 4.03406C35.2463 4.03406 34.8965 4.38386 34.8965 4.81531V5.3905C34.8965 5.82195 35.2463 6.17175 35.6777 6.17175Z" fill="#5F266D"/>
<path d="M38.827 7.01846L39.2336 6.61162C39.5387 6.30654 39.5387 5.81182 39.2334 5.50674C38.9281 5.20166 38.4334 5.20166 38.1285 5.50693L37.7219 5.91377C37.4168 6.21885 37.4168 6.71357 37.7221 7.01865C38.027 7.32354 38.5217 7.32373 38.827 7.01846Z" fill="#5F266D"/>
<path d="M38.5685 9.0625C38.5685 9.49395 38.9183 9.84375 39.3498 9.84375H39.925C40.3564 9.84375 40.7062 9.49395 40.7062 9.0625C40.7062 8.63105 40.3564 8.28125 39.925 8.28125H39.3498C38.9183 8.28125 38.5685 8.63105 38.5685 9.0625Z" fill="#5F266D"/>
<path d="M38.8269 11.1069C38.5219 10.8018 38.0273 10.8018 37.7221 11.1069C37.417 11.4119 37.417 11.9065 37.7219 12.2117L38.1285 12.6186C38.4336 12.9237 38.9281 12.9239 39.2334 12.6186C39.5385 12.3135 39.5385 11.819 39.2336 11.5137L38.8269 11.1069Z" fill="#5F266D"/>
<path d="M35.6777 11.9536C35.2463 11.9536 34.8965 12.3034 34.8965 12.7349V13.3101C34.8965 13.7415 35.2463 14.0913 35.6777 14.0913C36.1092 14.0913 36.459 13.7415 36.459 13.3101V12.7349C36.459 12.3034 36.1092 11.9536 35.6777 11.9536Z" fill="#5F266D"/>
<path d="M32.5286 11.1069L32.1219 11.5138C31.8168 11.8188 31.8168 12.3136 32.1221 12.6187C32.4274 12.9237 32.9219 12.9237 33.227 12.6187L33.6336 12.2118C33.9387 11.9067 33.9387 11.412 33.6334 11.1069C33.3282 10.8017 32.8336 10.8019 32.5286 11.1069Z" fill="#5F266D"/>
<path d="M32.0055 9.84375C32.4369 9.84375 32.7867 9.49395 32.7867 9.0625C32.7867 8.63105 32.4369 8.28125 32.0055 8.28125H31.4303C30.9989 8.28125 30.649 8.63105 30.649 9.0625C30.649 9.49395 30.9989 9.84375 31.4303 9.84375H32.0055Z" fill="#5F266D"/>
<path d="M32.5285 7.01846C32.8334 7.32353 33.3281 7.32393 33.6334 7.01865C33.9385 6.71357 33.9385 6.21904 33.6336 5.91377L33.227 5.50693C32.9219 5.20166 32.4274 5.20166 32.1221 5.50674C31.817 5.81182 31.817 6.30635 32.1219 6.61162L32.5285 7.01846Z" fill="#5F266D"/>
<path d="M35.6777 20.2548C31.2848 20.2548 27.7108 23.8288 27.7108 28.2218C27.7108 32.6149 31.2848 36.1889 35.6777 36.1889C40.0707 36.1889 43.6447 32.6149 43.6447 28.2218C43.6447 23.8286 40.0707 20.2548 35.6777 20.2548ZM35.6777 34.6262C32.1463 34.6262 29.2733 31.7532 29.2733 28.2216C29.2733 24.6901 32.1463 21.8171 35.6777 21.8171C39.2092 21.8171 42.0822 24.6901 42.0822 28.2216C42.0822 31.7532 39.2092 34.6262 35.6777 34.6262Z" fill="#5F266D"/>
<path d="M39.499 27.4404H37.5637L38.9321 26.0721C39.2371 25.767 39.2371 25.2723 38.9321 24.9672C38.6272 24.6621 38.1321 24.6621 37.8274 24.9672L36.4588 26.3357V24.4004C36.4588 23.9689 36.109 23.6191 35.6776 23.6191C35.2461 23.6191 34.8963 23.9689 34.8963 24.4004V26.3357L33.5278 24.9672C33.2229 24.6621 32.7278 24.6621 32.4231 24.9672C32.118 25.2723 32.118 25.767 32.4231 26.0721L33.7914 27.4404H31.8561C31.4246 27.4404 31.0748 27.7902 31.0748 28.2217C31.0748 28.6531 31.4246 29.0029 31.8561 29.0029H33.7914L32.4231 30.3713C32.118 30.6764 32.118 31.1711 32.4231 31.4762C32.728 31.7813 33.2231 31.7813 33.5278 31.4762L34.8963 30.1076V32.043C34.8963 32.4744 35.2461 32.8242 35.6776 32.8242C36.109 32.8242 36.4588 32.4744 36.4588 32.043V30.1076L37.8274 31.4762C38.1323 31.7813 38.6274 31.7813 38.9321 31.4762C39.2371 31.1711 39.2371 30.6764 38.9321 30.3713L37.5637 29.0029H39.499C39.9305 29.0029 40.2803 28.6531 40.2803 28.2217C40.2803 27.7902 39.9305 27.4404 39.499 27.4404Z" fill="#5F266D"/>
</svg>
