<svg width="50" height="50" viewBox="0 0 50 50" fill="none" xmlns="http://www.w3.org/2000/svg">
<mask id="mask0_2176_363" style="mask-type:luminance" maskUnits="userSpaceOnUse" x="0" y="0" width="50" height="50">
<path d="M0 2.98023e-06H50V50H0V2.98023e-06Z" fill="white"/>
</mask>
<g mask="url(#mask0_2176_363)">
<path fill-rule="evenodd" clip-rule="evenodd" d="M19.3813 17.7781C19.3813 17.7781 29.3423 21.5867 27.3891 30.4734C27.3891 30.4734 30.4907 29.4964 32.1255 26.6648C35.9403 32.4978 37.6388 44.0616 25.9654 48.6C25.6578 48.7551 25.347 48.8924 25.0352 49.0102C35.5165 48.6619 45.9853 41.4386 45.491 28.5954C44.2117 30.8449 38.3913 30.8072 38.3913 30.8072C43.6356 19.3097 35.961 13.6859 35.961 13.6859C36.7871 20.9492 18.6033 22.0046 27.5834 0.976446C8.26872 4.60066 11.2107 29.4701 11.2107 29.4701C9.0363 29.0952 4.81501 24.5962 4.81501 24.5962C2.44353 41.6263 13.5456 49.2559 24.7479 49.018C24.7389 49.0178 24.7299 49.0173 24.721 49.0169C15.9431 48.967 9.50642 39.8007 14.0437 31.292C16.1073 27.4222 20.413 21.6281 19.3813 17.7781Z" fill="#FD4848"/>
<path fill-rule="evenodd" clip-rule="evenodd" d="M27.3892 30.4734C29.3423 21.5867 19.3814 17.7781 19.3814 17.7781C20.413 21.6281 16.1073 27.4222 14.0438 31.2919C9.50645 39.8006 15.9432 48.9669 24.721 49.0168C17.7289 48.6856 11.0983 36.0164 22.7311 29.4545C19.766 36.4773 26.2644 40.2515 30.0381 35.7745C34.3493 40.1231 30.5186 46.3042 25.9654 48.6C37.6389 44.0616 35.9403 32.4978 32.1255 26.6648C30.4907 29.4963 27.3892 30.4734 27.3892 30.4734Z" fill="#FF8244"/>
<path fill-rule="evenodd" clip-rule="evenodd" d="M30.0381 35.7745C26.2644 40.2516 19.766 36.4773 22.7311 29.4546C11.0984 36.0164 17.7289 48.6855 24.721 49.0169C24.745 49.017 24.7691 49.0171 24.7931 49.0171C25.198 48.8856 25.5887 48.7465 25.9654 48.6C30.5186 46.3043 34.3493 40.1231 30.0381 35.7745Z" fill="#FFBA4A"/>
<path fill-rule="evenodd" clip-rule="evenodd" d="M15.8465 41.9994C17.0805 46.3409 20.888 50 25 50C25.1166 50 25.2322 49.9791 25.3414 49.9384C28.0459 48.9293 30.6513 46.6066 31.9801 43.8805C33.3327 41.1052 33.4006 37.7791 30.7316 35.087C30.5386 34.8923 30.2726 34.7877 29.9987 34.7987C29.7248 34.8098 29.4681 34.9355 29.2914 35.1451C27.699 37.0343 25.7013 37.0654 24.4339 36.1387C23.1694 35.2141 22.2737 33.0484 23.6307 29.8343C23.7932 29.4494 23.6929 29.0038 23.3811 28.7257C23.0693 28.4476 22.6152 28.3987 22.2513 28.6039C19.146 30.3555 17.2044 32.5638 16.214 34.9418C15.2254 37.3157 15.2166 39.7829 15.8465 41.9994ZM21.0804 31.743C20.7264 34.363 21.6276 36.5062 23.2811 37.7153C25.2105 39.126 27.8847 39.0404 29.986 37.217C31.2767 39.0159 31.173 41.0783 30.2244 43.0247C29.1438 45.2419 27.0061 47.1748 24.8264 48.0437C21.8963 47.9379 18.7789 45.1728 17.7253 41.4654C17.201 39.6208 17.218 37.6113 18.017 35.6927C18.584 34.3313 19.5608 32.9773 21.0804 31.743Z" fill="#222222"/>
<path fill-rule="evenodd" clip-rule="evenodd" d="M13.182 30.8325C8.25126 40.0791 15.3152 49.9937 24.793 49.9937C24.8954 49.9937 24.9971 49.9776 25.0944 49.946C30.6085 48.1567 33.7051 44.9432 35.0814 41.2447C35.2695 40.7392 35.0122 40.177 34.5067 39.9889C34.0013 39.8008 33.439 40.058 33.2509 40.5635C32.1188 43.6057 29.561 46.404 24.6398 48.0395C16.5678 47.9342 10.7631 39.5197 14.9054 31.7515C15.3241 30.9664 15.8377 30.0995 16.3939 29.1609C16.5058 28.9721 16.6193 28.7804 16.7342 28.5859C17.4129 27.4368 18.1276 26.204 18.7469 24.964C19.3649 23.7267 19.9043 22.4505 20.2193 21.2101C20.3714 20.6114 20.4751 20.0056 20.5058 19.4058C21.353 19.8761 22.4358 20.5743 23.4571 21.5124C25.5461 23.431 27.3123 26.2736 26.4354 30.2637C26.3606 30.6041 26.4729 30.9586 26.73 31.1938C26.9871 31.4291 27.3502 31.5095 27.6826 31.4048L27.3892 30.4733C27.6826 31.4048 27.6829 31.4047 27.6833 31.4046L27.6857 31.4038L27.6898 31.4025C27.693 31.4015 27.697 31.4002 27.7016 31.3987C27.711 31.3956 27.7232 31.3915 27.7383 31.3864C27.7685 31.3762 27.81 31.3617 27.8616 31.3428C27.9648 31.305 28.1089 31.2493 28.2847 31.1738C28.6355 31.0231 29.1168 30.7919 29.6532 30.4644C30.3981 30.0095 31.2705 29.3559 32.0443 28.4564C32.8896 30.0693 33.5539 31.997 33.8437 34.02C33.9202 34.5539 34.415 34.9247 34.9489 34.8482C35.4828 34.7717 35.8536 34.2769 35.7771 33.743C35.3659 30.8732 34.2823 28.1786 32.9428 26.1303C32.7572 25.8464 32.4375 25.6791 32.0984 25.6886C31.7593 25.698 31.4494 25.8827 31.2798 26.1765C30.5704 27.4052 29.529 28.2518 28.6354 28.7974C28.6246 28.804 28.6139 28.8105 28.6032 28.817C28.8258 24.8839 26.8644 21.99 24.7783 20.0739C23.5813 18.9745 22.327 18.1773 21.3772 17.6559C20.9007 17.3943 20.4964 17.1997 20.2081 17.0693C20.0639 17.004 19.9483 16.9547 19.8669 16.9209C19.8262 16.904 19.794 16.891 19.771 16.8819C19.7647 16.8794 19.7591 16.8772 19.7542 16.8752C19.7502 16.8736 19.7466 16.8722 19.7435 16.871L19.735 16.8677L19.7321 16.8666L19.731 16.8662C19.7306 16.866 19.7302 16.8659 19.3814 17.778L19.7302 16.8659C19.3874 16.7348 19 16.807 18.7275 17.0527C18.4549 17.2985 18.3431 17.6763 18.4381 18.0308C18.6371 18.7736 18.594 19.6753 18.3263 20.7293C18.0596 21.779 17.5871 22.9151 16.9996 24.0913C16.4135 25.2649 15.7293 26.4468 15.0525 27.5927C14.9417 27.7802 14.8309 27.9673 14.7206 28.1533C14.1646 29.0916 13.6234 30.0048 13.182 30.8325ZM27.0947 29.5422C27.0934 29.5426 27.0929 29.5428 27.0931 29.5428L27.0939 29.5425L27.0947 29.5422ZM34.9346 37.6994C35.4736 37.7186 35.9262 37.2973 35.9454 36.7583C35.9457 36.751 35.9462 36.737 35.9465 36.7221C35.9594 36.1829 35.5327 35.7354 34.9935 35.7225C34.4543 35.7097 34.0068 36.1364 33.994 36.6756C33.9939 36.677 33.9939 36.6795 33.9935 36.6886C33.9743 37.2276 34.3956 37.6801 34.9346 37.6994Z" fill="#222222"/>
</g>
</svg>
