<svg width="50" height="50" viewBox="0 0 50 50" fill="none" xmlns="http://www.w3.org/2000/svg">
<g clip-path="url(#clip0_5286_76)">
<path d="M42.6758 5.95703H14.6484V0H5.85938V6.10439C2.52031 6.78496 0 9.74424 0 13.2812V50H8.78906V44.043H41.2109V50H50V13.2812C50 9.24268 46.7144 5.95703 42.6758 5.95703ZM11.7188 2.92969V5.95703H8.78906V2.92969H11.7188ZM7.32422 8.88672H42.6758C45.0989 8.88672 47.0703 10.8581 47.0703 13.2812V23.5352H2.92969V13.2812C2.92969 10.8581 4.90107 8.88672 7.32422 8.88672ZM47.0703 26.4648V41.1133H2.92969V26.4648H47.0703ZM5.85938 47.0703H2.92969V44.043H5.85938V47.0703ZM44.1406 47.0703V44.043H47.0703V47.0703H44.1406Z" fill="#1E538F"/>
<path d="M36.084 38.1836V29.3945H13.916V38.1836H36.084ZM16.8457 32.3242H33.1543V35.2539H16.8457V32.3242Z" fill="#1E538F"/>
<path d="M25 20.6055C27.4231 20.6055 29.3945 18.6341 29.3945 16.2109C29.3945 13.7878 27.4231 11.8164 25 11.8164C22.5769 11.8164 20.6055 13.7878 20.6055 16.2109C20.6055 18.6341 22.5769 20.6055 25 20.6055ZM25 14.7461C25.8077 14.7461 26.4648 15.4032 26.4648 16.2109C26.4648 17.0187 25.8077 17.6758 25 17.6758C24.1923 17.6758 23.5352 17.0187 23.5352 16.2109C23.5352 15.4032 24.1923 14.7461 25 14.7461Z" fill="#1E538F"/>
</g>
<defs>
<clipPath id="clip0_5286_76">
<rect width="50" height="50" fill="white"/>
</clipPath>
</defs>
</svg>
