<svg width="30" height="30" viewBox="0 0 30 30" fill="none" xmlns="http://www.w3.org/2000/svg">
<path d="M24.375 10.3125V10.7812H16.875V10.3125C16.875 9.53438 17.5031 8.90625 18.2812 8.90625H22.9688C23.3578 8.90625 23.7094 9.06562 23.9625 9.31875C24.2156 9.57187 24.375 9.92344 24.375 10.3125Z" fill="#D6C9A5"/>
<path d="M18.2812 7.03125H22.9688V8.90625H18.2812V7.03125Z" fill="#998675"/>
<path d="M18.2812 5.15625H22.9688V7.03125H18.2812V5.15625Z" fill="#75675E"/>
<path d="M18.2812 3.28125H22.9688V5.15625H18.2812V3.28125Z" fill="#998675"/>
<path d="M23.9062 2.34375C23.9062 2.85938 23.4844 3.28125 22.9688 3.28125H18.2812C18.0234 3.28125 17.7891 3.17812 17.6203 3.00469C17.4469 2.83594 17.3438 2.60156 17.3438 2.34375C17.3438 1.30781 18.1828 0.46875 19.2188 0.46875H22.0312C22.5469 0.46875 23.0156 0.679688 23.3578 1.01719C23.6953 1.35938 23.9062 1.82812 23.9062 2.34375Z" fill="#E8DEBF"/>
<path d="M12.6562 2.34375C12.6562 2.60156 12.5531 2.83594 12.3797 3.00469C12.2109 3.17812 11.9766 3.28125 11.7188 3.28125H7.03125C6.51562 3.28125 6.09375 2.85938 6.09375 2.34375C6.09375 1.82812 6.30469 1.35938 6.64219 1.01719C6.98438 0.679688 7.45312 0.46875 7.96875 0.46875H10.7812C11.8172 0.46875 12.6562 1.30781 12.6562 2.34375Z" fill="#E8DEBF"/>
<path d="M7.03125 3.28125H11.7188V5.15625H7.03125V3.28125Z" fill="#998675"/>
<path d="M7.03125 5.15625H11.7188V7.03125H7.03125V5.15625Z" fill="#75675E"/>
<path d="M7.03125 7.03125H11.7188V8.90625H7.03125V7.03125Z" fill="#998675"/>
<path d="M13.125 10.3125V10.7812H5.625V10.3125C5.625 9.92344 5.78438 9.57187 6.0375 9.31875C6.29063 9.06562 6.64219 8.90625 7.03125 8.90625H11.7188C12.4969 8.90625 13.125 9.53438 13.125 10.3125Z" fill="#D6C9A5"/>
<path d="M27.1875 18.75V23.9062H19.0547C20.5828 22.7062 21.5625 20.8406 21.5625 18.75H27.1875Z" fill="#F8CC6A"/>
<path d="M25.3125 10.7812H24.375H16.875H15H13.125H5.625H4.6875C3.65156 10.7812 2.8125 11.6203 2.8125 12.6562V18.75H8.4375C8.4375 15.1266 11.3766 12.1875 15 12.1875C18.6234 12.1875 21.5625 15.1266 21.5625 18.75H27.1875V12.6562C27.1875 11.6203 26.3484 10.7812 25.3125 10.7812Z" fill="#B3B3B3"/>
<path d="M25.3125 10.7812H24.375H16.875H15H13.125H5.625H4.6875C3.65156 10.7812 2.8125 11.6203 2.8125 12.6562V14.0625C2.8125 13.0266 3.65156 12.1875 4.6875 12.1875H25.3125C26.3484 12.1875 27.1875 13.0266 27.1875 14.0625V12.6562C27.1875 11.6203 26.3484 10.7812 25.3125 10.7812Z" fill="#CCCCCC"/>
<path d="M19.2188 18.2812L13.5938 23.4375L14.0625 19.2188H10.7812L16.4062 14.0625L15.9375 18.2812H19.2188Z" fill="#EFB22B"/>
<path d="M10.9453 23.9062C9.41719 22.7063 8.4375 20.8406 8.4375 18.75C8.4375 15.1266 11.3766 12.1875 15 12.1875C18.6234 12.1875 21.5625 15.1266 21.5625 18.75C21.5625 20.8406 20.5828 22.7063 19.0547 23.9062C17.9344 24.7875 16.5281 25.3125 15 25.3125C13.4719 25.3125 12.0656 24.7875 10.9453 23.9062ZM13.5938 23.4375L19.2188 18.2812H15.9375L16.4062 14.0625L10.7812 19.2188H14.0625L13.5938 23.4375Z" fill="#FCEBC3"/>
<path d="M10.9453 23.9062H2.8125V18.75H8.4375C8.4375 20.8406 9.41719 22.7062 10.9453 23.9062Z" fill="#F8CC6A"/>
<path d="M20.1562 26.7188H9.84375H5.15625H4.6875C3.65156 26.7188 2.8125 25.8797 2.8125 24.8438V23.9062H10.9453C12.0656 24.7875 13.4719 25.3125 15 25.3125C16.5281 25.3125 17.9344 24.7875 19.0547 23.9062H27.1875V24.8438C27.1875 25.8797 26.3484 26.7188 25.3125 26.7188H24.8438H20.1562Z" fill="#999999"/>
<path d="M25.3125 25.3125H4.6875C3.28125 25.3125 2.8125 23.9062 2.8125 23.9062V24.8438C2.8125 25.8797 3.65156 26.7188 4.6875 26.7188H5.15625H9.84375H20.1562H24.8438H25.3125C26.3484 26.7188 27.1875 25.8797 27.1875 24.8438V23.9062C27.1875 23.9062 26.7188 25.3125 25.3125 25.3125Z" fill="#808080"/>
<path d="M9.84375 26.7188L7.03125 29.5312H5.15625V26.7188H9.84375Z" fill="#666666"/>
<path d="M20.1562 26.7188L22.9688 29.5312H24.8438V26.7188H20.1562Z" fill="#666666"/>
<path d="M6.5625 21.0938H4.6875C4.42828 21.0938 4.21875 20.8842 4.21875 20.625C4.21875 20.3658 4.42828 20.1562 4.6875 20.1562H6.5625C6.82172 20.1562 7.03125 20.3658 7.03125 20.625C7.03125 20.8842 6.82172 21.0938 6.5625 21.0938Z" fill="#FCEBC3"/>
<path d="M10.0382 17.8126C9.99557 17.8126 9.95292 17.8069 9.91026 17.7947C9.66135 17.7249 9.51651 17.4657 9.58729 17.2163C10.0635 15.5326 11.3221 14.1465 12.9553 13.509C13.1957 13.4147 13.4681 13.5338 13.5623 13.7752C13.6565 14.0161 13.537 14.288 13.296 14.3822C11.9357 14.9138 10.8862 16.0688 10.4896 17.4718C10.4306 17.678 10.2426 17.8126 10.0382 17.8126Z" fill="#FCF5E6"/>
<path d="M19.9617 19.6875C20.0043 19.6875 20.047 19.6931 20.0896 19.7053C20.3385 19.7752 20.4834 20.0344 20.4126 20.2837C19.9364 21.9675 18.6778 23.3536 17.0446 23.9911C16.8042 24.0853 16.5318 23.9662 16.4376 23.7248C16.3434 23.4839 16.4629 23.212 16.7039 23.1178C18.0642 22.5863 19.1137 21.4313 19.5103 20.0283C19.5693 19.822 19.7573 19.6875 19.9617 19.6875Z" fill="#EFD7AB"/>
<path d="M10.3444 19.3884C10.4147 19.5689 10.5881 19.6875 10.7812 19.6875H13.5389L13.1278 23.3859C13.1062 23.58 13.2075 23.767 13.3814 23.8556C13.6022 23.9461 13.822 23.8645 13.9106 23.7834L19.5356 18.6272C19.6781 18.4969 19.7255 18.2916 19.6556 18.1116C19.5853 17.9311 19.4119 17.8125 19.2187 17.8125H16.4611L16.8722 14.1141C16.8937 13.92 16.7925 13.733 16.6186 13.6444C16.4447 13.5558 16.2337 13.5848 16.0894 13.7166L10.4644 18.8728C10.3223 19.0036 10.2745 19.2089 10.3444 19.3884ZM15.8025 15.2517L15.4715 18.2297C15.457 18.3619 15.4997 18.4945 15.5883 18.5939C15.6769 18.6933 15.8044 18.75 15.9375 18.75H18.014L14.1975 22.2483L14.5284 19.2703C14.543 19.1381 14.5003 19.0055 14.4117 18.9061C14.3231 18.8067 14.1956 18.75 14.0625 18.75H11.9859L15.8025 15.2517Z" fill="#252525"/>
<path d="M25.3125 10.3125H24.8438C24.8438 9.81281 24.6488 9.34172 24.2939 8.98734C24.0539 8.74687 23.7577 8.58656 23.4375 8.50406V7.5H23.9062C24.1655 7.5 24.375 7.29047 24.375 7.03125C24.375 6.77203 24.1655 6.5625 23.9062 6.5625H23.4375V5.625H23.9062C24.1655 5.625 24.375 5.41547 24.375 5.15625C24.375 4.89703 24.1655 4.6875 23.9062 4.6875H23.4375V3.66375C23.9817 3.46969 24.375 2.95406 24.375 2.34375C24.375 1.72359 24.1322 1.13531 23.6869 0.683437C23.2397 0.242812 22.6514 0 22.0312 0H19.2188C17.9264 0 16.875 1.05141 16.875 2.34375C16.875 3.32063 17.6156 3.59484 17.8125 3.66469V4.6875H17.3438C17.0845 4.6875 16.875 4.89703 16.875 5.15625C16.875 5.41547 17.0845 5.625 17.3438 5.625H17.8125V6.5625H17.3438C17.0845 6.5625 16.875 6.77203 16.875 7.03125C16.875 7.29047 17.0845 7.5 17.3438 7.5H17.8125V8.50406C17.0058 8.71359 16.4062 9.44109 16.4062 10.3125H13.5938C13.5938 9.44109 12.9942 8.71359 12.1875 8.50406V7.5H12.6562C12.9155 7.5 13.125 7.29047 13.125 7.03125C13.125 6.77203 12.9155 6.5625 12.6562 6.5625H12.1875V5.625H12.6562C12.9155 5.625 13.125 5.41547 13.125 5.15625C13.125 4.89703 12.9155 4.6875 12.6562 4.6875H12.1875V3.66516C12.3834 3.59625 13.125 3.21187 13.125 2.34375C13.125 1.05141 12.0736 0 10.7812 0H7.96875C7.34859 0 6.76031 0.242813 6.30844 0.688125C5.86781 1.13531 5.625 1.72359 5.625 2.34375C5.625 2.95406 6.01828 3.46969 6.5625 3.66375V4.6875H6.09375C5.83453 4.6875 5.625 4.89703 5.625 5.15625C5.625 5.41547 5.83453 5.625 6.09375 5.625H6.5625V6.5625H6.09375C5.83453 6.5625 5.625 6.77203 5.625 7.03125C5.625 7.29047 5.83453 7.5 6.09375 7.5H6.5625V8.50406C6.24234 8.58656 5.94609 8.74687 5.70609 8.98734C5.35125 9.34172 5.15625 9.81281 5.15625 10.3125H4.6875C3.39516 10.3125 2.34375 11.3639 2.34375 12.6562V24.8438C2.34375 26.1361 3.39516 27.1875 4.6875 27.1875V29.5312C4.6875 29.7905 4.89703 30 5.15625 30H7.03125C7.15594 30 7.275 29.9508 7.36266 29.8627L10.0378 27.1875H19.9622L22.6373 29.8627C22.725 29.9508 22.8441 30 22.9688 30H24.8438C25.103 30 25.3125 29.7905 25.3125 29.5312V27.1875C26.6048 27.1875 27.6562 26.1361 27.6562 24.8438V12.6562C27.6562 11.3639 26.6048 10.3125 25.3125 10.3125ZM19.2188 0.9375H22.0312C22.4039 0.9375 22.7583 1.08422 23.0241 1.34625C23.2908 1.61672 23.4375 1.97109 23.4375 2.34375C23.4375 2.6025 23.2275 2.8125 22.9688 2.8125H18.2812C18.1561 2.8125 17.8125 2.7075 17.8125 2.34375C17.8125 1.56844 18.4434 0.9375 19.2188 0.9375ZM18.75 3.75H22.5V4.6875H18.75V3.75ZM18.75 5.625H22.5V6.5625H18.75V5.625ZM22.5 7.5V8.4375H18.75V7.5H22.5ZM18.2812 9.375H22.9688C23.2181 9.375 23.4534 9.4725 23.6311 9.65016C23.8087 9.82781 23.9062 10.0631 23.9062 10.3125H17.3438C17.3438 9.79547 17.7642 9.375 18.2812 9.375ZM6.97125 1.35094C7.24172 1.08422 7.59609 0.9375 7.96875 0.9375H10.7812C11.5566 0.9375 12.1875 1.56844 12.1875 2.34375C12.1875 2.66156 11.8439 2.8125 11.7188 2.8125H7.03125C6.7725 2.8125 6.5625 2.6025 6.5625 2.34375C6.5625 1.97109 6.70922 1.61672 6.97125 1.35094ZM7.5 3.75H11.25V4.6875H7.5V3.75ZM7.5 5.625H11.25V6.5625H7.5V5.625ZM11.25 7.5V8.4375H7.5V7.5H11.25ZM6.36891 9.65016C6.54656 9.4725 6.78188 9.375 7.03125 9.375H11.7188C12.2358 9.375 12.6562 9.79547 12.6562 10.3125H6.09375C6.09375 10.0631 6.19125 9.82781 6.36891 9.65016ZM4.6875 11.25H25.3125C26.0878 11.25 26.7188 11.8809 26.7188 12.6562V18.2812H22.0134C21.9295 17.0039 21.5053 15.7852 20.7698 14.7319C20.6222 14.52 20.3292 14.468 20.1169 14.6156C19.9045 14.7638 19.853 15.0558 20.0006 15.2686C20.7159 16.2923 21.0938 17.4961 21.0938 18.75C21.0938 20.6306 20.2448 22.3753 18.765 23.5378C17.6789 24.3919 16.3767 24.8438 15 24.8438C13.6233 24.8438 12.3211 24.3919 11.2345 23.5378C9.75516 22.3753 8.90625 20.6306 8.90625 18.75C8.90625 17.4961 9.28406 16.2923 9.99891 15.2681C10.1466 15.0558 10.095 14.7638 9.88266 14.6152C9.67031 14.4675 9.37781 14.5195 9.22969 14.7314C8.49422 15.7852 8.07 17.0039 7.98609 18.2808H3.28125V12.6562C3.28125 11.8809 3.91219 11.25 4.6875 11.25ZM6.83719 29.0625H5.625V27.1875H8.71219L6.83719 29.0625ZM24.375 29.0625H23.1628L21.2878 27.1875H24.375V29.0625ZM25.3125 26.25H4.6875C3.91219 26.25 3.28125 25.6191 3.28125 24.8438V24.375H7.96875C8.22797 24.375 8.4375 24.1655 8.4375 23.9062C8.4375 23.647 8.22797 23.4375 7.96875 23.4375H3.28125V19.2188H7.995C8.12578 21.2077 9.07172 23.0316 10.6552 24.2747C11.9086 25.2605 13.4109 25.7812 15 25.7812C16.5891 25.7812 18.0914 25.2605 19.3444 24.2747C20.9283 23.0316 21.8742 21.2072 22.005 19.2188H26.7188V23.4375H22.0312C21.772 23.4375 21.5625 23.647 21.5625 23.9062C21.5625 24.1655 21.772 24.375 22.0312 24.375H26.7188V24.8438C26.7188 25.6191 26.0878 26.25 25.3125 26.25Z" fill="#252525"/>
<path d="M5.15625 15C5.41547 15 5.625 14.7905 5.625 14.5312V13.125C5.625 12.8658 5.41547 12.6562 5.15625 12.6562C4.89703 12.6562 4.6875 12.8658 4.6875 13.125V14.5312C4.6875 14.7905 4.89703 15 5.15625 15Z" fill="#252525"/>
<path d="M7.03125 15C7.29047 15 7.5 14.7905 7.5 14.5312V13.125C7.5 12.8658 7.29047 12.6562 7.03125 12.6562C6.77203 12.6562 6.5625 12.8658 6.5625 13.125V14.5312C6.5625 14.7905 6.77203 15 7.03125 15Z" fill="#252525"/>
<path d="M24.8438 15C25.103 15 25.3125 14.7905 25.3125 14.5312V13.125C25.3125 12.8658 25.103 12.6562 24.8438 12.6562C24.5845 12.6562 24.375 12.8658 24.375 13.125V14.5312C24.375 14.7905 24.5845 15 24.8438 15Z" fill="#252525"/>
<path d="M22.9688 15C23.228 15 23.4375 14.7905 23.4375 14.5312V13.125C23.4375 12.8658 23.228 12.6562 22.9688 12.6562C22.7095 12.6562 22.5 12.8658 22.5 13.125V14.5312C22.5 14.7905 22.7095 15 22.9688 15Z" fill="#252525"/>
<path d="M10.7812 14.0625C11.0401 14.0625 11.25 13.8526 11.25 13.5938C11.25 13.3349 11.0401 13.125 10.7812 13.125C10.5224 13.125 10.3125 13.3349 10.3125 13.5938C10.3125 13.8526 10.5224 14.0625 10.7812 14.0625Z" fill="#252525"/>
<path d="M19.2188 14.0625C19.4776 14.0625 19.6875 13.8526 19.6875 13.5938C19.6875 13.3349 19.4776 13.125 19.2188 13.125C18.9599 13.125 18.75 13.3349 18.75 13.5938C18.75 13.8526 18.9599 14.0625 19.2188 14.0625Z" fill="#252525"/>
</svg>
