<svg width="30" height="30" viewBox="0 0 30 30" fill="none" xmlns="http://www.w3.org/2000/svg">
<g clip-path="url(#clip0_3696_368)">
<path d="M25.246 24.837V29.5003H7.25244V24.837C7.27054 23.53 8.34459 22.485 9.65158 22.5028H22.8468L23.2467 22.5328C24.3871 22.7083 25.233 23.6832 25.246 24.837Z" fill="#607D8B"/>
<path d="M23.7465 24.837V29.5003H7.25244V24.837C7.27054 23.53 8.34459 22.485 9.65158 22.5028H21.3474L21.7473 22.5328C22.8877 22.7083 23.7336 23.6832 23.7465 24.837Z" fill="#CFD8DC"/>
<path d="M28.245 12.5064C28.2434 19.1307 22.8737 24.5004 16.2493 24.5021C15.9944 24.5021 15.7445 24.492 15.4996 24.477C9.18822 24.069 4.27783 18.8309 4.27783 12.5064C4.27783 6.18181 9.18822 0.943707 15.4996 0.535631C15.7445 0.520636 15.9944 0.51062 16.2493 0.51062C22.8744 0.510679 28.245 5.88133 28.245 12.5064Z" fill="#C52828"/>
<path d="M15.4994 24.477C21.7103 24.477 26.7453 19.1175 26.7453 12.5063C26.7453 5.8951 21.7103 0.535645 15.4994 0.535645C9.2884 0.535645 4.25342 5.8951 4.25342 12.5063C4.25342 19.1175 9.2884 24.477 15.4994 24.477Z" fill="#F44335"/>
<path d="M16.2491 15.0054C17.6293 15.0054 18.7482 13.8866 18.7482 12.5063C18.7482 11.1261 17.6293 10.0072 16.2491 10.0072C14.8689 10.0072 13.75 11.1261 13.75 12.5063C13.75 13.8866 14.8689 15.0054 16.2491 15.0054Z" fill="#FFEB3A"/>
<path d="M3.75366 18.5042H1.75439V21.5031H3.75366V18.5042Z" fill="#F44335"/>
<path d="M19.2478 12.5064C19.2478 10.8501 17.9052 9.50745 16.2489 9.50745C14.5927 9.50745 13.25 10.8501 13.25 12.5064C13.25 14.1626 14.5927 15.5053 16.2489 15.5053C17.9045 15.5036 19.2462 14.1619 19.2478 12.5064ZM14.2497 12.5064C14.2497 11.4022 15.1448 10.5071 16.2489 10.5071C17.3531 10.5071 18.2482 11.4022 18.2482 12.5064C18.2482 13.6105 17.3531 14.5056 16.2489 14.5056C15.1448 14.5056 14.2497 13.6105 14.2497 12.5064Z" fill="black"/>
<path d="M4.25326 21.3261V18.6811C4.25297 18.3075 3.95014 18.0047 3.57651 18.0044H1.7542C1.47814 18.0044 1.25439 18.2281 1.25439 18.5042V21.0033C1.25439 24.3106 3.72101 27.0011 6.75244 27.0011V29.5003C6.75244 29.7763 6.97624 30.0001 7.25224 30.0001H25.2458C25.5218 30.0001 25.7456 29.7763 25.7456 29.5003V24.8354C25.74 23.7154 25.0705 22.7054 24.0412 22.2638C28.1917 18.953 29.7968 13.3807 28.0435 8.36922C26.2902 3.35768 21.5615 0.00134758 16.2522 4.05696e-07C10.9428 -0.00134677 6.2124 3.35253 4.45656 8.36313C2.70073 13.3737 4.30293 18.9467 8.45181 22.2598C7.42632 22.7072 6.76035 23.7165 6.75244 24.8354V26.0014C4.58021 26.0014 2.76288 24.2815 2.34455 22.0028H3.57663C3.95014 22.0026 4.25302 21.6998 4.25326 21.3261ZM4.75312 12.5063C4.75312 6.15734 9.90002 1.01044 16.249 1.01044C22.598 1.01044 27.7449 6.15734 27.7449 12.5063C27.7449 18.8553 22.598 24.0022 16.249 24.0022C9.90283 23.9953 4.75997 18.8524 4.75312 12.5063ZM7.75204 24.8354C7.7709 23.8643 8.53469 23.0717 9.50442 23.017C13.612 25.6644 18.8885 25.6644 22.9961 23.017L23.169 23.03C24.0663 23.1636 24.7343 23.9283 24.746 24.8354V29.0003H7.75204V24.8354ZM3.25366 21.0032H2.254V19.004H3.25366V21.0032Z" fill="black"/>
<path d="M16.749 2.50993C16.749 2.23388 16.5252 2.01013 16.2492 2.01013C10.455 2.01675 5.75955 6.71217 5.75293 12.5064C5.75293 12.7824 5.97668 13.0062 6.25273 13.0062C6.52878 13.0062 6.75253 12.7824 6.75253 12.5064C6.75833 7.26393 11.0067 3.01553 16.2491 3.00979C16.5252 3.00973 16.749 2.78599 16.749 2.50993Z" fill="black"/>
</g>
<defs>
<clipPath id="clip0_3696_368">
<rect width="30" height="30" fill="white"/>
</clipPath>
</defs>
</svg>
