<svg width="50" height="50" viewBox="0 0 50 50" fill="none" xmlns="http://www.w3.org/2000/svg">
<g clip-path="url(#clip0_2180_1560)">
<path d="M49.1699 5.29883V39.5742C49.1699 42.042 47.1689 44.043 44.7012 44.043H42.5781H7.42188H5.29883C2.83105 44.043 0.830078 42.042 0.830078 39.5742V5.29883C0.830078 2.83105 2.83105 0.830078 5.29883 0.830078H44.7012C47.1689 0.830078 49.1699 2.83105 49.1699 5.29883Z" fill="#FE631A"/>
<path d="M25 40.7471C35.1126 40.7471 43.3105 32.5492 43.3105 22.4365C43.3105 12.3239 35.1126 4.12598 25 4.12598C14.8874 4.12598 6.68945 12.3239 6.68945 22.4365C6.68945 32.5492 14.8874 40.7471 25 40.7471Z" fill="#DADAEB"/>
<path d="M44.7754 6.68945C45.5844 6.68945 46.2402 6.03362 46.2402 5.22461C46.2402 4.4156 45.5844 3.75977 44.7754 3.75977C43.9664 3.75977 43.3105 4.4156 43.3105 5.22461C43.3105 6.03362 43.9664 6.68945 44.7754 6.68945Z" fill="#FED92C"/>
<path d="M44.7754 41.1133C45.5844 41.1133 46.2402 40.4574 46.2402 39.6484C46.2402 38.8394 45.5844 38.1836 44.7754 38.1836C43.9664 38.1836 43.3105 38.8394 43.3105 39.6484C43.3105 40.4574 43.9664 41.1133 44.7754 41.1133Z" fill="#FED92C"/>
<path d="M42.5781 44.043V47.4365C42.5781 48.3936 41.8018 49.1699 40.8447 49.1699H9.15527C8.19824 49.1699 7.42188 48.3936 7.42188 47.4365V44.043H42.5781Z" fill="#DADAEB"/>
<path d="M39.9795 22.1982C39.9805 22.2773 39.9814 22.3564 39.9814 22.4365C39.9814 27.8857 37.0566 32.665 32.6953 35.2861L32.6191 33.6113C32.4395 29.5879 30.3906 25.9326 27.1719 23.6679C27.3789 23.3047 27.4971 22.8847 27.4971 22.4365C27.4971 21.9746 27.3721 21.5429 27.1533 21.1719C30.7236 19.5156 34.9121 19.5703 38.4873 21.4258L39.9756 22.1982H39.9795Z" fill="#B9B9C8"/>
<path d="M39.9795 22.1982H39.9756L38.4873 21.4258C34.9121 19.5703 30.7236 19.5156 27.1533 21.1719C26.7197 20.4346 25.917 19.9395 25 19.9395C24.9932 19.9395 24.9873 19.9395 24.9805 19.9395C25.332 16.0176 27.4736 12.4189 30.8682 10.251L32.2812 9.34766L32.2822 9.34668C36.8066 11.874 39.8926 16.6787 39.9795 22.1982Z" fill="#9E9EB2"/>
<path d="M32.6191 33.6113L32.6953 35.2861C30.4453 36.6396 27.8115 37.418 25 37.418C22.3584 37.418 19.875 36.7314 17.7178 35.5264L17.7188 35.5254L19.1318 34.6221C22.5264 32.4541 24.668 28.8555 25.0195 24.9336C25.9424 24.9268 26.7461 24.4189 27.1719 23.668C30.3906 25.9326 32.4395 29.5879 32.6191 33.6113Z" fill="#9E9EB2"/>
<path d="M32.2822 9.34668L32.2813 9.34766L30.8682 10.251C27.4736 12.4189 25.332 16.0176 24.9805 19.9395C24.0576 19.9463 23.2539 20.4541 22.8281 21.2051C19.6094 18.9404 17.5605 15.2852 17.3809 11.2617L17.3047 9.58691C19.5547 8.2334 22.1885 7.45508 25 7.45508C27.6416 7.45508 30.125 8.1416 32.2822 9.34668Z" fill="#B9B9C8"/>
<path d="M27.1533 21.1719C27.3721 21.543 27.4971 21.9746 27.4971 22.4365C27.4971 22.8848 27.3789 23.3047 27.1719 23.668C26.7461 24.4189 25.9424 24.9268 25.0195 24.9336C25.0127 24.9336 25.0068 24.9336 25 24.9336C24.083 24.9336 23.2803 24.4385 22.8467 23.7012C22.6279 23.3301 22.5029 22.8984 22.5029 22.4365C22.5029 21.9883 22.6211 21.5684 22.8281 21.2051C23.2539 20.4541 24.0576 19.9463 24.9805 19.9395H25C25.917 19.9395 26.7197 20.4346 27.1533 21.1719Z" fill="#FED92C"/>
<path d="M25 24.9336H25.0195C24.668 28.8555 22.5264 32.4541 19.1318 34.6221L17.7188 35.5254L17.7178 35.5264C13.1934 32.999 10.1074 28.1943 10.0205 22.6748H10.0244L11.5127 23.4473C15.0879 25.3027 19.2764 25.3574 22.8467 23.7012C23.2803 24.4385 24.083 24.9336 25 24.9336Z" fill="#B9B9C8"/>
<path d="M22.8281 21.2051C22.6211 21.5684 22.5029 21.9883 22.5029 22.4365C22.5029 22.8984 22.6279 23.3301 22.8467 23.7012C19.2764 25.3574 15.0879 25.3027 11.5127 23.4473L10.0244 22.6748H10.0205C10.0195 22.5957 10.0186 22.5166 10.0186 22.4365C10.0186 16.9873 12.9434 12.208 17.3047 9.58691L17.3809 11.2617C17.5605 15.2852 19.6094 18.9404 22.8281 21.2051Z" fill="#9E9EB2"/>
<path d="M5.95703 6.68945C6.76604 6.68945 7.42188 6.03362 7.42188 5.22461C7.42188 4.4156 6.76604 3.75977 5.95703 3.75977C5.14802 3.75977 4.49219 4.4156 4.49219 5.22461C4.49219 6.03362 5.14802 6.68945 5.95703 6.68945Z" fill="#FED92C"/>
<path d="M5.95703 41.1133C6.76604 41.1133 7.42188 40.4574 7.42188 39.6484C7.42188 38.8394 6.76604 38.1836 5.95703 38.1836C5.14802 38.1836 4.49219 38.8394 4.49219 39.6484C4.49219 40.4574 5.14802 41.1133 5.95703 41.1133Z" fill="#FED92C"/>
<path d="M25 41.4795C14.4997 41.4795 5.95703 32.9368 5.95703 22.4365C5.95703 11.9362 14.4997 3.39355 25 3.39355C35.5003 3.39355 44.043 11.9362 44.043 22.4365C44.043 32.9368 35.5003 41.4795 25 41.4795ZM25 4.8584C15.3074 4.8584 7.42188 12.7439 7.42188 22.4365C7.42188 32.1291 15.3074 40.0146 25 40.0146C34.6926 40.0146 42.5781 32.1291 42.5781 22.4365C42.5781 12.7439 34.6926 4.8584 25 4.8584Z" fill="black"/>
<path d="M49.1699 16.1282C49.5744 16.1282 49.9023 15.8003 49.9023 15.3958C49.9023 14.9913 49.5744 14.6634 49.1699 14.6634C48.7654 14.6634 48.4375 14.9913 48.4375 15.3958C48.4375 15.8003 48.7654 16.1282 49.1699 16.1282Z" fill="black"/>
<path d="M18.4398 44.7754C18.8443 44.7754 19.1722 44.4475 19.1722 44.043C19.1722 43.6385 18.8443 43.3105 18.4398 43.3105C18.0353 43.3105 17.7074 43.6385 17.7074 44.043C17.7074 44.4475 18.0353 44.7754 18.4398 44.7754Z" fill="black"/>
<path d="M25 38.1503C16.3354 38.1503 9.28625 31.1011 9.28625 22.4365C9.28625 13.772 16.3354 6.72278 25 6.72278C33.6647 6.72278 40.7138 13.772 40.7138 22.4365C40.7138 31.1011 33.6647 38.1503 25 38.1503ZM25 8.18762C17.1431 8.18762 10.7511 14.5796 10.7511 22.4365C10.7511 30.2935 17.1431 36.6855 25 36.6855C32.857 36.6855 39.2489 30.2935 39.2489 22.4365C39.2489 14.5796 32.857 8.18762 25 8.18762Z" fill="black"/>
<path d="M24.9147 20.669C24.5117 20.6329 24.2145 20.277 24.2506 19.8741C24.6261 15.6872 26.9268 11.8991 30.474 9.63329L31.8864 8.73016C32.2271 8.5121 32.6801 8.6118 32.898 8.95262C33.1158 9.29335 33.0163 9.74628 32.6755 9.96415L31.2628 10.8675C28.1185 12.8761 26.0426 16.2919 25.7096 20.0049C25.6733 20.4085 25.3167 20.7053 24.9147 20.669Z" fill="black"/>
<path d="M22.4069 21.8038C18.988 19.3995 16.8355 15.4707 16.6489 11.2943L16.5735 9.61994C16.5552 9.21584 16.8681 8.87346 17.2721 8.8553C17.6776 8.83889 18.0186 9.14983 18.0367 9.55393L18.1122 11.2284C18.2787 14.9551 20.1992 18.4605 23.2495 20.6055C23.5804 20.8382 23.66 21.295 23.4273 21.6259C23.1951 21.9565 22.7385 22.037 22.4069 21.8038Z" fill="black"/>
<path d="M17.1669 25.6235C13.0806 25.5424 10.5495 23.6856 9.68671 23.3253C9.32763 23.1389 9.18779 22.6968 9.37402 22.3378C9.56035 21.9786 10.0025 21.839 10.3615 22.0251L11.8497 22.7974C15.1607 24.5158 19.1569 24.6052 22.5389 23.0372C22.906 22.867 23.3414 23.0266 23.5114 23.3934C23.6816 23.7604 23.5221 24.1959 23.1552 24.366C21.2462 25.2511 19.1646 25.6644 17.1669 25.6235Z" fill="black"/>
<path d="M17.102 35.9203C16.8842 35.5796 16.9837 35.1267 17.3245 34.9088L18.7372 34.0055C21.8815 31.9969 23.9574 28.5811 24.2904 24.8681C24.3265 24.4652 24.6834 24.1683 25.0853 24.204C25.4883 24.2402 25.7855 24.596 25.7494 24.9989C25.566 27.0439 24.9071 29.0549 23.8438 30.8144C21.7312 34.3102 18.8649 35.5698 18.1135 36.1429C17.9914 36.221 17.3213 36.2633 17.102 35.9203Z" fill="black"/>
<path d="M31.9633 35.3191L31.8878 33.6445C31.7213 29.9179 29.8008 26.4125 26.7505 24.2675C26.4196 24.0348 26.34 23.5779 26.5727 23.2471C26.8053 22.9162 27.2621 22.8365 27.5931 23.0694C31.0121 25.4737 33.1646 29.4025 33.3511 33.5789L33.4266 35.2532C33.4449 35.6573 33.132 35.9997 32.728 36.0179C32.3144 36.0353 31.9811 35.7152 31.9633 35.3191Z" fill="black"/>
<path d="M39.6384 22.8481L38.1502 22.0757C34.839 20.3572 30.8428 20.2678 27.461 21.836C27.0938 22.0062 26.6585 21.8465 26.4885 21.4797C26.3182 21.1127 26.4778 20.6773 26.8447 20.5072C30.666 18.7355 35.0968 18.8408 38.8249 20.7755L40.3132 21.5479C40.6722 21.7342 40.8121 22.1764 40.6259 22.5354C40.44 22.8936 39.9986 23.0347 39.6384 22.8481Z" fill="black"/>
<path d="M25 25.6658C23.2193 25.6658 21.7707 24.2172 21.7707 22.4365C21.7707 20.6558 23.2193 19.2072 25 19.2072C26.7807 19.2072 28.2293 20.6558 28.2293 22.4365C28.2293 24.2172 26.7807 25.6658 25 25.6658ZM25 20.6721C24.027 20.6721 23.2355 21.4636 23.2355 22.4365C23.2355 23.4095 24.027 24.201 25 24.201C25.9729 24.201 26.7644 23.4095 26.7644 22.4365C26.7644 21.4636 25.9729 20.6721 25 20.6721Z" fill="black"/>
<path d="M5.95703 7.42188C4.74551 7.42188 3.75977 6.43613 3.75977 5.22461C3.75977 4.01309 4.74551 3.02734 5.95703 3.02734C7.16855 3.02734 8.1543 4.01309 8.1543 5.22461C8.1543 6.43613 7.16855 7.42188 5.95703 7.42188ZM5.95703 4.49219C5.55312 4.49219 5.22461 4.8207 5.22461 5.22461C5.22461 5.62852 5.55312 5.95703 5.95703 5.95703C6.36094 5.95703 6.68945 5.62852 6.68945 5.22461C6.68945 4.8207 6.36094 4.49219 5.95703 4.49219Z" fill="black"/>
<path d="M44.7754 7.42188C43.5639 7.42188 42.5781 6.43613 42.5781 5.22461C42.5781 4.01309 43.5639 3.02734 44.7754 3.02734C45.9869 3.02734 46.9727 4.01309 46.9727 5.22461C46.9727 6.43613 45.9869 7.42188 44.7754 7.42188ZM44.7754 4.49219C44.3715 4.49219 44.043 4.8207 44.043 5.22461C44.043 5.62852 44.3715 5.95703 44.7754 5.95703C45.1793 5.95703 45.5078 5.62852 45.5078 5.22461C45.5078 4.8207 45.1793 4.49219 44.7754 4.49219Z" fill="black"/>
<path d="M5.95703 41.8457C4.74551 41.8457 3.75977 40.86 3.75977 39.6484C3.75977 38.4369 4.74551 37.4512 5.95703 37.4512C7.16855 37.4512 8.1543 38.4369 8.1543 39.6484C8.1543 40.86 7.16855 41.8457 5.95703 41.8457ZM5.95703 38.916C5.55312 38.916 5.22461 39.2445 5.22461 39.6484C5.22461 40.0523 5.55312 40.3809 5.95703 40.3809C6.36094 40.3809 6.68945 40.0523 6.68945 39.6484C6.68945 39.2445 6.36094 38.916 5.95703 38.916Z" fill="black"/>
<path d="M44.7754 41.8457C43.5639 41.8457 42.5781 40.86 42.5781 39.6484C42.5781 38.4369 43.5639 37.4512 44.7754 37.4512C45.9869 37.4512 46.9727 38.4369 46.9727 39.6484C46.9727 40.86 45.9869 41.8457 44.7754 41.8457ZM44.7754 38.916C44.3715 38.916 44.043 39.2445 44.043 39.6484C44.043 40.0523 44.3715 40.3809 44.7754 40.3809C45.1793 40.3809 45.5078 40.0523 45.5078 39.6484C45.5078 39.2445 45.1793 38.916 44.7754 38.916Z" fill="black"/>
<path d="M44.7012 44.7754H21.3691C20.9646 44.7754 20.6367 44.4476 20.6367 44.043C20.6367 43.6384 20.9646 43.3105 21.3691 43.3105H44.7012C46.7614 43.3105 48.4375 41.6345 48.4375 39.5742V18.3252C48.4375 17.9206 48.7653 17.5928 49.1699 17.5928C49.5745 17.5928 49.9023 17.9206 49.9023 18.3252V39.5742C49.9023 42.4421 47.569 44.7754 44.7012 44.7754Z" fill="black"/>
<path d="M15.5098 44.7754H5.29883C2.43096 44.7754 0.0976562 42.4421 0.0976562 39.5742V5.29883C0.0976562 2.43096 2.43096 0.0976562 5.29883 0.0976562H44.7012C47.569 0.0976562 49.9023 2.43096 49.9023 5.29883V12.4659C49.9023 12.8705 49.5745 13.1983 49.1699 13.1983C48.7653 13.1983 48.4375 12.8705 48.4375 12.4659V5.29883C48.4375 3.23857 46.7614 1.5625 44.7012 1.5625H5.29883C3.23857 1.5625 1.5625 3.23857 1.5625 5.29883V39.5742C1.5625 41.6345 3.23857 43.3105 5.29883 43.3105H15.5098C15.9144 43.3105 16.2422 43.6384 16.2422 44.043C16.2422 44.4476 15.9144 44.7754 15.5098 44.7754Z" fill="black"/>
<path d="M40.8447 49.9023H9.15527C7.79561 49.9023 6.68945 48.7962 6.68945 47.4365V44.043C6.68945 43.6384 7.01729 43.3105 7.42188 43.3105H15.5098C15.9144 43.3105 16.2422 43.6384 16.2422 44.043C16.2422 44.4476 15.9144 44.7754 15.5098 44.7754H8.1543V47.4365C8.1543 47.9885 8.60332 48.4375 9.15527 48.4375H40.8447C41.3967 48.4375 41.8457 47.9885 41.8457 47.4365V44.7754H21.3691C20.9646 44.7754 20.6367 44.4476 20.6367 44.043C20.6367 43.6384 20.9646 43.3105 21.3691 43.3105H42.5781C42.9827 43.3105 43.3105 43.6384 43.3105 44.043V47.4365C43.3105 48.7962 42.2044 49.9023 40.8447 49.9023Z" fill="black"/>
</g>
<defs>
<clipPath id="clip0_2180_1560">
<rect width="50" height="50" fill="white"/>
</clipPath>
</defs>
</svg>
