<svg width="30" height="30" viewBox="0 0 30 30" fill="none" xmlns="http://www.w3.org/2000/svg">
<g clip-path="url(#clip0_1799_288)">
<path d="M29.7653 12.3068C29.6949 11.8917 29.3019 11.6294 28.8918 11.7234L26.3237 12.3107C26.031 11.0734 25.5404 9.91267 24.8878 8.86338L27.1157 7.4553C27.4713 7.23099 27.5619 6.76643 27.3176 6.42397C27.3176 6.42397 26.9347 5.72138 25.6067 4.39358C24.2789 3.06549 23.5362 2.65493 23.5362 2.65493C23.1929 2.41139 22.7296 2.50384 22.506 2.86021L21.1048 5.0924C20.0534 4.44333 18.8913 3.95635 17.6528 3.66771L18.2322 1.09827C18.3248 0.687906 18.0611 0.29541 17.6461 0.22605C17.6461 0.22605 16.8784 0 15.0002 0C13.1221 0 12.3067 0.234937 12.3067 0.234937C11.892 0.30536 11.6293 0.698339 11.7233 1.10851L12.3108 3.67679C11.0735 3.9694 9.91296 4.45975 8.86357 5.1124L7.45559 2.88445C7.23089 2.52896 6.76671 2.43805 6.42426 2.68217C6.42426 2.68217 5.72157 3.06539 4.39348 4.39329C3.06558 5.72128 2.65493 6.46406 2.65493 6.46406C2.41139 6.80709 2.50374 7.27088 2.86011 7.49442L5.0924 8.89535C4.44333 9.94687 3.95645 11.1089 3.66771 12.3473L1.09818 11.7679C0.687906 11.6755 0.29541 11.9392 0.22605 12.3541C0.22605 12.3541 0 13.1218 0 15.0001C0 16.878 0.234841 17.6935 0.234841 17.6935C0.305264 18.1082 0.698339 18.3709 1.10851 18.2769L3.67669 17.6894C3.9693 18.9267 4.45975 20.0872 5.1124 21.1367L2.88445 22.5446C2.52886 22.7693 2.43805 23.2335 2.68236 23.5761C2.68236 23.5761 3.06529 24.2785 4.39338 25.6068C5.72119 26.9345 6.46396 27.3451 6.46396 27.3451C6.80709 27.5887 7.27069 27.4964 7.49432 27.14L8.89535 24.9078C9.94668 25.5571 11.1088 26.0438 12.3472 26.3327L11.7679 28.9019C11.6753 29.3123 11.9392 29.7048 12.3542 29.774C12.3542 29.774 13.1217 30.0002 15 30C16.8779 30 17.6934 29.7653 17.6934 29.7653C18.1082 29.6949 18.3708 29.3019 18.2768 28.8917L17.6893 26.3236C18.9266 26.031 20.0873 25.5403 21.1366 24.888L22.5446 27.1155C22.7691 27.4714 23.2334 27.5619 23.5759 27.3176C23.5759 27.3176 24.2784 26.9348 25.6065 25.6067C26.9343 24.2788 27.345 23.5361 27.345 23.5361C27.5885 23.1929 27.4963 22.7297 27.1399 22.506L24.9077 21.1048C25.5569 20.0535 26.0437 18.8913 26.3325 17.6528L28.9019 18.2321C29.3121 18.3249 29.7046 18.0608 29.7739 17.6459C29.7739 17.6459 29.9999 16.8784 29.9999 15.0002C30.0002 13.1223 29.7653 12.3068 29.7653 12.3068ZM15.0001 18.4758C13.0806 18.4758 11.5245 16.9198 11.5245 15.0001C11.5245 13.0806 13.0805 11.5245 15.0001 11.5245C16.9198 11.5245 18.4759 13.0805 18.4759 15.0001C18.4759 16.9197 16.9198 18.4758 15.0001 18.4758Z" fill="#A4A9AD"/>
<path d="M15.0003 9.28494C11.8439 9.28494 9.28516 11.8437 9.28516 15.0001C9.28516 18.1565 11.8439 20.7153 15.0003 20.7153C18.1566 20.7153 20.7155 18.1565 20.7155 15.0001C20.7156 11.8438 18.1566 9.28494 15.0003 9.28494ZM15.0003 18.4758C13.0807 18.4758 11.5246 16.9198 11.5246 15.0001C11.5246 13.0806 13.0806 11.5245 15.0003 11.5245C16.9199 11.5245 18.476 13.0805 18.476 15.0001C18.476 16.9197 16.9199 18.4758 15.0003 18.4758Z" fill="#333E48"/>
</g>
<defs>
<clipPath id="clip0_1799_288">
<rect width="30" height="30" fill="white"/>
</clipPath>
</defs>
</svg>
