<svg width="30" height="30" viewBox="0 0 30 30" fill="none" xmlns="http://www.w3.org/2000/svg">
<g clip-path="url(#clip0_1799_210)">
<path d="M17.1775 9.19342H12.8228V13.5757H17.1775V9.19342Z" fill="#E6AF78"/>
<path d="M12.8226 11.2077C13.4897 11.4669 14.2253 11.613 15 11.613C15.7747 11.613 16.5103 11.4669 17.1774 11.2077V9.1936H12.8225L12.8226 11.2077Z" fill="#D29B6E"/>
<path d="M13.5485 0C11.9451 0 10.6453 1.29985 10.6453 2.90323V4.21064C10.6453 4.62666 10.7124 5.03992 10.8438 5.43461L11.0546 6.06696C11.1039 6.21491 11.1291 6.36989 11.1291 6.52587L11.1291 6.77425H18.8711V6.52593C18.8711 6.36989 18.8963 6.21491 18.9456 6.0669L19.1564 5.43467C19.2879 5.03998 19.355 4.6266 19.355 4.21058V0.967742C19.355 0.433304 18.9217 0 18.3872 0H13.5485Z" fill="#694B4B"/>
<path d="M10.645 2.90323V4.21064C10.645 4.62666 10.7121 5.03998 10.8437 5.43461L11.0544 6.06696C11.1038 6.21491 11.1289 6.36989 11.1289 6.52587L11.1289 6.77425H14.0322V3.3871C13.1768 3.3871 12.4833 2.69363 12.4833 1.83816C12.4832 0.822956 13.3063 0 14.3215 0H13.5483C11.9449 0 10.645 1.2998 10.645 2.90323Z" fill="#5A4146"/>
<path d="M8.22583 17.9033V14.9885C8.22583 14.1338 8.78646 13.3802 9.6052 13.1347L13.0646 12.0968L15.0001 13.5761L16.9356 12.0969L20.395 13.1347C21.2136 13.3803 21.7743 14.1339 21.7743 14.9886V17.9034C21.7743 18.1706 21.5577 18.3873 21.2905 18.3873H8.7097C8.44245 18.3872 8.22583 18.1706 8.22583 17.9033Z" fill="#707487"/>
<path d="M15.3629 14.0324H14.637L14.2742 18.3872H15.7258L15.3629 14.0324Z" fill="#00C3FF"/>
<path d="M8.57072 13.8933C8.35368 14.2085 8.22583 14.5861 8.22583 14.9886V17.9034C8.22583 18.1706 8.44245 18.3872 8.7097 18.3872H10.6452V16.5691C10.6452 16.1841 10.4923 15.8149 10.22 15.5427L8.57072 13.8933Z" fill="#5B5D6E"/>
<path d="M21.4294 13.8933C21.6465 14.2085 21.7743 14.5861 21.7743 14.9886V17.9034C21.7743 18.1706 21.5577 18.3872 21.2905 18.3872H19.355V16.5691C19.355 16.1841 19.5079 15.8149 19.7801 15.5427L21.4294 13.8933Z" fill="#5B5D6E"/>
<path d="M15.4355 14.7582H14.5645C14.4042 14.7582 14.2742 14.6282 14.2742 14.4679V13.5762H15.7258V14.4679C15.7258 14.6282 15.5959 14.7582 15.4355 14.7582Z" fill="#0096DC"/>
<path d="M12.4829 11.7549L11.991 12.4221L13.1492 14.0981C13.3045 14.3228 13.6373 14.3877 13.8833 14.2412L15.0001 13.5761L12.9726 11.7135C12.832 11.5844 12.5938 11.6045 12.4829 11.7549Z" fill="#5B5D6E"/>
<path d="M17.5171 11.7549L18.0091 12.4221L16.8509 14.0981C16.6956 14.3228 16.3627 14.3877 16.1168 14.2412L15 13.5761L17.0275 11.7135C17.168 11.5844 17.4062 11.6045 17.5171 11.7549Z" fill="#5B5D6E"/>
<path d="M17.708 4.44842C15.8098 3.07638 13.4076 3.36115 12.4833 3.54097C12.2573 3.58492 12.0966 3.7849 12.0966 4.01512V5.50745C12.0966 5.69074 11.9931 5.85826 11.8292 5.94023L11.3964 6.15662C11.2324 6.23859 11.1289 6.40611 11.1289 6.5894V6.6416C11.1289 8.69832 12.8048 10.5553 14.8596 10.6431C17.0615 10.7372 18.8709 8.95865 18.8709 6.7742V6.5894C18.8709 6.40611 18.7674 6.23859 18.6034 6.15662L18.1706 5.94023C18.0067 5.85826 17.9032 5.6912 17.9032 5.50792V4.89163C17.9032 4.68608 17.8324 4.5383 17.708 4.44842Z" fill="#F0C087"/>
<path d="M17.9033 4.89162C17.9033 4.68607 17.8326 4.53824 17.7082 4.44835C16.1273 3.30565 14.1998 3.31262 13.0646 3.45061C12.8368 3.47833 12.638 3.51085 12.4835 3.5409C12.2576 3.58491 12.0969 3.78483 12.0969 4.01505V5.50738C12.0969 5.69067 11.9934 5.85819 11.8294 5.94016L11.3966 6.15655C11.2327 6.23852 11.1292 6.4061 11.1292 6.58939V6.64159C11.1292 8.50647 12.5083 10.2024 14.2972 10.5689C13.5405 9.8624 13.0646 8.85891 13.0646 7.74199V5.04133C13.0646 4.62771 13.3943 4.29196 13.8078 4.2823C14.9692 4.25505 16.7102 4.32771 17.9033 4.89162Z" fill="#E6AF78"/>
<path d="M15 30C15.5344 30 15.9677 29.5667 15.9677 29.0323C15.9677 28.4978 15.5344 28.0645 15 28.0645C14.4655 28.0645 14.0322 28.4978 14.0322 29.0323C14.0322 29.5667 14.4655 30 15 30Z" fill="#FF507D"/>
<path d="M5.80661 30C6.34108 30 6.77435 29.5667 6.77435 29.0323C6.77435 28.4978 6.34108 28.0645 5.80661 28.0645C5.27214 28.0645 4.83887 28.4978 4.83887 29.0323C4.83887 29.5667 5.27214 30 5.80661 30Z" fill="#A98300"/>
<path d="M24.1933 30C24.7278 30 25.1611 29.5667 25.1611 29.0323C25.1611 28.4978 24.7278 28.0645 24.1933 28.0645C23.6589 28.0645 23.2256 28.4978 23.2256 29.0323C23.2256 29.5667 23.6589 30 24.1933 30Z" fill="#77B81D"/>
<path d="M22.8591 26.332L20.1827 22.5847C19.8203 22.0773 19.2315 21.7743 18.6077 21.7743H15.4838V21.2905C15.4838 21.0233 15.2673 20.8066 14.9999 20.8066C14.7325 20.8066 14.5161 21.0233 14.5161 21.2905V21.7743H11.3921C10.7684 21.7743 10.1796 22.0772 9.81715 22.585L7.14074 26.332C6.98529 26.5493 7.03586 26.8515 7.25318 27.007C7.47057 27.1619 7.77297 27.1118 7.92795 26.8943L10.6044 23.1475C10.7858 22.8935 11.0802 22.7421 11.3921 22.7421H14.5161V26.1292C14.5161 26.3964 14.7325 26.6131 14.9999 26.6131C15.2673 26.6131 15.4838 26.3964 15.4838 26.1292V22.7421H18.6077C18.9196 22.7421 19.214 22.8936 19.3955 23.1473L22.0719 26.8943C22.1664 27.0266 22.3148 27.097 22.466 27.097C22.5633 27.097 22.6616 27.0677 22.7467 27.007C22.964 26.8515 23.0146 26.5493 22.8591 26.332Z" fill="#2F509F"/>
</g>
<defs>
<clipPath id="clip0_1799_210">
<rect width="30" height="30" fill="white"/>
</clipPath>
</defs>
</svg>
