<svg width="22" height="24" viewBox="0 0 22 24" fill="none" xmlns="http://www.w3.org/2000/svg">
<path d="M22 9.99984C22 5.15192 20.423 -6.89318e-08 17.5001 -1.96698e-07C14.6281 -3.22235e-07 13.0381 5.06592 13.0001 9.83984L13.0001 9.99984C13.0001 14.8478 14.5771 19.9997 17.5001 19.9997C20.423 19.9997 22 14.8478 22 9.99984ZM15.5001 9.99984C15.5001 7.69288 16.0241 4.99992 17.5001 4.99992C18.976 4.99992 19.5 7.69288 19.5 9.99984C19.5 12.3068 18.976 14.9998 17.5001 14.9998C16.0241 14.9998 15.5001 12.3068 15.5001 9.99984Z" fill="#A7A7A7"/>
<path d="M5.39614 23.8296L6.75012 22.7196L8.1041 23.8296C8.38009 24.0566 8.77709 24.0566 9.05408 23.8306L10.4181 22.7186L11.774 23.8296C11.999 24.0136 12.309 24.0516 12.57 23.9276C12.833 23.8036 13 23.5396 13 23.2496L13 16.6217C12.325 14.6698 12 12.2978 12 9.99984L12 9.83985C12.031 5.94791 13.005 1.84297 15.037 0L5.25014 -4.27797e-07C2.54219 -5.46165e-07 0.50022 4.40593 0.50022 10.2498L0.500219 23.2496C0.500219 23.5396 0.667218 23.8036 0.929213 23.9276C1.19121 24.0516 1.5012 24.0136 1.7252 23.8296L3.08118 22.7186L4.44516 23.8306C4.72315 24.0566 5.12014 24.0566 5.39614 23.8296Z" fill="#49BEFF"/>
<path d="M14 19.9996L15.021 19.9996C14.639 19.6536 14.307 19.2077 14 18.7187L14 19.9996Z" fill="#49BEFF"/>
</svg>
