<svg width="12" height="12" viewBox="0 0 12 12" fill="none" xmlns="http://www.w3.org/2000/svg">
<g clip-path="url(#clip0)">
<path d="M6.46824 9.33354L11.8083 3.99339C11.9319 3.86988 12 3.705 12 3.5292C12 3.35339 11.9319 3.18852 11.8083 3.06501L11.4151 2.67174C11.1589 2.41584 10.7425 2.41584 10.4867 2.67174L6.00249 7.156L1.51326 2.66677C1.38965 2.54325 1.22487 2.47506 1.04916 2.47506C0.873261 2.47506 0.708482 2.54325 0.584775 2.66677L0.191706 3.06003C0.0680971 3.18364 0 3.34842 0 3.52422C0 3.70003 0.0680971 3.8649 0.191706 3.98841L5.53664 9.33354C5.66064 9.45735 5.8262 9.52534 6.00219 9.52495C6.17888 9.52534 6.34434 9.45735 6.46824 9.33354Z" fill="white"/>
</g>
<defs>
<clipPath id="clip0">
<rect width="12" height="12" fill="white" transform="translate(12) rotate(90)"/>
</clipPath>
</defs>
</svg>
