<svg width="24" height="24" viewBox="0 0 24 24" fill="none" xmlns="http://www.w3.org/2000/svg">
<path d="M23.0731 22.8H21.8209V13.9304C21.8204 13.4324 21.6223 12.955 21.2702 12.6029C20.918 12.2508 20.4406 12.0527 19.9426 12.0522H15.8036V10.8H19.9426C20.7726 10.8009 21.5683 11.131 22.1552 11.7179C22.742 12.3048 23.0721 13.1005 23.0731 13.9304V22.8Z" fill="#3C8DBC"/>
<path d="M0.927002 22.8H2.17918V13.9304C2.17973 13.4324 2.37779 12.955 2.72992 12.6029C3.08204 12.2508 3.55946 12.0527 4.05744 12.0522H8.1965V10.8H4.05744C3.22748 10.8009 2.43179 11.131 1.84492 11.7179C1.25806 12.3048 0.927941 13.1005 0.927002 13.9304V22.8Z" fill="#3C8DBC"/>
<path d="M11.3739 0H12.6261V1.80334H11.3739V0Z" fill="#367FA8"/>
<path d="M4.31873 3.69226H19.6819V23.3739H4.31873V3.69226Z" fill="#367FA8"/>
<path d="M6.82307 1.2522H17.1773C17.8415 1.2522 18.4785 1.51605 18.9481 1.9857C19.4178 2.45536 19.6817 3.09235 19.6817 3.75655V4.38263H4.31873V3.75655C4.31873 3.09235 4.58258 2.45536 5.05223 1.9857C5.52189 1.51605 6.15888 1.2522 6.82307 1.2522Z" fill="#367FA8"/>
<path d="M0 22.7478H24V24H0V22.7478Z" fill="#367FA8"/>
<path d="M3.69226 3.69226H20.3076V4.94443H3.69226V3.69226Z" fill="#367FA8"/>
</svg>
