<svg width="18" height="18" viewBox="0 0 18 18" fill="none" xmlns="http://www.w3.org/2000/svg">
<path d="M17.8558 7.1859L17.3285 6.27887C17.1914 6.02575 16.8645 5.94137 16.6113 6.07848L15.7148 6.60582C15.4195 6.3527 15.0925 6.16289 14.7234 6.02575V5.30859C14.7234 5.01325 14.4914 4.78125 14.1961 4.78125H13.1414C12.8461 4.78125 12.6141 5.01325 12.6141 5.30859V6.02578C12.245 6.16289 11.918 6.35273 11.6227 6.60586L10.4414 5.93086L9.38672 7.76602L10.568 8.41999C10.5258 8.60984 10.5047 8.79968 10.5047 9.00007C10.5047 9.20046 10.5258 9.39031 10.5574 9.58015L9.38672 10.2341L10.4414 12.0692L11.6227 11.3942C11.918 11.6474 12.245 11.8372 12.6141 11.9743V12.6914C12.6141 12.9867 12.8461 13.2188 13.1414 13.2188H14.1961C14.4914 13.2188 14.7234 12.9867 14.7234 12.6914V11.9742C15.0925 11.8371 15.4195 11.6473 15.7148 11.3941L16.6113 11.9214C16.8645 12.0586 17.1914 11.9742 17.3285 11.7211L17.8558 10.814C18.0035 10.5609 17.9192 10.2339 17.666 10.0863L16.7801 9.58008C16.8117 9.39023 16.8328 9.20039 16.8328 9C16.8328 8.79961 16.8117 8.60977 16.7695 8.41992L17.666 7.91364C17.9192 7.76598 18.0035 7.43903 17.8558 7.1859ZM15.6199 8.31442L13.5105 10.4238C13.4156 10.5293 13.2785 10.582 13.1414 10.582C13.0043 10.582 12.8672 10.5293 12.7723 10.4238L11.7176 9.36911C11.5067 9.16871 11.5067 8.83121 11.7176 8.63082C11.918 8.41992 12.2554 8.41992 12.4559 8.63082L13.1414 9.30582L14.8817 7.57614C15.0821 7.36523 15.4195 7.36523 15.62 7.57614C15.8309 7.77653 15.8309 8.11403 15.6199 8.31442Z" fill="#367FA8"/>
<path d="M7.98329 10.6914L6.82735 11.3519C6.532 11.0988 6.20505 10.909 5.83594 10.7718V9.52734H3.72657V10.7719C3.35747 10.909 3.03051 11.0988 2.73517 11.352L1.83872 10.8246C1.58552 10.6875 1.2586 10.7719 1.12153 11.025L0.594187 11.932C0.446531 12.1852 0.530835 12.5121 0.78403 12.6598L1.68048 13.166C1.63833 13.3559 1.6172 13.5457 1.6172 13.7461C1.6172 13.9465 1.63833 14.1363 1.66993 14.3262L0.78403 14.8324C0.530835 14.98 0.446531 15.307 0.594187 15.5601L1.12153 16.4672C1.25857 16.7203 1.58552 16.8047 1.83872 16.6675L2.73517 16.1402C3.03051 16.3934 3.35747 16.5832 3.72657 16.7203V17.4375C3.72657 17.7328 3.95857 18 4.25391 18H5.3086C5.60395 18 5.83594 17.7328 5.83594 17.4375V16.7203C6.20505 16.5832 6.532 16.3934 6.82735 16.1402L7.7238 16.6675C7.97699 16.8047 8.30391 16.7203 8.44099 16.4672L8.96833 15.5601C9.11598 15.307 9.03168 14.98 8.77849 14.8324L7.89258 14.3262C7.92419 14.1363 7.94532 13.9465 7.94532 13.7461C7.94532 13.5457 7.92419 13.3559 7.88204 13.166L9.03752 12.5263L7.98329 10.6914ZM6.73612 13.0642L4.62675 15.1736C4.52374 15.2766 4.38881 15.3281 4.25391 15.3281C4.11902 15.3281 3.98406 15.2766 3.88108 15.1736L2.8264 14.1189C2.62042 13.9129 2.62042 13.5792 2.8264 13.3732C3.03238 13.1672 3.36611 13.1672 3.57209 13.3732L4.25391 14.0551L5.99046 12.3185C6.19644 12.1126 6.53017 12.1126 6.73615 12.3185C6.94214 12.5245 6.94213 12.8583 6.73612 13.0642Z" fill="#367FA8"/>
<path d="M5.83594 8.47266V7.22813C6.20505 7.09102 6.532 6.90117 6.82735 6.64801L7.98336 7.3086L9.03759 5.47351L7.89258 4.83398C7.92419 4.64414 7.94532 4.4543 7.94532 4.25391C7.94532 4.05352 7.92419 3.86367 7.88204 3.67383L8.77849 3.16754C9.03168 3.01989 9.11598 2.69293 8.96833 2.43981L8.44099 1.53278C8.30395 1.27965 7.97699 1.19528 7.7238 1.33239L6.82735 1.85973C6.532 1.60661 6.20505 1.4168 5.83594 1.27965V0.527344C5.83594 0.231996 5.60395 0 5.3086 0H4.25391C3.95857 0 3.72657 0.231996 3.72657 0.527344V1.27969C3.35747 1.4168 3.03051 1.60664 2.73517 1.85977L1.83872 1.33242C1.58552 1.19531 1.2586 1.27969 1.12153 1.53281L0.594187 2.43984C0.446531 2.69297 0.530835 3.01992 0.78403 3.16758L1.68048 3.67383C1.63833 3.86367 1.6172 4.05352 1.6172 4.25391C1.6172 4.4543 1.63833 4.64414 1.66993 4.83398L0.78403 5.3402C0.530835 5.48786 0.446531 5.81481 0.594187 6.06793L1.12153 6.97496C1.25857 7.22816 1.58552 7.31246 1.83872 7.17536L2.73517 6.64801C3.03051 6.90117 3.35747 7.09102 3.72657 7.22813V8.47266H5.83594ZM2.83012 4.62301C2.61919 4.42262 2.61919 4.08512 2.83012 3.88473C3.03051 3.67383 3.36794 3.67383 3.56837 3.88473L4.25395 4.55973L5.99422 2.83004C6.19461 2.61914 6.53204 2.61914 6.73246 2.83004C6.9434 3.03043 6.9434 3.36793 6.73246 3.56832L4.62309 5.6777C4.52813 5.7832 4.39102 5.83594 4.25391 5.83594C4.11681 5.83594 3.9797 5.7832 3.88481 5.6777L2.83012 4.62301Z" fill="#367FA8"/>
</svg>
