<svg width="20" height="20" viewBox="0 0 20 20" fill="none" xmlns="http://www.w3.org/2000/svg">
<path d="M3.15416 7.05882H0V9.99999H6.68357L3.15416 7.05882Z" fill="#2EBFE0"/>
<path d="M0 13.5294H2.94118V16.5718C2.25651 16.8146 1.76471 17.4684 1.76471 18.2353C1.76471 19.2084 2.55639 20 3.52941 20C4.50247 20 5.29412 19.2084 5.29412 18.2353C5.29412 17.4684 4.80231 16.8146 4.11765 16.5718V15.8824H15.8824V16.5718C15.1977 16.8146 14.7059 17.4684 14.7059 18.2353C14.7059 19.2084 15.4976 20 16.4706 20C17.4437 20 18.2353 19.2084 18.2353 18.2353C18.2353 17.4684 17.7435 16.8146 17.0588 16.5718V13.5294H20V11.1765H0V13.5294ZM15.8824 14.7059H4.11765V13.5294H15.8824V14.7059Z" fill="#2EBFE0"/>
<path d="M16.4708 0H12.9414V2.94118C12.9414 3.70804 13.4332 4.36188 14.1179 4.60471V5.88235H15.2944V4.60471C15.979 4.36188 16.4708 3.70804 16.4708 2.94118V1.17647H17.6473V10H18.8238V1.17647H20.0002V0H16.4708Z" fill="#2EBFE0"/>
<path d="M8.82393 9.41177C8.82393 9.08742 9.08785 8.82354 9.41217 8.82354H10.0004V10H11.1769V8.82354H12.3533V10H13.5298V8.82354H14.118C14.4424 8.82354 14.7063 9.08742 14.7063 9.41177V10H15.8828V9.41177C15.8828 8.43875 15.0911 7.64706 14.118 7.64706H9.41217C8.43915 7.64706 7.64746 8.43875 7.64746 9.41177V10H8.82393V9.41177Z" fill="#2EBFE0"/>
</svg>
