<svg width="18" height="18" viewBox="0 0 18 18" fill="none" xmlns="http://www.w3.org/2000/svg">
<path d="M5.00879 10.657H12.9916V11.8617H5.00879V10.657Z" fill="white"/>
<path d="M6.13818 12.9164H11.8617V18H6.13818V12.9164Z" fill="white"/>
<path d="M11.8616 8.99999C11.8616 7.42203 10.5779 6.13826 8.99991 6.13826C7.20265 6.11692 5.80632 7.85245 6.20172 9.60232H11.7981C11.8403 9.40545 11.8616 9.20393 11.8616 8.99999Z" fill="white"/>
<path d="M17.9999 9C17.9999 4.02943 13.9705 0 8.99993 0C-0.603634 0.124453 -3.39465 12.919 5.08352 17.1053V12.9164H4.48119C4.18996 12.9164 3.95385 12.6803 3.95385 12.3891V10.1297C3.95385 9.83844 4.18996 9.60233 4.48119 9.60233H5.13049C4.74588 7.26057 6.62467 5.06264 8.99993 5.08359C11.3749 5.06254 13.2544 7.26071 12.8694 9.60233H13.5187C13.8099 9.60233 14.046 9.83844 14.046 10.1297V12.3891C14.046 12.6803 13.8099 12.9164 13.5187 12.9164H12.9163V17.1053C15.925 15.6489 17.9999 12.5668 17.9999 9ZM3.59641 8.71759C3.56853 9.41727 2.56932 9.41674 2.54173 8.71759V7.02306C2.5696 6.32338 3.56881 6.32391 3.59641 7.02306V8.71759ZM9.84719 3.59648H8.15266C7.45298 3.56861 7.45351 2.56939 8.15266 2.5418H9.84719C10.5469 2.56964 10.5463 3.56889 9.84719 3.59648ZM14.9308 9.24493C14.6396 9.24493 14.4034 9.00882 14.4034 8.71759V7.02306C14.4313 6.32338 15.4305 6.32391 15.4581 7.02306V8.71759C15.4581 9.00882 15.222 9.24493 14.9308 9.24493Z" fill="white"/>
<path d="M0 13.4863V17.4727C0 17.7639 0.236109 18 0.527344 18H4.51371C2.56331 17.0259 0.974109 15.4367 0 13.4863Z" fill="white"/>
<path d="M13.4863 18H17.4727C17.7639 18 18 17.7639 18 17.4727V13.4863C17.0259 15.4367 15.4367 17.0259 13.4863 18Z" fill="white"/>
</svg>
