<svg width="24" height="24" viewBox="0 0 24 24" fill="none" xmlns="http://www.w3.org/2000/svg">
<g clip-path="url(#clip0)">
<path d="M5.69783 0H0.0469971V3.38724H3.25428V4.79533H0.0469971V6.55074H2.58286V7.95882H0.0469971V9.71424H3.25428V11.1223H0.0469971V12.8777H2.08342V14.2858H0.0469971V16.0412H3.25428V17.4493H0.0469971V19.2047H2.08342V20.6128H0.0469971V24H5.69783V0Z" fill="white"/>
<path d="M23.249 6.2112C22.5895 6.2112 22.2883 6.04336 21.9069 5.83083C21.4604 5.58207 20.9047 5.27248 19.8794 5.27248C18.8541 5.27248 18.2984 5.58207 17.8519 5.83083C17.4706 6.04331 17.1693 6.2112 16.5098 6.2112C15.8503 6.2112 15.5491 6.04336 15.1677 5.83088C14.7212 5.58207 14.1655 5.27248 13.1403 5.27248C12.1151 5.27248 11.5594 5.58211 11.113 5.83088C10.7316 6.04336 10.4304 6.2112 9.77096 6.2112C9.11156 6.2112 8.81037 6.04336 8.42906 5.83088C8.0975 5.64609 7.70549 5.42788 7.10583 5.32777V9.09444C7.70549 9.19456 8.0975 9.41277 8.42906 9.59755C8.81041 9.81003 9.1116 9.97788 9.77096 9.97788C10.4304 9.97788 10.7316 9.81003 11.113 9.59755C11.5594 9.34879 12.1151 9.03915 13.1403 9.03915C14.1656 9.03915 14.7213 9.34874 15.1677 9.59755C15.5491 9.81003 15.8503 9.97788 16.5098 9.97788C17.1693 9.97788 17.4706 9.81003 17.8519 9.59751C18.2984 9.34874 18.8541 9.03915 19.8794 9.03915C20.9047 9.03915 21.4604 9.34874 21.9069 9.59751C22.2882 9.80999 22.5895 9.97788 23.249 9.97788H23.953V6.2112H23.249Z" fill="white"/>
<path d="M23.9531 14.9864C23.2537 14.9864 22.9045 14.816 22.5023 14.6001C22.0423 14.3542 21.4702 14.0477 20.4179 14.0477C19.3651 14.0477 18.7929 14.3542 18.333 14.6001C17.9307 14.816 17.613 14.9864 16.9136 14.9864C16.2143 14.9864 15.8965 14.816 15.4938 14.6001C15.0343 14.3542 14.4621 14.0477 13.4094 14.0477C12.3566 14.0477 11.7849 14.3542 11.3249 14.6001C10.9227 14.816 10.6049 14.9864 9.90558 14.9864C9.20623 14.9864 8.88847 14.816 8.48623 14.6001C8.14125 14.4157 7.7329 14.197 7.10583 14.0993V10.5359C7.3438 10.6049 7.53155 10.7096 7.7437 10.8274C8.19006 11.0762 8.74578 11.386 9.77087 11.386C10.7964 11.386 11.3521 11.0762 11.7985 10.8274C12.1796 10.6153 12.481 10.4472 13.1404 10.4472C13.7999 10.4472 14.1012 10.6153 14.4823 10.8274C14.9287 11.0766 15.4844 11.386 16.51 11.386C17.535 11.386 18.0908 11.0766 18.5371 10.8274C18.9187 10.6153 19.2201 10.4472 19.8795 10.4472C20.539 10.4472 20.8403 10.6153 21.2214 10.8274C21.6682 11.0766 22.224 11.386 23.2491 11.386H23.9531V14.9864Z" fill="white"/>
<path d="M23.9531 24H7.10583V15.5337C7.37806 15.6041 7.58505 15.7148 7.82114 15.8416C8.28065 16.0875 8.8528 16.3945 9.90558 16.3945C10.9584 16.3945 11.5305 16.0875 11.99 15.8416C12.3923 15.6257 12.71 15.4557 13.4094 15.4557C14.1087 15.4557 14.4265 15.6257 14.8292 15.8416C15.2887 16.0875 15.8608 16.3945 16.9136 16.3945C17.9664 16.3945 18.5385 16.0875 18.998 15.8416C19.4003 15.6257 19.7185 15.4557 20.4179 15.4557C21.1167 15.4557 21.435 15.6257 21.8372 15.8416C22.2967 16.0875 22.9003 16.3945 23.9531 16.3945V24Z" fill="white"/>
</g>
<defs>
<clipPath id="clip0">
<rect width="24" height="24" fill="white"/>
</clipPath>
</defs>
</svg>
