<svg width="18" height="18" viewBox="0 0 18 18" fill="none" xmlns="http://www.w3.org/2000/svg">
<path d="M7.37432 3.28279L7.17122 4.46727C7.13729 4.66513 7.21861 4.86506 7.381 4.98305C7.47286 5.04977 7.58167 5.08373 7.691 5.08373C7.77496 5.08373 7.85923 5.06373 7.93636 5.02313L9.00001 4.46393L10.0638 5.0232C10.1409 5.06373 10.2252 5.08377 10.3092 5.08377H10.3106C10.6015 5.08338 10.8373 4.84741 10.8373 4.55643C10.8373 4.51596 10.8327 4.47648 10.824 4.43858L10.6257 3.28275L11.4863 2.44396C11.63 2.30386 11.6817 2.09429 11.6197 1.90339C11.5577 1.71246 11.3926 1.57331 11.194 1.54448L10.0048 1.37166L9.4729 0.293906C9.38406 0.113941 9.20072 0 8.99994 0C8.79923 0 8.61589 0.113977 8.52712 0.293977L7.99532 1.37162L6.80598 1.54445C6.60738 1.57328 6.44232 1.71243 6.38034 1.90336C6.31826 2.09426 6.37004 2.30382 6.51376 2.44392L7.37432 3.28279Z" fill="#0C9F29"/>
<path d="M17.0118 13.0076C16.2951 13.6086 15.372 13.9711 14.3657 13.9711C14.0303 13.9711 13.7041 13.9306 13.3917 13.8546C13.5833 14.3656 13.6883 14.9186 13.6883 15.4957V16.0605C13.6883 16.7999 13.4184 17.477 12.9727 18H16.0602C17.1297 18 17.9997 17.13 17.9997 16.0605V15.4957C17.9997 14.5339 17.624 13.6583 17.0118 13.0076Z" fill="#C9AAAA"/>
<path d="M8.99984 12.9164C10.6921 12.9164 12.0689 11.5396 12.0689 9.84728C12.0689 8.15492 10.6921 6.77814 8.99984 6.77814C7.30749 6.77814 5.93066 8.15492 5.93066 9.84728C5.93066 11.5396 7.30752 12.9164 8.99984 12.9164Z" fill="#0C9F29"/>
<path d="M14.3662 12.9164C16.0586 12.9164 17.4353 11.5396 17.4353 9.84728C17.4353 8.15492 16.0586 6.77814 14.3662 6.77814C13.6139 6.77814 12.9241 7.05039 12.3896 7.5013C12.8523 8.16772 13.124 8.97632 13.124 9.84724C13.124 10.7182 12.8523 11.5268 12.3896 12.1932C12.9241 12.6442 13.6139 12.9164 14.3662 12.9164Z" fill="#C9AAAA"/>
<path d="M3.63356 12.9164C4.3859 12.9164 5.0757 12.6442 5.61011 12.1932C5.14742 11.5268 4.87577 10.7182 4.87577 9.84725C4.87577 8.97632 5.14742 8.16773 5.61011 7.5013C5.07574 7.05039 4.38594 6.77814 3.63356 6.77814C1.94124 6.77814 0.564453 8.15493 0.564453 9.84728C0.564453 11.5397 1.94128 12.9164 3.63356 12.9164Z" fill="#C9AAAA"/>
<path d="M9.00021 13.9711C7.99393 13.9711 7.0708 13.6086 6.35417 13.0076C5.74196 13.6583 5.36621 14.5339 5.36621 15.4957V16.0605C5.36621 17.13 6.23626 18 7.30564 18H10.6947C11.7642 18 12.6341 17.13 12.6341 16.0605V15.4957C12.6341 14.5339 12.2584 13.6583 11.6462 13.0076C10.9295 13.6086 10.0065 13.9711 9.00021 13.9711Z" fill="#0C9F29"/>
<path d="M4.31132 15.4958C4.31132 14.9186 4.4164 14.3657 4.60796 13.8547C4.29553 13.9306 3.96942 13.9711 3.63393 13.9711C2.62765 13.9711 1.70459 13.6086 0.987926 13.0076C0.37575 13.6583 0 14.5339 0 15.4958V16.0606C0 17.13 0.870012 18 1.93943 18H5.02706C4.58128 17.4771 4.31132 16.7999 4.31132 16.0606V15.4958Z" fill="#C9AAAA"/>
</svg>
