<svg width="20" height="20" viewBox="0 0 20 20" fill="none" xmlns="http://www.w3.org/2000/svg">
<path d="M10.4761 6.19049V10.9524L14.5522 13.3714L15.2379 12.2143L11.9046 10.2381V6.19049H10.4761Z" fill="#0F6D8E"/>
<path d="M11.4238 1.42856C6.68571 1.42856 2.85714 5.26664 2.85714 9.99998H0L3.70951 13.7095L3.77616 13.8476L7.61906 9.99998H4.76192C4.76192 6.31905 7.74763 3.33333 11.4286 3.33333C15.1095 3.33333 18.0952 6.31905 18.0952 9.99998C18.0952 13.6809 15.1095 16.6666 11.4286 16.6666C9.58571 16.6666 7.9238 15.9143 6.71906 14.7095L5.37143 16.0571C6.91906 17.6095 9.05714 18.5714 11.4238 18.5714C16.1619 18.5714 20 14.7333 20 9.99998C20 5.26664 16.1619 1.42856 11.4238 1.42856Z" fill="#BFA48B"/>
</svg>
