<svg width="18" height="18" viewBox="0 0 18 18" fill="none" xmlns="http://www.w3.org/2000/svg">
<path d="M13.6777 0.267293C13.5839 0.101953 13.4088 0 13.2188 0H6.89067C6.64862 0 6.438 0.164812 6.37929 0.399621L4.26991 8.87228C4.23026 9.02985 4.2658 9.19673 4.36571 9.32442C4.46563 9.45264 4.61908 9.52731 4.7813 9.52731H7.18422L4.28746 17.2872C4.19475 17.5344 4.2993 17.812 4.53155 17.9371C4.76484 18.0622 5.05348 17.9953 5.20771 17.7826L13.6452 6.14591C13.7621 5.98574 13.7786 5.77357 13.689 5.59642C13.5989 5.41979 13.4171 5.30856 13.2188 5.30856H10.9863L13.6709 0.798715C13.7688 0.635484 13.7714 0.432598 13.6777 0.267293V0.267293Z" fill="#367FA8"/>
</svg>
