<svg width="20" height="20" viewBox="0 0 20 20" fill="none" xmlns="http://www.w3.org/2000/svg">
<g clip-path="url(#clip0)">
<path d="M19.6101 3.12569C19.8257 3.12538 20.0002 2.93063 20.0002 2.69048V0.911526C20.0002 0.671161 19.8253 0.476318 19.6096 0.476318H15.0643C14.368 0.476318 13.7689 0.682694 13.3317 1.07316C12.968 1.39813 12.5344 2.02126 12.5344 3.14449V4.38457H12.4367C12.221 4.38457 12.0461 4.57941 12.0461 4.81978V6.6755H11.3115V6.55678C11.3115 6.09977 10.979 5.72927 10.5688 5.72927H9.4892C9.07901 5.72927 8.74647 6.09977 8.74647 6.55678V6.67546H7.73616V6.08057C7.73616 5.27326 7.14616 4.61645 6.421 4.61645H5.44327C4.71807 4.61645 4.12807 5.27326 4.12807 6.08057V6.69417C1.81905 6.91382 0.000221878 9.07759 0.000221878 11.7061C0.000221878 14.334 1.81733 16.4975 4.12475 16.719V18.5989H0L0.000780329 19.4429V20H4.51538H7.04218H20L19.9995 18.5989H7.4328V16.738H8.74647V16.8567C8.74647 17.3137 9.07901 17.6842 9.4892 17.6842H10.5688C10.979 17.6842 11.3115 17.3137 11.3115 16.8567V16.738H16.7828C16.9985 16.738 17.1734 16.5431 17.1734 16.3028V14.4964H19.6096C19.8253 14.4964 20.0002 14.3015 20.0002 14.0611V9.35225C20.0002 9.11188 19.8253 8.91704 19.6096 8.91704H17.1734V7.11067C17.1734 6.8703 16.9985 6.67546 16.7828 6.67546H15.548V4.81973C15.548 4.57937 15.3731 4.38453 15.1573 4.38453H15.0596C15.0596 4.38453 15.0593 3.26918 15.0603 3.2428C15.0623 3.18649 15.1004 3.13287 15.151 3.13252C15.2519 3.13187 19.6101 3.12569 19.6101 3.12569ZM4.90932 6.08057C4.90932 5.75321 5.14886 5.48686 5.44327 5.48686H6.421C6.71542 5.48686 6.95491 5.75317 6.95491 6.08057V6.67546H4.90932V6.08057ZM6.65155 18.5989H4.906V16.738H6.65155V18.5989ZM4.51538 15.8676C2.45647 15.8676 0.781472 14.0007 0.781472 11.7061C0.781472 9.41213 2.45651 7.54587 4.51538 7.54587H4.5187H7.34553H8.74647V15.8676H4.51538ZM19.219 9.78745V13.6259H17.1734V9.78745H19.219ZM16.3921 14.0611V15.8676H11.3115V13.659C11.3115 13.4187 11.1366 13.2238 10.9209 13.2238C10.7052 13.2238 10.5303 13.4187 10.5303 13.659V16.8137H9.52772V16.3028V7.11067V6.59969H10.5303V9.75072C10.5303 9.99104 10.7052 10.1859 10.9209 10.1859C11.1366 10.1859 11.3115 9.99104 11.3115 9.75072V7.54587H16.3921L16.3921 14.0611ZM12.8274 6.67546V5.25494H12.9251H14.669H14.7667V6.67546H12.8274ZM14.5032 2.53376C14.298 2.76664 14.2741 3.07694 14.2783 3.35065V4.38457H13.3156V3.14449C13.3156 1.6586 14.2665 1.34673 15.0642 1.34673H19.219V2.25584L15.2514 2.26145C15.0148 2.26145 14.7159 2.29235 14.5032 2.53376Z" fill="#777777"/>
<path d="M7.36738 11.2709H6.33984C6.1241 11.2709 5.94922 11.4658 5.94922 11.7061C5.94922 11.9464 6.1241 12.1413 6.33984 12.1413H7.36738C7.58312 12.1413 7.75801 11.9464 7.75801 11.7061C7.75801 11.4658 7.58312 11.2709 7.36738 11.2709Z" fill="#777777"/>
<path d="M7.36738 9.09595H6.33984C6.1241 9.09595 5.94922 9.29083 5.94922 9.53115C5.94922 9.77148 6.1241 9.96636 6.33984 9.96636H7.36738C7.58312 9.96636 7.75801 9.77148 7.75801 9.53115C7.75801 9.29083 7.58312 9.09595 7.36738 9.09595Z" fill="#777777"/>
<path d="M7.36738 13.4471H6.33984C6.1241 13.4471 5.94922 13.642 5.94922 13.8824C5.94922 14.1227 6.1241 14.3176 6.33984 14.3176H7.36738C7.58312 14.3176 7.75801 14.1227 7.75801 13.8824C7.75801 13.642 7.58312 13.4471 7.36738 13.4471Z" fill="#777777"/>
<path d="M10.9219 11.2697C10.7062 11.2697 10.5312 11.4645 10.5312 11.7049V11.7061C10.5312 11.9464 10.7062 12.1407 10.9219 12.1407C11.1376 12.1407 11.3125 11.9452 11.3125 11.7048C11.3125 11.4645 11.1376 11.2697 10.9219 11.2697Z" fill="#777777"/>
</g>
<defs>
<clipPath id="clip0">
<rect width="20" height="20" fill="white"/>
</clipPath>
</defs>
</svg>
