<svg width="30" height="30" viewBox="0 0 30 30" fill="none" xmlns="http://www.w3.org/2000/svg">
<path fill-rule="evenodd" clip-rule="evenodd" d="M15 0C18.4724 0 21.7371 1.31982 24.1924 3.71637C26.6478 6.11297 28 9.2993 28 12.6885C28 19.5447 21.3581 25.2473 17.7897 28.311L17.7897 28.311L17.7874 28.313C17.2926 28.7379 16.8652 29.1049 16.5246 29.4154C16.0971 29.8051 15.5485 30 15 30C14.4513 30 13.9029 29.8052 13.4754 29.4153C13.1358 29.1057 12.7099 28.74 12.2169 28.3166L12.2103 28.311L12.2103 28.3109C8.64192 25.2472 2 19.5446 2 12.6884C2 9.2993 3.35223 6.11297 5.80768 3.71637C8.26301 1.31982 11.5276 0 15 0ZM8 12.5C8 8.36456 11.3644 5 15.5 5C19.6354 5 23 8.36456 23 12.5C23 16.6354 19.6356 20 15.5 20C11.3644 20 8 16.6354 8 12.5Z" fill="white"/>
</svg>
