<svg width="30" height="30" viewBox="0 0 30 30" fill="none" xmlns="http://www.w3.org/2000/svg">
<g clip-path="url(#clip0)">
<path d="M22.9683 7.91065V11.4263C22.9683 11.9184 22.5817 12.3052 22.0894 12.3052C21.597 12.3052 21.2104 11.9184 21.2104 11.4263V7.91065C21.2104 7.41832 21.597 7.03174 22.0894 7.03174C22.5817 7.03174 22.9683 7.41832 22.9683 7.91065Z" fill="#7C8388"/>
<path d="M22.9683 18.5159V22.0315C22.9683 22.5236 22.5817 22.9104 22.0894 22.9104C21.597 22.9104 21.2104 22.5236 21.2104 22.0315V18.5159C21.2104 18.0235 21.597 17.637 22.0894 17.637C22.5817 17.637 22.9683 18.0238 22.9683 18.5159Z" fill="#7C8388"/>
<path d="M27.4214 21.1526H16.7576C15.2987 21.1526 14.1211 22.3302 14.1211 23.7893V27.3633C14.1211 28.8222 15.2987 30 16.7576 30H27.4214C28.8805 30 30.0581 28.8222 30.0581 27.3633V23.7893C30.0581 22.3302 28.8805 21.1526 27.4214 21.1526Z" fill="#FFDA2D"/>
<path d="M27.4214 10.5474H16.7576C15.2987 10.5474 14.1211 11.725 14.1211 13.1841V16.6995C14.1211 18.1584 15.2987 19.3948 16.7576 19.3948H27.4214C28.8805 19.3948 30.0581 18.1584 30.0581 16.6995V13.1841C30.0581 11.725 28.8805 10.5474 27.4214 10.5474Z" fill="#FFDA2D"/>
<path d="M27.4214 0.000732422H16.7576C15.2987 0.000732422 14.1211 1.17833 14.1211 2.63745V6.15285C14.1211 7.61175 15.2987 8.78957 16.7576 8.78957H27.4214C28.8805 8.78957 30.0581 7.61175 30.0581 6.15285V2.63745C30.0581 1.17833 28.8805 0.000732422 27.4214 0.000732422Z" fill="#FFDA2D"/>
<path d="M4.45313 26.4258C2.02995 26.4258 0.0585938 24.4544 0.0585938 22.0315C0.0585938 21.5456 0.451584 21.1526 0.9375 21.1526C1.42319 21.1526 1.81641 21.5456 1.81641 22.0315C1.81641 23.4853 2.99904 24.668 4.45313 24.668C4.93881 24.668 5.3318 25.0612 5.3318 25.5469C5.3318 26.0328 4.93881 26.4258 4.45313 26.4258Z" fill="#00C8C8"/>
<path d="M0.9375 19.3948C0.451584 19.3948 0.0585938 19.0015 0.0585938 18.5159V14.9416C0.0585938 14.456 0.451584 14.0627 0.9375 14.0627C1.42319 14.0627 1.81641 14.456 1.81641 14.9416V18.5159C1.81641 19.0015 1.42319 19.3948 0.9375 19.3948Z" fill="#00C8C8"/>
<path d="M11.9726 3.664L6.69921 0.148377C6.29248 -0.121932 5.74912 -0.0120688 5.48041 0.392137C5.21102 0.796342 5.31996 1.34131 5.72417 1.61093L8.58222 3.51638H4.4541C2.03093 3.51638 0.0595703 5.48774 0.0595703 7.91068V11.4263C0.0595703 11.912 0.452561 12.3052 0.938477 12.3052C1.42416 12.3052 1.81738 11.912 1.81738 11.4263V7.91068C1.81738 6.45682 3.00002 5.27419 4.4541 5.27419H8.58245L5.7244 7.1794C5.31996 7.44903 5.21102 7.99399 5.48064 8.3982C5.74546 8.79645 6.28814 8.91456 6.69944 8.64196L11.9726 5.12656C12.2173 4.96337 12.364 4.68871 12.364 4.39528C12.364 4.10186 12.2173 3.82697 11.9726 3.664Z" fill="#00C8C8"/>
<path d="M11.4844 26.4259H7.96875C7.48306 26.4259 7.08984 26.0329 7.08984 25.547C7.08984 25.0613 7.48306 24.6681 7.96875 24.6681H11.4844C11.9701 24.6681 12.3633 25.0613 12.3633 25.547C12.3633 26.0329 11.9701 26.4259 11.4844 26.4259Z" fill="#00C8C8"/>
<path d="M26.5423 4.39502C26.5423 4.88735 26.1557 5.27393 25.6636 5.27393H18.5151C18.023 5.27393 17.6362 4.88735 17.6362 4.39502C17.6362 3.90292 18.023 3.51611 18.5151 3.51611H25.6636C26.1557 3.51611 26.5423 3.90292 26.5423 4.39502Z" fill="#FF540B"/>
<path d="M26.5423 14.9416C26.5423 15.4337 26.1557 15.8205 25.6636 15.8205H18.5151C18.023 15.8205 17.6362 15.4337 17.6362 14.9416C17.6362 14.4496 18.023 14.0627 18.5151 14.0627H25.6636C26.1557 14.0627 26.5423 14.4496 26.5423 14.9416Z" fill="#FF540B"/>
<path d="M26.5423 25.5469C26.5423 26.039 26.1557 26.4258 25.6636 26.4258H18.5151C18.023 26.4258 17.6362 26.039 17.6362 25.5469C17.6362 25.0548 18.023 24.668 18.5151 24.668H25.6636C26.1557 24.668 26.5423 25.0548 26.5423 25.5469Z" fill="#FF540B"/>
</g>
<defs>
<clipPath id="clip0">
<rect width="30" height="30" fill="white"/>
</clipPath>
</defs>
</svg>
