<svg width="24" height="24" viewBox="0 0 24 24" fill="none" xmlns="http://www.w3.org/2000/svg">
<path d="M0 17.3438H11.25V8.4375H0V17.3438ZM4.21875 9.84375H7.03125C7.41956 9.84375 7.73438 10.1586 7.73438 10.5469C7.73438 10.9352 7.41956 11.25 7.03125 11.25H4.21875C3.83044 11.25 3.51562 10.9352 3.51562 10.5469C3.51562 10.1586 3.83044 9.84375 4.21875 9.84375Z" fill="#367FA8"/>
<path d="M0 23.2969C0 23.6852 0.314812 24 0.703125 24C1.09144 24 1.40625 23.6852 1.40625 23.2969V19.4666L5.19886 22.3562C5.32472 22.4521 5.47486 22.5 5.625 22.5C5.77514 22.5 5.92528 22.4521 6.05114 22.3562L9.84375 19.4666V23.2969C9.84375 23.6852 10.1586 24 10.5469 24C10.9352 24 11.25 23.6852 11.25 23.2969V18.75H0V23.2969Z" fill="#3C8DBC"/>
<path d="M12.75 17.3438H24V8.4375H12.75V17.3438ZM16.9688 9.84375H19.7812C20.1696 9.84375 20.4844 10.1586 20.4844 10.5469C20.4844 10.9352 20.1696 11.25 19.7812 11.25H16.9688C16.5804 11.25 16.2656 10.9352 16.2656 10.5469C16.2656 10.1586 16.5804 9.84375 16.9688 9.84375Z" fill="#367FA8"/>
<path d="M21.8906 4.21875H14.8594C13.6963 4.21875 12.75 5.16502 12.75 6.32812V7.03125H24V6.32812C24 5.16502 23.0537 4.21875 21.8906 4.21875Z" fill="#367FA8"/>
<path d="M9.14062 4.21875H2.10938C0.946266 4.21875 0 5.16502 0 6.32812V7.03125H11.25V6.32812C11.25 5.16502 10.3037 4.21875 9.14062 4.21875Z" fill="#367FA8"/>
<path d="M12.75 23.2969C12.75 23.6852 13.0648 24 13.4531 24C13.8414 24 14.1562 23.6852 14.1562 23.2969V19.4666L17.9489 22.3562C18.0747 22.4521 18.2249 22.5 18.375 22.5C18.5251 22.5 18.6753 22.4521 18.8011 22.3562L22.5938 19.4666V23.2969C22.5938 23.6852 22.9086 24 23.2969 24C23.6852 24 24 23.6852 24 23.2969V18.75H12.75V23.2969Z" fill="#3C8DBC"/>
<path d="M6.32812 2.10938C6.32812 1.72167 6.64355 1.40625 7.03125 1.40625H16.9688C17.3565 1.40625 17.6719 1.72167 17.6719 2.10938V2.8125H19.0781V2.10938C19.0781 0.946266 18.1319 0 16.9688 0H7.03125C5.86814 0 4.92188 0.946266 4.92188 2.10938V2.8125H6.32812V2.10938Z" fill="#3C8DBC"/>
</svg>
