<svg width="16" height="16" viewBox="0 0 16 16" fill="none" xmlns="http://www.w3.org/2000/svg">
<path d="M11.75 3.75C11.2322 3.75 10.8125 3.33028 10.8125 2.8125V0.9375C10.8125 0.419719 11.2322 0 11.75 0C12.2678 0 12.6875 0.419719 12.6875 0.9375V2.8125C12.6875 3.33028 12.2678 3.75 11.75 3.75Z" fill="#1F97DD"/>
<path d="M14.2812 1.875H13.625V2.8125C13.625 3.84637 12.7839 4.6875 11.75 4.6875C10.7161 4.6875 9.875 3.84637 9.875 2.8125V1.875H6.125V2.8125C6.125 3.84637 5.28387 4.6875 4.25 4.6875C3.21613 4.6875 2.375 3.84637 2.375 2.8125V1.875H1.71875C0.771031 1.875 0 2.64603 0 3.59375V5.6875H16V3.59375C16 2.64603 15.229 1.875 14.2812 1.875Z" fill="#0078BA"/>
<path d="M4.25 3.75C3.73222 3.75 3.3125 3.33028 3.3125 2.8125V0.9375C3.3125 0.419719 3.73222 0 4.25 0C4.76778 0 5.1875 0.419719 5.1875 0.9375V2.8125C5.1875 3.33028 4.76778 3.75 4.25 3.75Z" fill="#1F97DD"/>
<path d="M0 6.625V14.2812C0 15.229 0.771031 16 1.71875 16H14.2812C15.229 16 16 15.229 16 14.2812V6.625H0Z" fill="#1F97DD"/>
</svg>
