<svg width="14" height="14" viewBox="0 0 14 14" fill="none" xmlns="http://www.w3.org/2000/svg">
<path d="M11.9587 4.95833C11.9587 2.22424 9.73442 0 7.00033 0C4.26624 0 2.04199 2.22424 2.04199 4.95833C2.04199 7.49461 3.95734 9.58911 6.41699 9.87935V11.0833H5.25033C4.92832 11.0833 4.66699 11.3447 4.66699 11.6667C4.66699 11.9887 4.92832 12.25 5.25033 12.25H6.41699V13.4167C6.41699 13.7387 6.67833 14 7.00033 14C7.32233 14 7.58366 13.7387 7.58366 13.4167V12.25H8.75033C9.07233 12.25 9.33366 11.9887 9.33366 11.6667C9.33366 11.3447 9.07233 11.0833 8.75033 11.0833H7.58366V9.87935C10.0433 9.58911 11.9587 7.49461 11.9587 4.95833ZM3.20866 4.95833C3.20866 2.86768 4.90967 1.16667 7.00033 1.16667C9.09098 1.16667 10.792 2.86768 10.792 4.95833C10.792 7.04899 9.09098 8.75 7.00033 8.75C4.90967 8.75 3.20866 7.04899 3.20866 4.95833Z" fill="#EC13BC"/>
</svg>
