<svg width="20" height="20" viewBox="0 0 20 20" fill="none" xmlns="http://www.w3.org/2000/svg">
<g clip-path="url(#clip0)">
<path d="M10.8379 0.68918C10.2899 -0.245735 9.70956 -0.213496 9.16151 0.68918C6.64691 4.42884 2.84277 10.0383 2.84277 12.8431C2.84277 14.8096 3.64873 16.615 4.93827 17.9045C6.22781 19.194 8.03316 20 9.9997 20C11.9662 20 13.7716 19.194 15.0611 17.9045C16.3507 16.615 17.1566 14.8096 17.1566 12.8431C17.1566 10.0061 13.3525 4.42884 10.8379 0.68918Z" fill="#92CBFF"/>
<path d="M14.1577 15.0347C13.6418 15.8729 12.9004 16.6144 11.9977 17.1302C11.5786 17.3558 11.0628 17.2269 10.8371 16.8078C10.5792 16.3564 10.7404 15.8406 11.1595 15.615C11.8042 15.2603 12.3201 14.7445 12.7069 14.132C13.0938 13.5195 13.3195 12.8102 13.3517 12.0687C13.3839 11.5852 13.7708 11.2305 14.2544 11.2628C14.7379 11.295 15.0926 11.6819 15.0603 12.1655C14.9959 13.1971 14.6735 14.1642 14.1577 15.0347Z" fill="#1E538F"/>
</g>
<defs>
<clipPath id="clip0">
<rect width="20" height="20" fill="white"/>
</clipPath>
</defs>
</svg>
