<svg width="24" height="24" viewBox="0 0 24 24" fill="none" xmlns="http://www.w3.org/2000/svg">
<path d="M12.5723 7.42859V13.1428L17.4636 16.0457L18.2865 14.6572L14.2865 12.2857V7.42859H12.5723Z" fill="#777777"/>
<path d="M13.7086 1.71428C8.02286 1.71428 3.42857 6.31997 3.42857 12H0L4.45141 16.4514L4.53139 16.6171L9.14288 12H5.7143C5.7143 7.58287 9.29716 4.00001 13.7143 4.00001C18.1314 4.00001 21.7143 7.58287 21.7143 12C21.7143 16.4171 18.1314 20 13.7143 20C11.5029 20 9.50855 19.0971 8.06288 17.6514L6.44571 19.2686C8.30288 21.1314 10.8686 22.2857 13.7086 22.2857C19.3943 22.2857 24 17.68 24 12C24 6.31997 19.3943 1.71428 13.7086 1.71428Z" fill="#777777"/>
</svg>
