<svg width="18" height="18" viewBox="0 0 18 18" fill="none" xmlns="http://www.w3.org/2000/svg">
<g clip-path="url(#clip0)">
<path d="M15.3646 2.63581C11.8498 -0.87857 6.15109 -0.878962 2.63593 2.63581C-0.87884 6.15058 -0.878448 11.8493 2.63593 15.3644C6.1507 18.8784 11.8494 18.8788 15.3646 15.3644C18.8789 11.8493 18.8785 6.15097 15.3646 2.63581ZM10.1738 12.9132C10.1738 13.5617 9.64826 14.0872 8.99985 14.0872C8.35145 14.0872 7.82591 13.5617 7.82591 12.9132V8.2175C7.82591 7.56909 8.35145 7.04356 8.99985 7.04356C9.64826 7.04356 10.1738 7.56909 10.1738 8.2175V12.9132ZM8.97911 6.21084C8.30292 6.21084 7.85213 5.73188 7.86622 5.1406C7.85213 4.52076 8.30292 4.05628 8.99281 4.05628C9.68308 4.05628 10.1198 4.52115 10.1343 5.1406C10.1339 5.73188 9.68347 6.21084 8.97911 6.21084Z" fill="#0078BA"/>
</g>
<defs>
<clipPath id="clip0">
<rect width="18" height="18" fill="white"/>
</clipPath>
</defs>
</svg>
