<svg width="18" height="18" viewBox="0 0 18 18" fill="none" xmlns="http://www.w3.org/2000/svg">
<path d="M11.8125 1.125H10.5907C10.359 0.47025 9.7335 0 9 0C8.2665 0 7.641 0.47025 7.40813 1.125H6.1875C5.877 1.125 5.625 1.377 5.625 1.6875V3.9375C5.625 4.248 5.877 4.5 6.1875 4.5H11.8125C12.123 4.5 12.375 4.248 12.375 3.9375V1.6875C12.375 1.377 12.123 1.125 11.8125 1.125Z" fill="#1F97DD"/>
<path d="M14.625 2.25H13.5V3.9375C13.5 4.86788 12.7429 5.625 11.8125 5.625H6.1875C5.25712 5.625 4.5 4.86788 4.5 3.9375V2.25H3.375C2.75513 2.25 2.25 2.75513 2.25 3.375V16.875C2.25 17.5061 2.74388 18 3.375 18H14.625C15.2561 18 15.75 17.5061 15.75 16.875V3.375C15.75 2.74388 15.2561 2.25 14.625 2.25ZM8.83575 12.2108L6.58575 14.4608C6.4755 14.5699 6.3315 14.625 6.1875 14.625C6.0435 14.625 5.8995 14.5699 5.78925 14.4608L4.66425 13.3358C4.44487 13.1164 4.44487 12.7598 4.66425 12.5404C4.88362 12.321 5.24025 12.321 5.45963 12.5404L6.1875 13.2671L8.03925 11.4154C8.25862 11.196 8.61525 11.196 8.83463 11.4154C9.054 11.6348 9.05513 11.9903 8.83575 12.2108ZM8.83575 7.71075L6.58575 9.96075C6.4755 10.0699 6.3315 10.125 6.1875 10.125C6.0435 10.125 5.8995 10.0699 5.78925 9.96075L4.66425 8.83575C4.44487 8.61638 4.44487 8.25975 4.66425 8.04037C4.88362 7.821 5.24025 7.821 5.45963 8.04037L6.1875 8.76713L8.03925 6.91537C8.25862 6.696 8.61525 6.696 8.83463 6.91537C9.054 7.13475 9.05513 7.49025 8.83575 7.71075ZM12.9375 13.5H10.6875C10.377 13.5 10.125 13.248 10.125 12.9375C10.125 12.627 10.377 12.375 10.6875 12.375H12.9375C13.248 12.375 13.5 12.627 13.5 12.9375C13.5 13.248 13.248 13.5 12.9375 13.5ZM12.9375 9H10.6875C10.377 9 10.125 8.748 10.125 8.4375C10.125 8.127 10.377 7.875 10.6875 7.875H12.9375C13.248 7.875 13.5 8.127 13.5 8.4375C13.5 8.748 13.248 9 12.9375 9Z" fill="#0078BA"/>
</svg>
