<svg width="14" height="14" viewBox="0 0 14 14" fill="none" xmlns="http://www.w3.org/2000/svg">
<g clip-path="url(#clip0)">
<path d="M7 10C7.61956 10 8.13529 9.63145 8.18747 9.15208L8.99297 1.68276C9.03986 1.24956 8.85068 0.821318 8.47195 0.501469C8.09369 0.18203 7.55951 0 7 0C6.44049 0 5.90632 0.18203 5.52802 0.501469C5.14923 0.821318 4.96014 1.24956 5.00703 1.68276L5.81253 9.15208C5.86472 9.63145 6.38044 10 7 10Z" fill="white"/>
<path d="M6.99989 11.7542C6.37961 11.7542 5.87695 12.2568 5.87695 12.8771C5.87695 13.4974 6.37961 14 6.99989 14C7.62017 14 8.12282 13.4974 8.12282 12.8771C8.12282 12.2568 7.62017 11.7542 6.99989 11.7542Z" fill="white"/>
</g>
<defs>
<clipPath id="clip0">
<rect width="14" height="14" fill="white"/>
</clipPath>
</defs>
</svg>
