<svg width="20" height="20" viewBox="0 0 20 20" fill="none" xmlns="http://www.w3.org/2000/svg">
<g clip-path="url(#clip0)">
<path d="M19.6368 9.28091H14.4363C14.2693 9.28091 14.1249 9.16603 14.0862 9.00365C13.7213 7.47439 12.5126 6.26939 10.9812 5.90998C10.8182 5.8717 10.7026 5.72701 10.7026 5.55959V0.361008C10.7026 0.14632 10.8892 -0.0197729 11.1026 0.00280515C13.3742 0.243547 15.4792 1.24437 17.1175 2.88225C18.7512 4.51635 19.7513 6.61529 19.995 8.88041C20.0179 9.09408 19.8517 9.28091 19.6368 9.28091Z" fill="#179C82"/>
<path d="M19.9982 11.0314C19.7979 12.9504 19.0551 14.751 17.8445 16.2521C17.7096 16.4193 17.46 16.434 17.308 16.282L14.3965 13.3705L13.6304 12.6044C13.5119 12.4858 13.4918 12.3018 13.5799 12.1591C13.8144 11.7794 13.9897 11.3595 14.0929 10.9122C14.1307 10.7484 14.2756 10.6319 14.4438 10.6319H19.64C19.8545 10.6318 20.0205 10.8181 19.9982 11.0314Z" fill="#0078BB"/>
<path d="M16.3538 17.239C16.5056 17.3907 16.4912 17.6398 16.3245 17.7749C14.5465 19.2156 12.3468 19.9992 10.0262 19.9992C7.34835 19.9992 4.83034 18.9559 2.93636 17.0624C1.05308 15.1792 0.0113273 12.6789 -0.0003914 10.0179C-0.0121492 7.34565 1.04676 4.77186 2.9364 2.88226C4.57444 1.24421 6.67967 0.243395 8.95158 0.00280914C9.16475 -0.0197299 9.35076 0.146793 9.35076 0.361129V5.55963C9.35076 5.72737 9.23471 5.8719 9.07139 5.91026C7.22905 6.34307 5.85331 7.99979 5.85331 9.97259C5.85331 12.2731 7.72518 14.1454 10.0262 14.1454C10.8352 14.1454 11.5909 13.9138 12.2311 13.5137C12.3739 13.4245 12.5589 13.4442 12.6779 13.5633L16.3538 17.239Z" fill="#E0694E"/>
</g>
<defs>
<clipPath id="clip0">
<rect width="20" height="20" fill="white"/>
</clipPath>
</defs>
</svg>
