<svg width="18" height="18" viewBox="0 0 18 18" fill="none" xmlns="http://www.w3.org/2000/svg">
<g clip-path="url(#clip0)">
<path d="M9.75435 0.620258C9.2611 -0.221166 8.73883 -0.192151 8.24559 0.620258C5.98245 3.98595 2.55873 9.03449 2.55873 11.5588C2.55873 13.3286 3.28409 14.9535 4.44468 16.1141C5.60526 17.2746 7.23008 18 8.99997 18C10.7699 18 12.3947 17.2746 13.5553 16.1141C14.7158 14.9535 15.4412 13.3286 15.4412 11.5588C15.4412 9.00548 12.0175 3.98595 9.75435 0.620258ZM13.6423 14.4312C13.1781 15.1856 12.5107 15.8529 11.6983 16.3172C11.3211 16.5203 10.8569 16.4042 10.6538 16.027C10.4217 15.6208 10.5668 15.1566 10.9439 14.9535C11.5242 14.6343 11.9885 14.1701 12.3366 13.6188C12.6848 13.0675 12.8879 12.4292 12.9169 11.7619C12.9459 11.3266 13.2941 11.0075 13.7293 11.0365C14.1646 11.0655 14.4837 11.4137 14.4547 11.8489C14.3967 12.7774 14.1065 13.6478 13.6423 14.4312Z" fill="#777777"/>
</g>
<defs>
<clipPath id="clip0">
<rect width="18" height="18" fill="white"/>
</clipPath>
</defs>
</svg>
