<svg width="18" height="18" viewBox="0 0 18 18" fill="none" xmlns="http://www.w3.org/2000/svg">
<g clip-path="url(#clip0)">
<path d="M6.51123 16.3762C6.93377 17.3315 7.89001 18 8.99997 18C10.1099 18 11.0661 17.3315 11.4887 16.3762H6.51123Z" fill="#0078BA"/>
<path d="M8.99968 1.71973C9.73213 1.71973 10.4354 1.84896 11.0881 2.08557V2.00517C11.0881 0.899515 10.1886 0 9.08296 0H8.91679C7.81113 0 6.91162 0.899515 6.91162 2.00517V2.08455C7.56393 1.84865 8.26701 1.71973 8.99968 1.71973Z" fill="#0078BA"/>
<path d="M15.5909 15.3198H2.40884C2.15945 15.3198 1.93102 15.1516 1.87915 14.9076C1.82781 14.6661 1.93789 14.4277 2.16121 14.3245C2.21421 14.2901 2.61312 14.0112 3.01248 13.1673C3.74596 11.6175 3.89992 9.43441 3.89992 7.87589C3.89992 5.06385 6.18769 2.77615 8.99969 2.77615C11.805 2.77615 14.0886 5.05283 14.0994 7.85564C14.0997 7.86237 14.0998 7.86913 14.0998 7.87589C14.0998 9.43441 14.2538 11.6175 14.9872 13.1673C15.3866 14.0112 15.7855 14.2902 15.8385 14.3245C16.0618 14.4277 16.172 14.6661 16.1206 14.9076C16.0687 15.1516 15.8403 15.3198 15.5909 15.3198ZM15.8444 14.3282H15.8448H15.8444Z" fill="#1F97DD"/>
</g>
<defs>
<clipPath id="clip0">
<rect width="18" height="18" fill="white"/>
</clipPath>
</defs>
</svg>
