<svg width="20" height="20" viewBox="0 0 20 20" fill="none" xmlns="http://www.w3.org/2000/svg">
<g clip-path="url(#clip0)">
<path d="M1.98047 18.2585H5.09572V19.4143C5.09572 19.5696 5.03401 19.7186 4.92418 19.8284C4.81435 19.9383 4.66538 20 4.51006 20H2.56613C2.4108 20 2.26184 19.9383 2.15201 19.8284C2.04217 19.7186 1.98047 19.5696 1.98047 19.4143V18.2585Z" fill="#777777"/>
<path d="M14.7783 18.2585H17.8941V19.4143C17.8941 19.5696 17.8324 19.7186 17.7225 19.8284C17.6127 19.9383 17.4637 20 17.3084 20H15.3655C15.2885 20.0002 15.2122 19.9852 15.1409 19.9558C15.0697 19.9265 15.005 19.8834 14.9504 19.829C14.8959 19.7746 14.8526 19.71 14.823 19.6388C14.7935 19.5676 14.7783 19.4914 14.7783 19.4143V18.2585V18.2585Z" fill="#777777"/>
<path fill-rule="evenodd" clip-rule="evenodd" d="M2.10756 0H17.9214C18.3293 0 18.6599 0.330602 18.6599 0.73842V17.5196C18.6599 17.9274 18.3293 18.258 17.9214 18.258H2.10756C1.69974 18.258 1.36914 17.9274 1.36914 17.5196V0.73842C1.36914 0.330602 1.69974 0 2.10756 0ZM11.5117 11.7718C11.5117 12.5985 10.8414 13.2688 10.0146 13.2688C9.18783 13.2688 8.51758 12.5985 8.51758 11.7718C8.51758 10.945 9.18783 10.2747 10.0146 10.2747C10.8414 10.2747 11.5117 10.945 11.5117 11.7718ZM12.0442 2.32504H7.98392C7.90327 2.32504 7.83789 2.39042 7.83789 2.47107V3.326C7.83789 3.40665 7.90327 3.47203 7.98392 3.47203H12.0442C12.1248 3.47203 12.1902 3.40665 12.1902 3.326V2.47107C12.1902 2.39042 12.1248 2.32504 12.0442 2.32504ZM7.98432 6.77886H12.0446C12.1252 6.77886 12.1906 6.84424 12.1906 6.92489V7.77983C12.1906 7.86047 12.1252 7.92585 12.0446 7.92585H7.98432C7.90367 7.92585 7.83829 7.86047 7.83829 7.77983V6.92489C7.83829 6.84424 7.90367 6.77886 7.98432 6.77886Z" fill="#777777"/>
</g>
<defs>
<clipPath id="clip0">
<rect width="20" height="20" fill="white"/>
</clipPath>
</defs>
</svg>
