<svg width="18" height="18" viewBox="0 0 18 18" fill="none" xmlns="http://www.w3.org/2000/svg">
<path d="M2.83874 6.35294H0V8.99999H6.01521L2.83874 6.35294Z" fill="white"/>
<path d="M0 12.1765H2.64706V14.9146C2.03086 15.1331 1.58824 15.7216 1.58824 16.4118C1.58824 17.2876 2.30075 18 3.17647 18C4.05222 18 4.76471 17.2876 4.76471 16.4118C4.76471 15.7216 4.32208 15.1331 3.70588 14.9146V14.2941H14.2941V14.9146C13.6779 15.1331 13.2353 15.7216 13.2353 16.4118C13.2353 17.2876 13.9478 18 14.8235 18C15.6993 18 16.4118 17.2876 16.4118 16.4118C16.4118 15.7216 15.9691 15.1331 15.3529 14.9146V12.1765H18V10.0588H0V12.1765ZM14.2941 13.2353H3.70588V12.1765H14.2941V13.2353Z" fill="white"/>
<path d="M14.8234 0H11.647V2.64706C11.647 3.33724 12.0896 3.92569 12.7058 4.14424V5.29412H13.7646V4.14424C14.3808 3.92569 14.8234 3.33724 14.8234 2.64706V1.05882H15.8823V9H16.9411V1.05882H17.9999V0H14.8234Z" fill="white"/>
<path d="M7.94115 8.47059C7.94115 8.17867 8.17868 7.94118 8.47056 7.94118H8.99997V9H10.0588V7.94118H11.1176V9H12.1764V7.94118H12.7059C12.9978 7.94118 13.2353 8.17867 13.2353 8.47059V9H14.2941V8.47059C14.2941 7.59487 13.5816 6.88235 12.7059 6.88235H8.47056C7.59484 6.88235 6.88232 7.59487 6.88232 8.47059V9H7.94115V8.47059Z" fill="white"/>
</svg>
