<svg width="24" height="24" viewBox="0 0 24 24" fill="none" xmlns="http://www.w3.org/2000/svg">
<path d="M23.0731 22.8H21.8209V13.9304C21.8204 13.4324 21.6223 12.955 21.2702 12.6029C20.9181 12.2508 20.4407 12.0527 19.9427 12.0522H15.8036V10.8H19.9427C20.7726 10.8009 21.5683 11.131 22.1552 11.7179C22.7421 12.3048 23.0722 13.1005 23.0731 13.9304V22.8Z" fill="#444444"/>
<path d="M0.926941 22.8H2.17911V13.9304C2.17967 13.4324 2.37773 12.955 2.72985 12.6029C3.08198 12.2508 3.5594 12.0527 4.05738 12.0522H8.19644V10.8H4.05738C3.22742 10.8009 2.43173 11.131 1.84486 11.7179C1.25799 12.3048 0.92788 13.1005 0.926941 13.9304V22.8Z" fill="#444444"/>
<path d="M11.3739 0H12.6261V1.80334H11.3739V0Z" fill="#777777"/>
<path d="M4.3187 3.69226H19.6818V23.3739H4.3187V3.69226Z" fill="#777777"/>
<path d="M6.82304 1.2522H17.1773C17.8415 1.2522 18.4785 1.51605 18.9481 1.9857C19.4178 2.45536 19.6816 3.09235 19.6816 3.75655V4.38263H4.3187V3.75655C4.3187 3.09235 4.58254 2.45536 5.0522 1.9857C5.52186 1.51605 6.15885 1.2522 6.82304 1.2522Z" fill="#777777"/>
<path d="M0 22.7478H24V24H0V22.7478Z" fill="#777777"/>
<path d="M3.69229 3.69226H20.3076V4.94443H3.69229V3.69226Z" fill="#777777"/>
</svg>
