<svg width="20" height="20" viewBox="0 0 20 20" fill="none" xmlns="http://www.w3.org/2000/svg">
<g clip-path="url(#clip0)">
<path d="M12.9168 8.54166V0.833333C12.9168 0.373333 12.5435 0 12.0835 0H7.91683C7.45683 0 7.0835 0.373333 7.0835 0.833333V8.54166C7.0835 9.00166 7.45683 9.37499 7.91683 9.37499H12.0835C12.5435 9.37499 12.9168 9.00166 12.9168 8.54166Z" fill="#D8C9AF"/>
<path d="M19.9998 8.54166V0.833333C19.9998 0.373333 19.6265 0 19.1665 0H14.9998C14.5398 0 14.1665 0.373333 14.1665 0.833333V8.54166C14.1665 9.00166 14.5398 9.37499 14.9998 9.37499H19.1665C19.6265 9.37499 19.9998 9.00166 19.9998 8.54166Z" fill="#0078BB"/>
<path d="M14.1667 10.625H12.9167H7.08333H5.83333H0.833333C0.373333 10.625 0 10.9983 0 11.4583V19.1667C0 19.6267 0.373333 20 0.833333 20H19.1667C19.6267 20 20 19.6267 20 19.1667V11.4583C20 10.9983 19.6267 10.625 19.1667 10.625H14.1667Z" fill="#E0694E"/>
<path d="M5.83333 8.54167V0.833333C5.83333 0.373333 5.46 0 5 0H0.833333C0.373333 0 0 0.373333 0 0.833333V8.54167C0 9.00167 0.373333 9.375 0.833333 9.375H5C5.46 9.375 5.83333 9.00167 5.83333 8.54167Z" fill="#179C82"/>
</g>
<defs>
<clipPath id="clip0">
<rect width="20" height="20" fill="white"/>
</clipPath>
</defs>
</svg>
