<svg width="20" height="20" viewBox="0 0 20 20" fill="none" xmlns="http://www.w3.org/2000/svg">
<path d="M16.6594 11.6472L15.9554 6.77368C15.5765 3.7738 13.0113 1.52344 10 1.52344C6.98837 1.52344 4.42352 3.7738 4.04465 6.77368L3.34061 11.6473C0.588989 12.5351 0 13.7337 0 14.5964C0 15.434 0.561066 16.6193 3.23441 17.5104C9.02634 19.4411 20 18.3589 20 14.5964C20 13.7267 19.4048 12.531 16.6594 11.6472ZM10.7004 3.14163L10.4388 7.25739C10.4242 7.48825 10.2313 7.66922 10 7.66922C9.76868 7.66922 9.57581 7.48825 9.56116 7.25739L9.29962 3.14163C9.5282 3.10501 9.76212 3.08594 10 3.08594C10.2379 3.08594 10.4718 3.10501 10.7004 3.14163ZM16.2717 16.028C14.608 16.5826 12.3807 16.888 10 16.888C4.75815 16.888 1.5625 15.4311 1.5625 14.5964C1.5625 14.3434 1.98639 13.8663 3.0867 13.4047L3.0809 13.4445C3.01926 13.8715 3.31543 14.2677 3.74252 14.3294C4.16901 14.3907 4.56573 14.095 4.62738 13.6679C5.6337 6.70258 5.5925 6.98898 5.59418 6.9754C5.77103 5.5603 6.6066 4.36737 7.76871 3.68942L8.00186 7.35657C8.0687 8.40805 8.94638 9.23172 10 9.23172C11.0536 9.23172 11.9313 8.40805 11.9981 7.35657L12.2313 3.68942C13.3743 4.35623 14.1992 5.4953 14.4078 6.9902C14.5308 7.84149 15.2582 12.8761 15.3726 13.6679C15.4288 14.057 15.7628 14.3375 16.1449 14.3375C16.6231 14.3375 16.9868 13.914 16.9191 13.4445L16.9133 13.4042C18.0113 13.8637 18.4375 14.3385 18.4375 14.5964C18.4375 14.8418 17.9848 15.457 16.2717 16.028Z" fill="#777777"/>
</svg>
