<svg width="20" height="20" viewBox="0 0 20 20" fill="none" xmlns="http://www.w3.org/2000/svg">
<g clip-path="url(#clip0)">
<path d="M19.7711 10.0629C18.9124 9.20412 17.9601 8.47231 16.9271 7.87371V4.46947C16.9271 4.15346 16.7368 3.86858 16.4449 3.74773C12.3302 2.04332 7.72463 2.02074 3.55516 3.74773C3.26326 3.86858 3.07298 4.15346 3.07298 4.46947V7.87371C2.03996 8.47231 1.08766 9.20397 0.228892 10.0629C-0.00899325 10.3006 -0.0678922 10.6639 0.0825596 10.9647L3.15538 17.1105C3.33879 17.4771 3.77443 17.6396 4.15315 17.4829C7.93062 15.9181 12.1079 15.9342 15.8469 17.4829C16.2248 17.6393 16.6608 17.4781 16.8445 17.1105L19.9175 10.9647C20.0679 10.6639 20.0089 10.3008 19.7711 10.0629ZM4.63548 5.00078C8.11861 3.69096 11.9177 3.70546 15.3646 5.00078V7.09673C12.0174 5.68895 8.14531 5.62029 4.63548 7.09673V5.00078ZM15.7656 15.7747C12.0832 14.4293 8.00661 14.3956 4.23433 15.7747L1.73768 10.7813C6.44182 6.4789 13.618 6.53353 18.2622 10.7813L15.7656 15.7747ZM12.3177 11.006C12.3177 11.4374 11.9679 11.7873 11.5364 11.7873H10.7813V12.5424C10.7813 12.974 10.4315 13.3237 10 13.3237C9.5685 13.3237 9.21877 12.974 9.21877 12.5424V11.7873H8.46361C8.03209 11.7873 7.68236 11.4374 7.68236 11.006C7.68236 10.5745 8.03209 10.2248 8.46361 10.2248H9.21877V9.46947C9.21877 9.03811 9.5685 8.68822 10 8.68822C10.4315 8.68822 10.7813 9.03811 10.7813 9.46947V10.2248H11.5364C11.9679 10.2248 12.3177 10.5745 12.3177 11.006Z" fill="#777777"/>
</g>
<defs>
<clipPath id="clip0">
<rect width="20" height="20" fill="white"/>
</clipPath>
</defs>
</svg>
