<svg width="20" height="20" viewBox="0 0 20 20" fill="none" xmlns="http://www.w3.org/2000/svg">
<g clip-path="url(#clip0)">
<path d="M17.6562 3.07297H15.0934L13.7715 0.431671C13.6392 0.167084 13.3687 0 13.073 0H6.92703C6.63132 0 6.36078 0.167084 6.22849 0.431671L4.90662 3.07281H2.34375C1.05133 3.07281 0 4.1243 0 5.41656V17.6562C0 18.9487 1.05133 20 2.34375 20H17.6562C18.9487 20 20 18.9487 20 17.6562V5.41672C20 4.1243 18.9487 3.07297 17.6562 3.07297ZM7.40967 1.5625H12.5903L13.3461 3.07297H6.6539L7.40967 1.5625ZM18.4375 17.6562C18.4375 18.087 18.087 18.4375 17.6562 18.4375H2.34375C1.91299 18.4375 1.5625 18.087 1.5625 17.6562V5.41672C1.5625 4.98596 1.91299 4.63547 2.34375 4.63547H17.6562C18.087 4.63547 18.4375 4.98596 18.4375 5.41672V17.6562ZM12.3177 11.5364C12.3177 11.9679 11.9679 12.3177 11.5364 12.3177H10.7812V13.0728C10.7812 13.5043 10.4315 13.8541 10 13.8541C9.56848 13.8541 9.21875 13.5043 9.21875 13.0728V12.3177H8.46359C8.03207 12.3177 7.68234 11.9679 7.68234 11.5364C7.68234 11.1049 8.03207 10.7552 8.46359 10.7552H9.21875V10C9.21875 9.56848 9.56848 9.21875 10 9.21875C10.4315 9.21875 10.7812 9.56848 10.7812 10V10.7552H11.5364C11.9679 10.7552 12.3177 11.105 12.3177 11.5364ZM10 6.14578C7.02759 6.14578 4.60938 8.564 4.60938 11.5364C4.60938 14.5088 7.02759 16.927 10 16.927C12.9724 16.927 15.3906 14.5088 15.3906 11.5364C15.3906 8.564 12.9724 6.14578 10 6.14578ZM10 15.3645C7.8891 15.3645 6.17188 13.6473 6.17188 11.5364C6.17188 9.42566 7.8891 7.70828 10 7.70828C12.1109 7.70828 13.8281 9.42566 13.8281 11.5364C13.8281 13.6473 12.1109 15.3645 10 15.3645Z" fill="#777777"/>
</g>
<defs>
<clipPath id="clip0">
<rect width="20" height="20" fill="white"/>
</clipPath>
</defs>
</svg>
