<svg width="30" height="30" viewBox="0 0 30 30" fill="none" xmlns="http://www.w3.org/2000/svg">
<g clip-path="url(#clip0)">
<path d="M29.0622 30H0.937944C0.420223 30.0002 0.000234753 29.5527 3.83813e-07 29.0005C-0.000116801 28.8626 0.0266012 28.7264 0.0782795 28.6L4.9644 16.6C5.11358 16.2354 5.45119 15.9998 5.82407 16H24.3748C24.7532 16 25.0945 16.2425 25.2401 16.615L29.9275 28.615C30.1268 29.1248 29.901 29.7102 29.4233 29.9229C29.3089 29.9737 29.1862 30 29.0622 30Z" fill="#F3AF3E"/>
<path d="M5.21241 29.9998C4.68592 29.9994 4.25941 29.5722 4.25977 29.0457C4.25989 28.9436 4.27633 28.8421 4.30863 28.7452L6.21535 23.025C6.38171 22.5248 6.92214 22.2542 7.4223 22.4206C7.92246 22.5869 8.19309 23.1274 8.02673 23.6275L6.12001 29.3477C5.99 29.7382 5.62402 30.0011 5.21241 29.9998Z" fill="#D0800B"/>
<path d="M9.97901 29.9998C9.45252 29.9994 9.02601 29.5722 9.02637 29.0457C9.02649 28.9436 9.04293 28.8421 9.07523 28.7452L10.9819 23.025C11.1483 22.5248 11.6887 22.2542 12.1889 22.4206C12.6891 22.5869 12.9597 23.1274 12.7933 23.6275L10.8866 29.3477C10.7566 29.7382 10.3906 30.0011 9.97901 29.9998Z" fill="#D0800B"/>
<path d="M24.2804 29.9998C23.8703 29.9995 23.5063 29.7369 23.3767 29.3477L21.4699 23.6275C21.3036 23.1274 21.5742 22.5869 22.0744 22.4206C22.5745 22.2542 23.115 22.5248 23.2813 23.025L25.188 28.7452C25.3544 29.2447 25.0844 29.7846 24.5848 29.951C24.4866 29.9836 24.3839 30.0002 24.2804 29.9998Z" fill="#D0800B"/>
<path d="M19.5124 29.9998C19.1022 29.9995 18.7383 29.7369 18.6086 29.3477L16.7019 23.6275C16.5355 23.1274 16.8061 22.5869 17.3063 22.4206C17.8065 22.2542 18.3469 22.5248 18.5133 23.025L20.42 28.7452C20.5864 29.2447 20.3163 29.7846 19.8168 29.951C19.7186 29.9836 19.6159 30.0002 19.5124 29.9998Z" fill="#D0800B"/>
<path d="M15 -11C16.1046 -11 17 -10.5523 17 -10V7H13V-10C13 -10.5523 13.8954 -11 15 -11Z" fill="#8F563B"/>
<path d="M25 19H5C4.44775 19 4 18.5896 4 18.0833V13.5C4 13.184 4.17762 12.8902 4.47 12.7227L12.47 8.13933C12.6289 8.04824 12.8126 8 13 8H17C17.1874 8 17.3711 8.04824 17.53 8.13933L25.53 12.7227C25.8224 12.8902 26 13.184 26 13.5V18.0833C26 18.5896 25.5522 19 25 19Z" fill="#EA9D2D"/>
<path d="M18 15H12C11.4477 15 11 14.5523 11 14C11 13.4477 11.4477 13 12 13H18C18.5522 13 19 13.4477 19 14C19 14.5523 18.5522 15 18 15Z" fill="#8F563B"/>
<path d="M17.53 8.152C17.3711 8.05263 17.1874 8 17 8V5H13V8C12.8126 8 12.6289 8.05263 12.47 8.152L8 10.945V11H22V10.945L17.53 8.152Z" fill="#D0800B"/>
</g>
<defs>
<clipPath id="clip0">
<rect width="30" height="30" fill="white"/>
</clipPath>
</defs>
</svg>
