<svg width="30" height="30" viewBox="0 0 30 30" fill="none" xmlns="http://www.w3.org/2000/svg">
<path d="M25.6667 30H4.33333L3 4.31034L3.444 3H26.3333L27 4.31034L25.6667 30Z" fill="#3B869E"/>
<path d="M26.852 6.97146L27 5H3L3.148 6.97146H26.852Z" fill="#054661"/>
<path d="M0 0H30V5H0V0Z" fill="#6FBBC6"/>
<path d="M0 15.6522L15.6522 0L18.6522 3.3478L3 19L0 15.6522Z" fill="#F3AF3E"/>
<path d="M14.6693 5C14.2996 4.99992 13.9999 4.70019 14 4.33043C14 4.15295 14.0705 3.98284 14.196 3.85733L14.8655 3.18792C15.1314 2.93112 15.5553 2.9384 15.8121 3.20432C16.0626 3.46372 16.0626 3.87498 15.8121 4.13446L15.1426 4.80386C15.0171 4.92938 14.8468 5 14.6693 5Z" fill="#6D4100"/>
</svg>
