<svg width="20" height="20" viewBox="0 0 20 20" fill="none" xmlns="http://www.w3.org/2000/svg">
<path d="M5.27344 11.7969C3.65801 11.7969 2.34375 13.1111 2.34375 14.7266C2.34375 16.342 3.65801 17.6562 5.27344 17.6562C6.88887 17.6562 8.20312 16.342 8.20312 14.7266C8.20312 13.1111 6.88887 11.7969 5.27344 11.7969ZM5.27344 16.4844C4.30418 16.4844 3.51562 15.6958 3.51562 14.7266C3.51562 13.7573 4.30418 12.9688 5.27344 12.9688C6.2427 12.9688 7.03125 13.7573 7.03125 14.7266C7.03125 15.6958 6.2427 16.4844 5.27344 16.4844Z" fill="#777777"/>
<path d="M19.4141 17.6562H17.8874L16.4062 13.0718V12.3828C16.4062 11.1982 15.4425 10.2344 14.2578 10.2344H13.6719V8.08594C13.6719 6.6859 12.5329 5.54688 11.1328 5.54688H6.32703L5.98961 1.94789C5.88551 0.837422 4.96594 0 3.85059 0H0.585938C0.262344 0 0 0.262344 0 0.585938C0 0.909531 0.262344 1.17188 0.585938 1.17188H2.39609L3.21184 9.87297C1.32559 10.6772 0 12.5499 0 14.7266C0 17.6343 2.36566 20 5.27344 20C8.18121 20 10.5469 17.6343 10.5469 14.7266C10.5469 14.3929 10.5154 14.0666 10.4559 13.75H12.5V16.5852C11.818 16.827 11.3281 17.4783 11.3281 18.2422C11.3281 19.2114 12.1167 20 13.0859 20C14.0552 20 14.8438 19.2114 14.8438 18.2422C14.8438 17.4783 14.3539 16.827 13.6719 16.5852V13.75H15.3939L16.9034 18.4223C16.9815 18.6642 17.2068 18.8281 17.4609 18.8281H19.4141C19.7377 18.8281 20 18.5658 20 18.2422C20 17.9186 19.7377 17.6562 19.4141 17.6562ZM13.0859 18.8281C12.7629 18.8281 12.5 18.5653 12.5 18.2422C12.5 17.9191 12.7629 17.6562 13.0859 17.6562C13.409 17.6562 13.6719 17.9191 13.6719 18.2422C13.6719 18.5653 13.409 18.8281 13.0859 18.8281ZM11.1328 6.71875C11.8867 6.71875 12.5 7.33207 12.5 8.08594V10.2344H8.03258C7.62551 9.98344 7.18207 9.78602 6.71195 9.65258L6.43691 6.71875H11.1328ZM3.57313 1.17188H3.85059C4.35758 1.17188 4.77555 1.5525 4.82289 2.05727L5.5168 9.45895C5.43609 9.45527 5.35504 9.45312 5.27344 9.45312C4.96094 9.45312 4.65473 9.48062 4.35699 9.53301L3.57313 1.17188ZM5.27344 18.8281C3.01184 18.8281 1.17188 16.9882 1.17188 14.7266C1.17188 12.465 3.01184 10.625 5.27344 10.625C7.53504 10.625 9.375 12.465 9.375 14.7266C9.375 16.9882 7.53504 18.8281 5.27344 18.8281ZM9.36707 11.4062H14.2578C14.7963 11.4062 15.2344 11.8443 15.2344 12.3828V12.5781H10.089C9.89953 12.1552 9.65594 11.7617 9.36707 11.4062V11.4062Z" fill="#777777"/>
</svg>
