<svg width="31" height="30" viewBox="0 0 31 30" fill="none" xmlns="http://www.w3.org/2000/svg">
<path d="M19.5365 16.4056L16.0617 16.9847C15.4802 17.0816 14.8903 17.0816 14.3087 16.9847L10.8339 16.4056C8.76126 16.06 6.87598 17.6598 6.87598 19.7584C6.87598 21.8559 8.75991 23.4566 10.8339 23.1111C14.6402 22.4767 14.6085 22.4593 15.1852 22.4593C15.7712 22.4593 15.7595 22.4816 19.5365 23.1111C21.6054 23.4563 23.4943 21.8604 23.4943 19.7584C23.4943 17.6608 21.6105 16.06 19.5365 16.4056Z" fill="#FAB607"/>
<path d="M25.5394 9.51691H4.83092C2.16715 9.51691 0 11.6841 0 14.3478V25.1691C0 27.8328 2.16715 30 4.83092 30H25.5394C28.2032 30 30.3704 27.8328 30.3704 25.1691V14.3478C30.3704 11.6841 28.2032 9.51691 25.5394 9.51691ZM19.2189 25.0173L15.744 24.4382C15.3731 24.3764 14.9972 24.3764 14.6264 24.4382L11.1515 25.0173C9.60264 25.2756 8.02712 24.8415 6.82892 23.8264C4.31852 21.6998 4.31279 17.8219 6.82892 15.6904C8.02712 14.6754 9.6027 14.2413 11.1515 14.4995L14.6263 15.0786C14.9972 15.1404 15.3731 15.1404 15.744 15.0786L19.2188 14.4995C22.4645 13.9589 25.4267 16.4609 25.4267 19.7585C25.4267 23.0618 22.4586 25.5575 19.2189 25.0173Z" fill="#FC1885"/>
<path d="M3.09179 7.84223C4.7611 7.84223 6.11916 6.48416 6.11916 4.81485C6.11916 3.14554 4.7611 1.78748 3.09179 1.78748C1.42126 1.78748 0 3.13756 0 4.81485C0 6.49208 1.42119 7.84223 3.09179 7.84223Z" fill="#FAB607"/>
<path d="M16.4899 7.08535C18.4434 7.08535 20.0326 5.4961 20.0326 3.54267C20.0326 1.58924 18.4434 0 16.4899 0C14.5365 0 12.9473 1.58924 12.9473 3.54267C12.9473 5.4961 14.5365 7.08535 16.4899 7.08535Z" fill="#FAB607"/>
<path d="M9.87414 6.54943C9.98164 7.0673 10.4716 7.40907 11.0104 7.3082C11.5365 7.19851 11.8685 6.70292 11.7691 6.17197C11.6503 5.60212 11.0841 5.27445 10.5408 5.43638C10.0238 5.60489 9.78699 6.0865 9.87414 6.54943Z" fill="#FC1885"/>
<path d="M7.29696 1.91178C7.40543 2.43455 7.89921 2.77052 8.43319 2.67056C8.95834 2.56106 9.29155 2.06624 9.19197 1.53432C9.07107 0.954679 8.49277 0.637706 7.96427 0.798737C7.46598 0.957577 7.20691 1.43339 7.29696 1.91178Z" fill="#FC1885"/>
</svg>
