<svg width="30" height="30" viewBox="0 0 30 30" fill="none" xmlns="http://www.w3.org/2000/svg">
<path d="M24.6551 23.75V16.5L26.7033 18.5833C27.4575 19.3504 28.6802 19.3504 29.4344 18.5833C30.1885 17.8162 30.1885 16.5727 29.4344 15.8056L24.6551 10.9444V0H11V28.2639C11 29.2227 11.7642 30 12.7069 30C13.6496 30 14.4138 29.2227 14.4138 28.2639C14.4138 29.2227 15.1779 30 16.1207 30C17.0634 30 17.8275 29.2227 17.8275 28.2639C17.8275 29.2227 18.5917 30 19.5344 30C20.4771 30 21.2413 29.2227 21.2413 28.2639C21.2413 29.2227 22.0055 30 22.9482 30C23.8909 30 24.6551 29.2227 24.6551 28.2639V23.75Z" fill="#BB451D"/>
<path d="M21.2382 11.2837H14.2234C13.8361 11.2837 13.522 10.9696 13.522 10.5822C13.522 10.1948 13.8361 9.88074 14.2234 9.88074H21.2382C21.6256 9.88074 21.9397 10.1948 21.9397 10.5822C21.9397 10.9696 21.6256 11.2837 21.2382 11.2837Z" fill="#771E00"/>
<path d="M22.4477 11.2837H21.0447C20.6573 11.2837 20.3433 10.9696 20.3433 10.5822C20.3433 10.1948 20.6573 9.88074 21.0447 9.88074H22.4477C22.8351 9.88074 23.1492 10.1948 23.1492 10.5822C23.1492 10.9696 22.8351 11.2837 22.4477 11.2837Z" fill="#771E00"/>
<path d="M14.6551 23.75V16.5L16.7033 18.5833C17.4575 19.3504 18.6802 19.3504 19.4344 18.5833C20.1885 17.8162 20.1885 16.5727 19.4344 15.8056L14.6551 10.9444V0H1V28.2639C1 29.2227 1.76417 30 2.70689 30C3.6496 30 4.41377 29.2227 4.41377 28.2639C4.41377 29.2227 5.17794 30 6.12066 30C7.06337 30 7.82754 29.2227 7.82754 28.2639C7.82754 29.2227 8.59171 30 9.53443 30C10.4771 30 11.2413 29.2227 11.2413 28.2639C11.2413 29.2227 12.0055 30 12.9482 30C13.8909 30 14.6551 29.2227 14.6551 28.2639V23.75Z" fill="#FFA37C"/>
<path d="M10.7162 11.2837H3.70148C3.31409 11.2837 3 10.9696 3 10.5822C3 10.1948 3.31409 9.88074 3.70148 9.88074H10.7162C11.1036 9.88074 11.4177 10.1948 11.4177 10.5822C11.4177 10.9696 11.1036 11.2837 10.7162 11.2837Z" fill="#D85021"/>
<path d="M11.9257 11.2837H10.5228C10.1354 11.2837 9.82129 10.9696 9.82129 10.5822C9.82129 10.1948 10.1354 9.88074 10.5228 9.88074H11.9257C12.3131 9.88074 12.6272 10.1948 12.6272 10.5822C12.6272 10.9696 12.3131 11.2837 11.9257 11.2837Z" fill="#D85021"/>
<path d="M4.2088 27.4474C3.82141 27.4474 3.50732 27.1333 3.50732 26.7459V23.2385C3.50732 22.8511 3.82141 22.537 4.2088 22.537C4.59619 22.537 4.91028 22.8511 4.91028 23.2385V26.7459C4.91028 27.1333 4.59619 27.4474 4.2088 27.4474Z" fill="#D85021"/>
<path d="M7.71661 27.4474C7.32922 27.4474 7.01514 27.1333 7.01514 26.7459V23.2385C7.01514 22.8511 7.32922 22.537 7.71661 22.537C8.104 22.537 8.41809 22.8511 8.41809 23.2385V26.7459C8.41809 27.1333 8.104 27.4474 7.71661 27.4474Z" fill="#D85021"/>
<path d="M11.2234 27.4176C10.8361 27.4176 10.522 27.1035 10.522 26.7161V23.2087C10.522 22.8213 10.8361 22.5073 11.2234 22.5073C11.6108 22.5073 11.9249 22.8213 11.9249 23.2087V26.7161C11.9249 27.1035 11.6108 27.4176 11.2234 27.4176Z" fill="#D85021"/>
<path d="M18.2386 27.4177C17.8512 27.4177 17.5371 27.1036 17.5371 26.7162V23.2088C17.5371 22.8214 17.8512 22.5073 18.2386 22.5073C18.626 22.5073 18.9401 22.8214 18.9401 23.2088V26.7162C18.9401 27.1036 18.626 27.4177 18.2386 27.4177Z" fill="#771E00"/>
<path d="M21.7459 27.4177C21.3585 27.4177 21.0444 27.1036 21.0444 26.7162V23.2088C21.0444 22.8214 21.3585 22.5073 21.7459 22.5073C22.1333 22.5073 22.4474 22.8214 22.4474 23.2088V26.7162C22.4474 27.1036 22.1333 27.4177 21.7459 27.4177Z" fill="#771E00"/>
</svg>
