<svg width="28" height="30" viewBox="0 0 28 30" fill="none" xmlns="http://www.w3.org/2000/svg">
<path d="M22.4141 4.71405H24.1727V6.47273H22.4141V4.71405Z" fill="#0084FE"/>
<path d="M25.9316 4.71405H27.6903V6.47273H25.9316V4.71405Z" fill="#0084FE"/>
<path d="M19.5161 3.73004L20.7595 2.48666L22.0029 3.73004L20.7595 4.97343L19.5161 3.73004Z" fill="#0084FE"/>
<path d="M22.0034 1.24347L23.2468 8.55565e-05L24.4902 1.24347L23.2468 2.48685L22.0034 1.24347Z" fill="#0084FE"/>
<path d="M19.5161 7.46027L20.7595 6.21688L22.0029 7.46027L20.7595 8.70365L19.5161 7.46027Z" fill="#0084FE"/>
<path d="M22.002 9.94684L23.2453 8.70345L24.4887 9.94684L23.2453 11.1902L22.002 9.94684Z" fill="#0084FE"/>
<path d="M6.19684 2.89948C4.45452 2.89948 2.92781 4.06577 2.46962 5.74683L1.96875 7.58465V8.28724H4.70373V10.4316H9.25295V8.28724H12.7202V2.89948H6.19684Z" fill="#8E8BFF"/>
<path d="M14.4785 2.89948H17.3902V8.28724H14.4785V2.89948Z" fill="#0084FE"/>
<path d="M12.7197 11.3634L15.324 13.9678L16.5676 12.7242L14.4784 10.6349V8.28717H12.7197V11.3634Z" fill="#0084FE"/>
<path d="M9.25268 13.4457V12.1904H4.70346V13.4457C4.70346 14.9436 3.89259 16.3241 2.58431 17.0536L0 18.4945V30.0001H13.9561V18.4945L11.3718 17.0536C10.0636 16.3241 9.25268 14.9436 9.25268 13.4457ZM11.0807 27.1246H2.87549V20.0551H11.0807V27.1246Z" fill="#0084FE"/>
<path d="M4.63379 21.8137H9.3216V25.3658H4.63379V21.8137Z" fill="#0084FE"/>
</svg>
