<svg width="30" height="30" viewBox="0 0 30 30" fill="none" xmlns="http://www.w3.org/2000/svg">
<path d="M9.107 12.8571H20.8927C23.2596 12.8571 25.1784 14.7759 25.1784 17.1429V30H4.82129V17.1429C4.82129 14.7759 6.74008 12.8571 9.107 12.8571Z" fill="#AC2E23"/>
<path d="M7.05273 13.3816L8.62184 16.8343L9.1072 17.872C9.19532 18.0607 9.38483 18.1813 9.59309 18.1811C9.67137 18.1809 9.74872 18.1637 9.8197 18.1307C10.0877 18.0054 10.2034 17.6866 10.078 17.4185C10.078 17.4184 10.078 17.4183 10.0779 17.4182L8.0572 12.9922C7.70724 13.0789 7.36974 13.2099 7.05273 13.3816Z" fill="#751911"/>
<path d="M20.2272 18.1645C20.2699 18.1755 20.3137 18.1811 20.3579 18.1811C20.5827 18.1807 20.7834 18.0399 20.8604 17.8286C20.908 17.7252 21.1561 17.2522 21.3805 16.829L22.9475 13.3816C22.632 13.2107 22.2961 13.0801 21.9479 12.9932L20.4205 16.3543C20.1922 16.7242 19.9971 17.1135 19.8377 17.5179C19.7678 17.8038 19.9418 18.0926 20.2272 18.1645Z" fill="#751911"/>
<path d="M23.0358 30H6.96436L9.10721 16.6072H20.8929L23.0358 30Z" fill="#DC4D41"/>
<path d="M17.1426 13.3929H12.8569V2.14286C12.8569 0.959397 13.8163 0 14.9998 0C16.1833 0 17.1426 0.959397 17.1426 2.14286V13.3929Z" fill="#AC2E23"/>
<path d="M15.0001 3.21429C14.7042 3.21429 14.4644 2.97442 14.4644 2.67858V2.14286C14.4644 1.84701 14.7042 1.60715 15.0001 1.60715C15.2959 1.60715 15.5358 1.84701 15.5358 2.14286V2.67858C15.5358 2.97442 15.2959 3.21429 15.0001 3.21429Z" fill="#751911"/>
</svg>
