<svg width="20" height="20" viewBox="0 0 20 20" fill="none" xmlns="http://www.w3.org/2000/svg">
<path d="M10.3002 9.23685C11.2517 9.43376 12.181 8.82338 12.3779 7.87193C12.5744 6.92279 11.9621 5.99076 11.013 5.79424C10.0617 5.59733 9.13232 6.20772 8.93537 7.15916C8.73841 8.11041 9.3488 9.0399 10.3002 9.23685V9.23685ZM10.0829 7.39674C10.1482 7.08135 10.4568 6.87572 10.7754 6.94178C11.0918 7.00729 11.2959 7.31799 11.2304 7.63435C11.1648 7.95135 10.8551 8.15494 10.5379 8.08931C10.2207 8.02361 10.0172 7.71389 10.0829 7.39674Z" fill="#777777"/>
<path d="M14.2181 7.65456C13.9014 7.58894 13.5912 7.79265 13.5256 8.10952L13.288 9.25706C13.2226 9.57288 12.9116 9.77757 12.5955 9.71202C12.5955 9.71202 8.34601 8.83222 8.00535 8.76167C7.54621 8.66663 7.07695 8.75632 6.68418 9.01437C6.2914 9.27238 6.02273 9.66742 5.92766 10.1266L5.69008 11.2742C5.62445 11.591 5.82816 11.9011 6.14504 11.9667C6.46051 12.032 6.77168 11.83 6.83758 11.5118L7.07515 10.3642C7.10679 10.2115 7.1964 10.08 7.32754 9.99382C7.45867 9.90769 7.61488 9.87761 7.76769 9.90925L8.34144 10.028L7.7475 12.8969C7.7455 12.9064 7.73664 12.9608 7.73554 12.9994L7.67234 15.2734H5.89844C5.57484 15.2734 5.3125 15.5358 5.3125 15.8594C5.3125 16.183 5.57484 16.4453 5.89844 16.4453H8.24218C8.55945 16.4453 8.8191 16.1928 8.82789 15.8757L8.88753 13.7313L10.293 14.0223C10.3482 14.0541 10.1359 13.9444 12.3437 15.0496V17.0703C12.3437 17.3939 12.6061 17.6562 12.9297 17.6562C13.2533 17.6562 13.5156 17.3939 13.5156 17.0703V14.6875C13.5156 14.4655 13.3902 14.2627 13.1917 14.1634L11.274 13.2045L11.7841 10.7407L12.3579 10.8595C13.3082 11.0562 14.2388 10.4449 14.4356 9.4946L14.6731 8.34706C14.7387 8.03023 14.535 7.72015 14.2181 7.65456V7.65456ZM9.48902 10.2656L10.6366 10.5032L10.1614 12.7983L9.01382 12.5607L9.48902 10.2656Z" fill="#777777"/>
<path d="M13.344 2.55443C13.1152 2.32561 12.7442 2.32561 12.5154 2.55443C12.2865 2.78326 12.2865 3.15424 12.5154 3.38307L12.687 3.55467H5.89844C5.57484 3.55467 5.3125 3.81701 5.3125 4.14061C5.3125 4.4642 5.57484 4.72655 5.89844 4.72655H12.687L12.5154 4.89819C12.2866 5.12702 12.2866 5.49799 12.5154 5.72682C12.7442 5.95565 13.1152 5.95569 13.344 5.72682L14.5159 4.55495C14.7447 4.32612 14.7447 3.95514 14.5159 3.72631L13.344 2.55443Z" fill="#777777"/>
<path d="M4.72656 0C3.7573 0 2.96875 0.788555 2.96875 1.75781V18.2422C2.96875 19.2114 3.7573 20 4.72656 20H15.2734C16.2427 20 17.0312 19.2114 17.0312 18.2422V1.75781C17.0312 0.788555 16.2427 0 15.2734 0H4.72656ZM15.8594 1.75781V18.2422C15.8594 18.5653 15.5965 18.8281 15.2734 18.8281H4.72656C4.40348 18.8281 4.14062 18.5653 4.14062 18.2422V1.75781C4.14062 1.43473 4.40348 1.17188 4.72656 1.17188H15.2734C15.5965 1.17188 15.8594 1.43473 15.8594 1.75781Z" fill="#777777"/>
</svg>
