<svg width="20" height="20" viewBox="0 0 20 20" fill="none" xmlns="http://www.w3.org/2000/svg">
<path d="M19.4141 0H0.585938C0.262344 0 0 0.262344 0 0.585938V13.125C0 13.4486 0.262344 13.7109 0.585938 13.7109H3.5073L4.58566 14.7893C4.81449 15.0181 5.18547 15.0181 5.4143 14.7893C5.64313 14.5605 5.64313 14.1895 5.4143 13.9607L4.16438 12.7107C4.10855 12.6549 4.03359 12.605 3.94887 12.5744C3.80871 12.5236 3.9334 12.5391 1.17188 12.5391V8.60207L1.42164 8.85184C1.65051 9.0807 2.02145 9.08066 2.25027 8.85184C2.4791 8.62305 2.4791 8.25203 2.25027 8.0232L1.17188 6.9448V1.17188H7.22656V6.60156H4.0625C3.73891 6.60156 3.47656 6.86391 3.47656 7.1875C3.47656 7.51109 3.73891 7.77344 4.0625 7.77344H10C10.3236 7.77344 10.5859 7.51109 10.5859 7.1875C10.5859 6.86391 10.3236 6.60156 10 6.60156H8.39844V1.17188H18.8281V6.60156C12.6766 6.60156 13.0661 6.58617 12.9261 6.63695C12.8425 6.66711 12.7675 6.71641 12.7106 6.77328L11.4607 8.0232C11.2318 8.25199 11.2318 8.62301 11.4607 8.85184C11.6895 9.0807 12.0605 9.08066 12.2893 8.85184L13.3677 7.77344H18.8281V12.5391H13.125C12.8014 12.5391 12.5391 12.8014 12.5391 13.125C12.5391 13.4486 12.8014 13.7109 13.125 13.7109H18.8281V18.8281H13.7109V16.25C13.7109 15.9264 13.4486 15.6641 13.125 15.6641H10.5859V13.3677L11.6643 12.2893C11.8931 12.0605 11.8931 11.6895 11.6643 11.4607C11.4355 11.2319 11.0645 11.2319 10.8357 11.4607L9.7573 12.5391H6.875C6.55141 12.5391 6.28906 12.8014 6.28906 13.125C6.28906 13.4486 6.55141 13.7109 6.875 13.7109H9.41406V16.25C9.41406 16.5736 9.67641 16.8359 10 16.8359H12.5391V19.4141C12.5391 19.7377 12.8014 20 13.125 20H19.4141C19.7377 20 20 19.7377 20 19.4141V0.585938C20 0.262344 19.7377 0 19.4141 0V0Z" fill="#777777"/>
</svg>
