<svg width="20" height="20" viewBox="0 0 20 20" fill="none" xmlns="http://www.w3.org/2000/svg">
<g clip-path="url(#clip0)">
<path d="M11.8363 8.7563C11.8363 7.22259 10.5886 5.97485 9.05487 5.97485C7.52117 5.97485 6.27344 7.22259 6.27344 8.7563C6.27344 10.29 7.52117 11.5377 9.05487 11.5377C10.5886 11.5377 11.8363 10.29 11.8363 8.7563V8.7563ZM9.05487 7.14688C9.73557 7.14688 10.3185 7.57189 10.5533 8.17029H7.55637C7.79124 7.57189 8.37416 7.14688 9.05487 7.14688V7.14688ZM7.5564 9.34231H10.5534C10.3185 9.94066 9.73557 10.3657 9.05491 10.3657C8.3742 10.3657 7.79124 9.9407 7.5564 9.34231V9.34231Z" fill="#777777"/>
<path d="M19.5681 11.2631C19.4034 10.9846 19.044 10.8923 18.7654 11.0571L16.4702 12.4147C16.3787 12.4687 16.4106 12.4483 15.6258 13.2331L15.1026 12.7098C14.8738 12.481 14.5027 12.481 14.2738 12.7098L10.2108 16.7728C9.98199 17.0016 9.98199 17.3727 10.2108 17.6015L10.703 18.0937C10.0646 18.565 9.30323 18.828 8.5447 18.828H2.96343C2.61905 18.828 2.2953 18.6939 2.05183 18.4504C1.54915 17.9477 1.54915 17.1298 2.05183 16.6271C2.06273 16.6162 2.05441 16.6249 2.20118 16.4677L3.0225 17.289C3.25135 17.5178 3.62238 17.5178 3.85123 17.289L5.46838 15.6718L7.08554 17.289C7.31443 17.5178 7.68541 17.5178 7.91427 17.289L16.2829 8.92037C18.3204 6.88282 18.3205 3.56679 16.2828 1.52829C14.2447 -0.509457 10.9286 -0.509418 8.89084 1.52833L0.522228 9.89694C0.293372 10.1258 0.293372 10.4968 0.522228 10.7257L2.13938 12.3428L0.522228 13.96C0.293372 14.1888 0.293372 14.5599 0.522228 14.7887L1.37198 15.6385L1.21556 15.806C0.263485 16.7663 0.266025 18.322 1.22313 19.2791C1.688 19.744 2.30608 20 2.9635 20H8.54478C9.60991 20 10.6735 19.615 11.5388 18.9295L12.0862 19.4768C12.315 19.7056 12.686 19.7056 12.9149 19.4768L16.9779 15.4138C17.2067 15.185 17.2067 14.8139 16.9779 14.5851L16.4547 14.0618L17.1307 13.3858L19.3622 12.0658C19.6406 11.9011 19.7329 11.5417 19.5681 11.2631V11.2631ZM9.71949 2.35707C11.3004 0.776209 13.8729 0.776209 15.454 2.35699C17.0347 3.93839 17.0347 6.51094 15.4541 8.09164L7.49981 16.0459L1.76527 10.3113L9.71949 2.35707ZM2.968 13.1716L4.63957 14.8431L3.43681 16.0459L1.76523 14.3743L2.968 13.1716ZM12.5004 18.2337L11.4539 17.1872L14.6882 13.9529L15.7347 14.9994L12.5004 18.2337Z" fill="#777777"/>
</g>
<defs>
<clipPath id="clip0">
<rect width="20" height="20" fill="white"/>
</clipPath>
</defs>
</svg>
