<svg width="12" height="12" viewBox="0 0 12 12" fill="none" xmlns="http://www.w3.org/2000/svg">
<path d="M8.8125 2.8125C8.42416 2.8125 8.10938 2.49771 8.10938 2.10938V0.703125C8.10938 0.314789 8.42416 0 8.8125 0C9.20084 0 9.51562 0.314789 9.51562 0.703125V2.10938C9.51562 2.49771 9.20084 2.8125 8.8125 2.8125Z" fill="#1F97DD"/>
<path d="M10.7109 1.40625H10.2188V2.10938C10.2188 2.88478 9.58791 3.51562 8.8125 3.51562C8.03709 3.51562 7.40625 2.88478 7.40625 2.10938V1.40625H4.59375V2.10938C4.59375 2.88478 3.96291 3.51562 3.1875 3.51562C2.41209 3.51562 1.78125 2.88478 1.78125 2.10938V1.40625H1.28906C0.578273 1.40625 0 1.98452 0 2.69531V4.26562H12V2.69531C12 1.98452 11.4217 1.40625 10.7109 1.40625Z" fill="#0078BA"/>
<path d="M3.1875 2.8125C2.79916 2.8125 2.48438 2.49771 2.48438 2.10938V0.703125C2.48438 0.314789 2.79916 0 3.1875 0C3.57584 0 3.89062 0.314789 3.89062 0.703125V2.10938C3.89062 2.49771 3.57584 2.8125 3.1875 2.8125Z" fill="#1F97DD"/>
<path d="M0 4.96875V10.7109C0 11.4217 0.578273 12 1.28906 12H10.7109C11.4217 12 12 11.4217 12 10.7109V4.96875H0Z" fill="#1F97DD"/>
</svg>
