<svg width="24" height="24" viewBox="0 0 24 24" fill="none" xmlns="http://www.w3.org/2000/svg">
<g clip-path="url(#clip0_17_323)">
<path fill-rule="evenodd" clip-rule="evenodd" d="M17.945 2.07899V12.3207H9.76031C9.11518 12.3214 8.49669 12.578 8.04049 13.0342C7.5843 13.4903 7.32765 14.1088 7.32684 14.7539V15.5672H22.875V16.6922H1.125V7.7602C1.125 7.68633 1.11045 7.61318 1.08218 7.54494C1.05391 7.47669 1.01248 7.41468 0.960248 7.36245C0.908015 7.31022 0.846005 7.26878 0.777759 7.24051C0.709514 7.21225 0.636369 7.1977 0.5625 7.1977C0.488631 7.1977 0.415486 7.21225 0.347241 7.24051C0.278995 7.26878 0.216985 7.31022 0.164752 7.36245C0.112519 7.41468 0.071086 7.47669 0.0428178 7.54494C0.0145495 7.61318 -1.10073e-09 7.68633 0 7.7602L0 23.07C-1.10073e-09 23.1439 0.0145495 23.217 0.0428178 23.2853C0.071086 23.3535 0.112519 23.4155 0.164752 23.4677C0.216985 23.52 0.278995 23.5614 0.347241 23.5897C0.415486 23.6179 0.488631 23.6325 0.5625 23.6325C0.636369 23.6325 0.709514 23.6179 0.777759 23.5897C0.846005 23.5614 0.908015 23.52 0.960248 23.4677C1.01248 23.4155 1.05391 23.3535 1.08218 23.2853C1.11045 23.217 1.125 23.1439 1.125 23.07V19.6111H17.945V21.2302L16.0395 22.6148C15.9776 22.6574 15.9248 22.7119 15.8843 22.7751C15.8438 22.8384 15.8164 22.9091 15.8036 22.9831C15.7909 23.0572 15.7931 23.133 15.8101 23.2062C15.8272 23.2793 15.8587 23.3483 15.9029 23.4091C15.947 23.4699 16.0029 23.5212 16.0672 23.56C16.1315 23.5989 16.2029 23.6244 16.2773 23.6352C16.3516 23.646 16.4274 23.6418 16.5001 23.6228C16.5727 23.6038 16.6409 23.5705 16.7005 23.5247L18.5075 22.2122L20.3145 23.5247C20.4352 23.6102 20.5848 23.6446 20.7308 23.6206C20.8768 23.5966 21.0074 23.516 21.0944 23.3963C21.1814 23.2767 21.2177 23.1275 21.1956 22.9813C21.1734 22.835 21.0945 22.7033 20.9759 22.6148L19.0698 21.2302V19.6111H22.875V23.07C22.875 23.2192 22.9343 23.3623 23.0398 23.4677C23.1452 23.5732 23.2883 23.6325 23.4375 23.6325C23.5867 23.6325 23.7298 23.5732 23.8352 23.4677C23.9407 23.3623 24 23.2192 24 23.07V11.2153C24 11.0661 23.9407 10.923 23.8352 10.8176C23.7298 10.7121 23.5867 10.6528 23.4375 10.6528C23.2883 10.6528 23.1452 10.7121 23.0398 10.8176C22.9343 10.923 22.875 11.0661 22.875 11.2153V12.3206H19.0702V0.929993C19.0702 0.780808 19.0109 0.637734 18.9054 0.532245C18.7999 0.426756 18.6568 0.367493 18.5077 0.367493C18.3585 0.367493 18.2154 0.426756 18.1099 0.532245C18.0044 0.637734 17.9452 0.780808 17.9452 0.929993V0.953852H16.2764C15.6312 0.954485 15.0126 1.21104 14.5563 1.66721C14.1001 2.12339 13.8434 2.74194 13.8427 3.38713V3.54885H13.4568C13.2082 3.54914 12.9699 3.648 12.7942 3.82375C12.6184 3.99951 12.5196 4.2378 12.5193 4.48635V6.9764C12.5195 7.26282 12.6334 7.53744 12.8359 7.74C13.0384 7.94257 13.313 8.05654 13.5994 8.05692H15.2109C15.4974 8.05658 15.772 7.94262 15.9745 7.74004C16.177 7.53747 16.2908 7.26283 16.291 6.9764V4.48645C16.2908 4.23788 16.1919 3.99957 16.0162 3.82381C15.8404 3.64805 15.6021 3.54919 15.3535 3.54895H14.9677V3.38718C14.9681 3.04026 15.1061 2.70769 15.3515 2.46243C15.5969 2.21718 15.9295 2.07928 16.2764 2.07899H17.945ZM4.02356 15.0094C3.6413 15.0094 3.26762 14.8961 2.94978 14.6837C2.63194 14.4713 2.3842 14.1695 2.23791 13.8163C2.09161 13.4632 2.05333 13.0746 2.12789 12.6997C2.20246 12.3247 2.38653 11.9804 2.65682 11.7101C2.92712 11.4398 3.2715 11.2557 3.64641 11.1811C4.02132 11.1065 4.40993 11.1448 4.76309 11.2911C5.11625 11.4374 5.4181 11.6851 5.63047 12.0029C5.84284 12.3208 5.95618 12.6945 5.95617 13.0767C5.95558 13.5891 5.75177 14.0803 5.38947 14.4426C5.02716 14.8049 4.53594 15.0088 4.02356 15.0094Z" fill="#367FA8"/>
</g>
<defs>
<clipPath id="clip0_17_323">
<rect width="24" height="24" fill="white"/>
</clipPath>
</defs>
</svg>
