<svg width="24" height="24" viewBox="0 0 24 24" fill="none" xmlns="http://www.w3.org/2000/svg">
<g clip-path="url(#clip0_17_249)">
<path d="M13.0058 0.82701C12.3481 -0.294888 11.6518 -0.256201 10.9941 0.82701C7.97658 5.3146 3.41162 12.046 3.41162 15.4117C3.41162 17.7715 4.37877 19.938 5.92622 21.4854C7.47366 23.0328 9.64009 24 11.9999 24C14.3598 24 16.5262 23.0328 18.0737 21.4854C19.6211 19.938 20.5883 17.7715 20.5883 15.4117C20.5883 12.0073 16.0233 5.3146 13.0058 0.82701ZM18.1897 19.2416C17.5707 20.2474 16.681 21.1372 15.5977 21.7562C15.0948 22.027 14.4759 21.8723 14.205 21.3693C13.8956 20.8277 14.089 20.2088 14.5919 19.938C15.3656 19.5124 15.9846 18.8934 16.4488 18.1584C16.9131 17.4234 17.1839 16.5723 17.2226 15.6825C17.2613 15.1022 17.7255 14.6766 18.3058 14.7153C18.8861 14.754 19.3116 15.2182 19.2729 15.7985C19.1956 17.0365 18.8087 18.1971 18.1897 19.2416Z" fill="#367FA8"/>
</g>
<defs>
<clipPath id="clip0_17_249">
<rect width="24" height="24" fill="white"/>
</clipPath>
</defs>
</svg>
