<svg width="24" height="24" viewBox="0 0 24 24" fill="none" xmlns="http://www.w3.org/2000/svg">
<path d="M6.20744 8.206L2.39936 4.39792C1.86653 3.86781 0.947792 3.86645 0.412203 4.39928C-0.138479 4.95132 -0.136322 5.83776 0.412203 6.38779L2.8127 8.78828V15.3667C1.99605 15.6579 1.40646 16.4311 1.40646 17.3465C1.40646 18.5097 2.35267 19.4559 3.51581 19.4559C4.67896 19.4559 5.62517 18.5097 5.62517 17.3465C5.62517 16.4311 5.03558 15.6579 4.21893 15.3667V13.8309H19.7344V15.3667C18.9178 15.6579 18.3282 16.4311 18.3282 17.3465C18.3282 18.5097 19.2744 19.4559 20.4375 19.4559C21.6007 19.4559 22.5469 18.5097 22.5469 17.3465C22.5469 16.4311 21.9573 15.6579 21.1406 15.3667V11.0185H22.5938C23.3697 11.0185 24 10.3875 24 9.61224C24 8.83703 23.3697 8.206 22.5938 8.206C11.7748 8.206 25.6758 8.206 6.20744 8.206ZM19.7344 11.0185V12.4247H4.21893V10.1945L4.63227 10.6079C4.89871 10.8729 5.25162 11.0185 5.62517 11.0185H19.7344Z" fill="#367FA8"/>
</svg>
