<svg width="24" height="24" viewBox="0 0 24 24" fill="none" xmlns="http://www.w3.org/2000/svg">
<path d="M18.9494 0.205922L16.8689 2.28647L18.8576 4.27523L20.9263 2.20655H21.7969C22.1852 2.20655 22.5 1.89173 22.5 1.50342V0.703125C22.5 0.314812 22.1852 0 21.7969 0H19.4466C19.2601 0 19.0813 0.0740625 18.9494 0.205922Z" fill="#367FA8"/>
<path d="M17.7036 7.08618L18.1945 6.59526C18.4691 6.32067 18.4691 5.8755 18.1945 5.6009L15.5429 2.94923C15.2683 2.67464 14.8231 2.67464 14.5485 2.94923L14.0576 3.44011L17.7036 7.08618Z" fill="#367FA8"/>
<path d="M7.15332 14.9798H10.3844V18.2109H7.15332V14.9798Z" fill="#367FA8"/>
<path d="M16.9887 8.35998L12.7838 4.15505C12.4297 3.80091 11.9588 3.60587 11.458 3.60587H2.57812C1.15425 3.60587 0 4.76012 0 6.18399V21.4219C0 22.8458 1.15425 24 2.57812 24H14.9598C16.3837 24 17.5379 22.8458 17.5379 21.4219V9.68579C17.5379 9.18493 17.3429 8.71412 16.9887 8.35998ZM12.991 19.8231C13.2656 20.0977 13.2656 20.5428 12.991 20.8174C12.8537 20.9547 12.6738 21.0234 12.4939 21.0234C12.314 21.0234 12.134 20.9548 11.9967 20.8175L10.7964 19.6172H6.74156L5.54128 20.8174C5.40398 20.9547 5.22403 21.0234 5.04413 21.0234C4.86422 21.0234 4.68422 20.9548 4.54697 20.8174C4.27238 20.5428 4.27238 20.0977 4.54697 19.8231L5.74725 18.6228V14.5679L4.54697 13.3676C4.27238 13.093 4.27238 12.6478 4.54697 12.3732C4.82152 12.0986 5.26673 12.0986 5.54133 12.3732L6.74161 13.5735H10.7964L11.9968 12.3732C12.2714 12.0986 12.7166 12.0986 12.9911 12.3732C13.2657 12.6478 13.2657 13.093 12.9911 13.3675L11.7908 14.5678V18.6228L12.991 19.8231ZM4.19859 9.1907C3.43308 9.1907 2.8125 8.57012 2.8125 7.8046C2.8125 7.03909 3.43308 6.41851 4.19859 6.41851H11.0696L13.8419 9.19074H4.19859V9.1907Z" fill="#367FA8"/>
<path d="M22.2422 11.7656C21.2729 11.7656 20.4844 10.977 20.4844 10.0078C20.4844 9.75899 20.5551 9.32047 21.1664 8.38892C21.4711 7.92458 21.7723 7.5478 21.785 7.53196C21.8962 7.39321 22.0644 7.31244 22.2422 7.31244C22.42 7.31244 22.5882 7.39316 22.6994 7.53196C22.7121 7.54775 23.0133 7.92453 23.318 8.38892C23.9293 9.32047 24 9.75899 24 10.0078C24 10.977 23.2115 11.7656 22.2422 11.7656Z" fill="#367FA8"/>
</svg>
