<svg width="24" height="24" viewBox="0 0 24 24" fill="none" xmlns="http://www.w3.org/2000/svg">
<path d="M5.99993 3.12858V1.71429H4.28564V3.12858C4.84463 2.95993 5.44094 2.95993 5.99993 3.12858Z" fill="#367FA8"/>
<path d="M3.0001 0.857143H7.28582C7.52251 0.857143 7.71439 0.665265 7.71439 0.428571C7.71439 0.191878 7.52251 0 7.28582 0H3.0001C2.76341 0 2.57153 0.191878 2.57153 0.428571C2.57153 0.665265 2.76341 0.857143 3.0001 0.857143Z" fill="#367FA8"/>
<path d="M3 6C3 7.18347 3.95939 8.14286 5.14286 8.14286C6.32633 8.14286 7.28572 7.18347 7.28572 6C7.28572 4.81654 6.32633 3.85715 5.14286 3.85715C3.95998 3.85856 3.00142 4.81712 3 6ZM4.71429 5.14286C4.71429 4.90617 4.90617 4.71429 5.14286 4.71429C5.37955 4.71429 5.57143 4.90617 5.57143 5.14286V6C5.57143 6.2367 5.37955 6.42858 5.14286 6.42858C4.90617 6.42858 4.71429 6.2367 4.71429 6V5.14286Z" fill="#367FA8"/>
<path d="M3.85711 15H3.42853C2.71846 15 2.14282 15.5756 2.14282 16.2857V19.7143C2.14282 20.4244 2.71846 21 3.42853 21H3.85711C4.56719 21 5.14282 20.4244 5.14282 19.7143V16.2857C5.14282 15.5756 4.56719 15 3.85711 15Z" fill="#367FA8"/>
<path d="M17.5715 16.7143V17.1429C17.5743 19.3427 19.2401 21.1842 21.4287 21.4067V12.4496C19.2398 12.6722 17.5739 14.5141 17.5715 16.7143Z" fill="#367FA8"/>
<path d="M7.70957 7.54544C7.16878 8.44712 6.19449 8.99886 5.14307 8.99886C4.09166 8.99886 3.11736 8.44712 2.57657 7.54544C0.986577 8.46636 0.00546522 10.1626 0 12V22.7143C0 23.4244 0.575634 24 1.28571 24H9C9.71008 24 10.2857 23.4244 10.2857 22.7143V12C10.2878 10.1607 9.30483 8.46104 7.70957 7.54544ZM6 19.7143C5.99859 20.8972 5.04002 21.8557 3.85714 21.8572H3.42857C2.24569 21.8557 1.28713 20.8972 1.28571 19.7143V16.2857C1.28713 15.1028 2.24569 14.1443 3.42857 14.1429H3.85714C5.04002 14.1443 5.99859 15.1028 6 16.2857V19.7143ZM9.42858 22.7143C9.42858 22.951 9.2367 23.1429 9 23.1429H7.71429C7.4776 23.1429 7.28572 22.951 7.28572 22.7143C7.28572 22.4776 7.4776 22.2857 7.71429 22.2857H8.57143V21.4286C8.57143 21.1919 8.76331 21 9 21C9.2367 21 9.42858 21.1919 9.42858 21.4286V22.7143ZM9.24986 12.1252C9.24986 13.629 7.93543 13.8776 7.44986 14.5714H9C9.2367 14.5714 9.42858 14.7633 9.42858 15C9.42858 15.2367 9.2367 15.4286 9 15.4286H6.85715C6.62045 15.4286 6.42857 15.2367 6.42857 15C6.4439 14.6754 6.5504 14.3617 6.73586 14.0949C7.35472 13.1949 8.39272 13.1284 8.39272 12.1234C8.39832 11.922 8.29407 11.7335 8.12051 11.6311C7.94695 11.5287 7.73148 11.5287 7.55793 11.6311C7.38437 11.7335 7.28011 11.922 7.28572 12.1234V12.2636C7.28572 12.5003 7.09384 12.6922 6.85715 12.6922C6.62045 12.6922 6.42857 12.5003 6.42857 12.2636V12.1234C6.41969 11.6136 6.68659 11.1386 7.1267 10.8811C7.56681 10.6236 8.11162 10.6236 8.55173 10.8811C8.99184 11.1386 9.25875 11.6136 9.24986 12.1234V12.1252Z" fill="#367FA8"/>
<path d="M16.7207 16.5857C15.4434 16.2161 14.5661 15.0441 14.5715 13.7143V5.57144C14.5689 3.44227 12.8435 1.71689 10.7143 1.71429H6.85718V2.57144H10.7143C12.3704 2.57333 13.7124 3.91537 13.7143 5.57144V13.7143C13.7246 15.5165 14.9741 17.0745 16.731 17.4759C16.7082 17.1797 16.7048 16.8824 16.7207 16.5857Z" fill="#367FA8"/>
<path d="M23.1428 11.1429C22.6694 11.1429 22.2856 11.5266 22.2856 12V21.8572C22.2856 22.3305 22.6694 22.7143 23.1428 22.7143C23.6162 22.7143 23.9999 22.3305 23.9999 21.8572V12C23.9999 11.5266 23.6162 11.1429 23.1428 11.1429Z" fill="#367FA8"/>
</svg>
