<svg width="24" height="24" viewBox="0 0 24 24" fill="none" xmlns="http://www.w3.org/2000/svg">
<path d="M18.2368 0.356391C18.1118 0.135938 17.8783 0 17.6249 0H9.18744C8.8647 0 8.58388 0.21975 8.5056 0.532828L5.6931 11.8297C5.64022 12.0398 5.68761 12.2623 5.82083 12.4326C5.95405 12.6035 6.15866 12.7031 6.37494 12.7031H9.57884L5.71649 23.0497C5.59288 23.3792 5.73228 23.7494 6.04194 23.9162C6.353 24.0829 6.73785 23.9937 6.94349 23.7102L18.1935 8.19455C18.3493 7.98099 18.3713 7.69809 18.2518 7.46189C18.1317 7.22639 17.8893 7.07808 17.6249 7.07808H14.6483L18.2278 1.06495C18.3583 0.847313 18.3617 0.576797 18.2368 0.356391Z" fill="#367FA8"/>
</svg>
