<svg width="24" height="24" viewBox="0 0 24 24" fill="none" xmlns="http://www.w3.org/2000/svg">
<path d="M12 0C10.0616 0 8.48438 1.5772 8.48438 3.51562C8.48438 5.45405 10.0616 7.03125 12 7.03125C13.9384 7.03125 15.5156 5.45405 15.5156 3.51562C15.5156 1.5772 13.9384 0 12 0ZM14.1094 4.21875H11.2969V1.40625H12.7031V2.8125H14.1094V4.21875Z" fill="#367FA8"/>
<path d="M9.89062 16.9219H1.40625C0.629578 16.9219 0 17.5515 0 18.3281V19.7344H11.2969V18.3281C11.2969 17.5515 10.6673 16.9219 9.89062 16.9219Z" fill="#367FA8"/>
<path d="M7.78125 7.03125H3.51562C2.35064 7.03125 1.40625 7.97564 1.40625 9.14062V15.5156H9.89062V9.14062C9.89062 7.97564 8.94623 7.03125 7.78125 7.03125Z" fill="#367FA8"/>
<path d="M22.5938 16.9219H14.1094C13.3327 16.9219 12.7031 17.5515 12.7031 18.3281V19.7344H24V18.3281C24 17.5515 23.3704 16.9219 22.5938 16.9219Z" fill="#367FA8"/>
<path d="M20.4844 7.03125H16.2188C15.0538 7.03125 14.1094 7.97564 14.1094 9.14062V15.5156H22.5938V9.14062C22.5938 7.97564 21.6494 7.03125 20.4844 7.03125Z" fill="#367FA8"/>
<path d="M20.4844 22.5938V21.1406H16.2188V22.5938H7.78125V21.1406H3.51562V22.5938H0V24H24V22.5938H20.4844Z" fill="#367FA8"/>
</svg>
