<svg width="24" height="24" viewBox="0 0 24 24" fill="none" xmlns="http://www.w3.org/2000/svg">
<g clip-path="url(#clip0_812_1066)">
<path d="M10.46 2.50079L0.642815 19.6856C0.320808 20.2412 0.317706 20.926 0.634666 21.4845C0.951626 22.043 1.54107 22.3915 2.18321 22.4H21.8168C22.459 22.3915 23.0484 22.043 23.3654 21.4845C23.6823 20.926 23.6792 20.2412 23.3572 19.6856L13.54 2.50079C13.2271 1.94437 12.6384 1.60001 12 1.60001C11.3616 1.60001 10.7729 1.94437 10.46 2.50079Z" fill="#FFEDA9"/>
<path d="M23.704 19.488L13.888 2.30399C13.5044 1.6218 12.7827 1.1996 12 1.1996C11.2174 1.1996 10.4956 1.6218 10.112 2.30399L0.296027 19.488C-0.0970884 20.1673 -0.0998059 21.0043 0.28889 21.6862C0.677585 22.368 1.39919 22.7922 2.18403 22.8H21.816C22.6009 22.7922 23.3225 22.368 23.7112 21.6862C24.0999 21.0043 24.0971 20.1673 23.704 19.488ZM21.816 22H2.18403C1.68444 21.9916 1.22675 21.719 0.981518 21.2837C0.736283 20.8483 0.740283 20.3156 0.992027 19.884L10.808 2.69999C11.049 2.26777 11.5051 1.99988 12 1.99988C12.4949 1.99988 12.951 2.26777 13.192 2.69999L23.008 19.884C23.2598 20.3156 23.2638 20.8483 23.0185 21.2837C22.7733 21.719 22.3156 21.9916 21.816 22Z" fill="#464F5D"/>
<path d="M13.8532 6.302L11.8084 4.9392C11.7578 4.90554 11.6946 4.89672 11.6367 4.91524C11.5788 4.93376 11.5325 4.97761 11.5108 5.0344L8.50322 12.9288C8.47978 12.9903 8.48812 13.0594 8.52552 13.1136C8.56292 13.1678 8.62458 13.2001 8.69042 13.2H11.6968C11.7643 13.1999 11.8273 13.2339 11.8644 13.2903C11.9014 13.3468 11.9074 13.4181 11.8804 13.48L10.8948 15.7804C10.8714 15.835 10.8249 15.8764 10.768 15.8933C10.711 15.9103 10.6495 15.901 10.6 15.868L9.88602 15.392C9.82679 15.3525 9.75106 15.3475 9.68714 15.3788C9.62322 15.4101 9.58075 15.473 9.57562 15.544L9.23322 20.3384C9.22768 20.418 9.26995 20.4932 9.34077 20.5299C9.4116 20.5665 9.49744 20.5576 9.55922 20.5072L13.3192 17.4308C13.3755 17.3846 13.4023 17.3115 13.3891 17.2398C13.3758 17.1682 13.3247 17.1094 13.2556 17.0864L12.6316 16.8784C12.5747 16.8595 12.5293 16.816 12.5079 16.76C12.4865 16.7039 12.4914 16.6412 12.5212 16.5892L15.4292 11.5004C15.4652 11.4384 15.4653 11.3618 15.4293 11.2998C15.3934 11.2377 15.3269 11.1996 15.2552 11.2H11.9236C11.8543 11.2 11.7899 11.1641 11.7534 11.1051C11.717 11.0461 11.7137 10.9724 11.7448 10.9104L13.92 6.56C13.9666 6.46953 13.9379 6.35847 13.8532 6.302Z" fill="#464F5D"/>
</g>
<defs>
<clipPath id="clip0_812_1066">
<rect width="24" height="24" fill="white"/>
</clipPath>
</defs>
</svg>
