<svg width="24" height="24" viewBox="0 0 24 24" fill="none" xmlns="http://www.w3.org/2000/svg">
<g clip-path="url(#clip0_812_1133)">
<path d="M21.7862 23.16L0.840003 2.2138C0.699341 2.07306 0.487751 2.0309 0.303886 2.10698C0.120021 2.18306 8.64405e-05 2.3624 2.80466e-06 2.56139V23.5076C-0.000438857 23.6383 0.0512985 23.7638 0.14374 23.8563C0.236181 23.9487 0.361685 24.0005 0.492417 24H21.4386C21.6376 23.9999 21.817 23.88 21.893 23.6961C21.9691 23.5123 21.927 23.3007 21.7862 23.16ZM4.13793 19.6552V11.8622C4.13795 11.7785 4.18842 11.703 4.2658 11.6711C4.34317 11.6391 4.43219 11.6569 4.49131 11.7161L12.2839 19.5087C12.3431 19.5678 12.3609 19.6568 12.329 19.7342C12.297 19.8116 12.2215 19.8621 12.1378 19.8621H4.34483C4.23056 19.8621 4.13793 19.7694 4.13793 19.6552Z" fill="#F0C419"/>
<path d="M3.72419 22.7586V24H2.89661V22.7586C2.89661 22.5301 3.08187 22.3448 3.3104 22.3448C3.53893 22.3448 3.72419 22.5301 3.72419 22.7586Z" fill="#009688"/>
<path d="M6.20686 22.7586V24H5.37927V22.7586C5.37927 22.5301 5.56453 22.3448 5.79307 22.3448C6.0216 22.3448 6.20686 22.5301 6.20686 22.7586Z" fill="#009688"/>
<path d="M8.68965 22.7586V24H7.86206V22.7586C7.86206 22.5301 8.04732 22.3448 8.27585 22.3448C8.50439 22.3448 8.68965 22.5301 8.68965 22.7586Z" fill="#009688"/>
<path d="M11.1724 22.7586V24H10.3448V22.7586C10.3448 22.5301 10.5301 22.3448 10.7586 22.3448C10.9872 22.3448 11.1724 22.5301 11.1724 22.7586Z" fill="#009688"/>
<path d="M13.6552 22.7586V24H12.8276V22.7586C12.8276 22.5301 13.0129 22.3448 13.2414 22.3448C13.47 22.3448 13.6552 22.5301 13.6552 22.7586Z" fill="#009688"/>
<path d="M16.1379 22.7586V24H15.3103V22.7586C15.3103 22.5301 15.4956 22.3448 15.7241 22.3448C15.9526 22.3448 16.1379 22.5301 16.1379 22.7586Z" fill="#009688"/>
<path d="M18.6207 22.7586V24H17.7931V22.7586C17.7931 22.5301 17.9784 22.3448 18.2069 22.3448C18.4354 22.3448 18.6207 22.5301 18.6207 22.7586Z" fill="#009688"/>
<path d="M1.65517 8.27585C1.65517 8.50439 1.46991 8.68965 1.24138 8.68965H0V7.86206H1.24138C1.46991 7.86206 1.65517 8.04732 1.65517 8.27585Z" fill="#009688"/>
<path d="M1.65517 5.7931C1.65517 6.02163 1.46991 6.20689 1.24138 6.20689H0V5.3793H1.24138C1.46991 5.3793 1.65517 5.56456 1.65517 5.7931Z" fill="#009688"/>
<path d="M1.65517 10.7586C1.65517 10.9871 1.46991 11.1724 1.24138 11.1724H0V10.3448H1.24138C1.46991 10.3448 1.65517 10.5301 1.65517 10.7586Z" fill="#009688"/>
<path d="M1.65517 13.2414C1.65517 13.4699 1.46991 13.6552 1.24138 13.6552H0V12.8276H1.24138C1.46991 12.8276 1.65517 13.0128 1.65517 13.2414Z" fill="#009688"/>
<path d="M1.65517 15.7241C1.65517 15.9527 1.46991 16.1379 1.24138 16.1379H0V15.3103H1.24138C1.46991 15.3103 1.65517 15.4956 1.65517 15.7241Z" fill="#009688"/>
<path d="M1.65517 18.2069C1.65517 18.4354 1.46991 18.6207 1.24138 18.6207H0V17.7931H1.24138C1.46991 17.7931 1.65517 17.9784 1.65517 18.2069Z" fill="#009688"/>
<path d="M1.65517 20.6896C1.65517 20.9182 1.46991 21.1034 1.24138 21.1034H0V20.2758H1.24138C1.46991 20.2758 1.65517 20.4611 1.65517 20.6896Z" fill="#009688"/>
<path d="M24 0.492417V21.4386C23.9999 21.6376 23.88 21.817 23.6961 21.893C23.5123 21.9691 23.3007 21.927 23.16 21.7862L2.2138 0.840003C2.07306 0.699341 2.0309 0.487751 2.10698 0.303886C2.18306 0.120021 2.3624 8.64405e-05 2.56139 2.80466e-06H23.5076C23.6383 -0.000438857 23.7638 0.0512985 23.8563 0.14374C23.9487 0.236181 24.0005 0.361685 24 0.492417Z" fill="#F29C1F"/>
<path d="M24 0.492417V0.587589L12.9807 11.6069L12.3931 11.0193L23.4124 2.80466e-06H23.5075C23.6383 -0.000438857 23.7638 0.0512985 23.8562 0.14374C23.9487 0.236181 24.0004 0.361685 24 0.492417Z" fill="#D25627"/>
<path d="M24 4.79172V5.96689L15.6703 14.2965L15.0828 13.709L24 4.79172Z" fill="#D25627"/>
<path d="M24 10.171V11.3462L18.36 16.9862L17.7725 16.3986L24 10.171Z" fill="#D25627"/>
<path d="M24 15.5504V16.7255L21.0496 19.6759L20.462 19.0883L24 15.5504Z" fill="#D25627"/>
<path d="M19.2083 0L10.2911 8.91724L9.70349 8.32966L18.0331 0L19.2083 0Z" fill="#D25627"/>
<path d="M13.8248 0C13.8206 0.0078506 13.815 0.0148632 13.8083 0.0206897L7.60138 6.22759L7.01379 5.64L12.6538 0H13.8248Z" fill="#D25627"/>
<path d="M8.44961 0L4.91168 3.53793L4.3241 2.95034L7.27444 0L8.44961 0Z" fill="#D25627"/>
</g>
<defs>
<clipPath id="clip0_812_1133">
<rect width="24" height="24" fill="white"/>
</clipPath>
</defs>
</svg>
