<svg width="24" height="24" viewBox="0 0 24 24" fill="none" xmlns="http://www.w3.org/2000/svg">
<g clip-path="url(#clip0_812_1160)">
<path d="M22.4 19.6V23.2C22.3788 23.4401 22.1684 23.6185 21.928 23.6H2.07204C1.8317 23.6185 1.62124 23.4401 1.60004 23.2V19.6H22.4Z" fill="#F0C419"/>
<path d="M13.32 7.38L12.152 8.548L11.968 8.732C11.7198 8.97949 11.3561 9.07155 11.02 8.972C10.8686 8.9269 10.7311 8.84435 10.62 8.732L10.14 8.252C9.99208 8.1024 9.99208 7.86161 10.14 7.712C10.2133 7.64064 10.2539 7.54227 10.2524 7.44C10.2524 7.33922 10.2119 7.24266 10.14 7.172L9.60002 6.632C9.45028 6.48402 9.20936 6.48402 9.05962 6.632C8.98788 6.70221 8.89198 6.74228 8.79162 6.744C8.68987 6.74389 8.59227 6.70364 8.52002 6.632L6.63202 4.744L6.35962 4.472C6.21168 4.3224 6.21168 4.08161 6.35962 3.932L7.71162 2.588C7.20597 2.07868 6.48256 1.84995 5.77602 1.976C5.58171 1.9695 5.39713 1.88943 5.25962 1.752C5.15741 1.65014 5.08673 1.52099 5.05602 1.38C4.98162 0.978546 5.2436 0.591815 5.64402 0.512002C6.96402 0.252002 7.71162 0.428002 8.52402 1.236L11.22 3.932C11.368 4.08161 11.368 4.3224 11.22 4.472C11.1469 4.5434 11.1063 4.64179 11.108 4.744C11.1079 4.84474 11.1483 4.9413 11.22 5.012L11.76 5.552C11.9098 5.69998 12.1507 5.69998 12.3004 5.552C12.3722 5.4818 12.4681 5.44172 12.5684 5.44C12.6702 5.44012 12.7678 5.48037 12.84 5.552L13.32 6.032C13.6916 6.40452 13.6916 7.00748 13.32 7.38Z" fill="#BDC3C7"/>
<path d="M8.25321 6.36399L2.04521 12.576C1.90157 12.7201 1.70647 12.8011 1.50301 12.8011C1.29955 12.8011 1.10446 12.7201 0.960811 12.576L0.425211 12.036C0.279473 11.8941 0.197266 11.6994 0.197266 11.496C0.197266 11.2926 0.279473 11.0979 0.425211 10.956L6.63321 4.74399L8.25321 6.36399Z" fill="#CB8252"/>
<path d="M0.504028 19.788L12 8.19202L23.496 19.788H0.504028Z" fill="#F3D55B"/>
<path d="M12 18.8C13.7674 18.8 15.2 17.3673 15.2 15.6C15.2 13.8327 13.7674 12.4 12 12.4C10.2327 12.4 8.80005 13.8327 8.80005 15.6C8.80005 17.3673 10.2327 18.8 12 18.8Z" fill="white"/>
<path d="M12 19.2C10.0118 19.2 8.40002 17.5882 8.40002 15.6C8.40002 13.6118 10.0118 12 12 12C13.9882 12 15.6 13.6118 15.6 15.6C15.5978 17.5873 13.9873 19.1978 12 19.2ZM12 12.8C10.4536 12.8 9.20002 14.0536 9.20002 15.6C9.20002 17.1464 10.4536 18.4 12 18.4C13.5464 18.4 14.8 17.1464 14.8 15.6C14.798 14.0544 13.5456 12.802 12 12.8Z" fill="#BDC3C7"/>
<path d="M13.2 16.8C13.1212 16.7999 13.0441 16.7766 12.9784 16.7328L11.7784 15.9328C11.6671 15.8587 11.6001 15.7338 11.6 15.6V14.4C11.6 14.1791 11.7791 14 12 14C12.221 14 12.4 14.1791 12.4 14.4V15.386L13.422 16.066C13.5698 16.1634 13.6361 16.3464 13.5848 16.5158C13.5336 16.6852 13.3771 16.8008 13.2 16.8Z" fill="#95A5A5"/>
<path d="M23.496 20.188C23.3891 20.1876 23.2868 20.1443 23.212 20.068L12 8.7564L0.788019 20.0696C0.631733 20.222 0.38213 20.2209 0.227125 20.0673C0.0721199 19.9136 0.0689575 19.664 0.220019 19.5064L11.716 7.9064C11.875 7.75483 12.125 7.75483 12.284 7.9064L23.78 19.5064C23.8925 19.6212 23.9254 19.7922 23.8635 19.9406C23.8015 20.0889 23.6568 20.1857 23.496 20.1864V20.188Z" fill="#009688"/>
</g>
<defs>
<clipPath id="clip0_812_1160">
<rect width="24" height="24" fill="white"/>
</clipPath>
</defs>
</svg>
