<svg width="25" height="24" viewBox="0 0 25 24" fill="none" xmlns="http://www.w3.org/2000/svg">
<path d="M15.6293 13.1245L12.8494 13.5878C12.3842 13.6654 11.9123 13.6654 11.447 13.5878L8.66715 13.1245C7.00908 12.8481 5.50085 14.1279 5.50085 15.8068C5.50085 17.4848 7.008 18.7653 8.66715 18.489C11.7123 17.9815 11.6869 17.9675 12.1482 17.9675C12.6171 17.9675 12.6077 17.9854 15.6293 18.489C17.2844 18.7651 18.7955 17.4884 18.7955 15.8068C18.7955 14.1287 17.2884 12.8481 15.6293 13.1245Z" fill="#FAB607"/>
<path d="M20.4316 7.61353H3.86473C1.73372 7.61353 0 9.34725 0 11.4783V20.1353C0 22.2663 1.73372 24 3.86473 24H20.4316C22.5626 24 24.2963 22.2663 24.2963 20.1353V11.4783C24.2963 9.34725 22.5626 7.61353 20.4316 7.61353ZM15.3751 20.0139L12.5952 19.5506C12.2985 19.5011 11.9977 19.5011 11.7011 19.5506L8.9212 20.0139C7.68211 20.2204 6.42169 19.8732 5.46314 19.0611C3.45481 17.3598 3.45023 14.2575 5.46314 12.5524C6.42169 11.7403 7.68216 11.393 8.9212 11.5996L11.7011 12.0629C11.9977 12.1123 12.2985 12.1123 12.5952 12.0629L15.375 11.5996C17.9716 11.1671 20.3414 13.1687 20.3414 15.8068C20.3414 18.4495 17.9669 20.446 15.3751 20.0139Z" fill="#FC1885"/>
<path d="M2.47343 6.27375C3.80888 6.27375 4.89533 5.1873 4.89533 3.85185C4.89533 2.51641 3.80888 1.42995 2.47343 1.42995C1.137 1.42995 0 2.51002 0 3.85185C0 5.19364 1.13695 6.27375 2.47343 6.27375Z" fill="#FAB607"/>
<path d="M13.1916 5.66828C14.7543 5.66828 16.0257 4.39688 16.0257 2.83414C16.0257 1.27139 14.7543 0 13.1916 0C11.6288 0 10.3574 1.27139 10.3574 2.83414C10.3574 4.39688 11.6288 5.66828 13.1916 5.66828Z" fill="#FAB607"/>
<path d="M7.89892 5.23955C7.98492 5.65385 8.37686 5.92727 8.8079 5.84657C9.2288 5.75882 9.49443 5.36235 9.41492 4.93759C9.31985 4.4817 8.86685 4.21957 8.43225 4.34912C8.01867 4.48392 7.8292 4.86921 7.89892 5.23955Z" fill="#FC1885"/>
<path d="M5.83786 1.52941C5.92464 1.94762 6.31966 2.2164 6.74685 2.13643C7.16697 2.04883 7.43353 1.65297 7.35387 1.22744C7.25715 0.763725 6.79451 0.510147 6.37171 0.638972C5.97308 0.766044 5.76582 1.14669 5.83786 1.52941Z" fill="#FC1885"/>
</svg>
