<svg width="30" height="30" viewBox="0 0 30 30" fill="none" xmlns="http://www.w3.org/2000/svg">
<g clip-path="url(#clip0)">
<path d="M4.93654 0.922153L8.18908 4.17463C8.60205 4.5876 8.60205 5.25709 8.18908 5.67006L5.77127 8.08788C5.3583 8.50084 4.68881 8.50084 4.27584 8.08788L1.0233 4.8354C0.800525 4.61262 0.421599 4.71563 0.339158 5.01967C-0.278303 7.29698 0.305642 9.8318 2.09369 11.6198C4.03959 13.5657 6.86978 14.0854 9.29012 13.1828L23.3663 28.5755C24.8117 30.156 27.2834 30.2112 28.7979 28.6968C30.3195 27.1751 30.2555 24.6892 28.6576 23.2479L13.2298 9.33258C14.2078 6.88143 13.7054 3.97694 11.7211 1.99249C9.93301 0.204438 7.39812 -0.379507 5.12082 0.237954C4.81677 0.320395 4.71377 0.69938 4.93654 0.922153ZM27.1861 26.0129C27.1861 26.6348 26.682 27.139 26.0601 27.139C25.4381 27.139 24.934 26.6348 24.934 26.0129C24.934 25.391 25.4381 24.8869 26.0601 24.8869C26.682 24.8869 27.1861 25.391 27.1861 26.0129Z" fill="#605F6D"/>
<path d="M11.948 7.91414L13.3037 9.13694C14.1796 6.72821 13.6529 3.92443 11.721 1.99248C11.576 1.84746 11.4255 1.71135 11.2712 1.58221C12.5455 3.4684 12.7709 5.8517 11.948 7.91414Z" fill="#53515E"/>
<path d="M22.0742 27.1624L23.3664 28.5754C24.8117 30.1559 27.2835 30.2111 28.798 28.6967C30.3196 27.1751 30.2556 24.6891 28.6576 23.2478L28.1332 22.7749C28.938 24.2019 28.7418 26.0528 27.5162 27.2783C26.0018 28.7927 23.5196 28.743 22.0742 27.1624Z" fill="#53515E"/>
<path d="M9.29021 13.1827L8.00847 11.7643C5.76878 12.5996 3.17864 12.216 1.26245 10.6123C1.50245 10.9675 1.77925 11.3053 2.09372 11.6198C4.03962 13.5657 6.86987 14.0854 9.29021 13.1827Z" fill="#53515E"/>
<path d="M17.9205 13.5635L16.7239 14.7601L15.9223 13.9586C15.4256 13.4619 14.6203 13.4619 14.1236 13.9586L13.0284 15.0538C13.3042 15.7642 13.303 16.5572 13.0248 17.2668L15.6729 20.1626C16.2519 19.8927 16.8984 19.8152 17.5162 19.9301C17.8837 19.9986 18.2614 19.8821 18.5257 19.6178L19.1542 18.9892C19.6509 18.4925 19.6509 17.6873 19.1542 17.1906C18.7115 16.7479 18.7115 16.0301 19.1542 15.5875L19.6332 15.1084L17.9205 13.5635Z" fill="#53515E"/>
<path d="M29.7392 3.73154L27.681 1.67332C27.483 1.47533 27.1499 1.52566 27.0193 1.77328L25.9113 3.87252L15.7863 13.9974L17.4151 15.6262L27.5401 5.50137L29.6393 4.3933C29.887 4.26264 29.9372 3.92953 29.7392 3.73154Z" fill="#E9EBF2"/>
<path d="M29.7392 3.73155L29.2196 3.21194C29.256 3.38543 29.1796 3.57481 29.007 3.66586L26.9078 4.77393L16.7828 14.8988L15.8338 13.9498L15.7863 13.9974L17.4151 15.6263L27.54 5.50137L29.6393 4.3933C29.8869 4.26264 29.9372 3.92953 29.7392 3.73155Z" fill="#C7CAD3"/>
<path d="M13.9747 19.9018C14.8535 19.023 16.1362 18.7958 17.2247 19.2185L18.32 18.1232C18.8167 17.6265 18.8167 16.8212 18.32 16.3245L15.088 13.0925C14.5913 12.5958 13.786 12.5958 13.2894 13.0925L12.1941 14.1878C12.6168 15.2763 12.3895 16.5591 11.5108 17.4378C10.6321 18.3165 9.34934 18.5437 8.26079 18.1211L2.4545 23.9274C1.0653 25.3166 1.0653 27.5689 2.4545 28.9581C3.8437 30.3473 6.09598 30.3473 7.48518 28.9581L13.2915 23.1518C12.8687 22.0633 13.096 20.7805 13.9747 19.9018Z" fill="#FFDC64"/>
<path d="M18.3199 16.3245L17.5557 15.5603C17.6627 15.9809 17.5531 16.4452 17.224 16.7743L16.1287 17.8696C15.0402 17.4469 13.7574 17.6742 12.8787 18.5529C12 19.4316 11.7727 20.7144 12.1954 21.8029L6.38911 27.6092C5.12166 28.8766 3.13616 28.9871 1.7428 27.9418C1.91372 28.3098 2.1509 28.6545 2.45442 28.9581C3.84362 30.3473 6.0959 30.3473 7.4851 28.9581L13.2914 23.1518C12.8688 22.0632 13.096 20.7805 13.9747 19.9018C14.8534 19.023 16.1362 18.7958 17.2247 19.2185L18.32 18.1232C18.8166 17.6265 18.8166 16.8212 18.3199 16.3245Z" fill="#FFC850"/>
<path d="M4.51045 25.757C4.38911 25.757 4.26776 25.7107 4.17512 25.6181C3.98997 25.4329 3.98997 25.1327 4.17512 24.9474L8.66733 20.4553C8.85255 20.2702 9.15278 20.2702 9.338 20.4553C9.52315 20.6405 9.52315 20.9407 9.338 21.1259L4.84579 25.6181C4.75315 25.7107 4.63174 25.757 4.51045 25.757Z" fill="#FF6B5C"/>
<path d="M6.17024 27.4168C6.0489 27.4168 5.92755 27.3705 5.83491 27.2779C5.64976 27.0927 5.64976 26.7925 5.83491 26.6072L10.3271 22.115C10.5123 21.9299 10.8126 21.9299 10.9978 22.115C11.1829 22.3003 11.1829 22.6005 10.9978 22.7857L6.50558 27.2779C6.41294 27.3705 6.29153 27.4168 6.17024 27.4168Z" fill="#FF6B5C"/>
</g>
<defs>
<clipPath id="clip0">
<rect width="30" height="30" fill="white"/>
</clipPath>
</defs>
</svg>
