<svg width="20" height="20" viewBox="0 0 20 20" fill="none" xmlns="http://www.w3.org/2000/svg">
<g clip-path="url(#clip0)">
<path d="M9.99791 6.25L9.99609 10.6226C9.99609 10.7886 10.062 10.9473 10.1792 11.0645L13.3072 14.1919L14.191 13.3081L11.2461 10.3638L11.2479 6.25H9.99791Z" fill="#0078BA"/>
<path d="M11.25 1.24997C6.85069 1.24997 3.2097 4.51718 2.59989 8.74998H0L3.125 11.875L6.25 8.74998H3.8629C4.46083 5.20856 7.54098 2.49998 11.25 2.49998C15.3857 2.49998 18.75 5.86423 18.75 9.99999C18.75 14.1357 15.3858 17.5 11.25 17.5C8.92519 17.5 6.76944 16.4478 5.33569 14.613L4.35059 15.3821C6.02293 17.522 8.53759 18.75 11.25 18.75C16.0748 18.75 20 14.8242 20 9.99999C20 5.17579 16.0748 1.25001 11.25 1.24997Z" fill="#0078BA"/>
</g>
<defs>
<clipPath id="clip0">
<rect width="20" height="20" fill="white"/>
</clipPath>
</defs>
</svg>
