<svg width="24" height="24" viewBox="0 0 24 24" fill="none" xmlns="http://www.w3.org/2000/svg">
<path d="M0 21.6H24V24H0V21.6Z" fill="#367FA8"/>
<path d="M24 19.2H11.1428L9.59998 16.8V9.60001L11.1428 7.20001H24V19.2Z" fill="#367FA8"/>
<path d="M20.4 5.99999H13.2V3.11999L14.1 2.39999H19.5L20.4 3.11999V5.99999Z" fill="#367FA8"/>
<path d="M15.6 0H18V2.4H15.6V0Z" fill="#3C8DBC"/>
<path d="M15.6 6H18V7.2H15.6V6Z" fill="#3C8DBC"/>
<path d="M12 19.2H14.4V21.6H12V19.2Z" fill="#3C8DBC"/>
<path d="M19.2 19.2H21.5999V21.6H19.2V19.2Z" fill="#3C8DBC"/>
<path d="M4.80005 15.6H7.20005V21.6H4.80005V15.6Z" fill="#3C8DBC"/>
<path d="M8.40002 16.8H3.60002L2.40002 15.6V9.59999L3.60002 8.39999H8.40002V16.8Z" fill="#367FA8"/>
<path d="M4.80005 6H7.20005V8.4H4.80005V6Z" fill="#3C8DBC"/>
<path d="M8.40002 12H9.60003V14.4H8.40002V12Z" fill="#3C8DBC"/>
<path d="M0 12H2.4V14.4H0V12Z" fill="#3C8DBC"/>
<path d="M0 10.8H1.2V15.6H0V10.8Z" fill="#367FA8"/>
<path d="M3.59998 4.79999H8.39997V5.99999H3.59998V4.79999Z" fill="#367FA8"/>
</svg>
