<svg width="30" height="30" viewBox="0 0 30 30" fill="none" xmlns="http://www.w3.org/2000/svg">
<path d="M29.121 20.7229C27.3376 20.7229 25.6626 20.0349 24.4042 18.7855C23.1463 17.5367 22.4537 15.8734 22.4537 14.1021C22.4537 13.6166 22.06 13.2232 21.5748 13.2232C21.0893 13.2232 20.6959 13.6166 20.6959 14.1021C20.6959 15.8734 20.0031 17.5367 18.7451 18.7855C17.4867 20.0349 15.8118 20.7229 14.0283 20.7229C13.5429 20.7229 13.1494 21.1164 13.1494 21.6019C13.1494 22.0873 13.5429 22.4808 14.0283 22.4808C17.7046 22.4808 20.6959 25.4597 20.6959 29.1211C20.6959 29.6065 21.0893 30 21.5748 30C22.06 30 22.4537 29.6065 22.4537 29.1211C22.4537 25.4597 25.4447 22.4808 29.121 22.4808C29.6065 22.4808 29.9999 22.0873 29.9999 21.6019C29.9999 21.1164 29.6065 20.7229 29.121 20.7229Z" fill="#5DAE41"/>
<path d="M12.0255 13.8508C9.43703 13.8508 7.33109 11.7604 7.33109 9.19077C7.33109 8.70554 6.93764 8.31186 6.45218 8.31186C5.96672 8.31186 5.57327 8.70554 5.57327 9.19077C5.57327 11.7604 3.46733 13.8508 0.878906 13.8508C0.393448 13.8508 0 14.2445 0 14.7297C0 15.2152 0.393448 15.6086 0.878906 15.6086C3.46733 15.6086 5.57327 17.7056 5.57327 20.2831C5.57327 20.7683 5.96672 21.162 6.45218 21.162C6.93764 21.162 7.33109 20.7683 7.33109 20.2831C7.33109 17.7056 9.43703 15.6086 12.0255 15.6086C12.5109 15.6086 12.9044 15.2152 12.9044 14.7297C12.9044 14.2445 12.5109 13.8508 12.0255 13.8508Z" fill="#5DAE41"/>
<path d="M13.4552 6.07361C15.3588 6.07361 16.9077 7.61055 16.9077 9.49951C16.9077 9.98474 17.3011 10.3784 17.7866 10.3784C18.272 10.3784 18.6655 9.98474 18.6655 9.49951C18.6655 7.60437 20.2143 6.06262 22.1179 6.06262C22.6034 6.06262 22.9968 5.66895 22.9968 5.18372C22.9968 4.69826 22.6034 4.30481 22.1179 4.30481C20.2143 4.30481 18.6655 2.76787 18.6655 0.878906C18.6655 0.393448 18.272 0 17.7866 0C17.3011 0 16.9077 0.393448 16.9077 0.878906C16.9077 2.77405 15.3588 4.3158 13.4552 4.3158C12.9697 4.3158 12.5763 4.70924 12.5763 5.1947C12.5763 5.68016 12.9697 6.07361 13.4552 6.07361Z" fill="#5DAE41"/>
</svg>
