<svg width="18" height="18" viewBox="0 0 18 18" fill="none" xmlns="http://www.w3.org/2000/svg">
<g clip-path="url(#clip0)">
<path d="M0.886504 6.88745L0 17.9686H5.20382L4.02184 6.88745H0.886504Z" fill="#0078BB"/>
<path d="M1.09795 4.24677L0.971191 5.8312H3.90935L3.74035 4.24677H1.09795Z" fill="#0078BB"/>
<path d="M16.5538 7.41559L13.7252 10.8352V7.41559H12.28L9.29834 10.9998V7.41559H7.85168L5.45117 10.3296L5.81636 13.7533H7.43702V14.8096H5.92904L6.26705 17.9784H17.9999V7.41559H16.5538ZM10.6059 14.8096H8.49331V13.7533H10.6059V14.8096ZM13.7747 14.8096H11.6622V13.7533H13.7747V14.8096ZM16.9436 14.8096H14.831V13.7533H16.9436V14.8096Z" fill="#0078BB"/>
<path d="M4.69 3.19046L5.04558 6.52406C5.59337 6.47519 6.11524 6.26643 6.54476 5.92683C7.02699 6.20784 7.58003 6.35931 8.14155 6.35931C9.01538 6.35931 9.84283 5.99838 10.4365 5.37489C10.8162 5.55925 11.2324 5.65512 11.6625 5.65512C12.2815 5.65512 12.8823 5.44887 13.3697 5.07804C13.7768 5.33894 14.2507 5.47908 14.7433 5.47908C16.1509 5.47908 17.296 4.33396 17.296 2.92639C17.296 1.51882 16.1509 0.373701 14.7433 0.373701C14.3042 0.373701 13.8747 0.487393 13.4959 0.699671C12.9893 0.264376 12.3427 0.0216064 11.6625 0.0216064C11.0451 0.0216064 10.4462 0.226526 9.95976 0.595204C9.43007 0.222652 8.79965 0.0216064 8.14155 0.0216064C7.23036 0.0216064 6.37597 0.409967 5.77896 1.07884C5.46591 0.962298 5.1329 0.901843 4.79665 0.901843C3.42404 0.901843 2.27825 1.88898 2.03027 3.19046H4.69Z" fill="#1F97DD"/>
</g>
<defs>
<clipPath id="clip0">
<rect width="18" height="18" fill="white"/>
</clipPath>
</defs>
</svg>
