<svg width="18" height="18" viewBox="0 0 18 18" fill="none" xmlns="http://www.w3.org/2000/svg">
<path d="M0.527344 3.74414C0.818588 3.74414 1.05469 3.50804 1.05469 3.2168C1.05469 2.92555 0.818588 2.68945 0.527344 2.68945C0.2361 2.68945 0 2.92555 0 3.2168C0 3.50804 0.2361 3.74414 0.527344 3.74414Z" fill="#367FA8"/>
<path d="M2.67188 3.74414C2.96312 3.74414 3.19922 3.50804 3.19922 3.2168C3.19922 2.92555 2.96312 2.68945 2.67188 2.68945C2.38063 2.68945 2.14453 2.92555 2.14453 3.2168C2.14453 3.50804 2.38063 3.74414 2.67188 3.74414Z" fill="#367FA8"/>
<path d="M1.61719 5.85352C1.90843 5.85352 2.14453 5.61742 2.14453 5.32617C2.14453 5.03493 1.90843 4.79883 1.61719 4.79883C1.32594 4.79883 1.08984 5.03493 1.08984 5.32617C1.08984 5.61742 1.32594 5.85352 1.61719 5.85352Z" fill="#367FA8"/>
<path d="M0.527344 7.96289C0.818588 7.96289 1.05469 7.72679 1.05469 7.43555C1.05469 7.1443 0.818588 6.9082 0.527344 6.9082C0.2361 6.9082 0 7.1443 0 7.43555C0 7.72679 0.2361 7.96289 0.527344 7.96289Z" fill="#367FA8"/>
<path d="M2.67188 7.96289C2.96312 7.96289 3.19922 7.72679 3.19922 7.43555C3.19922 7.1443 2.96312 6.9082 2.67188 6.9082C2.38063 6.9082 2.14453 7.1443 2.14453 7.43555C2.14453 7.72679 2.38063 7.96289 2.67188 7.96289Z" fill="#367FA8"/>
<path d="M1.61719 10.0723C1.90843 10.0723 2.14453 9.83617 2.14453 9.54492C2.14453 9.25368 1.90843 9.01758 1.61719 9.01758C1.32594 9.01758 1.08984 9.25368 1.08984 9.54492C1.08984 9.83617 1.32594 10.0723 1.61719 10.0723Z" fill="#367FA8"/>
<path d="M0.527344 12.1816C0.818588 12.1816 1.05469 11.9455 1.05469 11.6543C1.05469 11.3631 0.818588 11.127 0.527344 11.127C0.2361 11.127 0 11.3631 0 11.6543C0 11.9455 0.2361 12.1816 0.527344 12.1816Z" fill="#367FA8"/>
<path d="M2.67188 12.1816C2.96312 12.1816 3.19922 11.9455 3.19922 11.6543C3.19922 11.3631 2.96312 11.127 2.67188 11.127C2.38063 11.127 2.14453 11.3631 2.14453 11.6543C2.14453 11.9455 2.38063 12.1816 2.67188 12.1816Z" fill="#367FA8"/>
<path d="M16.2246 9.01767C13.6169 9.01805 13.7734 9.01658 13.7461 9.01907V10.0709C13.7747 10.0735 13.6352 10.072 16.2246 10.0724C16.6219 10.0724 16.9453 10.3958 16.9453 10.7931C16.9453 11.1903 16.6219 11.5138 16.2246 11.5138C15.8938 11.5138 15.6066 11.2905 15.5257 10.9706C15.4543 10.6883 15.1678 10.5171 14.8855 10.5884C14.6029 10.6598 14.432 10.9467 14.5034 11.229C14.7027 12.0175 15.4104 12.5684 16.2246 12.5684C17.2037 12.5684 18 11.7722 18 10.7931C18 9.81396 17.2037 9.01767 16.2246 9.01767V9.01767Z" fill="#367FA8"/>
<path d="M16.2246 5.85352C17.2037 5.85352 18 5.05723 18 4.07812C18 3.09902 17.2037 2.30273 16.2246 2.30273C15.4104 2.30273 14.7027 2.85363 14.5034 3.64219C14.432 3.92449 14.6029 4.21137 14.8855 4.28273C15.1675 4.3541 15.4543 4.18289 15.5257 3.90059C15.6066 3.58066 15.8938 3.35742 16.2246 3.35742C16.6219 3.35742 16.9453 3.68086 16.9453 4.07812C16.9453 4.47539 16.6219 4.79883 16.2246 4.79883C13.6169 4.79921 13.7734 4.79774 13.7461 4.80023V5.85211C13.7747 5.85471 13.6352 5.85313 16.2246 5.85352V5.85352Z" fill="#367FA8"/>
<path d="M15.8555 7.43555C15.8555 7.14445 15.6192 6.9082 15.3281 6.9082H13.7461V7.96289H15.3281C15.6192 7.96289 15.8555 7.72664 15.8555 7.43555Z" fill="#367FA8"/>
<path d="M17.4727 7.96289C17.7639 7.96289 18 7.72679 18 7.43555C18 7.1443 17.7639 6.9082 17.4727 6.9082C17.1814 6.9082 16.9453 7.1443 16.9453 7.43555C16.9453 7.72679 17.1814 7.96289 17.4727 7.96289Z" fill="#367FA8"/>
<path d="M10.0547 3.74414H12.4547V4.79883H10.0547V3.74414Z" fill="#367FA8"/>
<path d="M10.0547 5.85352H12.4547V6.9082H10.0547V5.85352Z" fill="#367FA8"/>
<path d="M4.25391 10.0723H6.65391V11.127H4.25391V10.0723Z" fill="#367FA8"/>
<path d="M10.0547 10.0723H12.4547V11.127H10.0547V10.0723Z" fill="#367FA8"/>
<path d="M10.0547 7.96289H12.4547V9.01758H10.0547V7.96289Z" fill="#367FA8"/>
<path d="M12.075 0H4.72501C4.43507 0 4.20001 0.251326 4.20001 0.561331V2.28274H7.35001C7.63995 2.28274 7.87501 2.53407 7.87501 2.84407V11.8254C7.87501 12.1354 7.63995 12.3867 7.35001 12.3867H4.20001V17.4387C4.20001 17.7487 4.43507 18 4.72501 18H12.075C12.365 18 12.6 17.7487 12.6 17.4387V12.3867H9.45001C9.16007 12.3867 8.92501 12.1354 8.92501 11.8254V2.84407C8.92501 2.53407 9.16007 2.28274 9.45001 2.28274H12.6V0.561331C12.6 0.251326 12.365 0 12.075 0ZM9.45001 15.1933C9.45001 15.5034 9.21495 15.7547 8.92501 15.7547H7.87501C7.58507 15.7547 7.35001 15.5034 7.35001 15.1933C7.35001 14.8833 7.58507 14.632 7.87501 14.632H8.92501C9.21495 14.632 9.45001 14.8833 9.45001 15.1933Z" fill="#367FA8"/>
<path d="M4.25391 7.96289H6.65391V9.01758H4.25391V7.96289Z" fill="#367FA8"/>
<path d="M4.25391 3.74414H6.65391V4.79883H4.25391V3.74414Z" fill="#367FA8"/>
<path d="M4.25391 5.85352H6.65391V6.9082H4.25391V5.85352Z" fill="#367FA8"/>
</svg>
