<svg width="24" height="24" viewBox="0 0 24 24" fill="none" xmlns="http://www.w3.org/2000/svg">
<path d="M3.78499 8.47058H0V12H8.02028L3.78499 8.47058Z" fill="#777777"/>
<path d="M0 16.2353H3.52941V19.8861C2.70781 20.1775 2.11765 20.9621 2.11765 21.8824C2.11765 23.0501 3.06767 24 4.23529 24C5.40296 24 6.35294 23.0501 6.35294 21.8824C6.35294 20.9621 5.76278 20.1775 4.94118 19.8861V19.0588H19.0588V19.8861C18.2372 20.1775 17.6471 20.9621 17.6471 21.8824C17.6471 23.0501 18.5971 24 19.7647 24C20.9324 24 21.8824 23.0501 21.8824 21.8824C21.8824 20.9621 21.2922 20.1775 20.4706 19.8861V16.2353H24V13.4118H0V16.2353ZM19.0588 17.6471H4.94118V16.2353H19.0588V17.6471Z" fill="#777777"/>
<path d="M19.7646 0H15.5293V3.52941C15.5293 4.44965 16.1195 5.23426 16.9411 5.52565V7.05882H18.3528V5.52565C19.1744 5.23426 19.7646 4.44965 19.7646 3.52941V1.41176H21.1764V12H22.5881V1.41176H23.9999V0H19.7646Z" fill="#777777"/>
<path d="M10.5875 11.2941C10.5875 10.9049 10.9043 10.5883 11.2934 10.5883H11.9993V12H13.4111V10.5883H14.8228V12H16.2346V10.5883H16.9405C17.3298 10.5883 17.6464 10.9049 17.6464 11.2941V12H19.0581V11.2941C19.0581 10.1265 18.1082 9.17648 16.9405 9.17648H11.2934C10.1258 9.17648 9.17578 10.1265 9.17578 11.2941V12H10.5875V11.2941Z" fill="#777777"/>
</svg>
