<svg width="20" height="20" viewBox="0 0 20 20" fill="none" xmlns="http://www.w3.org/2000/svg">
<path d="M0 1.58203V10.6706H20V1.58203H0ZM18.8281 9.49871H17.2526V7.15496H2.74738V9.49871H1.17188V2.75391H18.8281V9.49871ZM3.91926 9.49871V8.32684H16.0807V9.49871H3.91926Z" fill="#777777"/>
<path d="M11.0801 4.81117H12.252V5.98305H11.0801V4.81117Z" fill="#777777"/>
<path d="M13.5801 4.81117H14.752V5.98305H13.5801V4.81117Z" fill="#777777"/>
<path d="M16.0801 4.81117H17.252V5.98305H16.0801V4.81117Z" fill="#777777"/>
<path d="M9.41406 12.168H10.5859V18.418H9.41406V12.168Z" fill="#777777"/>
<path d="M6.91543 13.9404C6.91543 15.3187 5.7941 16.44 4.41578 16.44C3.5791 16.44 2.89844 15.7593 2.89844 14.9227C2.89844 14.4552 3.27875 14.0749 3.74625 14.0749C3.96203 14.0749 4.13762 14.2505 4.13762 14.4662H5.30949C5.30949 13.6043 4.6082 12.903 3.74625 12.903C2.63262 12.903 1.72656 13.809 1.72656 14.9227C1.72656 16.4055 2.93293 17.6119 4.41578 17.6119C6.44027 17.6119 8.0873 15.9649 8.0873 13.9404V12.168H6.91543V13.9404Z" fill="#777777"/>
<path d="M16.2551 12.903C15.3931 12.903 14.6918 13.6043 14.6918 14.4662H15.8637C15.8637 14.2505 16.0393 14.0749 16.2551 14.0749C16.7226 14.0749 17.1029 14.4552 17.1029 14.9227C17.1029 15.7593 16.4222 16.44 15.5855 16.44C14.2073 16.44 13.0859 15.3187 13.0859 13.9404V12.168H11.9141V13.9404C11.9141 15.9649 13.5611 17.6119 15.5855 17.6119C17.0684 17.6119 18.2748 16.4055 18.2748 14.9227C18.2748 13.809 17.3688 12.903 16.2551 12.903Z" fill="#777777"/>
</svg>
