<svg width="20" height="20" viewBox="0 0 20 20" fill="none" xmlns="http://www.w3.org/2000/svg">
<path d="M8.23633 11.3589H11.7634C11.9791 11.3589 12.1541 11.184 12.1541 10.9683C12.1541 10.7526 11.9791 10.5777 11.7634 10.5777H8.23633C8.02062 10.5777 7.8457 10.7526 7.8457 10.9683C7.8457 11.184 8.02062 11.3589 8.23633 11.3589Z" fill="#777777"/>
<path d="M13.1924 12.3493H6.81055C6.59484 12.3493 6.41992 12.5242 6.41992 12.7399C6.41992 12.9556 6.59484 13.1306 6.81055 13.1306H13.1924C13.4081 13.1306 13.583 12.9556 13.583 12.7399C13.583 12.5242 13.4081 12.3493 13.1924 12.3493Z" fill="#777777"/>
<path d="M15.132 17.0352H15.1298C14.9141 17.0352 14.7402 17.2102 14.7402 17.4259C14.7402 17.6416 14.9162 17.8165 15.132 17.8165C15.3477 17.8165 15.5226 17.6416 15.5226 17.4259C15.5226 17.2102 15.3477 17.0352 15.132 17.0352Z" fill="#777777"/>
<path d="M16.2915 8.40965H15.5323V7.24656H15.7387C16.5773 7.24656 17.2571 6.5668 17.2571 5.72824V3.25844C17.2571 2.55598 16.7779 1.96359 16.1294 1.7907V0.390625C16.1294 0.174883 15.9545 0 15.7387 0H13.13C12.9142 0 12.7393 0.174883 12.7393 0.390625V1.73949H11.3926V0.390625C11.3926 0.174883 11.2177 0 11.002 0H8.3943C8.17855 0 8.00367 0.174883 8.00367 0.390625V1.79062C7.35457 1.96344 6.87488 2.55586 6.87488 3.25844V4.94504H5.71312V4.5207C5.71312 4.15086 5.41332 3.85102 5.04344 3.85102H3.4127C3.04277 3.85102 2.74293 4.1509 2.74293 4.52078V6.15043C2.74293 6.52035 3.04281 6.8202 3.4127 6.8202H3.83738V8.40957H3.70961C3.56305 8.40957 3.41859 8.41891 3.27688 8.43699C3.27258 8.43742 3.2684 8.4382 3.26414 8.43879C1.6007 8.65754 0.3125 10.0834 0.3125 11.8043V14.2469C0.3125 16.1193 1.83645 17.6426 3.70961 17.6426H3.84734V19.1665C3.84734 19.6261 4.2209 20 4.67996 20H6.33277C6.7932 20 7.16648 19.6268 7.16648 19.1663V17.6426H12.5653C12.6759 18.9609 13.7838 20 15.1306 20C16.5499 20 17.7046 18.8452 17.7046 17.4259C17.7046 17.3946 17.7034 17.3637 17.7023 17.3328C18.9011 16.7827 19.6875 15.5789 19.6875 14.2469V11.8043C19.6875 9.93246 18.1641 8.40965 16.2915 8.40965ZM16.4758 3.25781V5.72762C16.4758 6.13504 16.1455 6.46531 15.7381 6.46531H14.5884V2.52074H15.7387C16.1458 2.52074 16.4758 2.85074 16.4758 3.25781ZM10.3247 6.46531V5.67094H13.8072V6.46531H10.3247ZM12.8634 7.24656V8.40965H11.2696V7.24656H12.8634ZM10.4884 7.24656V8.40965H9.3809V7.24656H10.4884ZM10.3247 4.88969V4.09637H13.8072V4.88969H10.3247ZM13.6447 7.24656H14.7511V8.40965H13.6447V7.24656ZM13.5206 0.78125H15.3481V1.73949H13.5206V0.78125ZM13.8072 2.52074V3.31512H10.3247V2.52074H13.8072ZM8.78496 0.78125H10.6114V1.73949H8.78496V0.78125ZM7.65613 3.25844C7.65613 2.85102 7.98641 2.52074 8.39383 2.52074H9.54348V6.46527H8.39434C7.98664 6.46527 7.65617 6.13477 7.65617 5.72711V3.25844H7.65613ZM5.71312 6.15047V5.72629H6.87488V5.72762C6.87488 6.56652 7.55492 7.24656 8.39383 7.24656H8.59969V8.40965H4.61863V6.82027H5.04332C5.41324 6.82027 5.71312 6.52039 5.71312 6.15047ZM3.52418 6.03902V4.6323H4.93187V6.03902H3.52418ZM6.38523 19.1663C6.38523 19.1952 6.36164 19.2188 6.33277 19.2188H4.67996C4.65309 19.2188 4.62859 19.1938 4.62859 19.1665V17.6426H6.38523V19.1663ZM12.6187 16.8614H6.77586H4.23797H3.70961C3.70816 16.8599 3.70734 16.8591 3.70586 16.8576V14.5614C3.70586 14.3656 3.56699 14.1906 3.3732 14.1627C3.13172 14.128 2.92461 14.3144 2.92461 14.5491V16.7409C1.86461 16.4069 1.09375 15.4152 1.09375 14.2469V11.8043C1.09375 10.6364 1.86461 9.6452 2.92461 9.31133V11.0292C2.92461 11.225 3.06348 11.4 3.25727 11.4279C3.49875 11.4626 3.70586 11.2762 3.70586 11.0414V9.19105L3.70594 9.19098H16.2915L16.2941 9.19359V15.1319C15.9444 14.9539 15.5491 14.8529 15.1305 14.8529C13.9048 14.8528 12.877 15.7134 12.6187 16.8614ZM16.918 17.5664C16.8507 18.4427 16.1423 19.1493 15.2657 19.2138C14.2158 19.2911 13.3367 18.4591 13.3367 17.4259C13.3367 17.3816 13.3389 17.3379 13.342 17.2945C13.3424 17.2912 13.3425 17.2879 13.3428 17.2845C13.4153 16.3625 14.1891 15.6341 15.1306 15.6341C16.1656 15.6341 16.9986 16.5153 16.918 17.5664ZM18.9062 14.2469C18.9062 15.208 18.3739 16.0827 17.5464 16.5375C17.4379 16.2438 17.2769 15.9755 17.0754 15.7432V9.31102C18.1354 9.64469 18.9062 10.6361 18.9062 11.8043V14.2469Z" fill="#777777"/>
<path d="M3.25844 12.4089C3.06465 12.4368 2.92578 12.6117 2.92578 12.8075V12.8088C2.92578 12.9504 3.00352 13.0839 3.13168 13.1442C3.4225 13.281 3.70703 13.0705 3.70703 12.7954C3.70703 12.5605 3.49988 12.3741 3.25844 12.4089Z" fill="#777777"/>
</svg>
