<svg width="20" height="20" viewBox="0 0 20 20" fill="none" xmlns="http://www.w3.org/2000/svg">
<g clip-path="url(#clip0)">
<path d="M9.16667 11.4583C9.16667 11.1142 8.885 10.8333 8.54167 10.8333H5.41667V13.3333C5.41667 13.7933 5.04333 14.1667 4.58333 14.1667C4.12333 14.1667 3.75 13.7933 3.75 13.3333V10.8333H0.625C0.280833 10.8333 0 11.1142 0 11.4583V19.375C0 19.7192 0.280833 20 0.625 20H8.54167C8.885 20 9.16667 19.7192 9.16667 19.375V11.4583Z" fill="#0078BA"/>
<path d="M20.0006 11.4583C20.0006 11.1142 19.719 10.8333 19.3756 10.8333H16.2506V13.3333C16.2506 13.7933 15.8773 14.1667 15.4173 14.1667C14.9573 14.1667 14.584 13.7933 14.584 13.3333V10.8333H11.459C11.1148 10.8333 10.834 11.1142 10.834 11.4583V19.375C10.834 19.7192 11.1148 20 11.459 20H19.3756C19.719 20 20.0006 19.7192 20.0006 19.375V11.4583Z" fill="#0078BA"/>
<path d="M14.5827 0.624992C14.5827 0.281659 14.301 -7.62939e-06 13.9577 -7.62939e-06H10.8327V2.49999C10.8327 2.95999 10.4593 3.33333 9.99934 3.33333C9.53934 3.33333 9.16601 2.95999 9.16601 2.49999V-7.62939e-06H6.04101C5.69685 -7.62939e-06 5.41602 0.281659 5.41602 0.624992V8.54166C5.41602 8.88583 5.69685 9.16666 6.04101 9.16666H13.9577C14.301 9.16666 14.5827 8.88583 14.5827 8.54166V0.624992Z" fill="#1F97DD"/>
</g>
<defs>
<clipPath id="clip0">
<rect width="20" height="20" fill="white"/>
</clipPath>
</defs>
</svg>
