<svg width="24" height="24" viewBox="0 0 24 24" fill="none" xmlns="http://www.w3.org/2000/svg">
<path d="M18.1791 0L24 24H18.9742L18.2711 21.1406H5.7007L4.99758 24H0L5.82155 0H18.1791ZM15.5156 2.85938H8.48437V4.26562H15.5156V2.85938ZM5.54967 17.2934C5.93142 17.9415 6.60844 18.3281 7.35966 18.3281H16.6403C17.3915 18.3281 18.0686 17.9415 18.4503 17.2934C18.8355 16.641 18.8465 15.8542 18.4792 15.1895L13.8381 6.83503C13.4604 6.15937 12.7738 5.7563 12.0007 5.7563H12C11.2268 5.7563 10.5401 6.15867 10.1625 6.83297L5.52145 15.1881C5.15344 15.8542 5.16445 16.641 5.54967 17.2934Z" fill="#FFD600"/>
<path d="M12.0007 7.16259C12.1236 7.16259 12.4299 7.19761 12.6098 7.51964L17.2494 15.8706C17.4272 16.1933 17.3016 16.4735 17.2398 16.5786C17.1787 16.6815 16.9981 16.9219 16.6404 16.9219H7.35967C7.00192 16.9219 6.82135 16.6815 6.76023 16.5786C6.69845 16.4735 6.57278 16.1933 6.75132 15.8692L11.391 7.51758C11.5702 7.19761 11.8771 7.16259 12.0007 7.16259ZM11.2969 15.5156H12.7031V14.1094H11.2969V15.5156ZM11.2969 12.7031H12.7031V9.89062H11.2969V12.7031Z" fill="#8B7500"/>
</svg>
