<svg width="18" height="18" viewBox="0 0 18 18" fill="none" xmlns="http://www.w3.org/2000/svg">
<path d="M3.16406 6.39844C2.00071 6.39844 1.05469 5.45242 1.05469 4.28906C1.05469 3.12571 2.00071 2.17969 3.16406 2.17969C4.32742 2.17969 5.27344 3.12571 5.27344 4.28906C5.27344 5.45242 4.32742 6.39844 3.16406 6.39844Z" fill="#1F97DD"/>
<path d="M14.8359 6.39844C13.6726 6.39844 12.7266 5.45242 12.7266 4.28906C12.7266 3.12571 13.6726 2.17969 14.8359 2.17969C15.9993 2.17969 16.9453 3.12571 16.9453 4.28906C16.9453 5.45242 15.9993 6.39844 14.8359 6.39844Z" fill="#1F97DD"/>
<path d="M9 5.27344C7.54618 5.27344 6.36328 4.09054 6.36328 2.63672C6.36328 1.1829 7.54618 0 9 0C10.4538 0 11.6367 1.1829 11.6367 2.63672C11.6367 4.09054 10.4538 5.27344 9 5.27344Z" fill="#0078BA"/>
<path d="M9.52734 5.32674V8.96485C9.52734 9.25633 9.29148 9.49219 9 9.49219C8.70852 9.49219 8.47266 9.25633 8.47266 8.96485V5.32674C6.68848 5.58538 5.30859 7.11018 5.30859 8.96485V12.1289C5.30859 12.4204 5.54446 12.6563 5.83594 12.6563H7.01733L7.42004 17.517C7.44268 17.7899 7.67134 18 7.94531 18H10.0547C10.3287 18 10.5573 17.7899 10.58 17.517L10.9827 12.6563H12.1641C12.4555 12.6563 12.6914 12.4204 12.6914 12.1289V8.96485C12.6914 7.11018 11.3115 5.58538 9.52734 5.32674V5.32674Z" fill="#0078BA"/>
<path d="M4.21875 12.1992V9.03516C4.21875 8.2447 4.43145 7.51015 4.77461 6.85399C4.30109 6.57134 3.75448 6.39844 3.16406 6.39844C1.41929 6.39844 0 7.81773 0 9.5625V12.1992C0 12.4907 0.235863 12.7266 0.527344 12.7266H1.10464L1.5846 17.5252C1.61139 17.7945 1.8385 18 2.10938 18H4.21875C4.48963 18 4.71674 17.7945 4.74353 17.5252L5.1333 13.6284C4.59489 13.3757 4.21875 12.8323 4.21875 12.1992V12.1992Z" fill="#1F97DD"/>
<path d="M18 9.5625C18 7.81773 16.5807 6.39844 14.8359 6.39844C14.2455 6.39844 13.6989 6.57134 13.2254 6.85399C13.5686 7.51015 13.7813 8.2447 13.7813 9.03516V12.1992C13.7813 12.8323 13.4051 13.3757 12.8667 13.6284L13.2565 17.5252C13.2833 17.7945 13.5104 18 13.7813 18H15.8906C16.1615 18 16.3886 17.7945 16.4154 17.5252L16.8954 12.7266H17.4727C17.7641 12.7266 18 12.4907 18 12.1992V9.5625Z" fill="#1F97DD"/>
</svg>
