<svg width="20" height="20" viewBox="0 0 20 20" fill="none" xmlns="http://www.w3.org/2000/svg">
<path d="M10.4766 6.19051V10.9524L14.5527 13.3715L15.2384 12.2143L11.9051 10.2381V6.19051H10.4766Z" fill="#B08053"/>
<path d="M11.4238 1.42857C6.68571 1.42857 2.85714 5.26665 2.85714 10H0L3.70951 13.7095L3.77616 13.8476L7.61906 10H4.76192C4.76192 6.31906 7.74763 3.33335 11.4286 3.33335C15.1095 3.33335 18.0952 6.31906 18.0952 10C18.0952 13.6809 15.1095 16.6667 11.4286 16.6667C9.58571 16.6667 7.9238 15.9143 6.71906 14.7095L5.37143 16.0571C6.91906 17.6095 9.05714 18.5714 11.4238 18.5714C16.1619 18.5714 20 14.7333 20 10C20 5.26665 16.1619 1.42857 11.4238 1.42857Z" fill="#B08053"/>
</svg>
