<svg width="18" height="18" viewBox="0 0 18 18" fill="none" xmlns="http://www.w3.org/2000/svg">
<path d="M5.30866 11.4983H6.36337C6.36337 10.3349 7.30942 9.38888 8.47281 9.38888V8.33416C7.30942 8.33416 6.36337 7.38812 6.36337 6.22473H5.30866C5.30866 7.38812 4.36261 8.33416 3.19922 8.33416V9.38888C4.36261 9.38888 5.30866 10.3349 5.30866 11.4983Z" fill="#474E95"/>
<path d="M2.14459 17.8266H3.19931C3.19931 16.6632 4.14536 15.7172 5.30875 15.7172V14.6625C4.14536 14.6625 3.19931 13.7164 3.19931 12.553H2.14459C2.14459 13.7164 1.16339 14.6625 0 14.6625V15.7172C1.16339 15.7172 2.14459 16.6632 2.14459 17.8266Z" fill="#474E95"/>
<path d="M17.119 12.0906C17.4196 11.2656 16.992 10.3608 16.1734 10.0625L15.5936 9.85135C15.5988 9.38284 15.3865 8.92675 15.0158 8.62042L17.9998 0.535911L17.0089 0.17337L14.0243 8.2595C13.5488 8.25602 13.0917 8.46415 12.7894 8.83116L12.209 8.62C11.8129 8.47529 11.3829 8.49382 10.9992 8.67253C10.6166 8.85123 10.3261 9.16845 10.1814 9.56552L10.001 10.0611L16.9385 12.5861L17.119 12.0906Z" fill="#474E95"/>
<path d="M6.45088 13.0578L5.58105 12.9784L5.91579 13.7854C6.09759 14.2227 6.32625 14.6398 6.59559 15.025C7.26252 15.9804 8.3332 16.5994 9.52749 16.741V17.3673L9.888 17.4873C10.3834 17.6531 10.8768 17.771 11.381 17.7335C12.944 17.7335 14.4231 16.963 15.3387 15.6724C15.8041 15.0169 16.1915 14.3042 16.5308 13.5598L9.63857 11.0513C9.14981 12.3606 7.84216 13.1806 6.45088 13.0578Z" fill="#1EA5FC"/>
</svg>
