<svg width="20" height="20" viewBox="0 0 20 20" fill="none" xmlns="http://www.w3.org/2000/svg">
<g clip-path="url(#clip0)">
<path d="M17.3148 3.33333H2.68513C2.42944 3.33333 2.22217 3.14679 2.22217 2.91667V1.83333C2.22217 0.820792 3.13416 0 4.25921 0H15.7407C16.8657 0 17.7777 0.820792 17.7777 1.83333V2.91667C17.7777 3.14679 17.5705 3.33333 17.3148 3.33333Z" fill="#D8C9AF"/>
<path d="M17.8906 4.44444H2.10938C0.94625 4.44444 0 5.53561 0 6.87688V15.3453C0 16.6866 0.94625 17.7778 2.10938 17.7778H3.4375V13.3333C3.4375 11.545 4.00474 11.0698 5.55556 11.0698H14.4444C15.9953 11.0698 16.5625 11.545 16.5625 13.3333V17.7778H17.8906C19.0538 17.7778 20 16.6866 20 15.3453V6.87688C20 5.53561 19.0538 4.44444 17.8906 4.44444ZM3.33333 8.88889C2.81556 8.88889 2.22222 8.37485 2.22222 7.77778C2.22222 7.1807 2.81556 6.66666 3.33333 6.66666C3.85111 6.66666 4.44444 7.1807 4.44444 7.77778C4.44444 8.37485 3.85111 8.88889 3.33333 8.88889Z" fill="#525C73"/>
<path d="M14.4443 12.2222L5.38184 12.2222C4.86406 12.2222 4.44434 12.642 4.44434 13.1597V17.8125V19.0625C4.44434 19.5803 4.86406 20 5.38184 20H14.4443C14.9621 20 15.3818 19.5803 15.3818 19.0625V17.8125V13.1597C15.3818 12.642 14.9621 12.2222 14.4443 12.2222Z" fill="#D8C9AF"/>
</g>
<defs>
<clipPath id="clip0">
<rect width="20" height="20" fill="white"/>
</clipPath>
</defs>
</svg>
