<svg width="20" height="20" viewBox="0 0 20 20" fill="none" xmlns="http://www.w3.org/2000/svg">
<g clip-path="url(#clip0)">
<path d="M2.61906 7.28093H0.585938C0.262344 7.28093 0 7.54327 0 7.86687V20H2.61906V7.28093Z" fill="#A17455"/>
<path d="M19.414 7.28093H17.3809V20H19.9999V7.86687C19.9999 7.54327 19.7376 7.28093 19.414 7.28093Z" fill="#A17455"/>
<path d="M11.019 16.0848V20H8.98123V16.0848H11.019Z" fill="#A17455"/>
<path d="M15.6232 2.40664H13.7785V0.585938C13.7785 0.262344 13.5162 0 13.1926 0H6.89055C6.56695 0 6.30461 0.262344 6.30461 0.585938V2.40664H4.37695C4.05336 2.40664 3.79102 2.66898 3.79102 2.99258V20H7.8093V15.4989C7.8093 15.1753 8.07164 14.913 8.39523 14.913H11.6049C11.9285 14.913 12.1909 15.1753 12.1909 15.4989V20H16.2091V2.99258C16.2091 2.66898 15.9468 2.40664 15.6232 2.40664ZM7.34684 12.8881H6.71582C6.39223 12.8881 6.12988 12.6257 6.12988 12.3021C6.12988 11.9786 6.39223 11.7162 6.71582 11.7162H7.34684C7.67043 11.7162 7.93277 11.9786 7.93277 12.3021C7.93277 12.6257 7.67043 12.8881 7.34684 12.8881ZM7.34684 10.5443H6.71582C6.39223 10.5443 6.12988 10.282 6.12988 9.9584C6.12988 9.6348 6.39223 9.37246 6.71582 9.37246H7.34684C7.67043 9.37246 7.93277 9.6348 7.93277 9.9584C7.93277 10.282 7.67043 10.5443 7.34684 10.5443ZM7.34684 8.20059H6.71582C6.39223 8.20059 6.12988 7.93824 6.12988 7.61465C6.12988 7.29105 6.39223 7.02871 6.71582 7.02871H7.34684C7.67043 7.02871 7.93277 7.29105 7.93277 7.61465C7.93277 7.93824 7.67043 8.20059 7.34684 8.20059ZM10.3156 12.8881H9.68457C9.36098 12.8881 9.09863 12.6257 9.09863 12.3021C9.09863 11.9786 9.36098 11.7162 9.68457 11.7162H10.3156C10.6392 11.7162 10.9015 11.9786 10.9015 12.3021C10.9015 12.6257 10.6392 12.8881 10.3156 12.8881ZM10.3156 10.5443H9.68457C9.36098 10.5443 9.09863 10.282 9.09863 9.9584C9.09863 9.6348 9.36098 9.37246 9.68457 9.37246H10.3156C10.6392 9.37246 10.9015 9.6348 10.9015 9.9584C10.9015 10.282 10.6392 10.5443 10.3156 10.5443ZM10.3156 8.20059H9.68457C9.36098 8.20059 9.09863 7.93824 9.09863 7.61465C9.09863 7.29105 9.36098 7.02871 9.68457 7.02871H10.3156C10.6392 7.02871 10.9015 7.29105 10.9015 7.61465C10.9015 7.93824 10.6392 8.20059 10.3156 8.20059ZM11.181 4.69652H10.586V5.29148C10.586 5.61508 10.3237 5.87742 10.0001 5.87742C9.67648 5.87742 9.41414 5.61508 9.41414 5.29148V4.69652H8.81918C8.49559 4.69652 8.23324 4.43418 8.23324 4.11059C8.23324 3.78699 8.49559 3.52465 8.81918 3.52465H9.41414V2.92969C9.41414 2.60609 9.67648 2.34375 10.0001 2.34375C10.3237 2.34375 10.586 2.60609 10.586 2.92969V3.52465H11.181C11.5046 3.52465 11.7669 3.78699 11.7669 4.11059C11.7669 4.43418 11.5046 4.69652 11.181 4.69652ZM13.2843 12.8881H12.6533C12.3297 12.8881 12.0674 12.6257 12.0674 12.3021C12.0674 11.9786 12.3297 11.7162 12.6533 11.7162H13.2843C13.6079 11.7162 13.8703 11.9786 13.8703 12.3021C13.8703 12.6257 13.6079 12.8881 13.2843 12.8881ZM13.2843 10.5443H12.6533C12.3297 10.5443 12.0674 10.282 12.0674 9.9584C12.0674 9.6348 12.3297 9.37246 12.6533 9.37246H13.2843C13.6079 9.37246 13.8703 9.6348 13.8703 9.9584C13.8703 10.282 13.6079 10.5443 13.2843 10.5443ZM13.2843 8.20059H12.6533C12.3297 8.20059 12.0674 7.93824 12.0674 7.61465C12.0674 7.29105 12.3297 7.02871 12.6533 7.02871H13.2843C13.6079 7.02871 13.8703 7.29105 13.8703 7.61465C13.8703 7.93824 13.6079 8.20059 13.2843 8.20059Z" fill="#A17455"/>
</g>
<defs>
<clipPath id="clip0">
<rect width="20" height="20" fill="white"/>
</clipPath>
</defs>
</svg>
