<svg width="18" height="18" viewBox="0 0 18 18" fill="none" xmlns="http://www.w3.org/2000/svg">
<g clip-path="url(#clip0)">
<path d="M0.838556 9.87038H14.4271C16.3972 9.87038 17.9999 8.35367 17.9999 6.48944C17.9999 4.62794 16.4018 3.11297 14.4357 3.10855C14.242 3.10579 12.9843 3.12226 12.0451 3.98876C11.416 4.56926 11.097 5.36691 11.097 6.35944C11.097 6.7977 11.4724 7.15297 11.9356 7.15297C12.3987 7.15297 12.7741 6.79767 12.7741 6.35944C12.7741 5.81585 12.92 5.40308 13.2078 5.1327C13.6562 4.71123 14.3539 4.69605 14.4097 4.69553C14.4175 4.69576 14.4165 4.69564 14.4271 4.69564C15.4723 4.69564 16.3228 5.50035 16.3228 6.48944C16.3228 7.47859 15.4724 8.28329 14.4271 8.28329H0.838556C0.375423 8.28329 0 8.63859 0 9.07682C0 9.51509 0.375423 9.87038 0.838556 9.87038Z" fill="#777777"/>
<path d="M0.838556 6.76199H7.31555C9.28554 6.76199 10.8883 5.24528 10.8883 3.38105C10.8883 1.51943 9.29026 0.00440202 7.32403 0.000166724C7.12804 -0.00242151 5.87235 0.0141079 4.93347 0.880373C4.30433 1.46093 3.98532 2.25858 3.98532 3.25111C3.98532 3.68937 4.36071 4.0447 4.82387 4.0447C5.28704 4.0447 5.66237 3.6894 5.66237 3.25111C5.66237 2.70752 5.80835 2.29475 6.0961 2.02437C6.5445 1.60296 7.24214 1.58767 7.29811 1.58714C7.30595 1.58737 7.30489 1.58725 7.31552 1.58725C8.36073 1.58725 9.21116 2.39196 9.21116 3.38105C9.21116 4.3702 8.36079 5.1749 7.31552 5.1749H0.838556C0.375423 5.1749 0 5.5302 0 5.96849C0 6.40678 0.375423 6.76199 0.838556 6.76199Z" fill="#777777"/>
<path d="M14.4271 11.238H0.838557C0.375424 11.238 0 11.5933 0 12.0315C0 12.4697 0.375393 12.8251 0.838557 12.8251H14.4271C15.4724 12.8251 16.3228 13.6298 16.3228 14.6189C16.3228 15.608 15.4725 16.4127 14.4271 16.4127C14.4166 16.4127 14.4176 16.4125 14.4097 16.4128C14.3539 16.4123 13.6562 16.3971 13.2078 15.9757C12.9201 15.7053 12.7741 15.2925 12.7741 14.7489C12.7741 14.3106 12.3987 13.9553 11.9356 13.9553C11.4725 13.9553 11.0971 14.3106 11.0971 14.7489C11.0971 15.7415 11.416 16.5391 12.0452 17.1196C12.9465 17.9513 14.1403 18 14.4071 18C14.4184 18 14.4279 17.9999 14.4357 17.9998C16.4019 17.9954 17.9999 16.4804 17.9999 14.6189C17.9999 12.7547 16.3972 11.238 14.4271 11.238Z" fill="#777777"/>
</g>
<defs>
<clipPath id="clip0">
<rect width="18" height="18" fill="white"/>
</clipPath>
</defs>
</svg>
