<svg width="24" height="24" viewBox="0 0 24 24" fill="none" xmlns="http://www.w3.org/2000/svg">
<path d="M21.436 16.4194C19.9168 14.3551 17.7875 12.8861 15.3268 12.1744C16.4163 11.238 17.1076 9.85055 17.1076 8.30462V7.37854C19.5195 5.22934 18.4821 1.02583 14.5255 1.31034C11.9433 -1.87894 6.76836 1.5088 4.59879 3.49137L6.9031 7.29506V8.30457C6.9031 9.85011 7.59399 11.2372 8.683 12.1737C3.4833 13.6281 0.0125712 18.6335 0.31715 24H23.6902C23.8015 21.2804 23.075 18.6091 21.436 16.4194ZM14.0807 13.4554L12.0037 16.3145L9.92668 13.4554H14.0807ZM12.0553 1.48173C12.9572 1.61089 13.3849 2.12864 13.8476 2.89772L14.3318 2.79976C14.3377 2.79864 14.9269 2.6878 15.5473 2.82575C16.2671 2.98577 16.7049 3.40663 16.8858 4.11229C17.1136 5.00042 16.6609 5.71818 16.2952 6.12743L14.2585 4.48937L7.96752 6.23856L6.49327 3.80504C7.76174 2.82682 10.2714 1.23128 12.0553 1.48173ZM8.36088 8.30457V7.64221L13.9279 6.09434L15.6498 7.47913V8.30462C15.4494 13.1399 8.56006 13.1375 8.36088 8.30457ZM1.80073 22.5422C2.0333 18.6771 4.72776 15.0979 8.38061 13.8074L10.4546 16.6625H8.40782V21.0358H15.5995V16.6625H13.5527L15.6267 13.8074C19.2796 15.0979 21.9741 18.6772 22.2066 22.5422H1.80073Z" fill="#367FA8"/>
</svg>
