<svg width="18" height="18" viewBox="0 0 18 18" fill="none" xmlns="http://www.w3.org/2000/svg">
<g clip-path="url(#clip0)">
<path d="M15.3646 2.63581C11.8498 -0.87857 6.15109 -0.878962 2.63593 2.63581C-0.87884 6.15058 -0.878448 11.8493 2.63593 15.3644C6.1507 18.8784 11.8494 18.8788 15.3646 15.3644C18.8789 11.8493 18.8785 6.15097 15.3646 2.63581Z" fill="#CFF1D6"/>
<path d="M10.1736 12.9132C10.1736 13.5617 9.64803 14.0872 8.99962 14.0872C8.35122 14.0872 7.82568 13.5617 7.82568 12.9132V8.21749C7.82568 7.56909 8.35122 7.04356 8.99962 7.04356C9.64803 7.04356 10.1736 7.56909 10.1736 8.21749V12.9132ZM8.97888 6.21084C8.30269 6.21084 7.8519 5.73188 7.86599 5.1406C7.8519 4.52076 8.30269 4.05627 8.99258 4.05627C9.68285 4.05627 10.1196 4.52115 10.134 5.1406C10.1336 5.73188 9.68324 6.21084 8.97888 6.21084Z" fill="#257263"/>
</g>
<defs>
<clipPath id="clip0">
<rect width="18" height="18" fill="white"/>
</clipPath>
</defs>
</svg>
