<svg width="24" height="24" viewBox="0 0 24 24" fill="none" xmlns="http://www.w3.org/2000/svg">
<g clip-path="url(#clip0)">
<path d="M7.20001 9.58725H9.25224C9.36951 9.58725 9.48531 9.59209 9.60001 9.59999V4.79999H7.20001V9.58725Z" fill="#777777"/>
<path d="M3.60001 3.59998H7.20001V10.8H3.60001V3.59998Z" fill="#777777"/>
<path d="M11.9997 17.4151C11.4821 17.4151 11.2594 17.6221 10.8905 17.9649C10.4701 18.3557 9.89427 18.891 8.82407 18.891C7.75382 18.891 7.178 18.3557 6.75753 17.9649C6.38863 17.6221 6.16597 17.4151 5.64838 17.4151C5.17672 17.4151 4.94966 17.5873 4.634 17.8772V19.8237C4.9145 19.7086 5.24628 19.6327 5.64838 19.6327C6.71863 19.6327 7.29444 20.1679 7.71491 20.5587C8.08382 20.9016 8.30647 21.1085 8.82407 21.1085C9.34166 21.1085 9.56432 20.9016 9.93318 20.5587C10.3536 20.1679 10.9295 19.6327 11.9997 19.6327C13.0699 19.6327 13.6458 20.1679 14.0662 20.5587C14.4351 20.9016 14.6578 21.1085 15.1754 21.1085C15.6931 21.1085 15.9157 20.9016 16.2846 20.5587C16.7052 20.1679 17.281 19.6327 18.3513 19.6327C19.4216 19.6327 19.9974 20.1679 20.4179 20.5587C20.7868 20.9016 21.0096 21.1085 21.5272 21.1085C22.045 21.1085 22.2677 20.9016 22.6366 20.5587C22.954 20.2637 23.36 19.8867 24.0001 19.7194V17.6195C23.8692 17.7091 23.7435 17.8259 23.594 17.9649C23.1734 18.3557 22.5975 18.891 21.5272 18.891C20.4569 18.891 19.8811 18.3557 19.4606 17.9649C19.0917 17.6221 18.869 17.4151 18.3513 17.4151C17.8336 17.4151 17.6109 17.6221 17.242 17.9649C16.8216 18.3557 16.2457 18.891 15.1754 18.891C14.1052 18.891 13.5293 18.3557 13.1089 17.9649C12.74 17.6221 12.5173 17.4151 11.9997 17.4151Z" fill="#444444"/>
<path d="M24.0001 21.2439C23.8692 21.3335 23.7435 21.4497 23.594 21.5887C23.1734 21.9796 22.5975 22.5148 21.5272 22.5148C20.4569 22.5148 19.8811 21.9796 19.4606 21.5888C19.0917 21.2459 18.869 21.0389 18.3513 21.0389C17.8336 21.0389 17.6109 21.2459 17.242 21.5887C16.8216 21.9796 16.2457 22.5148 15.1754 22.5148C14.1052 22.5148 13.5293 21.9796 13.1089 21.5887C12.74 21.2459 12.5173 21.0389 11.9997 21.0389C11.4821 21.0389 11.2594 21.2459 10.8905 21.5887C10.4701 21.9795 9.89427 22.5148 8.82407 22.5148C7.75382 22.5148 7.178 21.9796 6.75753 21.5887C6.38863 21.2459 6.16597 21.0389 5.64838 21.0389C5.17672 21.0389 4.94966 21.2112 4.634 21.5011V24H24.0001V21.2439Z" fill="#444444"/>
<path d="M3.6 0H0V23.9983L3.6 24V0Z" fill="#777777"/>
<path d="M11.5431 9.98866C12.3663 10.5331 12.9108 11.4666 12.9108 12.5254V16.16C13.4333 16.3472 13.7847 16.6733 14.0662 16.935C14.4351 17.2778 14.6578 17.4848 15.1754 17.4848C15.693 17.4848 15.9157 17.2778 16.2846 16.935C16.7051 16.5441 17.2809 16.0089 18.3512 16.0089C18.7343 16.0089 19.0538 16.0777 19.3258 16.1837L18.681 12.315C18.3339 10.2321 17.2554 8.33337 15.6442 6.96847C14.4635 5.96825 13.0468 5.29808 11.5431 5.01111V9.98866Z" fill="#444444"/>
</g>
<defs>
<clipPath id="clip0">
<rect width="24" height="24" fill="white"/>
</clipPath>
</defs>
</svg>
