<svg width="23" height="24" viewBox="0 0 23 24" fill="none" xmlns="http://www.w3.org/2000/svg">
<path d="M17.9316 3.77124H19.3386V5.17818H17.9316V3.77124Z" fill="#0084FE"/>
<path d="M20.7454 3.77124H22.1523V5.17818H20.7454V3.77124Z" fill="#0084FE"/>
<path d="M15.6132 2.98402L16.6079 1.98931L17.6026 2.98402L16.6079 3.97873L15.6132 2.98402Z" fill="#0084FE"/>
<path d="M17.6028 0.994701L18.5975 -5.52625e-06L19.5922 0.994701L18.5975 1.98941L17.6028 0.994701Z" fill="#0084FE"/>
<path d="M15.6129 5.96823L16.6076 4.97352L17.6023 5.96823L16.6076 6.96293L15.6129 5.96823Z" fill="#0084FE"/>
<path d="M17.6018 7.9575L18.5965 6.96279L19.5912 7.9575L18.5965 8.9522L17.6018 7.9575Z" fill="#0084FE"/>
<path d="M4.95718 2.31961C3.56332 2.31961 2.34196 3.25264 1.9754 4.59749L1.57471 6.06774V6.62982H3.76269V8.34535H7.40207V6.62982H10.1759V2.31961H4.95718Z" fill="#8E8BFF"/>
<path d="M11.5828 2.31961H13.9121V6.62982H11.5828V2.31961Z" fill="#0084FE"/>
<path d="M10.1758 9.09078L12.2592 11.1743L13.2541 10.1794L11.5827 8.50803V6.62981H10.1758V9.09078Z" fill="#0084FE"/>
<path d="M7.40215 10.7565V9.75229H3.76277V10.7565C3.76277 11.9548 3.11407 13.0593 2.06745 13.6428L0 14.7955V24H11.1649V14.7955L9.09746 13.6428C8.05084 13.0593 7.40215 11.9548 7.40215 10.7565ZM8.86452 21.6996H2.30039V16.044H8.86452V21.6996Z" fill="#0084FE"/>
<path d="M3.7074 17.451H7.45764V20.2927H3.7074V17.451Z" fill="#0084FE"/>
</svg>
