<svg width="18" height="18" viewBox="0 0 18 18" fill="none" xmlns="http://www.w3.org/2000/svg">
<path d="M11.1 10.5H10.77C10.6458 10.5003 10.5348 10.4229 10.4922 10.3062C10.4556 10.2102 10.4163 10.1163 10.374 10.0233C10.3215 9.91019 10.3455 9.77638 10.434 9.68849L10.6692 9.45298C11.0184 9.10079 11.0178 8.53259 10.6677 8.18127L9.81988 7.33348C9.46797 6.98367 8.89977 6.98367 8.54789 7.33348L8.3127 7.56839C8.2248 7.6566 8.091 7.68058 7.9779 7.6284C7.88491 7.58611 7.79101 7.54681 7.69472 7.50842C7.5774 7.46612 7.49971 7.3545 7.50002 7.23001V6.9C7.50002 6.40289 7.09713 6 6.60002 6H5.4C4.90289 6 4.5 6.40289 4.5 6.9V7.23001C4.50032 7.35422 4.4229 7.46521 4.30618 7.50782C4.21017 7.54442 4.11627 7.58372 4.02328 7.62601C3.91018 7.67822 3.77638 7.65421 3.68849 7.566L3.45298 7.33081C3.10106 6.98132 2.53318 6.98132 2.18127 7.33081L1.33348 8.18131C0.983672 8.53322 0.983672 9.10142 1.33348 9.4533L1.56839 9.68849C1.65688 9.77638 1.68089 9.91019 1.6284 10.0233C1.58611 10.1163 1.5468 10.2102 1.50989 10.3065C1.467 10.4238 1.35478 10.5012 1.22998 10.5H0.9C0.402891 10.5 0 10.9029 0 11.4V12.6C0 13.0971 0.402891 13.5 0.9 13.5H1.23001C1.35422 13.4997 1.46521 13.5771 1.50782 13.6938C1.54441 13.7898 1.58372 13.8837 1.62601 13.9767C1.6785 14.0898 1.65452 14.2236 1.566 14.3115L1.3308 14.547C0.981316 14.8989 0.981316 15.4668 1.3308 15.8187L2.1786 16.6665C2.53051 17.0163 3.09871 17.0163 3.45059 16.6665L3.68578 16.4316C3.77367 16.3434 3.90748 16.3194 4.02057 16.3716C4.11356 16.4139 4.20746 16.4532 4.30376 16.4916C4.42167 16.5333 4.50025 16.6449 4.49996 16.77V17.1C4.49996 17.5971 4.90286 18 5.39996 18H6.59995C7.09706 18 7.49995 17.5971 7.49995 17.1V16.77C7.49964 16.6458 7.57705 16.5348 7.69377 16.4922C7.78978 16.4556 7.88368 16.4163 7.97667 16.374C8.08977 16.3218 8.22357 16.3458 8.31146 16.434L8.54698 16.6692C8.89917 17.0181 9.46709 17.0175 9.81868 16.6677L10.6665 15.8199C11.0163 15.468 11.0163 14.8998 10.6665 14.5479L10.4316 14.3127C10.3431 14.2248 10.3191 14.091 10.3716 13.9779C10.4138 13.8849 10.4531 13.791 10.4915 13.6947C10.5338 13.5774 10.6455 13.4997 10.7699 13.5H11.1C11.5971 13.5 12 13.0971 12 12.6V11.4C12 10.9029 11.5971 10.5 11.1 10.5Z" fill="white"/>
<path d="M17.1001 6.3H16.1567C16.031 6.30119 15.9182 6.22199 15.8771 6.10319C15.7841 5.82451 15.6716 5.55268 15.5402 5.28989C15.4844 5.17648 15.5077 5.04 15.5977 4.95119L16.2667 4.28129C16.6177 3.92998 16.6177 3.3603 16.2667 3.00899L14.9911 1.73549C14.6398 1.38449 14.0701 1.38449 13.7188 1.73549L13.0501 2.40391C12.9617 2.49391 12.8251 2.51733 12.7117 2.46182C12.4489 2.3298 12.1771 2.21671 11.8981 2.12312C11.7788 2.0823 11.6989 1.96952 11.7001 1.84352V0.9C11.7001 0.402891 11.2973 0 10.8001 0H9.00014C8.50303 0 8.10014 0.402891 8.10014 0.9V1.84349C8.10134 1.96917 8.02213 2.08199 7.90334 2.12309C7.62466 2.21667 7.35283 2.32977 7.09003 2.4615C6.97662 2.51729 6.83983 2.49419 6.75134 2.40391L6.08144 1.73493C5.72952 1.38484 5.16105 1.38484 4.80913 1.73493L3.53595 3.00811C3.18463 3.35943 3.18463 3.92941 3.53595 4.28069L4.51966 5.26619C4.63876 5.3814 4.82864 5.37838 4.94385 5.25959C5.05635 5.1435 5.05667 4.95928 4.94445 4.8426L3.96014 3.85741C3.84314 3.7401 3.84314 3.5505 3.96014 3.43322L5.23333 2.16003C5.35033 2.04304 5.54052 2.04304 5.65752 2.16003L6.32771 2.82902C6.5989 3.10173 7.01441 3.17011 7.35852 2.99823C7.59611 2.87912 7.84182 2.77713 8.09382 2.69255C8.4574 2.56953 8.70163 2.22753 8.70012 1.84356V0.9C8.70012 0.734414 8.83452 0.600012 9.00011 0.600012H10.8001C10.9657 0.600012 11.1001 0.734414 11.1001 0.9V1.84349C11.0986 2.2275 11.3428 2.56918 11.7064 2.6922C11.9584 2.77678 12.2044 2.87909 12.442 2.99819C12.7861 3.16919 13.201 3.10078 13.4725 2.82871L14.1427 2.16C14.2597 2.043 14.4499 2.043 14.5669 2.16L15.8401 3.4335C15.9571 3.5505 15.9571 3.74041 15.8401 3.85741L15.1711 4.5276C14.8987 4.79879 14.8303 5.2143 15.0019 5.55841C15.121 5.796 15.223 6.04171 15.3076 6.29371C15.4306 6.65729 15.7726 6.9018 16.1566 6.90001H17.1001C17.2657 6.90001 17.4001 7.03441 17.4001 7.2V9C17.4001 9.16558 17.2657 9.29999 17.1001 9.29999H16.1567C15.7726 9.29848 15.431 9.54267 15.3079 9.90629C15.2234 10.1583 15.1211 10.4043 15.0019 10.6419C14.8306 10.986 14.899 11.4012 15.1714 11.6724L15.8404 12.3426C15.9574 12.4596 15.9574 12.6498 15.8404 12.7668L14.5666 14.04C14.4496 14.157 14.2597 14.157 14.1427 14.04L13.1569 13.0563C13.0417 12.9371 12.8518 12.9342 12.7327 13.0494C12.6136 13.1646 12.6106 13.3545 12.7258 13.4736C12.7282 13.476 12.7306 13.4784 12.7333 13.4808L13.7188 14.4645C14.0701 14.8155 14.6398 14.8155 14.9911 14.4645L16.2643 13.1916C16.6156 12.84 16.6156 12.2706 16.2643 11.919L15.5962 11.25C15.5062 11.1615 15.4828 11.025 15.5383 10.9116C15.6703 10.6488 15.7834 10.377 15.877 10.098C15.9178 9.97861 16.0306 9.8988 16.1566 9.9H17.1001C17.5973 9.9 18.0001 9.49711 18.0001 9V7.2C18.0001 6.70289 17.5973 6.3 17.1001 6.3Z" fill="white"/>
<path d="M12.6576 5.34241C11.1336 3.82173 8.66641 3.82173 7.14238 5.34241C7.02717 5.46152 7.03048 5.6514 7.14987 5.76661C7.26627 5.87879 7.45046 5.87879 7.56658 5.76661C8.84669 4.46942 10.9362 4.45532 12.2334 5.73543C13.5306 7.01553 13.5447 9.105 12.2646 10.4022C12.2541 10.4127 12.2439 10.4232 12.2334 10.4334C12.1143 10.5486 12.111 10.7385 12.2262 10.8576C12.3414 10.9767 12.5313 10.98 12.6504 10.8648C12.6528 10.8624 12.6552 10.86 12.6576 10.8576C14.1783 9.33359 14.1783 6.8664 12.6576 5.34241Z" fill="white"/>
</svg>
