<svg width="20" height="20" viewBox="0 0 20 20" fill="none" xmlns="http://www.w3.org/2000/svg">
<path d="M17.1745 18.8238L9.30826 14.6588C9.10326 14.55 8.85326 14.565 8.65951 14.6963L2.64451 18.8613C2.41951 19.0175 2.32201 19.3013 2.40451 19.5625C2.48451 19.8213 2.72701 20 2.99951 20H16.8808C17.167 20 17.4183 19.805 17.487 19.525C17.557 19.2463 17.427 18.9575 17.1745 18.8238Z" fill="#1EA5FC"/>
<path d="M19.8068 17.6363L17.9568 9.30749C17.9118 9.10374 17.7681 8.93749 17.5743 8.86124C17.3793 8.78499 17.1606 8.81124 16.9906 8.92874L10.9743 13.0937C10.7943 13.2187 10.6931 13.4275 10.7068 13.6437C10.7193 13.8625 10.8456 14.0575 11.0381 14.1587L18.9031 18.3238C18.9956 18.3725 19.0956 18.3975 19.1956 18.3975C19.3293 18.3975 19.4631 18.355 19.5743 18.2688C19.7681 18.1213 19.8593 17.875 19.8068 17.6363Z" fill="#FD513B"/>
<path d="M15.4547 7.93875C15.3722 7.6775 15.1309 7.5 14.8572 7.5H9.1522C8.1147 9.37875 6.5797 11.175 5.94845 11.8775C5.59345 12.2725 5.0847 12.5 4.55345 12.5C4.0222 12.5 3.51345 12.2725 3.15845 11.8775C2.9147 11.6062 2.5372 11.1725 2.1047 10.635L0.592199 17.4425C0.537199 17.6937 0.640949 17.9525 0.853449 18.0962C0.958449 18.1675 1.08095 18.2025 1.2022 18.2025C1.3272 18.2025 1.45095 18.1662 1.55845 18.0912L15.2122 8.6375C15.4384 8.48375 15.5347 8.2 15.4547 7.93875Z" fill="#E8C511"/>
<path d="M4.55322 0C2.14072 0 0.178223 1.9625 0.178223 4.375C0.178223 6.62 3.68822 10.5962 4.08822 11.0425C4.20697 11.1737 4.37572 11.25 4.55322 11.25C4.73072 11.25 4.89947 11.1737 5.01822 11.0425C5.41822 10.5962 8.92822 6.62 8.92822 4.375C8.92822 1.9625 6.96572 0 4.55322 0ZM4.55322 6.25C3.51822 6.25 2.67822 5.41 2.67822 4.375C2.67822 3.34 3.51822 2.5 4.55322 2.5C5.58822 2.5 6.42822 3.34 6.42822 4.375C6.42822 5.41 5.58822 6.25 4.55322 6.25Z" fill="#DF1125"/>
</svg>
