<svg width="18" height="18" viewBox="0 0 18 18" fill="none" xmlns="http://www.w3.org/2000/svg">
<g clip-path="url(#clip0)">
<path d="M0.929495 18C0.692391 18 0.455286 17.9099 0.275141 17.7284C-0.0865054 17.3667 -0.0865054 16.7804 0.275141 16.4187L16.4227 0.271235C16.7843 -0.0904116 17.3706 -0.0904116 17.7323 0.271235C18.0939 0.632881 18.0939 1.2192 17.7323 1.58107L1.58498 17.7284C1.40348 17.9087 1.16637 18 0.929495 18Z" fill="#1F97DD"/>
<path d="M17.0781 18C16.841 18 16.6042 17.9099 16.4238 17.7284L0.275141 1.58107C-0.0865054 1.2192 -0.0865054 0.632881 0.275141 0.271235C0.636788 -0.0904116 1.22311 -0.0904116 1.58498 0.271235L17.7323 16.4187C18.0939 16.7804 18.0939 17.3667 17.7323 17.7284C17.5508 17.9087 17.3139 18 17.0781 18Z" fill="#0078BA"/>
</g>
<defs>
<clipPath id="clip0">
<rect width="18" height="18" fill="white"/>
</clipPath>
</defs>
</svg>
