<svg width="18" height="18" viewBox="0 0 18 18" fill="none" xmlns="http://www.w3.org/2000/svg">
<g clip-path="url(#clip0)">
<path d="M15.364 2.63603C13.6641 0.936172 11.4039 0 9 0C6.59605 0 4.33589 0.936172 2.63603 2.63603C0.936172 4.33589 0 6.59605 0 9C0 11.4039 0.936172 13.6641 2.63603 15.364C4.33589 17.0638 6.59605 18 9 18C11.4039 18 13.6641 17.0638 15.364 15.364C17.0638 13.6641 18 11.4039 18 9C18 6.59605 17.0638 4.33589 15.364 2.63603V2.63603ZM14.5151 13.5562L14.4012 13.641C13.6667 14.188 12.758 14.4892 11.8426 14.4892C11.8424 14.4892 11.8426 14.4892 11.8424 14.4892C11.6635 14.4892 11.4826 14.4778 11.3049 14.4553L6.08121 13.7946L4.69817 13.7948C4.2285 13.7948 3.78712 13.6121 3.45506 13.28C3.123 12.9481 2.94008 12.5066 2.94008 12.037V7.80524C2.94008 6.83597 3.72862 6.04742 4.69789 6.04742H6.38773L6.67488 5.94196C6.99362 5.82468 7.24397 5.56114 7.34464 5.23691L7.95067 3.28464C8.22684 2.39543 9.03763 1.79805 9.96831 1.79805C10.2005 1.79805 10.4301 1.83623 10.6511 1.91162C11.5843 2.23022 12.168 3.13797 12.071 4.11919L11.9612 5.22702L12.3426 5.14435C12.5294 5.10384 12.7207 5.08337 12.9117 5.08337C13.3596 5.08337 13.8043 5.19681 14.1975 5.41132C15.0605 5.88208 15.5965 6.78516 15.5965 7.76816V11.403C15.5963 12.247 15.1922 13.052 14.5151 13.5562V13.5562Z" fill="#5F41B2"/>
<path d="M13.6923 6.33718C13.3486 6.14959 12.9487 6.09205 12.5661 6.17513L10.7689 6.56487L11.0213 4.01535C11.0698 3.52633 10.7752 3.06847 10.3103 2.90972C9.74632 2.71718 9.13466 3.02823 8.95805 3.59732L8.35188 5.54946C8.16182 6.16167 7.70905 6.65509 7.11963 6.8994L6.67139 12.8062L11.4373 13.4089C12.2652 13.5137 13.1017 13.2937 13.7712 12.7952L13.8851 12.7102C14.2982 12.4026 14.5416 11.918 14.5416 11.403V7.76801C14.5416 7.17159 14.2158 6.62282 13.6923 6.33718V6.33718Z" fill="#A58998"/>
<path d="M3.99463 7.80524V12.037C3.99463 12.4254 4.30952 12.7402 4.69789 12.7402L5.61855 12.74L6.04646 7.10211H4.69775C4.30952 7.10211 3.99463 7.41701 3.99463 7.80524V7.80524Z" fill="#A58998"/>
</g>
<defs>
<clipPath id="clip0">
<rect width="18" height="18" fill="white"/>
</clipPath>
</defs>
</svg>
