<svg width="20" height="20" viewBox="0 0 20 20" fill="none" xmlns="http://www.w3.org/2000/svg">
<g clip-path="url(#clip0)">
<path d="M12.9173 8.54166V0.833333C12.9173 0.373333 12.544 0 12.084 0H7.91732C7.45732 0 7.08398 0.373333 7.08398 0.833333V8.54166C7.08398 9.00166 7.45732 9.37499 7.91732 9.37499H12.084C12.544 9.37499 12.9173 9.00166 12.9173 8.54166Z" fill="#1F97DD"/>
<path d="M19.9993 8.54166V0.833333C19.9993 0.373333 19.626 0 19.166 0H14.9993C14.5393 0 14.166 0.373333 14.166 0.833333V8.54166C14.166 9.00166 14.5393 9.37499 14.9993 9.37499H19.166C19.626 9.37499 19.9993 9.00166 19.9993 8.54166Z" fill="#1F97DD"/>
<path d="M14.1667 10.625H12.9167H7.08333H5.83333H0.833333C0.373333 10.625 0 10.9983 0 11.4583V19.1667C0 19.6267 0.373333 20 0.833333 20H19.1667C19.6267 20 20 19.6267 20 19.1667V11.4583C20 10.9983 19.6267 10.625 19.1667 10.625H14.1667Z" fill="#0078BA"/>
<path d="M5.83333 8.54167V0.833333C5.83333 0.373333 5.46 0 5 0H0.833333C0.373333 0 0 0.373333 0 0.833333V8.54167C0 9.00167 0.373333 9.375 0.833333 9.375H5C5.46 9.375 5.83333 9.00167 5.83333 8.54167Z" fill="#1F97DD"/>
</g>
<defs>
<clipPath id="clip0">
<rect width="20" height="20" fill="white"/>
</clipPath>
</defs>
</svg>
