<svg width="24" height="24" viewBox="0 0 24 24" fill="none" xmlns="http://www.w3.org/2000/svg">
<g clip-path="url(#clip0)">
<path d="M19.0589 7.05884H17.6471V19.7647H18.353V22.5882H9.88241V19.7647H16.2354V16.9412H7.05888V15.5294H16.2354V14.1177H7.05888V12.7059H16.2354V11.2941H7.05888V9.88237H16.2354C16.2354 9.02453 16.2354 7.89865 16.2354 7.05884C15.7999 7.05884 7.53408 7.05884 7.05888 7.05884V9.17648H4.23535V17.6471H7.05888V19.7647H8.47065V22.5882H7.05888V24H21.1765V22.5882H19.7648V19.7141C22.1562 19.3705 24.0001 17.3085 24.0001 14.8235V12C24.0001 9.2754 21.7834 7.05884 19.0589 7.05884Z" fill="#777777"/>
<path d="M0 11.2941H2.82353V15.5294H0V11.2941Z" fill="#444444"/>
<path d="M12.0001 6H14.8236V2.82353H16.9412V0H9.88242V2.82353H12.0001V6Z" fill="#444444"/>
</g>
<defs>
<clipPath id="clip0">
<rect width="24" height="24" fill="white"/>
</clipPath>
</defs>
</svg>
