<svg width="18" height="18" viewBox="0 0 18 18" fill="none" xmlns="http://www.w3.org/2000/svg">
<path d="M15.8906 1.08984C15.5063 1.08984 15.1465 1.19489 14.8359 1.37521V11.8164C15.1712 11.698 15.526 11.6367 15.8906 11.6367C16.694 11.6367 17.4336 11.9465 18 12.4552V3.19922C18 2.03586 17.054 1.08984 15.8906 1.08984Z" fill="white"/>
<path d="M7.45312 5.30859V7.41797H9.03516C9.32664 7.41797 9.5625 7.65383 9.5625 7.94531C9.5625 8.23679 9.32664 8.47266 9.03516 8.47266H6.92578H4.81641C4.52493 8.47266 4.28906 8.23679 4.28906 7.94531C4.28906 7.65383 4.52493 7.41797 4.81641 7.41797H6.39844V5.30859H3.23438V9.52734H5.87109C6.16257 9.52734 6.39844 9.76321 6.39844 10.0547V12.1641C6.39844 12.4555 6.16257 12.6914 5.87109 12.6914C5.57961 12.6914 5.34375 12.4555 5.34375 12.1641V10.582H3.23438V13.7461H7.45312V13.2188C7.45312 11.7649 8.63603 10.582 10.0898 10.582C10.3813 10.582 10.6172 10.8179 10.6172 11.1094V13.7461H11.6719V5.30859H7.45312Z" fill="white"/>
<path d="M17.9336 14.2734C17.6936 13.3424 16.8531 12.6914 15.8906 12.6914C15.4302 12.6914 14.993 12.8377 14.6258 13.1142C14.2764 13.3768 13.7813 13.1247 13.7813 12.693V2.14453H0.527344C0.235863 2.14453 0 2.38039 0 2.67188V16.3828C0 16.6743 0.235863 16.9102 0.527344 16.9102H15.8906C17.3004 16.9102 18.2652 15.5602 17.9336 14.2734ZM12.7266 14.2734C12.7266 14.5649 12.4907 14.8008 12.1992 14.8008H10.0898C9.79836 14.8008 9.5625 14.5649 9.5625 14.2734V11.7268C8.94864 11.9447 8.50781 12.5312 8.50781 13.2188V14.2734C8.50781 14.5649 8.27195 14.8008 7.98047 14.8008H2.70703C2.41555 14.8008 2.17969 14.5649 2.17969 14.2734V4.78125C2.17969 4.48977 2.41555 4.25391 2.70703 4.25391H12.1992C12.4907 4.25391 12.7266 4.48977 12.7266 4.78125V14.2734Z" fill="white"/>
</svg>
