<svg width="18" height="18" viewBox="0 0 18 18" fill="none" xmlns="http://www.w3.org/2000/svg">
<path d="M9.9436 10.3649L10.659 9.84514H9.77474C9.5463 9.84514 9.3438 9.69805 9.27321 9.48075L8.9999 8.63971L8.72664 9.48075C8.65604 9.69801 8.45354 9.84514 8.2251 9.84514H7.34082L8.05625 10.3649C8.2411 10.4992 8.31844 10.7372 8.24781 10.9545L7.97458 11.7956L8.69 11.2758C8.78239 11.2086 8.8912 11.1751 8.99994 11.1751C9.10868 11.1751 9.21748 11.2086 9.30987 11.2758L10.0253 11.7956L9.75207 10.9545C9.6814 10.7373 9.75874 10.4992 9.9436 10.3649Z" fill="#0078BB"/>
<path d="M3.11035 5.15125V17.4727C3.11035 17.6616 3.21143 17.8361 3.37525 17.9301C3.53912 18.0241 3.74074 18.0233 3.90383 17.928L9.00029 14.9484L14.0968 17.9279C14.1789 17.976 14.2709 18 14.3629 18C14.4534 18 14.544 17.9767 14.6253 17.9301C14.7892 17.8361 14.8902 17.6616 14.8902 17.4727V5.15125H3.11035ZM12.5924 9.74449L10.8739 10.9931L11.5303 13.0133C11.6009 13.2306 11.5246 13.47 11.3387 13.6029C11.1072 13.7683 10.8112 13.67 10.7188 13.6029L9.00029 12.3543L7.28178 13.6029C7.097 13.7372 6.84665 13.7372 6.66187 13.6029C6.47702 13.4686 6.39968 13.2306 6.4703 13.0133L7.12671 10.993L5.4082 9.74445C5.22335 9.61015 5.146 9.37215 5.21663 9.15485C5.28723 8.93758 5.48973 8.79045 5.71817 8.79045H7.84235L8.49879 6.77023C8.56938 6.55296 8.77188 6.40583 9.00032 6.40583C9.22877 6.40583 9.43127 6.55293 9.50186 6.77023L10.1583 8.79045H12.2825C12.5109 8.79045 12.7134 8.93758 12.784 9.15485C12.8546 9.37215 12.7772 9.61019 12.5924 9.74449V9.74449Z" fill="#1F97DD"/>
<path d="M17.033 0H0.967285C0.676051 0 0.439941 0.236109 0.439941 0.527344C0.439941 2.50221 2.04662 4.10885 4.02145 4.10885H13.9788C15.9537 4.10885 17.5603 2.50221 17.5603 0.527344C17.5603 0.236109 17.3242 0 17.033 0Z" fill="#0078BB"/>
</svg>
