<svg width="18" height="18" viewBox="0 0 18 18" fill="none" xmlns="http://www.w3.org/2000/svg">
<path d="M16.9509 10.1429L18 9.9784V8.0216L16.9509 7.85707C16.0875 7.71152 15.7841 6.56789 16.4591 6.01312L17.2508 5.36098L16.2766 3.67418L15.3077 4.03699C14.4875 4.34426 13.6554 3.51316 13.963 2.69227L14.3258 1.72336L12.639 0.74918L11.9869 1.5409C11.4332 2.21449 10.2888 1.91391 10.1429 1.04906L9.9784 0H8.0216L7.85707 1.04906C7.71047 1.9125 6.56789 2.2159 6.01312 1.5409L5.36098 0.74918L3.67418 1.72336L4.03699 2.69227C4.34426 3.51246 3.51316 4.34461 2.69227 4.03699L1.72336 3.67418L0.74918 5.36098L1.5409 6.01312C2.21309 6.56648 1.91602 7.71082 1.04906 7.85707L0 8.0216V9.9784L1.04906 10.1429C1.90898 10.2888 2.21836 11.4293 1.5409 11.9869L0.74918 12.639L1.72336 14.3258L2.69227 13.963C3.50859 13.6571 4.34602 14.4837 4.03699 15.3077L3.67418 16.2766L5.36098 17.2508L6.01312 16.4591C6.56613 15.7873 7.71012 16.084 7.85707 16.9509L8.0216 18H9.9784L10.1429 16.9509C10.2878 16.0931 11.4282 15.7802 11.9869 16.4591L12.639 17.2508L14.3258 16.2766L13.963 15.3077C13.6571 14.4914 14.4837 13.654 15.3077 13.963L16.2766 14.3258L17.2508 12.639L16.4591 11.9869C15.7855 11.4328 16.0861 10.2895 16.9509 10.1429ZM9 13.3945C6.57668 13.3945 4.60547 11.4233 4.60547 9C4.60547 6.57668 6.57668 4.60547 9 4.60547C11.4233 4.60547 13.3945 6.57668 13.3945 9C13.3945 11.4233 11.4233 13.3945 9 13.3945Z" fill="#0078BA"/>
<path d="M16.4591 11.9869L17.2508 12.639L16.2766 14.3258L15.3077 13.963C14.4837 13.654 13.6571 14.4914 13.963 15.3077L14.3258 16.2766L12.639 17.2508L11.9869 16.4591C11.4282 15.7802 10.2878 16.0931 10.1429 16.9509L9.9784 18H9V13.3945C11.4233 13.3945 13.3945 11.4233 13.3945 9C13.3945 6.57668 11.4233 4.60547 9 4.60547V0H9.9784L10.1429 1.04906C10.2888 1.91391 11.4332 2.21449 11.9869 1.5409L12.639 0.74918L14.3258 1.72336L13.963 2.69227C13.6554 3.51316 14.4875 4.34426 15.3077 4.03699L16.2766 3.67418L17.2508 5.36098L16.4591 6.01312C15.7841 6.56789 16.0875 7.71152 16.9509 7.85707L18 8.0216V9.9784L16.9509 10.1429C16.0861 10.2895 15.7855 11.4328 16.4591 11.9869Z" fill="#1F97DD"/>
</svg>
