<svg width="20" height="20" viewBox="0 0 20 20" fill="none" xmlns="http://www.w3.org/2000/svg">
<path d="M14.6875 4.6875C14.0403 4.6875 13.5156 4.16285 13.5156 3.51562V1.17188C13.5156 0.524648 14.0403 0 14.6875 0C15.3347 0 15.8594 0.524648 15.8594 1.17188V3.51562C15.8594 4.16285 15.3347 4.6875 14.6875 4.6875Z" fill="#E0694E"/>
<path d="M17.8516 2.34375H17.0312V3.51562C17.0312 4.80797 15.9798 5.85938 14.6875 5.85938C13.3952 5.85938 12.3438 4.80797 12.3438 3.51562V2.34375H7.65625V3.51562C7.65625 4.80797 6.60484 5.85938 5.3125 5.85938C4.02016 5.85938 2.96875 4.80797 2.96875 3.51562V2.34375H2.14844C0.963789 2.34375 0 3.30754 0 4.49219V7.10938H20V4.49219C20 3.30754 19.0362 2.34375 17.8516 2.34375Z" fill="#E0694E"/>
<path d="M5.3125 4.6875C4.66527 4.6875 4.14062 4.16285 4.14062 3.51562V1.17188C4.14062 0.524648 4.66527 0 5.3125 0C5.95973 0 6.48438 0.524648 6.48438 1.17188V3.51562C6.48438 4.16285 5.95973 4.6875 5.3125 4.6875Z" fill="#E0694E"/>
<path d="M0 8.28125V17.8516C0 19.0362 0.963789 20 2.14844 20H17.8516C19.0362 20 20 19.0362 20 17.8516V8.28125H0Z" fill="#CDB996"/>
</svg>
