<svg width="20" height="20" viewBox="0 0 20 20" fill="none" xmlns="http://www.w3.org/2000/svg">
<g clip-path="url(#clip0)">
<path d="M15.8984 11.7968C15.561 11.7968 15.2331 11.8381 14.9192 11.9152L13.0038 9.99993L19.8284 3.17544C19.9383 3.06556 20 2.91654 20 2.76114C20 2.60572 19.9383 2.45669 19.8284 2.34685L17.6531 0.171653C17.4244 -0.0571362 17.0533 -0.0571362 16.8245 0.171653L10 6.99614L8.08475 5.08091C8.16197 4.76697 8.20318 4.43907 8.20318 4.10169C8.20318 1.84009 6.36322 9.03263e-05 4.10162 9.03263e-05C3.60697 9.03263e-05 3.12248 0.087981 2.66154 0.261301C2.47514 0.331379 2.33713 0.49134 2.29506 0.68595C2.25299 0.880559 2.31268 1.08325 2.45346 1.22404L3.63264 2.40318L3.46924 3.46915L2.40318 3.63251L1.22404 2.45337C1.08326 2.31259 0.880489 2.25302 0.685958 2.29497C0.491309 2.337 0.331348 2.47505 0.26127 2.66142C0.0879106 3.12236 2.00106e-05 3.60693 2.00106e-05 4.10165C2.00106e-05 6.36325 1.83998 8.20322 4.10158 8.20322C4.43904 8.20322 4.76697 8.16197 5.08092 8.08478L6.99615 9.99997L1.85725 15.1389C1.80549 15.1906 1.76385 15.2517 1.73455 15.3187L0.0489653 19.1796C-0.04748 19.4005 0.00119189 19.6579 0.171661 19.8283C0.283848 19.9406 0.433731 20 0.586114 19.9999C0.665176 19.9999 0.744942 19.984 0.82045 19.951L4.68123 18.2654C4.7483 18.2361 4.80932 18.1945 4.86107 18.1427L10 13.0038L11.9153 14.9191C11.8381 15.233 11.7969 15.561 11.7969 15.8984C11.7969 18.16 13.6368 19.9999 15.8984 19.9999C16.3931 19.9999 16.8776 19.912 17.3386 19.7387C17.525 19.6686 17.663 19.5086 17.705 19.314C17.7471 19.1194 17.6874 18.9167 17.5466 18.7759L16.3674 17.5968L16.5308 16.5308L17.5969 16.3675L18.776 17.5466C18.9168 17.6874 19.1194 17.7471 19.3141 17.705C19.5087 17.663 19.6687 17.5249 19.7387 17.3386C19.9121 16.8776 20 16.3931 20 15.8984C20 13.6368 18.1601 11.7968 15.8984 11.7968V11.7968ZM17.2388 1.41458L18.5854 2.76114L17.3423 4.00431L15.9957 2.65775L17.2388 1.41458ZM15.1671 3.48634L16.5137 4.83294L12.1752 9.17134L10.8287 7.82478L15.1671 3.48634ZM1.17193 4.10165C1.17193 4.08736 1.17201 4.07314 1.17225 4.0588L1.78436 4.67091C1.91623 4.80279 2.10307 4.86404 2.2874 4.83579L4.07201 4.56232C4.3251 4.52353 4.52365 4.32497 4.56244 4.07189L4.83592 2.28736C4.8642 2.10294 4.80295 1.91614 4.67107 1.78427L4.059 1.17224C4.07318 1.17204 4.08744 1.17193 4.10166 1.17193C5.71709 1.17193 7.03135 2.48622 7.03135 4.10165C7.03135 5.71712 5.71709 7.03134 4.10166 7.03134C2.48619 7.03134 1.17193 5.71712 1.17193 4.10165V4.10165ZM2.46479 16.5751L3.4249 17.5352L1.72072 18.2792L2.46479 16.5751ZM4.44674 16.8998L3.10018 15.5532L7.82479 10.8286L9.17139 12.1752L4.44674 16.8998ZM6.2485 7.59505C6.79549 7.25763 7.25768 6.79548 7.59506 6.24845L13.7516 12.405C13.2046 12.7424 12.7424 13.2045 12.405 13.7516L6.2485 7.59505ZM18.8278 15.9411L18.2157 15.329C18.0838 15.1972 17.8969 15.1359 17.7126 15.1642L15.928 15.4376C15.675 15.4764 15.4764 15.675 15.4376 15.9281L15.1641 17.7126C15.1359 17.897 15.1971 18.0838 15.329 18.2157L15.9412 18.8278C15.9269 18.828 15.9127 18.8281 15.8984 18.8281C14.283 18.8281 12.9687 17.5138 12.9687 15.8984C12.9687 14.283 14.283 12.9687 15.8984 12.9687C17.5138 12.9687 18.8281 14.283 18.8281 15.8984C18.8281 15.9127 18.828 15.9269 18.8278 15.9411V15.9411Z" fill="#777777"/>
</g>
<defs>
<clipPath id="clip0">
<rect width="20" height="20" fill="white"/>
</clipPath>
</defs>
</svg>
