<?xml version="1.0" encoding="UTF-8"?>
<svg xmlns="http://www.w3.org/2000/svg" id="line" viewBox="0 0 64 64" width="512" height="512"><path d="M47.2041,40.61523A21.33711,21.33711,0,0,1,46.02051,30.021l1.75-12.27881a5.75506,5.75506,0,0,0-5.7002-6.562h-7.125V9.79535a2.01076,2.01076,0,0,0,1.874-2.00043V6.01465A2.01667,2.01667,0,0,0,34.80469,4H29.19531a2.0175,2.0175,0,0,0-2.01562,2.01465V7.79492a2.01155,2.01155,0,0,0,1.875,2.00043v1.38483h-7.125a5.79118,5.79118,0,0,0-5.70012,6.56109l1.74992,12.28021A21.35176,21.35176,0,0,1,16.7959,40.61426,14.28491,14.28491,0,0,0,30.13965,60h3.7207A14.27117,14.27117,0,0,0,44.709,55.01074.9997.9997,0,1,0,43.19141,53.709,12.11411,12.11411,0,0,1,33.86035,58h-3.7207A12.28516,12.28516,0,0,1,18.665,41.32666,23.2136,23.2136,0,0,0,20.19043,33.02,22.9042,22.9042,0,0,0,19.96,29.73877L18.21,17.458a3.7541,3.7541,0,0,1,3.71973-4.27783h7.125V16.27H24.66016a3.043,3.043,0,0,0-3,3.45951l.68941,4.8901a1.00012,1.00012,0,0,0,1.98047-.27934l-.69043-4.89595A1.02781,1.02781,0,0,1,24.66017,18.27H39.33984a1.02711,1.02711,0,0,1,1.01952,1.1797L39.13086,28.127a29.43124,29.43124,0,0,0,1.42773,14.94678A7.2517,7.2517,0,0,1,33.55945,52.91l-3.4198.00013a7.252,7.252,0,0,1-6.61117-10.06354A28.44113,28.44113,0,0,0,24.999,29.01514l-.09961-.68018a.99983.99983,0,0,0-1.97851.29l.09863.67627a26.42443,26.42443,0,0,1-1.36719,12.85107c-2.45353,6.0432,2.05031,12.89128,8.48748,12.75773l3.41975.00009c6.51762.19528,11.367-6.59688,8.86019-12.56752a27.4481,27.4481,0,0,1-1.30941-13.93248l1.22852-8.67481a3.02312,3.02312,0,0,0-2.999-3.46533H34.94531V13.18018h7.125A3.7543,3.7543,0,0,1,45.79,17.459L44.041,29.73682a23.33666,23.33666,0,0,0,1.293,11.58691,12.10949,12.10949,0,0,1,.04,8.68311.99994.99994,0,1,0,1.8711.70605A14.10686,14.10686,0,0,0,47.2041,40.61523ZM31.05469,9.80957h1.89062v6.45606H31.05469ZM29.19531,6l5.624.01465c-.0156.01421.02842,1.79937-.01462,1.79489l-5.625-.01462Z"/><path d="M32,51.36426c4.37988,0,7.81152-2.36621,7.81152-5.38672-.21947-7.13052-15.407-7.127-15.624.00012C24.18749,48.99805,27.61914,51.36426,32,51.36426Zm0-8.773c7.69172.227,7.69015,6.54631-.00007,6.773C24.30762,49.137,24.308,42.81822,32,42.59131Z"/></svg>
