<svg fill="none" height="512" viewBox="0 0 128 129" width="512" xmlns="http://www.w3.org/2000/svg"><g fill="rgb(0,0,0)"><path d="m96.7262 68.9412c1.0831.2166 1.7856 1.2703 1.569 2.3534-.6181 3.0901-2.678 7.4348-6.8193 10.8615-4.1939 3.4701-10.4106 5.9074-19.1455 5.2921-1.1018-.0776-1.9321-1.0338-1.8545-2.1356.0776-1.1019 1.0337-1.9321 2.1356-1.8545 7.7946.549 12.9758-1.6214 16.3143-4.3838 3.3911-2.806 4.998-6.3189 5.447-8.5642.2166-1.0831 1.2703-1.7855 2.3534-1.5689z"/><path clip-rule="evenodd" d="m19.5068 8.95312c-1.1045 0-2 .89544-2 1.99998v11.6407c0 1.1045.8955 2 2 2h1.2012v39.9061c0 1.1045.8954 2 2 2h11.3865v7.6033c0 .5411.2193 1.0592.6077 1.4358l8.9957 8.7231v6.3314l-8.8411 6.9658c-.4814.3792-.7623.9582-.7623 1.571v3.9997h-11.3865c-1.1046 0-2 .896-2 2v13.207c0 1.105.8954 2 2 2h62.2765c1.1046 0 2-.895 2-2v-6.984c0-.531-.2107-1.039-.5858-1.414l-8.5811-8.582v-4.6196c10.1767-.8284 17.374-5.6947 22.1964-11.817 5.075-6.4424 7.509-14.2439 8.201-20.1892.066-.5669-.113-1.135-.493-1.5613-.379-.4262-.923-.67-1.494-.67h-81.52v-37.9061h30.6304v23.3222l-3.8235 8.4871c-.4537 1.0071-.0051 2.1913 1.002 2.645s2.1913.0051 2.645-1.002l4-8.8789c.1164-.2582.1765-.5383.1765-.8215v-23.7519h1.4921c1.1046 0 2-.8955 2-2v-11.6407c0-1.10454-.8954-1.99998-2-1.99998zm2 11.64068v-7.6407h37.3237v7.6407zm16.5877 45.9061v6.7568l8.9957 8.7231c.3884.3767.6077.8947.6077 1.4358v8.1483c0 .6128-.2809 1.1918-.7623 1.571l-8.8411 6.9661v16.236h44.89v-4.156l-8.5811-8.581c-.3751-.375-.5858-.884-.5858-1.414v-5.3337c-5.0805-.1099-10.775-1.1666-17.1415-3.4012-1.0423-.3658-1.5906-1.5073-1.2248-2.5495.3658-1.0423 1.5073-1.5906 2.5495-1.2248 6.8682 2.4107 12.7477 3.3183 17.7574 3.1696 9.8962-.294 16.6385-4.7198 21.1141-10.4012 3.9217-4.9783 6.1117-10.9439 7.0327-15.9453zm-4 49.8371v-9.207h-9.3865v9.207z" fill-rule="evenodd"/><path d="m62.9047 57.2246c0-1.1046.8954-2 2-2h41.3233c1.105 0 2 .8954 2 2s-.895 2-2 2h-41.3233c-1.1046 0-2-.8954-2-2z"/></g></svg>