<svg id="Layer_1" enable-background="new 0 0 512 512" height="512" viewBox="0 0 512 512" width="512" xmlns="http://www.w3.org/2000/svg"><g><g><path d="m352.4 46.066h-64.266c-8.285 0-15-6.716-15-15s6.715-15 15-15h64.266c8.283 0 15 6.716 15 15s-6.716 15-15 15z" fill="#678c97"/></g><path d="m288.135 0h-64.268c-8.285 0-15 6.716-15 15v80.333c0 8.284 6.715 15 15 15h64.268c8.283 0 15-6.716 15-15v-80.333c0-8.284-6.717-15-15-15z" fill="#c5e1e6"/><path d="m288.135 0h-32.135v110.333h32.135c8.283 0 15-6.716 15-15v-80.333c0-8.284-6.717-15-15-15z" fill="#8db9c4"/><g><path d="m376.5 80.333h-241c-30.42 0-55.168 24.748-55.168 55.167v200.833c0 96.863 78.805 175.667 175.668 175.667s175.668-78.804 175.668-175.667v-200.833c0-30.419-24.748-55.167-55.168-55.167z" fill="#e7f0ef"/><path d="m376.5 80.333h-120.5v431.667c96.863 0 175.668-78.805 175.668-175.667v-200.833c0-30.419-24.748-55.167-55.168-55.167z" fill="#c5e1e6"/><path d="m352.4 144.6h-192.8c-8.285 0-15 6.716-15 15v176.733c0 61.427 49.973 111.4 111.4 111.4 61.426 0 111.4-49.974 111.4-111.4v-176.733c0-8.285-6.716-15-15-15z" fill="#c5e1e6"/><path d="m352.4 144.6h-96.4v303.134c61.428-.001 111.4-49.974 111.4-111.4v-176.734c0-8.285-6.716-15-15-15z" fill="#8db9c4"/><g><path d="m256 383.465c-3.951 0-7.811-1.601-10.611-4.391-2.789-2.79-4.389-6.66-4.389-10.609 0-3.95 1.6-7.811 4.389-10.61 2.791-2.79 6.66-4.39 10.611-4.39 3.949 0 7.82 1.6 10.609 4.39 2.791 2.8 4.391 6.66 4.391 10.61 0 3.949-1.6 7.819-4.391 10.609-2.8 2.79-6.66 4.391-10.609 4.391z" fill="#265c76"/></g></g><path d="m266.609 379.074c2.791-2.79 4.391-6.66 4.391-10.609 0-3.95-1.6-7.811-4.391-10.61-2.789-2.79-6.658-4.39-10.609-4.39v30c3.951 0 7.809-1.601 10.609-4.391z" fill="#1d4659"/></g></svg>