<svg enable-background="new 0 0 283.465 283.465" height="512" viewBox="0 0 283.465 283.465" width="512" xmlns="http://www.w3.org/2000/svg"><g id="Layer_1_19_" clip-rule="evenodd" fill-rule="evenodd"><path d="m30.397 8.305h62.162c6.837 0 12.43 5.594 12.43 12.434v90.374c0 6.838-5.594 12.431-12.43 12.431h-62.162c-6.837 0-12.434-5.594-12.434-12.431v-90.374c0-6.84 5.596-12.434 12.434-12.434z" fill="#83cce9"/><path d="m28.687 123.544h65.58c5.899 0 10.721 4.981 10.721 11.035v6.715h160.513v16.282h-247.538v-22.997c0-6.072 4.826-11.035 10.724-11.035z" fill="#cdebf3"/><path d="m137.36 123.894h105.681c10.758 0 19.867 7.419 22.46 17.4h-150.6c2.592-9.981 11.698-17.4 22.459-17.4z" fill="#005480"/><path d="m175.371 211.554v39.415c0 13.302-7.498 24.188-16.656 24.188h-108.241c-9.162 0-16.657-10.883-16.657-24.188v-93.397h75.928c6.605 27.881 32.797 49.601 65.626 53.982z" fill="#005480"/><path d="m265.502 157.576c-7.41 31.268-39.461 54.792-77.881 54.792-38.415 0-70.468-23.524-77.877-54.792z" fill="#83cce9"/></g></svg>