<svg id="Capa_1" enable-background="new 0 0 510.58 510.58" height="512" viewBox="0 0 510.58 510.58" width="512" xmlns="http://www.w3.org/2000/svg"><g id="XMLID_233_"><path id="XMLID_3215_" d="m165.605 266.472 85.874 83.919h127.206v-83.919z" fill="#2ea8e6"/><path id="XMLID_3245_" d="m184.625 57.152h-26.685v117.403l-5.004 14.484 5.004 15.516v91.916h68.685v-197.319c0-23.159-18.841-42-42-42z" fill="#00cef5"/><path id="XMLID_3511_" d="m157.94 18.53 7.665 36.644v211.297l-7.665 14.998h-15v-224.449c0-14.9-12.13-27.02-27.03-27.02h-30.17v-30h30.17c16.62 0 31.6 7.15 42.03 18.53z" fill="#ababc5"/><g fill="#8a8aa9"><path id="XMLID_266_" d="m339.445 174.556h-166.505v-117.536c0-14.82-5.69-28.34-15-38.49v262.94h15v-76.914h166.505c10.609 0 19.24 8.631 19.24 19.24v183.949h30v-183.949c0-27.151-22.088-49.24-49.24-49.24z"/><path id="XMLID_3216_" d="m416.672 435.731h58.028v30h-58.028z"/><circle id="XMLID_3220_" cx="373.686" cy="450.732" r="42.986"/></g><path id="XMLID_3222_" d="m373.685 508.718c-31.974 0-57.986-26.013-57.986-57.986s26.013-57.986 57.986-57.986 57.986 26.013 57.986 57.986-26.012 57.986-57.986 57.986zm0-85.973c-15.432 0-27.986 12.555-27.986 27.986s12.555 27.986 27.986 27.986 27.986-12.555 27.986-27.986-12.554-27.986-27.986-27.986z" fill="#606075"/><path id="XMLID_3484_" d="m157.94 281.47 84.787 104.062-84.787 110.058c-59.13 0-107.06-47.94-107.06-107.06 0-59.13 47.93-107.06 107.06-107.06z" fill="#e0e3f9"/><path id="XMLID_3518_" d="m264.99 388.53c0 59.12-47.93 107.06-107.05 107.06v-214.12c59.12 0 107.05 47.93 107.05 107.06z" fill="#d0d0df"/><path id="XMLID_3235_" d="m157.94 296.47 10-15-10-15c-67.31 0-122.06 54.76-122.06 122.06s54.75 122.05 122.06 122.05l10-14.99-10-15.01c-50.76 0-92.06-41.29-92.06-92.05s41.3-92.06 92.06-92.06z" fill="#8a8aa9"/><path id="XMLID_3514_" d="m279.99 388.53c0 67.3-54.75 122.05-122.05 122.05v-30c50.76 0 92.05-41.29 92.05-92.05s-41.29-92.06-92.05-92.06v-30c67.3 0 122.05 54.76 122.05 122.06z" fill="#606075"/><path id="XMLID_3492_" d="m157.94 352.25 10 36.275-10 36.285c-20.04 0-36.29-16.24-36.29-36.28s16.25-36.28 36.29-36.28z" fill="#d0d0df"/><path id="XMLID_3516_" d="m194.22 388.53c0 20.04-16.25 36.28-36.28 36.28v-72.56c20.03 0 36.28 16.24 36.28 36.28z" fill="#ababc5"/><path id="XMLID_3229_" d="m157.94 367.25 10-15-10-15c-28.28 0-51.29 23-51.29 51.28s23.01 51.28 51.29 51.28l10-15.065-10-14.935c-11.74 0-21.29-9.55-21.29-21.28 0-11.74 9.55-21.28 21.29-21.28z" fill="#8a8aa9"/><path id="XMLID_3502_" d="m209.22 388.53c0 28.28-23.01 51.28-51.28 51.28v-30c11.73 0 21.28-9.55 21.28-21.28 0-11.74-9.55-21.28-21.28-21.28v-30c28.27 0 51.28 23 51.28 51.28z" fill="#606075"/></g></svg>