<svg id="line" height="512" viewBox="0 0 64 64" width="512" xmlns="http://www.w3.org/2000/svg"><path d="m21.86621 20.3252a.999.999 0 0 0 -1.251.65918 37.78522 37.78522 0 0 0 -1.58494 11.01562c.4879 30.40968 25.45073 30.41376 25.93947-.00021 0-12.84647-5.69728-22.91-12.96974-22.91-3.77148 0-7.32812 2.82422-9.75684 7.74805a.99987.99987 0 0 0 1.793.88472c8.17098-15.28656 19.16525-1.58625 18.93333 14.27744.00024 11.335-5.0232 20.91016-10.96949 20.91016-9.58187-.2957-13.29077-20.65423-9.47429-31.334a1.00015 1.00015 0 0 0 -.6595-1.25096z"/><path d="m32 47.21582a6.00864 6.00864 0 0 0 6.002-6.002c-.28173-7.94367-11.72337-7.94163-12.00391.0001a6.00863 6.00863 0 0 0 6.00191 6.0019zm0-10.00391a4.00212 4.00212 0 0 1 -.00009 8.00391 4.00212 4.00212 0 0 1 .00009-8.00391z"/><path d="m55.21777 17.80566-4.62988-.5a4.98791 4.98791 0 0 1 -3.64844-2.07421 4.64083 4.64083 0 0 1 -.70016-1.75392c-.03616-.09862-3.709-9.92773-14.208-9.46679-10.52344-.45508-14.23437 9.36817-14.27051 9.4668a4.71573 4.71573 0 0 1 -4.3379 3.82811l-4.64647.501a1.998 1.998 0 0 0 -1.77344 2.1377l1.5 20.1914a21.43277 21.43277 0 0 0 4.6416 12.02637c2.94043 3.6084 8.4336 7.83887 17.97852 7.83887 5.69232.19285 11.02-.91175 15.05271-3.62315a1.00015 1.00015 0 0 0 -1.09183-1.67566 22.48382 22.48382 0 0 1 -13.10932 3.28806c-7.47559.2129-13.28809-2.19335-17.28027-7.09277a19.43387 19.43387 0 0 1 -4.19727-10.91211l-1.5-20.1914 4.6416-.5a6.70193 6.70193 0 0 0 6.0293-5.20217c.33105-.82323 3.67187-8.418 12.37305-8.083 8.137-.58793 12.11566 7.16909 12.29283 8.08514a6.1911 6.1911 0 0 0 .9474 2.25568 6.98305 6.98305 0 0 0 5.0918 2.94434l4.62988.502-1.5 20.18945a19.22622 19.22622 0 0 1 -4.61917 11.40913.99774.99774 0 0 0 .081 1.41113c.70117.62251 1.48654-.013 1.88959-.64268a21.32983 21.32983 0 0 0 4.64264-12.02919l1.5-20.18945a1.99816 1.99816 0 0 0 -1.77926-2.13868z"/><path d="m17.15918 23.82227h-5.64258a1.0001 1.0001 0 0 0 0 2h5.64253a1.0001 1.0001 0 0 0 .00005-2z"/><path d="m16.92188 26.88184h-5.168a1 1 0 0 0 0 2h5.168a1.0001 1.0001 0 0 0 0-2z"/><path d="m16.68457 29.94043h-4.69336a1 1 0 0 0 0 2h4.69336a1.0001 1.0001 0 0 0 0-2z"/><path d="m16.44629 33h-4.2168a1.0001 1.0001 0 0 0 0 2h4.21675a1.0001 1.0001 0 0 0 .00005-2z"/><path d="m16.209 36.05859h-3.7422a1.0001 1.0001 0 0 0 0 2h3.7422a1.0001 1.0001 0 0 0 0-2z"/><path d="m52.3252 25.82227a1.0001 1.0001 0 0 0 -.00005-2h-5.64351a1.0001 1.0001 0 0 0 0 2z"/><path d="m46.91992 28.88184h5.168a1 1 0 0 0 0-2h-5.168a1.0001 1.0001 0 0 0 0 2z"/><path d="m47.15723 31.94043h4.69238a1.0001 1.0001 0 0 0 0-2h-4.69238a1.0001 1.0001 0 0 0 0 2z"/><path d="m47.39453 35h4.21777a1.0001 1.0001 0 0 0 0-2h-4.21777a1.0001 1.0001 0 0 0 0 2z"/><path d="m52.375 37.05859a.99943.99943 0 0 0 -1-1h-3.74219a1 1 0 0 0 0 2h3.74219a.99942.99942 0 0 0 1-1z"/></svg>