<svg id="flat_gradient_flaticon" height="512" viewBox="0 0 64 64" width="512" xmlns="http://www.w3.org/2000/svg" xmlns:xlink="http://www.w3.org/1999/xlink" data-name="flat gradient flaticon"><linearGradient id="linear-gradient" gradientUnits="userSpaceOnUse" x1="6.994" x2="57.008" y1="32.039" y2="32.039"><stop offset="0" stop-color="#00c0ff"/><stop offset="1" stop-color="#5558ff"/></linearGradient><path d="m55.22 17.81-4.63-.5a4.74876 4.74876 0 0 1 -4.35-3.83c-.03-.1-3.69-9.92-14.2-9.47-10.51-.44-14.25 9.37-14.28 9.47a4.49222 4.49222 0 0 1 -.69 1.75 5.05528 5.05528 0 0 1 -3.65 2.08l-4.65.5a1.997 1.997 0 0 0 -1.77 2.14l1.5 20.19a21.43209 21.43209 0 0 0 4.64 12.02c7.96469 10.684 29.9681 10.44291 37.71992-.00018a21.30363 21.30363 0 0 0 4.64008-12.02982l1.5-20.18a1.98983 1.98983 0 0 0 -1.78-2.14zm-43.7 6.01h5.64a1.0001 1.0001 0 0 1 0 2h-5.64a1.00008 1.00008 0 0 1 0-2zm5.16 8.12h-4.69a1 1 0 0 1 0-2h4.69a1.00009 1.00009 0 0 1 0 2zm.77 2.06a1.003 1.003 0 0 1 -1 1h-4.22a1 1 0 1 1 0-2h4.22a1.003 1.003 0 0 1 1 1zm-.53-5.12h-5.17a1.00011 1.00011 0 0 1 0-2h5.17a1.00011 1.00011 0 0 1 0 2zm-5.45 8.18a.99654.99654 0 0 1 1-1h3.74a1 1 0 0 1 0 2h-3.74a.99654.99654 0 0 1 -1-1zm7.56-5.06c0-12.85 5.7-22.91 12.97-22.91 17.18312.702 17.17425 45.12586-.00026 45.82-7.26974 0-12.96974-10.06-12.96974-22.91zm32.82-.06h-4.69a1.00009 1.00009 0 0 1 0-2h4.69a1.00011 1.00011 0 0 1 0 2zm.76 2.06a.99655.99655 0 0 1 -1 1h-4.22a1 1 0 1 1 0-2h4.22a.99655.99655 0 0 1 1 1zm-.52-5.12h-5.17a1.00011 1.00011 0 0 1 0-2h5.17a1.00011 1.00011 0 0 1 0 2zm-5.46 8.18a1.003 1.003 0 0 1 1-1h3.75a1 1 0 0 1 0 2h-3.75a1.003 1.003 0 0 1 -1-1zm5.7-11.24h-5.65a1.00011 1.00011 0 0 1 .00005-2h5.65a1.00011 1.00011 0 0 1 -.00005 2zm-9.36 6.18c0-11.34-5.03-20.91-10.97-20.91s-10.97 9.57-10.97 20.91 5.03 20.91 10.97 20.91 10.97-9.57 10.97-20.91zm-16.97 9.21a6.00475 6.00475 0 0 1 6-6c7.94576.27956 7.93435 11.72763-.0001 12.01a6.01331 6.01331 0 0 1 -5.9999-6.01zm2 .00009a4.00016 4.00016 0 0 1 8-.00009 4.00016 4.00016 0 0 1 -8 .00005z" fill="url(#linear-gradient)"/></svg>