<svg width="30" height="30" viewBox="0 0 30 30" fill="none" xmlns="http://www.w3.org/2000/svg">
<path d="M29.121 0H0.878902C0.393514 0 0 0.393514 0 0.878902V13.1171C0 13.6025 0.393514 13.996 0.878902 13.996H3.46516V10.2929C3.46516 8.83906 4.64799 7.65623 6.10187 7.65623H23.8981C25.3519 7.65623 26.5348 8.83906 26.5348 10.2929V13.996H29.121C29.6064 13.996 29.9999 13.6025 29.9999 13.1171V0.878902C29.9999 0.393514 29.6064 0 29.121 0V0Z" fill="#C09600"/>
<path d="M21.9729 28.6384L14.8285 21.4932C14.249 20.9136 13.9748 20.1147 14.0763 19.3013C14.1776 18.4893 14.6385 17.7836 15.3408 17.3651C16.2958 16.7962 17.3905 16.4954 18.5067 16.4954C20.1601 16.4954 21.7146 17.1393 22.8836 18.3084C23.0145 18.4392 23.8414 19.2661 24.7755 20.2003L24.7766 10.2929C24.7766 9.80748 24.3831 9.41397 23.8977 9.41397H6.10156C5.61617 9.41397 5.22266 9.80748 5.22266 10.2929V26.1116C5.22266 26.3553 5.31945 26.5891 5.49178 26.7614L8.47278 29.7424C8.81602 30.0856 9.37248 30.0856 9.71572 29.7424L12.0469 27.4112L14.3781 29.7424C14.7214 30.0856 15.2778 30.0856 15.6211 29.7424L17.9523 27.4112L20.2835 29.7424C20.6267 30.0856 21.1832 30.0856 21.5264 29.7424L21.9789 29.2899C21.9753 29.234 21.9729 29.1777 21.9729 29.1209V28.6384H21.9729Z" fill="#61BB37"/>
<path d="M26.5351 15.754L26.534 21.3116C26.534 21.8365 26.218 22.3096 25.7332 22.5105C25.2479 22.7114 24.6899 22.6003 24.319 22.2292C23.1087 21.0189 21.8088 19.7189 21.6413 19.5515C20.1769 18.0871 17.9426 17.8617 16.2413 18.8754C15.7502 19.1679 15.6681 19.8463 16.0722 20.2506L23.7315 27.9105V29.1211C23.7315 29.6065 24.125 30 24.6104 30H29.1214C29.3034 30 29.4725 29.9447 29.6128 29.8499C29.6829 29.8025 29.7458 29.7452 29.7996 29.6801C29.8533 29.615 29.8978 29.542 29.9312 29.4632C29.9756 29.358 30.0003 29.2424 30.0003 29.1211V19.2197C30.0003 17.3073 28.4494 15.754 26.5351 15.754Z" fill="#F1C27D"/>
</svg>
