<svg width="20" height="20" viewBox="0 0 20 20" fill="none" xmlns="http://www.w3.org/2000/svg">
<g clip-path="url(#clip0)">
<path d="M19.1422 15.0145C17.3522 13.2245 17.4696 13.3379 17.4192 13.3007L12.6811 9.80242L14.5191 7.96449C15.997 8.49109 17.6701 8.12703 18.7962 7.00097C20.023 5.77417 20.345 3.89859 19.5975 2.33386C19.4233 1.96929 18.9401 1.88671 18.6548 2.17214L17.1395 3.68742C16.9111 3.91578 16.5396 3.91581 16.3111 3.68742C16.0822 3.45847 16.0822 3.088 16.3111 2.85906L17.8264 1.34374C18.1121 1.05808 18.029 0.575033 17.6647 0.401049C16.1 -0.346451 14.2244 -0.0244202 12.9976 1.20234C11.8713 2.32867 11.5076 4.00191 12.0341 5.47933L9.91422 7.59898C9.48262 7.26327 10.0522 7.83667 5.98711 3.52628L6.41325 3.10015C6.68278 2.83066 6.62661 2.37941 6.30043 2.1837L3.16317 0.301322C2.34078 -0.192116 1.29286 -0.0631312 0.614691 0.615033C-0.0634338 1.29316 -0.192457 2.34117 0.30098 3.16351L2.18336 6.30081C2.37938 6.62761 2.83082 6.68261 3.09981 6.41363L3.50168 6.01175C7.54567 10.2998 7.0134 9.71738 7.33309 10.1284C7.34067 10.1382 7.34911 10.1468 7.35715 10.1559L5.47743 12.0355C4.00008 11.509 2.32672 11.8727 1.20047 12.999C-0.0263244 14.2258 -0.348356 16.1013 0.399183 17.6661C0.573441 18.0307 1.05649 18.1132 1.34192 17.8278L2.85719 16.3125C3.08567 16.0841 3.45719 16.0842 3.68559 16.3125C3.91453 16.5414 3.91453 16.9119 3.68559 17.1409L2.17024 18.6562C1.88453 18.9418 1.96766 19.4249 2.33196 19.5989C2.89438 19.8676 3.4968 19.9981 4.095 19.9981C5.16102 19.998 6.21321 19.5834 6.99907 18.7976C8.12539 17.6713 8.48903 15.998 7.96258 14.5206L9.56789 12.9154L13.3055 17.4576C13.334 17.492 13.2402 17.396 14.9118 19.0677C15.5204 19.6762 16.3295 19.9917 17.125 19.9917C17.7088 19.9917 18.2853 19.8217 18.7696 19.473C20.2473 18.4087 20.4216 16.2937 19.1422 15.0145ZM3.94016 4.76921C3.71309 4.52847 3.33243 4.52425 3.09981 4.75691L2.80188 5.0548L1.30551 2.56078C1.08918 2.20023 1.14571 1.74074 1.44305 1.44339C1.74039 1.14601 2.19989 1.08953 2.56039 1.30585L5.05442 2.80226L4.75649 3.10011C4.53246 3.32413 4.52715 3.6857 4.74453 3.91617C9.41532 8.86886 8.68059 8.12359 9.07934 8.43374L8.19039 9.32261C7.88317 8.92753 8.59653 9.70663 3.94016 4.76921ZM6.85762 13.9687C6.68207 14.1443 6.63625 14.4114 6.74329 14.6354C7.27723 15.7531 7.04707 17.0928 6.17071 17.9692C5.60922 18.5307 4.85766 18.8269 4.09602 18.8268C3.95903 18.8268 3.82176 18.8173 3.68516 18.7979L4.51391 17.9691C5.20067 17.2824 5.20078 16.1708 4.51391 15.484C3.82879 14.7989 2.71391 14.7989 2.02879 15.484L1.20004 16.3128C1.07317 15.4169 1.36637 14.4897 2.02879 13.8273C2.9052 12.9509 4.24489 12.7208 5.36254 13.2547C5.58653 13.3617 5.8536 13.3159 6.02922 13.1403L13.139 6.03109C13.3145 5.85554 13.3604 5.58843 13.2534 5.36441C12.7194 4.24679 12.9496 2.90703 13.8259 2.03066C14.4885 1.36816 15.4156 1.07499 16.3114 1.20191L15.4827 2.03066C15.1507 2.36253 14.9679 2.80386 14.9679 3.27324C14.9679 3.74261 15.1507 4.18386 15.4827 4.51581C16.1678 5.20097 17.2827 5.20093 17.9678 4.51581L18.7965 3.68706C18.9234 4.58296 18.6302 5.51011 17.9678 6.17253C17.0914 7.04894 15.7516 7.27906 14.634 6.74515C14.4101 6.63816 14.1429 6.68394 13.9673 6.85949L6.85762 13.9687ZM10.3977 12.0856L11.8434 10.6401L13.3168 11.7279L11.5564 13.4882C10.3595 12.0338 10.4342 12.1214 10.3977 12.0856ZM18.0849 18.5224C17.4017 19.0144 16.3936 18.8928 15.7401 18.2393L14.192 16.6913L12.3042 14.3971L14.2698 12.4316L16.6881 14.2171L18.3138 15.8428C19.0569 16.5859 19.0092 17.8567 18.0849 18.5224Z" fill="#777777"/>
<path d="M17.4757 16.5703L15.1327 14.2273C14.904 13.9985 14.5331 13.9985 14.3044 14.2273C14.0756 14.456 14.0756 14.8269 14.3044 15.0556L16.6474 17.3986C16.8761 17.6274 17.247 17.6274 17.4757 17.3986C17.7045 17.1699 17.7045 16.799 17.4757 16.5703Z" fill="#777777"/>
</g>
<defs>
<clipPath id="clip0">
<rect width="20" height="20" fill="white"/>
</clipPath>
</defs>
</svg>
