<svg width="30" height="30" viewBox="0 0 30 30" fill="none" xmlns="http://www.w3.org/2000/svg">
<path d="M15 0C15.857 0 16.5517 0.69472 16.5517 1.55172V18.6207H13.4482V1.55172C13.4482 0.69472 14.143 0 15 0Z" fill="#8F563B"/>
<path d="M11.8965 18.1035H18.1034V21.2069H11.8965V18.1035Z" fill="#3B869E"/>
<path d="M11.8965 19.6552H18.1034V21.2069H11.8965V19.6552Z" fill="#1F6C8C"/>
<path d="M13.4481 20.6897H16.5516C19.1225 20.6897 21.2068 22.7739 21.2068 25.3448V27.931H8.79297V25.3448C8.79297 22.7739 10.8772 20.6897 13.4481 20.6897Z" fill="#3B869E"/>
<path d="M5.68976 22.7586H4.65527C4.6576 20.567 6.03838 18.6138 8.10372 17.8805L8.4482 18.856C6.79588 19.4426 5.69137 21.0053 5.68976 22.7586Z" fill="#B3E4E8"/>
<path d="M25.3452 22.7586H24.3107C24.3088 21.0054 23.2044 19.4429 21.5522 18.856L21.8967 17.8805C23.9622 18.6136 25.343 20.5669 25.3452 22.7586Z" fill="#B3E4E8"/>
<path d="M8.79327 27.931H21.2071C21.7784 27.931 22.2415 28.3942 22.2415 28.9655C22.2415 29.5369 21.7784 30 21.2071 30H8.79327C8.22191 30 7.75879 29.5369 7.75879 28.9655C7.75879 28.3942 8.22191 27.931 8.79327 27.931Z" fill="#3B869E"/>
<path d="M12.4136 25.3448H21.2067V26.3793H12.4136V25.3448Z" fill="#69B0BB"/>
<path d="M10.3447 25.3448H11.3792V26.3793H10.3447V25.3448Z" fill="#69B0BB"/>
<path d="M4.65527 23.7931H5.68976V24.8276H4.65527V23.7931Z" fill="#B3E4E8"/>
<path d="M24.3105 23.7931H25.345V24.8276H24.3105V23.7931Z" fill="#B3E4E8"/>
<path d="M14.4829 1.55173H15.5174V2.58621H14.4829V1.55173Z" fill="#744630"/>
<path d="M13.4482 16.5517H16.5517V18.1035H13.4482V16.5517Z" fill="#744630"/>
<path d="M8.79297 26.8965H21.2068V27.931H8.79297V26.8965Z" fill="#1F6C8C"/>
</svg>
