<svg width="20" height="20" viewBox="0 0 20 20" fill="none" xmlns="http://www.w3.org/2000/svg">
<g clip-path="url(#clip0)">
<path d="M18.2418 0H1.75828C0.788766 0 0 0.788766 0 1.75828V18.2417C0 19.2112 0.788766 20 1.75828 20H18.2418C19.2113 20 20 19.2112 20 18.2417V1.75828C20 0.788766 19.2112 0 18.2418 0ZM18.8278 18.2417C18.8278 18.5649 18.5649 18.8278 18.2417 18.8278H1.75828C1.43511 18.8278 1.17219 18.5649 1.17219 18.2417V1.75828C1.17219 1.43511 1.43511 1.17219 1.75828 1.17219H18.2418C18.5649 1.17219 18.8279 1.43511 18.8279 1.75828V18.2417H18.8278Z" fill="#777777"/>
<path d="M7.4657 6.10977H7.21173C7.69045 5.72076 7.99706 5.12775 7.99706 4.46425C7.99706 3.29535 7.0461 2.34439 5.87719 2.34439C4.70829 2.34439 3.75729 3.29535 3.75729 4.46425C3.75729 5.12775 4.0639 5.72076 4.54266 6.10977H4.28868C3.38156 6.10977 2.64355 6.8531 2.64355 7.76678V11.3008C2.64355 11.9482 3.01432 12.5098 3.55298 12.7823L4.02963 17.1727C4.0619 17.4702 4.31306 17.6956 4.61228 17.6956H7.14214C7.44136 17.6956 7.69252 17.4702 7.7248 17.1727L8.20145 12.7823C8.74011 12.5097 9.11083 11.9482 9.11083 11.3008V7.76678C9.11079 6.85314 8.37282 6.10977 7.4657 6.10977V6.10977ZM5.87719 3.51658C6.39976 3.51658 6.82487 3.94169 6.82487 4.46425C6.82487 4.98682 6.39976 5.41197 5.87719 5.41197C5.35463 5.41197 4.92948 4.98682 4.92948 4.46425C4.92948 3.94169 5.35463 3.51658 5.87719 3.51658V3.51658ZM3.8157 7.76678C3.8157 7.49944 4.02787 7.28196 4.28864 7.28196H7.4657C7.72648 7.28196 7.93864 7.49944 7.93864 7.76678V11.3008C7.93864 11.5682 7.72648 11.7857 7.4657 11.7857H4.28864C4.02787 11.7857 3.8157 11.5682 3.8157 11.3008V7.76678ZM5.13817 16.5234L4.75107 12.9579H7.00332L6.61622 16.5234H5.13817Z" fill="#777777"/>
<path d="M15.4128 6.14075C15.9142 5.75357 16.2379 5.14712 16.2379 4.4662C16.2379 3.29971 15.2889 2.35071 14.1224 2.35071C12.9559 2.35071 12.0069 3.29971 12.0069 4.4662C12.0069 5.14716 12.3307 5.75357 12.832 6.14075C11.6938 6.63955 10.8965 7.77634 10.8965 9.09646V13.2324C10.8965 13.5561 11.1589 13.8185 11.4826 13.8185H11.918L12.2785 17.1382C12.3107 17.4356 12.5619 17.661 12.8611 17.661H15.3837C15.6829 17.661 15.934 17.4356 15.9663 17.1382L16.3267 13.8185H16.7622C17.0859 13.8185 17.3483 13.5561 17.3483 13.2324V9.09646C17.3483 7.77634 16.5509 6.63959 15.4128 6.14075V6.14075ZM14.1224 3.5229C14.6426 3.5229 15.0657 3.94606 15.0657 4.4662C15.0657 4.98634 14.6425 5.40946 14.1224 5.40946C13.6023 5.40946 13.1791 4.98634 13.1791 4.4662C13.1791 3.94606 13.6023 3.5229 14.1224 3.5229ZM12.0687 9.09646C12.0687 7.96405 12.99 7.04274 14.1224 7.04274C15.2548 7.04274 16.1762 7.96401 16.1762 9.09646V12.6463H12.0687V9.09646ZM14.8578 16.4888H13.387L13.0972 13.8185H15.1477L14.8578 16.4888Z" fill="#777777"/>
</g>
<defs>
<clipPath id="clip0">
<rect width="20" height="20" fill="white"/>
</clipPath>
</defs>
</svg>
