<svg width="20" height="20" viewBox="0 0 20 20" fill="none" xmlns="http://www.w3.org/2000/svg">
<g clip-path="url(#clip0)">
<path d="M17.0312 4.6875H16.3168L15.2559 0.443828C15.1907 0.183008 14.9564 0 14.6875 0H5.3125C5.04363 0 4.80926 0.183008 4.74406 0.443828L3.68316 4.6875H2.96875C2.64516 4.6875 2.38281 4.94984 2.38281 5.27344V7.61719C2.38281 7.94078 2.64516 8.20312 2.96875 8.20312H3.61L4.72941 19.472C4.75922 19.7717 5.01133 20 5.3125 20H14.6875C14.9887 20 15.2408 19.7717 15.2706 19.472L16.39 8.20312H17.0312C17.3548 8.20312 17.6172 7.94078 17.6172 7.61719V5.27344C17.6172 4.94984 17.3548 4.6875 17.0312 4.6875ZM5.77 1.17188H14.23L15.1089 4.6875H12.9297V2.92969C12.9297 2.60609 12.6673 2.34375 12.3438 2.34375H7.65625C7.33266 2.34375 7.07031 2.60609 7.07031 2.92969V4.6875H4.89109L5.77 1.17188ZM11.7578 4.6875H8.24219V3.51562H11.7578V4.6875ZM3.55469 5.85938H16.4453V7.03125H3.55469V5.85938ZM14.1569 18.8281H5.84312L4.78766 8.20312H15.2123L14.1569 18.8281Z" fill="#777777"/>
<path d="M6.95606 15.8203H8.85895C9.18255 15.8203 9.44489 15.558 9.44489 15.2344C9.44489 14.9108 9.18255 14.6485 8.85895 14.6485H7.97098L8.41497 13.8794C8.5768 13.5992 8.48079 13.2408 8.20051 13.079C7.92028 12.9172 7.56188 13.0133 7.40012 13.2935L6.44863 14.9414C6.34395 15.1227 6.34395 15.3461 6.44863 15.5274C6.55332 15.7087 6.74672 15.8203 6.95606 15.8203V15.8203Z" fill="#777777"/>
<path d="M11.5866 13.8794L12.0306 14.6484H11.1426C10.819 14.6484 10.5566 14.9108 10.5566 15.2344C10.5566 15.5579 10.819 15.8203 11.1426 15.8203H13.0455C13.2548 15.8203 13.4483 15.7086 13.5529 15.5273C13.6576 15.346 13.6576 15.1227 13.5529 14.9414L12.6015 13.2934C12.4396 13.0132 12.0812 12.9172 11.8011 13.079C11.5207 13.2408 11.4247 13.5991 11.5866 13.8794Z" fill="#777777"/>
<path d="M8.75495 12.1163C9.03515 12.2781 9.39351 12.1821 9.55535 11.9019L9.99941 11.1328L10.4434 11.9019C10.552 12.0899 10.7489 12.195 10.9514 12.1949C11.0508 12.1949 11.1516 12.1696 11.2438 12.1163C11.5241 11.9545 11.6201 11.5962 11.4583 11.3159L10.5068 9.66797C10.4021 9.48668 10.2087 9.375 9.99941 9.375C9.79008 9.375 9.59664 9.48668 9.49199 9.66797L8.54054 11.3159C8.3787 11.5962 8.47472 11.9545 8.75495 12.1163Z" fill="#777777"/>
</g>
<defs>
<clipPath id="clip0">
<rect width="20" height="20" fill="white"/>
</clipPath>
</defs>
</svg>
