<svg width="192" height="100" viewBox="0 0 192 100" fill="none" xmlns="http://www.w3.org/2000/svg">
<path d="M62.8729 37.2377L70.5249 36.1603V29.3647L62.8729 30.8565V37.2377Z" fill="white"/>
<path d="M120.58 37.5691L128.149 38.6188V32.7624L120.58 31.2983V37.5691Z" fill="white"/>
<path d="M102.541 35L110.221 36.105V29.2818L102.541 27.79V35Z" fill="white"/>
<path d="M111.271 36.243L119.503 37.4032V31.1049L111.271 29.5027V36.243Z" fill="white"/>
<path d="M55.0276 38.3426L61.8232 37.3758V31.0498L55.0276 32.3758V38.3426Z" fill="white"/>
<path d="M129.199 32.9834V38.7845L136.492 39.8066V34.3922L129.199 32.9834Z" fill="white"/>
<path d="M71.6022 35.9945L79.8619 34.8343V27.5415L71.6022 29.1713V35.9945Z" fill="white"/>
<path d="M91.9061 33.5083L101.492 34.8619V27.5967L91.9061 25.7183V33.5083Z" fill="white"/>
<path d="M80.9116 34.6962L89.2542 33.5083V25.7183L80.9116 27.3481V34.6962Z" fill="white"/>
<path d="M102.541 59.0332L110.221 58.8951V52.0995L102.541 51.8232V59.0332Z" fill="white"/>
<path d="M91.9061 59.2266L101.492 59.0608V51.768L91.9061 51.4365V59.2266Z" fill="white"/>
<path d="M111.271 58.8673L119.503 58.7292V52.4308L111.271 52.127V58.8673Z" fill="white"/>
<path d="M129.199 52.7625V58.5636L136.492 58.4254V53.0111L129.199 52.7625Z" fill="white"/>
<path d="M120.58 58.7016L128.149 58.5635V52.7071L120.58 52.4585V58.7016Z" fill="white"/>
<path d="M111.271 43.7845L119.503 44.5027V38.2044L111.271 37.0442V43.7845Z" fill="white"/>
<path d="M91.9061 42.0718L101.492 42.9281V35.6629L91.9061 34.3093V42.0718Z" fill="white"/>
<path d="M120.58 44.6133L128.149 45.2762V39.4199L120.58 38.3425V44.6133Z" fill="white"/>
<path d="M102.541 26.989L110.221 28.4807V21.6851L102.541 19.7791V26.989Z" fill="white"/>
<path d="M91.9061 24.9172L101.492 26.7957V19.5305L91.9061 17.1548V24.9172Z" fill="white"/>
<path d="M120.58 30.4972L128.149 31.9613V26.1326L120.58 24.2542V30.4972Z" fill="white"/>
<path d="M129.199 26.3811V32.1822L136.492 33.591V28.1767L129.199 26.3811Z" fill="white"/>
<path d="M71.6022 58.8951L79.8619 59.0609V51.7681L71.6022 52.0719V58.8951Z" fill="white"/>
<path d="M62.8729 58.7568L70.5249 58.8949V52.0994L62.8729 52.3756V58.7568Z" fill="white"/>
<path d="M55.0276 58.6188L61.8232 58.7293V52.4033L55.0276 52.6519V58.6188Z" fill="white"/>
<path d="M80.9116 51.7404V59.0608L89.2542 59.2266V51.4365L80.9116 51.7404Z" fill="white"/>
<path d="M55.0276 31.6021L61.8232 30.2762V23.9502L55.0276 25.6353V31.6021Z" fill="white"/>
<path d="M80.9116 19.2266V26.5471L89.2542 24.9172V17.1548L80.9116 19.2266Z" fill="white"/>
<path d="M55.0276 51.8509L61.8232 51.6023V45.304L55.0276 45.9117V51.8509Z" fill="white"/>
<path d="M120.58 51.6574L128.149 51.9336V46.0773L120.58 45.4143V51.6574Z" fill="white"/>
<path d="M62.8729 51.5745L70.5249 51.2982V44.5303L62.8729 45.1933V51.5745Z" fill="white"/>
<path d="M111.271 51.326L119.503 51.6299V45.3039L111.271 44.5857V51.326Z" fill="white"/>
<path d="M129.199 46.1602V51.9613L136.492 52.2099V46.7955L129.199 46.1602Z" fill="white"/>
<path d="M91.9061 50.6355L101.492 50.9946V43.7294L91.9061 42.873V50.6355Z" fill="white"/>
<path d="M80.9116 50.9393L89.2542 50.6355V42.873L80.9116 43.6189V50.9393Z" fill="white"/>
<path d="M71.6022 13.0939L79.8619 10.6077V3.34253L71.6022 6.24308V13.0939Z" fill="white"/>
<path d="M80.9116 2.9558V10.3039L89.2542 7.79005V0L80.9116 2.9558Z" fill="white"/>
<path d="M120.58 23.4531L128.149 25.3315V19.4752L120.58 17.21V23.4531Z" fill="white"/>
<path d="M111.271 21.1603L119.503 23.1769V16.8785L111.271 14.3923V21.1603Z" fill="white"/>
<path d="M55.0276 24.8343L61.8232 23.1492V16.8232L55.0276 18.8674V24.8343Z" fill="white"/>
<path d="M102.541 18.978L110.221 20.8841V14.0885L102.541 11.7957V18.978Z" fill="white"/>
<path d="M80.9116 18.4253L89.2542 16.3535V8.59106L80.9116 11.1049V18.4253Z" fill="white"/>
<path d="M91.9061 16.3535L101.492 18.7292V11.464L91.9061 8.56348V16.3535Z" fill="white"/>
<path d="M129.199 19.7791V25.5802L136.492 27.4034V21.989L129.199 19.7791Z" fill="white"/>
<path d="M62.8729 22.9006L70.5249 20.9946V14.199L62.8729 16.5194V22.9006Z" fill="white"/>
<path d="M71.6022 20.7183L79.8619 18.7018V11.4089L71.6022 13.8951V20.7183Z" fill="white"/>
<path d="M71.6022 43.6463L79.8619 42.9004V35.6353L71.6022 36.7955V43.6463Z" fill="white"/>
<path d="M80.9116 35.4696V42.8176L89.2542 42.0718V34.3093L80.9116 35.4696Z" fill="white"/>
<path d="M55.0276 45.1105L61.8232 44.5027V38.1768L55.0276 39.1436V45.1105Z" fill="white"/>
<path d="M102.541 10.9944L110.221 13.2872V6.49161L102.541 3.78442V10.9944Z" fill="white"/>
<path d="M91.9061 7.79005L101.492 10.663V3.39779L91.9061 0V7.79005Z" fill="white"/>
<path d="M120.58 16.4089L128.149 18.6741V12.8177L120.58 10.1382V16.4089Z" fill="white"/>
<path d="M37.2652 71.105L29.9171 93.7569H23.0663L18.7293 79.9724L14.1989 93.7569H7.34807L0 71.105H6.60221L11.1602 85.5525L15.9392 71.105H21.8232L26.3812 85.6906L31.1326 71.105H37.2652Z" fill="white"/>
<path d="M39.558 71.105H45.9669V93.7569H39.558V71.105Z" fill="white"/>
<path d="M53.1492 93.536C51.4365 93.094 50.0276 92.4863 48.9503 91.7128L51.0497 86.9891C52.0718 87.652 53.2321 88.2045 54.5856 88.6189C55.9116 89.0333 57.2376 89.2266 58.5359 89.2266C60.9945 89.2266 62.2376 88.6189 62.2376 87.3758C62.2376 86.7404 61.8785 86.2432 61.1879 85.9393C60.4972 85.6355 59.3647 85.304 57.8177 84.9449C56.105 84.5857 54.6961 84.1714 53.5359 83.757C52.4033 83.3426 51.4088 82.652 50.5801 81.7404C49.7514 80.8012 49.3647 79.5581 49.3647 77.9835C49.3647 76.6023 49.7514 75.3592 50.4972 74.2542C51.2431 73.1493 52.3757 72.2653 53.8674 71.6299C55.3591 70.9946 57.21 70.6631 59.3923 70.6631C60.884 70.6631 62.3481 70.8288 63.7845 71.1603C65.221 71.4918 66.4917 71.9891 67.5967 72.6244L65.6354 77.3758C63.4807 76.2156 61.3812 75.6355 59.3646 75.6355C58.0939 75.6355 57.1547 75.8288 56.5746 76.1879C55.9945 76.5747 55.6906 77.0443 55.6906 77.652C55.6906 78.2598 56.0221 78.7018 56.7403 79.0056C57.4309 79.3095 58.5359 79.6134 60.0829 79.9449C61.7956 80.304 63.2321 80.7183 64.3646 81.1327C65.4972 81.5471 66.4641 82.2101 67.3205 83.1493C68.1492 84.0609 68.5635 85.304 68.5635 86.8786C68.5635 88.2321 68.1768 89.4752 67.4309 90.5802C66.6851 91.6852 65.5525 92.5692 64.0332 93.2045C62.5138 93.8675 60.6906 94.199 58.5359 94.199C56.6298 94.199 54.8619 93.978 53.1492 93.536Z" fill="white"/>
<path d="M79.9448 93.3427C78.3149 92.8455 77.0166 92.1825 76.0773 91.3814L77.5414 88.1217C78.4807 88.8399 79.6133 89.4477 80.9669 89.9173C82.3204 90.3869 83.674 90.6079 85.0276 90.6079C86.7127 90.6079 87.9558 90.3317 88.7845 89.8068C89.6133 89.2543 90.0276 88.5637 90.0276 87.6797C90.0276 87.0444 89.8066 86.4919 89.337 86.0775C88.8674 85.6631 88.2873 85.3317 87.5691 85.083C86.8508 84.8344 85.884 84.5858 84.6685 84.2819C82.9558 83.8676 81.547 83.4532 80.4696 83.0388C79.3923 82.6245 78.4807 81.9891 77.7072 81.1051C76.9337 80.2212 76.547 79.0609 76.547 77.5692C76.547 76.3261 76.8785 75.1935 77.5691 74.1438C78.2597 73.0941 79.2818 72.3206 80.6354 71.7129C82.0166 71.1051 83.674 70.8013 85.663 70.8013C87.0442 70.8013 88.3978 70.967 89.7514 71.3261C91.105 71.6852 92.2376 72.1549 93.2044 72.8178L91.8785 76.0775C90.884 75.4974 89.8619 75.0554 88.7845 74.7515C87.7072 74.4477 86.6575 74.3096 85.6354 74.3096C83.9779 74.3096 82.7348 74.5858 81.9337 75.1383C81.1326 75.6908 80.7182 76.4366 80.7182 77.3759C80.7182 78.0112 80.9392 78.5637 81.4088 78.9504C81.8785 79.3648 82.4586 79.6963 83.1768 79.9173C83.895 80.1383 84.8619 80.4145 86.0773 80.7184C87.7624 81.1051 89.1436 81.5195 90.221 81.9339C91.2983 82.3482 92.2099 82.9836 92.9834 83.8676C93.7569 84.7239 94.1437 85.8841 94.1437 87.3482C94.1437 88.5913 93.8122 89.7239 93.1215 90.746C92.4309 91.7681 91.4088 92.5692 90.0276 93.177C88.6464 93.7847 86.9613 94.0886 84.9724 94.0886C83.2597 94.0886 81.5746 93.8399 79.9448 93.3427Z" fill="white"/>
<path d="M112.017 77.376C113.343 78.0942 114.392 79.1439 115.138 80.4699C115.884 81.7959 116.271 83.3428 116.271 85.0832C116.271 86.8235 115.884 88.3704 115.138 89.724C114.392 91.0776 113.343 92.0997 112.017 92.8456C110.691 93.5638 109.199 93.9506 107.514 93.9506C105.193 93.9506 103.343 93.1771 101.989 91.6301V100H97.9558V76.4644H101.796V78.7296C102.459 77.9008 103.287 77.2931 104.282 76.8787C105.276 76.4644 106.354 76.271 107.541 76.271C109.199 76.2986 110.691 76.6577 112.017 77.376ZM110.718 89.0334C111.685 88.039 112.155 86.7406 112.155 85.1108C112.155 83.4809 111.685 82.1826 110.718 81.1881C109.751 80.1937 108.536 79.6964 107.044 79.6964C106.077 79.6964 105.193 79.9174 104.42 80.3594C103.646 80.8014 103.039 81.4367 102.569 82.2655C102.127 83.0942 101.878 84.0334 101.878 85.1108C101.878 86.1881 102.099 87.1274 102.569 87.9561C103.011 88.7848 103.646 89.3925 104.42 89.8622C105.193 90.3041 106.077 90.5251 107.044 90.5251C108.536 90.5251 109.779 90.0279 110.718 89.0334Z" fill="white"/>
<path d="M132.348 78.1217C133.702 79.3371 134.365 81.188 134.365 83.6465V93.757H130.552V91.6576C130.055 92.4034 129.365 92.9836 128.425 93.3979C127.486 93.8123 126.409 94.0057 125.111 94.0057C123.812 94.0057 122.68 93.7847 121.713 93.3427C120.746 92.9007 120 92.2929 119.475 91.4918C118.95 90.6907 118.674 89.8068 118.674 88.8123C118.674 87.2653 119.254 86.0222 120.414 85.083C121.575 84.1438 123.398 83.6742 125.856 83.6742H130.332V83.4255C130.332 82.2101 129.972 81.2985 129.254 80.6355C128.536 79.9725 127.459 79.6686 126.022 79.6686C125.055 79.6686 124.088 79.8068 123.149 80.1106C122.21 80.4145 121.409 80.8289 120.773 81.3813L119.199 78.4532C120.111 77.7626 121.188 77.2377 122.459 76.8786C123.729 76.5195 125.083 76.3261 126.492 76.3261C129.033 76.2985 130.994 76.9062 132.348 78.1217ZM128.646 90.3316C129.42 89.862 130 89.199 130.304 88.3427V86.3261H126.133C123.812 86.3261 122.652 87.0996 122.652 88.6189C122.652 89.3371 122.928 89.9449 123.536 90.3592C124.144 90.7736 124.917 90.9946 125.967 90.9946C126.961 91.0499 127.873 90.8012 128.646 90.3316Z" fill="white"/>
<path d="M142.79 92.8456C141.354 92.0997 140.249 91.05 139.448 89.6964C138.646 88.3428 138.26 86.8235 138.26 85.1108C138.26 83.3981 138.674 81.8787 139.448 80.5528C140.249 79.2268 141.354 78.1771 142.762 77.4036C144.171 76.6577 145.773 76.271 147.597 76.271C149.309 76.271 150.801 76.6025 152.072 77.2931C153.343 77.9837 154.309 78.9782 154.972 80.2765L151.878 82.0721C151.381 81.271 150.773 80.6909 150.028 80.2765C149.282 79.8622 148.481 79.6688 147.597 79.6688C146.077 79.6688 144.834 80.166 143.84 81.1329C142.845 82.0997 142.348 83.4257 142.348 85.0555C142.348 86.6854 142.845 88.0113 143.812 88.9782C144.779 89.945 146.05 90.4423 147.569 90.4423C148.453 90.4423 149.254 90.2489 150 89.8345C150.746 89.4478 151.354 88.8401 151.851 88.039L154.945 89.8345C154.282 91.1329 153.287 92.1274 152.017 92.818C150.746 93.5086 149.254 93.8677 147.569 93.8677C145.829 93.9782 144.227 93.5914 142.79 92.8456Z" fill="white"/>
<path d="M174.392 86.4091H160.856C161.105 87.6798 161.713 88.7019 162.707 89.4478C163.702 90.1937 164.945 90.5528 166.436 90.5528C168.343 90.5528 169.89 89.9174 171.133 88.6743L173.287 91.1605C172.514 92.0997 171.519 92.7903 170.332 93.2599C169.144 93.7296 167.818 93.9782 166.326 93.9782C164.42 93.9782 162.762 93.5914 161.298 92.8456C159.862 92.0997 158.729 91.05 157.956 89.6964C157.182 88.3428 156.768 86.8235 156.768 85.1108C156.768 83.4257 157.155 81.9064 157.928 80.5528C158.702 79.1992 159.751 78.1495 161.105 77.4036C162.459 76.6577 164.006 76.271 165.691 76.271C167.376 76.271 168.867 76.6577 170.193 77.376C171.519 78.0942 172.541 79.1716 173.287 80.5251C174.033 81.8787 174.392 83.4257 174.392 85.1937C174.475 85.4975 174.448 85.8843 174.392 86.4091ZM162.459 80.6633C161.575 81.4367 161.022 82.4588 160.829 83.7296H170.635C170.47 82.4865 169.945 81.4644 169.061 80.6909C168.177 79.9174 167.072 79.5307 165.746 79.5307C164.448 79.5307 163.343 79.9174 162.459 80.6633Z" fill="white"/>
<path d="M179.586 93.4257C178.26 93.0665 177.182 92.5969 176.381 92.0444L177.928 88.9781C178.702 89.503 179.641 89.9174 180.718 90.2212C181.796 90.5251 182.873 90.6909 183.95 90.6909C186.381 90.6909 187.569 90.0555 187.569 88.7848C187.569 88.177 187.265 87.7627 186.657 87.5141C186.05 87.2654 185.055 87.0444 183.702 86.8234C182.265 86.6025 181.133 86.3538 180.221 86.0776C179.337 85.8013 178.564 85.3041 177.901 84.6135C177.238 83.9229 176.906 82.9284 176.906 81.6853C176.906 80.0555 177.597 78.7295 178.95 77.7627C180.331 76.7958 182.182 76.2986 184.503 76.2986C185.691 76.2986 186.878 76.4367 188.066 76.7129C189.254 76.9892 190.221 77.3483 190.967 77.7903L189.42 80.8566C187.956 80.0002 186.298 79.5583 184.475 79.5583C183.287 79.5583 182.403 79.724 181.768 80.0831C181.16 80.4422 180.856 80.9118 180.856 81.492C180.856 82.1273 181.188 82.5969 181.851 82.8732C182.514 83.1494 183.536 83.398 184.917 83.6467C186.298 83.8676 187.431 84.1163 188.315 84.3925C189.199 84.6688 189.972 85.1384 190.608 85.8013C191.243 86.4643 191.575 87.4312 191.575 88.6467C191.575 90.2765 190.884 91.5472 189.475 92.5141C188.066 93.4809 186.16 93.9781 183.757 93.9781C182.293 93.9781 180.912 93.7848 179.586 93.4257Z" fill="white"/>
</svg>
