<svg width="20" height="21" viewBox="0 0 20 21" fill="none" xmlns="http://www.w3.org/2000/svg">
<g clip-path="url(#clip0_2794_3142)">
<path d="M0 10.5C0 12.4778 0.58649 14.4112 1.6853 16.0557C2.78412 17.7002 4.3459 18.9819 6.17317 19.7388C8.00043 20.4957 10.0111 20.6937 11.9509 20.3079C13.8907 19.922 15.6725 18.9696 17.0711 17.5711C18.4696 16.1725 19.422 14.3907 19.8079 12.4509C20.1937 10.5111 19.9957 8.50043 19.2388 6.67317C18.4819 4.8459 17.2002 3.28412 15.5557 2.1853C13.9112 1.08649 11.9778 0.5 10 0.5C7.34872 0.502868 4.80684 1.55736 2.9321 3.4321C1.05736 5.30684 0.00286757 7.84872 0 10.5ZM18.3333 10.5C18.3333 12.1482 17.8446 13.7593 16.9289 15.1298C16.0132 16.5002 14.7117 17.5683 13.189 18.199C11.6663 18.8297 9.99076 18.9948 8.37425 18.6732C6.75774 18.3517 5.27288 17.558 4.10744 16.3926C2.94201 15.2271 2.14833 13.7423 1.82679 12.1258C1.50525 10.5092 1.67027 8.83369 2.301 7.31097C2.93173 5.78825 3.99984 4.48677 5.37025 3.57109C6.74066 2.65541 8.35182 2.16667 10 2.16667C12.2094 2.16909 14.3276 3.04785 15.8899 4.61012C17.4522 6.1724 18.3309 8.29061 18.3333 10.5Z" fill="#016BB8"/>
<path d="M13.3332 10.5C13.3338 11.11 13.1109 11.6991 12.7066 12.1558C12.4641 12.4283 12.2282 12.6866 12.059 12.8558L9.70572 15.25C9.63036 15.3332 9.53897 15.4003 9.43703 15.4474C9.33508 15.4944 9.22469 15.5203 9.11247 15.5236C9.00025 15.5269 8.88852 15.5075 8.78399 15.4666C8.67945 15.4256 8.58427 15.364 8.50416 15.2853C8.42405 15.2066 8.36066 15.1126 8.31779 15.0089C8.27492 14.9051 8.25345 14.7937 8.25469 14.6815C8.25592 14.5692 8.27983 14.4584 8.32497 14.3556C8.37011 14.2528 8.43556 14.1602 8.51738 14.0833L10.8749 11.6833C11.0307 11.5266 11.2424 11.2933 11.4582 11.0508C11.5925 10.8986 11.6666 10.7025 11.6666 10.4996C11.6666 10.2966 11.5925 10.1005 11.4582 9.9483C11.2432 9.70663 11.0316 9.4733 10.8807 9.32163L8.51738 6.91663C8.43556 6.83976 8.37011 6.74715 8.32497 6.64436C8.27983 6.54157 8.25592 6.43071 8.25469 6.31845C8.25345 6.20619 8.27492 6.09484 8.31779 5.99108C8.36066 5.88731 8.42405 5.79329 8.50416 5.71463C8.58427 5.63598 8.67945 5.57433 8.78399 5.53338C8.88852 5.49242 9.00025 5.47301 9.11247 5.47631C9.22469 5.47961 9.33508 5.50555 9.43703 5.55258C9.53897 5.5996 9.63036 5.66674 9.70572 5.74997L12.0632 8.14913C12.2299 8.3158 12.4632 8.57163 12.7041 8.8433C13.1097 9.29977 13.3336 9.8893 13.3332 10.5Z" fill="#016BB8"/>
</g>
<defs>
<clipPath id="clip0_2794_3142">
<rect width="20" height="20" fill="white" transform="translate(0 0.5)"/>
</clipPath>
</defs>
</svg>
