<svg width="12" height="12" viewBox="0 0 12 12" fill="none" xmlns="http://www.w3.org/2000/svg">
<g clip-path="url(#clip0_1692_4)">
<path d="M6.005 11.835C5.765 11.835 5.525 11.75 5.335 11.58L3.46 10H2C0.895 10 0 9.105 0 8V2C0 0.895 0.895 0 2 0H10C11.105 0 12 0.895 12 2V8C12 9.105 11.105 10 10 10H8.575L6.65 11.59C6.47 11.75 6.235 11.835 6.005 11.835ZM2 1C1.45 1 1 1.45 1 2V8C1 8.55 1.45 9 2 9H3.645C3.765 9 3.875 9.04 3.965 9.12L5.99 10.825L8.075 9.115C8.165 9.04 8.275 9 8.395 9H10C10.55 9 11 8.55 11 8V2C11 1.45 10.55 1 10 1H2Z" fill="#444444"/>
<path d="M4.23 7.58503C4.31 7.64503 4.41 7.67503 4.505 7.67503V7.68003C4.595 7.68003 4.685 7.65503 4.76 7.60503L6 6.77503L7.26 7.59503C7.425 7.70003 7.635 7.69503 7.79 7.57503C7.945 7.46003 8.005 7.25503 7.945 7.07003L7.495 5.70503L8.58 4.82003C8.725 4.69503 8.78 4.49003 8.715 4.31003C8.65 4.13003 8.475 4.01003 8.285 4.01003H6.91L6.425 2.70503C6.36 2.52503 6.185 2.40503 5.995 2.40503C5.805 2.40503 5.63 2.52503 5.565 2.70503L5.08 4.01003H3.705C3.515 4.01003 3.34 4.13003 3.275 4.31003C3.21 4.49003 3.265 4.69003 3.41 4.81503L4.5 5.70003L4.07 7.08003C4.01 7.26503 4.075 7.47003 4.23 7.58503Z" fill="#228BE6"/>
</g>
<defs>
<clipPath id="clip0_1692_4">
<rect width="12" height="12" fill="white"/>
</clipPath>
</defs>
</svg>
