<svg width="16" height="16" viewBox="0 0 16 16" fill="none" xmlns="http://www.w3.org/2000/svg">
<path d="M10.5267 12.4734C10.5892 12.4114 10.6388 12.3376 10.6726 12.2564C10.7065 12.1752 10.7239 12.088 10.7239 12C10.7239 11.912 10.7065 11.8249 10.6726 11.7436C10.6388 11.6624 10.5892 11.5887 10.5267 11.5267L7.47334 8.47335C7.41086 8.41138 7.36126 8.33764 7.32742 8.2564C7.29357 8.17516 7.27615 8.08803 7.27615 8.00002C7.27615 7.91201 7.29357 7.82487 7.32742 7.74364C7.36126 7.6624 7.41086 7.58866 7.47334 7.52669L10.5267 4.47335C10.5892 4.41138 10.6388 4.33764 10.6726 4.2564C10.7065 4.17516 10.7239 4.08803 10.7239 4.00002C10.7239 3.91201 10.7065 3.82487 10.6726 3.74364C10.6388 3.6624 10.5892 3.58866 10.5267 3.52669C10.4018 3.40252 10.2328 3.33282 10.0567 3.33282C9.88055 3.33282 9.71159 3.40252 9.58668 3.52669L6.52668 6.58669C6.15214 6.96169 5.94177 7.47002 5.94177 8.00002C5.94177 8.53002 6.15214 9.03835 6.52668 9.41335L9.58668 12.4734C9.71159 12.5975 9.88055 12.6672 10.0567 12.6672C10.2328 12.6672 10.4018 12.5975 10.5267 12.4734V12.4734Z" fill="#228BE6"/>
</svg>
