<svg width="12" height="12" viewBox="0 0 12 12" fill="none" xmlns="http://www.w3.org/2000/svg">
<g clip-path="url(#clip0_1689_246)">
<path d="M12 5.62348C11.9277 4.45349 11.5146 3.33023 10.8116 2.39219C10.1086 1.45415 9.1465 0.742323 8.04386 0.344474C6.94121 -0.0533747 5.74625 -0.119857 4.60628 0.153224C3.46631 0.426305 2.43117 1.02701 1.62848 1.88129C0.82578 2.73556 0.29062 3.80606 0.0889707 4.96081C-0.112679 6.11555 0.027998 7.30407 0.493658 8.37983C0.959318 9.4556 1.7296 10.3716 2.70955 11.0149C3.6895 11.6581 4.83628 12.0006 6.0085 12H9.5C10.1628 11.9993 10.7983 11.7357 11.267 11.267C11.7357 10.7983 11.9993 10.1628 12 9.49998V5.62348ZM11 9.49998C11 9.8978 10.842 10.2793 10.5607 10.5606C10.2794 10.8419 9.89782 11 9.5 11H6.0085C5.30297 10.9997 4.60542 10.8506 3.96135 10.5626C3.31728 10.2746 2.74114 9.8541 2.2705 9.32848C1.79759 8.80311 1.44246 8.18271 1.22895 7.50887C1.01543 6.83503 0.948449 6.12332 1.0325 5.42148C1.16522 4.31445 1.66259 3.28307 2.44622 2.48994C3.22985 1.69681 4.25515 1.18703 5.3605 1.04098C5.57612 1.01395 5.7932 1.00026 6.0105 0.999976C7.17574 0.996798 8.3049 1.40393 9.2 2.14998C9.72276 2.58445 10.1519 3.12055 10.4613 3.72579C10.7707 4.33103 10.954 4.9928 11 5.67098V9.49998Z" fill="#444444"/>
<path d="M4 4.5H6C6.13261 4.5 6.25979 4.44732 6.35355 4.35355C6.44732 4.25979 6.5 4.13261 6.5 4C6.5 3.86739 6.44732 3.74021 6.35355 3.64645C6.25979 3.55268 6.13261 3.5 6 3.5H4C3.86739 3.5 3.74021 3.55268 3.64645 3.64645C3.55268 3.74021 3.5 3.86739 3.5 4C3.5 4.13261 3.55268 4.25979 3.64645 4.35355C3.74021 4.44732 3.86739 4.5 4 4.5Z" fill="#228BE6"/>
<path d="M8 5.5H4C3.86739 5.5 3.74021 5.55268 3.64645 5.64645C3.55268 5.74021 3.5 5.86739 3.5 6C3.5 6.13261 3.55268 6.25979 3.64645 6.35355C3.74021 6.44732 3.86739 6.5 4 6.5H8C8.13261 6.5 8.25979 6.44732 8.35355 6.35355C8.44732 6.25979 8.5 6.13261 8.5 6C8.5 5.86739 8.44732 5.74021 8.35355 5.64645C8.25979 5.55268 8.13261 5.5 8 5.5Z" fill="#228BE6"/>
<path d="M8 7.5H4C3.86739 7.5 3.74021 7.55268 3.64645 7.64645C3.55268 7.74021 3.5 7.86739 3.5 8C3.5 8.13261 3.55268 8.25979 3.64645 8.35355C3.74021 8.44732 3.86739 8.5 4 8.5H8C8.13261 8.5 8.25979 8.44732 8.35355 8.35355C8.44732 8.25979 8.5 8.13261 8.5 8C8.5 7.86739 8.44732 7.74021 8.35355 7.64645C8.25979 7.55268 8.13261 7.5 8 7.5Z" fill="#228BE6"/>
</g>
<defs>
<clipPath id="clip0_1689_246">
<rect width="12" height="12" fill="white"/>
</clipPath>
</defs>
</svg>
