<svg width="12" height="12" viewBox="0 0 12 12" fill="none" xmlns="http://www.w3.org/2000/svg">
<g clip-path="url(#clip0_1689_263)">
<path d="M7.63285 8.59548C7.63536 8.42559 7.60898 8.25652 7.55485 8.09548L6.77835 5.54548C6.65692 5.16687 6.39047 4.85179 6.0373 4.66916C5.68412 4.48653 5.27299 4.45122 4.89385 4.57098L1.54385 5.63598C1.16949 5.7572 0.857411 6.02009 0.674365 6.36843C0.491319 6.71677 0.451833 7.1229 0.564352 7.49998L1.38135 10.1865C1.43474 10.3363 1.51189 10.4766 1.60985 10.602C-2.39429 11.9362 9.04121 8.12568 7.63285 8.59548ZM2.33085 9.87398L1.52135 7.21048C1.48411 7.0845 1.49762 6.94896 1.55901 6.83282C1.6204 6.71668 1.72478 6.62916 1.84985 6.58898L5.19985 5.52398C5.32518 5.48414 5.46115 5.49529 5.57832 5.55499C5.69549 5.6147 5.78443 5.71817 5.82585 5.84298L6.59985 8.39598L6.60535 8.41148C6.64459 8.52672 6.64044 8.65231 6.59368 8.76471C6.54691 8.8771 6.46075 8.96858 6.35135 9.02198L2.90735 10.172C2.79152 10.199 2.66985 10.1838 2.56419 10.1292C2.45853 10.0746 2.3758 9.9841 2.33085 9.87398Z" fill="#228BE6"/>
<path d="M5.02486 6.99997C5.04476 7.06255 5.05213 7.12843 5.04657 7.19385C5.041 7.25928 5.0226 7.32297 4.99242 7.38128C4.96225 7.4396 4.92088 7.4914 4.87068 7.53373C4.82048 7.57605 4.76243 7.60808 4.69986 7.62797L3.46786 8.02047C3.34142 8.06065 3.20419 8.04896 3.08637 7.98796C2.96855 7.92697 2.87979 7.82167 2.83961 7.69522C2.79943 7.56878 2.81112 7.43156 2.87212 7.31374C2.93312 7.19592 3.03842 7.10715 3.16486 7.06697L4.39736 6.67497C4.52367 6.63495 4.6607 6.64669 4.77836 6.70763C4.89602 6.76857 4.98468 6.87371 5.02486 6.99997Z" fill="#228BE6"/>
<path d="M9.99986 8V2.5C9.99986 2.10218 10.1579 1.72064 10.4392 1.43934C10.7205 1.15804 11.102 1 11.4999 1C11.6325 1 11.7596 0.947322 11.8534 0.853553C11.9472 0.759785 11.9999 0.632608 11.9999 0.5C11.9999 0.367392 11.9472 0.240215 11.8534 0.146447C11.7596 0.0526784 11.6325 0 11.4999 0C10.8371 0.000793929 10.2016 0.264441 9.73297 0.73311C9.2643 1.20178 9.00065 1.8372 8.99986 2.5V8.1395C8.58234 8.27877 8.11122 8.43574 0.341857 11.0245C0.215879 11.0664 0.111707 11.1566 0.0522581 11.2753C-0.00719094 11.3941 -0.0170475 11.5315 0.0248567 11.6575C0.0667609 11.7835 0.156993 11.8876 0.275704 11.9471C0.394414 12.0065 0.531879 12.0164 0.657857 11.9745L8.04986 9.5115C7.97732 9.80619 7.97251 10.1135 8.03579 10.4103C8.09906 10.7071 8.22878 10.9857 8.4152 11.2252C8.60161 11.4647 8.83987 11.6589 9.11208 11.793C9.38429 11.9272 9.68338 11.998 9.98686 12C12.6159 11.932 12.6274 8.0845 9.99986 8ZM9.98686 11C9.72164 11 9.46729 10.8946 9.27975 10.7071C9.09221 10.5196 8.98686 10.2652 8.98686 10C8.98686 9.73478 9.09221 9.48043 9.27975 9.29289C9.46729 9.10536 9.72164 9 9.98686 9C10.2521 9 10.5064 9.10536 10.694 9.29289C10.8815 9.48043 10.9869 9.73478 10.9869 10C10.9869 10.2652 10.8815 10.5196 10.694 10.7071C10.5064 10.8946 10.2521 11 9.98686 11Z" fill="#444444"/>
</g>
<defs>
<clipPath id="clip0_1689_263">
<rect width="12" height="12" fill="white"/>
</clipPath>
</defs>
</svg>
