<svg width="12" height="12" viewBox="0 0 12 12" fill="none" xmlns="http://www.w3.org/2000/svg">
<g clip-path="url(#clip0_1689_237)">
<path d="M6 3C5.60444 3 5.21776 3.1173 4.88886 3.33706C4.55996 3.55682 4.30362 3.86918 4.15224 4.23463C4.00087 4.60009 3.96126 5.00222 4.03843 5.39018C4.1156 5.77814 4.30608 6.13451 4.58579 6.41421C4.86549 6.69392 5.22186 6.8844 5.60982 6.96157C5.99778 7.03874 6.39991 6.99913 6.76537 6.84776C7.13082 6.69638 7.44318 6.44004 7.66294 6.11114C7.8827 5.78224 8 5.39556 8 5C8 4.46957 7.78929 3.96086 7.41421 3.58579C7.03914 3.21071 6.53043 3 6 3ZM6 6C5.80222 6 5.60888 5.94135 5.44443 5.83147C5.27998 5.72159 5.15181 5.56541 5.07612 5.38268C5.00043 5.19996 4.98063 4.99889 5.01921 4.80491C5.0578 4.61093 5.15304 4.43275 5.29289 4.29289C5.43275 4.15304 5.61093 4.0578 5.80491 4.01921C5.99889 3.98063 6.19996 4.00043 6.38268 4.07612C6.56541 4.15181 6.72159 4.27998 6.83147 4.44443C6.94135 4.60888 7 4.80222 7 5C7 5.26522 6.89464 5.51957 6.70711 5.70711C6.51957 5.89464 6.26522 6 6 6Z" fill="#228BE6"/>
<path d="M6 12C5.57897 12.0022 5.16355 11.9034 4.78853 11.712C4.41351 11.5207 4.0898 11.2422 3.8445 10.9C1.939 8.27152 0.9725 6.29552 0.9725 5.02652C0.9725 3.69315 1.50218 2.41438 2.44502 1.47154C3.38786 0.528705 4.66662 -0.000976562 6 -0.000976562C7.33338 -0.000976562 8.61214 0.528705 9.55498 1.47154C10.4978 2.41438 11.0275 3.69315 11.0275 5.02652C11.0275 6.29552 10.061 8.27152 8.1555 10.9C7.9102 11.2422 7.58649 11.5207 7.21147 11.712C6.83644 11.9034 6.42103 12.0022 6 12V12ZM6 1.09052C4.95621 1.09171 3.95551 1.50689 3.21744 2.24496C2.47936 2.98303 2.06419 3.98373 2.063 5.02752C2.063 6.03252 3.0095 7.89102 4.7275 10.2605C4.87335 10.4614 5.06468 10.6249 5.28586 10.7377C5.50703 10.8504 5.75175 10.9092 6 10.9092C6.24825 10.9092 6.49297 10.8504 6.71414 10.7377C6.93532 10.6249 7.12665 10.4614 7.2725 10.2605C8.9905 7.89102 9.937 6.03252 9.937 5.02752C9.93581 3.98373 9.52064 2.98303 8.78256 2.24496C8.04449 1.50689 7.04379 1.09171 6 1.09052V1.09052Z" fill="#444444"/>
</g>
<defs>
<clipPath id="clip0_1689_237">
<rect width="12" height="12" fill="white"/>
</clipPath>
</defs>
</svg>
