<svg width="12" height="12" viewBox="0 0 12 12" fill="none" xmlns="http://www.w3.org/2000/svg">
<g clip-path="url(#clip0_1689_231)">
<path d="M4.5 12H0.5C0.367392 12 0.240215 11.9473 0.146447 11.8536C0.0526784 11.7598 0 11.6326 0 11.5C0 11.3674 0.0526784 11.2402 0.146447 11.1464C0.240215 11.0527 0.367392 11 0.5 11H4.5C4.63261 11 4.75979 11.0527 4.85355 11.1464C4.94732 11.2402 5 11.3674 5 11.5C5 11.6326 4.94732 11.7598 4.85355 11.8536C4.75979 11.9473 4.63261 12 4.5 12Z" fill="#228BE6"/>
<path d="M3.5 10H0.5C0.367392 10 0.240215 9.94732 0.146447 9.85355C0.0526784 9.75979 0 9.63261 0 9.5C0 9.36739 0.0526784 9.24021 0.146447 9.14645C0.240215 9.05268 0.367392 9 0.5 9H3.5C3.63261 9 3.75979 9.05268 3.85355 9.14645C3.94732 9.24021 4 9.36739 4 9.5C4 9.63261 3.94732 9.75979 3.85355 9.85355C3.75979 9.94732 3.63261 10 3.5 10Z" fill="#228BE6"/>
<path d="M2.5 8H0.5C0.367392 8 0.240215 7.94732 0.146447 7.85355C0.0526784 7.75979 0 7.63261 0 7.5C0 7.36739 0.0526784 7.24021 0.146447 7.14645C0.240215 7.05268 0.367392 7 0.5 7H2.5C2.63261 7 2.75979 7.05268 2.85355 7.14645C2.94732 7.24021 3 7.36739 3 7.5C3 7.63261 2.94732 7.75979 2.85355 7.85355C2.75979 7.94732 2.63261 8 2.5 8Z" fill="#228BE6"/>
<path d="M6.50001 11.9775C6.3674 11.9834 6.23788 11.9364 6.13994 11.8468C6.042 11.7572 5.98366 11.6324 5.97776 11.4997C5.97186 11.3671 6.01887 11.2376 6.10847 11.1397C6.19807 11.0417 6.3229 10.9834 6.45551 10.9775C7.40174 10.8909 8.30371 10.5365 9.05577 9.95579C9.80784 9.37506 10.3789 8.59207 10.702 7.69851C11.0251 6.80495 11.0869 5.83782 10.8801 4.9104C10.6734 3.98298 10.2067 3.13367 9.53464 2.46195C8.8626 1.79022 8.01308 1.32389 7.08557 1.11758C6.15805 0.911268 5.19095 0.973513 4.29754 1.29703C3.40413 1.62054 2.6214 2.19193 2.04102 2.94426C1.46064 3.69659 1.10665 4.59873 1.02051 5.545C1.00857 5.67707 0.944658 5.799 0.842826 5.88395C0.740994 5.96891 0.609584 6.00993 0.477507 5.998C0.345429 5.98606 0.223502 5.92215 0.138548 5.82032C0.0535936 5.71848 0.0125718 5.58707 0.0245066 5.455C0.163951 3.91665 0.891309 2.49135 2.05517 1.47578C3.21903 0.460212 4.72973 -0.0673715 6.27278 0.00285235C7.81584 0.0730762 9.27237 0.735696 10.3392 1.85278C11.406 2.96986 12.0009 4.45534 12 6C12.0077 7.49917 11.4507 8.94629 10.44 10.0535C9.42919 11.1607 8.03867 11.8469 6.54501 11.9755C6.53001 11.977 6.51451 11.9775 6.50001 11.9775V11.9775Z" fill="#444444"/>
<path d="M6 3C5.86739 3 5.74021 3.05268 5.64645 3.14645C5.55268 3.24021 5.5 3.36739 5.5 3.5V6C5.50003 6.1326 5.55273 6.25975 5.6465 6.3535L7.1465 7.8535C7.2408 7.94458 7.3671 7.99498 7.4982 7.99384C7.6293 7.9927 7.75471 7.94011 7.84741 7.84741C7.94011 7.75471 7.9927 7.6293 7.99384 7.4982C7.99498 7.3671 7.94458 7.2408 7.8535 7.1465L6.5 5.793V3.5C6.5 3.36739 6.44732 3.24021 6.35355 3.14645C6.25979 3.05268 6.13261 3 6 3V3Z" fill="#444444"/>
</g>
<defs>
<clipPath id="clip0_1689_231">
<rect width="12" height="12" fill="white"/>
</clipPath>
</defs>
</svg>
