<svg width="12" height="12" viewBox="0 0 12 12" fill="none" xmlns="http://www.w3.org/2000/svg">
<g clip-path="url(#clip0_1689_283)">
<path d="M12 3.5V4.5C12 4.776 11.7765 5 11.5 5C11.2235 5 11 4.776 11 4.5V3.5C11 2.673 10.327 2 9.5 2H2.5C1.673 2 1 2.673 1 3.5V4H5.5C5.776 4 6 4.224 6 4.5C6 4.776 5.776 5 5.5 5H1V9.5C1 10.327 1.673 11 2.5 11H4.5C4.776 11 5 11.224 5 11.5C5 11.776 4.776 12 4.5 12H2.5C1.1215 12 0 10.8785 0 9.5V3.5C0 2.1215 1.1215 1 2.5 1H3V0.5C3 0.224 3.224 0 3.5 0C3.776 0 4 0.224 4 0.5V1H8V0.5C8 0.224 8.2235 0 8.5 0C8.7765 0 9 0.224 9 0.5V1H9.5C10.8785 1 12 2.1215 12 3.5Z" fill="#444444"/>
<path d="M9.3535 9.3535C9.549 9.158 9.549 8.842 9.3535 8.6465L9 8.293V7.5C9 7.224 8.7765 7 8.5 7C8.2235 7 8 7.224 8 7.5V8.5C8 8.6325 8.0525 8.7595 8.1465 8.8535L8.6465 9.3535C8.744 9.451 8.872 9.5 9 9.5C9.128 9.5 9.256 9.451 9.3535 9.3535Z" fill="#228BE6"/>
<path fill-rule="evenodd" clip-rule="evenodd" d="M8.5 5.01947C6.5705 5.01947 5 6.58947 5 8.51947C5 10.4385 6.5705 12 8.5 12C10.4295 12 12 10.43 12 8.49997C12 6.58097 10.4295 5.01947 8.5 5.01947ZM8.5 11C7.1215 11 6 9.88697 6 8.51947C6 7.14097 7.1215 6.01947 8.5 6.01947C9.8785 6.01947 11 7.13247 11 8.49997C11 9.87847 9.8785 11 8.5 11Z" fill="#228BE6"/>
</g>
<defs>
<clipPath id="clip0_1689_283">
<rect width="12" height="12" fill="white"/>
</clipPath>
</defs>
</svg>
