<svg width="12" height="12" viewBox="0 0 12 12" fill="none" xmlns="http://www.w3.org/2000/svg">
<g clip-path="url(#clip0_1689_251)">
<path d="M9 9.50001C9.09887 9.49999 9.19552 9.47065 9.27773 9.41571C9.35993 9.36077 9.424 9.28268 9.46184 9.19133C9.49967 9.09998 9.50957 8.99947 9.49029 8.90249C9.47101 8.80551 9.4234 8.71643 9.3535 8.64651L6.2675 5.56101C5.79868 5.09233 5.16291 4.82904 4.5 4.82904C3.83709 4.82904 3.20132 5.09233 2.7325 5.56101L1.6465 6.64651C1.55542 6.74081 1.50502 6.86711 1.50616 6.99821C1.5073 7.12931 1.55988 7.25471 1.65259 7.34742C1.74529 7.44012 1.8707 7.4927 2.0018 7.49384C2.1329 7.49498 2.2592 7.44459 2.3535 7.35351L3.4395 6.26801C3.72511 5.99507 4.10495 5.84277 4.5 5.84277C4.89505 5.84277 5.27489 5.99507 5.5605 6.26801L8.6465 9.35351C8.74024 9.44728 8.8674 9.49998 9 9.50001Z" fill="#228BE6"/>
<path d="M8 5.25C8.34612 5.25 8.68446 5.14737 8.97225 4.95507C9.26003 4.76278 9.48434 4.48947 9.61679 4.1697C9.74924 3.84993 9.7839 3.49806 9.71637 3.15859C9.64885 2.81913 9.48218 2.50731 9.23744 2.26256C8.9927 2.01782 8.68087 1.85115 8.34141 1.78363C8.00194 1.7161 7.65008 1.75076 7.3303 1.88321C7.01053 2.01566 6.73722 2.23997 6.54493 2.52775C6.35264 2.81554 6.25 3.15388 6.25 3.5C6.25 3.96413 6.43437 4.40925 6.76256 4.73744C7.09075 5.06563 7.53587 5.25 8 5.25V5.25ZM8 2.75C8.14834 2.75 8.29334 2.79399 8.41668 2.8764C8.54001 2.95881 8.63614 3.07594 8.69291 3.21299C8.74968 3.35003 8.76453 3.50083 8.73559 3.64632C8.70665 3.7918 8.63522 3.92544 8.53033 4.03033C8.42544 4.13522 8.2918 4.20665 8.14632 4.23559C8.00083 4.26453 7.85003 4.24968 7.71299 4.19291C7.57594 4.13614 7.45881 4.04002 7.3764 3.91668C7.29399 3.79334 7.25 3.64834 7.25 3.5C7.25 3.30109 7.32902 3.11032 7.46967 2.96967C7.61032 2.82902 7.80109 2.75 8 2.75V2.75Z" fill="#228BE6"/>
<path d="M11.5 8C11.3674 8 11.2402 8.05268 11.1464 8.14645C11.0527 8.24021 11 8.36739 11 8.5V9.5C11 9.89782 10.842 10.2794 10.5607 10.5607C10.2794 10.842 9.89782 11 9.5 11H8.5C8.36739 11 8.24021 11.0527 8.14645 11.1464C8.05268 11.2402 8 11.3674 8 11.5C8 11.6326 8.05268 11.7598 8.14645 11.8536C8.24021 11.9473 8.36739 12 8.5 12H9.5C10.1628 11.9992 10.7982 11.7356 11.2669 11.2669C11.7356 10.7982 11.9992 10.1628 12 9.5V8.5C12 8.36739 11.9473 8.24021 11.8536 8.14645C11.7598 8.05268 11.6326 8 11.5 8Z" fill="#444444"/>
<path d="M0.5 4C0.632608 4 0.759785 3.94732 0.853553 3.85355C0.947322 3.75979 1 3.63261 1 3.5V2.5C1 2.10218 1.15804 1.72064 1.43934 1.43934C1.72064 1.15804 2.10218 1 2.5 1H3.5C3.63261 1 3.75979 0.947322 3.85355 0.853553C3.94732 0.759785 4 0.632608 4 0.5C4 0.367392 3.94732 0.240215 3.85355 0.146447C3.75979 0.0526784 3.63261 0 3.5 0L2.5 0C1.8372 0.000793929 1.20178 0.264441 0.73311 0.73311C0.264441 1.20178 0.000793929 1.8372 0 2.5L0 3.5C0 3.63261 0.0526784 3.75979 0.146447 3.85355C0.240215 3.94732 0.367392 4 0.5 4Z" fill="#444444"/>
<path d="M3.5 11H2.5C2.10218 11 1.72064 10.842 1.43934 10.5607C1.15804 10.2794 1 9.89782 1 9.5V8.5C1 8.36739 0.947322 8.24021 0.853553 8.14645C0.759785 8.05268 0.632608 8 0.5 8C0.367392 8 0.240215 8.05268 0.146447 8.14645C0.0526784 8.24021 0 8.36739 0 8.5L0 9.5C0.000793929 10.1628 0.264441 10.7982 0.73311 11.2669C1.20178 11.7356 1.8372 11.9992 2.5 12H3.5C3.63261 12 3.75979 11.9473 3.85355 11.8536C3.94732 11.7598 4 11.6326 4 11.5C4 11.3674 3.94732 11.2402 3.85355 11.1464C3.75979 11.0527 3.63261 11 3.5 11Z" fill="#444444"/>
<path d="M9.5 0H8.5C8.36739 0 8.24021 0.0526784 8.14645 0.146447C8.05268 0.240215 8 0.367392 8 0.5C8 0.632608 8.05268 0.759785 8.14645 0.853553C8.24021 0.947322 8.36739 1 8.5 1H9.5C9.89782 1 10.2794 1.15804 10.5607 1.43934C10.842 1.72064 11 2.10218 11 2.5V3.5C11 3.63261 11.0527 3.75979 11.1464 3.85355C11.2402 3.94732 11.3674 4 11.5 4C11.6326 4 11.7598 3.94732 11.8536 3.85355C11.9473 3.75979 12 3.63261 12 3.5V2.5C11.9992 1.8372 11.7356 1.20178 11.2669 0.73311C10.7982 0.264441 10.1628 0.000793929 9.5 0V0Z" fill="#444444"/>
</g>
<defs>
<clipPath id="clip0_1689_251">
<rect width="12" height="12" fill="white"/>
</clipPath>
</defs>
</svg>
