<svg width="150" height="150" viewBox="0 0 150 150" fill="none" xmlns="http://www.w3.org/2000/svg">
<g clip-path="url(#clip0_1673_317)">
<path d="M46.875 0H21.875C9.8125 0 0 9.8125 0 21.875V46.875C0 58.9375 9.8125 68.75 21.875 68.75H46.875C58.9375 68.75 68.75 58.9375 68.75 46.875V21.875C68.75 9.8125 58.9375 0 46.875 0ZM62.5 46.875C62.5 55.4875 55.4875 62.5 46.875 62.5H21.875C13.2625 62.5 6.25 55.4875 6.25 46.875V21.875C6.25 13.2625 13.2625 6.25 21.875 6.25H46.875C55.4875 6.25 62.5 13.2625 62.5 21.875V46.875ZM40.625 18.75H28.125C22.9562 18.75 18.75 22.9562 18.75 28.125V40.625C18.75 45.7938 22.9562 50 28.125 50H40.625C45.7938 50 50 45.7938 50 40.625V28.125C50 22.9562 45.7938 18.75 40.625 18.75ZM43.75 40.625C43.75 42.35 42.35 43.75 40.625 43.75H28.125C26.4 43.75 25 42.35 25 40.625V28.125C25 26.4 26.4 25 28.125 25H40.625C42.35 25 43.75 26.4 43.75 28.125V40.625ZM128.125 0H103.125C91.0625 0 81.25 9.8125 81.25 21.875V46.875C81.25 58.9375 91.0625 68.75 103.125 68.75H128.125C140.188 68.75 150 58.9375 150 46.875V21.875C150 9.8125 140.188 0 128.125 0ZM143.75 46.875C143.75 55.4875 136.744 62.5 128.125 62.5H103.125C94.5062 62.5 87.5 55.4875 87.5 46.875V21.875C87.5 13.2625 94.5062 6.25 103.125 6.25H128.125C136.744 6.25 143.75 13.2625 143.75 21.875V46.875ZM121.875 18.75H109.375C104.206 18.75 100 22.9562 100 28.125V40.625C100 45.7938 104.206 50 109.375 50H121.875C127.044 50 131.25 45.7938 131.25 40.625V28.125C131.25 22.9562 127.044 18.75 121.875 18.75ZM125 40.625C125 42.35 123.594 43.75 121.875 43.75H109.375C107.656 43.75 106.25 42.35 106.25 40.625V28.125C106.25 26.4 107.656 25 109.375 25H121.875C123.594 25 125 26.4 125 28.125V40.625ZM46.875 81.25H21.875C9.8125 81.25 0 91.0625 0 103.125V128.125C0 140.188 9.8125 150 21.875 150H46.875C58.9375 150 68.75 140.188 68.75 128.125V103.125C68.75 91.0625 58.9375 81.25 46.875 81.25ZM62.5 128.125C62.5 136.738 55.4875 143.75 46.875 143.75H21.875C13.2625 143.75 6.25 136.738 6.25 128.125V103.125C6.25 94.5125 13.2625 87.5 21.875 87.5H46.875C55.4875 87.5 62.5 94.5125 62.5 103.125V128.125ZM40.625 100H28.125C22.9562 100 18.75 104.206 18.75 109.375V121.875C18.75 127.044 22.9562 131.25 28.125 131.25H40.625C45.7938 131.25 50 127.044 50 121.875V109.375C50 104.206 45.7938 100 40.625 100ZM43.75 121.875C43.75 123.6 42.35 125 40.625 125H28.125C26.4 125 25 123.6 25 121.875V109.375C25 107.65 26.4 106.25 28.125 106.25H40.625C42.35 106.25 43.75 107.65 43.75 109.375V121.875Z" fill="#444444"/>
<path d="M140.625 81.25H134.375C129.206 81.25 125 85.4562 125 90.625V100H106.25V90.625C106.25 85.4562 102.044 81.25 96.875 81.25H90.625C85.4562 81.25 81.25 85.4562 81.25 90.625V96.875C81.25 102.044 85.4562 106.25 90.625 106.25H100V125H90.625C85.4562 125 81.25 129.206 81.25 134.375V140.625C81.25 145.794 85.4562 150 90.625 150H96.875C102.044 150 106.25 145.794 106.25 140.625V131.25H121.875C127.044 131.25 131.25 127.044 131.25 121.875V106.25H140.625C145.794 106.25 150 102.044 150 96.875V90.625C150 85.4562 145.794 81.25 140.625 81.25ZM87.5 96.875V90.625C87.5 88.9 88.9062 87.5 90.625 87.5H96.875C98.5938 87.5 100 88.9 100 90.625V100H90.625C88.9062 100 87.5 98.6 87.5 96.875ZM100 140.625C100 142.35 98.5938 143.75 96.875 143.75H90.625C88.9062 143.75 87.5 142.35 87.5 140.625V134.375C87.5 132.65 88.9062 131.25 90.625 131.25H100V140.625ZM125 121.875C125 123.6 123.594 125 121.875 125H106.25V106.25H125V121.875ZM143.75 96.875C143.75 98.6 142.344 100 140.625 100H131.25V90.625C131.25 88.9 132.656 87.5 134.375 87.5H140.625C142.344 87.5 143.75 88.9 143.75 90.625V96.875Z" fill="#228BE6"/>
</g>
<defs>
<clipPath id="clip0_1673_317">
<rect width="150" height="150" fill="white"/>
</clipPath>
</defs>
</svg>
