<svg width="15" height="15" viewBox="0 0 15 15" fill="none" xmlns="http://www.w3.org/2000/svg">
<g clip-path="url(#clip0_2794_2013)">
<path d="M5.05067 3.44081L6.87938 1.61145L6.87502 11.26C6.87502 11.6052 7.15483 11.885 7.5 11.885C7.84517 11.885 8.12498 11.6052 8.12498 11.26L8.12934 1.62208L9.94933 3.44268C10.1976 3.68247 10.5933 3.67562 10.8331 3.42733C11.067 3.18514 11.067 2.80115 10.8331 2.55895L8.82622 0.549601C8.09422 -0.182868 6.90707 -0.183249 6.1746 0.548751C6.17431 0.549044 6.17404 0.549308 6.17375 0.549601L4.16691 2.55708C3.92712 2.80537 3.93398 3.20101 4.18227 3.44081C4.42446 3.67474 4.80845 3.67474 5.05067 3.44081Z" fill="#228BE6"/>
<path d="M14.3749 10C14.0297 10 13.7499 10.2798 13.7499 10.625V13.1249C13.7499 13.4701 13.4701 13.7499 13.1249 13.7499H1.87512C1.52995 13.7499 1.25014 13.4701 1.25014 13.1249V10.625C1.25014 10.2798 0.970326 10 0.625156 10C0.279986 10 0.000175476 10.2798 0.000175476 10.625V13.1249C0.000175476 14.1604 0.839635 14.9999 1.87515 14.9999H13.125C14.1605 14.9999 14.9999 14.1604 14.9999 13.1249V10.625C14.9999 10.2798 14.7201 10 14.3749 10Z" fill="#228BE6"/>
</g>
<defs>
<clipPath id="clip0_2794_2013">
<rect width="15" height="15" fill="white"/>
</clipPath>
</defs>
</svg>
