<svg width="20" height="20" viewBox="0 0 20 20" fill="none" xmlns="http://www.w3.org/2000/svg">
<g clip-path="url(#clip0_2990_255)">
<path d="M19.8284 10.8917L19.0439 10.1072C18.934 9.99731 18.785 9.93555 18.6296 9.93555H17.3489V9.34473C17.3489 9.02114 17.0866 8.75879 16.763 8.75879H15.1193L13.29 6.9295C13.1802 6.81961 13.0311 6.75786 12.8757 6.75786H12.0916V5.57621H13.7387C14.0623 5.57621 14.3246 5.31387 14.3246 4.99028V3.79055C14.3246 2.8186 13.5339 2.02785 12.5619 2.02785H7.74988C6.77793 2.02785 5.98719 2.8186 5.98719 3.79055V4.99032C5.98719 5.31391 6.24953 5.57625 6.57312 5.57625H8.22023V6.75789H7.43609C7.28066 6.75789 7.13164 6.81961 7.0218 6.92953L5.28035 8.67102H0.585938C0.262344 8.67102 0 8.93336 0 9.25696V11.3648C0 11.5017 0.0478906 11.6342 0.135391 11.7395L0.496289 12.1736V15.503C0.496289 15.8266 0.758633 16.0889 1.08223 16.0889L5.35824 16.1203L7.2393 17.8209C7.34703 17.9182 7.48707 17.9722 7.63227 17.9722H16.763C17.0866 17.9722 17.3489 17.7098 17.3489 17.3862V16.7954H18.6296C18.785 16.7954 18.934 16.7337 19.0439 16.6238L19.8284 15.8393C19.9382 15.7294 20 15.5804 20 15.425V11.3061C20 11.1506 19.9383 11.0016 19.8284 10.8917ZM7.15906 3.79055C7.15906 3.46477 7.4241 3.19973 7.74988 3.19973H12.5619C12.8877 3.19973 13.1527 3.46477 13.1527 3.79055V4.40438H7.15906V3.79055ZM9.39211 5.57625H10.9196V6.75789H9.39211V5.57625ZM1.53277 11.5872L1.17188 11.1531V9.84289H2.87285V14.917H1.66816V11.9618C1.66816 11.825 1.62027 11.6924 1.53277 11.5872ZM16.177 16.8003H7.85785L5.98086 15.1034C5.87563 15.0082 5.73941 14.9545 5.59758 14.9522L4.04473 14.9266V9.84289H5.52305C5.67848 9.84289 5.8275 9.78118 5.93734 9.67125L7.67879 7.92977H12.633L14.4623 9.75907C14.5721 9.86895 14.7212 9.93071 14.8766 9.93071H16.177L16.177 16.8003ZM18.8281 15.1823L18.3869 15.6235H17.3489V11.1075H18.3868L18.8281 11.5487V15.1823Z" fill="#263238"/>
<path d="M12.6549 11.6989C12.6422 11.6765 12.6237 11.6578 12.6015 11.6448C12.5792 11.6318 12.5538 11.625 12.528 11.625H10.6176L10.9379 9.17781C10.9413 9.14506 10.9337 9.1121 10.9161 9.08425C10.8985 9.0564 10.8721 9.03527 10.841 9.02426C10.81 9.01326 10.7762 9.01302 10.745 9.02358C10.7138 9.03415 10.6871 9.0549 10.6691 9.08251L8.34582 13.1528C8.33223 13.1749 8.32479 13.2002 8.32425 13.2261C8.32371 13.2521 8.3301 13.2777 8.34276 13.3003C8.35541 13.323 8.37388 13.3418 8.39625 13.355C8.41863 13.3681 8.44409 13.375 8.47003 13.375H10.3519L10.0981 15.8259C10.0956 15.8585 10.1041 15.8911 10.1222 15.9183C10.1403 15.9456 10.1671 15.966 10.1981 15.9763C10.2292 15.9866 10.2628 15.9862 10.2936 15.9752C10.3245 15.9642 10.3507 15.9432 10.3683 15.9156L12.6532 11.8458C12.6664 11.8236 12.6735 11.7984 12.6739 11.7726C12.6742 11.7468 12.6676 11.7214 12.6549 11.6989Z" fill="#016BB8"/>
</g>
<defs>
<clipPath id="clip0_2990_255">
<rect width="20" height="20" fill="white"/>
</clipPath>
</defs>
</svg>
