<svg width="16" height="16" viewBox="0 0 16 16" fill="none" xmlns="http://www.w3.org/2000/svg">
<g clip-path="url(#clip0_1689_276)">
<path d="M15.3333 10.6667C15.1565 10.6667 14.987 10.7369 14.8619 10.8619C14.7369 10.987 14.6667 11.1565 14.6667 11.3334V12.6667C14.6667 13.1971 14.456 13.7058 14.0809 14.0809C13.7058 14.456 13.1971 14.6667 12.6667 14.6667H11.3333C11.1565 14.6667 10.987 14.7369 10.8619 14.8619C10.7369 14.987 10.6667 15.1565 10.6667 15.3334C10.6667 15.5102 10.7369 15.6797 10.8619 15.8048C10.987 15.9298 11.1565 16 11.3333 16H12.6667C13.5504 15.999 14.3976 15.6474 15.0225 15.0225C15.6474 14.3976 15.9989 13.5504 16 12.6667V11.3334C16 11.1565 15.9298 10.987 15.8047 10.8619C15.6797 10.7369 15.5101 10.6667 15.3333 10.6667Z" fill="#444444"/>
<path d="M0.666667 5.33333C0.843478 5.33333 1.01305 5.2631 1.13807 5.13807C1.2631 5.01305 1.33333 4.84348 1.33333 4.66667V3.33333C1.33333 2.8029 1.54405 2.29419 1.91912 1.91912C2.29419 1.54405 2.8029 1.33333 3.33333 1.33333H4.66667C4.84348 1.33333 5.01305 1.2631 5.13807 1.13807C5.2631 1.01305 5.33333 0.843478 5.33333 0.666667C5.33333 0.489856 5.2631 0.320286 5.13807 0.195262C5.01305 0.0702379 4.84348 0 4.66667 0L3.33333 0C2.4496 0.00105857 1.60237 0.352588 0.97748 0.97748C0.352588 1.60237 0.00105857 2.4496 0 3.33333L0 4.66667C0 4.84348 0.0702379 5.01305 0.195262 5.13807C0.320286 5.2631 0.489856 5.33333 0.666667 5.33333Z" fill="#444444"/>
<path d="M4.66667 14.6667H3.33333C2.8029 14.6667 2.29419 14.456 1.91912 14.0809C1.54405 13.7058 1.33333 13.1971 1.33333 12.6667V11.3334C1.33333 11.1565 1.2631 10.987 1.13807 10.8619C1.01305 10.7369 0.843478 10.6667 0.666667 10.6667C0.489856 10.6667 0.320286 10.7369 0.195262 10.8619C0.0702379 10.987 0 11.1565 0 11.3334L0 12.6667C0.00105857 13.5504 0.352588 14.3976 0.97748 15.0225C1.60237 15.6474 2.4496 15.999 3.33333 16H4.66667C4.84348 16 5.01305 15.9298 5.13807 15.8048C5.2631 15.6797 5.33333 15.5102 5.33333 15.3334C5.33333 15.1565 5.2631 14.987 5.13807 14.8619C5.01305 14.7369 4.84348 14.6667 4.66667 14.6667Z" fill="#444444"/>
<path d="M12.6667 0H11.3333C11.1565 0 10.987 0.0702379 10.8619 0.195262C10.7369 0.320286 10.6667 0.489856 10.6667 0.666667C10.6667 0.843478 10.7369 1.01305 10.8619 1.13807C10.987 1.2631 11.1565 1.33333 11.3333 1.33333H12.6667C13.1971 1.33333 13.7058 1.54405 14.0809 1.91912C14.456 2.29419 14.6667 2.8029 14.6667 3.33333V4.66667C14.6667 4.84348 14.7369 5.01305 14.8619 5.13807C14.987 5.2631 15.1565 5.33333 15.3333 5.33333C15.5101 5.33333 15.6797 5.2631 15.8047 5.13807C15.9298 5.01305 16 4.84348 16 4.66667V3.33333C15.9989 2.4496 15.6474 1.60237 15.0225 0.97748C14.3976 0.352588 13.5504 0.00105857 12.6667 0V0Z" fill="#444444"/>
<path d="M7.99999 7.33333C8.52741 7.33333 9.04298 7.17694 9.48152 6.88392C9.92005 6.5909 10.2618 6.17443 10.4637 5.68716C10.6655 5.19989 10.7183 4.66371 10.6154 4.14643C10.5125 3.62914 10.2586 3.15399 9.88561 2.78105C9.51267 2.40811 9.03752 2.15413 8.52024 2.05124C8.00295 1.94835 7.46678 2.00116 6.97951 2.20299C6.49224 2.40482 6.07576 2.74662 5.78274 3.18515C5.48973 3.62368 5.33333 4.13925 5.33333 4.66667C5.33333 5.37391 5.61428 6.05219 6.11438 6.55229C6.61447 7.05238 7.29275 7.33333 7.99999 7.33333ZM7.99999 3.33333C8.2637 3.33333 8.52149 3.41153 8.74076 3.55804C8.96002 3.70455 9.13092 3.91279 9.23183 4.15642C9.33275 4.40006 9.35916 4.66815 9.30771 4.92679C9.25626 5.18543 9.12927 5.42301 8.9428 5.60948C8.75633 5.79595 8.51876 5.92293 8.26012 5.97438C8.00147 6.02583 7.73339 5.99942 7.48975 5.89851C7.24612 5.79759 7.03788 5.62669 6.89137 5.40743C6.74486 5.18816 6.66666 4.93038 6.66666 4.66667C6.66666 4.31305 6.80714 3.97391 7.05719 3.72386C7.30723 3.47381 7.64637 3.33333 7.99999 3.33333Z" fill="#444444"/>
<path d="M12 13.3334C12.1768 13.3334 12.3464 13.2631 12.4714 13.1381C12.5964 13.0131 12.6667 12.8435 12.6667 12.6667C12.6656 11.6061 12.2438 10.5893 11.4939 9.83943C10.744 9.08951 9.7272 8.66775 8.66666 8.66669H7.33333C6.27279 8.66775 5.25599 9.08951 4.50607 9.83943C3.75615 10.5893 3.33439 11.6061 3.33333 12.6667C3.33333 12.8435 3.40357 13.0131 3.52859 13.1381C3.65361 13.2631 3.82318 13.3334 3.99999 13.3334C4.17681 13.3334 4.34638 13.2631 4.4714 13.1381C4.59642 13.0131 4.66666 12.8435 4.66666 12.6667C4.66666 11.9594 4.94761 11.2812 5.44771 10.7811C5.94781 10.281 6.62608 10 7.33333 10H8.66666C9.37391 10 10.0522 10.281 10.5523 10.7811C11.0524 11.2812 11.3333 11.9594 11.3333 12.6667C11.3333 12.8435 11.4036 13.0131 11.5286 13.1381C11.6536 13.2631 11.8232 13.3334 12 13.3334Z" fill="#444444"/>
</g>
<defs>
<clipPath id="clip0_1689_276">
<rect width="16" height="16" fill="white"/>
</clipPath>
</defs>
</svg>
