<svg width="50" height="50" viewBox="0 0 50 50" fill="none" xmlns="http://www.w3.org/2000/svg">
<path d="M46.0291 4.39966H3.97095C3.89595 4.39966 3.83521 4.4604 3.83521 4.5354V46.5936C3.83521 46.6686 3.89595 46.7293 3.97095 46.7293H46.0291C46.1041 46.7293 46.1649 46.6686 46.1649 46.5936V4.5354C46.1649 4.4604 46.1041 4.39966 46.0291 4.39966Z" fill="#A2FFF9"/>
<path d="M23.3277 24.0279H7.04395C6.96895 24.0279 6.9082 23.9672 6.9082 23.8922V7.6084C6.9082 7.5334 6.96895 7.47266 7.04395 7.47266H23.3277C23.4027 7.47266 23.4635 7.5334 23.4635 7.6084V23.8922C23.4635 23.9671 23.4027 24.0279 23.3277 24.0279Z" fill="#FFCD6C"/>
<path d="M23.3277 43.6562H7.04395C6.96895 43.6562 6.9082 43.5955 6.9082 43.5205V27.2367C6.9082 27.1617 6.96895 27.101 7.04395 27.101H23.3277C23.4027 27.101 23.4635 27.1617 23.4635 27.2367V43.5205C23.4635 43.5955 23.4027 43.6562 23.3277 43.6562Z" fill="#61AAB7"/>
<path d="M42.9561 24.0279H26.6723C26.5973 24.0279 26.5366 23.9672 26.5366 23.8922V7.6084C26.5366 7.5334 26.5973 7.47266 26.6723 7.47266H42.9561C43.0311 7.47266 43.0918 7.5334 43.0918 7.6084V23.8922C43.0918 23.9671 43.0311 24.0279 42.9561 24.0279Z" fill="#FFCD6C"/>
<path d="M42.9561 7.47266H42.2586V24.0279H42.9561C43.0311 24.0279 43.0918 23.9672 43.0918 23.8922V7.6084C43.0918 7.5334 43.0311 7.47266 42.9561 7.47266Z" fill="#544F57"/>
<path d="M42.9561 43.6562H26.6723C26.5973 43.6562 26.5366 43.5955 26.5366 43.5205V27.2367C26.5366 27.1617 26.5973 27.101 26.6723 27.101H42.9561C43.0311 27.101 43.0918 27.1617 43.0918 27.2367V43.5205C43.0918 43.5955 43.0311 43.6562 42.9561 43.6562Z" fill="#55B8FF"/>
<path d="M44.955 49.2675H5.04506C4.95111 49.2675 4.87494 49.1914 4.87494 49.0974V46.7292H45.1252V49.0974C45.1251 49.1914 45.049 49.2675 44.955 49.2675Z" fill="#91F960"/>
<path d="M10.126 0.732422H20.2457V4.39961H10.126V0.732422Z" fill="#AFAAB4"/>
<path d="M10.126 4.39966H7.60654V0.732471H10.126V4.39966Z" fill="#FFCD6C"/>
<path d="M16.4456 4.39966H13.9262V0.732471H16.4456V4.39966Z" fill="#FFCD6C"/>
<path d="M22.7651 4.39966H20.2457V0.732471H22.7651V4.39966Z" fill="#FFCD6C"/>
<path d="M29.7543 0.732422H39.8741V4.39961H29.7543V0.732422Z" fill="#AFAAB4"/>
<path d="M29.7543 4.39966H27.2349V0.732471H29.7543V4.39966Z" fill="#FFCD6C"/>
<path d="M36.074 4.39966H33.5545V0.732471H36.074V4.39966Z" fill="#FFCD6C"/>
<path d="M42.3936 4.39966H39.8741V0.732471H42.3936V4.39966Z" fill="#FFCD6C"/>
<path d="M7.04398 24.7603H23.3278C23.8064 24.7603 24.1959 24.3709 24.1959 23.8921V7.60837C24.1959 7.12966 23.8065 6.74011 23.3278 6.74011H7.04398C6.56527 6.74011 6.17572 7.12957 6.17572 7.60837V23.8921C6.17572 24.3709 6.56527 24.7603 7.04398 24.7603ZM16.1089 14.8271V16.6733H14.2627V14.8271H16.1089ZM14.2627 13.3623V11.5161H16.1089V13.3623H14.2627ZM19.42 16.6733H17.5738V14.8271H19.42V16.6733ZM20.8848 14.8271H22.731V16.6733H20.8848V14.8271ZM16.1089 18.1382V19.9844H14.2627V18.1382H16.1089ZM12.7979 16.6733H10.9517V14.8271H12.7979V16.6733ZM9.48685 16.6733H7.64056V14.8271H9.48676L9.48685 16.6733ZM9.48685 18.1382V19.9844H7.64056V18.1382H9.48685ZM10.9517 18.1382H12.7979V19.9844H10.9517V18.1382ZM12.7979 21.4493V23.2955H10.9517V21.4493H12.7979ZM14.2627 21.4493H16.1089V23.2955H14.2627V21.4493ZM17.5738 21.4493H19.42V23.2955H17.5738V21.4493ZM17.5738 19.9844V18.1383H19.42V19.9844H17.5738ZM20.8848 18.1382H22.731V19.9844H20.8848V18.1382ZM22.7311 13.3623H20.8848V11.5161H22.731V13.3623H22.7311ZM19.42 13.3623H17.5738V11.5161H19.42V13.3623ZM17.5738 10.0512V8.20505H19.42V10.0512H17.5738ZM16.1089 10.0512H14.2627V8.20505H16.1089V10.0512ZM12.7979 10.0512H10.9517V8.20505H12.7979V10.0512ZM12.7979 11.5161V13.3623H10.9517V11.5161H12.7979ZM9.48685 13.3623H7.64056V11.5161H9.48676L9.48685 13.3623ZM7.64056 21.4493H9.48676V23.2955H7.64056V21.4493ZM20.8848 23.2955V21.4493H22.731V23.2955H20.8848ZM22.7311 10.0512H20.8848V8.20505H22.731V10.0512H22.7311ZM9.48685 8.20505V10.0512H7.64056V8.20505H9.48685Z" fill="#222222"/>
<path d="M6.17572 43.5204C6.17572 43.9991 6.56517 44.3886 7.04398 44.3886H23.3278C23.8064 44.3886 24.1959 43.9992 24.1959 43.5204V27.2367C24.1959 26.758 23.8065 26.3684 23.3278 26.3684H7.04398C6.56527 26.3684 6.17572 26.7579 6.17572 27.2367V43.5204ZM7.64056 27.8334H22.731V42.9238H7.64056V27.8334Z" fill="#222222"/>
<path d="M13.5709 29.3704H9.90997C9.50538 29.3704 9.17755 29.6982 9.17755 30.1028C9.17755 30.5074 9.50538 30.8352 9.90997 30.8352H13.5709C13.9755 30.8352 14.3033 30.5074 14.3033 30.1028C14.3033 29.6982 13.9754 29.3704 13.5709 29.3704Z" fill="#222222"/>
<path d="M13.5709 32.8876H9.90997C9.50538 32.8876 9.17755 33.2154 9.17755 33.62C9.17755 34.0246 9.50538 34.3524 9.90997 34.3524H13.5709C13.9755 34.3524 14.3033 34.0246 14.3033 33.62C14.3033 33.2154 13.9754 32.8876 13.5709 32.8876Z" fill="#222222"/>
<path d="M13.5709 36.4049H9.90997C9.50538 36.4049 9.17755 36.7327 9.17755 37.1373C9.17755 37.5419 9.50538 37.8698 9.90997 37.8698H13.5709C13.9755 37.8698 14.3033 37.5419 14.3033 37.1373C14.3033 36.7327 13.9754 36.4049 13.5709 36.4049Z" fill="#222222"/>
<path d="M13.5709 39.9221H9.90997C9.50538 39.9221 9.17755 40.25 9.17755 40.6545C9.17755 41.0591 9.50538 41.387 9.90997 41.387H13.5709C13.9755 41.387 14.3033 41.0591 14.3033 40.6545C14.3033 40.25 13.9754 39.9221 13.5709 39.9221Z" fill="#222222"/>
<path d="M20.4617 29.3704H16.8008C16.3962 29.3704 16.0684 29.6982 16.0684 30.1028C16.0684 30.5074 16.3962 30.8352 16.8008 30.8352H20.4617C20.8663 30.8352 21.1941 30.5074 21.1941 30.1028C21.1941 29.6982 20.8663 29.3704 20.4617 29.3704Z" fill="#222222"/>
<path d="M20.4617 32.8876H16.8008C16.3962 32.8876 16.0684 33.2154 16.0684 33.62C16.0684 34.0246 16.3962 34.3524 16.8008 34.3524H20.4617C20.8663 34.3524 21.1941 34.0246 21.1941 33.62C21.1941 33.2154 20.8663 32.8876 20.4617 32.8876Z" fill="#222222"/>
<path d="M20.4617 36.4049H16.8008C16.3962 36.4049 16.0684 36.7327 16.0684 37.1373C16.0684 37.5419 16.3962 37.8698 16.8008 37.8698H20.4617C20.8663 37.8698 21.1941 37.5419 21.1941 37.1373C21.1941 36.7327 20.8663 36.4049 20.4617 36.4049Z" fill="#222222"/>
<path d="M20.4617 39.9221H16.8008C16.3962 39.9221 16.0684 40.25 16.0684 40.6545C16.0684 41.0591 16.3962 41.387 16.8008 41.387H20.4617C20.8663 41.387 21.1941 41.0591 21.1941 40.6545C21.1941 40.25 20.8663 39.9221 20.4617 39.9221Z" fill="#222222"/>
<path d="M26.6723 24.7603H42.9561C43.4347 24.7603 43.8243 24.3709 43.8243 23.8921V7.60837C43.8243 7.12966 43.4348 6.74011 42.9561 6.74011H26.6723C26.1937 6.74011 25.8041 7.12957 25.8041 7.60837V23.8921C25.8041 24.3709 26.1937 24.7603 26.6723 24.7603ZM35.7372 14.8271V16.6733H33.8911V14.8271H35.7372ZM33.8911 13.3623V11.5161H35.7372V13.3623H33.8911ZM39.0483 16.6733H37.2021V14.8271H39.0483V16.6733ZM40.5131 14.8271H42.3593V16.6733H40.5131V14.8271ZM35.7372 18.1382V19.9844H33.8911V18.1382H35.7372ZM32.4262 16.6733H30.58V14.8271H32.4262V16.6733ZM29.1152 16.6733H27.2691V14.8271H29.1152V16.6733ZM29.1152 18.1382V19.9844H27.2691V18.1382H29.1152ZM30.58 18.1382H32.4262V19.9844H30.58V18.1382ZM32.4262 21.4493V23.2955H30.58V21.4493H32.4262ZM33.8911 21.4493H35.7372V23.2955H33.8911V21.4493ZM37.2021 21.4493H39.0483V23.2955H37.2021V21.4493ZM37.2021 19.9844V18.1383H39.0483V19.9844H37.2021ZM40.5131 18.1382H42.3593V19.9844H40.5131V18.1382ZM42.3594 13.3623H40.5132V11.5161H42.3594V13.3623ZM39.0483 13.3623H37.2021V11.5161H39.0483V13.3623ZM37.2021 10.0512V8.20505H39.0483V10.0512H37.2021ZM35.7372 10.0512H33.8911V8.20505H35.7372V10.0512ZM32.4262 10.0512H30.58V8.20505H32.4262V10.0512ZM32.4262 11.5161V13.3623H30.58V11.5161H32.4262ZM29.1152 13.3623H27.2691V11.5161H29.1152V13.3623ZM27.269 21.4493H29.1151V23.2955H27.269V21.4493ZM40.5131 23.2955V21.4493H42.3593V23.2955H40.5131ZM42.3594 10.0512H40.5132V8.20505H42.3594V10.0512ZM29.1152 8.20505V10.0512H27.2691V8.20505H29.1152Z" fill="#222222"/>
<path d="M3.83508 12.9602C3.43049 12.9602 3.10266 13.288 3.10266 13.6926V46.5936C3.10266 47.0722 3.49211 47.4617 3.97092 47.4617H4.1425V49.0975C4.1425 49.5951 4.54739 50 5.04504 50H44.955C45.4527 50 45.8575 49.5951 45.8575 49.0975V47.4617H46.0291C46.5078 47.4617 46.8974 47.0723 46.8974 46.5936V4.53535C46.8974 4.05664 46.5079 3.66709 46.0291 3.66709H43.1259V1.46406C43.5155 1.44717 43.8261 1.12617 43.8261 0.732422C43.8261 0.327832 43.4983 0 43.0937 0H26.5347C26.1301 0 25.8023 0.327832 25.8023 0.732422C25.8023 1.12617 26.1129 1.44727 26.5025 1.46406V3.66709H23.4976V1.46406C23.8871 1.44717 24.1978 1.12617 24.1978 0.732422C24.1978 0.327832 23.8699 0 23.4654 0H6.90637C6.50178 0 6.17395 0.327832 6.17395 0.732422C6.17395 1.12617 6.48459 1.44727 6.87415 1.46406V3.66709H3.97092C3.49221 3.66709 3.10266 4.05654 3.10266 4.53535V10.2746C3.10266 10.6792 3.43049 11.007 3.83508 11.007C4.23967 11.007 4.5675 10.6792 4.5675 10.2746V5.13203H45.4324V45.9969H11.7923C11.3877 45.9969 11.0599 46.3247 11.0599 46.7293C11.0599 47.1339 11.3877 47.4617 11.7923 47.4617H44.3927V48.5352H5.60735V47.4617H8.37434C8.77893 47.4617 9.10676 47.1339 9.10676 46.7293C9.10676 46.3247 8.77893 45.9969 8.37434 45.9969H4.5675V13.6926C4.5675 13.288 4.23967 12.9602 3.83508 12.9602ZM39.1417 3.66719H36.8064V1.46484H39.1417V3.66719ZM19.5133 3.66719H17.178V1.46484H19.5133V3.66719ZM8.33899 1.46484H9.39358V3.66719H8.33899V1.46484ZM10.8583 1.46484H13.1937V3.66719H10.8583V1.46484ZM14.6586 3.66719V1.46484H15.7132V3.66719H14.6586ZM20.9781 3.66719V1.46484H22.0327V3.66719H20.9781ZM27.9673 1.46484H29.0219V3.66719H27.9673V1.46484ZM30.4867 1.46484H32.8221V3.66719H30.4867V1.46484ZM34.2869 3.66719V1.46484H35.3415V3.66719H34.2869ZM40.6066 3.66719V1.46484H41.6612V3.66719H40.6066Z" fill="#222222"/>
<path d="M25.8041 43.5204C25.8041 43.9991 26.1936 44.3886 26.6723 44.3886H42.9561C43.4347 44.3886 43.8243 43.9992 43.8243 43.5204V37.4347C43.8243 37.0301 43.4964 36.7023 43.0918 36.7023C42.6872 36.7023 42.3594 37.0301 42.3594 37.4347V42.9238H27.269V27.8334H42.3594V34.0167C42.3594 34.4213 42.6872 34.7492 43.0918 34.7492C43.4964 34.7492 43.8243 34.4213 43.8243 34.0167V27.2367C43.8243 26.758 43.4348 26.3684 42.9561 26.3684H26.6723C26.1937 26.3684 25.8041 26.7579 25.8041 27.2367V43.5204Z" fill="#222222"/>
<path d="M38.2115 34.2629L39.933 34.7242C40.3229 34.829 40.7252 34.5975 40.83 34.2063C40.9347 33.8156 40.7029 33.414 40.3122 33.3093L39.005 32.959L39.3552 31.6518C39.4599 31.2611 39.2281 30.8594 38.8374 30.7548C38.4463 30.6498 38.0451 30.8819 37.9403 31.2726L37.4791 32.9941L35.5466 34.1098V31.8786L36.8069 30.6183C37.0929 30.3322 37.0929 29.8685 36.8069 29.5825C36.5208 29.2966 36.0571 29.2966 35.7711 29.5825L34.8142 30.5394L33.8574 29.5825C33.5712 29.2966 33.1076 29.2966 32.8215 29.5825C32.5355 29.8686 32.5355 30.3323 32.8215 30.6183L34.0818 31.8786V34.1098L32.1494 32.9941L31.6881 31.2726C31.5835 30.8819 31.1819 30.6498 30.7911 30.7548C30.4003 30.8594 30.1685 31.2611 30.2732 31.6518L30.6234 32.9589L29.3163 33.3092C28.9255 33.4137 28.6937 33.8155 28.7984 34.2062C28.9033 34.5978 29.3059 34.8288 29.6955 34.7241L31.417 34.2629L33.3494 35.3786L31.417 36.4943L29.6955 36.0331C29.3045 35.928 28.9031 36.1602 28.7984 36.551C28.6937 36.9417 28.9255 37.3433 29.3163 37.448L30.6234 37.7983L30.2732 39.1054C30.1685 39.4962 30.4003 39.8978 30.7911 40.0025C31.181 40.1073 31.5834 39.8759 31.6881 39.4846L32.1494 37.7631L34.0818 36.6473V38.8787L32.8215 40.1389C32.5355 40.4251 32.5355 40.8887 32.8215 41.1748C33.1077 41.4607 33.5713 41.4607 33.8574 41.1748L34.8142 40.2178L35.7711 41.1748C36.0573 41.4608 36.5209 41.4607 36.8069 41.1748C37.0929 40.8886 37.0929 40.425 36.8069 40.1389L35.5466 38.8787V36.6473L37.4791 37.7631L37.9403 39.4846C38.0452 39.8762 38.4478 40.1072 38.8374 40.0025C39.2281 39.8979 39.4599 39.4962 39.3552 39.1054L39.005 37.7983L40.3122 37.448C40.7029 37.3434 40.9347 36.9417 40.83 36.551C40.7254 36.1602 40.3237 35.928 39.933 36.0331L38.2115 36.4943L36.2791 35.3786L38.2115 34.2629Z" fill="white"/>
</svg>
