<svg width="50" height="50" viewBox="0 0 50 50" fill="none" xmlns="http://www.w3.org/2000/svg">
<g clip-path="url(#clip0_2181_1615)">
<path d="M24.1667 2.49995V47.5C24.1663 47.7578 24.1061 48.012 23.9909 48.2426C23.8756 48.4732 23.7085 48.6739 23.5025 48.829C23.2966 48.9841 23.0574 49.0893 22.804 49.1363C22.5505 49.1833 22.2895 49.1709 22.0417 49.1L3.25001 43.7333C2.55315 43.534 1.94025 43.1129 1.50417 42.534C1.06808 41.9551 0.83258 41.2498 0.833345 40.525V9.47495C0.83258 8.75015 1.06808 8.04485 1.50417 7.46591C1.94025 6.88697 2.55315 6.46594 3.25001 6.26662L22.0417 0.899954C22.2895 0.829057 22.5505 0.816627 22.804 0.863643C23.0574 0.910659 23.2966 1.01584 23.5025 1.17091C23.7085 1.32598 23.8756 1.52672 23.9909 1.75733C24.1061 1.98794 24.1663 2.24215 24.1667 2.49995Z" fill="#FDCB71"/>
<path d="M22.0417 0.899954L21.0267 1.18995C21.2263 1.34491 21.3878 1.54355 21.4988 1.77064C21.6097 1.99773 21.6672 2.24722 21.6667 2.49995V47.5C21.6672 47.7527 21.6097 48.0022 21.4988 48.2293C21.3878 48.4564 21.2263 48.655 21.0267 48.81L22.0417 49.1C22.2895 49.1709 22.5505 49.1833 22.804 49.1363C23.0574 49.0893 23.2966 48.9841 23.5025 48.829C23.7085 48.6739 23.8756 48.4732 23.9909 48.2426C24.1061 48.012 24.1663 47.7578 24.1667 47.5V2.49995C24.1663 2.24215 24.1061 1.98794 23.9909 1.75733C23.8756 1.52672 23.7085 1.32598 23.5025 1.17091C23.2966 1.01584 23.0574 0.910659 22.804 0.863643C22.5505 0.816627 22.2895 0.829057 22.0417 0.899954Z" fill="#783E22"/>
<path d="M37.5 22.4667V42.5C37.5 43.163 37.2366 43.7989 36.7678 44.2678C36.2989 44.7366 35.6631 45 35 45H24.1667V5H29.8C28.5927 6.54298 27.8268 8.38463 27.5838 10.3287C27.3407 12.2727 27.6298 14.2462 28.4201 16.0389C29.2104 17.8316 30.4723 19.3762 32.0713 20.5082C33.6704 21.6402 35.5466 22.3171 37.5 22.4667Z" fill="#F1F1F1"/>
<path d="M49.1667 11.6666C49.1667 14.5398 48.0253 17.2953 45.9937 19.3269C43.962 21.3586 41.2065 22.4999 38.3333 22.4999C38.05 22.4999 37.775 22.4916 37.5 22.4666C35.3991 22.3045 33.391 21.5332 31.7218 20.2472C30.0525 18.9612 28.7946 17.2163 28.1019 15.2262C27.4093 13.2361 27.3121 11.0873 27.8222 9.04276C28.3324 6.99826 29.4277 5.14691 30.974 3.71546C32.5203 2.284 34.4505 1.33458 36.5283 0.98348C38.606 0.632376 40.741 0.894831 42.6718 1.7387C44.6026 2.58257 46.2454 3.97122 47.399 5.73457C48.5526 7.49793 49.1669 9.55943 49.1667 11.6666Z" fill="#FF847A"/>
<path d="M38.3333 0.833252C37.9086 0.833481 37.4843 0.858244 37.0625 0.907419C39.6998 1.20898 42.1344 2.46881 43.9037 4.44755C45.6731 6.42629 46.6539 8.98605 46.6599 11.6405C46.6659 14.2949 45.6965 16.8591 43.9361 18.8457C42.1756 20.8324 39.7467 22.1032 37.1108 22.4166C37.2408 22.4308 37.3683 22.4549 37.5 22.4649C37.775 22.4899 38.05 22.4983 38.3333 22.4983C41.183 22.4629 43.904 21.3061 45.9067 19.2784C47.9093 17.2508 49.0323 14.5157 49.0323 11.6658C49.0323 8.81585 47.9093 6.08073 45.9067 4.05308C43.904 2.02544 41.183 0.8686 38.3333 0.833252Z" fill="#FF5454"/>
<path d="M38.3334 19.1666C39.2538 19.1666 40 18.4204 40 17.4999C40 16.5794 39.2538 15.8333 38.3334 15.8333C37.4129 15.8333 36.6667 16.5794 36.6667 17.4999C36.6667 18.4204 37.4129 19.1666 38.3334 19.1666Z" fill="#FFDF00"/>
<path d="M40.8333 6.66663C40.8333 8.04746 39.7142 12.5 38.3333 12.5C36.9525 12.5 35.8333 8.04746 35.8333 6.66663C35.8333 6.00358 36.0967 5.3677 36.5656 4.89886C37.0344 4.43002 37.6703 4.16663 38.3333 4.16663C38.9964 4.16663 39.6323 4.43002 40.1011 4.89886C40.57 5.3677 40.8333 6.00358 40.8333 6.66663Z" fill="#FFDF00"/>
<path d="M20.8333 22.5C21.0544 22.5 21.2663 22.4122 21.4226 22.256C21.5789 22.0997 21.6667 21.8877 21.6667 21.6667C21.6667 21.4457 21.5789 21.2337 21.4226 21.0775C21.2663 20.9212 21.0544 20.8334 20.8333 20.8334C20.1703 20.8334 19.5344 21.0968 19.0656 21.5656C18.5967 22.0344 18.3333 22.6703 18.3333 23.3334V26.6667C18.3333 27.3297 18.5967 27.9656 19.0656 28.4345C19.5344 28.9033 20.1703 29.1667 20.8333 29.1667C21.0544 29.1667 21.2663 29.0789 21.4226 28.9226C21.5789 28.7664 21.6667 28.5544 21.6667 28.3334C21.6667 28.1124 21.5789 27.9004 21.4226 27.7441C21.2663 27.5878 21.0544 27.5 20.8333 27.5C20.6123 27.5 20.4004 27.4122 20.2441 27.256C20.0878 27.0997 20 26.8877 20 26.6667V23.3334C20 23.1124 20.0878 22.9004 20.2441 22.7441C20.4004 22.5878 20.6123 22.5 20.8333 22.5Z" fill="#222222"/>
<path d="M38.3333 2.53626e-06C36.6318 0.000165971 34.9511 0.373329 33.4093 1.09322C31.8676 1.8131 30.5025 2.86221 29.41 4.16667H25V2.5C24.9999 2.11311 24.91 1.73151 24.7374 1.38524C24.5648 1.03898 24.3142 0.737498 24.0053 0.504534C23.6964 0.271569 23.3377 0.113478 22.9573 0.0427028C22.577 -0.028072 22.1854 -0.00959855 21.8133 0.0966692L3.02167 5.46584C2.15259 5.71733 1.38842 6.24368 0.843662 6.96602C0.298903 7.68835 0.00289671 8.56778 0 9.4725L0 40.5275C0.00289671 41.4322 0.298903 42.3117 0.843662 43.034C1.38842 43.7563 2.15259 44.2827 3.02167 44.5342L21.8125 49.9033C22.038 49.9677 22.2713 50.0005 22.5058 50.0008C23.168 49.9993 23.8025 49.7351 24.2701 49.2663C24.7377 48.7974 25.0002 48.1622 25 47.5V45.8333H35C35.8841 45.8333 36.7319 45.4821 37.357 44.857C37.9821 44.2319 38.3333 43.3841 38.3333 42.5V23.3333C39.3145 23.3298 40.2912 23.2016 41.24 22.9517C41.5204 23.5982 41.6656 24.2953 41.6667 25C41.6584 26.3199 41.1576 27.5891 40.2625 28.5592C40.1014 28.7106 40.007 28.9198 40.0001 29.1407C39.9933 29.3617 40.0744 29.5764 40.2258 29.7375C40.3772 29.8986 40.5864 29.993 40.8074 29.9999C41.0284 30.0068 41.2431 29.9256 41.4042 29.7742C42.3286 28.8203 42.9558 27.6182 43.2095 26.3144C43.4633 25.0105 43.3326 23.661 42.8333 22.43C43.364 22.2037 43.8769 21.9376 44.3675 21.6342C44.9815 23.2068 45.1551 24.917 44.8697 26.5809C44.5842 28.2448 43.8505 29.7994 42.7475 31.0775C42.6679 31.1544 42.6044 31.2463 42.5608 31.348C42.5171 31.4497 42.4941 31.559 42.4931 31.6697C42.4922 31.7803 42.5132 31.8901 42.5551 31.9925C42.5971 32.0949 42.6589 32.1879 42.7372 32.2662C42.8154 32.3444 42.9085 32.4063 43.0109 32.4482C43.1133 32.4901 43.223 32.5112 43.3337 32.5102C43.4443 32.5093 43.5537 32.4863 43.6553 32.4426C43.757 32.3989 43.849 32.3354 43.9258 32.2558C45.306 30.6997 46.2119 28.7811 46.5368 26.7267C46.8617 24.6722 46.5918 22.5677 45.7592 20.6617C47.6132 19.1334 48.9499 17.0697 49.5866 14.7529C50.2233 12.4361 50.1289 9.97913 49.3162 7.718C48.5036 5.45687 47.0124 3.50193 45.0465 2.12046C43.0806 0.738989 40.7361 -0.00158164 38.3333 2.53626e-06ZM23.3333 5V47.5C23.3333 47.629 23.3033 47.7562 23.2457 47.8716C23.1882 47.987 23.1046 48.0875 23.0016 48.1651C22.8986 48.2427 22.779 48.2954 22.6522 48.319C22.5254 48.3425 22.3948 48.3363 22.2708 48.3008L3.48 42.9317C2.95852 42.7807 2.49999 42.4649 2.17308 42.0315C1.84617 41.5981 1.6685 41.0704 1.66667 40.5275V9.4725C1.66863 8.92966 1.84636 8.40205 2.17325 7.96866C2.50013 7.53526 2.95859 7.21939 3.48 7.06834L22.2708 1.7C22.3948 1.66455 22.5252 1.65834 22.652 1.68185C22.7787 1.70536 22.8983 1.75794 23.0013 1.83548C23.1042 1.91302 23.1878 2.01338 23.2454 2.12869C23.3031 2.244 23.3331 2.3711 23.3333 2.5V5ZM36.6667 42.5C36.6667 42.942 36.4911 43.366 36.1785 43.6785C35.866 43.9911 35.442 44.1667 35 44.1667H25V5.83334H28.245C27.2862 7.48115 26.747 9.33939 26.6751 11.2445C26.6032 13.1496 27.0006 15.0432 27.8325 16.7587C28.6644 18.4741 29.9051 19.9588 31.4456 21.082C32.9861 22.2052 34.779 22.9325 36.6667 23.2V42.5ZM38.3333 21.6667C36.3555 21.6667 34.4221 21.0802 32.7776 19.9814C31.1331 18.8826 29.8514 17.3208 29.0945 15.4935C28.3377 13.6662 28.1396 11.6556 28.5255 9.71577C28.9113 7.77596 29.8637 5.99413 31.2623 4.5956C32.6608 3.19708 34.4426 2.24467 36.3824 1.85882C38.3222 1.47296 40.3329 1.671 42.1602 2.42787C43.9874 3.18475 45.5492 4.46648 46.648 6.11097C47.7468 7.75546 48.3333 9.68886 48.3333 11.6667C48.3305 14.318 47.276 16.8598 45.4012 18.7346C43.5265 20.6093 40.9846 21.6638 38.3333 21.6667Z" fill="#222222"/>
<path d="M38.3333 15C37.8389 15 37.3555 15.1466 36.9444 15.4213C36.5333 15.696 36.2129 16.0865 36.0236 16.5433C35.8344 17.0001 35.7849 17.5028 35.8814 17.9877C35.9778 18.4727 36.2159 18.9181 36.5656 19.2678C36.9152 19.6174 37.3607 19.8555 37.8456 19.952C38.3306 20.0484 38.8332 19.9989 39.2901 19.8097C39.7469 19.6205 40.1373 19.3 40.412 18.8889C40.6867 18.4778 40.8333 17.9945 40.8333 17.5C40.8333 16.837 40.57 16.2011 40.1011 15.7322C39.6323 15.2634 38.9964 15 38.3333 15ZM38.3333 18.3333C38.1685 18.3333 38.0074 18.2845 37.8704 18.1929C37.7333 18.1013 37.6265 17.9712 37.5634 17.8189C37.5004 17.6666 37.4839 17.4991 37.516 17.3374C37.5482 17.1758 37.6275 17.0273 37.7441 16.9107C37.8606 16.7942 38.0091 16.7148 38.1708 16.6827C38.3324 16.6505 38.5 16.667 38.6522 16.7301C38.8045 16.7932 38.9347 16.9 39.0262 17.037C39.1178 17.1741 39.1667 17.3352 39.1667 17.5C39.1667 17.721 39.0789 17.933 38.9226 18.0893C38.7663 18.2455 38.5544 18.3333 38.3333 18.3333Z" fill="#222222"/>
<path d="M38.3333 3.33337C37.4493 3.33337 36.6014 3.68456 35.9763 4.30968C35.3512 4.93481 35 5.78265 35 6.66671C35 7.61754 35.96 13.3334 38.3333 13.3334C40.7067 13.3334 41.6667 7.61754 41.6667 6.66671C41.6667 5.78265 41.3155 4.93481 40.6904 4.30968C40.0652 3.68456 39.2174 3.33337 38.3333 3.33337ZM38.3333 11.6492C37.675 11.245 36.6667 8.04004 36.6667 6.66671C36.6667 6.22468 36.8423 5.80076 37.1548 5.4882C37.4674 5.17564 37.8913 5.00004 38.3333 5.00004C38.7754 5.00004 39.1993 5.17564 39.5118 5.4882C39.8244 5.80076 40 6.22468 40 6.66671C40 8.04004 38.9917 11.245 38.3333 11.6492Z" fill="#222222"/>
</g>
<defs>
<clipPath id="clip0_2181_1615">
<rect width="50" height="50" fill="white"/>
</clipPath>
</defs>
</svg>
