<svg width="50" height="50" viewBox="0 0 50 50" fill="none" xmlns="http://www.w3.org/2000/svg">
<g clip-path="url(#clip0_2178_839)">
<path d="M13.0371 34.707H5.41504V31.4713H13.0371V34.707Z" fill="#2D3E53"/>
<mask id="mask0_2178_839" style="mask-type:luminance" maskUnits="userSpaceOnUse" x="0" y="0" width="50" height="50">
<path d="M0 2.98023e-06H50V50H0V2.98023e-06Z" fill="white"/>
</mask>
<g mask="url(#mask0_2178_839)">
<path d="M6.39482 46.6179V26.6178C6.39482 25.7257 7.12061 25.0001 8.0126 25.0001H13.2486V21.7644H8.0126C5.33643 21.7644 3.15918 23.9416 3.15918 26.6178V46.6179H6.39482Z" fill="#435D7A"/>
<path d="M42.7962 4.73633H14.484V2.29492C14.484 1.43193 15.1836 0.732422 16.0465 0.732422H41.2337C42.0966 0.732422 42.7962 1.43193 42.7962 2.29492V4.73633Z" fill="#E6EBEF"/>
<path d="M41.2338 0.732422H38.9877C39.8506 0.732422 40.5502 1.43193 40.5502 2.29492V4.73633H42.7963V2.29492C42.7963 1.43193 42.0967 0.732422 41.2338 0.732422Z" fill="#DAE2ED"/>
<path d="M35.5159 40.7227H12.0573V6.0417H45.223V40.7227H40.3695H35.5159Z" fill="#FF9259"/>
<path d="M45.2229 40.7227H42.9768V6.0417H45.2229V40.7227Z" fill="#FF7169"/>
<path d="M45.223 39.5605C46.1165 39.5605 46.8408 40.2849 46.8408 41.1784V46.6179H10.4395V41.1784C10.4395 40.2849 11.1638 39.5605 12.0573 39.5605H45.223Z" fill="#FFD23B"/>
<path d="M46.0596 7.20386H11.2207C10.7893 7.20386 10.4395 6.85405 10.4395 6.42261V4.74937C10.4395 4.31792 10.7893 3.96812 11.2207 3.96812H46.0596C46.491 3.96812 46.8408 4.31792 46.8408 4.74937V6.42261C46.8408 6.85405 46.491 7.20386 46.0596 7.20386Z" fill="#FFD23B"/>
<path d="M45.223 39.5605H42.9769C43.8704 39.5605 44.5947 40.2849 44.5947 41.1784V46.6179H46.8408V41.1784C46.8408 40.2849 46.1165 39.5605 45.223 39.5605Z" fill="#FFB24A"/>
<path d="M46.0596 3.96812H43.8135C44.2449 3.96812 44.5947 4.31792 44.5947 4.74937V6.42261C44.5947 6.85405 44.2449 7.20386 43.8135 7.20386H46.0596C46.491 7.20386 46.8408 6.85405 46.8408 6.42261V4.74937C46.8408 4.31792 46.491 3.96812 46.0596 3.96812Z" fill="#FFB24A"/>
<path d="M48.4863 49.2676H1.51367C1.08223 49.2676 0.732422 48.9178 0.732422 48.4863V46.8132C0.732422 46.3816 1.08223 46.0319 1.51367 46.0319H48.4863C48.9178 46.0319 49.2676 46.3816 49.2676 46.8132V48.4863C49.2676 48.9178 48.9178 49.2676 48.4863 49.2676Z" fill="#BABDCE"/>
<path d="M48.4863 46.0319H46.2402C46.6717 46.0319 47.0215 46.3816 47.0215 46.8132V48.4863C47.0215 48.9178 46.6717 49.2676 46.2402 49.2676H48.4863C48.9178 49.2676 49.2676 48.9178 49.2676 48.4863V46.8132C49.2676 46.3816 48.9178 46.0319 48.4863 46.0319Z" fill="#9DA3B3"/>
<path d="M29.0445 23.3823C29.0445 26.5095 26.5094 29.0447 23.3821 29.0447C20.2549 29.0447 17.7197 26.5095 17.7197 23.3823C17.7197 20.255 20.2549 17.7199 23.3821 17.7199C26.5094 17.7199 29.0445 20.255 29.0445 23.3823Z" fill="#E6EBEF"/>
<path d="M23.3822 17.7198C22.9976 17.7198 22.6222 17.7584 22.2592 17.8316C24.8484 18.3526 26.7985 20.6394 26.7985 23.3822C26.7985 26.1249 24.8484 28.4118 22.2592 28.9328C22.6222 29.0058 22.9976 29.0447 23.3822 29.0447C26.5094 29.0447 29.0446 26.5095 29.0446 23.3822C29.0446 20.2549 26.5094 17.7198 23.3822 17.7198Z" fill="#DAE2ED"/>
<path d="M24.7818 23.1801L23.7323 21.3597C23.5767 21.0903 23.1875 21.0903 23.0319 21.3597L21.9824 23.1801C21.8446 23.4181 21.7643 23.6939 21.7643 23.9889C21.7643 24.8825 22.4886 25.6068 23.3821 25.6068C24.2756 25.6068 24.9999 24.8825 24.9999 23.9889C24.9999 23.6939 24.9198 23.4181 24.7818 23.1801Z" fill="#5A7BA0"/>
<path fill-rule="evenodd" clip-rule="evenodd" d="M-0.00012207 48.4863C-0.00012207 49.3223 0.677599 50 1.51355 50H4.92986C5.33436 50 5.66228 49.6721 5.66228 49.2676C5.66228 48.8631 5.33436 48.5352 4.92986 48.5352H1.51355C1.48661 48.5352 1.46472 48.5133 1.46472 48.4863V46.8132C1.46472 46.7862 1.48655 46.7644 1.51355 46.7644H48.4862C48.5132 46.7644 48.535 46.7861 48.535 46.8132V48.4863C48.535 48.5133 48.5132 48.5352 48.4862 48.5352H7.85955C7.45504 48.5352 7.12712 48.8631 7.12712 49.2676C7.12712 49.6721 7.45504 50 7.85955 50H48.4862C49.3223 50 49.9999 49.3222 49.9999 48.4863V46.8132C49.9999 45.9771 49.3223 45.2995 48.4862 45.2995H1.51355C0.677659 45.2995 -0.00012207 45.9771 -0.00012207 46.8132V48.4863Z" fill="#222222"/>
<path fill-rule="evenodd" clip-rule="evenodd" d="M9.70703 46.032C9.70703 46.4365 10.0349 46.7644 10.4395 46.7644H46.8408C47.2453 46.7644 47.5732 46.4365 47.5732 46.032V41.1784C47.5732 39.8805 46.5211 38.8281 45.223 38.8281C44.8185 38.8281 44.4906 39.156 44.4906 39.5605C44.4906 39.965 44.8185 40.2929 45.223 40.2929C45.7119 40.2929 46.1084 40.6894 46.1084 41.1784V45.2996H11.1719V41.1784C11.1719 40.6894 11.5683 40.2929 12.0573 40.2929C12.4618 40.2929 12.7897 39.965 12.7897 39.5605C12.7897 39.156 12.4618 38.8281 12.0573 38.8281C10.7592 38.8281 9.70703 39.8804 9.70703 41.1784V46.032Z" fill="#222222"/>
<path fill-rule="evenodd" clip-rule="evenodd" d="M39.6372 39.5605C39.6372 39.9651 39.9651 40.293 40.3696 40.293H45.2231C45.6276 40.293 45.9555 39.9651 45.9555 39.5605V7.20381C45.9555 6.7993 45.6276 6.47139 45.2231 6.47139H12.0574C11.6529 6.47139 11.325 6.7993 11.325 7.20381V10.0532C11.325 10.4577 11.6529 10.7856 12.0574 10.7856C12.4619 10.7856 12.7898 10.4577 12.7898 10.0532V7.93623H44.4907V38.8281H40.3696C39.9651 38.8281 39.6372 39.156 39.6372 39.5605Z" fill="#222222"/>
<path fill-rule="evenodd" clip-rule="evenodd" d="M11.3248 39.5605C11.3248 39.9651 11.6527 40.293 12.0573 40.293H35.5159C35.9204 40.293 36.2484 39.9651 36.2484 39.5605C36.2484 39.156 35.9204 38.8281 35.5159 38.8281H12.7897V12.9828C12.7897 12.5783 12.4618 12.2504 12.0573 12.2504C11.6527 12.2504 11.3248 12.5783 11.3248 12.9828V39.5605Z" fill="#222222"/>
<path fill-rule="evenodd" clip-rule="evenodd" d="M9.70703 6.42261C9.70703 7.25856 10.3848 7.93628 11.2207 7.93628H46.0596C46.8955 7.93628 47.5732 7.25856 47.5732 6.42261V4.74937C47.5732 3.91341 46.8955 3.23569 46.0596 3.23569H11.2207C10.3848 3.23569 9.70703 3.91341 9.70703 4.74937V6.42261ZM11.2207 6.47144C11.1938 6.47144 11.1719 6.44955 11.1719 6.42261V4.74937C11.1719 4.72243 11.1938 4.70054 11.2207 4.70054H46.0596C46.0865 4.70054 46.1084 4.72243 46.1084 4.74937V6.42261C46.1084 6.44955 46.0865 6.47144 46.0596 6.47144H11.2207Z" fill="#222222"/>
<path fill-rule="evenodd" clip-rule="evenodd" d="M13.7516 3.96814C13.7516 4.37265 14.0795 4.70056 14.484 4.70056H42.7962C43.2007 4.70056 43.5286 4.37265 43.5286 3.96814V2.295C43.5286 1.02747 42.5011 7.34851e-05 41.2337 7.34851e-05H16.0465C14.7791 7.34851e-05 13.7516 1.02747 13.7516 2.295V3.96814ZM15.2164 3.23572V2.295C15.2164 1.83654 15.5881 1.46492 16.0465 1.46492H41.2337C41.6921 1.46492 42.0638 1.83654 42.0638 2.295V3.23572H15.2164Z" fill="#222222"/>
<path fill-rule="evenodd" clip-rule="evenodd" d="M3.15918 46.7644C3.56368 46.7644 3.8916 46.4365 3.8916 46.032V26.6178C3.8916 24.3461 5.74091 22.4968 8.01269 22.4968H12.0573C12.4618 22.4968 12.7897 22.1689 12.7897 21.7644C12.7897 21.3599 12.4618 21.032 12.0573 21.032H8.01269C4.93194 21.032 2.42676 23.537 2.42676 26.6178V46.032C2.42676 46.4365 2.75467 46.7644 3.15918 46.7644Z" fill="#222222"/>
<path fill-rule="evenodd" clip-rule="evenodd" d="M6.3949 46.7644C6.7994 46.7644 7.12732 46.4365 7.12732 46.032V26.6178C7.12732 26.1303 7.52518 25.7325 8.01267 25.7325H12.0573C12.4618 25.7325 12.7897 25.4046 12.7897 25.0001C12.7897 24.5955 12.4618 24.2676 12.0573 24.2676H8.01267C6.71617 24.2676 5.66248 25.3213 5.66248 26.6178V46.032C5.66248 46.4365 5.99039 46.7644 6.3949 46.7644Z" fill="#222222"/>
<path fill-rule="evenodd" clip-rule="evenodd" d="M5.66248 31.4714C5.66248 31.8759 5.99039 32.2039 6.3949 32.2039H12.0573C12.4618 32.2039 12.7897 31.8759 12.7897 31.4714C12.7897 31.0669 12.4618 30.739 12.0573 30.739H6.3949C5.99039 30.739 5.66248 31.0669 5.66248 31.4714Z" fill="#222222"/>
<path fill-rule="evenodd" clip-rule="evenodd" d="M5.66248 34.7072C5.66248 35.1117 5.99039 35.4396 6.3949 35.4396H12.0573C12.4618 35.4396 12.7897 35.1117 12.7897 34.7072C12.7897 34.3026 12.4618 33.9747 12.0573 33.9747H6.3949C5.99039 33.9747 5.66248 34.3026 5.66248 34.7072Z" fill="#222222"/>
<path fill-rule="evenodd" clip-rule="evenodd" d="M35.516 46.7644C35.9205 46.7644 36.2484 46.4365 36.2484 46.032V7.20376C36.2484 6.79926 35.9205 6.47134 35.516 6.47134C35.1115 6.47134 34.7836 6.79926 34.7836 7.20376V46.032C34.7836 46.4365 35.1115 46.7644 35.516 46.7644Z" fill="#222222"/>
<path fill-rule="evenodd" clip-rule="evenodd" d="M40.3695 46.7644C40.774 46.7644 41.1019 46.4365 41.1019 46.032V7.20376C41.1019 6.79926 40.774 6.47134 40.3695 6.47134C39.965 6.47134 39.6371 6.79926 39.6371 7.20376V46.032C39.6371 46.4365 39.965 46.7644 40.3695 46.7644Z" fill="#222222"/>
<path fill-rule="evenodd" clip-rule="evenodd" d="M34.7836 11.5181C34.7836 11.9226 35.1115 12.2505 35.516 12.2505H40.3695C40.774 12.2505 41.1019 11.9226 41.1019 11.5181C41.1019 11.1136 40.774 10.7856 40.3695 10.7856H35.516C35.1115 10.7856 34.7836 11.1136 34.7836 11.5181Z" fill="#222222"/>
<path fill-rule="evenodd" clip-rule="evenodd" d="M34.7836 15.8323C34.7836 16.2368 35.1115 16.5647 35.516 16.5647H40.3695C40.774 16.5647 41.1019 16.2368 41.1019 15.8323C41.1019 15.4278 40.774 15.0999 40.3695 15.0999H35.516C35.1115 15.0999 34.7836 15.4278 34.7836 15.8323Z" fill="#222222"/>
<path fill-rule="evenodd" clip-rule="evenodd" d="M34.7836 20.1465C34.7836 20.551 35.1115 20.8789 35.516 20.8789H40.3695C40.774 20.8789 41.1019 20.551 41.1019 20.1465C41.1019 19.742 40.774 19.4141 40.3695 19.4141H35.516C35.1115 19.4141 34.7836 19.742 34.7836 20.1465Z" fill="#222222"/>
<path fill-rule="evenodd" clip-rule="evenodd" d="M34.7836 24.4607C34.7836 24.8652 35.1115 25.1931 35.516 25.1931H40.3695C40.774 25.1931 41.1019 24.8652 41.1019 24.4607C41.1019 24.0562 40.774 23.7283 40.3695 23.7283H35.516C35.1115 23.7283 34.7836 24.0562 34.7836 24.4607Z" fill="#222222"/>
<path fill-rule="evenodd" clip-rule="evenodd" d="M34.7836 28.775C34.7836 29.1795 35.1115 29.5074 35.516 29.5074H40.3695C40.774 29.5074 41.1019 29.1795 41.1019 28.775C41.1019 28.3705 40.774 28.0426 40.3695 28.0426H35.516C35.1115 28.0426 34.7836 28.3705 34.7836 28.775Z" fill="#222222"/>
<path fill-rule="evenodd" clip-rule="evenodd" d="M34.7836 33.0892C34.7836 33.4937 35.1115 33.8217 35.516 33.8217H40.3695C40.774 33.8217 41.1019 33.4937 41.1019 33.0892C41.1019 32.6847 40.774 32.3568 40.3695 32.3568H35.516C35.1115 32.3568 34.7836 32.6847 34.7836 33.0892Z" fill="#222222"/>
<path fill-rule="evenodd" clip-rule="evenodd" d="M34.7836 37.4034C34.7836 37.8079 35.1115 38.1359 35.516 38.1359H40.3695C40.774 38.1359 41.1019 37.8079 41.1019 37.4034C41.1019 36.9989 40.774 36.671 40.3695 36.671H35.516C35.1115 36.671 34.7836 36.9989 34.7836 37.4034Z" fill="#222222"/>
<path fill-rule="evenodd" clip-rule="evenodd" d="M34.7836 41.7177C34.7836 42.1222 35.1115 42.4501 35.516 42.4501H40.3695C40.774 42.4501 41.1019 42.1222 41.1019 41.7177C41.1019 41.3131 40.774 40.9852 40.3695 40.9852H35.516C35.1115 40.9852 34.7836 41.3131 34.7836 41.7177Z" fill="#222222"/>
<path fill-rule="evenodd" clip-rule="evenodd" d="M16.9874 23.3823C16.9874 26.914 19.8505 29.7771 23.3823 29.7771C26.914 29.7771 29.7771 26.914 29.7771 23.3823C29.7771 19.8505 26.914 16.9875 23.3823 16.9875C19.8505 16.9875 16.9874 19.8505 16.9874 23.3823ZM23.3823 28.3123C20.6595 28.3123 18.4523 26.105 18.4523 23.3823C18.4523 20.6595 20.6595 18.4523 23.3823 18.4523C26.105 18.4523 28.3122 20.6595 28.3122 23.3823C28.3122 26.105 26.105 28.3123 23.3823 28.3123Z" fill="#222222"/>
<path fill-rule="evenodd" clip-rule="evenodd" d="M23.3821 24.8744C22.8931 24.8744 22.4967 24.478 22.4967 23.9889C22.4967 23.8288 22.5399 23.679 22.6162 23.5471L22.617 23.5459L23.3821 22.2187L24.1472 23.5459L24.1481 23.5473C24.2244 23.6789 24.2675 23.8287 24.2675 23.9889C24.2675 24.478 23.8711 24.8744 23.3821 24.8744Z" fill="#222222"/>
</g>
</g>
<defs>
<clipPath id="clip0_2178_839">
<rect width="50" height="50" fill="white"/>
</clipPath>
</defs>
</svg>
