<svg width="50" height="50" viewBox="0 0 50 50" fill="none" xmlns="http://www.w3.org/2000/svg">
<mask id="mask0_2176_519" style="mask-type:luminance" maskUnits="userSpaceOnUse" x="0" y="0" width="50" height="50">
<path d="M0 2.98023e-06H50V50H0V2.98023e-06Z" fill="white"/>
</mask>
<g mask="url(#mask0_2176_519)">
<path d="M16.3033 28.5702H2.37793C1.46914 28.5702 0.732422 27.8335 0.732422 26.9247V24.0578C0.732422 23.149 1.46914 22.4123 2.37793 22.4123H16.3033V28.5702Z" fill="#476666"/>
<path d="M44.2395 28.5702H47.6221C48.5308 28.5702 49.2675 27.8335 49.2675 26.9247V24.0578C49.2675 23.149 48.5308 22.4123 47.6221 22.4123H44.2395V28.5702Z" fill="#C8EFFE"/>
<path d="M34.8489 14.3896V13.3664C34.8489 12.5043 34.1499 11.8054 33.2878 11.8054H26.7147C25.8526 11.8054 25.1536 12.5043 25.1536 13.3664V14.3896C25.1536 15.2193 24.481 15.8921 23.6512 15.8921H19.0626V35.141H40.9399V15.8921H36.3512C35.5215 15.8921 34.8489 15.2193 34.8489 14.3896Z" fill="#27A5FE"/>
<path d="M33.0817 13.3665V14.3897C33.0817 15.2195 33.7543 15.892 34.584 15.892H36.3512C35.5214 15.892 34.8489 15.2195 34.8489 14.3897V13.3665C34.8489 12.5044 34.1499 11.8055 33.2877 11.8055H31.5206C32.3827 11.8055 33.0817 12.5044 33.0817 13.3665Z" fill="#0593FC"/>
<path d="M39.1726 35.1411H40.9398V15.8921H39.1726V35.1411Z" fill="#0593FC"/>
<path d="M16.4804 35.141H19.0626V15.8921H16.4804C14.8587 15.8921 13.5441 17.2067 13.5441 18.8284V32.2047C13.5441 33.8263 14.8587 35.141 16.4804 35.141Z" fill="#678D98"/>
<path d="M17.2954 35.1411H19.0626V15.8921H17.2954V35.1411Z" fill="#537984"/>
<path d="M40.9398 35.141H43.522C45.1438 35.141 46.4585 33.8263 46.4585 32.2047V18.8284C46.4585 17.2067 45.1438 15.8921 43.522 15.8921H40.9398V35.141Z" fill="#678D98"/>
<path d="M43.5221 15.892H41.7549C43.3767 15.892 44.6913 17.2067 44.6913 18.8283V32.2047C44.6913 33.8263 43.3767 35.141 41.7549 35.141H43.5221C45.1437 35.141 46.4584 33.8263 46.4584 32.2047V18.8283C46.4584 17.2067 45.1437 15.892 43.5221 15.892Z" fill="#537984"/>
<path d="M33.6376 18.7604C33.6376 20.7686 32.0096 22.3967 30.0013 22.3967C27.993 22.3967 26.3649 20.7686 26.3649 18.7604C26.3649 16.7521 27.993 15.1241 30.0013 15.1241C32.0096 15.1241 33.6376 16.7521 33.6376 18.7604Z" fill="#C8EFFE"/>
<path d="M30.0013 15.124C29.6965 15.124 29.4007 15.1621 29.1177 15.2326C30.6989 15.6274 31.8705 17.0568 31.8705 18.7603C31.8705 20.4638 30.6989 21.8932 29.1177 22.2879C29.4007 22.3586 29.6965 22.3967 30.0013 22.3967C32.0096 22.3967 33.6376 20.7686 33.6376 18.7603C33.6376 16.752 32.0096 15.124 30.0013 15.124Z" fill="#99E6FC"/>
<path d="M39.742 42.7623H20.2604C19.8796 42.7623 19.5708 42.4536 19.5708 42.0727V40.0975C19.5708 39.7166 19.8796 39.4078 20.2604 39.4078H39.742C40.1228 39.4078 40.4316 39.7166 40.4316 40.0975V42.0727C40.4316 42.4536 40.1228 42.7623 39.742 42.7623Z" fill="#27A5FE"/>
<path d="M39.742 39.4078H37.9749C38.3558 39.4078 38.6646 39.7165 38.6646 40.0975V42.0726C38.6646 42.4534 38.3558 42.7623 37.9749 42.7623H39.742C40.1229 42.7623 40.4317 42.4534 40.4317 42.0726V40.0975C40.4317 39.7165 40.1229 39.4078 39.742 39.4078Z" fill="#0593FC"/>
<path d="M36.206 35.141H23.7965C23.7965 38.5325 22.2416 39.4078 22.2416 39.4078H37.7609C37.7609 39.4078 36.206 38.4694 36.206 35.141Z" fill="#537984"/>
<path d="M36.206 35.141H34.4388C34.4388 38.4694 35.9937 39.4078 35.9937 39.4078H37.7609C37.7609 39.4078 36.206 38.4694 36.206 35.141Z" fill="#476666"/>
<path d="M6.87978 33.3221H6.60068C4.87207 33.3221 3.4707 31.9208 3.4707 30.1922V20.7901C3.4707 19.0615 4.87207 17.6601 6.60068 17.6601H6.87978C8.6084 17.6601 10.0098 19.0615 10.0098 20.7901V30.1922C10.0098 31.9208 8.6084 33.3221 6.87978 33.3221Z" fill="#C8EFFE"/>
<path d="M6.87974 17.6601H6.60063C6.3063 17.6601 6.02173 17.7016 5.75171 17.7776C7.06763 18.1477 8.03267 19.3558 8.03267 20.7901V30.1922C8.03267 31.6264 7.06763 32.8345 5.75171 33.2047C6.02173 33.2805 6.3063 33.3221 6.60063 33.3221H6.87974C8.60835 33.3221 10.0096 31.9208 10.0096 30.1922V20.7901C10.0096 19.0615 8.60835 17.6601 6.87974 17.6601Z" fill="#99E6FC"/>
<path fill-rule="evenodd" clip-rule="evenodd" d="M45.7256 28.5703C45.7256 28.9748 46.0535 29.3027 46.458 29.3027H47.6221C48.936 29.3027 50 28.2372 50 26.9248V24.0576C50 22.7452 48.936 21.6797 47.6221 21.6797H46.458C46.0535 21.6797 45.7256 22.0076 45.7256 22.4121C45.7256 22.8166 46.0535 23.1445 46.458 23.1445H47.6221C48.1265 23.1445 48.5352 23.5536 48.5352 24.0576V26.9248C48.5352 27.4288 48.1265 27.8379 47.6221 27.8379H46.458C46.0535 27.8379 45.7256 28.1658 45.7256 28.5703Z" fill="#222222"/>
<path fill-rule="evenodd" clip-rule="evenodd" d="M18.3302 35.141C18.3302 35.5455 18.6581 35.8734 19.0626 35.8734H40.9398C41.3443 35.8734 41.6722 35.5455 41.6722 35.141C41.6722 34.7365 41.3443 34.4086 40.9398 34.4086H19.795V16.6245H23.6512C24.8854 16.6245 25.8861 15.6238 25.8861 14.3896V13.3665C25.8861 12.9088 26.2571 12.5378 26.7146 12.5378H33.2877C33.7453 12.5378 34.1163 12.9088 34.1163 13.3665V14.3896C34.1163 15.6238 35.1169 16.6245 36.3512 16.6245H40.9398C41.3443 16.6245 41.6722 16.2966 41.6722 15.8921C41.6722 15.4876 41.3443 15.1596 40.9398 15.1596H36.3512C35.9259 15.1596 35.5812 14.8148 35.5812 14.3896V13.3665C35.5812 12.1 34.5545 11.0729 33.2877 11.0729H26.7146C25.4478 11.0729 24.4212 12.1 24.4212 13.3665V14.3896C24.4212 14.8148 24.0764 15.1596 23.6512 15.1596H19.0626C18.6581 15.1596 18.3302 15.4876 18.3302 15.8921V35.141Z" fill="#222222"/>
<path fill-rule="evenodd" clip-rule="evenodd" d="M16.4804 34.4086C15.2632 34.4086 14.2765 33.4218 14.2765 32.2047V18.8284C14.2765 17.6112 15.2632 16.6245 16.4804 16.6245H18.3302V34.4086H16.4804ZM12.8116 32.2047C12.8116 34.2308 14.4542 35.8734 16.4804 35.8734H19.0626C19.4671 35.8734 19.795 35.5455 19.795 35.141V15.8921C19.795 15.4876 19.4671 15.1596 19.0626 15.1596H16.4804C14.4542 15.1596 12.8116 16.8022 12.8116 18.8284V32.2047Z" fill="#222222"/>
<path fill-rule="evenodd" clip-rule="evenodd" d="M40.2074 35.1411C40.2074 35.5456 40.5353 35.8735 40.9398 35.8735H43.522C45.5483 35.8735 47.1909 34.231 47.1909 32.2047V18.8284C47.1909 16.8022 45.5483 15.1597 43.522 15.1597H40.9398C40.5353 15.1597 40.2074 15.4876 40.2074 15.8921V19.0259C40.2074 19.4304 40.5353 19.7583 40.9398 19.7583C41.3443 19.7583 41.6722 19.4304 41.6722 19.0259V16.6245H43.522C44.7393 16.6245 45.726 17.6113 45.726 18.8284V32.2047C45.726 33.422 44.7393 34.4087 43.522 34.4087H41.6722V22.5943C41.6722 22.1898 41.3443 21.8619 40.9398 21.8619C40.5353 21.8619 40.2074 22.1898 40.2074 22.5943V35.1411Z" fill="#222222"/>
<path fill-rule="evenodd" clip-rule="evenodd" d="M27.0889 7.23755C27.0889 7.64205 27.4168 7.96997 27.8213 7.96997H32.1812C32.5857 7.96997 32.9136 7.64205 32.9136 7.23755C32.9136 6.83304 32.5857 6.50513 32.1812 6.50513H27.8213C27.4168 6.50513 27.0889 6.83304 27.0889 7.23755Z" fill="#222222"/>
<path fill-rule="evenodd" clip-rule="evenodd" d="M30.0012 12.5378C30.4057 12.5378 30.7336 12.2099 30.7336 11.8054V7.23765C30.7336 6.83314 30.4057 6.50523 30.0012 6.50523C29.5967 6.50523 29.2688 6.83314 29.2688 7.23765V11.8054C29.2688 12.2099 29.5967 12.5378 30.0012 12.5378Z" fill="#222222"/>
<path fill-rule="evenodd" clip-rule="evenodd" d="M22.1799 25.5166C22.1799 25.9211 22.5078 26.249 22.9124 26.249H25.6973C26.1018 26.249 26.4297 25.9211 26.4297 25.5166C26.4297 25.1121 26.1018 24.7842 25.6973 24.7842H22.9124C22.5078 24.7842 22.1799 25.1121 22.1799 25.5166Z" fill="#222222"/>
<path fill-rule="evenodd" clip-rule="evenodd" d="M28.3195 25.5166C28.3195 25.9211 28.6474 26.249 29.0519 26.249H37.0901C37.4946 26.249 37.8225 25.9211 37.8225 25.5166C37.8225 25.1121 37.4946 24.7842 37.0901 24.7842H29.0519C28.6474 24.7842 28.3195 25.1121 28.3195 25.5166Z" fill="#222222"/>
<path fill-rule="evenodd" clip-rule="evenodd" d="M22.1799 28.5546C22.1799 28.9591 22.5078 29.287 22.9124 29.287H25.6973C26.1018 29.287 26.4297 28.9591 26.4297 28.5546C26.4297 28.1501 26.1018 27.8221 25.6973 27.8221H22.9124C22.5078 27.8221 22.1799 28.1501 22.1799 28.5546Z" fill="#222222"/>
<path fill-rule="evenodd" clip-rule="evenodd" d="M28.3195 28.5546C28.3195 28.9591 28.6474 29.287 29.0519 29.287H37.0901C37.4946 29.287 37.8225 28.9591 37.8225 28.5546C37.8225 28.1501 37.4946 27.8221 37.0901 27.8221H29.0519C28.6474 27.8221 28.3195 28.1501 28.3195 28.5546Z" fill="#222222"/>
<path fill-rule="evenodd" clip-rule="evenodd" d="M22.1799 31.5927C22.1799 31.9972 22.5078 32.3251 22.9124 32.3251H25.6973C26.1018 32.3251 26.4297 31.9972 26.4297 31.5927C26.4297 31.1881 26.1018 30.8602 25.6973 30.8602H22.9124C22.5078 30.8602 22.1799 31.1881 22.1799 31.5927Z" fill="#222222"/>
<path fill-rule="evenodd" clip-rule="evenodd" d="M28.3195 31.5927C28.3195 31.9972 28.6474 32.3251 29.0519 32.3251H37.0901C37.4946 32.3251 37.8225 31.9972 37.8225 31.5927C37.8225 31.1881 37.4946 30.8602 37.0901 30.8602H29.0519C28.6474 30.8602 28.3195 31.1881 28.3195 31.5927Z" fill="#222222"/>
<path fill-rule="evenodd" clip-rule="evenodd" d="M25.6324 18.7604C25.6324 21.1731 27.5885 23.1292 30.0013 23.1292C32.4141 23.1292 34.37 21.1731 34.37 18.7604C34.37 16.3476 32.4141 14.3917 30.0013 14.3917C27.5885 14.3917 25.6324 16.3476 25.6324 18.7604ZM30.0013 21.6643C28.3975 21.6643 27.0973 20.3641 27.0973 18.7604C27.0973 17.1566 28.3975 15.8565 30.0013 15.8565C31.6051 15.8565 32.9052 17.1566 32.9052 18.7604C32.9052 20.3641 31.6051 21.6643 30.0013 21.6643Z" fill="#222222"/>
<path fill-rule="evenodd" clip-rule="evenodd" d="M30.0012 19.4928C30.4057 19.4928 30.7336 19.1649 30.7336 18.7604V17.3997C30.7336 16.9952 30.4057 16.6673 30.0012 16.6673C29.5967 16.6673 29.2688 16.9952 29.2688 17.3997V18.7604C29.2688 19.1649 29.5967 19.4928 30.0012 19.4928Z" fill="#222222"/>
<path fill-rule="evenodd" clip-rule="evenodd" d="M18.8384 42.0727C18.8384 42.8582 19.4752 43.4948 20.2604 43.4948H39.742C40.5273 43.4948 41.1641 42.8582 41.1641 42.0727V40.0975C41.1641 39.3121 40.5274 38.6754 39.742 38.6754H20.2604C19.4751 38.6754 18.8384 39.3121 18.8384 40.0975V42.0727ZM20.3032 42.0299V40.1403H39.6992V42.0299H20.3032Z" fill="#222222"/>
<path fill-rule="evenodd" clip-rule="evenodd" d="M21.533 39.5935C21.6175 39.9156 21.9085 40.1403 22.2415 40.1403H37.7609C38.0897 40.1403 38.3782 39.9211 38.4664 39.6043C38.5533 39.2921 38.4248 38.9607 38.1517 38.7884C38.1493 38.7867 38.1439 38.7829 38.1359 38.7769C38.115 38.7611 38.0763 38.73 38.0252 38.6809C37.9234 38.5832 37.7709 38.4126 37.6122 38.1469C37.2978 37.6207 36.9384 36.6863 36.9384 35.141C36.9384 34.7365 36.6105 34.4086 36.206 34.4086H23.7964C23.3919 34.4086 23.064 34.7365 23.064 35.141C23.064 36.7208 22.7032 37.653 22.3922 38.1672C22.2353 38.4268 22.0852 38.5895 21.9867 38.6808C21.9372 38.7267 21.9001 38.755 21.8809 38.7689C21.8745 38.7734 21.8701 38.7764 21.8679 38.7779C21.5874 38.9442 21.45 39.2768 21.533 39.5935ZM38.1407 38.7816L38.1403 38.7814ZM36.2294 38.6754H23.7866C24.1289 38.0241 24.4213 37.1162 24.5049 35.8735H35.4983C35.5843 37.1121 35.8837 38.0221 36.2294 38.6754Z" fill="#222222"/>
<path fill-rule="evenodd" clip-rule="evenodd" d="M0 26.9247C0 28.2371 1.06396 29.3026 2.37793 29.3026H3.4707C3.87521 29.3026 4.20312 28.9747 4.20312 28.5702C4.20312 28.1657 3.87521 27.8378 3.4707 27.8378H2.37793C1.87354 27.8378 1.46484 27.4287 1.46484 26.9247V24.0575C1.46484 23.5535 1.87354 23.1444 2.37793 23.1444H3.4707C3.87521 23.1444 4.20312 22.8165 4.20312 22.412C4.20312 22.0075 3.87521 21.6796 3.4707 21.6796H2.37793C1.06396 21.6796 0 22.7451 0 24.0575V26.9247Z" fill="#222222"/>
<path fill-rule="evenodd" clip-rule="evenodd" d="M9.27734 22.4121C9.27734 22.8166 9.60526 23.1445 10.0098 23.1445H13.5439C13.9485 23.1445 14.2764 22.8166 14.2764 22.4121C14.2764 22.0076 13.9485 21.6797 13.5439 21.6797H10.0098C9.60526 21.6797 9.27734 22.0076 9.27734 22.4121Z" fill="#222222"/>
<path fill-rule="evenodd" clip-rule="evenodd" d="M9.27734 28.5702C9.27734 28.9747 9.60526 29.3026 10.0098 29.3026H13.5439C13.9485 29.3026 14.2764 28.9747 14.2764 28.5702C14.2764 28.1657 13.9485 27.8378 13.5439 27.8378H10.0098C9.60526 27.8378 9.27734 28.1657 9.27734 28.5702Z" fill="#222222"/>
<path fill-rule="evenodd" clip-rule="evenodd" d="M2.73828 30.1922C2.73828 32.3253 4.46756 34.0546 6.60068 34.0546H6.87979C9.0129 34.0546 10.7422 32.3253 10.7422 30.1922V20.7901C10.7422 18.657 9.0129 16.9277 6.87979 16.9277H6.60068C4.46756 16.9277 2.73828 18.657 2.73828 20.7901V30.1922ZM6.60068 32.5897C5.27658 32.5897 4.20312 31.5163 4.20312 30.1922V20.7901C4.20312 19.466 5.27658 18.3926 6.60068 18.3926H6.87979C8.20389 18.3926 9.27734 19.466 9.27734 20.7901V30.1922C9.27734 31.5163 8.20389 32.5897 6.87979 32.5897H6.60068Z" fill="#222222"/>
<path fill-rule="evenodd" clip-rule="evenodd" d="M6.82556 18.3926C7.23007 18.3926 7.55798 18.0647 7.55798 17.6602V14.0513C7.55798 13.6468 7.23007 13.3188 6.82556 13.3188C6.42106 13.3188 6.09314 13.6468 6.09314 14.0513V17.6602C6.09314 18.0647 6.42106 18.3926 6.82556 18.3926Z" fill="#222222"/>
<path d="M7.51873 25.4912C7.51873 25.9211 7.17019 26.2697 6.74021 26.2697C6.31033 26.2697 5.96179 25.9211 5.96179 25.4912C5.96179 25.0614 6.31033 24.7127 6.74021 24.7127C7.17019 24.7127 7.51873 25.0614 7.51873 25.4912Z" fill="#222222"/>
<path d="M7.51873 21.5448C7.51873 21.9747 7.17019 22.3234 6.74021 22.3234C6.31033 22.3234 5.96179 21.9747 5.96179 21.5448C5.96179 21.115 6.31033 20.7664 6.74021 20.7664C7.17019 20.7664 7.51873 21.115 7.51873 21.5448Z" fill="#222222"/>
<path d="M7.51873 29.4375C7.51873 29.8675 7.17019 30.2161 6.74021 30.2161C6.31033 30.2161 5.96179 29.8675 5.96179 29.4375C5.96179 29.0077 6.31033 28.6591 6.74021 28.6591C7.17019 28.6591 7.51873 29.0077 7.51873 29.4375Z" fill="#222222"/>
<path fill-rule="evenodd" clip-rule="evenodd" d="M2.73828 42.7623C2.73828 43.1668 3.0662 43.4948 3.4707 43.4948H8.39756C8.80206 43.4948 9.12998 43.1668 9.12998 42.7623C9.12998 42.3578 8.80206 42.0299 8.39756 42.0299H3.4707C3.0662 42.0299 2.73828 42.3578 2.73828 42.7623Z" fill="#222222"/>
<path fill-rule="evenodd" clip-rule="evenodd" d="M11.0854 42.7623C11.0854 43.1668 11.4134 43.4948 11.8179 43.4948H46.4584C46.8629 43.4948 47.1908 43.1668 47.1908 42.7623C47.1908 42.3578 46.8629 42.0299 46.4584 42.0299H11.8179C11.4134 42.0299 11.0854 42.3578 11.0854 42.7623Z" fill="#222222"/>
</g>
</svg>
