<svg width="50" height="50" viewBox="0 0 50 50" fill="none" xmlns="http://www.w3.org/2000/svg">
<g clip-path="url(#clip0_2181_1751)">
<path d="M45.227 49.2734H4.773C3.51842 49.2734 2.50131 48.2563 2.50131 47.0017V2.99831C2.50131 1.74364 3.51842 0.726624 4.773 0.726624H45.227C46.4816 0.726624 47.4987 1.74373 47.4987 2.99831V47.0017C47.4987 48.2563 46.4816 49.2734 45.227 49.2734Z" fill="#F8F3F2"/>
<path d="M10.3769 45.2786C9.12231 45.2786 8.1052 44.2616 8.1052 43.0069V0.726624H4.773C3.51842 0.726624 2.50131 1.74373 2.50131 2.99831V47.0017C2.50131 48.2564 3.51842 49.2734 4.773 49.2734H45.227C46.4816 49.2734 47.4987 48.2564 47.4987 47.0017V45.2786H10.3769Z" fill="#F2EAE7"/>
<path d="M25.5218 45.5425H24.4783C23.9146 45.5425 23.4576 45.0854 23.4576 44.5218V5.47821C23.4576 4.91453 23.9146 4.45752 24.4783 4.45752H25.5218C26.0855 4.45752 26.5425 4.91453 26.5425 5.47821V44.5219C26.5425 45.0855 26.0855 45.5425 25.5218 45.5425Z" fill="#DED4CF"/>
<path d="M13.2266 15.5317C14.8736 15.5317 16.2088 14.1965 16.2088 12.5495C16.2088 10.9025 14.8736 9.56738 13.2266 9.56738C11.5796 9.56738 10.2444 10.9025 10.2444 12.5495C10.2444 14.1965 11.5796 15.5317 13.2266 15.5317Z" fill="#A9E4F9"/>
<path d="M36.9085 15.5317C38.5555 15.5317 39.8906 14.1965 39.8906 12.5495C39.8906 10.9025 38.5555 9.56738 36.9085 9.56738C35.2615 9.56738 33.9263 10.9025 33.9263 12.5495C33.9263 14.1965 35.2615 15.5317 36.9085 15.5317Z" fill="#FFC3E5"/>
<path d="M16.6945 18.8844L18.5101 20.7001C18.7919 20.9819 18.9629 21.3558 18.9915 21.7533L19.5081 28.9118C19.529 29.2002 19.3393 29.4618 19.0587 29.5316L16.3854 30.1973L15.3401 39.7912C15.2955 40.2003 14.95 40.5102 14.5385 40.5102H11.9148C11.5032 40.5102 11.1577 40.2002 11.1131 39.7912L10.0678 30.1973L7.39456 29.5316C7.11398 29.4618 6.92427 29.2002 6.9451 28.9118L7.4617 21.7533C7.49038 21.3558 7.66129 20.9819 7.94313 20.7001L9.75877 18.8844C10.0698 18.5734 10.4916 18.3987 10.9314 18.3987H15.5219C15.9617 18.3987 16.3835 18.5734 16.6945 18.8844Z" fill="#A9E4F9"/>
<path d="M39.1024 18.8792L42.0205 33.3543C42.1196 33.8457 41.7438 34.3047 41.2425 34.3047H38.9546V39.475C38.9546 40.0467 38.4911 40.5102 37.9194 40.5102H35.8975C35.3257 40.5102 34.8622 40.0467 34.8622 39.475V34.3047H32.5744C32.0731 34.3047 31.6973 33.8457 31.7964 33.3543L34.7144 18.8792C34.7707 18.5998 35.0163 18.3987 35.3013 18.3987H38.5153C38.8006 18.3987 39.0462 18.5997 39.1024 18.8792Z" fill="#FFC3E5"/>
<path d="M24.4782 3.7309C23.5147 3.7309 22.7308 4.5148 22.7308 5.47824V44.5218C22.7308 45.4852 23.5147 46.2691 24.4782 46.2691H25.5217C26.4852 46.2691 27.2691 45.4852 27.2691 44.5218V5.47824C27.2691 4.5148 26.4852 3.7309 25.5217 3.7309H24.4782ZM25.8159 5.47824V44.5218C25.8159 44.684 25.684 44.8158 25.5218 44.8158H24.4783C24.3161 44.8158 24.1842 44.684 24.1842 44.5218V5.47824C24.1842 5.31605 24.3161 5.18419 24.4783 5.18419H25.5218C25.684 5.18419 25.8159 5.31605 25.8159 5.47824Z" fill="#222222"/>
<path d="M16.9354 12.5494C16.9354 10.5045 15.2716 8.84064 13.2266 8.84064C11.1816 8.84064 9.51779 10.5045 9.51779 12.5494C9.51779 14.5945 11.1816 16.2583 13.2266 16.2583C15.2716 16.2583 16.9354 14.5946 16.9354 12.5494ZM10.971 12.5494C10.971 11.3057 11.9828 10.2939 13.2265 10.2939C14.4702 10.2939 15.482 11.3057 15.482 12.5494C15.482 13.7932 14.4702 14.805 13.2265 14.805C11.9828 14.805 10.971 13.7932 10.971 12.5494Z" fill="#222222"/>
<path d="M36.9084 8.84064C34.8635 8.84064 33.1996 10.5045 33.1996 12.5494C33.1996 14.5945 34.8635 16.2583 36.9084 16.2583C38.9534 16.2583 40.6172 14.5945 40.6172 12.5494C40.6173 10.5045 38.9535 8.84064 36.9084 8.84064ZM36.9084 14.8051C35.6647 14.8051 34.6529 13.7933 34.6529 12.5495C34.6529 11.3058 35.6647 10.294 36.9084 10.294C38.1522 10.294 39.164 11.3058 39.164 12.5495C39.164 13.7933 38.1522 14.8051 36.9084 14.8051Z" fill="#222222"/>
<path d="M7.42912 20.1864C7.02384 20.5918 6.77794 21.1297 6.73677 21.7011L6.22017 28.8596C6.17376 29.5019 6.59376 30.0811 7.21887 30.2369L9.40026 30.78L10.3907 39.87C10.4758 40.6492 11.131 41.2368 11.9147 41.2368H14.5384C15.3222 41.2368 15.9775 40.6492 16.0624 39.8699L17.0529 30.78L19.2344 30.2369C19.8593 30.0812 20.2793 29.5019 20.233 28.8596L19.7164 21.7012C19.6752 21.1298 19.4293 20.5918 19.0241 20.1863L17.2084 18.3707C16.7579 17.9202 16.1589 17.6721 15.5219 17.6721H10.9314C10.2943 17.6721 9.69538 17.9202 9.24486 18.3707L7.42912 20.1864ZM10.9313 19.1253H15.5218C15.7706 19.1253 16.0046 19.2222 16.1806 19.3982L17.9963 21.2138C18.1546 21.3722 18.2507 21.5823 18.2668 21.8056L18.7753 28.8533L16.2098 29.4921C15.9143 29.5657 15.696 29.8157 15.663 30.1185L14.6177 39.7122C14.6132 39.7528 14.5792 39.7835 14.5384 39.7835H11.9147C11.874 39.7835 11.84 39.7528 11.8355 39.7123L10.7902 30.1186C10.7572 29.8158 10.5389 29.5658 10.2434 29.4922L7.67782 28.8534L8.18638 21.8056C8.20246 21.5823 8.29857 21.3722 8.45688 21.214L10.2725 19.3983C10.4485 19.2222 10.6825 19.1253 10.9313 19.1253Z" fill="#222222"/>
<path d="M35.4062 19.1253H38.4109L39.2302 23.1903C39.3095 23.5836 39.6921 23.8382 40.0862 23.759C40.4797 23.6796 40.7342 23.2965 40.655 22.903L39.8148 18.7354C39.6905 18.1193 39.144 17.6719 38.5155 17.6719H35.3015C34.6728 17.6719 34.1263 18.1193 34.0022 18.7355L31.0841 33.2106C30.9937 33.6594 31.1082 34.1199 31.3981 34.474C31.6881 34.828 32.1168 35.0312 32.5745 35.0312H34.1357V39.4748C34.1357 40.4463 34.926 41.2368 35.8976 41.2368H37.9195C38.891 41.2368 39.6814 40.4464 39.6814 39.4748V35.0312H41.2427C41.7004 35.0312 42.1291 34.828 42.4191 34.4739C42.7089 34.1197 42.8235 33.6592 42.733 33.2104L41.2681 25.9444C41.1888 25.5509 40.8053 25.2963 40.4122 25.3756C40.0187 25.455 39.7642 25.8382 39.8434 26.2316L41.3083 33.4977C41.3099 33.5054 41.3146 33.5288 41.2944 33.5534C41.2743 33.5779 41.2505 33.5779 41.2427 33.5779H38.9548C38.5534 33.5779 38.2282 33.9032 38.2282 34.3046V39.4748C38.2282 39.645 38.0897 39.7835 37.9195 39.7835H35.8976C35.7274 39.7835 35.589 39.645 35.589 39.4748V34.3046C35.589 33.9032 35.2637 33.5779 34.8623 33.5779H32.5745C32.5666 33.5779 32.5428 33.5779 32.5226 33.5534C32.5025 33.5287 32.5072 33.5053 32.5088 33.4977L35.4062 19.1253Z" fill="#222222"/>
<path d="M45.227 0H41.0107C40.6093 0 40.2841 0.325247 40.2841 0.726646C40.2841 1.12804 40.6093 1.45329 41.0107 1.45329H45.227C46.0789 1.45329 46.772 2.14641 46.772 2.99833V47.0017C46.772 47.8536 46.0789 48.5467 45.227 48.5467H4.77308C3.92116 48.5467 3.22804 47.8536 3.22804 47.0017V42.1198C3.22804 41.7184 2.90279 41.3931 2.5014 41.3931C2.1 41.3931 1.77475 41.7184 1.77475 42.1198V47.0017C1.77475 48.6549 3.11982 50 4.77308 50H45.227C46.8803 50 48.2253 48.6549 48.2253 47.0017V2.99833C48.2253 1.34507 46.8803 0 45.227 0Z" fill="#222222"/>
<path d="M2.5013 39.7497C2.9027 39.7497 3.22795 39.4245 3.22795 39.0231V2.99833C3.22795 2.14641 3.92117 1.45329 4.77309 1.45329H37.914C38.3154 1.45329 38.6407 1.12804 38.6407 0.726646C38.6407 0.325247 38.3154 0 37.914 0H4.77309C3.11973 0 1.77466 1.34507 1.77466 2.99833V39.0231C1.77466 39.4245 2.1 39.7497 2.5013 39.7497Z" fill="#222222"/>
</g>
<defs>
<clipPath id="clip0_2181_1751">
<rect width="50" height="50" fill="white"/>
</clipPath>
</defs>
</svg>
