<svg width="50" height="50" viewBox="0 0 50 50" fill="none" xmlns="http://www.w3.org/2000/svg">
<g clip-path="url(#clip0_2184_1977)">
<path d="M10.6929 26.5615H1.9035C1.08306 26.5615 0.438599 27.206 0.438599 28.0264V45.6053C0.438599 46.4257 1.08306 47.0702 1.9035 47.0702H10.6929C11.5134 47.0702 12.1578 46.4257 12.1578 45.6053V28.0264C12.1578 27.206 11.5134 26.5615 10.6929 26.5615ZM6.29821 35.3509C5.47777 35.3509 4.83331 34.7065 4.83331 33.886C4.83331 33.0656 5.47777 32.4211 6.29821 32.4211C7.11866 32.4211 7.76312 33.0656 7.76312 33.886C7.76312 34.7065 7.11866 35.3509 6.29821 35.3509Z" fill="white"/>
<path d="M36.5893 15.1411C36.3619 14.9766 36.2502 14.702 36.2989 14.4259L37.0943 9.78224L33.7196 6.49333C33.5222 6.30163 33.4491 6.00698 33.535 5.74369C33.6223 5.47757 33.8483 5.28586 34.1272 5.24582L38.788 4.56777L40.8738 0.343276C40.9983 0.0901404 41.2945 0 41.5305 0C41.7666 0 42.0627 0.0901404 42.1857 0.341909L44.2729 4.56777L48.9338 5.24582C49.2127 5.28586 49.4388 5.47757 49.526 5.74506C49.6118 6.00689 49.5389 6.30153 49.3414 6.49324L45.9666 9.78214L46.7621 14.4258C46.8107 14.7019 46.6991 14.9766 46.4716 15.1411C46.2508 15.3009 45.9521 15.3295 45.7034 15.1983L41.5305 13.0067L37.3604 15.1969C37.1125 15.3276 36.817 15.3049 36.5893 15.1411Z" fill="white"/>
<path d="M20.4767 15.1426C20.2478 14.9767 20.1363 14.702 20.1849 14.4259L20.9804 9.78224L17.6056 6.49333C17.4082 6.30163 17.3352 6.00698 17.421 5.74369C17.5083 5.47757 17.7343 5.28586 18.0132 5.24582L22.6741 4.56777L24.7598 0.343276C24.8843 0.0901404 25.1805 0 25.4166 0C25.6526 0 25.9487 0.0901404 26.0718 0.341909L28.159 4.56777L32.8198 5.24582C33.0987 5.28586 33.3248 5.47757 33.412 5.74506C33.4979 6.00689 33.4249 6.30153 33.2274 6.49324L29.8527 9.78214L30.6481 14.4258C30.6968 14.7019 30.5851 14.9766 30.3577 15.1411C30.1369 15.3009 29.8381 15.3295 29.5895 15.1983L25.4166 13.0067L21.2465 15.1969C20.9919 15.3311 20.6943 15.2995 20.4767 15.1426Z" fill="white"/>
<path d="M4.36143 15.1411C4.13398 14.9766 4.02235 14.702 4.07099 14.4259L4.86643 9.78224L1.49168 6.49333C1.29431 6.30163 1.22126 6.00698 1.3071 5.74369C1.39441 5.47757 1.6204 5.28586 1.89931 5.24582L6.56015 4.56777L8.64598 0.343373C8.7704 0.0901404 9.0666 0 9.30265 0C9.53869 0 9.8348 0.0901404 9.95785 0.341909L12.045 4.56777L16.7059 5.24582C16.9848 5.28586 17.2109 5.47757 17.2981 5.74506C17.3839 6.00689 17.311 6.30153 17.1135 6.49324L13.7388 9.78214L14.5342 14.4258C14.5828 14.7019 14.4712 14.9766 14.2438 15.1411C14.023 15.3009 13.7242 15.3295 13.4756 15.1983L9.30265 13.0067L5.13255 15.1969C4.88459 15.3276 4.58917 15.3049 4.36143 15.1411Z" fill="white"/>
<path d="M44.0634 38.105C44.2685 38.603 44.3857 39.1597 44.3857 39.7457C44.3857 41.7672 43.0088 43.4666 41.1336 43.9646C41.3387 44.4626 41.4559 45.0193 41.4559 45.6053C41.4559 48.0371 39.493 50 37.0612 50H29.4729C26.4553 50 23.5255 48.7696 21.3868 46.6306C19.7753 45.0486 17.578 44.1404 15.3514 44.1404H15.0876V29.4914H16.5818C19.2479 29.4327 21.9141 28.7002 24.2579 27.382C29.7367 24.2471 29.7367 22.6355 29.7367 19.4715C29.7367 19.0906 29.8832 18.5926 30.1763 18.3289C30.4398 18.036 30.8207 17.7722 31.2016 17.7722C34.3072 17.7722 36.8267 19.2371 37.9401 21.7274C38.9657 24.0127 38.5848 26.796 37.0026 29.4914H42.9209C45.3528 29.4914 47.3156 31.4543 47.3156 33.8862C47.3155 35.9076 45.9386 37.607 44.0634 38.105Z" fill="white"/>
</g>
<defs>
<clipPath id="clip0_2184_1977">
<rect width="50" height="50" fill="white"/>
</clipPath>
</defs>
</svg>
