<svg width="50" height="50" viewBox="0 0 50 50" fill="none" xmlns="http://www.w3.org/2000/svg">
<g clip-path="url(#clip0_2184_1984)">
<path d="M36.2828 21.0442H31.7579L28.5976 17.884L28.6025 17.8707C30.7659 17.4707 32.4049 15.5755 32.4049 13.2964C32.4049 10.7264 30.3215 8.64294 27.7515 8.64294C25.1814 8.64294 23.0981 10.7264 23.0981 13.2964C23.0981 14.3631 23.4579 15.3455 24.0617 16.1303H18.2784C17.663 16.1303 17.0728 16.3749 16.6378 16.81L12.0524 21.3953C11.1464 22.3013 11.1463 23.7704 12.0524 24.6765C12.9585 25.5826 14.4276 25.5827 15.3338 24.6765L19.2396 20.7709H22.5875L19.2895 33.5883L15.0037 31.9881C13.8032 31.54 12.4667 32.1498 12.0185 33.3503C11.5703 34.5508 12.1801 35.8873 13.3806 36.3355L20.1088 38.8475C21.4033 39.3306 22.841 38.5808 23.1735 37.2275L24.1678 33.1822L33.277 42.2914C34.183 43.1974 35.6522 43.1976 36.5584 42.2914C37.4644 41.3853 37.4644 39.9163 36.5584 39.0102L25.5878 28.0397L26.8297 22.6785L29.1562 25.005C29.5913 25.4401 30.1815 25.6846 30.7968 25.6846H36.2828C37.5642 25.6846 38.6029 24.6459 38.6029 23.3645C38.6029 22.0831 37.5642 21.0442 36.2828 21.0442Z" fill="white"/>
<path d="M41.3509 28.0688C41.941 28.659 42.898 28.6591 43.4884 28.0688C46.0131 25.544 46.0131 21.4361 43.4884 18.9115C42.8982 18.3213 41.9412 18.3213 41.3509 18.9115C40.7607 19.5017 40.7607 20.4587 41.3509 21.049C42.6969 22.395 42.6969 24.5852 41.3509 25.9313C40.7607 26.5217 40.7607 27.4787 41.3509 28.0688Z" fill="white"/>
<path d="M47.152 30.3656C48.9887 28.5291 50 26.0873 50 23.4902C50 20.893 48.9887 18.4512 47.152 16.6148C46.5619 16.0245 45.6048 16.0247 45.0146 16.6148C44.4243 17.2051 44.4243 18.162 45.0146 18.7523C46.2802 20.0179 46.9771 21.7005 46.9771 23.4903C46.9771 25.2801 46.2802 26.9627 45.0146 28.2282C44.4243 28.8184 44.4243 29.7754 45.0146 30.3657C45.6049 30.956 46.5619 30.9559 47.152 30.3656Z" fill="white"/>
<path d="M8.64918 18.9116C8.05891 18.3213 7.10197 18.3213 6.5117 18.9116C5.28864 20.1345 4.61514 21.7605 4.61514 23.4901C4.61514 25.2197 5.28874 26.8458 6.5117 28.0688C7.10197 28.6591 8.05891 28.659 8.64918 28.0688C9.23945 27.4786 9.23945 26.5216 8.64918 25.9313C7.99714 25.2792 7.63803 24.4123 7.63803 23.49C7.63803 22.568 7.99714 21.701 8.64918 21.0489C9.23935 20.4588 9.23935 19.5018 8.64918 18.9116Z" fill="white"/>
<path d="M2.84796 16.6148C1.01146 18.4512 0 20.893 0 23.4901C0 26.0873 1.01146 28.5292 2.84796 30.3656C3.43803 30.9557 4.39507 30.9559 4.98544 30.3656C5.57571 29.7754 5.57571 28.8184 4.98544 28.2281C3.71986 26.9626 3.02288 25.28 3.02288 23.4901C3.02288 21.7004 3.71986 20.0177 4.98544 18.7522C5.57571 18.162 5.57571 17.205 4.98544 16.6147C4.39517 16.0244 3.43823 16.0244 2.84796 16.6148Z" fill="white"/>
<path d="M9.37215 0.0202637H1.57855C0.743831 0.0202637 0.0671082 0.696986 0.0671082 1.53171V9.3253C0.0671082 10.16 0.743831 10.8367 1.57855 10.8367C2.41327 10.8367 3.08999 10.16 3.08999 9.3253V3.04315H9.37215C10.2069 3.04315 10.8836 2.36642 10.8836 1.53171C10.8836 0.696986 10.2069 0.0202637 9.37215 0.0202637Z" fill="white"/>
<path d="M40.6278 3.04315H46.91V9.3253C46.91 10.16 47.5867 10.8367 48.4214 10.8367C49.2562 10.8367 49.9329 10.16 49.9329 9.3253V1.53171C49.9329 0.696986 49.2562 0.0202637 48.4214 0.0202637H40.6278C39.7931 0.0202637 39.1164 0.696986 39.1164 1.53171C39.1164 2.36642 39.7931 3.04315 40.6278 3.04315Z" fill="white"/>
<path d="M48.4214 39.1633C47.5867 39.1633 46.91 39.8401 46.91 40.6748V46.9569H40.6278C39.7931 46.9569 39.1164 47.6337 39.1164 48.4684C39.1164 49.3031 39.7931 49.9798 40.6278 49.9798H48.4214C49.2562 49.9798 49.9329 49.3031 49.9329 48.4684V40.6748C49.9329 39.8401 49.2562 39.1633 48.4214 39.1633Z" fill="white"/>
<path d="M9.37215 46.9569H3.08999V40.6748C3.08999 39.8401 2.41327 39.1633 1.57855 39.1633C0.743831 39.1633 0.0671082 39.8401 0.0671082 40.6748V48.4684C0.0671082 49.3031 0.743831 49.9798 1.57855 49.9798H9.37215C10.2069 49.9798 10.8836 49.3031 10.8836 48.4684C10.8836 47.6337 10.2069 46.9569 9.37215 46.9569Z" fill="white"/>
</g>
<defs>
<clipPath id="clip0_2184_1984">
<rect width="50" height="50" fill="white"/>
</clipPath>
</defs>
</svg>
