<svg width="50" height="50" viewBox="0 0 50 50" fill="none" xmlns="http://www.w3.org/2000/svg">
<g clip-path="url(#clip0_2176_329)">
<path d="M0.833374 37.0834H49.1667V43.75H0.833374V37.0834Z" fill="#D3843D"/>
<path d="M44.1667 33.75H23.3334L20.8334 30.4167V20.4167L23.3334 17.0834H44.1667V33.75Z" fill="#FF737A"/>
<path d="M44.1666 20.4166H47.5V30.4166H44.1666V20.4166Z" fill="#87CEE9"/>
<path d="M39.1667 13.75H25.8334V10.4167L27.5 9.58337H37.5L39.1667 10.4167V13.75Z" fill="#FF737A"/>
<path d="M30 6.25H35V9.58333H30V6.25Z" fill="#FFD782"/>
<path d="M30 13.75H35V17.0833H30V13.75Z" fill="#FFD782"/>
<path d="M25 19.5834H40V21.25H25V19.5834Z" fill="#FF737A"/>
<path d="M25 22.9167H40V24.5834H25V22.9167Z" fill="#FF737A"/>
<path d="M25 26.25H40V27.9167H25V26.25Z" fill="#FF737A"/>
<path d="M25 29.5834H40V31.25H25V29.5834Z" fill="#FF737A"/>
<path d="M25.8334 33.75H29.1667V37.0833H25.8334V33.75Z" fill="#195C85"/>
<path d="M35.8334 33.75H39.1667V37.0833H35.8334V33.75Z" fill="#195C85"/>
<path d="M12.5 31.25H15.8333V37.0833H12.5V31.25Z" fill="#87CEE9"/>
<path d="M15.8333 31.25H9.16667L7.5 29.5834V21.25L9.16667 19.5834H15.8333V31.25Z" fill="#FF737A"/>
<path d="M12.5 13.75H15.8333V19.5833H12.5V13.75Z" fill="#87CEE9"/>
<path d="M15.8334 22.9166H20.8334V27.9166H15.8334V22.9166Z" fill="#87CEE9"/>
<path d="M2.5 23.75H7.5V27.0833H2.5V23.75Z" fill="#87CEE9"/>
<path d="M1.66663 22.9166H3.33329V31.25H1.66663V22.9166Z" fill="#FF737A"/>
<path d="M10 12.9166H18.3333V14.5833H10V12.9166Z" fill="#FF737A"/>
<path d="M5 39.5834H8.33333V41.25H5V39.5834Z" fill="#FFD782"/>
<path d="M10.8334 39.5834H12.5V41.25H10.8334V39.5834Z" fill="#FFD782"/>
<path d="M43.3334 39.5834H45V41.25H43.3334V39.5834Z" fill="#FFD782"/>
<path d="M11.6666 22.0834H13.3333V23.75H11.6666V22.0834Z" fill="#FF737A"/>
<path d="M49.1667 36.25H40V34.5833H44.1667C44.6269 34.5833 45 34.2102 45 33.75V31.25H47.5C47.9602 31.25 48.3333 30.8768 48.3333 30.4166V20.4166C48.3333 19.9564 47.9602 19.5833 47.5 19.5833H45V17.0833C45 16.6231 44.6269 16.25 44.1667 16.25H35.8333V14.5833H39.1667C39.6269 14.5833 40 14.2102 40 13.75V10.4166C40 10.1009 39.8218 9.81197 39.539 9.67078L37.8723 8.83744C37.7568 8.77966 37.6294 8.74996 37.5 8.74996H35.8333V6.24996C35.8333 5.78975 35.4602 5.41663 35 5.41663H30C29.5398 5.41663 29.1667 5.78975 29.1667 6.24996V8.74996H27.5C27.3706 8.74996 27.2432 8.77966 27.1277 8.83744L25.461 9.67078C25.1782 9.81197 25 10.1009 25 10.4166V13.75C25 14.2102 25.3731 14.5833 25.8333 14.5833H29.1667V16.25H23.3333C23.0709 16.25 22.8239 16.3737 22.6668 16.5832L20.1668 19.9165C20.0586 20.061 20 20.2364 20 20.4166V22.0833H16.6667V14.5833H18.3333V12.9166H10V14.5833H11.6667V18.75H9.16667C8.94572 18.75 8.73372 18.8379 8.57747 18.9941L6.91081 20.6608C6.75456 20.817 6.66667 21.029 6.66667 21.25V22.9166H1.66667V31.25H3.33333V27.9166H6.66667V29.5833C6.66667 29.8042 6.75456 30.0162 6.91081 30.1725L8.57747 31.8392C8.73372 31.9954 8.94572 32.0833 9.16667 32.0833H11.6667V36.25H0.833333C0.373128 36.25 0 36.6231 0 37.0833V43.75C0 44.2102 0.373128 44.5833 0.833333 44.5833H49.1667C49.6269 44.5833 50 44.2102 50 43.75V37.0833C50 36.6231 49.6269 36.25 49.1667 36.25ZM38.3333 36.25H36.6667V34.5833H38.3333V36.25ZM30 36.25V34.5833H35V36.25H30ZM16.6667 36.25V28.75H20V30.4166C20 30.5969 20.0586 30.7723 20.1668 30.9167L22.6668 34.25C22.8239 34.4596 23.0709 34.5833 23.3333 34.5833H25V36.25H16.6667ZM26.6667 34.5833H28.3333V36.25H26.6667V34.5833ZM46.6667 21.25V29.5833H45V21.25H46.6667ZM30.8333 7.08329H34.1667V8.74996H30.8333V7.08329ZM26.6667 10.9318L27.6965 10.4166H37.3035L38.3333 10.9318V12.9166H26.6667V10.9318ZM30.8333 14.5833H34.1667V16.25H30.8333V14.5833ZM21.6667 20.6941L23.75 17.9166H43.3333V32.9166H23.75L21.6667 30.1391V20.6941ZM20 23.75V27.0833H16.6667V23.75H20ZM13.3333 14.5833H15V18.75H13.3333V14.5833ZM3.33333 26.25V24.5833H6.66667V26.25H3.33333ZM8.33333 29.2382V21.595L9.51172 20.4166H15V30.4166H9.51172L8.33333 29.2382ZM13.3333 32.0833H15V36.25H13.3333V32.0833ZM48.3333 42.9166H1.66667V37.9166H48.3333V42.9166Z" fill="#222222"/>
<path d="M25 19.5834H40V21.25H25V19.5834Z" fill="#222222"/>
<path d="M25 22.9166H40V24.5833H25V22.9166Z" fill="#222222"/>
<path d="M25 26.25H40V27.9167H25V26.25Z" fill="#222222"/>
<path d="M25 29.5834H40V31.25H25V29.5834Z" fill="#222222"/>
<path d="M5 39.5834H8.33333V41.25H5V39.5834Z" fill="#222222"/>
<path d="M10.8334 39.5834H12.5V41.25H10.8334V39.5834Z" fill="#222222"/>
<path d="M43.3334 39.5834H45V41.25H43.3334V39.5834Z" fill="#222222"/>
<path d="M11.6666 22.0834H13.3333V23.75H11.6666V22.0834Z" fill="#222222"/>
</g>
<defs>
<clipPath id="clip0_2176_329">
<rect width="50" height="50" fill="white"/>
</clipPath>
</defs>
</svg>
