<svg width="24" height="24" viewBox="0 0 24 24" fill="none" xmlns="http://www.w3.org/2000/svg">
<g clip-path="url(#clip0_812_1111)">
<path d="M22.3448 2.27586H1.65517C0.741046 2.27586 0 3.01691 0 3.93104V11.3793C0 12.2934 0.741046 13.0345 1.65517 13.0345H22.3448C23.259 13.0345 24 12.2934 24 11.3793V3.93104C24 3.01691 23.259 2.27586 22.3448 2.27586Z" fill="#3B97D3"/>
<path d="M2.48274 5.5862C2.9398 5.5862 3.31032 5.21568 3.31032 4.75862C3.31032 4.30155 2.9398 3.93103 2.48274 3.93103C2.02567 3.93103 1.65515 4.30155 1.65515 4.75862C1.65515 5.21568 2.02567 5.5862 2.48274 5.5862Z" fill="#65DDB9"/>
<path d="M5.79304 5.5862C6.2501 5.5862 6.62063 5.21568 6.62063 4.75862C6.62063 4.30155 6.2501 3.93103 5.79304 3.93103C5.33598 3.93103 4.96545 4.30155 4.96545 4.75862C4.96545 5.21568 5.33598 5.5862 5.79304 5.5862Z" fill="#65DDB9"/>
<path d="M21.5172 5.5862C21.9742 5.5862 22.3447 5.21568 22.3447 4.75862C22.3447 4.30155 21.9742 3.93103 21.5172 3.93103C21.0601 3.93103 20.6896 4.30155 20.6896 4.75862C20.6896 5.21568 21.0601 5.5862 21.5172 5.5862Z" fill="#65DDB9"/>
<path d="M1.65515 8.89655H22.3448V11.3793H1.65515V8.89655Z" fill="#BDC3C7"/>
<path d="M11.1725 21.7241C11.0199 21.724 10.8798 21.6399 10.8079 21.5054C10.736 21.3708 10.7439 21.2076 10.8286 21.0807L11.7803 19.6506C12.0998 19.1741 12.0725 18.5451 11.7129 18.0981C11.0822 17.3165 11.0822 16.2008 11.7129 15.4192L12.5032 14.431C12.5956 14.3156 12.7426 14.2582 12.8888 14.2805C13.035 14.3028 13.1582 14.4014 13.212 14.5391C13.2658 14.6768 13.242 14.8328 13.1496 14.9483L12.3592 15.936C11.9719 16.416 11.9719 17.1012 12.3592 17.5812C12.9449 18.3095 12.9893 19.3338 12.4689 20.1099L11.5172 21.54C11.4403 21.6552 11.3109 21.7243 11.1725 21.7241Z" fill="#A5A5A4"/>
<path d="M8.27587 21.7241C8.1233 21.724 7.98318 21.6399 7.91127 21.5054C7.83936 21.3708 7.84733 21.2076 7.93201 21.0807L8.88373 19.6506C9.20321 19.1741 9.17589 18.5451 8.81628 18.0981C8.18564 17.3165 8.18564 16.2008 8.81628 15.4192L9.60663 14.431C9.69902 14.3156 9.846 14.2582 9.99219 14.2805C10.1384 14.3028 10.2616 14.4014 10.3154 14.5391C10.3691 14.6768 10.3454 14.8328 10.253 14.9483L9.46263 15.936C9.07533 16.416 9.07533 17.1012 9.46263 17.5812C10.0483 18.3095 10.0927 19.3338 9.57228 20.1099L8.62056 21.54C8.54371 21.6552 8.41434 21.7243 8.27587 21.7241Z" fill="#A5A5A4"/>
<path d="M14.069 21.7241C13.9164 21.724 13.7763 21.6399 13.7044 21.5054C13.6325 21.3708 13.6404 21.2076 13.7251 21.0807L14.6768 19.6506C14.9963 19.1741 14.969 18.5451 14.6094 18.0981C13.9787 17.3165 13.9787 16.2008 14.6094 15.4192L15.3997 14.431C15.4921 14.3156 15.6391 14.2582 15.7853 14.2805C15.9315 14.3028 16.0547 14.4014 16.1084 14.5391C16.1622 14.6768 16.1385 14.8328 16.0461 14.9483L15.2557 15.936C14.8684 16.416 14.8684 17.1012 15.2557 17.5812C15.8414 18.3095 15.8858 19.3338 15.3654 20.1099L14.4136 21.54C14.3368 21.6552 14.2074 21.7243 14.069 21.7241Z" fill="#A5A5A4"/>
<path d="M22.3448 8.06896V9.31034H1.65515V8.06896C1.65651 7.61247 2.02624 7.24274 2.48274 7.24138H21.5172C21.9737 7.24274 22.3434 7.61247 22.3448 8.06896Z" fill="#ECF0F1"/>
<path d="M1.65515 10.9655H22.3448V13.0345H1.65515V10.9655Z" fill="#285680"/>
</g>
<defs>
<clipPath id="clip0_812_1111">
<rect width="24" height="24" fill="white"/>
</clipPath>
</defs>
</svg>
