<svg width="24" height="24" viewBox="0 0 24 24" fill="none" xmlns="http://www.w3.org/2000/svg">
<g clip-path="url(#clip0_812_1084)">
<path d="M2.89655 14.8966C4.49627 14.8966 5.7931 13.5997 5.7931 12C5.7931 10.4003 4.49627 9.10345 2.89655 9.10345C1.29683 9.10345 0 10.4003 0 12C0 13.5997 1.29683 14.8966 2.89655 14.8966Z" fill="#228BE6"/>
<path d="M21.1035 14.8966C22.7032 14.8966 24 13.5997 24 12C24 10.4003 22.7032 9.10345 21.1035 9.10345C19.5037 9.10345 18.2069 10.4003 18.2069 12C18.2069 13.5997 19.5037 14.8966 21.1035 14.8966Z" fill="#228BE6"/>
<path d="M11.9999 14.8966C13.5997 14.8966 14.8965 13.5997 14.8965 12C14.8965 10.4003 13.5997 9.10345 11.9999 9.10345C10.4002 9.10345 9.10339 10.4003 9.10339 12C9.10339 13.5997 10.4002 14.8966 11.9999 14.8966Z" fill="#228BE6"/>
<path d="M2.89655 14.8966C4.49627 14.8966 5.7931 13.5997 5.7931 12C5.7931 10.4003 4.49627 9.10345 2.89655 9.10345C1.29683 9.10345 0 10.4003 0 12C0 13.5997 1.29683 14.8966 2.89655 14.8966Z" fill="#228BE6"/>
<path d="M21.1035 14.8966C22.7032 14.8966 24 13.5997 24 12C24 10.4003 22.7032 9.10345 21.1035 9.10345C19.5037 9.10345 18.2069 10.4003 18.2069 12C18.2069 13.5997 19.5037 14.8966 21.1035 14.8966Z" fill="#228BE6"/>
<path d="M11.9999 14.8966C13.5997 14.8966 14.8965 13.5997 14.8965 12C14.8965 10.4003 13.5997 9.10345 11.9999 9.10345C10.4002 9.10345 9.10339 10.4003 9.10339 12C9.10339 13.5997 10.4002 14.8966 11.9999 14.8966Z" fill="#228BE6"/>
</g>
<defs>
<clipPath id="clip0_812_1084">
<rect width="24" height="24" fill="white"/>
</clipPath>
</defs>
</svg>
