<svg width="29" height="11" viewBox="0 0 29 11" fill="none" xmlns="http://www.w3.org/2000/svg">
<path d="M16.192 0.199999L11.012 10H8.59L7.736 3.406L4.194 10H1.758L0.512 0.199999H2.752L3.62 7.088L7.302 0.199999H9.402L10.242 7.144L13.938 0.199999H16.192ZM17.4441 0.199999H19.7261L17.7661 10H15.4841L17.4441 0.199999ZM23.4939 10.168C22.7192 10.168 21.9772 10.0653 21.2679 9.86C20.5585 9.65467 19.9892 9.39333 19.5599 9.076L20.4839 7.326C20.9319 7.65267 21.4359 7.90467 21.9959 8.082C22.5559 8.25933 23.1299 8.348 23.7179 8.348C24.3432 8.348 24.8379 8.24533 25.2019 8.04C25.5659 7.83467 25.7479 7.55467 25.7479 7.2C25.7479 6.91067 25.6032 6.69133 25.3139 6.542C25.0245 6.38333 24.5625 6.21533 23.9279 6.038C23.2932 5.85133 22.7752 5.674 22.3739 5.506C21.9725 5.32867 21.6225 5.06733 21.3239 4.722C21.0345 4.37667 20.8899 3.91933 20.8899 3.35C20.8899 2.68733 21.0719 2.104 21.4359 1.6C21.8092 1.096 22.3319 0.708666 23.0039 0.438C23.6852 0.167333 24.4739 0.0319998 25.3699 0.0319998C26.0325 0.0319998 26.6579 0.106666 27.2459 0.255999C27.8339 0.395999 28.3379 0.601333 28.7579 0.872L27.9039 2.608C27.5399 2.356 27.1292 2.16933 26.6719 2.048C26.2145 1.91733 25.7385 1.852 25.2439 1.852C24.5999 1.852 24.0912 1.964 23.7179 2.188C23.3445 2.412 23.1579 2.70133 23.1579 3.056C23.1579 3.27067 23.2372 3.45267 23.3959 3.602C23.5545 3.742 23.7552 3.85867 23.9979 3.952C24.2405 4.036 24.5812 4.13867 25.0199 4.26C25.6452 4.428 26.1585 4.60067 26.5599 4.778C26.9612 4.946 27.3019 5.198 27.5819 5.534C27.8712 5.86067 28.0159 6.29467 28.0159 6.836C28.0159 7.508 27.8292 8.096 27.4559 8.6C27.0825 9.09467 26.5552 9.482 25.8739 9.762C25.1925 10.0327 24.3992 10.168 23.4939 10.168Z" fill="black"/>
</svg>
