<svg width="30" height="30" viewBox="0 0 30 30" fill="none" xmlns="http://www.w3.org/2000/svg">
<g clip-path="url(#clip0_6982_1076)">
<path d="M19.375 18.75H24.375V21.25H19.375V18.75ZM30 17.5V30H0V17.5C0 15.4325 1.6825 13.75 3.75 13.75H6.25V3.75C6.25 1.6825 7.9325 0 10 0H20C22.0675 0 23.75 1.6825 23.75 3.75V13.75H26.25C28.3175 13.75 30 15.4325 30 17.5ZM8.75 13.75H21.25V3.75C21.25 3.06 20.69 2.5 20 2.5H10C9.31 2.5 8.75 3.06 8.75 3.75V13.75ZM2.5 27.5H13.75V16.25H3.75C3.06 16.25 2.5 16.81 2.5 17.5V27.5ZM27.5 17.5C27.5 16.81 26.94 16.25 26.25 16.25H16.25V27.5H27.5V17.5ZM5.625 18.75V21.25H10.625V18.75H5.625ZM12.5 7.5H17.5V5H12.5V7.5Z" fill="#1E538F"/>
</g>
<defs>
<clipPath id="clip0_6982_1076">
<rect width="30" height="30" fill="white"/>
</clipPath>
</defs>
</svg>
