<svg width="20" height="20" viewBox="0 0 20 20" fill="none" xmlns="http://www.w3.org/2000/svg">
<path d="M18.9675 11.6425L16.93 12.1808C16.6324 12.2602 16.3542 12.3998 16.1125 12.5908L13.9317 11.3225C14.2384 10.4675 14.2384 9.53249 13.9317 8.6775L16.1125 7.40916C16.3542 7.60021 16.6324 7.73975 16.93 7.81916C16.93 7.81916 19.1109 8.385 19.18 8.385C19.38 8.38169 19.572 8.30659 19.7212 8.17342C19.8704 8.04025 19.9667 7.85788 19.9925 7.6596C20.0184 7.46132 19.9721 7.26034 19.8621 7.09335C19.7521 6.92637 19.5857 6.8045 19.3934 6.75L17.3567 6.21083C17.2042 6.17034 17.0739 6.07101 16.9946 5.93462C16.9152 5.79823 16.8932 5.63593 16.9334 5.48333L17.4725 3.44666C17.5005 3.34084 17.5074 3.23054 17.4928 3.12205C17.4782 3.01356 17.4424 2.90901 17.3873 2.81437C17.3323 2.71973 17.2592 2.63686 17.1722 2.57048C17.0851 2.5041 16.9858 2.45551 16.88 2.4275C16.7742 2.39948 16.6639 2.39259 16.5554 2.4072C16.4469 2.42181 16.3424 2.45765 16.2477 2.51267C16.1531 2.56769 16.0702 2.64081 16.0038 2.72786C15.9375 2.81491 15.8889 2.91417 15.8609 3.02L15.3225 5.05666C15.2433 5.3556 15.2268 5.66772 15.2742 5.97333L13.0942 7.23666C12.5028 6.56417 11.7097 6.1011 10.8334 5.91666V3.41666C11.1204 3.30468 11.3812 3.13443 11.5992 2.91666L13.0892 1.42666C13.246 1.27041 13.3343 1.05826 13.3347 0.836888C13.3351 0.615516 13.2475 0.403057 13.0913 0.246248C12.935 0.0894384 12.7229 0.00112443 12.5015 0.000733724C12.2801 0.000343021 12.0677 0.0879076 11.9109 0.244164L10.4209 1.73416C10.3088 1.845 10.1576 1.90717 10 1.90717C9.84243 1.90717 9.69121 1.845 9.57919 1.73416L8.08919 0.244164C7.93202 0.092366 7.72152 0.00837063 7.50302 0.0102693C7.28452 0.012168 7.07551 0.0998088 6.921 0.254316C6.7665 0.408822 6.67886 0.617833 6.67696 0.83633C6.67506 1.05483 6.75905 1.26533 6.91085 1.4225L8.40085 2.91666C8.61886 3.13443 8.87962 3.30468 9.16669 3.41666V5.91666C8.29035 6.1011 7.49723 6.56417 6.90585 7.23666L4.72585 5.96833C4.77322 5.66272 4.75676 5.3506 4.67752 5.05166L4.13919 3.01666C4.11117 2.91084 4.06259 2.81157 3.99621 2.72452C3.92983 2.63748 3.84695 2.56436 3.75231 2.50934C3.65767 2.45432 3.55313 2.41848 3.44464 2.40387C3.33615 2.38925 3.22584 2.39615 3.12002 2.42416C3.01419 2.45218 2.91493 2.50076 2.82788 2.56714C2.74083 2.63352 2.66771 2.7164 2.61269 2.81104C2.55767 2.90568 2.52183 3.01022 2.50722 3.11871C2.49261 3.2272 2.4995 3.33751 2.52752 3.44333L3.06669 5.48C3.10684 5.6326 3.08482 5.7949 3.00545 5.93129C2.92609 6.06767 2.79587 6.16701 2.64335 6.2075L0.606685 6.75C0.411673 6.80218 0.242234 6.92338 0.129849 7.09108C0.0174637 7.25878 -0.0302258 7.46157 -0.00435947 7.66178C0.0215069 7.86199 0.11917 8.04601 0.270486 8.17963C0.421801 8.31326 0.61648 8.38742 0.818352 8.38833C0.889185 8.38833 3.06835 7.8225 3.06835 7.8225C3.36599 7.74308 3.6442 7.60355 3.88585 7.4125L6.06669 8.68083C5.75998 9.53582 5.75998 10.4708 6.06669 11.3258L3.88752 12.5908C3.64587 12.3998 3.36765 12.2602 3.07002 12.1808L1.03252 11.6425C0.825027 11.6021 0.609951 11.6421 0.430842 11.7544C0.251732 11.8666 0.121976 12.0428 0.0678473 12.2471C0.0137188 12.4514 0.0392635 12.6687 0.139309 12.8549C0.239354 13.0411 0.406423 13.1823 0.606685 13.25L2.64335 13.7892C2.79587 13.8297 2.92609 13.929 3.00545 14.0654C3.08482 14.2018 3.10684 14.3641 3.06669 14.5167L2.52752 16.5533C2.4995 16.6592 2.49261 16.7695 2.50722 16.878C2.52183 16.9864 2.55767 17.091 2.61269 17.1856C2.66771 17.2803 2.74083 17.3631 2.82788 17.4295C2.91493 17.4959 3.01419 17.5445 3.12002 17.5725C3.22584 17.6005 3.33615 17.6074 3.44464 17.5928C3.55313 17.5782 3.65767 17.5423 3.75231 17.4873C3.84695 17.4323 3.92983 17.3592 3.99621 17.2721C4.06259 17.1851 4.11117 17.0858 4.13919 16.98L4.67752 14.9433C4.75676 14.6444 4.77322 14.3323 4.72585 14.0267L6.90585 12.7583C7.4965 13.4327 8.28971 13.8975 9.16669 14.0833V16.5833C8.87977 16.6956 8.61907 16.8658 8.40085 17.0833L6.91085 18.5775C6.75905 18.7347 6.67506 18.9452 6.67696 19.1637C6.67886 19.3822 6.7665 19.5912 6.921 19.7457C7.07551 19.9002 7.28452 19.9878 7.50302 19.9897C7.72152 19.9916 7.93202 19.9076 8.08919 19.7558L9.58335 18.2658C9.69537 18.155 9.8466 18.0928 10.0042 18.0928C10.1618 18.0928 10.313 18.155 10.425 18.2658L11.915 19.7558C12.0722 19.9076 12.2827 19.9916 12.5012 19.9897C12.7197 19.9878 12.9287 19.9002 13.0832 19.7457C13.2377 19.5912 13.3253 19.3822 13.3272 19.1637C13.3291 18.9452 13.2452 18.7347 13.0934 18.5775L11.6034 17.0875C11.3843 16.868 11.1221 16.6963 10.8334 16.5833V14.0833C11.7096 13.8991 12.5027 13.4364 13.0942 12.7642L15.2742 14.0325C15.2268 14.3381 15.2433 14.6502 15.3225 14.9492L15.8609 16.9858C15.9174 17.1996 16.0566 17.382 16.2477 17.4932C16.4389 17.6043 16.6663 17.6349 16.88 17.5783C17.0937 17.5218 17.2762 17.3826 17.3873 17.1915C17.4985 17.0003 17.5291 16.7729 17.4725 16.5592L16.9334 14.5225C16.8932 14.3699 16.9152 14.2076 16.9946 14.0712C17.0739 13.9348 17.2042 13.8355 17.3567 13.795L19.3934 13.2558C19.5015 13.2301 19.6033 13.1829 19.693 13.1172C19.7826 13.0514 19.8582 12.9684 19.9152 12.8731C19.9723 12.7777 20.0097 12.6719 20.0253 12.5618C20.0408 12.4517 20.0342 12.3397 20.0058 12.2322C19.9774 12.1248 19.9278 12.0241 19.8599 11.9361C19.792 11.8481 19.7071 11.7746 19.6104 11.7199C19.5136 11.6651 19.4069 11.6303 19.2965 11.6175C19.1861 11.6046 19.0743 11.614 18.9675 11.645V11.6425ZM10 12.5C9.33698 12.5 8.70109 12.2366 8.23225 11.7678C7.76341 11.2989 7.50002 10.663 7.50002 10C7.50002 9.33696 7.76341 8.70107 8.23225 8.23223C8.70109 7.76339 9.33698 7.5 10 7.5C10.6631 7.5 11.2989 7.76339 11.7678 8.23223C12.2366 8.70107 12.5 9.33696 12.5 10C12.5 10.663 12.2366 11.2989 11.7678 11.7678C11.2989 12.2366 10.6631 12.5 10 12.5Z" fill="#1E538F"/>
</svg>
