<svg width="40" height="35" viewBox="0 0 40 35" fill="none" xmlns="http://www.w3.org/2000/svg">
<path d="M11.5096 34.13C10.5563 34.13 9.7373 33.9393 9.05263 33.558C8.37663 33.168 7.85663 32.622 7.49263 31.92C7.12863 31.2093 6.94663 30.373 6.94663 29.411C6.94663 28.6917 7.05063 28.046 7.25863 27.474C7.46663 26.8933 7.76563 26.3993 8.15563 25.992C8.54563 25.576 9.0223 25.2597 9.58563 25.043C10.1576 24.8177 10.799 24.705 11.5096 24.705C11.9863 24.705 12.4543 24.7657 12.9136 24.887C13.373 25.0083 13.776 25.1817 14.1226 25.407C14.3046 25.5197 14.426 25.6583 14.4866 25.823C14.5473 25.979 14.5603 26.135 14.5256 26.291C14.491 26.4383 14.4173 26.564 14.3046 26.668C14.2006 26.772 14.0663 26.8327 13.9016 26.85C13.7456 26.8587 13.5723 26.8023 13.3816 26.681C13.113 26.5077 12.8226 26.382 12.5106 26.304C12.1986 26.226 11.8823 26.187 11.5616 26.187C10.9463 26.187 10.4263 26.3127 10.0016 26.564C9.57696 26.8153 9.2563 27.1793 9.03963 27.656C8.82296 28.1327 8.71463 28.7177 8.71463 29.411C8.71463 30.0957 8.82296 30.6807 9.03963 31.166C9.2563 31.6513 9.57696 32.0197 10.0016 32.271C10.4263 32.5223 10.9463 32.648 11.5616 32.648C11.891 32.648 12.216 32.609 12.5366 32.531C12.8573 32.4443 13.1606 32.3143 13.4466 32.141C13.6373 32.0283 13.8063 31.9807 13.9536 31.998C14.1096 32.0067 14.2396 32.0587 14.3436 32.154C14.4476 32.2493 14.517 32.3707 14.5516 32.518C14.5863 32.6567 14.5776 32.804 14.5256 32.96C14.4736 33.1073 14.3696 33.2373 14.2136 33.35C13.867 33.6013 13.451 33.7963 12.9656 33.935C12.489 34.065 12.0036 34.13 11.5096 34.13ZM18.3675 34.13C17.7089 34.13 17.1369 33.9957 16.6515 33.727C16.1662 33.4583 15.7892 33.077 15.5205 32.583C15.2519 32.0803 15.1175 31.491 15.1175 30.815C15.1175 30.3037 15.1912 29.8487 15.3385 29.45C15.4945 29.0427 15.7155 28.696 16.0015 28.41C16.2875 28.1153 16.6299 27.8943 17.0285 27.747C17.4272 27.591 17.8735 27.513 18.3675 27.513C19.0262 27.513 19.5982 27.6473 20.0835 27.916C20.5689 28.1847 20.9459 28.566 21.2145 29.06C21.4832 29.554 21.6175 30.139 21.6175 30.815C21.6175 31.3263 21.5395 31.7857 21.3835 32.193C21.2362 32.6003 21.0195 32.9513 20.7335 33.246C20.4475 33.532 20.1052 33.753 19.7065 33.909C19.3079 34.0563 18.8615 34.13 18.3675 34.13ZM18.3675 32.895C18.6882 32.895 18.9699 32.817 19.2125 32.661C19.4552 32.505 19.6415 32.2753 19.7715 31.972C19.9102 31.66 19.9795 31.2743 19.9795 30.815C19.9795 30.1217 19.8322 29.606 19.5375 29.268C19.2429 28.9213 18.8529 28.748 18.3675 28.748C18.0469 28.748 17.7652 28.826 17.5225 28.982C17.2799 29.1293 17.0892 29.359 16.9505 29.671C16.8205 29.9743 16.7555 30.3557 16.7555 30.815C16.7555 31.4997 16.9029 32.0197 17.1975 32.375C17.4922 32.7217 17.8822 32.895 18.3675 32.895ZM25.8578 34.13C25.1991 34.13 24.6271 33.9957 24.1418 33.727C23.6564 33.4583 23.2794 33.077 23.0108 32.583C22.7421 32.0803 22.6078 31.491 22.6078 30.815C22.6078 30.3037 22.6814 29.8487 22.8288 29.45C22.9848 29.0427 23.2058 28.696 23.4918 28.41C23.7778 28.1153 24.1201 27.8943 24.5188 27.747C24.9174 27.591 25.3638 27.513 25.8578 27.513C26.5164 27.513 27.0884 27.6473 27.5738 27.916C28.0591 28.1847 28.4361 28.566 28.7048 29.06C28.9734 29.554 29.1078 30.139 29.1078 30.815C29.1078 31.3263 29.0298 31.7857 28.8738 32.193C28.7264 32.6003 28.5098 32.9513 28.2238 33.246C27.9378 33.532 27.5954 33.753 27.1968 33.909C26.7981 34.0563 26.3518 34.13 25.8578 34.13ZM25.8578 32.895C26.1784 32.895 26.4601 32.817 26.7028 32.661C26.9454 32.505 27.1318 32.2753 27.2618 31.972C27.4004 31.66 27.4698 31.2743 27.4698 30.815C27.4698 30.1217 27.3224 29.606 27.0278 29.268C26.7331 28.9213 26.3431 28.748 25.8578 28.748C25.5371 28.748 25.2554 28.826 25.0128 28.982C24.7701 29.1293 24.5794 29.359 24.4408 29.671C24.3108 29.9743 24.2458 30.3557 24.2458 30.815C24.2458 31.4997 24.3931 32.0197 24.6878 32.375C24.9824 32.7217 25.3724 32.895 25.8578 32.895ZM32.62 34.13C31.9007 34.13 31.359 33.9263 30.995 33.519C30.631 33.103 30.449 32.4963 30.449 31.699V25.55C30.449 25.2813 30.5183 25.0777 30.657 24.939C30.7957 24.8003 30.995 24.731 31.255 24.731C31.515 24.731 31.7143 24.8003 31.853 24.939C32.0003 25.0777 32.074 25.2813 32.074 25.55V31.621C32.074 32.0197 32.1563 32.3143 32.321 32.505C32.4943 32.6957 32.737 32.791 33.049 32.791C33.1183 32.791 33.1833 32.791 33.244 32.791C33.3047 32.7823 33.3653 32.7737 33.426 32.765C33.5473 32.7477 33.6297 32.7823 33.673 32.869C33.7163 32.947 33.738 33.1117 33.738 33.363C33.738 33.5797 33.6947 33.7487 33.608 33.87C33.5213 33.9913 33.3783 34.065 33.179 34.091C33.0923 34.0997 33.0013 34.1083 32.906 34.117C32.8107 34.1257 32.7153 34.13 32.62 34.13Z" fill="#1E88E5"/>
<g clip-path="url(#clip0_526_49)">
<path d="M28.9675 11.6425L26.93 12.1808C26.6324 12.2602 26.3542 12.3998 26.1125 12.5908L23.9317 11.3225C24.2384 10.4675 24.2384 9.53249 23.9317 8.6775L26.1125 7.40916C26.3542 7.60021 26.6324 7.73975 26.93 7.81916C26.93 7.81916 29.1108 8.385 29.18 8.385C29.3799 8.38169 29.572 8.30659 29.7212 8.17342C29.8703 8.04025 29.9667 7.85788 29.9925 7.6596C30.0184 7.46132 29.9721 7.26034 29.8621 7.09335C29.7521 6.92637 29.5857 6.8045 29.3933 6.75L27.3567 6.21083C27.2042 6.17034 27.0739 6.07101 26.9946 5.93462C26.9152 5.79823 26.8932 5.63593 26.9333 5.48333L27.4725 3.44666C27.5005 3.34084 27.5074 3.23054 27.4928 3.12205C27.4782 3.01356 27.4424 2.90901 27.3873 2.81437C27.3323 2.71973 27.2592 2.63686 27.1721 2.57048C27.0851 2.5041 26.9858 2.45551 26.88 2.4275C26.7742 2.39948 26.6639 2.39259 26.5554 2.4072C26.4469 2.42181 26.3424 2.45765 26.2477 2.51267C26.1531 2.56769 26.0702 2.64081 26.0038 2.72786C25.9374 2.81491 25.8889 2.91417 25.8608 3.02L25.3225 5.05666C25.2433 5.3556 25.2268 5.66772 25.2742 5.97333L23.0942 7.23666C22.5028 6.56417 21.7097 6.1011 20.8333 5.91666V3.41666C21.1204 3.30468 21.3812 3.13443 21.5992 2.91666L23.0892 1.42666C23.246 1.27041 23.3343 1.05826 23.3347 0.836888C23.3351 0.615516 23.2475 0.403057 23.0913 0.246248C22.935 0.0894384 22.7228 0.00112443 22.5015 0.000733724C22.2801 0.000343021 22.0676 0.0879076 21.9108 0.244164L20.4208 1.73416C20.3088 1.845 20.1576 1.90717 20 1.90717C19.8424 1.90717 19.6912 1.845 19.5792 1.73416L18.0892 0.244164C17.932 0.092366 17.7215 0.00837063 17.503 0.0102693C17.2845 0.012168 17.0755 0.0998088 16.921 0.254316C16.7665 0.408822 16.6788 0.617833 16.6769 0.83633C16.675 1.05483 16.759 1.26533 16.9108 1.4225L18.4008 2.91666C18.6188 3.13443 18.8796 3.30468 19.1667 3.41666V5.91666C18.2903 6.1011 17.4972 6.56417 16.9058 7.23666L14.7258 5.96833C14.7732 5.66272 14.7567 5.3506 14.6775 5.05166L14.1392 3.01666C14.1112 2.91084 14.0626 2.81157 13.9962 2.72452C13.9298 2.63748 13.8469 2.56436 13.7523 2.50934C13.6577 2.45432 13.5531 2.41848 13.4446 2.40387C13.3361 2.38925 13.2258 2.39615 13.12 2.42416C13.0142 2.45218 12.9149 2.50076 12.8279 2.56714C12.7408 2.63352 12.6677 2.7164 12.6127 2.81104C12.5577 2.90568 12.5218 3.01022 12.5072 3.11871C12.4926 3.2272 12.4995 3.33751 12.5275 3.44333L13.0667 5.48C13.1068 5.6326 13.0848 5.7949 13.0054 5.93129C12.9261 6.06767 12.7959 6.16701 12.6433 6.2075L10.6067 6.75C10.4117 6.80218 10.2422 6.92338 10.1298 7.09108C10.0174 7.25878 9.96976 7.46157 9.99563 7.66178C10.0215 7.86199 10.1192 8.04601 10.2705 8.17963C10.4218 8.31326 10.6165 8.38742 10.8183 8.38833C10.8892 8.38833 13.0683 7.8225 13.0683 7.8225C13.366 7.74308 13.6442 7.60355 13.8858 7.4125L16.0667 8.68083C15.76 9.53582 15.76 10.4708 16.0667 11.3258L13.8875 12.5908C13.6459 12.3998 13.3676 12.2602 13.07 12.1808L11.0325 11.6425C10.825 11.6021 10.6099 11.6421 10.4308 11.7544C10.2517 11.8666 10.122 12.0428 10.0678 12.2471C10.0137 12.4514 10.0392 12.6687 10.1393 12.8549C10.2393 13.0411 10.4064 13.1823 10.6067 13.25L12.6433 13.7892C12.7959 13.8297 12.9261 13.929 13.0054 14.0654C13.0848 14.2018 13.1068 14.3641 13.0667 14.5167L12.5275 16.5533C12.4995 16.6592 12.4926 16.7695 12.5072 16.878C12.5218 16.9864 12.5577 17.091 12.6127 17.1856C12.6677 17.2803 12.7408 17.3631 12.8279 17.4295C12.9149 17.4959 13.0142 17.5445 13.12 17.5725C13.2258 17.6005 13.3361 17.6074 13.4446 17.5928C13.5531 17.5782 13.6577 17.5423 13.7523 17.4873C13.8469 17.4323 13.9298 17.3592 13.9962 17.2721C14.0626 17.1851 14.1112 17.0858 14.1392 16.98L14.6775 14.9433C14.7567 14.6444 14.7732 14.3323 14.7258 14.0267L16.9058 12.7583C17.4965 13.4327 18.2897 13.8975 19.1667 14.0833V16.5833C18.8798 16.6956 18.6191 16.8658 18.4008 17.0833L16.9108 18.5775C16.759 18.7347 16.675 18.9452 16.6769 19.1637C16.6788 19.3822 16.7665 19.5912 16.921 19.7457C17.0755 19.9002 17.2845 19.9878 17.503 19.9897C17.7215 19.9916 17.932 19.9076 18.0892 19.7558L19.5833 18.2658C19.6954 18.155 19.8466 18.0928 20.0042 18.0928C20.1618 18.0928 20.313 18.155 20.425 18.2658L21.915 19.7558C22.0722 19.9076 22.2827 19.9916 22.5012 19.9897C22.7197 19.9878 22.9287 19.9002 23.0832 19.7457C23.2377 19.5912 23.3253 19.3822 23.3272 19.1637C23.3291 18.9452 23.2451 18.7347 23.0933 18.5775L21.6033 17.0875C21.3843 16.868 21.1221 16.6963 20.8333 16.5833V14.0833C21.7096 13.8991 22.5027 13.4364 23.0942 12.7642L25.2742 14.0325C25.2268 14.3381 25.2433 14.6502 25.3225 14.9492L25.8608 16.9858C25.9174 17.1996 26.0566 17.382 26.2477 17.4932C26.4388 17.6043 26.6663 17.6349 26.88 17.5783C27.0937 17.5218 27.2762 17.3826 27.3873 17.1915C27.4984 17.0003 27.5291 16.7729 27.4725 16.5592L26.9333 14.5225C26.8932 14.3699 26.9152 14.2076 26.9946 14.0712C27.0739 13.9348 27.2042 13.8355 27.3567 13.795L29.3933 13.2558C29.5015 13.2301 29.6033 13.1829 29.693 13.1172C29.7826 13.0514 29.8582 12.9684 29.9152 12.8731C29.9723 12.7777 30.0097 12.6719 30.0253 12.5618C30.0408 12.4517 30.0342 12.3397 30.0058 12.2322C29.9774 12.1248 29.9277 12.0241 29.8598 11.9361C29.7919 11.8481 29.7071 11.7746 29.6104 11.7199C29.5136 11.6651 29.4069 11.6303 29.2965 11.6175C29.1861 11.6046 29.0742 11.614 28.9675 11.645V11.6425ZM20 12.5C19.337 12.5 18.7011 12.2366 18.2322 11.7678C17.7634 11.2989 17.5 10.663 17.5 10C17.5 9.33696 17.7634 8.70107 18.2322 8.23223C18.7011 7.76339 19.337 7.5 20 7.5C20.663 7.5 21.2989 7.76339 21.7678 8.23223C22.2366 8.70107 22.5 9.33696 22.5 10C22.5 10.663 22.2366 11.2989 21.7678 11.7678C21.2989 12.2366 20.663 12.5 20 12.5Z" fill="#1E88E5"/>
</g>
<defs>
<clipPath id="clip0_526_49">
<rect width="20" height="20" fill="white" transform="translate(10)"/>
</clipPath>
</defs>
</svg>
