<svg width="20" height="20" viewBox="0 0 20 20" fill="none" xmlns="http://www.w3.org/2000/svg">
<g clip-path="url(#clip0_526_1280)">
<path d="M19.1176 8.12916C18.5026 7.44332 17.656 7.03749 16.736 6.98832C15.1326 6.90166 13.2851 7.42832 12.0043 7.89082C11.8493 7.74332 11.6768 7.61749 11.4926 7.50749C12.5293 6.42166 13.8001 5.08999 13.8785 3.63666C13.9285 2.71666 13.6168 1.83166 13.001 1.14582C12.386 0.459989 11.5401 0.0549888 10.6201 0.0049888C9.69348 -0.0458445 8.81514 0.266656 8.12931 0.881656C7.44431 1.49749 7.03848 2.34249 6.98931 3.26249C6.90098 4.86582 7.42848 6.71416 7.89181 7.99499C7.74431 8.14999 7.61848 8.32249 7.50764 8.50666C6.42181 7.46999 5.08931 6.19916 3.63681 6.12082C2.71014 6.06999 1.83181 6.38249 1.14598 6.99749C0.460977 7.61416 0.0551436 8.45999 0.0059769 9.37999C-0.0448564 10.3 0.26681 11.185 0.882644 11.8708C1.49848 12.5567 2.37598 13.0208 3.62264 13.0208C5.13764 13.0208 6.80931 12.5375 7.99598 12.1083C8.15098 12.2558 8.32348 12.3817 8.50764 12.4925C7.47098 13.5783 6.20014 14.91 6.12181 16.3633C6.07181 17.2833 6.38348 18.1683 6.99931 18.8542C7.61431 19.54 8.46098 19.9458 9.38098 19.995C9.44348 19.9983 9.50598 20 9.56931 20C11.3868 20 12.9126 18.5725 13.0118 16.7367C13.1001 15.1333 12.5726 13.285 12.1093 12.0042C12.2568 11.8492 12.3826 11.6767 12.4935 11.4925C13.5793 12.5292 14.9118 13.8 16.3651 13.8783C16.4276 13.8817 16.4901 13.8833 16.5535 13.8833C18.371 13.8833 19.8968 12.4558 19.996 10.62C20.0468 9.69999 19.7351 8.81499 19.1193 8.12916H19.1176ZM3.35348 11.3467C2.87848 11.3208 2.44014 11.1117 2.12181 10.7567C1.80431 10.4017 1.64348 9.94499 1.66931 9.46916C1.69431 8.99332 1.90348 8.55582 2.25848 8.23832C2.58848 7.94249 2.88598 7.78499 3.54598 7.78499C4.38514 7.78499 5.37681 8.77832 6.25348 9.61499C6.53931 9.88832 6.83264 10.1617 7.12514 10.4158C7.13598 10.4883 7.14098 10.5617 7.15681 10.6325C6.04431 11.0158 4.58014 11.4092 3.35348 11.3458V11.3467ZM9.24264 2.12249C9.57264 1.82666 9.99098 1.66666 10.431 1.66666C11.0118 1.66666 11.4435 1.90499 11.7618 2.25916C12.0793 2.61332 12.2401 3.07082 12.2143 3.54666C12.1693 4.38416 11.221 5.37832 10.3843 6.25499C10.1118 6.54082 9.83764 6.83332 9.58348 7.12582C9.51098 7.13666 9.43764 7.14166 9.36681 7.15749C8.98264 6.04499 8.58764 4.57916 8.65431 3.35332C8.67931 2.87749 8.88848 2.43999 9.24348 2.12249H9.24264ZM11.2501 9.99999C11.2501 10.6892 10.6893 11.25 10.0001 11.25C9.31098 11.25 8.75014 10.6892 8.75014 9.99999C8.75014 9.31082 9.31098 8.74999 10.0001 8.74999C10.6893 8.74999 11.2501 9.31082 11.2501 9.99999ZM10.7576 17.8775C10.4026 18.1958 9.94014 18.3542 9.47014 18.3308C8.99514 18.305 8.55681 18.0958 8.23848 17.7408C7.92098 17.3867 7.76014 16.9292 7.78598 16.4533C7.83098 15.6158 8.77931 14.6217 9.61598 13.745C9.88848 13.4592 10.1626 13.1667 10.4168 12.8742C10.4893 12.8633 10.5626 12.8583 10.6335 12.8425C11.0176 13.955 11.4126 15.4208 11.346 16.6467C11.321 17.1225 11.1118 17.5592 10.7568 17.8775H10.7576ZM16.4535 12.2142C15.6151 12.1692 14.6226 11.2208 13.746 10.3842C13.4601 10.1108 13.1668 9.83749 12.8743 9.58332C12.8635 9.51082 12.8585 9.43749 12.8426 9.36666C13.9551 8.98249 15.416 8.58666 16.646 8.65332C17.121 8.67916 17.5593 8.88832 17.8776 9.24332C18.1951 9.59832 18.356 10.055 18.3301 10.5308C18.2776 11.5133 17.4251 12.2633 16.4535 12.215V12.2142Z" fill="#888888"/>
</g>
<defs>
<clipPath id="clip0_526_1280">
<rect width="20" height="20" fill="white"/>
</clipPath>
</defs>
</svg>
