<svg width="20" height="20" viewBox="0 0 20 20" fill="none" xmlns="http://www.w3.org/2000/svg">
<g clip-path="url(#clip0_41_2)">
<path d="M19.1176 8.12916C18.5026 7.44332 17.6559 7.03749 16.7359 6.98832C15.1326 6.90166 13.2851 7.42832 12.0043 7.89082C11.8493 7.74332 11.6768 7.61749 11.4926 7.50749C12.5293 6.42166 13.8001 5.08999 13.8784 3.63666C13.9284 2.71666 13.6168 1.83166 13.0009 1.14582C12.3859 0.459989 11.5401 0.0549888 10.6201 0.0049888C9.69343 -0.0458445 8.81509 0.266656 8.12926 0.881656C7.44426 1.49749 7.03843 2.34249 6.98926 3.26249C6.90093 4.86582 7.42843 6.71416 7.89176 7.99499C7.74426 8.14999 7.61843 8.32249 7.50759 8.50666C6.42176 7.46999 5.08926 6.19916 3.63676 6.12082C2.71009 6.06999 1.83176 6.38249 1.14593 6.99749C0.460926 7.61416 0.055093 8.45999 0.00592635 9.37999C-0.044907 10.3 0.26676 11.185 0.882593 11.8708C1.49843 12.5567 2.37593 13.0208 3.62259 13.0208C5.13759 13.0208 6.80926 12.5375 7.99593 12.1083C8.15093 12.2558 8.32343 12.3817 8.50759 12.4925C7.47093 13.5783 6.20009 14.91 6.12176 16.3633C6.07176 17.2833 6.38343 18.1683 6.99926 18.8542C7.61426 19.54 8.46093 19.9458 9.38093 19.995C9.44343 19.9983 9.50593 20 9.56926 20C11.3868 20 12.9126 18.5725 13.0118 16.7367C13.1001 15.1333 12.5726 13.285 12.1093 12.0042C12.2568 11.8492 12.3826 11.6767 12.4934 11.4925C13.5793 12.5292 14.9118 13.8 16.3651 13.8783C16.4276 13.8817 16.4901 13.8833 16.5534 13.8833C18.3709 13.8833 19.8968 12.4558 19.9959 10.62C20.0468 9.69999 19.7351 8.81499 19.1193 8.12916H19.1176ZM3.35343 11.3467C2.87843 11.3208 2.44009 11.1117 2.12176 10.7567C1.80426 10.4017 1.64343 9.94499 1.66926 9.46916C1.69426 8.99332 1.90343 8.55582 2.25843 8.23832C2.58843 7.94249 2.88593 7.78499 3.54593 7.78499C4.38509 7.78499 5.37676 8.77832 6.25343 9.61499C6.53926 9.88832 6.83259 10.1617 7.12509 10.4158C7.13593 10.4883 7.14093 10.5617 7.15676 10.6325C6.04426 11.0158 4.58009 11.4092 3.35343 11.3458V11.3467ZM9.24259 2.12249C9.57259 1.82666 9.99093 1.66666 10.4309 1.66666C11.0118 1.66666 11.4434 1.90499 11.7618 2.25916C12.0793 2.61332 12.2401 3.07082 12.2143 3.54666C12.1693 4.38416 11.2209 5.37832 10.3843 6.25499C10.1118 6.54082 9.83759 6.83332 9.58343 7.12582C9.51093 7.13666 9.43759 7.14166 9.36676 7.15749C8.98259 6.04499 8.58759 4.57916 8.65426 3.35332C8.67926 2.87749 8.88843 2.43999 9.24343 2.12249H9.24259ZM11.2501 9.99999C11.2501 10.6892 10.6893 11.25 10.0001 11.25C9.31093 11.25 8.75009 10.6892 8.75009 9.99999C8.75009 9.31082 9.31093 8.74999 10.0001 8.74999C10.6893 8.74999 11.2501 9.31082 11.2501 9.99999ZM10.7576 17.8775C10.4026 18.1958 9.94009 18.3542 9.47009 18.3308C8.99509 18.305 8.55676 18.0958 8.23843 17.7408C7.92093 17.3867 7.76009 16.9292 7.78593 16.4533C7.83093 15.6158 8.77926 14.6217 9.61593 13.745C9.88843 13.4592 10.1626 13.1667 10.4168 12.8742C10.4893 12.8633 10.5626 12.8583 10.6334 12.8425C11.0176 13.955 11.4126 15.4208 11.3459 16.6467C11.3209 17.1225 11.1118 17.5592 10.7568 17.8775H10.7576ZM16.4534 12.2142C15.6151 12.1692 14.6226 11.2208 13.7459 10.3842C13.4601 10.1108 13.1668 9.83749 12.8743 9.58332C12.8634 9.51082 12.8584 9.43749 12.8426 9.36666C13.9551 8.98249 15.4159 8.58666 16.6459 8.65332C17.1209 8.67916 17.5593 8.88832 17.8776 9.24332C18.1951 9.59832 18.3559 10.055 18.3301 10.5308C18.2776 11.5133 17.4251 12.2633 16.4534 12.215V12.2142Z" fill="white" fill-opacity="0.501961"/>
</g>
<defs>
<clipPath id="clip0_41_2">
<rect width="20" height="20" fill="white"/>
</clipPath>
</defs>
</svg>
