<svg width="40" height="35" viewBox="0 0 40 35" fill="none" xmlns="http://www.w3.org/2000/svg">
<path d="M10.9791 34.104C10.7105 34.104 10.4981 34.0303 10.3421 33.883C10.1948 33.727 10.1211 33.506 10.1211 33.22V25.719C10.1211 25.433 10.1948 25.2163 10.3421 25.069C10.4981 24.913 10.7191 24.835 11.0051 24.835H15.5421C15.7675 24.835 15.9365 24.8913 16.0491 25.004C16.1618 25.1167 16.2181 25.277 16.2181 25.485C16.2181 25.7017 16.1618 25.8707 16.0491 25.992C15.9365 26.1047 15.7675 26.161 15.5421 26.161H11.7851V28.748H15.2691C15.4858 28.748 15.6505 28.8043 15.7631 28.917C15.8845 29.0297 15.9451 29.19 15.9451 29.398C15.9451 29.6147 15.8845 29.7837 15.7631 29.905C15.6505 30.0177 15.4858 30.074 15.2691 30.074H11.7851V33.22C11.7851 33.8093 11.5165 34.104 10.9791 34.104ZM19.104 34.13C18.6447 34.13 18.233 34.0433 17.869 33.87C17.5137 33.688 17.232 33.4453 17.024 33.142C16.8247 32.8387 16.725 32.4963 16.725 32.115C16.725 31.647 16.8463 31.2787 17.089 31.01C17.3317 30.7327 17.726 30.5333 18.272 30.412C18.818 30.2907 19.5503 30.23 20.469 30.23H21.119V31.166H20.482C19.9447 31.166 19.5157 31.192 19.195 31.244C18.8743 31.296 18.6447 31.387 18.506 31.517C18.376 31.6383 18.311 31.8117 18.311 32.037C18.311 32.323 18.4107 32.557 18.61 32.739C18.8093 32.921 19.0867 33.012 19.442 33.012C19.728 33.012 19.9793 32.947 20.196 32.817C20.4213 32.6783 20.599 32.492 20.729 32.258C20.859 32.024 20.924 31.7553 20.924 31.452V29.957C20.924 29.5237 20.8287 29.2117 20.638 29.021C20.4473 28.8303 20.1267 28.735 19.676 28.735C19.4247 28.735 19.1517 28.7653 18.857 28.826C18.571 28.8867 18.2677 28.9907 17.947 29.138C17.7823 29.216 17.635 29.2377 17.505 29.203C17.3837 29.1683 17.2883 29.099 17.219 28.995C17.1497 28.8823 17.115 28.761 17.115 28.631C17.115 28.501 17.1497 28.3753 17.219 28.254C17.2883 28.124 17.4053 28.0287 17.57 27.968C17.9687 27.8033 18.35 27.6863 18.714 27.617C19.0867 27.5477 19.4247 27.513 19.728 27.513C20.352 27.513 20.8633 27.6083 21.262 27.799C21.6693 27.9897 21.9727 28.28 22.172 28.67C22.3713 29.0513 22.471 29.5453 22.471 30.152V33.272C22.471 33.5407 22.406 33.7487 22.276 33.896C22.146 34.0347 21.9597 34.104 21.717 34.104C21.4743 34.104 21.2837 34.0347 21.145 33.896C21.015 33.7487 20.95 33.5407 20.95 33.272V32.648H21.054C20.9933 32.9513 20.872 33.2157 20.69 33.441C20.5167 33.6577 20.2957 33.8267 20.027 33.948C19.7583 34.0693 19.4507 34.13 19.104 34.13ZM24.9264 34.104C24.6664 34.104 24.4671 34.0347 24.3284 33.896C24.1897 33.7487 24.1204 33.5407 24.1204 33.272V28.358C24.1204 28.0893 24.1897 27.8857 24.3284 27.747C24.4671 27.6083 24.6621 27.539 24.9134 27.539C25.1647 27.539 25.3597 27.6083 25.4984 27.747C25.6371 27.8857 25.7064 28.0893 25.7064 28.358V29.242L25.5634 28.917C25.7541 28.4577 26.0487 28.111 26.4474 27.877C26.8547 27.6343 27.3141 27.513 27.8254 27.513C28.3367 27.513 28.7571 27.6083 29.0864 27.799C29.4157 27.9897 29.6627 28.28 29.8274 28.67C29.9921 29.0513 30.0744 29.5367 30.0744 30.126V33.272C30.0744 33.5407 30.0051 33.7487 29.8664 33.896C29.7277 34.0347 29.5284 34.104 29.2684 34.104C29.0084 34.104 28.8047 34.0347 28.6574 33.896C28.5187 33.7487 28.4494 33.5407 28.4494 33.272V30.204C28.4494 29.71 28.3541 29.3503 28.1634 29.125C27.9814 28.8997 27.6954 28.787 27.3054 28.787C26.8287 28.787 26.4474 28.9387 26.1614 29.242C25.8841 29.5367 25.7454 29.931 25.7454 30.425V33.272C25.7454 33.8267 25.4724 34.104 24.9264 34.104Z" fill="#00897B"/>
<g clip-path="url(#clip0_526_219)">
<path d="M29.1176 8.1291C28.5026 7.44326 27.6559 7.03743 26.7359 6.98826C25.1326 6.90159 23.2851 7.42826 22.0042 7.89076C21.8492 7.74326 21.6767 7.61743 21.4926 7.50743C22.5292 6.42159 23.8001 5.08993 23.8784 3.63659C23.9284 2.71659 23.6167 1.83159 23.0009 1.14576C22.3859 0.459928 21.5401 0.0549278 20.6201 0.00492777C19.6934 -0.0459056 18.8151 0.266594 18.1292 0.881594C17.4442 1.49743 17.0384 2.34243 16.9892 3.26243C16.9009 4.86576 17.4284 6.7141 17.8917 7.99493C17.7442 8.14993 17.6184 8.32243 17.5076 8.5066C16.4217 7.46993 15.0892 6.19909 13.6367 6.12076C12.7101 6.06993 11.8317 6.38243 11.1459 6.99743C10.4609 7.6141 10.0551 8.45993 10.0059 9.37993C9.95508 10.2999 10.2667 11.1849 10.8826 11.8708C11.4984 12.5566 12.3759 13.0208 13.6226 13.0208C15.1376 13.0208 16.8092 12.5374 17.9959 12.1083C18.1509 12.2558 18.3234 12.3816 18.5076 12.4924C17.4709 13.5783 16.2001 14.9099 16.1217 16.3633C16.0717 17.2833 16.3834 18.1683 16.9992 18.8541C17.6142 19.5399 18.4609 19.9458 19.3809 19.9949C19.4434 19.9983 19.5059 19.9999 19.5692 19.9999C21.3867 19.9999 22.9126 18.5724 23.0117 16.7366C23.1001 15.1333 22.5726 13.2849 22.1092 12.0041C22.2567 11.8491 22.3826 11.6766 22.4934 11.4924C23.5792 12.5291 24.9117 13.7999 26.3651 13.8783C26.4276 13.8816 26.4901 13.8833 26.5534 13.8833C28.3709 13.8833 29.8967 12.4558 29.9959 10.6199C30.0467 9.69993 29.7351 8.81493 29.1192 8.1291H29.1176ZM13.3534 11.3466C12.8784 11.3208 12.4401 11.1116 12.1217 10.7566C11.8042 10.4016 11.6434 9.94493 11.6692 9.4691C11.6942 8.99326 11.9034 8.55576 12.2584 8.23826C12.5884 7.94243 12.8859 7.78493 13.5459 7.78493C14.3851 7.78493 15.3767 8.77826 16.2534 9.61493C16.5392 9.88826 16.8326 10.1616 17.1251 10.4158C17.1359 10.4883 17.1409 10.5616 17.1567 10.6324C16.0442 11.0158 14.5801 11.4091 13.3534 11.3458V11.3466ZM19.2426 2.12243C19.5726 1.82659 19.9909 1.66659 20.4309 1.66659C21.0117 1.66659 21.4434 1.90493 21.7617 2.25909C22.0792 2.61326 22.2401 3.07076 22.2142 3.54659C22.1692 4.38409 21.2209 5.37826 20.3842 6.25493C20.1117 6.54076 19.8376 6.83326 19.5834 7.12576C19.5109 7.13659 19.4376 7.14159 19.3667 7.15743C18.9826 6.04493 18.5876 4.57909 18.6542 3.35326C18.6792 2.87743 18.8884 2.43993 19.2434 2.12243H19.2426ZM21.2501 9.99993C21.2501 10.6891 20.6892 11.2499 20.0001 11.2499C19.3109 11.2499 18.7501 10.6891 18.7501 9.99993C18.7501 9.31076 19.3109 8.74993 20.0001 8.74993C20.6892 8.74993 21.2501 9.31076 21.2501 9.99993ZM20.7576 17.8774C20.4026 18.1958 19.9401 18.3541 19.4701 18.3308C18.9951 18.3049 18.5567 18.0958 18.2384 17.7408C17.9209 17.3866 17.7601 16.9291 17.7859 16.4533C17.8309 15.6158 18.7792 14.6216 19.6159 13.7449C19.8884 13.4591 20.1626 13.1666 20.4167 12.8741C20.4892 12.8633 20.5626 12.8583 20.6334 12.8424C21.0176 13.9549 21.4126 15.4208 21.3459 16.6466C21.3209 17.1224 21.1117 17.5591 20.7567 17.8774H20.7576ZM26.4534 12.2141C25.6151 12.1691 24.6226 11.2208 23.7459 10.3841C23.4601 10.1108 23.1667 9.83743 22.8742 9.58326C22.8634 9.51076 22.8584 9.43743 22.8426 9.3666C23.9551 8.98243 25.4159 8.58659 26.6459 8.65326C27.1209 8.6791 27.5592 8.88826 27.8776 9.24326C28.1951 9.59826 28.3559 10.0549 28.3301 10.5308C28.2776 11.5133 27.4251 12.2633 26.4534 12.2149V12.2141Z" fill="#00897B"/>
</g>
<defs>
<clipPath id="clip0_526_219">
<rect width="20" height="20" fill="white" transform="translate(10)"/>
</clipPath>
</defs>
</svg>
