<svg width="40" height="35" viewBox="0 0 40 35" fill="none" xmlns="http://www.w3.org/2000/svg">
<path d="M10.5976 34.104C10.329 34.104 10.121 34.0303 9.97365 33.883C9.83498 33.727 9.76565 33.5147 9.76565 33.246V25.589C9.76565 25.3117 9.83498 25.0993 9.97365 24.952C10.121 24.8047 10.329 24.731 10.5976 24.731C10.8663 24.731 11.07 24.8047 11.2086 24.952C11.356 25.0993 11.4296 25.3117 11.4296 25.589V28.657H16.1486V25.589C16.1486 25.3117 16.218 25.0993 16.3566 24.952C16.504 24.8047 16.712 24.731 16.9806 24.731C17.2493 24.731 17.453 24.8047 17.5916 24.952C17.739 25.0993 17.8126 25.3117 17.8126 25.589V33.246C17.8126 33.5147 17.739 33.727 17.5916 33.883C17.453 34.0303 17.2493 34.104 16.9806 34.104C16.712 34.104 16.504 34.0303 16.3566 33.883C16.218 33.727 16.1486 33.5147 16.1486 33.246V30.048H11.4296V33.246C11.4296 33.5147 11.3603 33.727 11.2216 33.883C11.083 34.0303 10.875 34.104 10.5976 34.104ZM22.5633 34.13C21.9047 34.13 21.3327 33.9957 20.8473 33.727C20.362 33.4583 19.985 33.077 19.7163 32.583C19.4477 32.0803 19.3133 31.491 19.3133 30.815C19.3133 30.3037 19.387 29.8487 19.5343 29.45C19.6903 29.0427 19.9113 28.696 20.1973 28.41C20.4833 28.1153 20.8257 27.8943 21.2243 27.747C21.623 27.591 22.0693 27.513 22.5633 27.513C23.222 27.513 23.794 27.6473 24.2793 27.916C24.7647 28.1847 25.1417 28.566 25.4103 29.06C25.679 29.554 25.8133 30.139 25.8133 30.815C25.8133 31.3263 25.7353 31.7857 25.5793 32.193C25.432 32.6003 25.2153 32.9513 24.9293 33.246C24.6433 33.532 24.301 33.753 23.9023 33.909C23.5037 34.0563 23.0573 34.13 22.5633 34.13ZM22.5633 32.895C22.884 32.895 23.1657 32.817 23.4083 32.661C23.651 32.505 23.8373 32.2753 23.9673 31.972C24.106 31.66 24.1753 31.2743 24.1753 30.815C24.1753 30.1217 24.028 29.606 23.7333 29.268C23.4387 28.9213 23.0487 28.748 22.5633 28.748C22.2427 28.748 21.961 28.826 21.7183 28.982C21.4757 29.1293 21.285 29.359 21.1463 29.671C21.0163 29.9743 20.9513 30.3557 20.9513 30.815C20.9513 31.4997 21.0987 32.0197 21.3933 32.375C21.688 32.7217 22.078 32.895 22.5633 32.895ZM30.0031 34.13C29.4398 34.13 28.9674 34.0347 28.5861 33.844C28.2134 33.6533 27.9361 33.376 27.7541 33.012C27.5721 32.6393 27.4811 32.18 27.4811 31.634V28.865H26.8051C26.5971 28.865 26.4368 28.813 26.3241 28.709C26.2114 28.5963 26.1551 28.4447 26.1551 28.254C26.1551 28.0547 26.2114 27.903 26.3241 27.799C26.4368 27.695 26.5971 27.643 26.8051 27.643H27.4811V26.46C27.4811 26.1913 27.5504 25.9877 27.6891 25.849C27.8364 25.7103 28.0401 25.641 28.3001 25.641C28.5601 25.641 28.7594 25.7103 28.8981 25.849C29.0368 25.9877 29.1061 26.1913 29.1061 26.46V27.643H30.4841C30.6921 27.643 30.8524 27.695 30.9651 27.799C31.0778 27.903 31.1341 28.0547 31.1341 28.254C31.1341 28.4447 31.0778 28.5963 30.9651 28.709C30.8524 28.813 30.6921 28.865 30.4841 28.865H29.1061V31.543C29.1061 31.959 29.1971 32.271 29.3791 32.479C29.5611 32.687 29.8558 32.791 30.2631 32.791C30.4104 32.791 30.5404 32.778 30.6531 32.752C30.7658 32.726 30.8654 32.7087 30.9521 32.7C31.0561 32.6913 31.1428 32.726 31.2121 32.804C31.2814 32.8733 31.3161 33.0207 31.3161 33.246C31.3161 33.4193 31.2858 33.5753 31.2251 33.714C31.1731 33.844 31.0734 33.935 30.9261 33.987C30.8134 34.0217 30.6661 34.052 30.4841 34.078C30.3021 34.1127 30.1418 34.13 30.0031 34.13Z" fill="#E65100"/>
<g clip-path="url(#clip0_526_134)">
<path d="M20 14.1667C17.7 14.1667 15.8333 12.3 15.8333 10C15.8333 7.7 17.7 5.83333 20 5.83333C22.3 5.83333 24.1667 7.7 24.1667 10C24.1667 12.3 22.3 14.1667 20 14.1667ZM20 7.5C18.625 7.5 17.5 8.625 17.5 10C17.5 11.375 18.625 12.5 20 12.5C21.375 12.5 22.5 11.375 22.5 10C22.5 8.625 21.375 7.5 20 7.5ZM20.8333 3.33333V0.833333C20.8333 0.375 20.4583 0 20 0C19.5417 0 19.1667 0.375 19.1667 0.833333V3.33333C19.1667 3.79167 19.5417 4.16667 20 4.16667C20.4583 4.16667 20.8333 3.79167 20.8333 3.33333ZM20.8333 19.1667V16.6667C20.8333 16.2083 20.4583 15.8333 20 15.8333C19.5417 15.8333 19.1667 16.2083 19.1667 16.6667V19.1667C19.1667 19.625 19.5417 20 20 20C20.4583 20 20.8333 19.625 20.8333 19.1667ZM14.1667 10C14.1667 9.54167 13.7917 9.16667 13.3333 9.16667H10.8333C10.375 9.16667 10 9.54167 10 10C10 10.4583 10.375 10.8333 10.8333 10.8333H13.3333C13.7917 10.8333 14.1667 10.4583 14.1667 10ZM30 10C30 9.54167 29.625 9.16667 29.1667 9.16667H26.6667C26.2083 9.16667 25.8333 9.54167 25.8333 10C25.8333 10.4583 26.2083 10.8333 26.6667 10.8333H29.1667C29.625 10.8333 30 10.4583 30 10ZM15.5917 5.59167C15.9167 5.26667 15.9167 4.74167 15.5917 4.41667L13.925 2.75C13.6 2.425 13.075 2.425 12.75 2.75C12.425 3.075 12.425 3.6 12.75 3.925L14.4167 5.59167C14.5833 5.75833 14.7917 5.83333 15.0083 5.83333C15.225 5.83333 15.4333 5.75 15.6 5.59167H15.5917ZM27.2583 17.2583C27.5833 16.9333 27.5833 16.4083 27.2583 16.0833L25.5917 14.4167C25.2667 14.0917 24.7417 14.0917 24.4167 14.4167C24.0917 14.7417 24.0917 15.2667 24.4167 15.5917L26.0833 17.2583C26.25 17.425 26.4583 17.5 26.675 17.5C26.8917 17.5 27.1 17.4167 27.2667 17.2583H27.2583ZM13.925 17.2583L15.5917 15.5917C15.9167 15.2667 15.9167 14.7417 15.5917 14.4167C15.2667 14.0917 14.7417 14.0917 14.4167 14.4167L12.75 16.0833C12.425 16.4083 12.425 16.9333 12.75 17.2583C12.9167 17.425 13.125 17.5 13.3417 17.5C13.5583 17.5 13.7667 17.4167 13.9333 17.2583H13.925ZM25.5917 5.59167L27.2583 3.925C27.5833 3.6 27.5833 3.075 27.2583 2.75C26.9333 2.425 26.4083 2.425 26.0833 2.75L24.4167 4.41667C24.0917 4.74167 24.0917 5.26667 24.4167 5.59167C24.5833 5.75833 24.7917 5.83333 25.0083 5.83333C25.225 5.83333 25.4333 5.75 25.6 5.59167H25.5917Z" fill="#E65100"/>
</g>
<defs>
<clipPath id="clip0_526_134">
<rect width="20" height="20" fill="white" transform="translate(10)"/>
</clipPath>
</defs>
</svg>
