<svg width="20" height="20" viewBox="0 0 20 20" fill="none" xmlns="http://www.w3.org/2000/svg">
<g clip-path="url(#clip0_526_1276)">
<path d="M8.33329 14.1666C8.18249 14.1665 8.03455 14.1255 7.90525 14.0479C7.77594 13.9703 7.67011 13.8591 7.59903 13.7261C7.52796 13.5931 7.4943 13.4433 7.50166 13.2927C7.50901 13.142 7.5571 12.9962 7.64079 12.8708L10.9741 7.8708C11.0968 7.68691 11.2875 7.55929 11.5042 7.516C11.721 7.47271 11.9461 7.5173 12.13 7.63996C12.3138 7.76263 12.4415 7.95331 12.4848 8.17007C12.528 8.38683 12.4835 8.61191 12.3608 8.7958L9.02746 13.7958C8.95126 13.91 8.84801 14.0036 8.72691 14.0683C8.60581 14.133 8.47059 14.1668 8.33329 14.1666ZM16.4825 17.315C22.1975 11.2016 17.7483 5.21413 12.6783 0.981629C11.9319 0.344064 10.9824 -0.00622559 10.0008 -0.00622559C9.01914 -0.00622559 8.06971 0.344064 7.32329 0.981629C2.25496 5.19246 -2.19171 11.2425 3.51829 17.315C5.23736 19.034 7.56888 19.9997 9.99996 19.9997C12.431 19.9997 14.7634 19.034 16.4825 17.315ZM11.5991 2.24996C15.5833 5.64746 20.3583 10.805 15.3033 16.1366C13.8922 17.5345 11.9862 18.3186 9.99996 18.3186C8.0137 18.3186 6.10776 17.5345 4.69662 16.1366C-0.362542 10.8033 4.42579 5.63663 8.40079 2.25163C8.84685 1.87137 9.41381 1.6625 9.99996 1.6625C10.5861 1.6625 11.1531 1.87137 11.5991 2.25163V2.24996ZM6.66662 8.3333C6.66662 8.55431 6.75442 8.76627 6.9107 8.92255C7.06698 9.07883 7.27894 9.16663 7.49996 9.16663C7.72097 9.16663 7.93293 9.07883 8.08921 8.92255C8.24549 8.76627 8.33329 8.55431 8.33329 8.3333C8.33329 8.11228 8.24549 7.90032 8.08921 7.74404C7.93293 7.58776 7.72097 7.49996 7.49996 7.49996C7.27894 7.49996 7.06698 7.58776 6.9107 7.74404C6.75442 7.90032 6.66662 8.11228 6.66662 8.3333ZM11.6666 13.3333C11.6666 13.5543 11.7544 13.7663 11.9107 13.9226C12.067 14.0788 12.2789 14.1666 12.5 14.1666C12.721 14.1666 12.9329 14.0788 13.0892 13.9226C13.2455 13.7663 13.3333 13.5543 13.3333 13.3333C13.3333 13.1123 13.2455 12.9003 13.0892 12.744C12.9329 12.5878 12.721 12.5 12.5 12.5C12.2789 12.5 12.067 12.5878 11.9107 12.744C11.7544 12.9003 11.6666 13.1123 11.6666 13.3333Z" fill="#888888"/>
</g>
<defs>
<clipPath id="clip0_526_1276">
<rect width="20" height="20" fill="white"/>
</clipPath>
</defs>
</svg>
