<svg width="700" height="350" viewBox="0 0 700 350" fill="none" xmlns="http://www.w3.org/2000/svg">
<g clip-path="url(#clip0_6274_759)">
<path d="M72.2046 314.24L136.778 305.149V247.802L72.2046 260.39V314.24Z" fill="#21306F" fill-opacity="0.05"/>
<path d="M559.184 317.037L623.057 325.896V276.475L559.184 264.12V317.037Z" fill="#21306F" fill-opacity="0.05"/>
<path d="M406.959 295.357L471.765 304.682V247.103L406.959 234.514V295.357Z" fill="#21306F" fill-opacity="0.05"/>
<path d="M480.624 305.848L550.092 315.639V262.488L480.624 248.968V305.848Z" fill="#21306F" fill-opacity="0.05"/>
<path d="M6 323.565L63.3465 315.406V262.022L6 273.212V323.565Z" fill="#21306F" fill-opacity="0.05"/>
<path d="M631.916 278.34V327.294L693.458 335.92V290.229L631.916 278.34Z" fill="#21306F" fill-opacity="0.05"/>
<path d="M145.87 303.75L215.571 293.959V232.416L145.87 246.17V303.75Z" fill="#21306F" fill-opacity="0.05"/>
<path d="M317.209 282.769L398.101 294.192V232.883L317.209 217.031V282.769Z" fill="#21306F" fill-opacity="0.05"/>
<path d="M224.429 292.793L294.83 282.769V217.031L224.429 230.784V292.793Z" fill="#21306F" fill-opacity="0.05"/>
<path d="M480.624 369.488L550.092 375.549V322.399L480.624 312.608V369.488Z" fill="#21306F" fill-opacity="0.05"/>
<path d="M317.209 355.035L398.101 362.262V300.952L317.209 289.53V355.035Z" fill="#21306F" fill-opacity="0.05"/>
<path d="M559.184 376.482L623.057 382.077V332.656L559.184 323.565V376.482Z" fill="#21306F" fill-opacity="0.05"/>
<path d="M406.959 227.754L471.765 240.342V182.996L406.959 166.911V227.754Z" fill="#21306F" fill-opacity="0.05"/>
<path d="M317.209 210.27L398.101 226.122V164.813L317.209 144.765V210.27Z" fill="#21306F" fill-opacity="0.05"/>
<path d="M559.184 257.36L623.057 269.715V220.528L559.184 204.676V257.36Z" fill="#21306F" fill-opacity="0.05"/>
<path d="M631.916 222.625V271.58L693.458 283.469V237.778L631.916 222.625Z" fill="#21306F" fill-opacity="0.05"/>
<path d="M6 266.684L63.3465 255.495V202.111L6 216.331V266.684Z" fill="#21306F" fill-opacity="0.05"/>
<path d="M224.429 162.248V224.024L294.83 210.27V144.765L224.429 162.248Z" fill="#21306F" fill-opacity="0.05"/>
<path d="M145.87 110.497L215.571 89.5163V28.2069L145.87 52.6841V110.497Z" fill="#21306F" fill-opacity="0.05"/>
<path d="M224.429 24.9434V86.9522L294.83 65.7386V0L224.429 24.9434Z" fill="#21306F" fill-opacity="0.05"/>
<path d="M559.184 197.915L623.057 213.767V164.347L559.184 145.231V197.915Z" fill="#21306F" fill-opacity="0.05"/>
<path d="M480.624 178.567L550.092 195.584V142.434L480.624 121.453V178.567Z" fill="#21306F" fill-opacity="0.05"/>
<path d="M6 209.571L63.3465 195.351V141.968L6 159.218V209.571Z" fill="#21306F" fill-opacity="0.05"/>
<path d="M406.959 160.15L471.765 176.235V118.889L406.959 99.5403V160.15Z" fill="#21306F" fill-opacity="0.05"/>
<path d="M224.429 155.488L294.83 138.004V72.4989L224.429 93.7124V155.488Z" fill="#21306F" fill-opacity="0.05"/>
<path d="M317.209 138.004L398.101 158.052V96.743L317.209 72.2659V138.004Z" fill="#21306F" fill-opacity="0.05"/>
<path d="M631.916 166.911V215.865L693.458 231.251V185.56L631.916 166.911Z" fill="#21306F" fill-opacity="0.05"/>
<path d="M72.2046 193.253L136.778 177.168V119.822L72.2046 139.403V193.253Z" fill="#21306F" fill-opacity="0.05"/>
<path d="M145.87 174.837L215.571 157.819V96.2769L145.87 117.257V174.837Z" fill="#21306F" fill-opacity="0.05"/>
<path d="M145.87 368.323L215.571 362.029V300.719L145.87 310.51V368.323Z" fill="#21306F" fill-opacity="0.05"/>
<path d="M224.429 299.32V361.329L294.83 355.035V289.53L224.429 299.32Z" fill="#21306F" fill-opacity="0.05"/>
<path d="M6 380.678L63.3465 375.549V322.166L6 330.325V380.678Z" fill="#21306F" fill-opacity="0.05"/>
<path d="M406.959 92.78L471.765 112.129V54.7821L406.959 31.9368V92.78Z" fill="#21306F" fill-opacity="0.05"/>
<path d="M317.209 65.7386L398.101 89.9827V28.6732L317.209 0V65.7386Z" fill="#21306F" fill-opacity="0.05"/>
<path d="M559.184 138.471L623.057 157.586V108.166L559.184 85.5533V138.471Z" fill="#21306F" fill-opacity="0.05"/>
</g>
<defs>
<clipPath id="clip0_6274_759">
<rect width="700" height="350" fill="white"/>
</clipPath>
</defs>
</svg>
