<svg width="20" height="20" viewBox="0 0 20 20" fill="none" xmlns="http://www.w3.org/2000/svg">
<path d="M17.4456 4.28187L13.5395 0.180223C13.4296 0.0648457 13.2805 0 13.1252 0H4.14062C3.17137 0 2.38281 0.827982 2.38281 1.8457V18.1543C2.38281 19.172 3.17137 20 4.14062 20H15.8594C16.8286 20 17.6172 19.172 17.6172 18.1543V4.71692C17.6172 4.55376 17.5555 4.39724 17.4456 4.28187ZM13 2L16 5H13V2Z" fill="#A8BFCA"/>
<path d="M10.5887 14.5975C11.5276 14.5501 12.3337 13.9431 12.6372 13.0422C13.0355 11.8472 12.3906 10.5385 11.1862 10.1402L9.01442 9.41941C8.5592 9.26767 8.31262 8.77452 8.46436 8.3193C8.57817 7.95892 8.9101 7.72183 9.28945 7.72183H10.2378C10.7499 7.72183 11.1957 8.04427 11.3569 8.52794C11.4802 8.89781 11.888 9.09697 12.2579 8.97368C12.6277 8.85039 12.8269 8.44259 12.7036 8.07273C12.3906 7.11487 11.5655 6.45101 10.5887 6.31824V5.71128C10.5887 5.32245 10.2663 5 9.87744 5C9.48861 5 9.16616 5.32245 9.16616 5.71128V6.29927C8.22727 6.34669 7.42115 6.95365 7.11767 7.8546C6.71936 9.04955 7.36425 10.3583 8.56868 10.7566L10.7405 11.4774C11.1957 11.6291 11.4423 12.1223 11.2905 12.5775C11.1767 12.9379 10.8448 13.175 10.4654 13.175H9.51706C9.00493 13.175 8.5592 12.8525 8.39798 12.3689C8.27469 11.999 7.86689 11.7998 7.49702 11.9231C7.12716 12.0464 6.928 12.4542 7.05129 12.8241C7.36425 13.7819 8.18933 14.4458 9.16616 14.5786V15.1855C9.16616 15.5744 9.48861 15.8968 9.87744 15.8968C10.2663 15.8968 10.5887 15.5744 10.5887 15.1855V14.5975Z" fill="white"/>
</svg>
