<svg width="20" height="20" viewBox="0 0 20 20" fill="none" xmlns="http://www.w3.org/2000/svg">
<path d="M17.4456 4.28187L13.5395 0.180223C13.4296 0.0648457 13.2805 0 13.1252 0H4.14062C3.17137 0 2.38281 0.827982 2.38281 1.8457V18.1543C2.38281 19.172 3.17137 20 4.14062 20H15.8594C16.8286 20 17.6172 19.172 17.6172 18.1543V4.71692C17.6172 4.55376 17.5555 4.39724 17.4456 4.28187ZM13 2L16 5H13V2Z" fill="#B71C1C"/>
<g clip-path="url(#clip0_724_86)">
<path d="M14.0161 8.32107L10.103 7.01671C10.036 6.99443 9.96379 6.99443 9.8967 7.01671L5.98365 8.32107C5.85055 8.36544 5.76074 8.49005 5.76074 8.63041V11.2449C5.76072 14.9868 9.0915 17 9.99988 17C10.6516 17 14.239 15.2285 14.239 11.2448V8.63039C14.239 8.49005 14.1492 8.36542 14.0161 8.32107ZM12.9347 11.2456C12.9347 14.0789 10.4821 15.601 9.99986 15.6015V8.37812C10.0972 8.37832 12.6192 9.22935 12.7115 9.26003C12.8446 9.30429 12.9346 9.42902 12.9346 9.56945L12.9347 11.2456Z" fill="white"/>
</g>
<defs>
<clipPath id="clip0_724_86">
<rect width="10" height="10" fill="white" transform="translate(5 7)"/>
</clipPath>
</defs>
</svg>
