<svg width="20" height="20" viewBox="0 0 20 20" fill="none" xmlns="http://www.w3.org/2000/svg">
<path d="M17.4456 4.28187L13.5395 0.180223C13.4296 0.0648457 13.2805 0 13.1252 0H4.14062C3.17137 0 2.38281 0.827982 2.38281 1.8457V18.1543C2.38281 19.172 3.17137 20 4.14062 20H15.8594C16.8286 20 17.6172 19.172 17.6172 18.1543V4.71692C17.6172 4.55376 17.5555 4.39724 17.4456 4.28187ZM13 2L16 5H13V2Z" fill="#B71C1C"/>
<g clip-path="url(#clip0_724_220)">
<path d="M14.6875 11.5312V12.4688C14.6874 12.593 14.6379 12.7122 14.5501 12.8001C14.4622 12.8879 14.343 12.9374 14.2188 12.9375H13.5506C13.4668 13.2562 13.3399 13.5621 13.1736 13.8466L13.6465 14.3209C13.7338 14.4089 13.7828 14.5278 13.7827 14.6517C13.7827 14.7756 13.7337 14.8945 13.6464 14.9824L12.9823 15.6464C12.8933 15.7316 12.7748 15.7791 12.6515 15.7791C12.5283 15.7791 12.4098 15.7316 12.3207 15.6464L11.8466 15.1736C11.5621 15.3399 11.2562 15.4668 10.9375 15.5506V16.2188C10.9374 16.343 10.8879 16.4622 10.8001 16.5501C10.7122 16.6379 10.593 16.6874 10.4688 16.6875H9.53125C9.40697 16.6874 9.28782 16.6379 9.19994 16.5501C9.11207 16.4622 9.06264 16.343 9.0625 16.2188V15.5506C8.86889 15.4994 8.67979 15.4324 8.49709 15.3504C8.47417 15.3398 8.45413 15.324 8.43864 15.3041C8.42315 15.2842 8.41267 15.2608 8.40808 15.236C8.4035 15.2113 8.40494 15.1857 8.41229 15.1616C8.41964 15.1375 8.43268 15.1155 8.45032 15.0975L9.11438 14.4318C9.13434 14.4118 9.15933 14.3976 9.18671 14.3907C9.21408 14.3838 9.24282 14.3844 9.26987 14.3925C9.50672 14.4636 9.75269 14.4999 10 14.5C10.4945 14.5 10.9778 14.3534 11.3889 14.0787C11.8 13.804 12.1205 13.4135 12.3097 12.9567C12.4989 12.4999 12.5484 11.9972 12.452 11.5123C12.3555 11.0273 12.1174 10.5819 11.7678 10.2322C11.4181 9.8826 10.9727 9.6445 10.4877 9.54804C10.0028 9.45157 9.50011 9.50108 9.04329 9.6903C8.58648 9.87952 8.19603 10.2 7.92133 10.6111C7.64662 11.0222 7.5 11.5055 7.5 12C7.50023 12.2468 7.53644 12.4923 7.6075 12.7287C7.6156 12.7557 7.61622 12.7844 7.60932 12.8117C7.60241 12.8391 7.58823 12.864 7.56828 12.8839L6.90262 13.5495C6.88462 13.5672 6.86262 13.5803 6.83848 13.5877C6.81435 13.5951 6.78879 13.5966 6.76397 13.592C6.73914 13.5874 6.71579 13.5769 6.69587 13.5614C6.67596 13.5459 6.66007 13.5259 6.64955 13.5029C6.5676 13.3202 6.50065 13.1311 6.44936 12.9375H5.78125C5.65697 12.9374 5.53782 12.8879 5.44994 12.8001C5.36207 12.7122 5.31264 12.593 5.3125 12.4688V11.5312C5.31264 11.407 5.36207 11.2878 5.44994 11.1999C5.53782 11.1121 5.65697 11.0626 5.78125 11.0625H6.44936C6.53322 10.7437 6.66006 10.4379 6.82641 10.1533L6.35345 9.67906C6.2662 9.59109 6.21725 9.4722 6.21728 9.3483C6.21731 9.22439 6.26631 9.10552 6.35361 9.01759L7.01767 8.35361C7.10673 8.26841 7.22523 8.22086 7.34848 8.22086C7.47173 8.22086 7.59023 8.26841 7.67929 8.35361L8.15338 8.82641C8.43791 8.66005 8.74375 8.5332 9.0625 8.44936V7.78125C9.06264 7.65697 9.11207 7.53782 9.19994 7.44994C9.28782 7.36207 9.40697 7.31264 9.53125 7.3125H10.4688C10.593 7.31264 10.7122 7.36207 10.8001 7.44994C10.8879 7.53782 10.9374 7.65697 10.9375 7.78125V8.44936C11.2562 8.5332 11.5621 8.66005 11.8466 8.82641L12.3209 8.35345C12.41 8.26835 12.5285 8.22087 12.6517 8.2209C12.7749 8.22092 12.8934 8.26846 12.9824 8.35361L13.6464 9.01767C13.7337 9.10562 13.7827 9.22454 13.7827 9.34848C13.7827 9.47243 13.7337 9.59134 13.6464 9.67929L13.1736 10.1533C13.3399 10.4379 13.4668 10.7437 13.5506 11.0625H14.2188C14.343 11.0626 14.4622 11.1121 14.5501 11.1999C14.6379 11.2878 14.6874 11.407 14.6875 11.5312ZM11.7799 11.2025C11.7712 11.1775 11.7563 11.155 11.7366 11.1373C11.7169 11.1195 11.6931 11.1071 11.6673 11.101C11.6415 11.0949 11.6145 11.0955 11.589 11.1026C11.5635 11.1097 11.5402 11.1232 11.5212 11.1417L10.8102 11.8528L10.313 11.687L10.1473 11.1898L10.8583 10.4788C10.8768 10.4598 10.8903 10.4365 10.8974 10.411C10.9045 10.3855 10.9051 10.3585 10.899 10.3327C10.893 10.3069 10.8805 10.2831 10.8627 10.2634C10.845 10.2437 10.8225 10.2288 10.7975 10.2201C10.5299 10.1298 10.2428 10.1138 9.96685 10.1738C9.69088 10.2339 9.43638 10.3677 9.23049 10.561C9.0246 10.7543 8.87504 10.9999 8.79777 11.2715C8.7205 11.5432 8.71841 11.8307 8.79173 12.1035L5.55504 15.3402C5.40853 15.4867 5.32622 15.6854 5.32622 15.8926C5.32622 16.0998 5.40853 16.2985 5.55504 16.445C5.70155 16.5915 5.90025 16.6738 6.10745 16.6738C6.31464 16.6738 6.51334 16.5915 6.65985 16.445L9.89655 13.2083C10.1693 13.2816 10.4568 13.2795 10.7285 13.2022C11.0001 13.125 11.2457 12.9754 11.439 12.7695C11.6323 12.5636 11.7661 12.3091 11.8262 12.0332C11.8862 11.7572 11.8702 11.4701 11.7799 11.2025Z" fill="white"/>
</g>
<defs>
<clipPath id="clip0_724_220">
<rect width="10" height="10" fill="white" transform="translate(5 7)"/>
</clipPath>
</defs>
</svg>
