<svg width="20" height="20" viewBox="0 0 20 20" fill="none" xmlns="http://www.w3.org/2000/svg">
<path d="M17.4456 4.28187L13.5395 0.180223C13.4296 0.0648457 13.2805 0 13.1252 0H4.14062C3.17137 0 2.38281 0.827982 2.38281 1.8457V18.1543C2.38281 19.172 3.17137 20 4.14062 20H15.8594C16.8286 20 17.6172 19.172 17.6172 18.1543V4.71692C17.6172 4.55376 17.5555 4.39724 17.4456 4.28187ZM13 2L16 5H13V2Z" fill="#1E538F"/>
<path d="M12.0769 15.9208L11.9371 16.492C11.518 16.6575 11.1831 16.7834 10.9338 16.87C10.6842 16.9568 10.3942 17 10.0637 17C9.55628 17 9.16157 16.8757 8.88006 16.6288C8.59855 16.3809 8.45775 16.0667 8.45775 15.6857C8.45775 15.5381 8.46797 15.3864 8.48921 15.2318C8.51063 15.077 8.54469 14.9027 8.59129 14.7079L9.11515 12.8537C9.16175 12.6762 9.20137 12.5079 9.23309 12.3489C9.26527 12.1908 9.28077 12.0453 9.28077 11.9144C9.28077 11.6776 9.23175 11.512 9.13415 11.4188C9.03655 11.326 8.85031 11.2788 8.57382 11.2788C8.4384 11.2788 8.29921 11.3005 8.15733 11.3425C8.01483 11.3846 7.89303 11.4253 7.79077 11.4631L7.93085 10.8915C8.27403 10.7518 8.60205 10.6321 8.91582 10.5328C9.2296 10.4332 9.52608 10.3834 9.80651 10.3834C10.3105 10.3834 10.6993 10.5052 10.9724 10.7488C11.2455 10.9926 11.382 11.3086 11.382 11.698C11.382 11.7786 11.3731 11.9205 11.3538 12.1235C11.335 12.3268 11.2999 12.5131 11.2488 12.6826L10.7272 14.5293C10.6845 14.6777 10.646 14.8472 10.6126 15.038C10.5781 15.2276 10.5616 15.3724 10.5616 15.4696C10.5616 15.7148 10.6163 15.8822 10.7259 15.9712C10.8363 16.0602 11.0265 16.1045 11.2966 16.1045C11.4234 16.1045 11.5677 16.082 11.7281 16.0378C11.8879 15.9936 12.0045 15.9548 12.0769 15.9208ZM12.2092 8.1678C12.2092 8.48955 12.0879 8.76434 11.8442 8.99028C11.6011 9.21703 11.3083 9.3305 10.9656 9.3305C10.6219 9.3305 10.3283 9.21703 10.0825 8.99028C9.83707 8.76425 9.71411 8.48955 9.71411 8.1678C9.71411 7.84668 9.83707 7.57144 10.0825 7.34263C10.3279 7.11418 10.622 7 10.9656 7C11.3082 7 11.6011 7.11445 11.8442 7.34263C12.0881 7.57144 12.2092 7.84677 12.2092 8.1678Z" fill="white"/>
</svg>
