<svg width="192" height="100" viewBox="0 0 192 100" fill="none" xmlns="http://www.w3.org/2000/svg">
<path d="M62.8728 37.2183L70.5258 36.1384V29.3553L62.8728 30.844V37.2183Z" fill="url(#paint0_linear_2328_1461)"/>
<path d="M120.559 37.5442L128.11 38.613V32.758L120.559 31.2887V37.5442Z" fill="url(#paint1_linear_2328_1461)"/>
<path d="M102.535 34.995L110.185 36.0777V29.2726L102.535 27.7839V34.995Z" fill="url(#paint2_linear_2328_1461)"/>
<path d="M111.254 36.2269L119.493 37.3924V31.0816L111.254 29.4797V36.2269Z" fill="url(#paint3_linear_2328_1461)"/>
<path d="M55.0154 38.3313L61.8095 37.3702V31.0511L55.0154 32.3713V38.3313Z" fill="url(#paint4_linear_2328_1461)"/>
<path d="M129.176 32.9651V38.7622L136.453 39.7923V34.3791L129.176 32.9651Z" fill="url(#paint5_linear_2328_1461)"/>
<path d="M71.5918 35.9865L79.8331 34.821V27.5436L71.5918 29.1482V35.9865Z" fill="url(#paint6_linear_2328_1461)"/>
<path d="M91.8801 33.487L101.469 34.8431V27.5768L91.8801 25.7125V33.487Z" fill="url(#paint7_linear_2328_1461)"/>
<path d="M80.8992 34.6692L89.2371 33.4899V25.7153L80.8992 27.3365V34.6692Z" fill="url(#paint8_linear_2328_1461)"/>
<path d="M102.535 59.0118L110.185 58.8764V52.0713L102.535 51.8007V59.0118Z" fill="url(#paint9_linear_2328_1461)"/>
<path d="M91.8801 59.1996L101.469 59.0311V51.762L91.8801 51.425V59.1996Z" fill="url(#paint10_linear_2328_1461)"/>
<path d="M111.254 58.8571L119.493 58.7107V52.4L111.254 52.11V58.8571Z" fill="url(#paint11_linear_2328_1461)"/>
<path d="M129.176 52.7424V58.5395L136.453 58.4124V53.002L129.176 52.7424Z" fill="url(#paint12_linear_2328_1461)"/>
<path d="M120.559 58.6942L128.11 58.5589V52.7039L120.559 52.4387V58.6942Z" fill="url(#paint13_linear_2328_1461)"/>
<path d="M111.254 43.7721L119.493 44.4985V38.1877L111.254 37.0222V43.7721Z" fill="url(#paint14_linear_2328_1461)"/>
<path d="M91.8801 42.0598L101.469 42.9076V35.6385L91.8801 34.2825V42.0598Z" fill="url(#paint15_linear_2328_1461)"/>
<path d="M120.559 44.5951L128.11 45.2607V39.4084L120.559 38.3396V44.5951Z" fill="url(#paint16_linear_2328_1461)"/>
<path d="M102.535 26.9885L110.185 28.4771V21.672L102.535 19.7773V26.9885Z" fill="url(#paint17_linear_2328_1461)"/>
<path d="M91.8801 24.9172L101.469 26.7814V19.5151L91.8801 17.1399V24.9172Z" fill="url(#paint18_linear_2328_1461)"/>
<path d="M120.559 30.4933L128.11 31.9626V26.1075L120.559 24.2378V30.4933Z" fill="url(#paint19_linear_2328_1461)"/>
<path d="M129.176 26.3727V32.1697L136.453 33.5838V28.1734L129.176 26.3727Z" fill="url(#paint20_linear_2328_1461)"/>
<path d="M71.5918 58.8875L79.8331 59.0339V51.7565L71.5918 52.0492V58.8875Z" fill="url(#paint21_linear_2328_1461)"/>
<path d="M62.8728 58.7357L70.5258 58.871V52.0852L62.8728 52.3559V58.7357Z" fill="url(#paint22_linear_2328_1461)"/>
<path d="M55.0154 58.5948L61.8095 58.7163V52.3945L55.0154 52.6348V58.5948Z" fill="url(#paint23_linear_2328_1461)"/>
<path d="M80.8992 51.7206V59.0532L89.2371 59.1996V51.425L80.8992 51.7206Z" fill="url(#paint24_linear_2328_1461)"/>
<path d="M55.0154 31.5759L61.8095 30.2558V23.934L55.0154 25.6159V31.5759Z" fill="url(#paint25_linear_2328_1461)"/>
<path d="M80.8992 19.2085V26.5411L89.2371 24.9199V17.1454L80.8992 19.2085Z" fill="url(#paint26_linear_2328_1461)"/>
<path d="M55.0154 51.8394L61.8095 51.5991V45.28L55.0154 45.8821V51.8394Z" fill="url(#paint27_linear_2328_1461)"/>
<path d="M120.559 51.6433L128.11 51.9112V46.0562L120.559 45.3878V51.6433Z" fill="url(#paint28_linear_2328_1461)"/>
<path d="M62.8728 51.5604L70.5258 51.2898V44.5095L62.8728 45.1862V51.5604Z" fill="url(#paint29_linear_2328_1461)"/>
<path d="M111.254 51.3146L119.493 51.6046V45.2938L111.254 44.5647V51.3146Z" fill="url(#paint30_linear_2328_1461)"/>
<path d="M129.176 46.15V51.9471L136.453 52.2039V46.7935L129.176 46.15Z" fill="url(#paint31_linear_2328_1461)"/>
<path d="M91.8801 50.6297L101.469 50.9666V43.7003L91.8801 42.8524V50.6297Z" fill="url(#paint32_linear_2328_1461)"/>
<path d="M80.8992 50.9253L89.2371 50.6297V42.8552L80.8992 43.5926V50.9253Z" fill="url(#paint33_linear_2328_1461)"/>
<path d="M71.5918 13.0856L79.8331 10.6082V3.33081L71.5918 6.24453V13.0856Z" fill="url(#paint34_linear_2328_1461)"/>
<path d="M80.8992 2.95512V10.2878L89.2371 7.78278V0.00549316L80.8992 2.95512Z" fill="url(#paint35_linear_2328_1461)"/>
<path d="M120.559 23.4451L128.11 25.3121V19.4598L120.559 17.1896V23.4451Z" fill="url(#paint36_linear_2328_1461)"/>
<path d="M111.254 21.1417L119.493 23.18V16.8692L111.254 14.3918V21.1417Z" fill="url(#paint37_linear_2328_1461)"/>
<path d="M55.0154 24.8205L61.8095 23.1385V16.8195L55.0154 18.8604V24.8205Z" fill="url(#paint38_linear_2328_1461)"/>
<path d="M102.535 18.982L110.185 20.8766V14.0743L102.535 11.7737V18.982Z" fill="url(#paint39_linear_2328_1461)"/>
<path d="M80.8992 18.4158L89.2371 16.35V8.57544L80.8992 11.0832V18.4158Z" fill="url(#paint40_linear_2328_1461)"/>
<path d="M91.8801 16.3472L101.469 18.7196V11.4533L91.8801 8.56995V16.3472Z" fill="url(#paint41_linear_2328_1461)"/>
<path d="M129.176 19.7802V25.5772L136.453 27.3779V21.9675L129.176 19.7802Z" fill="url(#paint42_linear_2328_1461)"/>
<path d="M62.8728 22.8761L70.5258 20.9815V14.1985L62.8728 16.4991V22.8761Z" fill="url(#paint43_linear_2328_1461)"/>
<path d="M71.5918 20.7192L79.8331 18.6782V11.4036L71.5918 13.8809V20.7192Z" fill="url(#paint44_linear_2328_1461)"/>
<path d="M71.5918 43.6202L79.8331 42.8911V35.6165L71.5918 36.7819V43.6202Z" fill="url(#paint45_linear_2328_1461)"/>
<path d="M80.8992 35.4646V42.7972L89.2371 42.0598V34.2853L80.8992 35.4646Z" fill="url(#paint46_linear_2328_1461)"/>
<path d="M55.0154 45.0868L61.8095 44.4847V38.1656L55.0154 39.1268V45.0868Z" fill="url(#paint47_linear_2328_1461)"/>
<path d="M102.535 10.9782L110.185 13.2788V6.47367L102.535 3.76709V10.9782Z" fill="url(#paint48_linear_2328_1461)"/>
<path d="M91.8801 7.77452L101.469 10.6579V3.39152L91.8801 0V7.77452Z" fill="url(#paint49_linear_2328_1461)"/>
<path d="M120.559 16.3969L128.11 18.6643V12.8093L120.559 10.1414V16.3969Z" fill="url(#paint50_linear_2328_1461)"/>
<path d="M37.2514 71.092L29.9105 93.7279H23.0557L18.7224 79.952L14.1958 93.7279H7.34092L0 71.092H6.59799L11.1578 85.5474L15.944 71.092H21.8294L26.3892 85.6772L31.1423 71.092H37.2514Z" fill="#414042"/>
<path d="M39.5466 71.092H45.9485V93.7279H39.5466V71.092Z" fill="#414042"/>
<path d="M53.129 93.5014C51.4029 93.0485 50.0026 92.4464 48.9255 91.6896L51.0273 86.9697C52.0409 87.638 53.2146 88.1766 54.5514 88.5881C55.8881 88.9969 57.2027 89.2012 58.498 89.2012C60.956 89.2012 62.185 88.5881 62.185 87.3591C62.185 86.7128 61.8343 86.2323 61.1355 85.9202C60.434 85.6081 59.3072 85.2795 57.7551 84.9342C56.051 84.5669 54.6287 84.1747 53.4881 83.7522C52.3447 83.3324 51.3642 82.6585 50.544 81.7305C49.7237 80.8053 49.315 79.5542 49.315 77.98C49.315 76.6018 49.6933 75.3562 50.4473 74.246C51.2013 73.1357 52.3281 72.2575 53.8278 71.6112C55.3247 70.9649 57.1641 70.639 59.3404 70.639C60.829 70.639 62.2928 70.8075 63.7372 71.1417C65.1816 71.4759 66.4548 71.9675 67.554 72.6137L65.5821 77.3668C63.4251 76.2041 61.3344 75.6214 59.31 75.6214C58.0368 75.6214 57.1116 75.8119 56.5288 76.1875C55.9461 76.5631 55.6561 77.0547 55.6561 77.6568C55.6561 78.2617 56.0013 78.7146 56.6918 79.0156C57.3822 79.3167 58.4925 79.6315 60.0225 79.9547C61.7459 80.322 63.1765 80.7142 64.3061 81.1367C65.4385 81.5565 66.4189 82.2249 67.2502 83.1418C68.0788 84.0587 68.4958 85.3043 68.4958 86.8785C68.4958 88.2374 68.1174 89.4664 67.3634 90.5656C66.6095 91.6675 65.4771 92.543 63.9692 93.2031C62.4612 93.8604 60.6274 94.1891 58.4731 94.1891C56.631 94.1808 54.8524 93.9543 53.129 93.5014Z" fill="#414042"/>
<path d="M79.9243 93.308C78.2976 92.8109 77.0079 92.1563 76.0605 91.3361L77.516 88.0688C78.4412 88.8007 79.5791 89.4 80.9269 89.864C82.2746 90.328 83.6279 90.56 84.984 90.56C86.6659 90.56 87.9198 90.2921 88.7511 89.7536C89.5797 89.215 89.9967 88.5052 89.9967 87.6187C89.9967 86.9724 89.7647 86.4366 89.3007 86.0168C88.8367 85.597 88.2512 85.2684 87.5387 85.0308C86.8289 84.7933 85.8567 84.5254 84.6277 84.2216C82.9016 83.8129 81.5069 83.4014 80.4408 82.9926C79.3747 82.5811 78.4578 81.9404 77.6928 81.0676C76.9278 80.1949 76.5439 79.0128 76.5439 77.527C76.5439 76.2786 76.8836 75.138 77.563 74.1161C78.2424 73.0943 79.2643 72.2795 80.6341 71.6747C82.004 71.0726 83.6804 70.7688 85.6634 70.7688C87.0415 70.7688 88.4004 70.94 89.7371 71.2853C91.0738 71.6305 92.2255 72.1276 93.1976 72.7739L91.872 76.0411C90.8805 75.4584 89.8448 75.0192 88.7677 74.7154C87.6906 74.4144 86.6438 74.2625 85.6303 74.2625C83.9704 74.2625 82.7359 74.5414 81.9267 75.1049C81.1174 75.6655 80.7142 76.4084 80.7142 77.3364C80.7142 77.9827 80.9462 78.5129 81.4102 78.9189C81.8742 79.3304 82.4624 79.6536 83.1722 79.8911C83.882 80.1286 84.8542 80.3965 86.0832 80.7003C87.7651 81.0897 89.1433 81.4929 90.2232 81.9127C91.3003 82.3325 92.2227 82.9733 92.9877 83.8377C93.7528 84.6994 94.1367 85.8649 94.1367 87.3314C94.1367 88.5798 93.797 89.7121 93.1175 90.7257C92.4381 91.7393 91.408 92.5485 90.0298 93.1506C88.6489 93.7554 86.967 94.0565 84.984 94.0565C83.2385 94.0509 81.551 93.8051 79.9243 93.308Z" fill="#414042"/>
<path d="M112 77.364C113.326 78.0959 114.367 79.1315 115.121 80.4683C115.875 81.805 116.253 83.3461 116.253 85.0916C116.253 86.8398 115.875 88.3836 115.121 89.7314C114.364 91.0792 113.326 92.1204 112 92.8523C110.677 93.5842 109.172 93.9515 107.49 93.9515C105.159 93.9515 103.317 93.1754 101.958 91.6233V99.9999H97.9148V76.4581H101.762V78.72C102.43 77.9025 103.256 77.2866 104.237 76.8779C105.217 76.4691 106.3 76.2648 107.487 76.2648C109.172 76.2648 110.677 76.6321 112 77.364ZM110.708 89.0051C111.666 88.0136 112.146 86.71 112.146 85.0916C112.146 83.4759 111.666 82.1695 110.708 81.1781C109.749 80.1866 108.523 79.6894 107.037 79.6894C106.068 79.6894 105.195 79.9104 104.416 80.3523C103.64 80.7942 103.024 81.4266 102.574 82.2441C102.121 83.0616 101.895 84.0117 101.895 85.0888C101.895 86.1659 102.121 87.116 102.574 87.9335C103.027 88.7537 103.64 89.3834 104.416 89.8253C105.192 90.2672 106.065 90.4881 107.037 90.4881C108.526 90.4937 109.749 89.9993 110.708 89.0051Z" fill="#414042"/>
<path d="M132.308 78.0931C133.655 79.3111 134.329 81.1477 134.329 83.6057V93.7278H130.515V91.626C130.018 92.38 129.314 92.9572 128.397 93.3549C127.48 93.7526 126.375 93.9515 125.08 93.9515C123.787 93.9515 122.655 93.7305 121.686 93.2886C120.716 92.8467 119.968 92.2309 119.44 91.4437C118.91 90.6566 118.648 89.7673 118.648 88.7758C118.648 87.2237 119.222 85.9781 120.377 85.0418C121.528 84.1028 123.346 83.6361 125.823 83.6361H130.286V83.3765C130.286 82.1695 129.924 81.2416 129.203 80.5953C128.483 79.949 127.411 79.6259 125.986 79.6259C125.016 79.6259 124.061 79.7778 123.125 80.0789C122.186 80.3799 121.396 80.8024 120.747 81.341L119.164 78.3997C120.07 77.7092 121.158 77.1817 122.431 76.8144C123.705 76.4471 125.05 76.2648 126.475 76.2648C129.016 76.2648 130.963 76.8751 132.308 78.0931ZM128.623 90.3169C129.411 89.8529 129.966 89.1901 130.289 88.3284V86.3233H126.118C123.79 86.3233 122.627 87.0911 122.627 88.6184C122.627 89.3503 122.917 89.933 123.5 90.3639C124.083 90.7947 124.889 91.0101 125.925 91.0101C126.936 91.0101 127.836 90.7809 128.623 90.3169Z" fill="#414042"/>
<path d="M142.77 92.822C141.347 92.068 140.237 91.0157 139.439 89.668C138.643 88.3202 138.243 86.7957 138.243 85.0916C138.243 83.3903 138.643 81.8686 139.439 80.5319C140.237 79.1979 141.342 78.1512 142.756 77.3944C144.167 76.6405 145.777 76.2621 147.589 76.2621C149.293 76.2621 150.784 76.6073 152.069 77.295C153.35 77.9855 154.314 78.9769 154.963 80.2695L151.856 82.0785C151.362 81.2831 150.743 80.6838 149.997 80.2861C149.252 79.8856 148.44 79.6867 147.556 79.6867C146.048 79.6867 144.794 80.1783 143.805 81.1588C142.814 82.1392 142.317 83.4483 142.317 85.0861C142.317 86.7239 142.808 88.033 143.789 89.0134C144.766 89.9939 146.023 90.4855 147.556 90.4855C148.44 90.4855 149.252 90.2866 149.997 89.8861C150.743 89.4884 151.362 88.8891 151.856 88.091L154.963 89.9C154.292 91.1925 153.32 92.1895 152.035 92.891C150.754 93.5897 149.271 93.9405 147.589 93.9405C145.799 93.9543 144.195 93.5759 142.77 92.822Z" fill="#414042"/>
<path d="M174.365 86.3868H160.818C161.055 87.66 161.674 88.6681 162.677 89.411C163.679 90.154 164.922 90.5268 166.411 90.5268C168.308 90.5268 169.871 89.9026 171.097 88.6515L173.265 91.1399C172.489 92.0679 171.509 92.7694 170.321 93.2417C169.137 93.7167 167.8 93.9542 166.314 93.9542C164.417 93.9542 162.746 93.5786 161.301 92.8219C159.854 92.0679 158.741 91.0157 157.954 89.6679C157.167 88.3201 156.775 86.7956 156.775 85.0916C156.775 83.4096 157.156 81.8961 157.921 80.5484C158.689 79.2006 159.749 78.1511 161.108 77.3971C162.467 76.6431 163.994 76.2648 165.698 76.2648C167.38 76.2648 168.882 76.6376 170.208 77.3805C171.534 78.1235 172.57 79.1702 173.312 80.518C174.058 81.8657 174.428 83.4234 174.428 85.191C174.428 85.4727 174.406 85.8704 174.365 86.3868ZM162.414 80.6478C161.519 81.4156 160.975 82.4319 160.782 83.7051H170.581C170.407 82.4568 169.88 81.4404 168.998 80.6644C168.115 79.8883 167.013 79.5016 165.698 79.5016C164.406 79.4989 163.312 79.8828 162.414 80.6478Z" fill="#414042"/>
<path d="M179.538 93.4046C178.201 93.0373 177.132 92.5733 176.337 92.0127L177.889 88.9415C178.665 89.458 179.596 89.875 180.687 90.1871C181.775 90.4992 182.846 90.6539 183.904 90.6539C186.321 90.6539 187.528 90.0186 187.528 88.7454C187.528 88.1434 187.221 87.7236 186.605 87.4833C185.992 87.2458 185.006 87.0193 183.647 86.8039C182.225 86.5885 181.065 86.3427 180.17 86.0609C179.275 85.782 178.499 85.2904 177.839 84.5889C177.182 83.8902 176.853 82.9125 176.853 81.6641C176.853 80.0264 177.535 78.7145 178.908 77.7341C180.275 76.7536 182.125 76.2648 184.454 76.2648C185.641 76.2648 186.823 76.4001 188.011 76.668C189.198 76.9387 190.168 77.2977 190.922 77.7506L189.37 80.8218C187.903 79.9601 186.254 79.5292 184.423 79.5292C183.236 79.5292 182.338 79.706 181.722 80.0623C181.106 80.4185 180.8 80.8881 180.8 81.4708C180.8 82.1171 181.128 82.5755 181.786 82.8434C182.443 83.1141 183.462 83.3654 184.843 83.6029C186.224 83.8184 187.354 84.0669 188.237 84.3486C189.121 84.6276 189.881 85.1026 190.519 85.771C191.154 86.4393 191.471 87.3894 191.471 88.6156C191.471 90.2341 190.77 91.5266 189.37 92.496C187.969 93.4654 186.061 93.9515 183.647 93.9515C182.241 93.9542 180.874 93.7692 179.538 93.4046Z" fill="#414042"/>
<defs>
<linearGradient id="paint0_linear_2328_1461" x1="51.9895" y1="24.3885" x2="128.603" y2="70.7303" gradientUnits="userSpaceOnUse">
<stop offset="4.02556e-07" stop-color="#95C23D"/>
<stop offset="0.25" stop-color="#4AA147"/>
<stop offset="0.75" stop-color="#00709E"/>
<stop offset="1" stop-color="#005582"/>
</linearGradient>
<linearGradient id="paint1_linear_2328_1461" x1="66.6025" y1="0.229835" x2="143.216" y2="46.5717" gradientUnits="userSpaceOnUse">
<stop offset="4.02556e-07" stop-color="#95C23D"/>
<stop offset="0.25" stop-color="#4AA147"/>
<stop offset="0.75" stop-color="#00709E"/>
<stop offset="1" stop-color="#005582"/>
</linearGradient>
<linearGradient id="paint2_linear_2328_1461" x1="63.1238" y1="5.98077" x2="139.737" y2="52.3227" gradientUnits="userSpaceOnUse">
<stop offset="4.02556e-07" stop-color="#95C23D"/>
<stop offset="0.25" stop-color="#4AA147"/>
<stop offset="0.75" stop-color="#00709E"/>
<stop offset="1" stop-color="#005582"/>
</linearGradient>
<linearGradient id="paint3_linear_2328_1461" x1="64.8648" y1="3.10289" x2="141.478" y2="49.4448" gradientUnits="userSpaceOnUse">
<stop offset="4.02556e-07" stop-color="#95C23D"/>
<stop offset="0.25" stop-color="#4AA147"/>
<stop offset="0.75" stop-color="#00709E"/>
<stop offset="1" stop-color="#005582"/>
</linearGradient>
<linearGradient id="paint4_linear_2328_1461" x1="49.1477" y1="29.0865" x2="125.761" y2="75.4284" gradientUnits="userSpaceOnUse">
<stop offset="4.02556e-07" stop-color="#95C23D"/>
<stop offset="0.25" stop-color="#4AA147"/>
<stop offset="0.75" stop-color="#00709E"/>
<stop offset="1" stop-color="#005582"/>
</linearGradient>
<linearGradient id="paint5_linear_2328_1461" x1="68.245" y1="-2.48568" x2="144.859" y2="43.8563" gradientUnits="userSpaceOnUse">
<stop offset="4.02556e-07" stop-color="#95C23D"/>
<stop offset="0.25" stop-color="#4AA147"/>
<stop offset="0.75" stop-color="#00709E"/>
<stop offset="1" stop-color="#005582"/>
</linearGradient>
<linearGradient id="paint6_linear_2328_1461" x1="55.0774" y1="19.2833" x2="131.691" y2="65.6252" gradientUnits="userSpaceOnUse">
<stop offset="4.02556e-07" stop-color="#95C23D"/>
<stop offset="0.25" stop-color="#4AA147"/>
<stop offset="0.75" stop-color="#00709E"/>
<stop offset="1" stop-color="#005582"/>
</linearGradient>
<linearGradient id="paint7_linear_2328_1461" x1="61.2387" y1="9.09744" x2="137.852" y2="55.4393" gradientUnits="userSpaceOnUse">
<stop offset="4.02556e-07" stop-color="#95C23D"/>
<stop offset="0.25" stop-color="#4AA147"/>
<stop offset="0.75" stop-color="#00709E"/>
<stop offset="1" stop-color="#005582"/>
</linearGradient>
<linearGradient id="paint8_linear_2328_1461" x1="58.2802" y1="13.9885" x2="134.894" y2="60.3304" gradientUnits="userSpaceOnUse">
<stop offset="4.02556e-07" stop-color="#95C23D"/>
<stop offset="0.25" stop-color="#4AA147"/>
<stop offset="0.75" stop-color="#00709E"/>
<stop offset="1" stop-color="#005582"/>
</linearGradient>
<linearGradient id="paint9_linear_2328_1461" x1="52.7577" y1="23.1182" x2="129.371" y2="69.4601" gradientUnits="userSpaceOnUse">
<stop offset="4.02556e-07" stop-color="#95C23D"/>
<stop offset="0.25" stop-color="#4AA147"/>
<stop offset="0.75" stop-color="#00709E"/>
<stop offset="1" stop-color="#005582"/>
</linearGradient>
<linearGradient id="paint10_linear_2328_1461" x1="50.19" y1="27.3633" x2="126.804" y2="73.7052" gradientUnits="userSpaceOnUse">
<stop offset="4.02556e-07" stop-color="#95C23D"/>
<stop offset="0.25" stop-color="#4AA147"/>
<stop offset="0.75" stop-color="#00709E"/>
<stop offset="1" stop-color="#005582"/>
</linearGradient>
<linearGradient id="paint11_linear_2328_1461" x1="55.1335" y1="19.1908" x2="131.747" y2="65.5326" gradientUnits="userSpaceOnUse">
<stop offset="4.02556e-07" stop-color="#95C23D"/>
<stop offset="0.25" stop-color="#4AA147"/>
<stop offset="0.75" stop-color="#00709E"/>
<stop offset="1" stop-color="#005582"/>
</linearGradient>
<linearGradient id="paint12_linear_2328_1461" x1="59.7425" y1="11.5707" x2="136.356" y2="57.9127" gradientUnits="userSpaceOnUse">
<stop offset="4.02556e-07" stop-color="#95C23D"/>
<stop offset="0.25" stop-color="#4AA147"/>
<stop offset="0.75" stop-color="#00709E"/>
<stop offset="1" stop-color="#005582"/>
</linearGradient>
<linearGradient id="paint13_linear_2328_1461" x1="57.5028" y1="15.2736" x2="134.116" y2="61.6155" gradientUnits="userSpaceOnUse">
<stop offset="4.02556e-07" stop-color="#95C23D"/>
<stop offset="0.25" stop-color="#4AA147"/>
<stop offset="0.75" stop-color="#00709E"/>
<stop offset="1" stop-color="#005582"/>
</linearGradient>
<linearGradient id="paint14_linear_2328_1461" x1="61.621" y1="8.46564" x2="138.234" y2="54.8075" gradientUnits="userSpaceOnUse">
<stop offset="4.02556e-07" stop-color="#95C23D"/>
<stop offset="0.25" stop-color="#4AA147"/>
<stop offset="0.75" stop-color="#00709E"/>
<stop offset="1" stop-color="#005582"/>
</linearGradient>
<linearGradient id="paint15_linear_2328_1461" x1="57.5557" y1="15.1862" x2="134.169" y2="61.5281" gradientUnits="userSpaceOnUse">
<stop offset="4.02556e-07" stop-color="#95C23D"/>
<stop offset="0.25" stop-color="#4AA147"/>
<stop offset="0.75" stop-color="#00709E"/>
<stop offset="1" stop-color="#005582"/>
</linearGradient>
<linearGradient id="paint16_linear_2328_1461" x1="63.5693" y1="5.24438" x2="140.183" y2="51.5862" gradientUnits="userSpaceOnUse">
<stop offset="4.02556e-07" stop-color="#95C23D"/>
<stop offset="0.25" stop-color="#4AA147"/>
<stop offset="0.75" stop-color="#00709E"/>
<stop offset="1" stop-color="#005582"/>
</linearGradient>
<linearGradient id="paint17_linear_2328_1461" x1="66.5794" y1="0.267731" x2="143.193" y2="46.6096" gradientUnits="userSpaceOnUse">
<stop offset="4.02556e-07" stop-color="#95C23D"/>
<stop offset="0.25" stop-color="#4AA147"/>
<stop offset="0.75" stop-color="#00709E"/>
<stop offset="1" stop-color="#005582"/>
</linearGradient>
<linearGradient id="paint18_linear_2328_1461" x1="64.9216" y1="3.00879" x2="141.535" y2="49.3507" gradientUnits="userSpaceOnUse">
<stop offset="4.02556e-07" stop-color="#95C23D"/>
<stop offset="0.25" stop-color="#4AA147"/>
<stop offset="0.75" stop-color="#00709E"/>
<stop offset="1" stop-color="#005582"/>
</linearGradient>
<linearGradient id="paint19_linear_2328_1461" x1="69.6362" y1="-4.78563" x2="146.25" y2="41.5562" gradientUnits="userSpaceOnUse">
<stop offset="4.02556e-07" stop-color="#95C23D"/>
<stop offset="0.25" stop-color="#4AA147"/>
<stop offset="0.75" stop-color="#00709E"/>
<stop offset="1" stop-color="#005582"/>
</linearGradient>
<linearGradient id="paint20_linear_2328_1461" x1="71.0792" y1="-7.17115" x2="147.693" y2="39.1708" gradientUnits="userSpaceOnUse">
<stop offset="4.02556e-07" stop-color="#95C23D"/>
<stop offset="0.25" stop-color="#4AA147"/>
<stop offset="0.75" stop-color="#00709E"/>
<stop offset="1" stop-color="#005582"/>
</linearGradient>
<linearGradient id="paint21_linear_2328_1461" x1="44.6449" y1="36.5305" x2="121.259" y2="82.8724" gradientUnits="userSpaceOnUse">
<stop offset="4.02556e-07" stop-color="#95C23D"/>
<stop offset="0.25" stop-color="#4AA147"/>
<stop offset="0.75" stop-color="#00709E"/>
<stop offset="1" stop-color="#005582"/>
</linearGradient>
<linearGradient id="paint22_linear_2328_1461" x1="42.1922" y1="40.5857" x2="118.806" y2="86.9275" gradientUnits="userSpaceOnUse">
<stop offset="4.02556e-07" stop-color="#95C23D"/>
<stop offset="0.25" stop-color="#4AA147"/>
<stop offset="0.75" stop-color="#00709E"/>
<stop offset="1" stop-color="#005582"/>
</linearGradient>
<linearGradient id="paint23_linear_2328_1461" x1="39.9344" y1="44.3183" x2="116.548" y2="90.6602" gradientUnits="userSpaceOnUse">
<stop offset="4.02556e-07" stop-color="#95C23D"/>
<stop offset="0.25" stop-color="#4AA147"/>
<stop offset="0.75" stop-color="#00709E"/>
<stop offset="1" stop-color="#005582"/>
</linearGradient>
<linearGradient id="paint24_linear_2328_1461" x1="47.1885" y1="32.3256" x2="123.802" y2="78.6675" gradientUnits="userSpaceOnUse">
<stop offset="4.02556e-07" stop-color="#95C23D"/>
<stop offset="0.25" stop-color="#4AA147"/>
<stop offset="0.75" stop-color="#00709E"/>
<stop offset="1" stop-color="#005582"/>
</linearGradient>
<linearGradient id="paint25_linear_2328_1461" x1="52.2191" y1="24.0089" x2="128.833" y2="70.3508" gradientUnits="userSpaceOnUse">
<stop offset="4.02556e-07" stop-color="#95C23D"/>
<stop offset="0.25" stop-color="#4AA147"/>
<stop offset="0.75" stop-color="#00709E"/>
<stop offset="1" stop-color="#005582"/>
</linearGradient>
<linearGradient id="paint26_linear_2328_1461" x1="61.9772" y1="7.8766" x2="138.591" y2="54.2185" gradientUnits="userSpaceOnUse">
<stop offset="4.02556e-07" stop-color="#95C23D"/>
<stop offset="0.25" stop-color="#4AA147"/>
<stop offset="0.75" stop-color="#00709E"/>
<stop offset="1" stop-color="#005582"/>
</linearGradient>
<linearGradient id="paint27_linear_2328_1461" x1="43.0055" y1="39.2409" x2="119.619" y2="85.5828" gradientUnits="userSpaceOnUse">
<stop offset="4.02556e-07" stop-color="#95C23D"/>
<stop offset="0.25" stop-color="#4AA147"/>
<stop offset="0.75" stop-color="#00709E"/>
<stop offset="1" stop-color="#005582"/>
</linearGradient>
<linearGradient id="paint28_linear_2328_1461" x1="60.536" y1="10.259" x2="137.15" y2="56.6009" gradientUnits="userSpaceOnUse">
<stop offset="4.02556e-07" stop-color="#95C23D"/>
<stop offset="0.25" stop-color="#4AA147"/>
<stop offset="0.75" stop-color="#00709E"/>
<stop offset="1" stop-color="#005582"/>
</linearGradient>
<linearGradient id="paint29_linear_2328_1461" x1="45.458" y1="35.1865" x2="122.072" y2="81.5284" gradientUnits="userSpaceOnUse">
<stop offset="4.02556e-07" stop-color="#95C23D"/>
<stop offset="0.25" stop-color="#4AA147"/>
<stop offset="0.75" stop-color="#00709E"/>
<stop offset="1" stop-color="#005582"/>
</linearGradient>
<linearGradient id="paint30_linear_2328_1461" x1="58.3773" y1="13.828" x2="134.991" y2="60.1698" gradientUnits="userSpaceOnUse">
<stop offset="4.02556e-07" stop-color="#95C23D"/>
<stop offset="0.25" stop-color="#4AA147"/>
<stop offset="0.75" stop-color="#00709E"/>
<stop offset="1" stop-color="#005582"/>
</linearGradient>
<linearGradient id="paint31_linear_2328_1461" x1="62.5769" y1="6.885" x2="139.19" y2="53.227" gradientUnits="userSpaceOnUse">
<stop offset="4.02556e-07" stop-color="#95C23D"/>
<stop offset="0.25" stop-color="#4AA147"/>
<stop offset="0.75" stop-color="#00709E"/>
<stop offset="1" stop-color="#005582"/>
</linearGradient>
<linearGradient id="paint32_linear_2328_1461" x1="53.8728" y1="21.2749" x2="130.486" y2="67.6168" gradientUnits="userSpaceOnUse">
<stop offset="4.02556e-07" stop-color="#95C23D"/>
<stop offset="0.25" stop-color="#4AA147"/>
<stop offset="0.75" stop-color="#00709E"/>
<stop offset="1" stop-color="#005582"/>
</linearGradient>
<linearGradient id="paint33_linear_2328_1461" x1="50.8854" y1="26.2138" x2="127.499" y2="72.5557" gradientUnits="userSpaceOnUse">
<stop offset="4.02556e-07" stop-color="#95C23D"/>
<stop offset="0.25" stop-color="#4AA147"/>
<stop offset="0.75" stop-color="#00709E"/>
<stop offset="1" stop-color="#005582"/>
</linearGradient>
<linearGradient id="paint34_linear_2328_1461" x1="65.5097" y1="2.03651" x2="142.123" y2="48.3784" gradientUnits="userSpaceOnUse">
<stop offset="4.02556e-07" stop-color="#95C23D"/>
<stop offset="0.25" stop-color="#4AA147"/>
<stop offset="0.75" stop-color="#00709E"/>
<stop offset="1" stop-color="#005582"/>
</linearGradient>
<linearGradient id="paint35_linear_2328_1461" x1="69.3714" y1="-4.3478" x2="145.985" y2="41.9941" gradientUnits="userSpaceOnUse">
<stop offset="4.02556e-07" stop-color="#95C23D"/>
<stop offset="0.25" stop-color="#4AA147"/>
<stop offset="0.75" stop-color="#00709E"/>
<stop offset="1" stop-color="#005582"/>
</linearGradient>
<linearGradient id="paint36_linear_2328_1461" x1="72.6691" y1="-9.79964" x2="149.283" y2="36.5422" gradientUnits="userSpaceOnUse">
<stop offset="4.02556e-07" stop-color="#95C23D"/>
<stop offset="0.25" stop-color="#4AA147"/>
<stop offset="0.75" stop-color="#00709E"/>
<stop offset="1" stop-color="#005582"/>
</linearGradient>
<linearGradient id="paint37_linear_2328_1461" x1="71.3521" y1="-7.6221" x2="147.966" y2="38.7198" gradientUnits="userSpaceOnUse">
<stop offset="4.02556e-07" stop-color="#95C23D"/>
<stop offset="0.25" stop-color="#4AA147"/>
<stop offset="0.75" stop-color="#00709E"/>
<stop offset="1" stop-color="#005582"/>
</linearGradient>
<linearGradient id="paint38_linear_2328_1461" x1="55.2901" y1="18.9318" x2="131.904" y2="65.2736" gradientUnits="userSpaceOnUse">
<stop offset="4.02556e-07" stop-color="#95C23D"/>
<stop offset="0.25" stop-color="#4AA147"/>
<stop offset="0.75" stop-color="#00709E"/>
<stop offset="1" stop-color="#005582"/>
</linearGradient>
<linearGradient id="paint39_linear_2328_1461" x1="70.0348" y1="-5.44458" x2="146.648" y2="40.8973" gradientUnits="userSpaceOnUse">
<stop offset="4.02556e-07" stop-color="#95C23D"/>
<stop offset="0.25" stop-color="#4AA147"/>
<stop offset="0.75" stop-color="#00709E"/>
<stop offset="1" stop-color="#005582"/>
</linearGradient>
<linearGradient id="paint40_linear_2328_1461" x1="65.6743" y1="1.7644" x2="142.288" y2="48.1063" gradientUnits="userSpaceOnUse">
<stop offset="4.02556e-07" stop-color="#95C23D"/>
<stop offset="0.25" stop-color="#4AA147"/>
<stop offset="0.75" stop-color="#00709E"/>
<stop offset="1" stop-color="#005582"/>
</linearGradient>
<linearGradient id="paint41_linear_2328_1461" x1="68.6042" y1="-3.07938" x2="145.218" y2="43.2625" gradientUnits="userSpaceOnUse">
<stop offset="4.02556e-07" stop-color="#95C23D"/>
<stop offset="0.25" stop-color="#4AA147"/>
<stop offset="0.75" stop-color="#00709E"/>
<stop offset="1" stop-color="#005582"/>
</linearGradient>
<linearGradient id="paint42_linear_2328_1461" x1="73.9131" y1="-11.8564" x2="150.527" y2="34.4855" gradientUnits="userSpaceOnUse">
<stop offset="4.02556e-07" stop-color="#95C23D"/>
<stop offset="0.25" stop-color="#4AA147"/>
<stop offset="0.75" stop-color="#00709E"/>
<stop offset="1" stop-color="#005582"/>
</linearGradient>
<linearGradient id="paint43_linear_2328_1461" x1="58.5211" y1="13.5902" x2="135.135" y2="59.9321" gradientUnits="userSpaceOnUse">
<stop offset="4.02556e-07" stop-color="#95C23D"/>
<stop offset="0.25" stop-color="#4AA147"/>
<stop offset="0.75" stop-color="#00709E"/>
<stop offset="1" stop-color="#005582"/>
</linearGradient>
<linearGradient id="paint44_linear_2328_1461" x1="62.0324" y1="7.78527" x2="138.646" y2="54.1272" gradientUnits="userSpaceOnUse">
<stop offset="4.02556e-07" stop-color="#95C23D"/>
<stop offset="0.25" stop-color="#4AA147"/>
<stop offset="0.75" stop-color="#00709E"/>
<stop offset="1" stop-color="#005582"/>
</linearGradient>
<linearGradient id="paint45_linear_2328_1461" x1="51.5999" y1="25.0324" x2="128.214" y2="71.3744" gradientUnits="userSpaceOnUse">
<stop offset="4.02556e-07" stop-color="#95C23D"/>
<stop offset="0.25" stop-color="#4AA147"/>
<stop offset="0.75" stop-color="#00709E"/>
<stop offset="1" stop-color="#005582"/>
</linearGradient>
<linearGradient id="paint46_linear_2328_1461" x1="54.5827" y1="20.1013" x2="131.196" y2="66.4432" gradientUnits="userSpaceOnUse">
<stop offset="4.02556e-07" stop-color="#95C23D"/>
<stop offset="0.25" stop-color="#4AA147"/>
<stop offset="0.75" stop-color="#00709E"/>
<stop offset="1" stop-color="#005582"/>
</linearGradient>
<linearGradient id="paint47_linear_2328_1461" x1="46.0766" y1="34.1639" x2="122.69" y2="80.5058" gradientUnits="userSpaceOnUse">
<stop offset="4.02556e-07" stop-color="#95C23D"/>
<stop offset="0.25" stop-color="#4AA147"/>
<stop offset="0.75" stop-color="#00709E"/>
<stop offset="1" stop-color="#005582"/>
</linearGradient>
<linearGradient id="paint48_linear_2328_1461" x1="73.4901" y1="-11.157" x2="150.104" y2="35.1848" gradientUnits="userSpaceOnUse">
<stop offset="4.02556e-07" stop-color="#95C23D"/>
<stop offset="0.25" stop-color="#4AA147"/>
<stop offset="0.75" stop-color="#00709E"/>
<stop offset="1" stop-color="#005582"/>
</linearGradient>
<linearGradient id="paint49_linear_2328_1461" x1="72.2871" y1="-9.16814" x2="148.901" y2="37.1738" gradientUnits="userSpaceOnUse">
<stop offset="4.02556e-07" stop-color="#95C23D"/>
<stop offset="0.25" stop-color="#4AA147"/>
<stop offset="0.75" stop-color="#00709E"/>
<stop offset="1" stop-color="#005582"/>
</linearGradient>
<linearGradient id="paint50_linear_2328_1461" x1="75.7021" y1="-14.814" x2="152.316" y2="31.5279" gradientUnits="userSpaceOnUse">
<stop offset="4.02556e-07" stop-color="#95C23D"/>
<stop offset="0.25" stop-color="#4AA147"/>
<stop offset="0.75" stop-color="#00709E"/>
<stop offset="1" stop-color="#005582"/>
</linearGradient>
</defs>
</svg>
