<svg width="50" height="50" viewBox="0 0 50 50" fill="none" xmlns="http://www.w3.org/2000/svg">
<g clip-path="url(#clip0_2178_813)">
<path d="M49.2031 24.9858C49.2031 29.1075 48.1744 32.9891 46.36 36.3885C42.4863 43.6491 35.0266 48.7077 26.345 49.1996C25.8834 49.226 25.4178 49.2396 24.9493 49.2396C15.6763 49.2396 7.61838 44.0356 3.53867 36.3885C1.72427 32.9891 0.695557 29.1075 0.695557 24.9858C0.695557 11.5911 11.5546 0.732056 24.9493 0.732056C25.4169 0.732056 25.8814 0.74572 26.3421 0.771096C39.0889 1.49334 49.2031 12.0586 49.2031 24.9858Z" fill="#CFF9FF"/>
<path d="M49.2032 24.9859C49.2032 29.1076 48.1745 32.9891 46.3601 36.3886C42.4863 43.6491 35.0267 48.7077 26.3451 49.1996C37.1514 46.4463 45.144 36.6492 45.144 24.9859C45.144 13.3216 37.1505 3.52346 26.3422 0.771118C39.0889 1.49336 49.2032 12.0586 49.2032 24.9859Z" fill="#BFE1FF"/>
<path d="M32.4023 7.54652C31.6276 7.28973 30.789 7.69409 30.5075 8.45996L24.2548 25.4673L28.3714 26.3178L33.3764 9.41089C33.608 8.62832 33.1769 7.80321 32.4023 7.54652Z" fill="#FF808C"/>
<path d="M24.9494 25.4336C21.054 25.4336 17.8964 28.5914 17.8964 32.4866C17.8964 32.9964 17.9504 33.4936 18.0532 33.9727H31.8457C31.9484 33.4936 32.0025 32.9965 32.0025 32.4866C32.0025 28.5914 28.8447 25.4336 24.9494 25.4336Z" fill="#BFE1FF"/>
<path d="M46.3602 36.3886C42.4864 43.6491 35.0268 48.7077 26.3452 49.1996C25.8835 49.226 25.418 49.2397 24.9495 49.2397C15.6765 49.2397 7.61853 44.0356 3.53882 36.3886H13.4307C16.6915 34.0998 20.6639 32.7568 24.9495 32.7568C29.2352 32.7568 33.2075 34.0998 36.4683 36.3886H46.3602Z" fill="#8B91A5"/>
<path d="M46.3601 36.3885C42.4863 43.6491 35.0267 48.7077 26.3451 49.1996C33.345 47.4165 39.165 42.677 42.3965 36.3885H46.3601Z" fill="#6E768F"/>
<path d="M42.617 7.31811C37.8978 2.59901 31.6233 0 24.9493 0C18.5307 0 12.4303 2.42967 7.77178 6.84133C7.09238 7.52248 8.05462 8.5508 8.77853 7.9042C28.199 -9.9098 57.4798 12.0597 45.9088 35.6561H36.6968C35.4263 34.7852 34.0767 34.0649 32.6687 33.5019C33.0859 30.5223 31.6199 27.5299 29.2323 25.9883L32.5975 14.6209C32.7123 14.2332 32.491 13.8259 32.1035 13.7112C31.7155 13.5967 31.3085 13.8176 31.1938 14.2053L27.9129 25.2876C27.1052 24.9539 26.2295 24.7522 25.313 24.7099L31.1943 8.71253C31.3405 8.3149 31.7699 8.10779 32.1719 8.24121C32.5739 8.37444 32.7947 8.79686 32.6743 9.20297L32.0716 11.2389C31.8253 12.1747 33.1726 12.574 33.4754 11.6545L34.0781 9.61856C34.424 8.45028 33.789 7.23485 32.6325 6.85148C31.4758 6.4682 30.2407 7.06356 29.8203 8.20725L23.7207 24.7982C19.663 25.4067 16.6495 29.3314 17.2301 33.5018C15.8221 34.0648 14.4724 34.7851 13.2019 35.656H3.9796C-0.244176 27.617 0.893167 16.9971 6.7986 10.024C7.38801 9.27354 6.31987 8.35785 5.66936 9.09219C-4.41085 20.8507 -0.544297 40.5221 13.5643 47.1392C14.3088 47.142 14.5823 46.1183 13.9087 45.7609C10.0653 43.714 6.94871 40.7049 4.79105 37.1202H13.431C13.5815 37.1202 13.7284 37.0737 13.8515 36.9874C20.3075 32.341 29.5914 32.341 36.0473 36.9875C36.1705 37.0738 36.3174 37.1202 36.4679 37.1202H45.0934C40.9701 43.9395 33.4831 48.5076 24.9493 48.5076C22.0892 48.5076 19.2948 48.0003 16.6438 46.9996C16.266 46.857 15.8433 47.0476 15.7005 47.4259C15.5577 47.8041 15.7486 48.2264 16.1268 48.3692C41.4477 57.4327 61.3191 26.6357 42.617 7.31811ZM18.6484 32.9941C18.3398 29.3443 21.2845 26.1484 24.9493 26.1655C28.6139 26.1483 31.5592 29.3445 31.2502 32.9941C27.2341 31.7041 22.6647 31.7041 18.6484 32.9941Z" fill="black"/>
<path d="M43.4573 24.6229C44.4232 24.5944 44.4259 23.1885 43.4573 23.1589H40.5848C40.1804 23.1589 39.8528 23.4866 39.8528 23.8909V29.8234C39.8528 30.2278 40.1804 30.5554 40.5848 30.5554C40.9891 30.5554 41.3168 30.2278 41.3168 29.8234V27.5891H43.4574C43.8617 27.5891 44.1894 27.2615 44.1894 26.8571C44.1894 26.4528 43.8617 26.1251 43.4574 26.1251H41.3168V24.6229L43.4573 24.6229Z" fill="black"/>
<path d="M9.31397 24.6229C10.2799 24.5948 10.2825 23.1883 9.31397 23.1589H6.44148C6.03712 23.1589 5.70947 23.4866 5.70947 23.8909V29.8234C5.70947 30.0183 5.78716 30.2051 5.92537 30.3425C6.06347 30.4799 6.25086 30.5565 6.44568 30.5554L9.31826 30.5389C9.72262 30.5367 10.0483 30.207 10.0461 29.8027C10.0439 29.3984 9.71364 29.0725 9.30987 29.0749L7.17348 29.0872V27.5891H9.31406C9.71842 27.5891 10.0461 27.2615 10.0461 26.8571C10.0461 26.4528 9.71842 26.1251 9.31406 26.1251H7.17348V24.6229L9.31397 24.6229Z" fill="black"/>
<path d="M42.6433 15.9315L39.9849 17.1712C39.2775 17.504 39.5241 18.5679 40.2948 18.5667C40.3439 18.6886 43.1351 17.2925 43.2621 17.2583C44.1256 16.8233 43.5333 15.5494 42.6433 15.9315Z" fill="black"/>
<path d="M15.9779 11.3638C16.5328 11.3782 16.9099 10.7117 16.5979 10.2437L15.0435 7.75624C14.5062 6.9522 13.3143 7.69504 13.8019 8.53207L15.3563 11.0195C15.4953 11.2418 15.7338 11.3638 15.9779 11.3638Z" fill="black"/>
<path d="M10.2679 18.1439C10.4388 17.7776 10.2803 17.342 9.9139 17.1712L7.25555 15.9315C6.36719 15.5496 5.77192 16.8219 6.63676 17.2583L9.29511 18.4979C9.65302 18.6675 10.0965 18.514 10.2679 18.1439Z" fill="black"/>
<path d="M25.6813 8.05891V5.12571C25.6518 4.15898 24.2472 4.15761 24.2173 5.12571V8.059C24.2468 9.02574 25.6514 9.02701 25.6813 8.05891Z" fill="black"/>
</g>
<defs>
<clipPath id="clip0_2178_813">
<rect width="50" height="50" fill="white"/>
</clipPath>
</defs>
</svg>
