<svg width="50" height="50" viewBox="0 0 50 50" fill="none" xmlns="http://www.w3.org/2000/svg">
<g clip-path="url(#clip0_2176_691)">
<path d="M49.1666 18.3334C49.1666 28 43.9416 35.8334 37.5 35.8334H24.1666V0.833374H37.5C43.9416 0.833374 49.1666 8.66671 49.1666 18.3334Z" fill="#00838F"/>
<path d="M46.6666 18.3334C46.6666 28 41.4416 35.8334 35 35.8334H24.1666V0.833374H35C41.4416 0.833374 46.6666 8.66671 46.6666 18.3334Z" fill="#00BCD4"/>
<path d="M35.8334 18.3334C35.8334 28 30.6084 35.8334 24.1667 35.8334H19.7834L13.7084 26.0834C12.8952 23.5809 12.4873 20.9646 12.5 18.3334C12.5 9.30005 17.0584 1.86671 22.9167 0.93338C23.33 0.8663 23.748 0.832857 24.1667 0.83338C30.6084 0.83338 35.8334 8.66671 35.8334 18.3334Z" fill="#0377BC"/>
<path d="M33.3334 18.3334C33.3334 28 28.1084 35.8334 21.6667 35.8334H19.7834L13.7084 26.0834C12.8952 23.5809 12.4873 20.9646 12.5 18.3334C12.5 9.30002 17.0584 1.86668 22.9167 0.93335C28.775 1.86668 33.3334 9.30002 33.3334 18.3334Z" fill="#02A9F4"/>
<path d="M32.425 18.3334C32.4258 20.3025 32.1709 22.2633 31.6667 24.1667H17.5C17.5 24.1667 17.2083 24.2667 16.725 24.4751C16.1678 22.4756 15.8874 20.4091 15.8916 18.3334C15.8916 10.5084 19.5916 4.16675 24.15 4.16675C28.7083 4.16675 32.425 10.5084 32.425 18.3334Z" fill="#E2E7FF"/>
<path d="M31.6667 24.1667C31.6667 24.2501 31.6167 24.3417 31.5833 24.4251C31.5873 24.4387 31.5873 24.4531 31.5833 24.4667C30.5333 28.0834 27.9083 32.5001 24.1667 32.5001C20.6417 33.0751 20.0833 41.1751 20 44.7501C19.9678 47.2814 17.8896 49.3073 15.3583 49.2751C12.827 49.2429 10.8011 47.1647 10.8333 44.6334V42.5001C10.8333 43.8808 9.71405 45.0001 8.33333 45.0001C7.77333 45.0613 7.20675 45.0103 6.66667 44.8501C5.67023 44.4978 5.00297 43.557 5 42.5001V41.6667C5 33.6417 9.725 27.5001 16.7167 24.4751C16.8 24.4751 16.85 24.3917 17.5 24.1667H31.6667Z" fill="#55EB55"/>
<path d="M31.6666 24.1667C31.5833 24.1667 31.7333 24.1667 29.1666 24.1667C29.1666 24.2501 29.1166 24.3417 29.0833 24.4251C29.0872 24.4387 29.0872 24.4531 29.0833 24.4667C28.0333 28.0834 25.4083 32.5001 21.6666 32.5001C18.1416 33.0751 17.5833 41.1751 17.5 44.7501C17.4453 46.7441 16.0912 48.4672 14.1666 48.9917C14.5698 49.11 14.9881 49.1689 15.4083 49.1667C17.888 49.195 19.9319 47.229 20 44.7501C20.1083 41.1834 20.6666 33.0834 24.1666 32.5001C27.9 32.5001 30.5333 28.0917 31.6083 24.4751C31.6122 24.4615 31.6122 24.447 31.6083 24.4334C31.6083 24.3501 31.6666 24.2584 31.6916 24.1751L31.6666 24.1667Z" fill="#539B53"/>
<path d="M50 18.3333C50 8.225 44.3917 0 37.5 0H24.1667C15.425 0 8.975 13.2667 12.7417 25.725C9.60155 27.7898 7.12909 30.7226 5.625 34.1667H0.833333C0.373096 34.1667 0 34.5398 0 35C0 35.4602 0.373096 35.8333 0.833333 35.8333H5C4.36567 37.9963 4.08428 40.2474 4.16667 42.5C4.16667 44.341 5.65905 45.8333 7.5 45.8333C8.3787 45.9435 9.26989 45.7775 10.05 45.3583C10.4406 48.0357 12.7444 50.0159 15.45 50C18.3695 50.019 20.7652 47.6938 20.8333 44.775C20.8548 42.0403 21.2045 39.318 21.875 36.6667H49.1667C49.6269 36.6667 50 36.2936 50 35.8333C50 35.3731 49.6269 35 49.1667 35H42.7C47 32.1 50 25.725 50 18.3333ZM24.1667 1.66667C30.1417 1.66667 35 9.16667 35 18.3333C35 27.5 30.1417 35 24.1667 35H22.5C22.7931 34.215 23.4233 33.6031 24.2167 33.3333C27.6583 33.2833 30.8833 29.8583 32.3833 24.575C32.422 24.5213 32.4529 24.4624 32.475 24.4C35.25 14.6833 30.7167 3.33333 24.1667 3.33333C18.1 3.33333 13.05 13.7417 15.7417 24.025C15.225 24.2694 14.7167 24.5472 14.2167 24.8583C11.025 13.4417 16.7167 1.66667 24.1667 1.66667ZM17.2917 23.3333C16.8862 21.6973 16.6764 20.0189 16.6667 18.3333C16.6667 11.3583 20.2417 5 24.1667 5C28.6083 5 33.4 13.875 31.05 23.3333C16.4917 23.3333 17.5 23.3333 17.2917 23.3333ZM19.1667 44.725C19.1257 46.7429 17.4683 48.352 15.45 48.3333C13.3853 48.3519 11.6941 46.6979 11.6667 44.6333V40C11.6667 39.5398 11.2936 39.1667 10.8333 39.1667C10.3731 39.1667 10 39.5398 10 40V42.5C10 43.4205 9.25381 44.1667 8.33333 44.1667H7.5C6.57953 44.1667 5.83333 43.4205 5.83333 42.5V41.6667C5.83333 33.925 10.3833 28.1667 17.0417 25.2417L17.65 25H30.5333C29.1667 29.0333 26.6667 31.6667 24.1667 31.6667H24.0333C19.8833 32.3583 19.275 40.525 19.1667 44.725ZM37.5 35H29.3667C39.075 28.4583 39.1 8.225 29.3667 1.66667H37.5C43.475 1.66667 48.3333 9.16667 48.3333 18.3333C48.3333 27.5 43.475 35 37.5 35Z" fill="#222222"/>
<path d="M40 30.8334H35.8333C35.3731 30.8334 35 31.2065 35 31.6667C35 32.1269 35.3731 32.5 35.8333 32.5H40C40.4602 32.5 40.8333 32.1269 40.8333 31.6667C40.8333 31.2065 40.4602 30.8334 40 30.8334Z" fill="#222222"/>
<path d="M17.9583 30.0916C16.5449 30.9468 15.7254 32.5181 15.8333 34.1666C15.8333 34.6269 16.2064 35 16.6667 35C17.1269 35 17.5 34.6269 17.5 34.1666C17.4053 33.146 17.871 32.1541 18.7167 31.575C19.1221 31.364 19.282 30.8658 19.075 30.4583C18.867 30.0497 18.368 29.8859 17.9583 30.0916Z" fill="#222222"/>
<path d="M16.6667 36.6666C16.2065 36.6666 15.8334 37.0397 15.8334 37.5V39.1666C15.8334 39.6269 16.2065 40 16.6667 40C17.1269 40 17.5 39.6269 17.5 39.1666V37.5C17.5 37.0397 17.1269 36.6666 16.6667 36.6666Z" fill="#222222"/>
<path d="M12.125 32.5917C10.8918 33.2189 10.0832 34.4524 10 35.8334C10 36.2936 10.3731 36.6667 10.8333 36.6667C11.2936 36.6667 11.6667 36.2936 11.6667 35.8334C11.7554 35.0841 12.2073 34.4265 12.875 34.075C13.1634 33.955 13.3604 33.6837 13.3853 33.3723C13.4103 33.061 13.259 32.7618 12.9934 32.5973C12.7279 32.4328 12.3927 32.4307 12.125 32.5917Z" fill="#222222"/>
</g>
<defs>
<clipPath id="clip0_2176_691">
<rect width="50" height="50" fill="white"/>
</clipPath>
</defs>
</svg>
