<svg width="50" height="50" viewBox="0 0 50 50" fill="none" xmlns="http://www.w3.org/2000/svg">
<g clip-path="url(#clip0_2184_1995)">
<path d="M0.85791 15.7437L5.25244 20.1382H44.7475L49.1421 15.7437H0.85791Z" fill="white"/>
<path d="M0 0H50V12.8139H0V0Z" fill="white"/>
<path d="M25 47.0703C20.0436 47.0703 15.3877 45.1443 11.89 41.647L9.81827 43.7184C13.8695 47.7692 19.2608 50 25 50C30.7392 50 36.1305 47.7692 40.1814 43.7184L38.11 41.647C34.6123 45.1443 29.9564 47.0703 25 47.0703Z" fill="white"/>
<path d="M13.9618 39.5752C16.906 42.5194 20.826 44.1406 25 44.1406C29.174 44.1406 33.094 42.5194 36.0382 39.5752L33.9668 37.5034C31.5758 39.8945 28.3916 41.2109 25 41.2109C21.6084 41.2109 18.4242 39.8945 16.0332 37.5034L13.9618 39.5752Z" fill="white"/>
<path d="M31.8951 35.4317L29.8237 33.3604C27.1637 36.02 22.8359 36.02 20.1763 33.3604L18.1049 35.4317C20.0058 37.333 22.5029 38.2832 25 38.2832C27.4971 38.2832 29.9942 37.333 31.8951 35.4317Z" fill="white"/>
<path d="M10.0513 23.0679C10.5392 25.5528 11.6421 27.8977 13.2732 29.863L13.7127 30.3921H36.2873L36.7267 29.863C38.3583 27.8977 39.4607 25.5528 39.9486 23.0679H10.0513Z" fill="white"/>
</g>
<defs>
<clipPath id="clip0_2184_1995">
<rect width="50" height="50" fill="white"/>
</clipPath>
</defs>
</svg>
