<svg width="50" height="50" viewBox="0 0 50 50" fill="none" xmlns="http://www.w3.org/2000/svg">
<g clip-path="url(#clip0_2182_1769)">
<path d="M11.598 22.4706H38.402C44.4021 22.4706 49.2662 17.6065 49.2662 11.6064V11.5981C49.2661 5.59798 44.402 0.733887 38.4019 0.733887H11.598C5.59792 0.733887 0.733826 5.59798 0.733826 11.5981V11.6064C0.733826 17.6065 5.59792 22.4706 11.598 22.4706Z" fill="#B7E598"/>
<path d="M38.4019 20.7094H11.598C5.89305 20.7094 1.21545 16.3118 0.769173 10.7217C0.746081 11.0108 0.733948 11.303 0.733948 11.5981V11.6065C0.733948 17.6066 5.59804 22.4707 11.5981 22.4707H38.4021C44.4022 22.4707 49.2663 17.6066 49.2663 11.6065V11.5981C49.2663 11.303 49.2541 11.0108 49.231 10.7217C48.7845 16.3118 44.107 20.7094 38.4019 20.7094Z" fill="#9ED4A4"/>
<path d="M38.1781 18.3024C41.9343 18.3024 44.9793 15.255 44.9793 11.4959C44.9793 7.73681 41.9343 4.68945 38.1781 4.68945C34.4219 4.68945 31.377 7.73681 31.377 11.4959C31.377 15.255 34.4219 18.3024 38.1781 18.3024Z" fill="#ECF0F3"/>
<path d="M38.1782 16.5411C34.7203 16.5411 31.8674 13.958 31.4355 10.6152C31.3982 10.9037 31.3769 11.1972 31.3769 11.4959C31.3769 15.255 34.4219 18.3023 38.1781 18.3023C41.9342 18.3023 44.9792 15.255 44.9792 11.4959C44.9792 11.1972 44.9579 10.9037 44.9206 10.6152C44.489 13.958 41.636 16.5411 38.1782 16.5411Z" fill="#DDE8F1"/>
<path d="M38.4019 49.2662H11.598C5.59792 49.2662 0.733826 44.4021 0.733826 38.402V38.3937C0.733826 32.3936 5.59792 27.5295 11.598 27.5295H38.402C44.4021 27.5295 49.2662 32.3936 49.2662 38.3937V38.402C49.2661 44.4021 44.402 49.2662 38.4019 49.2662Z" fill="#FC686C"/>
<path d="M38.4019 47.5049H11.598C5.89305 47.5049 1.21545 43.1073 0.769173 37.5172C0.746081 37.8064 0.733948 38.0986 0.733948 38.3936V38.4019C0.73385 44.402 5.59794 49.2661 11.598 49.2661H38.402C44.4021 49.2661 49.2662 44.402 49.2662 38.4019V38.3936C49.2662 38.0985 49.254 37.8064 49.2309 37.5172C48.7845 43.1073 44.107 47.5049 38.4019 47.5049Z" fill="#EC6267"/>
<path d="M11.8218 45.098C15.578 45.098 18.623 42.0507 18.623 38.2916C18.623 34.5325 15.578 31.4851 11.8218 31.4851C8.06562 31.4851 5.02063 34.5325 5.02063 38.2916C5.02063 42.0507 8.06562 45.098 11.8218 45.098Z" fill="#ECF0F3"/>
<path d="M11.8218 43.3367C8.36395 43.3367 5.51102 40.7536 5.07912 37.4109C5.04184 37.6993 5.02051 37.9929 5.02051 38.2915C5.02051 42.0506 8.06552 45.098 11.8217 45.098C15.5778 45.098 18.6229 42.0506 18.6229 38.2915C18.6229 37.9929 18.6015 37.6993 18.5642 37.4109C18.1325 40.7536 15.2795 43.3367 11.8218 43.3367Z" fill="#DDE8F1"/>
<path fill-rule="evenodd" clip-rule="evenodd" d="M0 11.598C0 5.19265 5.19265 0 11.598 0H16.2726C16.6779 0 17.0065 0.328558 17.0065 0.733855C17.0065 1.13915 16.6779 1.46771 16.2726 1.46771H11.598C6.00324 1.46771 1.46771 6.00324 1.46771 11.598V11.6064C1.46771 17.2012 6.00324 21.7367 11.598 21.7367H31.174C31.5793 21.7367 31.9078 22.0653 31.9078 22.4705C31.9078 22.8758 31.5793 23.2044 31.174 23.2044H11.598C5.19265 23.2044 0 18.0118 0 11.6064V11.598Z" fill="black"/>
<path fill-rule="evenodd" clip-rule="evenodd" d="M18.4742 0.733855C18.4742 0.328558 18.8027 0 19.208 0H38.402C44.8074 0 50 5.19265 50.0001 11.598V11.6064C50.0001 18.0118 44.8075 23.2044 38.4021 23.2044H34.1094C33.7041 23.2044 33.3756 22.8758 33.3756 22.4705C33.3756 22.0653 33.7041 21.7367 34.1094 21.7367H38.4021C43.9969 21.7367 48.5324 17.2012 48.5324 11.6064V11.5981C48.5323 6.00324 43.9968 1.46771 38.402 1.46771H19.208C18.8027 1.46771 18.4742 1.13915 18.4742 0.733855Z" fill="black"/>
<path fill-rule="evenodd" clip-rule="evenodd" d="M38.1782 5.42328C34.8278 5.42328 32.1108 8.14154 32.1108 11.4959C32.1108 14.8502 34.8278 17.5685 38.1782 17.5685C41.5285 17.5685 44.2455 14.8502 44.2455 11.4959C44.2455 8.14154 41.5285 5.42328 38.1782 5.42328ZM30.6431 11.4959C30.6431 7.33202 34.0161 3.95557 38.1782 3.95557C42.3402 3.95557 45.7132 7.33202 45.7132 11.4959C45.7132 15.6597 42.3402 19.0362 38.1782 19.0362C34.0161 19.0362 30.6431 15.6597 30.6431 11.4959Z" fill="black"/>
<path fill-rule="evenodd" clip-rule="evenodd" d="M11.598 28.2634C6.00324 28.2634 1.46771 32.7989 1.46771 38.3937V38.402C1.46771 43.9968 6.00324 48.5323 11.598 48.5323H16.2726C16.6779 48.5323 17.0065 48.8609 17.0065 49.2662C17.0065 49.6715 16.6779 50.0001 16.2726 50.0001H11.598C5.19265 50.0001 0 44.8074 0 38.402V38.3937C0 31.9883 5.19265 26.7957 11.598 26.7957H38.4021C44.8074 26.7957 50.0001 31.9883 50.0001 38.3937V38.402C50.0001 44.8074 44.8074 50.0001 38.4021 50.0001H19.208C18.8027 50.0001 18.4742 49.6715 18.4742 49.2662C18.4742 48.8609 18.8027 48.5323 19.208 48.5323H38.4021C43.9969 48.5323 48.5324 43.9968 48.5324 38.402V38.3937C48.5324 32.7989 43.9969 28.2634 38.4021 28.2634H11.598Z" fill="black"/>
<path fill-rule="evenodd" clip-rule="evenodd" d="M11.8218 32.2189C8.47148 32.2189 5.75451 34.9372 5.75451 38.2915C5.75451 41.6459 8.47148 44.3641 11.8218 44.3641C15.1722 44.3641 17.8892 41.6459 17.8892 38.2915C17.8892 34.9372 15.1722 32.2189 11.8218 32.2189ZM4.2868 38.2915C4.2868 34.1277 7.65981 30.7512 11.8218 30.7512C15.9839 30.7512 19.3569 34.1277 19.3569 38.2915C19.3569 42.4554 15.9839 45.8318 11.8218 45.8318C7.65981 45.8318 4.2868 42.4554 4.2868 38.2915Z" fill="black"/>
<path fill-rule="evenodd" clip-rule="evenodd" d="M23.9216 7.4545C24.3269 7.45058 24.6586 7.77595 24.6625 8.18123L24.7263 14.7789C24.7263 14.7812 24.7263 14.7836 24.7263 14.786C24.7263 14.8932 24.7106 15.0214 24.6585 15.1522C24.6088 15.2767 24.5026 15.458 24.2898 15.5751C24.0495 15.7073 23.7849 15.6957 23.5762 15.601C23.3924 15.5177 23.2775 15.3852 23.2122 15.2909L19.9419 10.5552V15.016C19.9419 15.4213 19.6133 15.7499 19.208 15.7499C18.8027 15.7499 18.4742 15.4213 18.4742 15.016V8.20104C18.4742 7.87988 18.683 7.59602 18.9896 7.50044C19.2963 7.40486 19.6294 7.51976 19.8119 7.78404L23.2389 12.7466L23.1949 8.19542C23.1909 7.79014 23.5163 7.45842 23.9216 7.4545Z" fill="black"/>
<path fill-rule="evenodd" clip-rule="evenodd" d="M13.0363 8.92206C11.5562 8.92206 10.3563 10.122 10.3563 11.6021C10.3563 13.0822 11.5562 14.2821 13.0363 14.2821C14.5164 14.2821 15.7163 13.0822 15.7163 11.6021C15.7163 10.122 14.5164 8.92206 13.0363 8.92206ZM8.88855 11.6021C8.88855 9.31136 10.7456 7.45435 13.0363 7.45435C15.327 7.45435 17.184 9.31136 17.184 11.6021C17.184 13.8928 15.327 15.7498 13.0363 15.7498C10.7456 15.7498 8.88855 13.8928 8.88855 11.6021Z" fill="black"/>
<path fill-rule="evenodd" clip-rule="evenodd" d="M33.2012 34.9303C33.2012 34.525 33.5297 34.1964 33.935 34.1964H36.6821C37.0874 34.1964 37.4159 34.525 37.4159 34.9303C37.4159 35.3356 37.0874 35.6641 36.6821 35.6641H34.6689V41.7081C34.6689 42.1134 34.3403 42.4419 33.935 42.4419C33.5297 42.4419 33.2012 42.1134 33.2012 41.7081V34.9303Z" fill="black"/>
<path fill-rule="evenodd" clip-rule="evenodd" d="M33.2012 38.255C33.2012 37.8497 33.5297 37.5211 33.935 37.5211H36.4638C36.8691 37.5211 37.1976 37.8497 37.1976 38.255C37.1976 38.6603 36.8691 38.9888 36.4638 38.9888H33.935C33.5297 38.9888 33.2012 38.6603 33.2012 38.255Z" fill="black"/>
<path fill-rule="evenodd" clip-rule="evenodd" d="M38.7169 34.9157C38.7169 34.5104 39.0455 34.1819 39.4508 34.1819H42.1978C42.6031 34.1819 42.9317 34.5104 42.9317 34.9157C42.9317 35.321 42.6031 35.6496 42.1978 35.6496H40.1846V41.6935C40.1846 42.0988 39.8561 42.4274 39.4508 42.4274C39.0455 42.4274 38.7169 42.0988 38.7169 41.6935V34.9157Z" fill="black"/>
<path fill-rule="evenodd" clip-rule="evenodd" d="M38.7169 38.2404C38.7169 37.8351 39.0455 37.5066 39.4508 37.5066H41.9795C42.3848 37.5066 42.7134 37.8351 42.7134 38.2404C42.7134 38.6457 42.3848 38.9743 41.9795 38.9743H39.4508C39.0455 38.9743 38.7169 38.6457 38.7169 38.2404Z" fill="black"/>
<path fill-rule="evenodd" clip-rule="evenodd" d="M27.7601 35.6391C26.2799 35.6391 25.08 36.839 25.08 38.3191C25.08 39.7993 26.2799 40.9992 27.7601 40.9992C29.2402 40.9992 30.4401 39.7993 30.4401 38.3191C30.4401 36.839 29.2402 35.6391 27.7601 35.6391ZM23.6123 38.3191C23.6123 36.0284 25.4693 34.1714 27.7601 34.1714C30.0508 34.1714 31.9078 36.0284 31.9078 38.3191C31.9078 40.6099 30.0508 42.4669 27.7601 42.4669C25.4693 42.4669 23.6123 40.6099 23.6123 38.3191Z" fill="black"/>
</g>
<defs>
<clipPath id="clip0_2182_1769">
<rect width="50" height="50" fill="white"/>
</clipPath>
</defs>
</svg>
