<svg width="50" height="50" viewBox="0 0 50 50" fill="none" xmlns="http://www.w3.org/2000/svg">
<g clip-path="url(#clip0_2179_1354)">
<path d="M14.5622 45.2546H46.7777C48.1079 45.2546 49.1862 44.1763 49.1862 42.8461V7.15392C49.1862 5.82374 48.1079 4.74542 46.7777 4.74542H14.5622V45.2546Z" fill="#BCE4FF"/>
<path d="M16.61 4.7453H14.5622V45.2546H16.61V4.7453Z" fill="#596C76"/>
<path fill-rule="evenodd" clip-rule="evenodd" d="M13.8298 4.74542C13.8298 4.34092 14.1577 4.013 14.5622 4.013H46.7777C48.5124 4.013 49.9186 5.41924 49.9186 7.15392V42.8461C49.9186 44.5808 48.5124 45.987 46.7777 45.987H14.5622C14.1577 45.987 13.8298 45.6591 13.8298 45.2546V4.74542ZM15.2946 5.47784V44.5222H46.7777C47.7034 44.5222 48.4538 43.7718 48.4538 42.8461V7.15392C48.4538 6.22825 47.7034 5.47784 46.7777 5.47784H15.2946Z" fill="black"/>
<path d="M18.4684 39.973V10.0271C18.4684 9.2674 19.0843 8.65167 19.8438 8.65167H43.9046C44.6642 8.65167 45.28 9.26749 45.28 10.0271V39.973C45.28 40.7326 44.6641 41.3484 43.9046 41.3484H19.8439C19.0843 41.3484 18.4684 40.7326 18.4684 39.973Z" fill="#F5F8F9"/>
<path d="M22.71 41.3483H19.8438C19.085 41.3483 18.4688 40.7321 18.4688 39.9723V10.0265C18.4688 9.26678 19.085 8.65155 19.8438 8.65155H22.71C21.9503 8.65155 21.334 9.26678 21.334 10.0265V39.9724C21.334 40.7322 21.9503 41.3483 22.71 41.3483Z" fill="#D9E7EC"/>
<path fill-rule="evenodd" clip-rule="evenodd" d="M19.8439 9.38379C19.4887 9.38379 19.2004 9.67208 19.2004 10.0273V39.9727C19.2004 40.3279 19.4887 40.6162 19.8439 40.6162H43.9045C44.2597 40.6162 44.548 40.3279 44.548 39.9727V38.9297C44.548 38.5252 44.8759 38.1973 45.2805 38.1973C45.685 38.1973 46.0129 38.5252 46.0129 38.9297V39.9727C46.0129 41.1369 45.0688 42.0811 43.9045 42.0811H19.8439C18.6797 42.0811 17.7355 41.1369 17.7355 39.9727V10.0273C17.7355 8.86307 18.6797 7.91895 19.8439 7.91895H43.9045C45.0688 7.91895 46.0129 8.86307 46.0129 10.0273V35.5117C46.0129 35.9162 45.685 36.2441 45.2805 36.2441C44.8759 36.2441 44.548 35.9162 44.548 35.5117V10.0273C44.548 9.67208 44.2597 9.38379 43.9045 9.38379H19.8439Z" fill="black"/>
<path d="M7.08944 49.2675H2.57098C1.65399 49.2675 0.814148 48.5341 0.814148 47.5106V2.48975C0.814148 1.46631 1.65399 0.73291 2.57098 0.73291H7.08944C6.30135 0.73291 7.1119 2.67422 6.92245 3.47695C6.8912 3.60781 6.8746 3.74551 6.8746 3.88906L7.38202 46.4334C7.38202 46.577 7.39862 46.7146 7.42987 46.8455C7.61923 47.6483 6.30135 49.2675 7.08944 49.2675Z" fill="#D9E7EC"/>
<path d="M14.5622 45.2546L7.95897 49.0332C6.78915 49.7027 5.3327 48.858 5.3327 47.5102V2.48977C5.3327 1.14202 6.78915 0.297387 7.95897 0.966821L14.5622 4.74543V45.2546Z" fill="#E8EDF2"/>
<path fill-rule="evenodd" clip-rule="evenodd" d="M7.5952 1.6025C6.91364 1.21248 6.06512 1.70458 6.06512 2.48975V47.5102C6.06512 48.2955 6.91367 48.7875 7.5952 48.3975L13.8298 44.8299V5.17016L7.5952 1.6025ZM8.32274 0.331107C6.66465 -0.617733 4.60028 0.579424 4.60028 2.48975V47.5102C4.60028 49.4206 6.66463 50.6178 8.32274 49.6689L14.926 45.8903C15.154 45.7598 15.2946 45.5173 15.2946 45.2546V4.74542C15.2946 4.48274 15.154 4.24018 14.926 4.10972L8.32274 0.331107C8.32275 0.331108 8.32274 0.331105 8.32274 0.331107Z" fill="black"/>
<path fill-rule="evenodd" clip-rule="evenodd" d="M0.0812378 2.49023C0.0812378 1.0337 1.27819 0.000976562 2.5705 0.000976562H7.08905C7.49356 0.000976562 7.82147 0.328893 7.82147 0.733398C7.82147 1.1379 7.49356 1.46582 7.08905 1.46582C6.62638 1.46582 6.2011 1.78794 6.0929 2.24636L6.09246 2.24825C6.07463 2.32289 6.06464 2.40347 6.06464 2.49023V47.5107C6.06464 47.5975 6.07463 47.6781 6.09246 47.7527L6.0929 47.7546C6.2011 48.213 6.62638 48.5352 7.08905 48.5352C7.49356 48.5352 7.82147 48.8631 7.82147 49.2676C7.82147 49.6721 7.49356 50 7.08905 50H2.5705C1.27819 50 0.0812378 48.9673 0.0812378 47.5107V10.9482C0.0812378 10.5437 0.409154 10.2158 0.81366 10.2158C1.21817 10.2158 1.54608 10.5437 1.54608 10.9482V47.5107C1.54608 48.1011 2.02881 48.5352 2.5705 48.5352H4.81777C4.75479 48.3951 4.70412 48.2471 4.66746 48.0921C4.62293 47.9053 4.59979 47.7108 4.59979 47.5107V2.49023C4.59979 2.29022 4.62292 2.09572 4.66746 1.90893C4.70411 1.75387 4.75479 1.60586 4.81777 1.46582H2.5705C2.02881 1.46582 1.54608 1.89989 1.54608 2.49023V7.53418C1.54608 7.93869 1.21817 8.2666 0.81366 8.2666C0.409154 8.2666 0.0812378 7.93869 0.0812378 7.53418V2.49023Z" fill="black"/>
<path d="M30.3951 15.8792V21.6456C30.3951 22.4737 29.7232 23.1456 28.8951 23.1456H22.7643C21.9362 23.1456 21.2643 22.4737 21.2643 21.6456V15.8792C21.2643 15.05 21.9362 14.3792 22.7643 14.3792H28.8951C29.7232 14.3792 30.3951 15.05 30.3951 15.8792Z" fill="#9BE69D"/>
<path fill-rule="evenodd" clip-rule="evenodd" d="M22.7643 13.8439C22.3404 13.8439 21.9968 14.1872 21.9968 14.6115V21.6455C21.9968 22.0692 22.3407 22.4131 22.7643 22.4131H28.8951C29.3187 22.4131 29.6627 22.0691 29.6627 21.6455V14.6115C29.6627 14.1871 29.3191 13.8439 28.8951 13.8439H22.7643ZM20.5319 14.6115C20.5319 13.3775 21.532 12.379 22.7643 12.379H28.8951C30.1274 12.379 31.1275 13.3774 31.1275 14.6115V21.6455C31.1275 22.8782 30.1277 23.878 28.8951 23.878H22.7643C21.5317 23.878 20.5319 22.8782 20.5319 21.6455V14.6115Z" fill="black"/>
<path d="M30.3951 14.6115C30.3951 13.7823 29.7232 13.1115 28.8951 13.1115H22.7643C21.9362 13.1115 21.2643 13.7823 21.2643 14.6115V15.8791C21.2643 16.4314 21.712 16.879 22.2642 16.879H24.5062V23.1455H27.1533V16.8789H29.3953C29.9475 16.8789 30.3952 16.4313 30.3952 15.879V14.6115H30.3951Z" fill="#BCE4FF"/>
<path fill-rule="evenodd" clip-rule="evenodd" d="M20.5319 14.6115C20.5319 13.3775 21.532 12.379 22.7643 12.379H28.8951C30.1225 12.379 31.1195 13.3696 31.1275 14.5967C31.1276 14.6016 31.1276 14.6065 31.1276 14.6115V15.879C31.1276 16.8358 30.3521 17.6114 29.3953 17.6114H27.8857V23.1455C27.8857 23.55 27.5578 23.878 27.1533 23.878H24.5062C24.1017 23.878 23.7738 23.55 23.7738 23.1455V17.6115H22.2642C21.3075 17.6115 20.5319 16.8359 20.5319 15.8791V14.6115ZM29.6628 14.6236C29.6627 14.6195 29.6627 14.6155 29.6627 14.6115C29.6627 14.1872 29.319 13.8439 28.8951 13.8439H22.7643C22.3404 13.8439 21.9968 14.1872 21.9968 14.6115V15.8791C21.9968 16.0269 22.1165 16.1466 22.2642 16.1466H24.5062C24.9107 16.1466 25.2387 16.4745 25.2387 16.879V22.4131H26.4209V16.8789C26.4209 16.4744 26.7488 16.1465 27.1533 16.1465H29.3953C29.543 16.1465 29.6628 16.0268 29.6628 15.879V14.6236Z" fill="black"/>
<path d="M42.4842 15.8791V21.6455C42.4842 22.4736 41.8123 23.1455 40.9842 23.1455H34.8534C34.0253 23.1455 33.3534 22.4736 33.3534 21.6455V15.8791C33.3534 15.05 34.0253 14.3791 34.8534 14.3791H40.9842C41.8124 14.3791 42.4842 15.0499 42.4842 15.8791Z" fill="#9BE69D"/>
<path d="M42.4842 14.6115C42.4842 13.7823 41.8123 13.1115 40.9842 13.1115H34.8534C34.0253 13.1115 33.3534 13.7823 33.3534 14.6115V15.8791C33.3534 16.4314 33.8011 16.879 34.3533 16.879H36.5953V23.1455H39.2424V16.8789H41.4843C42.0366 16.8789 42.4843 16.4313 42.4843 15.879V14.6115H42.4842Z" fill="#BCE4FF"/>
<path fill-rule="evenodd" clip-rule="evenodd" d="M34.8537 13.8438C34.4298 13.8438 34.0861 14.187 34.0861 14.6113V15.8789C34.0861 16.0271 34.2055 16.1465 34.3537 16.1465H36.5949C36.9994 16.1465 37.3273 16.4744 37.3273 16.8789V22.4131H38.51V16.8789C38.51 16.4744 38.8379 16.1465 39.2424 16.1465H41.4846C41.6323 16.1465 41.7521 16.0267 41.7521 15.8789V14.6113C41.7521 14.187 41.4085 13.8438 40.9846 13.8438H40.0139C39.6094 13.8438 39.2814 13.5158 39.2814 13.1113C39.2814 12.7068 39.6094 12.3789 40.0139 12.3789H40.9846C42.2169 12.3789 43.217 13.3774 43.217 14.6113V15.8789C43.217 16.8366 42.4404 17.6113 41.4846 17.6113H39.9748V23.1455C39.9748 23.55 39.6469 23.8779 39.2424 23.8779H36.5949C36.1904 23.8779 35.8625 23.55 35.8625 23.1455V17.6113H34.3537C33.3965 17.6113 32.6213 16.8362 32.6213 15.8789V14.6113C32.6213 13.3774 33.6214 12.3789 34.8537 12.3789H36.5959C37.0004 12.3789 37.3283 12.7068 37.3283 13.1113C37.3283 13.5158 37.0004 13.8438 36.5959 13.8438H34.8537Z" fill="black"/>
<path fill-rule="evenodd" clip-rule="evenodd" d="M34.8535 13.8439C34.4296 13.8439 34.0859 14.1872 34.0859 14.6115V21.6455C34.0859 22.0692 34.4299 22.4131 34.8535 22.4131H40.9843C41.4079 22.4131 41.7519 22.0691 41.7519 21.6455V14.6115C41.7519 14.1872 41.4082 13.8439 40.9843 13.8439C40.5798 13.8439 40.2519 13.516 40.2519 13.1115C40.2519 12.7069 40.5798 12.379 40.9843 12.379C42.2166 12.379 43.2167 13.3775 43.2167 14.6115V21.6455C43.2167 22.8782 42.2169 23.878 40.9843 23.878H34.8535C33.6209 23.878 32.6211 22.8782 32.6211 21.6455V14.6115C32.6211 13.3775 33.6212 12.379 34.8535 12.379C35.258 12.379 35.5859 12.7069 35.5859 13.1115C35.5859 13.516 35.258 13.8439 34.8535 13.8439Z" fill="black"/>
<path d="M30.3951 29.6222V35.3886C30.3951 36.2167 29.7232 36.8886 28.8951 36.8886H22.7643C21.9362 36.8886 21.2643 36.2167 21.2643 35.3886V29.6222C21.2643 28.7931 21.9362 28.1222 22.7643 28.1222H28.8951C29.7232 28.1222 30.3951 28.7931 30.3951 29.6222Z" fill="#9BE69D"/>
<path fill-rule="evenodd" clip-rule="evenodd" d="M22.7643 27.5869C22.3404 27.5869 21.9968 27.9302 21.9968 28.3545V35.3886C21.9968 35.8122 22.3407 36.1562 22.7643 36.1562H28.8951C29.3187 36.1562 29.6627 35.8122 29.6627 35.3886V28.3545C29.6627 27.9303 29.3191 27.587 28.8951 27.5869C28.8951 27.5869 28.8951 27.5869 28.8951 27.5869H22.7643ZM20.5319 28.3545C20.5319 27.1206 21.532 26.1221 22.7643 26.1221H28.8951C30.1273 26.1222 31.1275 27.1205 31.1275 28.3545V35.3886C31.1275 36.6212 30.1277 37.621 28.8951 37.621H22.7643C21.5317 37.621 20.5319 36.6212 20.5319 35.3886V28.3545Z" fill="black"/>
<path d="M30.3951 28.3545C30.3951 27.5254 29.7232 26.8545 28.8951 26.8545H22.7643C21.9362 26.8545 21.2643 27.5254 21.2643 28.3545V29.6222C21.2643 30.1744 21.712 30.6221 22.2642 30.6221H24.5062V36.8886H27.1533V30.6221H29.3953C29.9475 30.6221 30.3952 30.1744 30.3952 29.6222V28.3545H30.3951Z" fill="#BCE4FF"/>
<path fill-rule="evenodd" clip-rule="evenodd" d="M20.5319 28.3545C20.5319 27.1206 21.532 26.1221 22.7643 26.1221H28.8951C30.1225 26.1221 31.1195 27.1126 31.1275 28.3397C31.1276 28.3446 31.1276 28.3496 31.1276 28.3545V29.6222C31.1276 30.5789 30.3521 31.3545 29.3953 31.3545H27.8857V36.8886C27.8857 37.2931 27.5578 37.621 27.1533 37.621H24.5062C24.1017 37.621 23.7738 37.2931 23.7738 36.8886V31.3545H22.2642C21.3075 31.3545 20.5319 30.5789 20.5319 29.6222V28.3545ZM29.6628 28.3666C29.6627 28.3626 29.6627 28.3585 29.6627 28.3545C29.6627 27.9302 29.319 27.5869 28.8951 27.5869H22.7643C22.3404 27.5869 21.9968 27.9302 21.9968 28.3545V29.6222C21.9968 29.7699 22.1165 29.8897 22.2642 29.8897H24.5062C24.9107 29.8897 25.2387 30.2176 25.2387 30.6221V36.1562H26.4209V30.6221C26.4209 30.2176 26.7488 29.8897 27.1533 29.8897H29.3953C29.543 29.8897 29.6628 29.7699 29.6628 29.6222V28.3666Z" fill="black"/>
<path d="M33.3535 34.1209V28.3545C33.3535 27.5264 34.0254 26.8545 34.8535 26.8545H40.9843C41.8124 26.8545 42.4843 27.5264 42.4843 28.3545V34.1209C42.4843 34.95 41.8124 35.6209 40.9843 35.6209H34.8535C34.0253 35.6209 33.3535 34.9501 33.3535 34.1209Z" fill="#FE646F"/>
<path fill-rule="evenodd" clip-rule="evenodd" d="M34.8535 27.5869C34.4299 27.5869 34.0859 27.9309 34.0859 28.3545V35.3886C34.0859 35.8129 34.4295 36.1562 34.8535 36.1562H40.9843C41.4082 36.1562 41.7519 35.8129 41.7519 35.3886V28.3545C41.7519 27.9309 41.4079 27.5869 40.9843 27.5869H34.8535ZM32.6211 28.3545C32.6211 27.1219 33.6209 26.1221 34.8535 26.1221H40.9843C42.2169 26.1221 43.2167 27.1219 43.2167 28.3545V35.3886C43.2167 36.6225 42.2166 37.621 40.9843 37.621H34.8535C33.6211 37.621 32.6211 36.6225 32.6211 35.3886V28.3545Z" fill="black"/>
<path d="M33.3535 35.3886C33.3535 36.2177 34.0254 36.8886 34.8535 36.8886H40.9843C41.8124 36.8886 42.4843 36.2177 42.4843 35.3886V34.1209C42.4843 33.5687 42.0366 33.121 41.4843 33.121H39.2424V26.8545H36.5953V33.121H34.3533C33.8011 33.121 33.3534 33.5687 33.3534 34.1209V35.3886H33.3535Z" fill="#BCE4FF"/>
<path fill-rule="evenodd" clip-rule="evenodd" d="M35.8629 26.8545C35.8629 26.45 36.1908 26.1221 36.5953 26.1221H39.2424C39.6469 26.1221 39.9748 26.45 39.9748 26.8545V32.3886H41.4843C42.4411 32.3886 43.2167 33.1641 43.2167 34.1209V35.3886C43.2167 36.6225 42.2166 37.621 40.9843 37.621H34.8535C33.6261 37.621 32.6291 36.6305 32.6211 35.4034C32.621 35.3984 32.621 35.3935 32.621 35.3886V34.1209C32.621 33.1641 33.3965 32.3886 34.3533 32.3886H35.8629V26.8545ZM34.0858 35.3764C34.0859 35.3805 34.0859 35.3845 34.0859 35.3886C34.0859 35.8129 34.4296 36.1562 34.8535 36.1562H40.9843C41.4082 36.1562 41.7518 35.8129 41.7518 35.3886V34.1209C41.7518 33.9732 41.6321 33.8534 41.4843 33.8534H39.2424C38.8379 33.8534 38.5099 33.5255 38.5099 33.121V27.5869H37.3277V33.121C37.3277 33.5255 36.9998 33.8534 36.5953 33.8534H34.3533C34.2056 33.8534 34.0858 33.9732 34.0858 34.1209V35.3764Z" fill="black"/>
</g>
<defs>
<clipPath id="clip0_2179_1354">
<rect width="50" height="50" fill="white"/>
</clipPath>
</defs>
</svg>
