<svg width="30" height="30" viewBox="0 0 30 30" fill="none" xmlns="http://www.w3.org/2000/svg">
<g clip-path="url(#clip0_1799_159)">
<path d="M0.278423 12.8564C0.375103 13.7385 1.08959 14.4275 1.97489 14.4895C2.04813 14.4947 2.1209 14.4998 2.19362 14.5045C2.73344 14.5411 3.15309 14.9894 3.15309 15.5307V17.5764C3.15309 18.2646 3.94077 18.6551 4.48815 18.2383C5.48706 17.4773 6.81602 16.3456 7.63141 15.172C7.82436 14.8941 8.14305 14.7322 8.48155 14.734C10.992 14.7467 13.5025 14.6659 16.013 14.4895C16.7129 14.4406 17.3072 14.0008 17.5719 13.3821C17.6423 13.2197 17.6893 13.0441 17.7094 12.8605C18.0812 9.46428 18.0812 6.06754 17.7094 2.6708C17.6127 1.78967 16.8978 1.10389 16.0139 1.0419C12.274 0.779514 8.53457 0.726897 4.79518 0.884162C3.8554 0.923127 2.91514 0.975686 1.97536 1.0419C1.091 1.10395 0.375571 1.78979 0.278892 2.67086C-0.0928857 6.06619 -0.0928857 9.46106 0.278423 12.8564V12.8564Z" fill="#57A0FF"/>
<path d="M29.7048 23.3139C29.6023 24.2494 28.8445 24.9803 27.9054 25.046C27.8277 25.0515 27.7506 25.057 27.6734 25.062C27.1008 25.1008 26.6557 25.5763 26.6557 26.1503V28.3201C26.6557 29.05 25.8203 29.4643 25.2397 29.0221C24.1802 28.2151 22.7707 27.0147 21.9058 25.77C21.7012 25.4752 21.3632 25.3034 21.0042 25.3054C18.3414 25.3188 15.6787 25.2332 13.016 25.046C12.2737 24.9942 11.6433 24.5277 11.3625 23.8715C11.2878 23.6993 11.2381 23.513 11.2167 23.3184C10.8223 19.7162 10.8223 16.1135 11.2167 12.5107C11.3192 11.5762 12.0775 10.8488 13.015 10.783C16.9817 10.5047 20.9478 10.4489 24.9141 10.6157C25.9108 10.657 26.9081 10.7128 27.9049 10.783C28.8429 10.8487 29.6017 11.5761 29.7042 12.5107C30.0986 16.1119 30.0986 19.7127 29.7048 23.3139V23.3139Z" fill="#FFC250"/>
<path d="M13.2063 4.58929H2.97125C2.72123 4.58929 2.51855 4.38661 2.51855 4.13659C2.51855 3.88657 2.72123 3.6839 2.97125 3.6839H13.2063C13.4563 3.6839 13.659 3.88657 13.659 4.13659C13.659 4.38661 13.4563 4.58929 13.2063 4.58929Z" fill="#F9F6F9"/>
<path d="M13.2063 7.24029H2.97125C2.72123 7.24029 2.51855 7.03762 2.51855 6.7876C2.51855 6.53758 2.72123 6.3349 2.97125 6.3349H13.2063C13.4563 6.3349 13.659 6.53758 13.659 6.7876C13.659 7.03762 13.4563 7.24029 13.2063 7.24029Z" fill="#F9F6F9"/>
<path d="M6.62322 9.89129H2.97125C2.72123 9.89129 2.51855 9.68862 2.51855 9.4386C2.51855 9.18858 2.72123 8.9859 2.97125 8.9859H6.62322C6.87324 8.9859 7.07592 9.18858 7.07592 9.4386C7.07592 9.68862 6.87324 9.89129 6.62322 9.89129Z" fill="#F9F6F9"/>
<path d="M25.2063 15.5893H14.9712C14.7212 15.5893 14.5186 15.3866 14.5186 15.1366C14.5186 14.8866 14.7212 14.6839 14.9712 14.6839H25.2063C25.4563 14.6839 25.659 14.8866 25.659 15.1366C25.659 15.3866 25.4563 15.5893 25.2063 15.5893Z" fill="black" fill-opacity="0.5"/>
<path d="M25.2063 18.2403H14.9712C14.7212 18.2403 14.5186 18.0376 14.5186 17.7876C14.5186 17.5376 14.7212 17.3349 14.9712 17.3349H25.2063C25.4563 17.3349 25.659 17.5376 25.659 17.7876C25.659 18.0376 25.4563 18.2403 25.2063 18.2403Z" fill="black" fill-opacity="0.5"/>
<path d="M18.6232 20.8913H14.9712C14.7212 20.8913 14.5186 20.6886 14.5186 20.4386C14.5186 20.1886 14.7212 19.9859 14.9712 19.9859H18.6232C18.8732 19.9859 19.0759 20.1886 19.0759 20.4386C19.0759 20.6886 18.8732 20.8913 18.6232 20.8913Z" fill="black" fill-opacity="0.5"/>
</g>
<defs>
<clipPath id="clip0_1799_159">
<rect width="30" height="30" fill="white"/>
</clipPath>
</defs>
</svg>
