<svg width="30" height="30" viewBox="0 0 30 30" fill="none" xmlns="http://www.w3.org/2000/svg">
<g clip-path="url(#clip0_1799_135)">
<path d="M28.2136 9.79217H27.5539C28.5405 9.79217 29.3403 8.99237 29.3403 8.00577V7.34612C29.3403 6.35952 28.5405 5.55971 27.5539 5.55971H25.8751C26.6616 5.55971 27.2992 4.92216 27.2992 4.13565V2.93108C27.2992 2.14458 26.6616 1.50702 25.8751 1.50702H17.3973C15.9722 1.50702 14.6569 1.97419 13.5943 2.76298C12.9397 3.24895 12.1392 3.49803 11.324 3.49803H7.08331L3.92651 14.0246H8.89978C10.2133 14.0246 11.363 14.9069 11.703 16.1756L14.8917 28.0762C14.9575 28.322 15.1803 28.493 15.4349 28.493C16.8903 28.493 18.0701 27.3131 18.0701 25.8577V19.9134C18.0701 18.9987 18.8116 18.2572 19.7263 18.2572H27.5539C28.5405 18.2572 29.3403 17.4574 29.3403 16.4708V15.8111C29.3403 14.8245 28.5405 14.0247 27.5539 14.0247H28.2136C29.2002 14.0247 30 13.2249 30 12.2383V11.5786C30 10.592 29.2002 9.79217 28.2136 9.79217Z" fill="#FFCBBE"/>
<path d="M28.2137 9.79217H27.554C28.5406 9.79217 29.3404 8.99237 29.3404 8.00577V7.34612C29.3404 6.35952 28.5406 5.55971 27.554 5.55971H25.8752C26.6617 5.55971 27.2992 4.92216 27.2992 4.13565V2.93108C27.2992 2.14458 26.6617 1.50702 25.8752 1.50702H24.8684C24.8792 1.57768 24.8848 1.65011 24.8848 1.72382V13.6448C24.8848 15.5253 23.3603 17.0498 21.4797 17.0498H19.2235C17.2531 17.0498 15.6557 18.6472 15.6557 20.6177V24.6504C15.6557 25.536 15.2189 26.3194 14.5491 26.7973L14.8918 28.0762C14.9576 28.322 15.1804 28.493 15.435 28.493C16.8904 28.493 18.0702 27.3131 18.0702 25.8577V19.9134C18.0702 18.9987 18.8117 18.2572 19.7264 18.2572H27.554C28.5406 18.2572 29.3404 17.4574 29.3404 16.4708V15.8111C29.3404 14.8245 28.5406 14.0247 27.554 14.0247H28.2137C29.2003 14.0247 30.0001 13.2249 30.0001 12.2383V11.5786C30.0001 10.592 29.2003 9.79217 28.2137 9.79217Z" fill="#EAAC9D"/>
<path d="M29.768 13.1192C29.461 13.6599 28.8799 14.0247 28.2136 14.0247H23.9024C23.6523 14.0247 23.4497 13.822 23.4497 13.572C23.4497 13.322 23.6524 13.1193 23.9024 13.1193H29.768V13.1192ZM23.4497 9.33951C23.4497 9.58953 23.6524 9.7922 23.9024 9.7922H28.2147C28.2144 9.7922 28.214 9.7922 28.2136 9.7922H27.554C28.2202 9.7922 28.8013 9.42746 29.1084 8.88676H23.9024C23.6524 8.88676 23.4497 9.08943 23.4497 9.33951ZM23.4497 5.10699C23.4497 5.35701 23.6524 5.55969 23.9024 5.55969H25.8751C26.4787 5.55969 26.9945 5.18427 27.2018 4.65424H23.9024C23.6524 4.65429 23.4497 4.85697 23.4497 5.10699Z" fill="#EAAC9D"/>
<path d="M29.7681 13.1192H24.8847V13.6448C24.8847 13.7732 24.8776 13.8999 24.8638 14.0247H28.2136C28.88 14.0247 29.461 13.6599 29.7681 13.1192Z" fill="#DF9380"/>
<path d="M24.8848 9.79223H28.2148C28.2145 9.79223 28.2141 9.79223 28.2137 9.79223H27.5541C28.2203 9.79223 28.8013 9.42748 29.1085 8.88678H24.8848V9.79223H24.8848Z" fill="#DF9380"/>
<path d="M25.8758 5.55969C26.479 5.55945 26.9946 5.1841 27.2019 4.65424H24.8848V5.55969H25.8758Z" fill="#DF9380"/>
<path d="M0.49043 15.6958H6.59285C6.86373 15.6958 7.08328 15.4762 7.08328 15.2054V3.49805H0.49043C0.219609 3.49805 0 3.71766 0 3.98854V15.2053C0 15.4762 0.219609 15.6958 0.49043 15.6958V15.6958Z" fill="#DA387D"/>
<path d="M4.66881 3.49805V11.6835C4.66881 13.2327 3.41297 14.4885 1.86381 14.4885H0V15.2053C0 15.4762 0.219609 15.6957 0.49043 15.6957H6.59285C6.86373 15.6957 7.08328 15.4762 7.08328 15.2053V3.49805H4.66881Z" fill="#D80A61"/>
<path d="M3.54153 13.6442C4.23689 13.6442 4.8006 13.0805 4.8006 12.3852C4.8006 11.6898 4.23689 11.1261 3.54153 11.1261C2.84617 11.1261 2.28247 11.6898 2.28247 12.3852C2.28247 13.0805 2.84617 13.6442 3.54153 13.6442Z" fill="#F9C6DA"/>
<path d="M3.92651 13.5843C4.43364 13.4217 4.80067 12.9463 4.80067 12.3852C4.80067 12.1809 4.75198 11.9879 4.66562 11.8173C4.63368 12.4979 4.35917 13.1151 3.92651 13.5843V13.5843Z" fill="#EFA5C3"/>
</g>
<defs>
<clipPath id="clip0_1799_135">
<rect width="30" height="30" fill="white"/>
</clipPath>
</defs>
</svg>
