<svg xmlns="http://www.w3.org/2000/svg" width="17" height="12.75" viewBox="0 0 17 12.75">
  <path id="envelope" d="M15.406,59.882H1.594A1.6,1.6,0,0,0,0,61.476v9.563a1.6,1.6,0,0,0,1.594,1.594H15.406A1.6,1.6,0,0,0,17,71.038V61.476A1.6,1.6,0,0,0,15.406,59.882Zm0,1.063a.528.528,0,0,1,.2.041L8.5,67.148,1.39,60.986a.529.529,0,0,1,.2-.041Zm0,10.625H1.594a.532.532,0,0,1-.531-.531v-8.93l7.089,6.144a.532.532,0,0,0,.7,0l7.089-6.144v8.93A.532.532,0,0,1,15.406,71.569Z" transform="translate(0 -59.882)" fill="#d42941"/>
</svg>
