<svg xmlns="http://www.w3.org/2000/svg" xmlns:xlink="http://www.w3.org/1999/xlink" width="48" height="48" viewBox="0 0 48 48">
  <defs>
    <clipPath id="clip-path">
      <rect id="Rectangle_18247" data-name="Rectangle 18247" width="48" height="48" transform="translate(216 412)" fill="#fff"/>
    </clipPath>
  </defs>
  <g id="Group_132" data-name="Group 132" transform="translate(-216 -412)" clip-path="url(#clip-path)">
    <path id="Union_21" data-name="Union 21" d="M10564.44-12492l9.316-9.316a45.2,45.2,0,0,1-10.452-9.893,1.584,1.584,0,0,1,0-1.868c.428-.585,10.646-14.361,23.694-14.361a22.316,22.316,0,0,1,10.2,2.678l10.241-10.24,2.12,2.12-9.679,9.679a44.994,44.994,0,0,1,10.811,10.125,1.575,1.575,0,0,1,0,1.868c-.428.586-10.642,14.364-23.694,14.364a22.525,22.525,0,0,1-10.59-2.883l-9.849,9.848Zm22.559-8.009c9.633,0,17.941-9.14,20.4-12.134a42.465,42.465,0,0,0-9.824-8.753l-3.017,3.017a9.446,9.446,0,0,1,1.934,5.736,9.506,9.506,0,0,1-9.494,9.494,9.446,9.446,0,0,1-5.736-1.934l-2.492,2.492A18.756,18.756,0,0,0,10587-12500.009Zm-20.4-12.134a42.781,42.781,0,0,0,9.46,8.524l3.131-3.131a9.446,9.446,0,0,1-1.685-5.394,9.505,9.505,0,0,1,9.494-9.494,9.437,9.437,0,0,1,5.394,1.685l2.436-2.436a18.5,18.5,0,0,0-7.829-1.889C10577.366-12524.276,10569.059-12515.135,10566.6-12512.143Zm20.4,6.329a6.335,6.335,0,0,0,6.33-6.329,6.3,6.3,0,0,0-1.037-3.469l-8.762,8.762A6.294,6.294,0,0,0,10587-12505.813Zm-6.329-6.329a6.288,6.288,0,0,0,.813,3.1l8.617-8.617a6.286,6.286,0,0,0-3.1-.813A6.339,6.339,0,0,0,10580.67-12512.143Z" transform="translate(-10347 12948.439)"/>
  </g>
</svg>
