<svg width="28" height="28" viewBox="0 0 28 28" fill="none" xmlns="http://www.w3.org/2000/svg">
<g clip-path="url(#clip0_477_7741)">
<path d="M14 2.08511e-06C11.2311 2.08511e-06 8.52431 0.821087 6.22202 2.35943C3.91973 3.89777 2.12532 6.08427 1.06569 8.64243C0.00606603 11.2006 -0.271181 14.0155 0.269012 16.7313C0.809205 19.447 2.14258 21.9416 4.10051 23.8995C6.05844 25.8574 8.55301 27.1908 11.2687 27.731C13.9845 28.2712 16.7994 27.9939 19.3576 26.9343C21.9157 25.8747 24.1022 24.0803 25.6406 21.778C27.1789 19.4757 28 16.7689 28 14C28.001 12.1612 27.6396 10.3403 26.9364 8.64124C26.2331 6.94223 25.202 5.39849 23.9017 4.09827C22.6015 2.79805 21.0578 1.76685 19.3588 1.06364C17.6597 0.360434 15.8388 -0.00100171 14 2.08511e-06ZM12.7273 6.36364C12.7273 6.02609 12.8614 5.70237 13.1 5.46368C13.3387 5.225 13.6625 5.09091 14 5.09091C14.3376 5.09091 14.6613 5.225 14.9 5.46368C15.1386 5.70237 15.2727 6.02609 15.2727 6.36364V11.4545C15.2727 11.7921 15.1386 12.1158 14.9 12.3545C14.6613 12.5932 14.3376 12.7273 14 12.7273C13.6625 12.7273 13.3387 12.5932 13.1 12.3545C12.8614 12.1158 12.7273 11.7921 12.7273 11.4545V6.36364ZM20.3 20.3C18.6291 21.9709 16.363 22.9095 14 22.9095C11.637 22.9095 9.37087 21.9709 7.7 20.3C6.02914 18.6291 5.09046 16.363 5.09046 14C5.09046 11.637 6.02914 9.37086 7.7 7.7C7.93847 7.46295 8.26104 7.3299 8.59728 7.3299C8.93351 7.3299 9.25609 7.46295 9.49455 7.7C9.61535 7.81614 9.71145 7.95548 9.7771 8.10966C9.84274 8.26385 9.87658 8.4297 9.87658 8.59727C9.87658 8.76485 9.84274 8.9307 9.7771 9.08488C9.71145 9.23906 9.61535 9.3784 9.49455 9.49454C8.60619 10.3852 8.00171 11.5191 7.75747 12.7531C7.51323 13.987 7.64019 15.2657 8.12231 16.4276C8.60443 17.5895 9.42008 18.5824 10.4662 19.2809C11.5124 19.9794 12.7421 20.3523 14 20.3523C15.2579 20.3523 16.4876 19.9794 17.5338 19.2809C18.5799 18.5824 19.3956 17.5895 19.8777 16.4276C20.3598 15.2657 20.4868 13.987 20.2425 12.7531C19.9983 11.5191 19.3938 10.3852 18.5055 9.49454C18.3847 9.3784 18.2886 9.23906 18.2229 9.08488C18.1573 8.9307 18.1234 8.76485 18.1234 8.59727C18.1234 8.4297 18.1573 8.26385 18.2229 8.10966C18.2886 7.95548 18.3847 7.81614 18.5055 7.7C18.7439 7.46295 19.0665 7.3299 19.4027 7.3299C19.739 7.3299 20.0615 7.46295 20.3 7.7C21.1274 8.5273 21.7837 9.50947 22.2315 10.5904C22.6793 11.6714 22.9097 12.83 22.9097 14C22.9097 15.17 22.6793 16.3286 22.2315 17.4096C21.7837 18.4905 21.1274 19.4727 20.3 20.3Z" fill="#AAAAAA"/>
</g>
<defs>
<clipPath id="clip0_477_7741">
<rect width="28" height="28" fill="white"/>
</clipPath>
</defs>
</svg>
