<svg width="18" height="18" viewBox="0 0 18 18" fill="none" xmlns="http://www.w3.org/2000/svg">
<g clip-path="url(#clip0)">
<path d="M16.9453 7.55859H1.05469C0.472184 7.55859 0 8.03078 0 8.61328C0 9.19579 0.472184 9.66797 1.05469 9.66797H16.9453C17.5278 9.66797 18 9.19579 18 8.61328C18 8.03078 17.5278 7.55859 16.9453 7.55859Z" fill="white"/>
<path d="M9 14.8359C6.67136 14.8359 4.76026 13.0152 4.61471 10.7227H1.44141V11.8477C1.44141 12.1389 1.67752 12.375 1.96875 12.375H2.79559C2.91231 12.7499 3.06292 13.113 3.24594 13.461L2.66091 14.046C2.56201 14.1449 2.50643 14.279 2.50643 14.4189C2.50643 14.5588 2.56201 14.6929 2.66091 14.7918L4.64966 16.7805C4.85557 16.9864 5.18948 16.9864 5.39543 16.7805L5.98046 16.1955C6.32844 16.3785 6.69157 16.5291 7.06644 16.6458V17.4727C7.06644 17.7639 7.30255 18 7.59379 18H10.4063C10.6975 18 10.9336 17.7639 10.9336 17.4727V16.6458C11.3085 16.5291 11.6716 16.3785 12.0196 16.1955L12.6046 16.7805C12.8106 16.9864 13.1445 16.9864 13.3504 16.7805L15.3392 14.7918C15.4381 14.6929 15.4936 14.5588 15.4936 14.4189C15.4936 14.279 15.4381 14.1449 15.3392 14.046L14.7541 13.461C14.9372 13.113 15.0877 12.7499 15.2045 12.375H16.0312C16.3225 12.375 16.5586 12.1389 16.5586 11.8477V10.7227H13.3853C13.2397 13.0152 11.3286 14.8359 9 14.8359Z" fill="white"/>
<path d="M13.1841 2.3972L12.7448 4.15501C12.6741 4.43756 12.3879 4.60937 12.1053 4.53874C11.8227 4.46811 11.6509 4.18184 11.7216 3.89925L12.24 1.825C11.7326 1.56853 11.1908 1.37095 10.6238 1.23982L10.6789 1.01918C10.7316 0.808383 10.6491 0.587602 10.4726 0.460969C9.61543 -0.153738 8.38493 -0.153738 7.52775 0.460969C7.35119 0.587602 7.26868 0.808383 7.32138 1.01918L7.37654 1.23982C6.80947 1.37095 6.26761 1.56857 5.7602 1.82507L6.27857 3.89925C6.3492 4.1818 6.17739 4.46811 5.89484 4.53874C5.61229 4.60937 5.32598 4.43756 5.25539 4.15501L4.81597 2.39731C3.44646 3.37736 2.4328 4.82439 2.01025 6.50391H15.9899C15.5673 4.82435 14.5537 3.37729 13.1841 2.3972Z" fill="white"/>
</g>
<defs>
<clipPath id="clip0">
<rect width="18" height="18" fill="white"/>
</clipPath>
</defs>
</svg>
